<svg width="213" height="221" viewBox="0 0 213 221" fill="none" xmlns="http://www.w3.org/2000/svg">
<path d="M28.9966 194.847V198.863H56.5699V194.847H28.9966Z" fill="#E0E0E0"/>
<path d="M32.7588 195.008C32.8519 195.008 32.9303 195.852 32.9303 196.893C32.9303 197.935 32.8519 198.773 32.7588 198.773C32.6658 198.773 32.5825 197.929 32.5825 196.893C32.5825 195.857 32.6609 195.008 32.7588 195.008Z" fill="#FAFAFA"/>
<path d="M32.1558 194.927C32.2537 194.927 32.3272 195.771 32.3272 196.807C32.3272 197.843 32.2537 198.692 32.1558 198.692C32.0578 198.692 31.9844 197.848 31.9844 196.807C31.9844 195.766 32.0578 194.927 32.1558 194.927Z" fill="#FAFAFA"/>
<path d="M54.4395 195.008C54.5374 195.008 54.6158 195.852 54.6158 196.893C54.6158 197.935 54.5374 198.773 54.4395 198.773C54.3415 198.773 54.2681 197.929 54.2681 196.893C54.2681 195.857 54.3464 195.008 54.4395 195.008Z" fill="#FAFAFA"/>
<path d="M53.8418 194.927C53.9349 194.927 54.0133 195.771 54.0133 196.807C54.0133 197.843 53.9349 198.692 53.8418 198.692C53.7488 198.692 53.6655 197.848 53.6655 196.807C53.6655 195.766 53.7439 194.927 53.8418 194.927Z" fill="#FAFAFA"/>
<path d="M50.2374 196.973C50.2374 197.08 47.0784 197.16 43.1848 197.16C39.2913 197.16 36.1323 197.08 36.1323 196.973C36.1323 196.867 39.2913 196.786 43.1848 196.786C47.0784 196.786 50.2374 196.867 50.2374 196.973Z" fill="#FAFAFA"/>
<path d="M28.8789 212.931V220.963H56.4523V212.931H28.8789Z" fill="#E0E0E0"/>
<path d="M56.8052 218.704C56.8052 218.704 56.7611 218.742 56.6583 218.795C56.5554 218.848 56.4036 218.928 56.1979 219.025C55.5986 219.302 54.9702 219.497 54.327 219.607C53.2964 219.811 52.2331 219.646 51.2954 219.137C50.7154 218.8 50.2208 218.312 49.8555 217.716C49.4363 217.038 49.2618 216.214 49.3658 215.404C49.426 214.964 49.5953 214.55 49.8555 214.207C49.9949 214.02 50.1722 213.87 50.3737 213.77C50.5751 213.67 50.795 213.622 51.0163 213.63C51.2439 213.651 51.4653 213.722 51.6667 213.84C51.8681 213.957 52.0451 214.119 52.1868 214.314C52.4884 214.702 52.6746 215.181 52.7206 215.687C52.7582 216.208 52.6928 216.731 52.5289 217.222C52.365 217.714 52.1064 218.161 51.7705 218.533C51.0727 219.338 50.1317 219.841 49.1209 219.949C48.0801 220.058 47.03 219.915 46.0452 219.532C44.9928 219.173 44.0587 218.488 43.3564 217.561C42.9942 217.063 42.776 216.459 42.7296 215.826C42.7003 215.496 42.7377 215.164 42.8393 214.852C42.9408 214.54 43.104 214.256 43.3173 214.02C43.5506 213.776 43.8562 213.63 44.1792 213.609C44.4985 213.6 44.8129 213.697 45.0804 213.887C45.5972 214.256 45.9611 214.831 46.0942 215.489C46.2095 216.131 46.1699 216.795 45.9793 217.416C45.7888 218.037 45.4537 218.593 45.0069 219.03C44.1316 219.836 43.0445 220.318 41.9019 220.408C40.8189 220.544 39.7218 220.425 38.6842 220.061C37.6656 219.711 36.7964 218.974 36.2354 217.983C35.9564 217.513 35.7834 216.978 35.7306 216.421C35.6778 215.864 35.7467 215.301 35.9317 214.779C36.0233 214.517 36.1742 214.285 36.3703 214.103C36.5664 213.922 36.8013 213.798 37.0533 213.743C37.2955 213.695 37.5442 213.703 37.7836 213.765C38.023 213.828 38.2479 213.944 38.4442 214.106C38.7879 214.435 39.0339 214.868 39.1508 215.351C39.2677 215.833 39.2502 216.342 39.1005 216.814C38.8324 217.655 38.3499 218.396 37.7095 218.95C36.6488 219.93 35.3177 220.494 33.9286 220.552C33.0831 220.585 32.2407 220.423 31.4561 220.078C30.6715 219.733 29.962 219.212 29.3739 218.549C29.2561 218.417 29.1449 218.278 29.0408 218.133C29.0041 218.084 28.9713 218.033 28.9429 217.978C29.525 218.678 30.2207 219.256 30.995 219.682C31.9072 220.17 32.9184 220.398 33.9335 220.344C35.2736 220.261 36.5511 219.698 37.5675 218.742C38.1641 218.215 38.6122 217.515 38.8605 216.723C38.9902 216.31 39.005 215.865 38.903 215.443C38.8011 215.021 38.5869 214.641 38.2875 214.351C38.1229 214.218 37.9351 214.123 37.7354 214.071C37.5358 214.02 37.3287 214.013 37.1267 214.052C36.9219 214.099 36.7315 214.201 36.5737 214.351C36.4159 214.501 36.296 214.692 36.2256 214.907C36.0646 215.379 36.0077 215.885 36.0596 216.385C36.1115 216.885 36.2707 217.365 36.5243 217.786C37.0502 218.701 37.8602 219.379 38.8066 219.698C39.7994 220.041 40.8478 220.15 41.8823 220.018C42.9515 219.931 43.969 219.481 44.7914 218.731C45.1949 218.335 45.4972 217.831 45.6688 217.27C45.8405 216.708 45.8757 216.107 45.771 215.526C45.6605 214.962 45.3532 214.466 44.9139 214.143C44.7157 213.983 44.4724 213.904 44.2263 213.92C43.9801 213.935 43.7468 214.045 43.567 214.229C43.389 214.425 43.2528 214.662 43.1681 214.922C43.0835 215.182 43.0525 215.46 43.0773 215.735C43.1185 216.296 43.3111 216.831 43.6307 217.273C44.2908 218.142 45.1664 218.785 46.153 219.126C47.0933 219.495 48.0962 219.635 49.0915 219.537C50.0231 219.439 50.8918 218.981 51.5403 218.245C51.8494 217.907 52.0885 217.502 52.2415 217.055C52.3944 216.608 52.4576 216.13 52.4268 215.655C52.4102 215.222 52.2598 214.809 52.0001 214.482C51.7403 214.155 51.3866 213.934 50.9967 213.855C50.8151 213.848 50.6347 213.888 50.4692 213.969C50.3036 214.05 50.1574 214.172 50.0416 214.325C49.8028 214.628 49.6452 214.998 49.5862 215.393C49.486 216.141 49.6449 216.902 50.0318 217.529C50.3715 218.1 50.8338 218.571 51.3787 218.902C52.2835 219.408 53.3132 219.586 54.3172 219.409C54.9527 219.314 55.5767 219.144 56.1783 218.902C56.5897 218.79 56.8003 218.688 56.8052 218.704Z" fill="#FAFAFA"/>
<path d="M31.3428 198.976V212.915H56.4527V198.976H31.3428Z" fill="#EBEBEB"/>
<path d="M35.5162 199.456C35.6092 199.456 35.6876 202.474 35.6876 206.202C35.6876 209.929 35.6092 212.947 35.5162 212.947C35.4231 212.947 35.3398 209.929 35.3398 206.202C35.3398 202.474 35.4182 199.456 35.5162 199.456Z" fill="#E0E0E0"/>
<path d="M37.42 199.28C37.513 199.28 37.5914 202.266 37.5914 205.94C37.5914 209.614 37.513 212.6 37.42 212.6C37.3269 212.6 37.2437 209.62 37.2437 205.94C37.2437 202.26 37.322 199.28 37.42 199.28Z" fill="#E0E0E0"/>
<path d="M53.6167 198.852C53.7098 198.852 53.7882 201.993 53.7882 205.87C53.7882 209.748 53.7098 212.883 53.6167 212.883C53.5237 212.883 53.4404 209.742 53.4404 205.87C53.4404 201.998 53.5188 198.852 53.6167 198.852Z" fill="#E0E0E0"/>
<path d="M51.378 199.023C51.471 199.023 51.5494 202.078 51.5494 205.854C51.5494 209.63 51.471 212.685 51.378 212.685C51.2849 212.685 51.2017 209.63 51.2017 205.854C51.2017 202.078 51.28 199.023 51.378 199.023Z" fill="#E0E0E0"/>
<path d="M186.547 168.549C189.152 167.081 192.213 166.894 195.108 167.412C196.66 167.695 198.276 168.197 199.334 169.473C200.392 170.75 200.588 172.982 199.378 174.072C198.653 174.723 197.649 174.825 196.709 174.809C194.446 174.782 191.939 174.349 190.132 175.834C189.098 176.678 188.413 178.088 187.193 178.504C185.974 178.921 184.627 178.136 183.99 176.95C183.401 175.714 183.272 174.277 183.628 172.939C183.772 172.012 184.11 171.134 184.616 170.372C185.123 169.611 185.783 168.987 186.547 168.549Z" fill="#EBEBEB"/>
<path d="M180.582 155.993C182.174 158.471 185.269 157.649 186.704 156.137C188.139 154.626 188.746 152.431 189.295 150.337C190.559 145.563 191.827 140.548 190.892 135.682C190.667 134.207 190.072 132.827 189.173 131.698C188.717 131.141 188.137 130.724 187.488 130.488C186.839 130.252 186.145 130.205 185.475 130.352C183.917 130.806 182.948 132.489 182.247 134.053C180.184 138.734 179.101 143.857 179.079 149.05C179.079 151.464 179.333 153.996 180.582 155.993Z" fill="#EBEBEB"/>
<path d="M176.227 159.55C177.955 157.312 178.284 154.049 177.515 151.251C176.746 148.452 175.007 146.06 173.004 144.116C170.647 141.827 167.904 140.062 164.928 138.919C163.776 138.413 162.539 138.184 161.299 138.246C160.679 138.285 160.077 138.489 159.546 138.84C159.015 139.191 158.571 139.678 158.252 140.26C157.4 142.027 158.218 144.169 159.1 145.921C160.653 149 162.425 151.943 164.399 154.722C165.991 156.96 167.827 159.166 170.232 160.175C172.637 161.184 175.174 161.062 176.457 159.23" fill="#EBEBEB"/>
<path d="M180.475 193.39C180.559 193.02 180.608 192.643 180.622 192.263C180.695 191.446 180.783 190.415 180.896 189.192C181.036 187.677 181.247 186.17 181.528 184.679C181.896 182.857 182.399 181.071 183.031 179.338C183.652 177.617 184.491 175.999 185.524 174.531C186.366 173.336 187.442 172.36 188.673 171.674C189.51 171.226 190.405 170.921 191.328 170.772C191.675 170.76 192.02 170.706 192.356 170.611C192.008 170.57 191.656 170.57 191.308 170.611C190.35 170.691 189.413 170.957 188.541 171.396C187.246 172.064 186.109 173.05 185.22 174.275C184.14 175.764 183.269 177.42 182.634 179.189C182.002 180.942 181.51 182.752 181.165 184.599C180.898 186.108 180.714 187.632 180.612 189.165C180.524 190.468 180.489 191.526 180.475 192.257C180.438 192.634 180.438 193.013 180.475 193.39Z" fill="#E0E0E0"/>
<path d="M180.67 191.023C180.7 190.847 180.71 190.668 180.7 190.489C180.7 190.1 180.7 189.603 180.7 188.994C180.7 187.702 180.7 185.822 180.759 183.504C180.866 178.868 181.248 173.89 181.939 166.841C182.61 160.229 183.506 152.527 184.456 147.523C184.657 146.386 184.863 145.36 185.059 144.463C185.255 143.566 185.397 142.791 185.548 142.166C185.7 141.542 185.784 141.098 185.867 140.714C185.911 140.539 185.94 140.36 185.955 140.18C185.88 140.335 185.824 140.5 185.788 140.671C185.681 141.045 185.548 141.52 185.387 142.102C185.225 142.685 185.029 143.491 184.824 144.388C184.618 145.285 184.383 146.306 184.162 147.443C182.986 153.362 182.101 159.345 181.513 165.367C180.808 172.416 180.489 178.836 180.46 183.482C180.435 185.806 180.46 187.686 180.533 188.983C180.568 189.592 180.597 190.089 180.617 190.479C180.614 190.662 180.632 190.845 180.67 191.023Z" fill="#E0E0E0"/>
<path d="M180.7 178.643C180.738 178.124 180.738 177.602 180.7 177.083C180.647 176.079 180.519 174.627 180.26 172.853C179.947 170.775 179.527 168.717 179.001 166.69C178.383 164.196 177.593 161.758 176.636 159.395C174.997 155.039 172.645 151.045 169.696 147.608C169.181 147.021 168.635 146.468 168.06 145.952C167.81 145.723 167.57 145.493 167.364 145.311L166.733 144.836C166.351 144.519 165.947 144.236 165.523 143.992C165.454 144.094 167.232 145.231 169.475 147.837C172.328 151.305 174.618 155.279 176.244 159.587C177.179 161.934 177.97 164.346 178.609 166.808C179.231 169.072 179.643 171.155 179.956 172.907C180.27 174.659 180.421 176.111 180.524 177.099C180.545 177.618 180.604 178.134 180.7 178.643Z" fill="#E0E0E0"/>
<path d="M168.965 198.601L170.106 215.596H190.122L191.264 198.601H168.965Z" fill="#EBEBEB"/>
<path d="M193.648 191.904H167.03V198.602H193.648V191.904Z" fill="#EBEBEB"/>
<path d="M167.03 214.945V216.803H168.284H193.212V214.945H167.03Z" fill="#E0E0E0"/>
<path d="M169.509 219.863L168.284 216.6H192.258L190.828 219.863H169.509Z" fill="#E0E0E0"/>
<path d="M190.891 204.156C190.866 204.212 190.835 204.264 190.798 204.311C190.714 204.428 190.616 204.567 190.499 204.743L189.328 206.372L189.279 206.447L189.23 206.367C188.496 205.261 187.516 203.787 186.365 202.046H186.512L183.691 206.404L183.603 206.538L183.505 206.41L180.175 202.057H180.366L180.185 202.308L177.207 206.41L177.104 206.548L177.016 206.404C175.997 204.839 175.057 203.371 174.19 202.051H174.356L170.879 206.372L170.82 206.447L170.771 206.361L169.684 204.369C169.567 204.15 169.479 203.974 169.405 203.835C169.369 203.777 169.339 203.714 169.317 203.648C169.362 203.698 169.402 203.754 169.434 203.814L169.743 204.348L170.884 206.308H170.776L174.205 201.934L174.288 201.827L174.366 201.945L177.217 206.281H177.021L180.008 202.185L180.19 201.929L180.287 201.8L180.385 201.929L183.721 206.276H183.535L186.385 201.939L186.468 201.811L186.547 201.939L189.353 206.308H189.25C189.764 205.635 190.166 205.106 190.465 204.706L190.788 204.295C190.847 204.193 190.886 204.15 190.891 204.156Z" fill="#F5F5F5"/>
<path d="M191.543 198.489C191.543 198.564 186.523 198.623 180.337 198.623C174.152 198.623 169.132 198.564 169.132 198.489C169.132 198.415 174.147 198.356 180.337 198.356C186.528 198.356 191.543 198.415 191.543 198.489Z" fill="#F5F5F5"/>
<path d="M77.3995 21.4551C77.3995 21.4551 77.3554 21.4551 77.282 21.4177L76.9587 21.2788L75.7245 20.7181L71.1943 18.5818L56.3056 11.5106L55.7865 11.2596H55.8942L41.3043 18.0904L36.8965 20.1092L35.6917 20.6433C35.5544 20.712 35.4118 20.7674 35.2656 20.8088C35.3956 20.7243 35.5316 20.6511 35.6721 20.5899L36.8573 20.0024L41.2652 17.8928L55.8208 11.0086H55.8746H55.9285L56.4476 11.2543L71.3069 18.4109L75.798 20.6059L77.0126 21.2201L77.326 21.3856C77.3529 21.4056 77.3776 21.4289 77.3995 21.4551Z" fill="#E0E0E0"/>
<path d="M100.624 19.1266H4.979V97.2241H100.624V19.1266Z" fill="#E0E0E0"/>
<path d="M97.6408 22.7581H8.32373V94.0142H97.6408V22.7581Z" fill="#FAFAFA"/>
<path d="M28.0508 53.8888C28.0508 53.8888 28.1438 65.8467 28.7022 69.4998L42.4594 68.7895C42.4594 68.7895 41.2546 57.0399 41.7199 53.8888H28.0508Z" fill="#E0E0E0"/>
<path d="M34.8301 55.5769H35.0309C35.2224 55.5692 35.4142 55.5799 35.6039 55.609C35.9054 55.6578 36.1989 55.7531 36.4757 55.892C36.8421 56.0899 37.1659 56.3703 37.4258 56.7145C37.7453 57.1331 37.9716 57.6267 38.087 58.1565C38.1946 58.7769 38.1455 59.4175 37.945 60.0097C37.8425 60.3318 37.713 60.6429 37.5581 60.939C37.3937 61.2404 37.2465 61.5526 37.1173 61.8737C36.843 62.5548 36.6551 63.2735 36.5589 64.01V64.058H36.5149H35.1582H33.733H33.6792V64.0046C33.6181 63.2718 33.3909 62.567 33.018 61.9538C32.8515 61.644 32.6703 61.3609 32.5282 61.0672C32.3504 60.7907 32.1869 60.5037 32.0385 60.2074C31.7873 59.64 31.7116 58.9991 31.823 58.3808C31.9029 57.8471 32.0848 57.3376 32.3568 56.8854C32.5891 56.522 32.8938 56.2207 33.2482 56.0042C33.6856 55.7511 34.1653 55.5968 34.6587 55.5502H34.8546C34.8546 55.5502 34.8546 55.5502 34.8056 55.5502H34.6587C34.4718 55.5743 34.2868 55.6136 34.1053 55.6677C33.8156 55.7502 33.5373 55.8741 33.2776 56.0362C32.931 56.2498 32.6344 56.5477 32.4107 56.9068C32.1577 57.355 31.9911 57.8547 31.9209 58.3755C31.8141 58.9746 31.8897 59.5954 32.1364 60.1433C32.2864 60.4352 32.4499 60.7186 32.6262 60.9924C32.7976 61.2755 32.9788 61.5692 33.1453 61.879C33.5319 62.5063 33.7661 63.2303 33.8261 63.9833L33.7722 63.9245H35.1974H36.5589L36.5051 63.9779C36.603 63.232 36.7941 62.5042 37.0732 61.8149C37.2076 61.4912 37.358 61.1756 37.5238 60.8696C37.6759 60.5801 37.8037 60.2762 37.9058 59.9617C38.104 59.3876 38.1565 58.7658 38.0576 58.1619C37.946 57.6448 37.7301 57.1613 37.4258 56.7466C37.1732 56.4065 36.8578 56.1281 36.5002 55.9294C36.2291 55.7865 35.9404 55.6875 35.6431 55.6357C35.4566 55.6045 35.2685 55.5867 35.0799 55.5823H34.9281C34.8497 55.5823 34.8301 55.5823 34.8301 55.5769Z" fill="white"/>
<path d="M35.5351 63.9137C35.5341 63.8977 35.5341 63.8817 35.5351 63.8656V63.7268C35.5351 63.604 35.491 63.4224 35.4616 63.1927C35.3979 62.7227 35.3049 62.0498 35.2461 61.2113C35.2461 61.003 35.2167 60.784 35.2118 60.5544C35.1995 60.3142 35.1995 60.0735 35.2118 59.8334C35.2171 59.5757 35.2687 59.3217 35.3637 59.0857C35.4695 58.8307 35.6578 58.6273 35.8926 58.5142C36.0176 58.4569 36.1554 58.4411 36.2886 58.4686C36.4219 58.4962 36.5448 58.5659 36.6419 58.6691C36.6936 58.7213 36.7344 58.7851 36.7615 58.8561C36.7885 58.927 36.8012 59.0035 36.7986 59.0803C36.7958 59.2351 36.7478 59.3848 36.6615 59.5076C36.573 59.6324 36.4589 59.733 36.3285 59.8013C36.199 59.8677 36.0625 59.9162 35.922 59.9455C35.3482 60.0735 34.7588 60.0952 34.1784 60.0096C34.0349 59.9883 33.8947 59.9452 33.7621 59.8815C33.6328 59.818 33.5163 59.7273 33.4193 59.6144C33.3199 59.5014 33.2505 59.3611 33.2185 59.2085C33.1877 59.059 33.205 58.9025 33.2675 58.7652C33.3242 58.6269 33.4277 58.5179 33.5564 58.4608C33.6176 58.4322 33.6834 58.4174 33.7499 58.4174C33.8164 58.4174 33.8822 58.4322 33.9434 58.4608C34.0616 58.5193 34.1631 58.6116 34.2372 58.7279C34.3062 58.842 34.356 58.9686 34.3841 59.1017C34.4257 59.3557 34.4486 59.6128 34.4527 59.8708L34.5213 61.2433C34.5556 62.0818 34.5898 62.7601 34.6094 63.2354C34.6094 63.4651 34.6094 63.6467 34.6094 63.7695V63.9564C34.6105 63.9404 34.6105 63.9244 34.6094 63.9084C34.6094 63.8763 34.6094 63.8283 34.6094 63.7695C34.6094 63.7108 34.6094 63.4598 34.58 63.2354C34.58 62.7601 34.5164 62.0818 34.4723 61.2433C34.4723 60.8268 34.4282 60.3675 34.4037 59.8708C34.4006 59.6161 34.376 59.3622 34.3303 59.1124C34.3063 58.9845 34.2597 58.863 34.1931 58.7546C34.1204 58.6458 34.0246 58.5578 33.914 58.4982C33.8575 58.4719 33.7966 58.4584 33.7352 58.4584C33.6738 58.4584 33.613 58.4719 33.5564 58.4982C33.4373 58.5523 33.3411 58.6534 33.2871 58.7813C33.2307 58.911 33.2152 59.0575 33.243 59.1978C33.276 59.3399 33.3417 59.4705 33.434 59.577C33.6328 59.7908 33.8913 59.9262 34.1686 59.9616C34.456 60.0027 34.746 60.017 35.0355 60.0043C35.3251 59.996 35.6135 59.9603 35.8975 59.8975C36.035 59.8688 36.1684 59.8203 36.2942 59.7533C36.4183 59.6883 36.5271 59.5933 36.6125 59.4756C36.6934 59.3601 36.7396 59.2202 36.7448 59.075C36.7445 59.0043 36.7314 58.9344 36.7062 58.8694C36.6809 58.8043 36.6441 58.7453 36.5978 58.6958C36.5057 58.6 36.3903 58.535 36.2653 58.5085C36.1403 58.482 36.011 58.4951 35.8926 58.5463C35.6751 58.6533 35.501 58.8432 35.4028 59.0803C35.3097 59.3133 35.2582 59.5634 35.251 59.8174C35.251 60.063 35.251 60.298 35.251 60.5277C35.251 60.7573 35.251 60.9763 35.2853 61.1899C35.3441 62.0284 35.4322 62.7014 35.4861 63.166C35.5155 63.401 35.54 63.5772 35.5547 63.7001V63.8389C35.5508 63.8646 35.5443 63.8897 35.5351 63.9137Z" fill="white"/>
<path d="M33.708 63.9938C33.7303 64.1583 33.7434 64.3242 33.7472 64.4905C33.7472 64.8465 33.7668 65.2791 33.806 65.7883V65.7562L34.7365 66.9365H34.6875L35.7601 66.8724H35.716L36.245 66.1674L36.5143 65.8096V65.8577C36.5143 65.1687 36.4849 64.5225 36.4751 63.935L36.5339 63.9938H34.5308H33.708C33.7714 63.9839 33.8357 63.9839 33.899 63.9938L34.4622 63.9617L36.4996 63.8763H36.5584V63.9404C36.5584 64.5332 36.5927 65.1794 36.6123 65.863V65.8684C36.5241 65.9859 36.436 66.1087 36.3429 66.2262L35.8091 66.9365H35.7797L34.7071 66.9953H34.6875L33.7766 65.815C33.7766 65.2809 33.7766 64.8536 33.7766 64.4798C33.745 64.3194 33.7221 64.1571 33.708 63.9938Z" fill="white"/>
<path d="M36.4901 65.6814C36.4901 65.6814 36.4509 65.6814 36.3872 65.6334C36.2961 65.5889 36.203 65.5497 36.1081 65.5159C35.7936 65.3962 35.4614 65.3418 35.1286 65.3556C34.7921 65.3637 34.46 65.4397 34.1491 65.58L33.8797 65.7188L33.7817 65.7722C33.807 65.7434 33.8369 65.7199 33.8699 65.7028C33.9567 65.6453 34.0467 65.5935 34.1393 65.5479C34.4481 65.3984 34.781 65.3167 35.1188 65.3076C35.4528 65.2941 35.7859 65.3541 36.0983 65.4838C36.1927 65.5206 36.2844 65.5652 36.3726 65.6173L36.4901 65.6814Z" fill="white"/>
<path d="M36.4852 65.2172L36.3873 65.1691L36.1081 65.0463C35.7929 64.9298 35.4612 64.8755 35.1286 64.8861C34.7927 64.8992 34.4614 64.9751 34.1491 65.1104C34.0315 65.1638 33.9434 65.2119 33.8797 65.2493L33.7817 65.3027L33.8699 65.2332C33.9559 65.1757 34.046 65.1257 34.1393 65.0837C34.4477 64.9322 34.7806 64.8487 35.1188 64.838C35.4525 64.8298 35.7847 64.8896 36.0983 65.0143C36.2158 65.0677 36.3089 65.1157 36.3726 65.1531C36.4362 65.1905 36.4901 65.2119 36.4852 65.2172Z" fill="white"/>
<path d="M36.4603 64.7683L36.3624 64.7256C36.2938 64.6935 36.2007 64.6454 36.0832 64.6027C35.768 64.4864 35.4363 64.4321 35.1037 64.4425C34.7672 64.4497 34.4349 64.5258 34.1242 64.6668C34.0066 64.7202 33.9185 64.7683 33.8548 64.8057L33.7568 64.8591L33.845 64.7896C33.9312 64.731 34.0213 64.6792 34.1144 64.6348C34.424 64.4879 34.7564 64.4064 35.0939 64.3944C35.4276 64.3867 35.7597 64.4465 36.0734 64.5707C36.1677 64.61 36.2593 64.6564 36.3477 64.7095C36.3884 64.7208 36.4267 64.7408 36.4603 64.7683Z" fill="white"/>
<path d="M12.7324 34.358C12.7324 34.358 12.8255 46.3212 13.3838 49.9689L27.1411 49.2586C27.1411 49.2586 25.9314 37.509 26.3967 34.358H12.7324Z" fill="#EBEBEB"/>
<path d="M24.3247 39.3573C22.7977 39.6038 21.259 39.7536 19.7161 39.806C18.1777 39.9606 16.6321 40.0124 15.0879 39.9608C16.6152 39.7175 18.1538 39.5677 19.6965 39.5122C21.2353 39.364 22.7805 39.3123 24.3247 39.3573Z" fill="white"/>
<path d="M24.3242 41.8887C22.7976 42.1394 21.2587 42.291 19.7156 42.3427C18.1785 42.4909 16.6348 42.5426 15.0923 42.4975C16.6192 42.2507 18.158 42.1009 19.7009 42.0489C21.2378 41.8975 22.7816 41.844 24.3242 41.8887Z" fill="white"/>
<path d="M21.9885 44.3777C21.1256 44.5806 20.2461 44.688 19.3634 44.6981C18.4874 44.7953 17.6046 44.7953 16.7285 44.6981C17.5898 44.4954 18.4677 44.388 19.3487 44.3777C20.2264 44.2804 21.1108 44.2804 21.9885 44.3777Z" fill="white"/>
<path d="M12.0806 69.527C12.0806 69.527 12.1736 81.4849 12.7319 85.1379L26.4892 84.4276C26.4892 84.4276 25.2795 72.678 25.7448 69.527H12.0806Z" fill="#EBEBEB"/>
<path d="M23.6738 74.5475C22.1471 74.7975 20.6083 74.9491 19.0652 75.0015C17.5281 75.1497 15.9844 75.2014 14.4419 75.1564C15.9672 74.9093 17.5043 74.7595 19.0456 74.7077C20.5842 74.5563 22.1296 74.5028 23.6738 74.5475Z" fill="white"/>
<path d="M23.6738 77.0839C22.1469 77.3311 20.6081 77.4809 19.0652 77.5326C17.5281 77.6808 15.9844 77.7325 14.4419 77.6875C15.9688 77.4406 17.5076 77.2908 19.0505 77.2388C20.5876 77.0906 22.1313 77.0389 23.6738 77.0839Z" fill="white"/>
<path d="M21.3367 79.573C20.4754 79.7754 19.5974 79.881 18.7165 79.8881C17.8396 79.9943 16.9552 80.0032 16.0767 79.9148C16.9379 79.7121 17.8158 79.6047 18.6969 79.5943C19.5738 79.4882 20.4584 79.481 21.3367 79.573Z" fill="white"/>
<path d="M49.6797 37.504L51.0412 72.0052L90.5353 72.5232L88.7624 37.958L49.6797 37.504Z" fill="#EBEBEB"/>
<path d="M88.4537 37.2578H49.2192V69.5639H88.4537V37.2578Z" fill="#F5F5F5"/>
<path d="M88.4527 69.5648C88.4527 69.5648 88.4527 69.3565 88.4527 68.9613C88.4527 68.5661 88.4527 67.9893 88.4527 67.2416C88.4527 65.7248 88.4527 63.5031 88.4233 60.7045C88.4233 55.0701 88.389 47.0109 88.3645 37.2587L88.4772 37.3762H49.2476L49.3847 37.232C49.3847 48.8481 49.3847 59.85 49.3847 69.5381L49.2623 69.4046L77.5605 69.4687L85.6121 69.5061H87.7523H88.3058H88.4968H87.7768L85.6219 69.6075L77.6046 69.6449L49.1986 69.709H49.0762V69.5808C49.0762 59.8927 49.0762 48.8908 49.0762 37.2748V37.1252H49.2133H88.4429H88.5604V37.2481C88.5604 47.0269 88.5164 55.1181 88.5017 60.7473C88.5017 63.5511 88.5017 65.7462 88.4723 67.2576C88.4723 67.9946 88.4723 68.5608 88.4723 68.956C88.4625 69.3725 88.4527 69.5648 88.4527 69.5648Z" fill="#E0E0E0"/>
<path d="M69.8575 44.0992H53.9551V65.9268H69.8575V44.0992Z" fill="#F5F5F5"/>
<path d="M69.8572 65.9274C69.8518 65.8902 69.8518 65.8524 69.8572 65.8152V65.5055C69.8572 65.2171 69.8572 64.8218 69.8572 64.3145C69.8572 63.2463 69.8572 61.7456 69.8278 59.8336C69.8278 55.9936 69.7887 50.5568 69.7642 44.0998L69.8866 44.2333H53.9842C53.9499 44.2333 54.2388 43.9556 54.1164 44.0891V50.0227C54.1164 51.9614 54.1164 53.852 54.1164 55.6839C54.1164 59.3529 54.1164 62.787 54.1164 65.906L54.0087 65.7832L65.5229 65.8473L68.7504 65.8793H69.6074H69.9111C69.8182 65.8867 69.7249 65.8867 69.6319 65.8793H68.7993L65.5914 65.9114L54.0087 65.9754H53.896V65.8526C53.896 62.7336 53.896 59.2995 53.896 55.6305C53.896 53.7986 53.896 51.8919 53.896 49.9693V44.1105C53.7736 44.2387 54.0576 43.9236 54.0331 43.961H69.9356H70.058V44.0945C70.0335 50.5835 70.009 56.0524 69.9944 59.9137L69.965 64.3625C69.965 64.861 69.965 65.2509 69.965 65.5322C69.965 65.6497 69.965 65.7458 69.965 65.8259C69.9329 65.8643 69.8967 65.8983 69.8572 65.9274Z" fill="#E0E0E0"/>
<path d="M85.0392 39.1062H54.5615V42.2519H85.0392V39.1062Z" fill="#F5F5F5"/>
<path d="M85.04 42.2516C85.04 42.2516 85.04 42.1715 85.04 42.0379C85.04 41.9044 85.04 41.6801 85.04 41.4238C85.04 40.8897 85.04 40.1046 85.0057 39.1059L85.0596 39.1646C79.922 39.218 68.207 39.2554 54.5819 39.2554C54.8513 38.9563 54.6554 39.17 54.7191 39.1059V42.2409L54.5868 42.0913L76.19 42.1554L82.6744 42.1982H84.4376H84.9028C84.9566 42.1938 85.0107 42.1938 85.0645 42.1982H84.9224H84.4767H82.743L76.288 42.2462L54.5868 42.305H54.4546V42.1608C54.4546 41.6587 54.4546 41.1407 54.4546 40.6173V39.0151L54.5917 38.8655C68.2168 38.8655 79.9318 38.9029 85.0693 38.9563H85.1281V39.0151C85.1281 40.0245 85.1281 40.8149 85.0987 41.3703C85.0987 41.6214 85.0987 41.8136 85.0987 41.9632C85.0947 42.0623 85.0749 42.1599 85.04 42.2516Z" fill="#E0E0E0"/>
<path d="M85.0404 44.0992H71.8022V57.2535H85.0404V44.0992Z" fill="#F5F5F5"/>
<path d="M85.0396 57.2538C85.0396 57.2538 85.0396 57.163 85.0396 57.0027V56.2871C85.0396 55.6462 85.0396 54.7436 85.0103 53.6167C85.0103 51.2988 84.976 48.0357 84.9515 44.1102L85.0641 44.2384H71.8407L71.9729 44.0942V47.6244C71.9729 48.778 71.9729 49.9103 71.9729 51.0158C71.9729 53.2215 71.9729 55.2884 71.9729 57.2431L71.8505 57.1149L81.4007 57.179L84.1091 57.2164H84.8339C84.9187 57.2086 85.0039 57.2086 85.0886 57.2164C85.0121 57.2241 84.935 57.2241 84.8584 57.2164H84.1581L81.4791 57.2484L71.8505 57.3125H71.7329V57.179C71.7329 55.251 71.7329 53.1574 71.7329 50.9517C71.7329 49.8462 71.7329 48.7139 71.7329 47.5603V44.0301C71.6105 44.1583 71.8945 43.8485 71.8701 43.8806H85.0935H85.2111V44.0034C85.1866 47.9609 85.167 51.2561 85.1523 53.6167C85.1523 54.7383 85.1278 55.6302 85.1229 56.2871C85.1229 56.5684 85.1229 56.798 85.1229 56.9761C85.1069 57.0723 85.0789 57.1658 85.0396 57.2538Z" fill="#E0E0E0"/>
<path d="M85.0404 59.3157H71.8022V65.9276H85.0404V59.3157Z" fill="#F5F5F5"/>
<path d="M85.0394 65.9269C85.0394 65.9269 85.0394 65.756 85.0394 65.4462L85.0149 64.1217C85.0149 62.9521 84.9855 61.3231 84.9611 59.315L85.059 59.4218L71.8355 59.4646C71.7131 59.5981 71.9972 59.283 71.9678 59.3204V62.7224C71.9678 63.8279 71.9678 64.9014 71.9678 65.9269L71.8355 65.788L81.3026 65.8521L84.0648 65.8948H84.8092H85.0737C84.9955 65.9027 84.9168 65.9027 84.8386 65.8948H84.1187L81.3907 65.9375L71.8355 66.0016H71.7082V65.8628C71.7082 64.8373 71.7082 63.7639 71.7082 62.6583V59.2563C71.6788 59.2563 71.9629 58.9732 71.8453 59.1067L85.0688 59.1441H85.1325V59.2509C85.1325 61.2858 85.0933 62.9414 85.0835 64.1217C85.0835 64.6558 85.0835 65.099 85.0835 65.4248C85.0837 65.5933 85.0689 65.7615 85.0394 65.9269Z" fill="#E0E0E0"/>
<path d="M69.4599 44.1367C64.5329 51.555 58.8713 58.5086 53.9492 65.9269L69.4599 44.1367Z" fill="white"/>
<path d="M53.9551 65.9272C53.9551 65.9272 53.9894 65.8364 54.0824 65.6815L54.4987 65.0192C54.8611 64.4424 55.4048 63.6253 56.0904 62.6266C57.4568 60.6185 59.411 57.9054 61.6051 54.9413C63.7992 51.9772 65.7729 49.2854 67.1736 47.3147L68.8339 44.9808L69.2894 44.3453C69.3971 44.2064 69.4559 44.1316 69.4657 44.137C69.4302 44.224 69.3859 44.3064 69.3335 44.3827L68.9172 45.0449C68.5548 45.6217 68.0111 46.4388 67.3255 47.4429C65.959 49.4457 64.0049 52.1588 61.8108 55.1229C59.6167 58.087 57.6479 60.7787 56.2422 62.7494L54.582 65.0887L54.1265 65.7189C54.077 65.7954 54.0195 65.8653 53.9551 65.9272Z" fill="#E0E0E0"/>
<path d="M69.857 65.9272C69.7982 65.9753 66.1887 61.1206 61.8005 55.1069C57.4123 49.0933 53.8958 44.1531 53.9644 44.0997C54.0329 44.0463 57.6278 48.9063 62.0209 54.9253C66.414 60.9443 69.9158 65.8685 69.857 65.9272Z" fill="#E0E0E0"/>
<path d="M51.0414 44.1472C51.0414 44.6838 50.8955 45.2084 50.6221 45.6546C50.3487 46.1007 49.9601 46.4485 49.5055 46.6538C49.0509 46.8592 48.5506 46.9129 48.068 46.8082C47.5854 46.7035 47.1421 46.4451 46.7941 46.0657C46.4462 45.6862 46.2092 45.2028 46.1132 44.6765C46.0172 44.1502 46.0665 43.6047 46.2548 43.109C46.4431 42.6132 46.762 42.1895 47.1712 41.8914C47.5803 41.5933 48.0613 41.4341 48.5534 41.4341C49.2129 41.4356 49.8449 41.7218 50.3112 42.2303C50.7775 42.7388 51.0401 43.4281 51.0414 44.1472Z" fill="#E0E0E0"/>
<path d="M91.7357 37.5621C91.7357 38.0987 91.5898 38.6232 91.3164 39.0694C91.043 39.5156 90.6545 39.8633 90.1998 40.0687C89.7452 40.274 89.245 40.3277 88.7624 40.2231C88.2797 40.1184 87.8364 39.86 87.4885 39.4805C87.1405 39.1011 86.9036 38.6177 86.8076 38.0914C86.7116 37.5651 86.7608 37.0196 86.9492 36.5238C87.1375 36.0281 87.4563 35.6044 87.8655 35.3062C88.2746 35.0081 88.7557 34.849 89.2477 34.849C89.9072 34.8504 90.5393 35.1367 91.0056 35.6452C91.4719 36.1537 91.7344 36.843 91.7357 37.5621Z" fill="#E0E0E0"/>
<path d="M189.06 56.4588H160.389V101.78H189.06V56.4588Z" fill="#E0E0E0"/>
<path d="M187.624 56.4588H158.954V101.78H187.624V56.4588Z" fill="#F5F5F5"/>
<path d="M184.064 61.3662H162.515V96.8714H184.064V61.3662Z" fill="white"/>
<path d="M184.064 96.8712C184.064 96.8712 184.064 96.8071 184.064 96.6949C184.064 96.5828 184.064 96.4119 184.064 96.1929C184.064 95.7443 184.064 95.0927 184.064 94.2435C184.064 92.5452 184.064 90.0617 184.064 86.9321C184.064 80.6727 184.064 71.8071 184.03 61.366L184.103 61.4461H162.515L162.593 61.3607C162.593 74.7552 162.593 87.103 162.593 96.8658L162.53 96.7964L178.202 96.8338H182.536H183.672H184.069H183.687H182.561H178.241L162.52 96.8658H162.456V96.8017C162.456 87.0389 162.456 74.6911 162.456 61.2966V61.2111H162.515H184.064H184.133V61.2859C184.133 71.7484 184.108 80.63 184.098 86.9214C184.098 90.0457 184.098 92.5185 184.098 94.2168C184.098 95.0553 184.098 95.7016 184.098 96.1448C184.098 96.3638 184.098 96.524 184.098 96.6415L184.064 96.8712Z" fill="#E0E0E0"/>
<path d="M187.703 56.4588C187.564 56.7464 187.4 57.0183 187.213 57.2706C186.88 57.7566 186.405 58.4135 185.866 59.1292C185.327 59.8448 184.823 60.475 184.451 60.929C184.261 61.1832 184.049 61.4174 183.819 61.6286C183.982 61.3531 184.166 61.0923 184.367 60.8489L185.749 59.0223L187.125 57.1958C187.301 56.9351 187.494 56.6888 187.703 56.4588Z" fill="#E0E0E0"/>
<path d="M184.172 96.7534C185.242 98.6123 186.502 100.332 187.928 101.881L184.172 96.7534Z" fill="white"/>
<path d="M187.928 101.881C187.69 101.69 187.471 101.472 187.277 101.229C186.776 100.676 186.302 100.095 185.857 99.4879C185.411 98.881 184.995 98.25 184.608 97.5973C184.435 97.3337 184.289 97.0508 184.172 96.7534C184.364 96.9979 184.541 97.2566 184.701 97.5278C185.014 98.0138 185.46 98.6707 185.979 99.3811C186.498 100.091 186.993 100.706 187.355 101.149C187.563 101.376 187.755 101.621 187.928 101.881Z" fill="#E0E0E0"/>
<path d="M158.95 101.742L162.706 96.6895L158.95 101.742Z" fill="white"/>
<path d="M162.705 96.6895C162.735 96.6895 161.922 97.8751 160.888 99.269C160.276 100.13 159.622 100.956 158.929 101.742C160.099 99.9871 161.353 98.3006 162.686 96.6895H162.705Z" fill="#E0E0E0"/>
<path d="M158.954 56.4588C159.597 57.2172 160.205 58.0104 160.776 58.8354C161.384 59.6284 161.951 60.4575 162.475 61.3189C161.829 60.5569 161.221 59.7582 160.653 58.9262C160.044 58.14 159.476 57.3162 158.954 56.4588Z" fill="#E0E0E0"/>
<path d="M177.349 68.5762H170.135V90.9164H177.349V68.5762Z" fill="#E0E0E0"/>
<path d="M182.452 8.3022L178.348 8.32642L178.459 30.5969L182.563 30.5727L182.452 8.3022Z" fill="#E0E0E0"/>
<path d="M153.42 8.36094L142.792 8.42365L142.853 20.7178L153.481 20.6551L153.42 8.36094Z" fill="#EBEBEB"/>
<path d="M163.993 8.30384L153.366 8.36655L153.427 20.6607L164.054 20.598L163.993 8.30384Z" fill="#F5F5F5"/>
<path d="M142.806 11.8307C149.868 11.8948 156.95 11.8307 164.012 11.7239C164.042 11.7239 164.071 11.711 164.092 11.6879C164.113 11.6649 164.125 11.6337 164.125 11.6011C164.125 11.5685 164.113 11.5373 164.092 11.5142C164.071 11.4912 164.042 11.4782 164.012 11.4782C156.944 11.4355 149.875 11.4818 142.806 11.6171C142.78 11.6171 142.755 11.6284 142.737 11.6484C142.718 11.6684 142.708 11.6956 142.708 11.7239C142.708 11.7522 142.718 11.7794 142.737 11.7994C142.755 11.8195 142.78 11.8307 142.806 11.8307Z" fill="#E0E0E0"/>
<path d="M155.473 20.4564L136.163 20.5704L136.212 30.5894L155.523 30.4755L155.473 20.4564Z" fill="#EBEBEB"/>
<path d="M174.696 20.3436L155.385 20.4575L155.434 30.4766L174.745 30.3626L174.696 20.3436Z" fill="#F5F5F5"/>
<path d="M136.176 23.3623C149.007 23.5225 161.878 23.3623 174.705 23.154C174.735 23.154 174.763 23.1411 174.784 23.118C174.806 23.095 174.817 23.0638 174.817 23.0312C174.817 22.9986 174.806 22.9674 174.784 22.9443C174.763 22.9213 174.735 22.9083 174.705 22.9083C161.873 22.8336 149.002 22.8443 136.176 23.1487C136.15 23.1487 136.125 23.1599 136.106 23.18C136.088 23.2 136.078 23.2272 136.078 23.2555C136.078 23.2838 136.088 23.311 136.106 23.331C136.125 23.3511 136.15 23.3623 136.176 23.3623Z" fill="#E0E0E0"/>
<path d="M203.772 30.5925H128.957V34.1815H203.772V30.5925Z" fill="#E0E0E0"/>
<path d="M144.242 32.3185H141.206V44.5648H144.242V32.3185Z" fill="#E0E0E0"/>
<path d="M189.579 32.3185H186.542V44.5648H189.579V32.3185Z" fill="#E0E0E0"/>
<path d="M186.456 -4.49367e-05L182.352 0.0241699L182.504 30.6528L186.608 30.6286L186.456 -4.49367e-05Z" fill="#EBEBEB"/>
<path d="M192.87 5.70322L186.494 5.74084L186.617 30.5642L192.993 30.5266L192.87 5.70322Z" fill="#F5F5F5"/>
<path d="M192.826 10.4906C190.706 10.6539 188.579 10.6539 186.459 10.4906C188.579 10.3344 190.706 10.3344 192.826 10.4906Z" fill="#E0E0E0"/>
<path d="M192.826 9.44868C190.706 9.61195 188.579 9.61195 186.459 9.44868C188.579 9.2925 190.706 9.2925 192.826 9.44868Z" fill="#E0E0E0"/>
<path d="M192.826 26.7951C190.706 26.9584 188.579 26.9584 186.459 26.7951C188.579 26.639 190.706 26.639 192.826 26.7951Z" fill="#E0E0E0"/>
<path d="M192.826 25.754C190.706 25.9172 188.579 25.9172 186.459 25.754C188.579 25.5978 190.706 25.5978 192.826 25.754Z" fill="#E0E0E0"/>
<path d="M189.739 23.4788C189.675 23.4788 189.626 20.974 189.626 17.887C189.626 14.8001 189.675 12.2953 189.739 12.2953C189.803 12.2953 189.847 14.8001 189.847 17.887C189.847 20.974 189.798 23.4788 189.739 23.4788Z" fill="#E0E0E0"/>
<path d="M199.834 11.8043H192.895V30.5396H199.834V11.8043Z" fill="#EBEBEB"/>
<path d="M196.563 25.6851C196.356 25.6982 196.149 25.6636 195.956 25.5835C195.762 25.5034 195.586 25.3796 195.44 25.2203C195.293 25.0609 195.179 24.8696 195.105 24.6589C195.031 24.4482 194.999 24.2227 195.01 23.9974C194.999 23.7518 195.045 23.5071 195.143 23.2859C195.241 23.0646 195.389 22.874 195.573 22.7316L195.73 22.972C195.583 23.0891 195.464 23.2439 195.385 23.4227C195.305 23.6015 195.268 23.7988 195.275 23.9974C195.275 24.3699 195.41 24.7272 195.652 24.9906C195.893 25.254 196.221 25.402 196.563 25.402C196.904 25.402 197.232 25.254 197.473 24.9906C197.715 24.7272 197.851 24.3699 197.851 23.9974C197.858 23.7982 197.82 23.6002 197.739 23.4212C197.659 23.2422 197.539 23.0878 197.39 22.972L197.552 22.7316C197.734 22.876 197.88 23.0671 197.977 23.288C198.074 23.5088 198.12 23.7525 198.11 23.9974C198.122 24.2222 198.089 24.4472 198.015 24.6575C197.942 24.8679 197.828 25.0589 197.682 25.2182C197.536 25.3774 197.361 25.5013 197.168 25.5818C196.975 25.6622 196.769 25.6974 196.563 25.6851Z" fill="#FAFAFA"/>
<path d="M197.718 22.2666L197.488 22.1224C197.728 21.777 197.858 21.3545 197.855 20.9207C197.855 20.2211 197.625 19.938 197.282 19.938C196.391 19.938 197.047 22.1491 195.847 22.1491C195.387 22.1491 195.01 21.7271 195.01 20.8833C195.003 20.4785 195.107 20.0809 195.308 19.7404L195.543 19.8899C195.359 20.1836 195.263 20.5327 195.269 20.8886C195.269 21.5402 195.514 21.8286 195.842 21.8286C196.758 21.8286 196.111 19.6176 197.277 19.6176C197.767 19.6176 198.11 20.0875 198.11 20.9367C198.125 21.4161 197.986 21.8863 197.718 22.2666Z" fill="#FAFAFA"/>
<path d="M197.718 19.2171L197.488 19.0729C197.728 18.7275 197.858 18.305 197.855 17.8713C197.855 17.1716 197.625 16.8886 197.282 16.8886C196.391 16.8886 197.047 19.0943 195.847 19.0943C195.387 19.0943 195.01 18.6777 195.01 17.8339C195.003 17.4291 195.107 17.0314 195.308 16.6909L195.543 16.8352C195.359 17.131 195.264 17.4817 195.269 17.8392C195.269 18.4908 195.514 18.7792 195.842 18.7792C196.758 18.7792 196.111 16.5681 197.277 16.5681C197.767 16.5681 198.11 17.0328 198.11 17.8819C198.125 18.3631 197.987 18.8352 197.718 19.2171Z" fill="#FAFAFA"/>
<path d="M184.343 6.52717C184.995 6.52717 185.523 5.95091 185.523 5.24006C185.523 4.5292 184.995 3.95294 184.343 3.95294C183.691 3.95294 183.163 4.5292 183.163 5.24006C183.163 5.95091 183.691 6.52717 184.343 6.52717Z" fill="#E0E0E0"/>
<path d="M184.706 8.776H183.976V26.9986H184.706V8.776Z" fill="#E0E0E0"/>
<path d="M212.377 220.75C212.377 220.825 165.071 220.889 106.731 220.889C48.3912 220.889 1.07568 220.835 1.07568 220.75C1.07568 220.664 48.3716 220.611 106.731 220.611C165.091 220.611 212.377 220.686 212.377 220.75Z" fill="#263238"/>
<path d="M58.2833 37.1574C50.4227 50.6374 50.937 69.33 59.5273 82.2706C65.2526 90.9012 73.8381 96.6906 80.6555 104.306C87.4729 111.922 92.6545 123.165 89.0548 133.066C85.3914 143.144 74.6608 147.241 66.6288 153.628C57.7669 160.667 51.7507 171.176 49.8439 182.949C47.9371 194.722 50.2879 206.843 56.4027 216.766H139.867C139.867 216.766 154.531 186.297 135.68 163.071C116.829 139.844 106.706 139.47 107.401 124.238C108.097 109.006 117.872 104.066 123.46 98.3515C129.048 92.637 156.274 79.3225 140.215 37.1521L58.2833 37.1574Z" fill="#FAFAFA"/>
<path d="M58.2842 37.1573H59.7192H63.9507H80.2401L140.216 37.1092H140.279V37.1733C141.509 40.3663 142.556 43.6394 143.414 46.9735C144.315 50.4644 144.909 54.0411 145.187 57.655C145.476 61.4326 145.298 65.2354 144.658 68.9613C143.955 72.8236 142.681 76.5357 140.887 79.9526C139.957 81.6953 138.906 83.3576 137.743 84.9248C136.555 86.513 135.271 88.0118 133.898 89.411C132.508 90.8357 131.051 92.1815 129.534 93.4432C128.016 94.725 126.429 95.932 124.881 97.2138C124.108 97.8493 123.412 98.565 122.658 99.2807C121.904 99.9963 121.154 100.664 120.381 101.337C118.838 102.683 117.28 104.007 115.811 105.497C112.745 108.396 110.388 112.081 108.955 116.221C108.266 118.345 107.831 120.556 107.662 122.801C107.618 123.335 107.549 123.923 107.529 124.489C107.51 125.055 107.49 125.621 107.529 126.187C107.541 127.324 107.645 128.457 107.843 129.573C108.231 131.835 109.078 133.973 110.321 135.833C111.6 137.691 113.049 139.404 114.646 140.944C117.814 144.1 121.179 147.118 124.397 150.375C127.614 153.633 130.763 157.03 133.8 160.624C135.349 162.403 136.798 164.283 138.139 166.253C139.488 168.248 140.661 170.378 141.641 172.614C143.623 177.147 144.841 182.031 145.236 187.034C145.635 192.106 145.361 197.215 144.423 202.202C143.967 204.721 143.368 207.208 142.63 209.647C141.905 212.106 141.021 214.507 139.986 216.83L139.951 216.905H56.335L56.3007 216.846C52.3867 210.42 49.9862 203.04 49.3119 195.36C48.6334 187.984 49.6256 180.538 52.2014 173.677C54.6495 167.119 58.419 161.245 63.2308 156.491C65.5658 154.243 68.0875 152.237 70.7632 150.498C73.3688 148.736 75.9988 147.102 78.4818 145.318C80.9673 143.624 83.2506 141.6 85.2797 139.293C87.2174 137.028 88.6547 134.31 89.4818 131.346C90.2067 128.455 90.3206 125.422 89.8148 122.475C89.3317 119.632 88.4617 116.883 87.2338 114.32C86.0593 111.852 84.6509 109.525 83.0317 107.377C81.4687 105.317 79.7696 103.383 77.948 101.593C74.4168 98.047 70.7975 94.944 67.5455 91.7556C65.9146 90.1534 64.3719 88.5511 62.9467 86.9115C61.5654 85.3064 60.292 83.5947 59.1364 81.7898C57.0473 78.4797 55.4368 74.8394 54.3613 70.9962C53.4191 67.6772 52.8726 64.2398 52.7353 60.7687C52.6667 59.9782 52.6961 59.1985 52.6961 58.4348C52.6961 57.671 52.6961 56.9287 52.7597 56.2077C52.8234 55.4867 52.8577 54.7817 52.9067 54.0714C52.9556 53.3611 53.0879 52.7255 53.1711 52.0793C53.7122 48.1453 54.8162 44.3283 56.4427 40.7676C56.663 40.2168 56.9149 39.6817 57.197 39.1654L57.7994 38.0492C58.1177 37.4564 58.2891 37.1573 58.2891 37.1573L57.7994 38.0652L57.2165 39.1654C56.9413 39.684 56.6927 40.2189 56.4721 40.7676C54.8603 44.3369 53.7697 48.1589 53.2397 52.0953C53.1565 52.7362 53.0585 53.3984 52.985 54.0767C52.9116 54.755 52.8871 55.4653 52.8381 56.1863C52.7891 56.9073 52.7891 57.6497 52.7842 58.4081C52.7793 59.1664 52.7597 59.9462 52.8283 60.7366C52.97 64.1963 53.5215 67.6214 54.469 70.9267C55.5433 74.7563 57.1523 78.3824 59.2392 81.6776C60.3919 83.475 61.6638 85.1779 63.0447 86.7727C64.465 88.4176 66.0077 90.0198 67.6386 91.5793C70.8906 94.7838 74.4952 97.8547 78.0508 101.406C79.8866 103.21 81.5988 105.157 83.1737 107.233C84.802 109.396 86.2185 111.74 87.4003 114.224C88.6399 116.803 89.5182 119.57 90.0058 122.433C90.5188 125.411 90.4049 128.477 89.6728 131.4C88.842 134.398 87.3909 137.148 85.4315 139.438C83.3924 141.758 81.0995 143.795 78.6043 145.505C76.1114 147.294 73.4814 148.928 70.8808 150.691C68.2163 152.424 65.7046 154.423 63.3777 156.661C58.5955 161.391 54.8481 167.232 52.412 173.752C49.8518 180.578 48.868 187.985 49.5469 195.323C50.2213 202.959 52.6099 210.296 56.5015 216.686L56.4035 216.627H139.868L139.755 216.702C140.79 214.385 141.67 211.989 142.39 209.535C143.124 207.106 143.719 204.63 144.173 202.122C145.108 197.16 145.38 192.076 144.981 187.029C144.594 182.053 143.384 177.195 141.411 172.689C140.437 170.469 139.275 168.354 137.938 166.371C136.601 164.411 135.158 162.538 133.619 160.763C130.599 157.178 127.469 153.767 124.23 150.53C121.017 147.278 117.662 144.266 114.484 141.093C112.875 139.541 111.413 137.816 110.12 135.945C108.853 134.063 107.985 131.898 107.578 129.605C107.382 128.473 107.276 127.324 107.26 126.171C107.235 125.6 107.26 125.028 107.26 124.457C107.26 123.885 107.348 123.319 107.387 122.753C107.567 120.495 108.012 118.271 108.71 116.136C110.156 111.959 112.534 108.242 115.63 105.321C117.099 103.836 118.671 102.49 120.214 101.15C120.988 100.477 121.747 99.7987 122.487 99.1044C123.226 98.4101 123.956 97.6624 124.72 97.0215C126.277 95.7398 127.859 94.5328 129.373 93.2563C130.885 92.0002 132.338 90.6616 133.727 89.2454C135.09 87.8526 136.368 86.3628 137.552 84.7859C138.705 83.2241 139.752 81.5711 140.681 79.8404C142.466 76.4472 143.733 72.7603 144.433 68.924C145.07 65.2283 145.249 61.4561 144.966 57.7084C144.693 54.0951 144.104 50.5185 143.208 47.027C142.362 43.6836 141.328 40.4 140.113 37.1947L140.196 37.2534L80.2547 37.2054H63.9556H59.7143L58.2842 37.1573Z" fill="#263238"/>
<path d="M136.885 61.8792C149.178 64.085 129.798 87.8298 118.823 97.1975C112.456 102.618 105.648 108.504 102.631 116.664C99.2029 125.925 101.745 136.329 100.089 145.643C100.036 145.964 99.8733 146.252 99.6337 146.447C99.3941 146.643 99.0956 146.733 98.7979 146.698C98.5003 146.664 98.2256 146.508 98.0291 146.261C97.8326 146.015 97.7288 145.697 97.7386 145.371C97.8169 139.256 97.67 133.146 96.759 127.127C95.4416 118.582 92.4345 110.149 86.9639 103.895C82.4826 98.7837 76.6104 95.3923 71.8353 90.6177C64.8611 83.648 57.696 74.6596 56.9956 64.3733C56.9956 64.3733 70.3856 52.6237 77.8201 54.0924C86.5084 55.8282 95.0596 70.4458 108.518 68.7741C117.882 67.6045 122.628 59.3264 136.885 61.8792Z" fill="#F1463B"/>
<path d="M137.977 188.962C137.669 185.608 136.846 181.816 134.118 180.235C132.468 179.274 130.455 179.381 128.643 179.899C126.83 180.417 125.131 181.32 123.339 181.902C119.775 183.044 115.97 182.911 112.481 181.522C109.145 180.187 106.285 177.784 103.175 175.872C100.065 173.96 96.4557 172.561 93.0078 173.495C87.0622 175.098 83.9669 182.916 78.0898 184.802C75.4745 185.635 72.6682 185.165 70.0137 184.513C67.3592 183.862 64.69 183.013 61.9719 183.125C59.8365 183.21 57.6179 184.017 56.1242 185.608L56.085 185.656C55.8363 185.922 55.6101 186.211 55.4091 186.521C53.5872 189.192 53.2934 192.733 53.8566 195.969C54.4835 199.596 56.036 202.944 57.7012 206.154C59.6602 209.935 61.8935 213.695 65.1357 216.216C69.1419 219.33 74.1717 217.183 79.0742 217.604C90.5003 218.587 102.793 219.255 114.224 218.293C120.263 217.759 125.92 218.496 130.709 214.453C134.079 211.612 136.273 207.329 137.331 202.832C138.389 198.335 138.403 193.582 137.977 188.962Z" fill="#F1463B"/>
<g opacity="0.24">
<path opacity="0.24" d="M116.408 182.543C115.766 183.611 115.487 185.064 116.109 186.153C116.731 187.243 117.578 188.241 117.843 189.496C118.269 191.462 117.182 193.385 116.373 195.206C114.878 198.462 114.313 202.133 114.752 205.743C115.216 209.365 116.931 212.657 119.547 214.945C120.708 215.922 122.216 216.681 123.617 216.2C124.934 215.751 125.782 214.293 126.066 212.814C126.35 211.335 126.11 209.813 125.938 208.323C125.141 201.378 125.306 194.342 126.428 187.451C126.614 186.303 126.791 184.989 126.125 184.076C125.644 183.544 125.034 183.173 124.366 183.007C121.82 182.083 119.072 183.109 116.432 182.564" fill="black"/>
</g>
<path d="M50.277 220.9C50.277 220.9 50.0468 216.724 55.0424 214.395H142.831C142.831 214.395 147.411 216.926 147.974 220.804L50.277 220.9Z" fill="#263238"/>
<path d="M140.965 37.6646L140.823 37.7341L58.2746 37.1573C58.2746 37.1573 57.9807 36.9543 57.5448 36.5751C57.0302 36.1355 56.6548 35.5312 56.4712 34.8471C56.2876 34.1629 56.3051 33.4332 56.5212 32.7604C56.7373 32.0877 57.1411 31.5056 57.6761 31.0958C58.211 30.6861 58.8502 30.4694 59.5039 30.476L139.628 31.181C142.924 31.213 143.963 36.1265 140.965 37.6646Z" fill="#263238"/>
<g opacity="0.24">
<path opacity="0.24" d="M127.742 72.0054C127.908 72.3525 127.286 73.0735 126.106 74.2485C124.926 75.4234 123.167 76.9669 120.983 78.9056C118.36 81.2685 115.577 83.4109 112.657 85.3145C110.843 86.4598 108.935 87.4165 106.956 88.1718C105.884 88.5758 104.79 88.9058 103.68 89.1598C102.514 89.4298 101.33 89.5977 100.139 89.6618C97.726 89.805 95.3103 89.4424 93.0227 88.5937C91.0001 87.7915 89.0782 86.7149 87.3023 85.3892C85.6567 84.2036 84.2413 83.0286 82.8945 81.9017C81.5477 80.7748 80.3477 79.6907 79.2605 78.6653C74.9261 74.5689 72.6439 71.5567 73.0846 70.9746C73.5254 70.3925 76.6109 72.2884 81.4105 75.4929L85.3286 78.1098C86.7342 79.0391 88.2377 80.0699 89.7756 81.0205C91.3016 81.9974 92.9188 82.7941 94.5997 83.3971C96.3197 83.9588 98.1161 84.1901 99.9087 84.0808C103.67 83.8671 107.319 82.4251 110.478 80.7588C113.637 79.0925 116.497 77.1485 118.975 75.6317C120.936 74.3697 122.987 73.2802 125.107 72.3739C126.659 71.781 127.6 71.6689 127.742 72.0054Z" fill="black"/>
</g>
<path d="M97.7981 156.8C98.1451 156.65 98.5325 156.654 98.8765 156.813C99.2204 156.972 99.4932 157.272 99.6358 157.648C99.7784 158.025 99.7793 158.447 99.6384 158.824C99.4974 159.201 99.2259 159.503 98.8826 159.663C98.5394 159.823 98.152 159.83 97.8043 159.681C97.4567 159.533 97.1767 159.24 97.0251 158.868C96.8735 158.496 96.8624 158.074 96.9943 157.693C97.1261 157.312 97.3903 157.003 97.7296 156.832" fill="#F1463B"/>
<path d="M68.2748 86.9009C68.1674 86.8049 68.069 86.6975 67.9809 86.5805L67.1826 85.6298C66.8447 85.2079 66.399 84.7166 65.9435 84.0917L64.3861 81.9554C63.8523 81.1329 63.2499 80.2464 62.6426 79.285L61.7463 77.7309C61.5945 77.4639 61.4329 77.1968 61.2859 76.9138L60.8549 76.0486C59.5515 73.5296 58.5304 70.8489 57.8135 68.0642C57.0932 65.2818 56.7047 62.4097 56.6577 59.519C56.6577 58.8514 56.692 58.2052 56.7018 57.5696C56.7018 57.2545 56.7018 56.9448 56.741 56.6403C56.7802 56.3359 56.7997 56.0368 56.8291 55.7431C56.8928 55.1556 56.932 54.5842 57.0054 54.0394C57.0789 53.4947 57.1818 52.9713 57.265 52.4853C57.4021 51.4865 57.647 50.616 57.8184 49.8149C57.9115 49.4304 57.985 49.0672 58.078 48.7467L58.3474 47.8548L58.7245 46.6318C58.7605 46.4862 58.8097 46.3449 58.8714 46.2099C58.8513 46.3589 58.8185 46.5055 58.7735 46.6478C58.6902 46.9576 58.5825 47.3688 58.4404 47.8869L58.1956 48.7788C58.1123 49.1046 58.0437 49.4677 57.9556 49.8469C57.7988 50.6213 57.5687 51.4972 57.4658 52.5173C57.3875 53.0086 57.3091 53.5267 57.2258 54.0661C57.1426 54.6055 57.123 55.1716 57.0642 55.7591C57.0642 56.0529 57.0103 56.3466 56.981 56.651C56.9516 56.9555 56.981 57.2652 56.9516 57.575C56.9516 58.2052 56.9124 58.8461 56.9173 59.5083C56.9651 62.382 57.3486 65.2374 58.0584 68.0054C58.7714 70.7697 59.779 73.4333 61.0606 75.9417C61.2027 76.2301 61.3447 76.5185 61.4818 76.8069C61.619 77.0953 61.7904 77.341 61.9373 77.6187L62.8189 79.1729C63.4164 80.1556 64.009 81.0421 64.5281 81.8433L66.0562 83.9795C66.497 84.6151 66.9328 85.1118 67.2561 85.5497L68.0201 86.5378C68.1119 86.6529 68.197 86.7742 68.2748 86.9009Z" fill="#263238"/>
<path d="M63.627 166.243C63.6512 166.181 63.6807 166.122 63.7151 166.066L64.009 165.564C64.1412 165.34 64.3028 165.073 64.4987 164.753L64.8073 164.219C64.9297 164.042 65.0717 163.866 65.2138 163.684L66.1933 162.403C66.5704 161.959 67.0014 161.5 67.4569 160.998C68.5129 159.889 69.6353 158.858 70.8166 157.911C73.4172 155.775 76.7721 153.639 80.4061 151.134C82.3169 149.85 84.1537 148.439 85.906 146.909C87.7859 145.276 89.4461 143.363 90.8379 141.227C93.3853 136.959 94.7695 131.99 94.8294 126.897C94.8915 122.747 94.254 118.62 92.9488 114.721C92.0842 112.089 90.9988 109.551 89.7066 107.137C89.2511 106.277 88.8789 105.625 88.6242 105.182L88.3352 104.68C88.2716 104.568 88.2422 104.504 88.2422 104.504C88.2859 104.552 88.3237 104.606 88.3548 104.664L88.6683 105.155C88.9376 105.583 89.3245 106.224 89.7898 107.083C91.1221 109.484 92.2375 112.021 93.1202 114.657C94.4605 118.572 95.1247 122.724 95.0792 126.903C95.0585 128.108 94.9685 129.31 94.8098 130.502C94.6512 131.75 94.4106 132.983 94.0899 134.193C93.4209 136.755 92.381 139.183 91.0093 141.387C89.6033 143.547 87.9248 145.48 86.0236 147.128C84.2608 148.659 82.4143 150.072 80.4942 151.358C76.8455 153.841 73.4858 155.956 70.8852 158.077C69.7042 159.011 68.5787 160.026 67.5156 161.116C67.0602 161.612 66.6243 162.061 66.2423 162.499L65.2627 163.754C65.1158 163.946 64.9738 164.122 64.8513 164.288L64.533 164.795L64.0433 165.591L63.7298 166.077C63.6997 166.135 63.6653 166.191 63.627 166.243Z" fill="#263238"/>
<path d="M59.0734 175.68C59.0438 175.767 59.0078 175.85 58.9656 175.931L58.613 176.609C58.4563 176.897 58.2701 177.261 58.0791 177.677C57.8881 178.094 57.6433 178.585 57.4376 179.146C57.3298 179.424 57.2123 179.712 57.0947 180.011C56.9772 180.31 56.8792 180.641 56.7617 180.972C56.5266 181.635 56.3405 182.361 56.125 183.109C55.2731 186.457 54.9795 189.944 55.2581 193.406C55.3414 194.196 55.4002 194.955 55.5275 195.649C55.5814 195.996 55.6255 196.338 55.6891 196.658C55.7528 196.979 55.8214 197.288 55.885 197.582C55.9928 198.175 56.1544 198.693 56.2719 199.152C56.3895 199.612 56.507 200.007 56.6148 200.327L56.845 201.064C56.878 201.148 56.8994 201.236 56.9086 201.326C56.8614 201.252 56.8235 201.171 56.796 201.086C56.7225 200.888 56.6344 200.653 56.5217 200.365C56.3737 199.984 56.2445 199.596 56.1348 199.2C56.0026 198.741 55.8312 198.223 55.7087 197.63C55.6402 197.336 55.5716 197.027 55.4981 196.706C55.4247 196.386 55.3806 196.039 55.3169 195.692C55.1798 194.987 55.1112 194.228 55.0231 193.432C54.7165 189.95 55.0122 186.435 55.8948 183.071C56.1152 182.302 56.3111 181.571 56.5609 180.908C56.6833 180.577 56.7813 180.251 56.9086 179.947L57.271 179.077C57.4865 178.542 57.7608 178.046 57.9518 177.618C58.1244 177.251 58.3157 176.894 58.5248 176.55L58.9166 175.893C59.0146 175.749 59.0636 175.674 59.0734 175.68Z" fill="#263238"/>
<path d="M119.621 188.519L119.523 188.594L119.22 188.802L118.029 189.582L117.168 190.116C116.844 190.313 116.487 190.495 116.105 190.703C115.331 191.109 114.479 191.627 113.47 192.044L111.903 192.743C111.359 192.978 110.766 193.165 110.169 193.389C108.979 193.865 107.656 194.207 106.28 194.596C100.238 196.14 93.9697 196.322 87.8604 195.131C86.4597 194.821 85.1276 194.554 83.913 194.148C83.3057 193.956 82.7082 193.806 82.1498 193.614L80.5532 192.978C79.5296 192.62 78.6481 192.156 77.8595 191.793C77.4677 191.606 77.1004 191.44 76.7723 191.259L75.8809 190.751L74.6565 190.041L74.3431 189.849L74.2402 189.779C74.2402 189.779 74.2843 189.779 74.3578 189.827L74.681 189.993L75.925 190.655L76.8213 191.136C77.1543 191.307 77.5265 191.461 77.9183 191.643C78.7068 191.985 79.5884 192.439 80.6169 192.781L82.1939 193.405C82.7522 193.608 83.3497 193.753 83.957 193.94C85.1667 194.335 86.494 194.586 87.8751 194.89C93.9561 196.039 100.186 195.857 106.202 194.356C107.573 193.972 108.891 193.646 110.081 193.181C110.678 192.962 111.266 192.786 111.81 192.551L113.377 191.873C114.386 191.467 115.243 190.965 116.017 190.575C116.399 190.372 116.761 190.196 117.084 190.041L117.956 189.507L119.166 188.77L119.484 188.588C119.582 188.529 119.621 188.513 119.621 188.519Z" fill="#263238"/>
<path d="M124.73 75.4826C124.7 75.5213 124.665 75.5555 124.627 75.5841L124.304 75.8725C124.005 76.1342 123.589 76.5027 123.055 76.9407C121.968 77.8806 120.391 79.2425 118.397 80.8661C116.078 82.8025 113.645 84.5722 111.114 86.1641C109.61 87.0824 108.041 87.8699 106.423 88.5194C104.677 89.212 102.856 89.6536 101.006 89.8332C97.4087 90.0533 93.8215 89.2393 90.6034 87.4726C89.2117 86.7017 87.8685 85.8311 86.5825 84.8663C85.3875 83.9477 84.2953 83.0558 83.3305 82.1959C81.3715 80.4976 79.8728 79.0609 78.815 78.0782L77.6052 76.9353L77.2967 76.6362L77.1938 76.5241C77.1938 76.5241 77.2379 76.5241 77.3114 76.6095L77.6395 76.8926L78.8786 77.9928C79.9561 78.9541 81.4939 80.3641 83.4432 82.0411C84.4227 82.8795 85.505 83.7608 86.705 84.6687C87.9864 85.6168 89.323 86.4731 90.7063 87.2322C93.8923 88.964 97.4369 89.761 100.991 89.5448C102.819 89.368 104.619 88.9336 106.344 88.2523C107.952 87.6115 109.51 86.8348 111.007 85.9291C113.533 84.3661 115.969 82.6342 118.299 80.7433C120.297 79.141 121.889 77.8059 123.001 76.8926L124.279 75.8244L124.617 75.5574C124.651 75.5265 124.689 75.5013 124.73 75.4826Z" fill="#263238"/>
<g opacity="0.24">
<path opacity="0.24" d="M80.5591 193.005C82.8805 191.05 86.1423 191.52 89.0123 192.183C91.8823 192.845 94.7719 193.908 97.6761 193.464C99.8653 193.128 101.873 191.958 104.043 191.446C106.213 190.933 108.823 191.312 110.023 193.336C100.433 196.706 90.0983 196.59 80.5738 193.005" fill="black"/>
</g>
<path d="M14.8335 206.784C14.8549 206.706 14.8845 206.63 14.9216 206.56L15.1959 205.913C15.5336 205.078 15.8072 204.213 16.0138 203.328C16.5525 201.032 16.7386 197.523 15.9403 193.357C15.5108 191.085 14.9448 188.846 14.2458 186.655C13.5258 184.278 12.6932 181.757 12.0125 179.028C11.2439 176.182 10.8724 173.225 10.9105 170.259C11.0134 167.156 11.8557 164.058 12.7814 160.976C13.707 157.895 14.6621 154.872 14.9461 151.838C15.2671 148.92 14.7304 145.965 13.4132 143.4C12.1839 140.933 10.646 138.828 9.49511 136.644C8.41636 134.621 7.6207 132.434 7.13448 130.155C6.44074 126.851 6.39068 123.425 6.98755 120.098C7.20711 118.883 7.53518 117.693 7.96707 116.547C7.95558 116.629 7.93755 116.709 7.9132 116.787L7.71729 117.465C6.56496 121.567 6.4415 125.93 7.35977 130.102C7.85055 132.355 8.64789 134.515 9.7253 136.511C10.8762 138.647 12.4239 140.783 13.6727 143.256C15.0104 145.871 15.5571 148.88 15.2351 151.854C14.9461 154.941 13.9813 157.98 13.0606 161.062C12.1398 164.143 11.3023 167.204 11.1995 170.253C11.1568 173.19 11.5184 176.117 12.272 178.937C12.943 181.65 13.7707 184.171 14.476 186.559C15.1691 188.762 15.727 191.014 16.146 193.299C16.9247 197.496 16.6995 201.043 16.146 203.344C15.9301 204.232 15.6383 205.096 15.2743 205.924C15.1469 206.191 15.0441 206.399 14.9706 206.56C14.9316 206.639 14.8857 206.714 14.8335 206.784Z" fill="#263238"/>
<path d="M11.0564 138.797C11.0564 138.797 8.71049 130.625 12.9175 125.84C12.9501 125.801 12.9919 125.774 13.0381 125.759C13.0844 125.745 13.1333 125.745 13.1795 125.76C13.2257 125.774 13.2674 125.802 13.2998 125.841C13.3322 125.88 13.3542 125.927 13.3632 125.979C13.5885 127.33 13.8676 131.442 11.0564 138.797Z" fill="#F1463B"/>
<path d="M12.4616 128.564C12.4538 129.07 12.3996 129.575 12.3 130.07C12.1482 131.138 11.967 132.329 11.7662 133.675C11.5654 135.021 11.3939 136.244 11.2421 137.28C11.2025 137.786 11.1189 138.286 10.9923 138.775C10.9527 138.268 10.9675 137.757 11.0364 137.253C11.1148 136.318 11.2666 135.037 11.4772 133.627C11.6878 132.217 11.9131 130.956 12.0992 130.032C12.1679 129.529 12.2895 129.036 12.4616 128.564Z" fill="#263238"/>
<path d="M13.8101 158.076C13.8101 158.076 15.245 149.654 21.0144 147.582C21.0599 147.565 21.1089 147.561 21.1559 147.573C21.2029 147.584 21.2461 147.609 21.2807 147.646C21.3152 147.683 21.3398 147.729 21.3516 147.78C21.3634 147.831 21.3619 147.884 21.3474 147.934C20.9752 149.227 19.4521 153.008 13.8101 158.076Z" fill="#F1463B"/>
<path d="M19.4425 149.745C19.2185 150.189 18.9543 150.608 18.654 150.995C18.076 151.839 17.3904 152.821 16.6362 153.911L14.6086 156.832C14.3554 157.257 14.0669 157.656 13.7466 158.023C13.9287 157.554 14.1604 157.109 14.4371 156.699C14.9269 155.913 15.5881 154.856 16.3962 153.718C17.2043 152.581 17.934 151.582 18.4874 150.856C18.7654 150.447 19.0859 150.074 19.4425 149.745Z" fill="#263238"/>
<path d="M12.2517 179.198C12.2517 179.198 11.38 170.685 16.3461 166.861C16.3852 166.831 16.4314 166.812 16.4795 166.809C16.5276 166.805 16.5757 166.816 16.6184 166.84C16.6611 166.865 16.6968 166.901 16.7214 166.947C16.7459 166.992 16.7584 167.044 16.7575 167.096C16.7428 168.464 16.2971 172.56 12.2517 179.198Z" fill="#F1463B"/>
<path d="M15.4203 169.442C15.3272 169.939 15.186 170.424 14.9991 170.889C14.6661 171.877 14.2792 173.025 13.8433 174.318L12.7022 177.747C12.5808 178.234 12.4168 178.708 12.2124 179.162C12.2642 178.656 12.3677 178.158 12.521 177.677C12.7609 176.775 13.1331 175.541 13.5886 174.206C14.0441 172.87 14.4898 171.669 14.8277 170.809C14.9772 170.33 15.176 169.872 15.4203 169.442Z" fill="#263238"/>
<path d="M16.5963 200.455C16.5963 200.455 16.0037 191.91 21.0923 188.289C21.1321 188.259 21.1787 188.242 21.2269 188.239C21.2752 188.237 21.3231 188.249 21.3653 188.274C21.4076 188.3 21.4424 188.338 21.466 188.384C21.4896 188.429 21.501 188.482 21.4988 188.534C21.4352 189.896 20.8572 193.971 16.5963 200.455Z" fill="#F1463B"/>
<path d="M20.0834 190.842C19.9658 191.336 19.8017 191.816 19.5936 192.273C19.2263 193.245 18.8002 194.41 18.3251 195.649L17.0664 199.035C16.9381 199.506 16.7709 199.964 16.5669 200.402C16.6327 199.899 16.7527 199.406 16.9244 198.933C17.1889 198.041 17.6052 196.829 18.1047 195.51C18.6043 194.191 19.0843 193.005 19.4516 192.161C19.6171 191.698 19.829 191.255 20.0834 190.842Z" fill="#263238"/>
<path d="M7.68767 131.618C7.68767 131.618 0.728206 127.655 0.591074 121.028C0.588939 120.975 0.600301 120.923 0.623883 120.877C0.647465 120.831 0.682332 120.793 0.724565 120.768C0.766797 120.742 0.814721 120.73 0.86295 120.732C0.911178 120.735 0.9578 120.752 0.997572 120.782C2.03096 121.562 4.89605 124.248 7.68767 131.618Z" fill="#F1463B"/>
<path d="M2.03564 123.303C2.36096 123.665 2.65143 124.063 2.90251 124.489L4.86155 127.448L6.82058 130.401C7.11902 130.789 7.38458 131.205 7.61399 131.646C7.24571 131.324 6.91655 130.952 6.63447 130.54C6.08104 129.824 5.35131 128.799 4.58728 127.64C3.82326 126.481 3.15719 125.408 2.69192 124.617C2.42792 124.208 2.20773 123.767 2.03564 123.303Z" fill="#263238"/>
<path d="M15.1608 149.184C15.1608 149.184 7.99564 145.691 7.48629 139.085C7.48223 139.033 7.49138 138.981 7.51274 138.934C7.5341 138.887 7.56684 138.848 7.60735 138.821C7.64786 138.793 7.69458 138.778 7.74235 138.778C7.79012 138.777 7.83709 138.791 7.8781 138.818C8.95556 139.507 11.9676 142.001 15.1608 149.184Z" fill="#F1463B"/>
<path d="M9.05908 141.248C9.40296 141.588 9.7147 141.966 9.98962 142.374L12.1152 145.2L14.2456 148.014C14.5636 148.373 14.849 148.765 15.0978 149.184C14.7243 148.87 14.3843 148.512 14.084 148.116C13.4914 147.432 12.7078 146.46 11.8801 145.355C11.0524 144.249 10.3276 143.218 9.8231 142.465C9.52704 142.092 9.27073 141.684 9.05908 141.248Z" fill="#263238"/>
<path d="M11.0371 168.753C11.0371 168.753 6.11503 162.077 8.42669 155.935C8.44427 155.887 8.47381 155.844 8.51205 155.813C8.55029 155.782 8.59574 155.762 8.64338 155.757C8.69101 155.752 8.73899 155.762 8.78199 155.785C8.82499 155.808 8.86136 155.843 8.88706 155.887C9.54824 157.067 11.1791 160.779 11.0371 168.753Z" fill="#F1463B"/>
<path d="M8.912 158.664C9.07674 159.137 9.19654 159.628 9.26953 160.127C9.47523 161.158 9.71521 162.365 9.98458 163.7C10.2539 165.036 10.4743 166.237 10.7045 167.263C10.8355 167.749 10.9257 168.248 10.9739 168.753C10.7564 168.3 10.5919 167.819 10.4841 167.321C10.2393 166.419 9.95029 165.185 9.67603 163.764C9.40176 162.344 9.18627 161.094 9.04914 160.176C8.95288 159.679 8.90689 159.172 8.912 158.664Z" fill="#263238"/>
<path d="M15.9148 191.793C15.9148 191.793 8.79864 188.172 8.39704 181.549C8.39395 181.498 8.40382 181.446 8.42557 181.401C8.44733 181.355 8.48015 181.316 8.52048 181.289C8.56081 181.262 8.60713 181.248 8.65443 181.248C8.70172 181.247 8.7482 181.261 8.78884 181.288C9.85652 182.019 12.8293 184.567 15.9148 191.793Z" fill="#F1463B"/>
<path d="M9.93066 183.755C10.2707 184.101 10.5776 184.484 10.8465 184.898C11.444 185.726 12.1493 186.692 12.928 187.761L15.0144 190.618C15.328 190.992 15.61 191.396 15.8567 191.825C15.4924 191.513 15.1635 191.154 14.8772 190.757C14.2993 190.068 13.5304 189.08 12.7223 187.958C11.9142 186.837 11.1795 185.801 10.6898 185.037C10.3954 184.64 10.1409 184.211 9.93066 183.755Z" fill="#263238"/>
<path d="M30.0839 158.119C30.0908 158.183 30.0908 158.248 30.0839 158.311C30.0839 158.461 30.0839 158.637 30.0839 158.846C30.0839 159.38 30.035 160.058 30.0007 160.923C29.9076 162.75 29.7803 165.292 29.6285 168.341C29.1387 171.439 27.6694 174.873 25.7104 178.206C24.2852 180.662 22.7718 182.9 21.5034 184.978C20.3307 186.792 19.2751 188.692 18.3444 190.666C17.7359 192.005 17.244 193.403 16.8752 194.842C16.7478 195.349 16.6548 195.75 16.6009 196.022C16.5793 196.163 16.5448 196.301 16.498 196.434C16.4996 196.292 16.5144 196.15 16.5421 196.012C16.5764 195.734 16.6548 195.328 16.7625 194.81C17.0949 193.338 17.5642 191.906 18.1632 190.537C19.0735 188.54 20.1162 186.618 21.283 184.785C22.5612 182.692 24.0501 180.454 25.4704 178.013C27.4294 174.692 28.8399 171.311 29.3885 168.261C29.5844 165.222 29.746 162.68 29.8782 160.854C29.9419 159.988 29.9958 159.294 30.0301 158.781C30.0301 158.568 30.0692 158.386 30.0839 158.247C30.0797 158.205 30.0797 158.162 30.0839 158.119Z" fill="#263238"/>
<path d="M25.8716 177.597C25.8716 177.597 28.8836 169.687 25.0929 164.507C25.0635 164.465 25.0241 164.433 24.9791 164.415C24.9341 164.396 24.8852 164.392 24.8379 164.402C24.7907 164.411 24.7469 164.436 24.7115 164.471C24.6761 164.507 24.6504 164.552 24.6374 164.603C24.2799 165.927 23.6579 170.013 25.8716 177.597Z" fill="#F1463B"/>
<path d="M25.2996 167.268C25.4294 167.755 25.5099 168.256 25.5395 168.763C25.6473 169.692 25.7648 170.979 25.8579 172.405C25.9509 173.831 25.995 175.124 25.995 176.058C26.0252 176.566 25.9972 177.075 25.9118 177.575C25.8266 177.079 25.7856 176.574 25.7893 176.069C25.7257 175.001 25.6473 173.789 25.564 172.427C25.4808 171.065 25.3975 169.831 25.3339 168.784C25.2767 168.281 25.2652 167.773 25.2996 167.268Z" fill="#263238"/>
<g opacity="0.3">
<path opacity="0.3" d="M25.8726 177.597C25.8726 177.597 28.8846 169.687 25.0938 164.507C25.0645 164.465 25.0251 164.433 24.9801 164.415C24.935 164.396 24.8862 164.392 24.8389 164.402C24.7917 164.411 24.7479 164.436 24.7125 164.471C24.6771 164.507 24.6514 164.552 24.6384 164.603C24.2809 165.927 23.6589 170.013 25.8726 177.597Z" fill="black"/>
</g>
<path d="M16.5177 196.652C16.5177 196.652 18.9322 188.508 14.7692 183.68C14.737 183.641 14.6956 183.613 14.6497 183.599C14.6037 183.584 14.555 183.584 14.5089 183.598C14.4628 183.612 14.4211 183.639 14.3884 183.677C14.3557 183.715 14.3333 183.762 14.3236 183.813C14.0836 185.159 13.7701 189.266 16.5177 196.652Z" fill="#F1463B"/>
<path d="M15.2007 186.404C15.3671 186.879 15.4837 187.374 15.5484 187.878C15.7247 188.791 15.9402 190.062 16.141 191.478C16.3418 192.893 16.479 194.175 16.5475 195.109C16.6141 195.613 16.6239 196.125 16.5769 196.631C16.4576 196.142 16.379 195.641 16.3418 195.136C16.1998 194.068 16.0333 192.877 15.8521 191.526C15.6709 190.174 15.4945 188.957 15.3623 187.915C15.263 187.419 15.2089 186.912 15.2007 186.404Z" fill="#263238"/>
<g opacity="0.3">
<path opacity="0.3" d="M16.5182 196.652C16.5182 196.652 18.9327 188.508 14.7697 183.68C14.7375 183.641 14.6961 183.613 14.6502 183.599C14.6042 183.584 14.5555 183.584 14.5094 183.598C14.4633 183.612 14.4216 183.639 14.3889 183.677C14.3562 183.715 14.3338 183.762 14.324 183.813C14.0841 185.159 13.7706 189.266 16.5182 196.652Z" fill="black"/>
</g>
<path d="M29.6821 167.935C29.6821 167.935 36.1175 163.022 35.4662 156.431C35.462 156.379 35.4445 156.329 35.4158 156.287C35.3871 156.245 35.3482 156.212 35.3035 156.193C35.2588 156.174 35.2101 156.168 35.1627 156.177C35.1153 156.186 35.0711 156.21 35.0352 156.244C34.1046 157.195 31.5775 160.234 29.6821 167.935Z" fill="#F1463B"/>
<g opacity="0.3">
<path opacity="0.3" d="M29.6821 167.936C29.6821 167.936 36.1175 163.022 35.4662 156.432C35.462 156.38 35.4445 156.33 35.4158 156.288C35.3871 156.245 35.3482 156.213 35.3035 156.193C35.2588 156.174 35.2101 156.169 35.1627 156.178C35.1153 156.187 35.0711 156.21 35.0352 156.245C34.1046 157.196 31.5775 160.234 29.6821 167.936Z" fill="black"/>
</g>
<path d="M34.3057 158.894C34.1757 159.38 33.9967 159.85 33.7719 160.293C33.4046 161.142 32.8707 162.296 32.2488 163.556C31.6268 164.817 31.0293 165.933 30.564 166.723C30.3415 167.17 30.0666 167.583 29.7461 167.952C29.9228 167.483 30.1375 167.033 30.3877 166.606L31.9892 163.401L33.5858 160.197C33.784 159.737 34.0253 159.3 34.3057 158.894Z" fill="#263238"/>
<path d="M19.1084 188.577C19.1084 188.577 26.8515 187.258 28.9476 181.03C28.965 180.981 28.9694 180.928 28.9604 180.876C28.9515 180.825 28.9295 180.777 28.8969 180.738C28.8644 180.699 28.8226 180.671 28.7761 180.657C28.7297 180.642 28.6806 180.642 28.6342 180.657C27.4245 181.03 23.9129 182.574 19.1084 188.577Z" fill="#F1463B"/>
<g opacity="0.3">
<path opacity="0.3" d="M19.1084 188.577C19.1084 188.577 26.8515 187.258 28.9476 181.03C28.965 180.981 28.9694 180.928 28.9604 180.876C28.9515 180.825 28.9295 180.777 28.8969 180.738C28.8644 180.699 28.8226 180.671 28.7761 180.656C28.7297 180.642 28.6806 180.642 28.6342 180.657C27.4245 181.03 23.9129 182.574 19.1084 188.577Z" fill="black"/>
</g>
<path d="M26.9096 182.681C26.5967 183.053 26.2487 183.388 25.8713 183.68C25.2003 184.267 24.2551 185.047 23.1874 185.875C22.1197 186.703 21.1304 187.424 20.4007 187.915C20.017 188.205 19.6026 188.444 19.1665 188.625C19.5128 188.288 19.8866 187.986 20.2832 187.723L23.0209 185.619L25.7489 183.482C26.1092 183.172 26.4983 182.904 26.9096 182.681Z" fill="#263238"/>
<path d="M11.709 204.152L9.44629 220.761H23.5513L21.7196 204.152H11.709Z" fill="#455A64"/>
<path d="M22.2872 209.294C22.2872 209.385 19.7405 209.454 16.5962 209.454C13.452 209.454 10.9102 209.385 10.9102 209.294C12.8018 209.136 14.6996 209.082 16.5962 209.134C18.4945 209.082 20.3939 209.136 22.2872 209.294Z" fill="#263238"/>
<path d="M22.5667 210.602C22.5667 210.688 19.9367 210.763 16.6896 210.763C13.4425 210.763 10.8125 210.688 10.8125 210.602C10.8125 210.517 13.4425 210.442 16.6896 210.442C19.9367 210.442 22.5667 210.528 22.5667 210.602Z" fill="#263238"/>
</svg>
