<svg width="224" height="222" viewBox="0 0 224 222" fill="none" xmlns="http://www.w3.org/2000/svg">
<path d="M114.257 62.5163L46.1987 101.56V39.4911L114.257 0.447693V62.5163Z" fill="white"/>
<path d="M46.1941 102.022C46.113 102.023 46.0333 102.002 45.9636 101.96C45.8908 101.922 45.8302 101.864 45.7887 101.793C45.7472 101.722 45.7264 101.642 45.7287 101.56V39.491C45.7289 39.4096 45.7507 39.3296 45.7919 39.2592C45.8332 39.1889 45.8924 39.1306 45.9636 39.0902L114.022 0.0600564C114.093 0.0203072 114.173 -0.000387944 114.255 5.50715e-06C114.336 0.000398959 114.416 0.0218671 114.487 0.0623002C114.557 0.102733 114.616 0.160739 114.658 0.230615C114.699 0.300491 114.721 0.379833 114.722 0.46084V62.5119C114.722 62.594 114.701 62.6746 114.659 62.7458C114.618 62.8169 114.559 62.876 114.487 62.917L46.429 101.96C46.358 102.002 46.2766 102.024 46.1941 102.022ZM46.6639 39.7597V100.754L113.787 62.2432V1.2536L46.6639 39.7597Z" fill="#E0E0E0"/>
<path d="M83.2257 24.6179L81.6877 25.4987V61.904L83.2257 61.0231V24.6179ZM54.3048 90.6811L55.0716 90.2407V40.7461L54.3004 41.1865L54.3048 90.6811ZM58.1787 38.9932L56.6407 39.8741V76.2793L58.1787 75.3985V38.9932ZM66.7907 77.3892C66.574 77.222 66.3014 77.1433 66.0283 77.169C65.6967 77.2041 65.3772 77.3125 65.0931 77.4861C64.7571 77.6657 64.4568 77.9045 64.2066 78.1908C64.0593 78.3667 63.9217 78.5505 63.7944 78.7413L64.0028 75.1783L66.8616 73.5355C66.938 73.4863 66.9991 73.4171 67.0382 73.3354C67.0774 73.2538 67.0929 73.163 67.0832 73.0731V72.8308C67.0832 72.6062 67.0079 72.5358 66.8616 72.6194L63.626 74.4912C63.5527 74.5462 63.4944 74.6185 63.4565 74.7016C63.4185 74.7847 63.4022 74.8759 63.4088 74.9669L63.1074 80.1198C63.1022 80.1567 63.1051 80.1943 63.1158 80.23C63.1265 80.2657 63.1448 80.2988 63.1695 80.3268C63.1922 80.3447 63.2203 80.3544 63.2493 80.3544C63.2782 80.3544 63.3063 80.3447 63.329 80.3268L63.5108 80.2255C63.6309 80.1493 63.7288 80.043 63.7944 79.9172C63.8742 79.7719 63.9717 79.6133 64.0825 79.4372C64.2052 79.2493 64.3384 79.0684 64.4814 78.8954C64.6534 78.6954 64.8607 78.5282 65.0931 78.4022C65.3018 78.2713 65.5388 78.1913 65.7845 78.1688C65.9865 78.154 66.1869 78.2135 66.3474 78.3361C66.5283 78.4839 66.6609 78.6816 66.7286 78.9043C66.8303 79.2215 66.8767 79.5536 66.866 79.8864C66.8688 80.2941 66.8227 80.7007 66.7286 81.0976C66.6448 81.4624 66.5168 81.8159 66.3474 82.1502C66.1969 82.4507 66.0077 82.7305 65.7845 82.9826C65.5881 83.2106 65.3543 83.4042 65.0931 83.5551C64.9282 83.6522 64.7486 83.7221 64.5612 83.7621C64.4072 83.7999 64.2455 83.7922 64.0958 83.7401C63.9335 83.6658 63.7975 83.5445 63.7058 83.3922C63.5787 83.1723 63.496 82.9299 63.462 82.6787C63.4354 82.5377 63.4 82.4629 63.3556 82.4497C63.3335 82.4391 63.3093 82.4336 63.2847 82.4336C63.2602 82.4336 63.2359 82.4391 63.2138 82.4497L63.0232 82.5598C62.9581 82.5984 62.9057 82.655 62.8725 82.7227C62.8318 82.7966 62.8148 82.8811 62.8238 82.9649C62.823 83.2851 62.8801 83.6029 62.9922 83.903C63.0798 84.1527 63.2328 84.3746 63.4354 84.5461C63.6373 84.7034 63.8881 84.7859 64.1446 84.7795C64.4884 84.763 64.8217 84.6567 65.1108 84.4712C65.4603 84.2667 65.7757 84.0096 66.0461 83.7093C66.3533 83.3799 66.6102 83.0074 66.8084 82.6038C67.0353 82.1559 67.2078 81.6828 67.3226 81.1945C67.4541 80.6478 67.5181 80.0873 67.5131 79.5252C67.5281 79.0627 67.4637 78.601 67.3226 78.1599C67.2257 77.8565 67.0407 77.5883 66.7907 77.3892ZM61.1661 76.8739C60.9768 76.6565 60.713 76.5168 60.4259 76.4819C60.0565 76.4614 59.6905 76.562 59.3843 76.7682C58.9768 77 58.6198 77.3099 58.3338 77.6799C58.0357 78.0598 57.787 78.4756 57.5936 78.9175C57.2136 79.7772 57.013 80.7047 57.0041 81.6437C57.0014 82.0429 57.049 82.4409 57.146 82.8284C57.2209 83.1529 57.3729 83.455 57.5892 83.7093C57.7807 83.923 58.0436 84.0607 58.3294 84.0968C58.6985 84.1145 59.0635 84.0141 59.371 83.8106C59.6112 83.6676 59.833 83.496 60.0314 83.2997L58.4579 87.5894C58.4426 87.6188 58.4308 87.6498 58.4225 87.6819C58.4151 87.7256 58.4151 87.7702 58.4225 87.814C58.416 87.8863 58.4365 87.9584 58.4801 88.0166C58.4892 88.0262 58.5002 88.0338 58.5124 88.039C58.5246 88.0443 58.5377 88.047 58.551 88.047C58.5643 88.047 58.5774 88.0443 58.5896 88.039C58.6018 88.0338 58.6128 88.0262 58.6219 88.0166L58.8214 87.9021C58.913 87.8516 58.9837 87.7704 59.0208 87.673C59.0607 87.5761 59.1006 87.4925 59.1316 87.422L61.1838 81.8066C61.2459 81.6481 61.3079 81.4675 61.3744 81.2561C61.4409 81.0447 61.5029 80.8157 61.565 80.5646C61.627 80.3136 61.6714 80.0582 61.7112 79.7807C61.7531 79.4889 61.7738 79.1946 61.7733 78.8998C61.7766 78.5017 61.7274 78.1049 61.627 77.7195C61.5417 77.4058 61.3839 77.1163 61.1661 76.8739ZM60.9888 80.4457C60.9007 80.8023 60.7729 81.148 60.6076 81.4763C60.458 81.7767 60.2719 82.0577 60.0536 82.3131C59.8633 82.5377 59.6372 82.7296 59.3843 82.8813C59.1837 83.0035 58.9546 83.0718 58.7194 83.0795C58.5179 83.0787 58.3231 83.0069 58.1698 82.8769C57.9886 82.7168 57.8565 82.5092 57.7886 82.2779C57.6884 81.9558 57.642 81.6195 57.6512 81.2825C57.6497 80.8923 57.6958 80.5034 57.7886 80.1242C57.8739 79.7626 58.0019 79.4122 58.1698 79.0804C58.3164 78.7793 58.5011 78.4981 58.7194 78.2436C58.9075 78.0199 59.1323 77.8293 59.3843 77.6799C59.5856 77.5557 59.8167 77.4873 60.0536 77.4817C60.2562 77.4794 60.4529 77.5497 60.6076 77.6799C60.7885 77.8438 60.9204 78.0541 60.9888 78.2877C61.089 78.6113 61.1354 78.949 61.1262 79.2874C61.1289 79.6774 61.0843 80.0664 60.9932 80.4457H60.9888ZM66.8749 70.5847L67.6417 70.1443V33.7346L66.8705 34.175L66.8749 70.5847ZM52.5718 91.6677L53.3386 91.2272V41.7459L52.5674 42.1863L52.5718 91.6677ZM70.7044 31.8056L69.1664 32.6864V69.0917L70.7044 68.2108V31.8056ZM72.6059 30.7662L71.8347 31.2066V67.6118L72.6059 67.1714V30.7662ZM60.9179 37.3725L60.1466 37.8129V74.2226L60.9179 73.7822V37.3725ZM65.5541 34.7696L62.8947 36.2626V72.6679L65.5541 71.1749V34.7696ZM100.441 14.7128L99.674 15.1532V51.5585L100.445 51.1181L100.441 14.7128ZM98.3177 54.5798L94.466 56.7819C94.3898 56.8341 94.3293 56.9059 94.291 56.9897C94.2527 57.0735 94.2382 57.1661 94.2489 57.2575V57.4866C94.2489 57.7112 94.3242 57.7772 94.466 57.698L97.8701 55.7469L95.3082 66.502C95.3023 66.5503 95.3023 66.5991 95.3082 66.6473C95.3014 66.721 95.3219 66.7946 95.3658 66.8543C95.3848 66.8726 95.4103 66.8829 95.4367 66.8829C95.4632 66.8829 95.4886 66.8726 95.5076 66.8543L95.716 66.731C95.7976 66.6819 95.8565 66.6027 95.88 66.5108C95.9154 66.4007 95.9509 66.2994 95.9775 66.2025L98.4994 55.6059C98.5216 55.4914 98.5438 55.3901 98.5526 55.3109C98.558 55.2082 98.558 55.1053 98.5526 55.0026V54.7736C98.5438 54.5666 98.4684 54.4961 98.3177 54.5798ZM91.359 69.2502L92.1258 68.8098V19.6455L91.359 20.086V69.2502ZM97.7814 52.6419L98.5526 52.2015V15.7962L97.7858 16.2367L97.7814 52.6419ZM95.7514 17.4302L94.2134 18.3111V54.7163L95.7514 53.8355V17.4302ZM103.637 61.2786L100.299 63.1944L102.63 58.2265C102.959 57.5912 103.233 56.9298 103.45 56.249C103.628 55.6544 103.718 55.0371 103.716 54.4168C103.72 54.0498 103.683 53.6835 103.605 53.3246C103.55 53.0375 103.422 52.7692 103.233 52.545C103.151 52.4525 103.051 52.3772 102.939 52.3235C102.827 52.2698 102.706 52.2388 102.582 52.2323C102.238 52.2354 101.902 52.338 101.615 52.5274C101.234 52.7449 100.901 53.0371 100.636 53.3862C100.364 53.7391 100.139 54.1254 99.9665 54.5357C99.7911 54.9377 99.6589 55.357 99.5721 55.7865C99.4924 56.1695 99.445 56.5584 99.4302 56.9492C99.4302 57.1474 99.5012 57.2003 99.643 57.121L99.8424 57.0065C99.8988 56.9649 99.9444 56.9105 99.9754 56.8479C100.028 56.7481 100.06 56.6387 100.068 56.5264C100.113 55.8828 100.272 55.252 100.538 54.6634C100.76 54.1546 101.136 53.7278 101.615 53.4435C102.094 53.166 102.458 53.1484 102.71 53.395C103.013 53.7894 103.15 54.2853 103.091 54.778C103.092 55.0017 103.079 55.2253 103.051 55.4474C103.022 55.6771 102.973 55.904 102.905 56.1257C102.827 56.3911 102.732 56.6515 102.622 56.9052C102.502 57.1871 102.351 57.513 102.178 57.8873L99.5942 63.3177C99.5185 63.4596 99.4533 63.6068 99.3992 63.7582C99.366 63.8637 99.3481 63.9735 99.346 64.0841V64.3131C99.346 64.5377 99.4214 64.6082 99.5676 64.5245L103.65 62.1814C103.729 62.132 103.792 62.0616 103.833 61.9784C103.873 61.8952 103.89 61.8023 103.88 61.7102V61.4856C103.867 61.2786 103.792 61.1993 103.637 61.2786ZM72.9339 70.25C72.8547 70.1196 72.7486 70.0074 72.6225 69.9208C72.4964 69.8343 72.3533 69.7753 72.2025 69.7479C71.8016 69.7143 71.4015 69.8219 71.0723 70.0518C70.6313 70.3019 70.2467 70.6391 69.9421 71.0427C69.6364 71.4544 69.3902 71.9065 69.2107 72.386C69.0209 72.8942 68.8871 73.4214 68.8118 73.9583C68.7312 74.5127 68.6883 75.0718 68.6833 75.6319C68.6833 76.5128 68.6833 77.3672 68.6833 78.1952C68.6836 78.7045 68.7281 79.2129 68.8162 79.7146C68.8735 80.1101 69.0091 80.4903 69.2152 80.8333C69.2936 80.9634 69.399 81.0754 69.5243 81.162C69.6496 81.2485 69.792 81.3076 69.9421 81.3354C70.343 81.3689 70.7431 81.2614 71.0723 81.0315C71.5132 80.7814 71.8979 80.4441 72.2025 80.0405C72.5082 79.6289 72.7544 79.1768 72.9339 78.6973C73.1193 78.1898 73.2501 77.6642 73.3239 77.1294C73.4047 76.5733 73.4521 76.013 73.4657 75.4513C73.4657 74.6087 73.4657 73.7543 73.4657 72.8881C73.4618 72.3773 73.4159 71.8676 73.3283 71.3642C73.2707 70.9737 73.1367 70.5982 72.9339 70.2588V70.25ZM72.8364 75.7332C72.8456 76.6604 72.6957 77.5823 72.3931 78.4594C72.1659 79.153 71.6935 79.7413 71.0634 80.1154C70.4739 80.4545 70.0351 80.4061 69.7337 79.9701C69.4323 79.5341 69.2905 78.7986 69.2905 77.768C69.2905 77.3275 69.2905 76.9356 69.2905 76.5656C69.2905 76.1957 69.2905 75.7949 69.2905 75.3633C69.282 74.4405 69.4319 73.523 69.7337 72.6503C69.9592 71.9524 70.4316 71.3594 71.0634 70.9811C71.6485 70.6463 72.0873 70.6992 72.3931 71.144C72.7336 71.8264 72.8865 72.5861 72.8364 73.3461C72.8364 73.7689 72.8364 74.1653 72.8364 74.5353C72.8497 74.8964 72.8452 75.3016 72.8364 75.742V75.7332ZM102.577 49.9113L104.115 49.0305V12.6296L102.577 13.5105V49.9113ZM106.203 11.4405V60.7369L107.741 59.856V10.5596L106.203 11.4405ZM78.5009 65.9515L74.6492 68.1536C74.5729 68.2058 74.5124 68.2776 74.4741 68.3614C74.4358 68.4452 74.4213 68.5378 74.432 68.6292V68.8582C74.432 69.0785 74.5073 69.1489 74.6492 69.0696L78.0488 67.1186L75.4869 77.8825C75.4825 77.9308 75.4825 77.9795 75.4869 78.0278C75.4814 78.1007 75.5001 78.1734 75.5401 78.2348C75.5598 78.2534 75.586 78.2638 75.6132 78.2638C75.6404 78.2638 75.6666 78.2534 75.6863 78.2348L75.8947 78.1115C75.9763 78.0623 76.0352 77.9832 76.0586 77.8913L76.1562 77.583L78.6604 67.0041C78.6604 66.8896 78.7047 66.7883 78.7136 66.709C78.7189 66.6063 78.7189 66.5034 78.7136 66.4007V66.1717C78.7225 65.9382 78.6516 65.8678 78.5009 65.9515ZM78.7446 63.626L79.5114 63.1856V26.7804L78.7446 27.2208V63.626ZM86.1953 59.2659L89.4886 57.4337V21.024L86.1953 22.8562V59.2659ZM76.9495 28.2117L73.8469 29.9338V66.339L76.9229 64.6214L76.9495 28.2117ZM87.5029 60.8029L87.3123 60.9086C87.2671 60.9344 87.2241 60.9638 87.1838 60.9967C87.1325 61.0467 87.0879 61.103 87.0508 61.1641L84.9277 64.8592C84.879 64.943 84.8488 65.036 84.8391 65.1323C84.8321 65.2103 84.8491 65.2886 84.8878 65.3569L84.9986 65.5066C85.0873 65.63 85.1892 65.5903 85.3089 65.3921L87.0818 62.2651V71.351C87.0818 71.5756 87.1572 71.6461 87.3034 71.5624L87.494 71.4523C87.5664 71.4048 87.6247 71.3389 87.6628 71.2614C87.701 71.184 87.7177 71.0979 87.7112 71.0119V60.9879C87.7378 60.7633 87.6669 60.6928 87.5206 60.7809L87.5029 60.8029ZM83.8019 72.6943L80.4954 74.5749L82.8268 69.607C83.1553 68.9717 83.4296 68.3102 83.6468 67.6295C83.8246 67.0348 83.9142 66.4176 83.9127 65.7973C83.9174 65.43 83.8787 65.0634 83.7975 64.7051C83.7464 64.4175 83.6194 64.1485 83.4296 63.9255C83.3473 63.833 83.2473 63.7577 83.1355 63.704C83.0236 63.6503 82.9021 63.6193 82.778 63.6128C82.4337 63.6141 82.0974 63.7168 81.8118 63.9079C81.4302 64.1254 81.097 64.4176 80.8322 64.7667C80.5601 65.1195 80.3351 65.5059 80.163 65.9162C79.9876 66.3182 79.8553 66.7375 79.7685 67.167C79.681 67.5477 79.6276 67.9353 79.6089 68.3253C79.6089 68.5235 79.6798 68.5764 79.8217 68.4971L80.0167 68.3826C80.0747 68.3415 80.1218 68.2871 80.1541 68.224C80.2066 68.1242 80.2383 68.0148 80.2472 67.9025C80.2897 67.2585 80.4489 66.6274 80.717 66.0395C80.9384 65.5307 81.3152 65.1039 81.7941 64.8196C82.2728 64.5421 82.6362 64.5245 82.8888 64.7711C83.1415 65.0178 83.2656 65.4714 83.2656 66.1541C83.2676 66.3777 83.2558 66.6013 83.2301 66.8235C83.2004 67.0532 83.1515 67.2801 83.0839 67.5017C83.0039 67.7666 82.9092 68.0268 82.8002 68.2813C82.6805 68.5632 82.5298 68.8891 82.357 69.2634L79.7729 74.6894C79.6962 74.8308 79.631 74.9781 79.5779 75.1298C79.5444 75.2353 79.5264 75.3451 79.5247 75.4558V75.6848C79.5247 75.9094 79.5956 75.9799 79.7463 75.8962L83.8285 73.5531C83.9072 73.5036 83.9705 73.4333 84.0112 73.3501C84.0519 73.2668 84.0685 73.174 84.059 73.0819V72.8573C84.0412 72.6415 83.9748 72.571 83.8196 72.6591L83.8019 72.6943Z" fill="#455A64"/>
<path d="M128.96 54.3743L96.8483 72.7865C93.332 74.808 90.4499 79.762 90.4499 83.7989V154.241L87.4673 155.95V81.403C87.4673 77.3661 90.3494 72.4059 93.8657 70.3906L129.098 50.1752C132.62 48.1599 135.496 49.8071 135.496 53.8502V128.404L132.52 130.132V56.4021C132.52 54.1746 130.906 53.2637 128.96 54.3743Z" fill="#E0E0E0"/>
<path d="M157.209 211.356C157.209 207.724 154.647 203.307 151.483 201.491C149.819 200.537 148.343 200.499 147.282 201.192L143.414 203.388L151.64 217.27L155.47 215.08C156.537 214.488 157.209 213.209 157.209 211.356Z" fill="#455A64"/>
<path d="M147.463 203.812C150.634 205.628 153.196 210.052 153.196 213.677C153.196 217.302 150.634 218.787 147.463 216.915C144.292 215.043 141.73 210.675 141.73 207.05C141.73 203.425 144.299 201.972 147.463 203.812Z" fill="#37474F"/>
<path d="M145.523 209.253C145.523 207.83 146.396 207.181 147.464 207.793C148.055 208.214 148.539 208.767 148.876 209.407C149.213 210.048 149.394 210.758 149.404 211.48C149.404 212.897 148.537 213.552 147.464 212.934C146.874 212.514 146.391 211.962 146.054 211.322C145.717 210.683 145.535 209.974 145.523 209.253Z" fill="#263238"/>
<path d="M154.182 197.729C154.182 197.729 154.182 204.224 151.042 206.526C150.458 206.957 149.831 207.256 149.466 207.562C148.669 208.223 149.196 209.434 150.163 209.945C151.57 210.694 159.224 208.666 162.464 202.489L154.182 197.729Z" fill="#F0F0F0"/>
<path d="M151.212 199.444C151.212 199.444 151.212 205.946 148.072 208.248C147.488 208.678 146.86 208.978 146.496 209.284C145.699 209.908 146.226 211.155 147.193 211.667C148.6 212.416 156.254 210.388 159.494 204.18L151.212 199.444Z" fill="#FAFAFA"/>
<path d="M147.464 209.734C147.625 209.837 147.759 209.977 147.855 210.142C147.951 210.307 148.007 210.492 148.017 210.682C148.017 211.031 147.772 211.169 147.464 210.994C147.305 210.89 147.173 210.751 147.078 210.588C146.983 210.424 146.928 210.24 146.918 210.052C146.918 209.702 147.163 209.559 147.464 209.734Z" fill="#263238"/>
<path d="M94.9754 175.655C94.9754 172.017 92.4072 167.6 89.2426 165.784C87.5786 164.836 86.103 164.798 85.0418 165.491L81.1802 167.687L89.3995 181.563L93.2298 179.373C94.3035 178.787 94.9754 177.508 94.9754 175.655Z" fill="#455A64"/>
<path d="M85.2309 168.086C88.3705 169.902 90.9637 174.325 90.9637 177.95C90.9637 181.575 88.3956 183.054 85.2309 181.238C82.0662 179.423 79.498 174.999 79.498 171.374C79.498 167.749 82.0662 166.27 85.2309 168.086Z" fill="#37474F"/>
<path d="M83.291 173.545C83.291 172.129 84.1575 171.474 85.2313 172.091C85.8224 172.511 86.306 173.063 86.6431 173.702C86.9801 174.342 87.1611 175.051 87.1715 175.773C87.1715 177.195 86.305 177.844 85.2313 177.233C84.64 176.812 84.1564 176.259 83.8194 175.618C83.4824 174.978 83.3014 174.268 83.291 173.545Z" fill="#263238"/>
<path d="M91.9494 162.009C91.9494 162.009 91.9494 168.51 88.8099 170.812C88.2196 171.243 87.598 171.542 87.2275 171.848C86.4364 172.472 86.9638 173.72 87.9308 174.232C89.331 174.98 96.9853 172.953 100.232 166.744L91.9494 162.009Z" fill="#F0F0F0"/>
<path d="M88.9804 163.719C88.9804 163.719 88.9804 170.22 85.8408 172.516C85.2506 172.953 84.629 173.252 84.2585 173.558C83.4673 174.213 83.9885 175.43 84.9555 175.935C86.362 176.684 94.0162 174.687 97.2563 168.479L88.9804 163.719Z" fill="#FAFAFA"/>
<path d="M85.2313 174.032C85.39 174.136 85.522 174.275 85.6169 174.439C85.7117 174.602 85.7668 174.786 85.7776 174.974C85.7776 175.323 85.5327 175.467 85.2313 175.292C85.0726 175.186 84.9404 175.046 84.8446 174.882C84.7489 174.717 84.6921 174.533 84.6787 174.344C84.6787 173.994 84.9299 173.863 85.2313 174.032Z" fill="#263238"/>
<path d="M84.4639 157.685L138.496 126.682L222.554 174.906L168.516 205.909L84.4639 157.685Z" fill="#455A64"/>
<path d="M84.4639 157.685V161.129L168.516 209.353V205.908L84.4639 157.685Z" fill="#37474F"/>
<path d="M222.555 174.906V178.35L168.517 209.353V205.909L222.555 174.906Z" fill="#263238"/>
<path d="M89.1929 157.535L136.525 184.701L186.532 156.05L139.068 128.952L89.1929 157.535Z" fill="#37474F"/>
<path d="M181.952 126.301L138.595 101.393L92.9395 127.642L136.297 152.55L181.952 126.301Z" fill="#F1463B"/>
<path opacity="0.3" d="M181.952 126.301L138.595 101.393L92.9395 127.642L136.297 152.55L181.952 126.301Z" fill="white"/>
<path d="M136.297 182.66L181.953 156.412V126.301L136.297 152.55V182.66Z" fill="#F1463B"/>
<path d="M141.609 171.766C141.433 171.767 141.26 171.721 141.107 171.635C140.889 171.479 140.717 171.269 140.606 171.026C140.496 170.783 140.452 170.515 140.479 170.25V166.163V165.858L140.686 165.895L143.913 164.023V168.591C143.902 169.177 143.752 169.752 143.476 170.27C143.201 170.788 142.806 171.234 142.325 171.573C142.107 171.697 141.86 171.764 141.609 171.766ZM140.981 166.469V170.25C140.959 170.425 140.981 170.603 141.046 170.768C141.111 170.932 141.216 171.078 141.352 171.192C141.466 171.24 141.59 171.258 141.713 171.245C141.836 171.231 141.953 171.188 142.055 171.117C142.456 170.822 142.783 170.44 143.013 170C143.242 169.56 143.368 169.074 143.38 168.578V168.247H142.187L141.954 166.644L140.981 166.469ZM142.632 167.717H143.38V164.897L141.458 166.014L142.413 166.182L142.632 167.717Z" fill="#455A64"/>
<path d="M142.194 175.03C142.16 175.03 142.126 175.023 142.094 175.01C142.062 174.997 142.034 174.977 142.01 174.953C141.986 174.929 141.967 174.9 141.954 174.868C141.942 174.836 141.936 174.802 141.937 174.768V171.368C141.937 171.3 141.964 171.235 142.012 171.187C142.06 171.139 142.126 171.112 142.194 171.112C142.262 171.112 142.328 171.139 142.376 171.187C142.424 171.235 142.451 171.3 142.451 171.368V174.799C142.445 174.863 142.415 174.922 142.368 174.964C142.32 175.007 142.258 175.03 142.194 175.03Z" fill="#455A64"/>
<path d="M140.681 175.891C140.635 175.89 140.59 175.877 140.551 175.855C140.511 175.832 140.478 175.799 140.455 175.76C140.422 175.701 140.414 175.632 140.431 175.567C140.449 175.501 140.491 175.446 140.549 175.411L143.557 173.689C143.586 173.671 143.618 173.659 143.652 173.654C143.685 173.65 143.72 173.652 143.753 173.66C143.785 173.669 143.816 173.684 143.843 173.705C143.87 173.726 143.892 173.752 143.908 173.782C143.942 173.841 143.952 173.911 143.934 173.976C143.916 174.042 143.873 174.098 143.814 174.131L140.813 175.854C140.773 175.877 140.727 175.89 140.681 175.891Z" fill="#455A64"/>
<path d="M151.394 169.976C151.295 169.976 151.197 169.951 151.111 169.901C151.008 169.834 150.925 169.741 150.871 169.631C150.817 169.521 150.794 169.399 150.803 169.277V168.578C150.803 168.511 150.831 168.446 150.879 168.398C150.927 168.35 150.993 168.323 151.061 168.323C151.129 168.323 151.195 168.35 151.243 168.398C151.291 168.446 151.318 168.511 151.318 168.578V169.277C151.314 169.308 151.317 169.34 151.325 169.37C151.334 169.4 151.349 169.428 151.369 169.452C151.369 169.452 151.45 169.452 151.538 169.408C151.697 169.26 151.821 169.08 151.904 168.88C151.986 168.679 152.024 168.464 152.015 168.248V163.681C152.025 163.619 152.057 163.563 152.104 163.522C152.152 163.481 152.213 163.459 152.276 163.459C152.339 163.459 152.4 163.481 152.447 163.522C152.495 163.563 152.527 163.619 152.537 163.681V168.248C152.548 168.553 152.488 168.858 152.36 169.136C152.233 169.414 152.041 169.659 151.802 169.851C151.68 169.929 151.539 169.972 151.394 169.976Z" fill="#455A64"/>
<path d="M148.668 165.983V165.54C148.731 164.398 149.063 163.288 149.637 162.298C150.212 161.308 151.014 160.467 151.978 159.843C152.322 159.556 152.747 159.381 153.195 159.342C153.643 159.303 154.092 159.402 154.482 159.626C154.871 159.849 155.182 160.186 155.372 160.591C155.562 160.996 155.622 161.45 155.544 161.89V162.039L148.668 165.983ZM153.528 159.893C153.07 159.913 152.624 160.05 152.235 160.292C151.414 160.827 150.719 161.531 150.197 162.357C149.674 163.183 149.337 164.111 149.208 165.078L155.023 161.746C155.045 161.422 154.984 161.098 154.844 160.804C154.704 160.51 154.492 160.257 154.225 160.068C154.013 159.949 153.772 159.889 153.528 159.893Z" fill="#455A64"/>
<path d="M160.679 164.716C160.646 164.716 160.612 164.71 160.581 164.697C160.55 164.684 160.521 164.665 160.497 164.641C160.473 164.618 160.454 164.589 160.441 164.558C160.429 164.527 160.422 164.494 160.422 164.46V155.725C160.422 155.658 160.449 155.593 160.497 155.545C160.546 155.497 160.611 155.47 160.679 155.47C160.748 155.47 160.813 155.497 160.861 155.545C160.91 155.593 160.937 155.658 160.937 155.725V164.46C160.937 164.494 160.93 164.527 160.917 164.558C160.904 164.589 160.885 164.618 160.861 164.641C160.837 164.665 160.809 164.684 160.778 164.697C160.747 164.71 160.713 164.716 160.679 164.716Z" fill="#455A64"/>
<path d="M159.92 157.709C159.887 157.717 159.852 157.717 159.819 157.709C159.757 157.682 159.708 157.631 159.683 157.568C159.658 157.505 159.66 157.435 159.687 157.373L160.604 155.264L161.634 156.443C161.658 156.467 161.677 156.495 161.69 156.526C161.703 156.557 161.709 156.59 161.709 156.624C161.709 156.657 161.703 156.691 161.69 156.722C161.677 156.753 161.658 156.781 161.634 156.805C161.58 156.849 161.511 156.871 161.442 156.865C161.373 156.859 161.308 156.826 161.263 156.774L160.78 156.218L160.152 157.578C160.13 157.62 160.096 157.654 160.055 157.677C160.014 157.7 159.967 157.712 159.92 157.709Z" fill="#455A64"/>
<path d="M163.071 163.362C163.038 163.362 163.004 163.356 162.973 163.343C162.942 163.33 162.913 163.311 162.889 163.287C162.865 163.264 162.847 163.236 162.834 163.204C162.821 163.173 162.814 163.14 162.814 163.107V154.372C162.814 154.304 162.841 154.239 162.889 154.191C162.938 154.143 163.003 154.116 163.071 154.116C163.14 154.116 163.205 154.143 163.253 154.191C163.302 154.239 163.329 154.304 163.329 154.372V163.107C163.329 163.174 163.302 163.24 163.253 163.287C163.205 163.335 163.14 163.362 163.071 163.362Z" fill="#455A64"/>
<path d="M162.312 156.356C162.279 156.364 162.245 156.364 162.212 156.356C162.18 156.343 162.152 156.324 162.128 156.3C162.104 156.276 162.085 156.247 162.072 156.216C162.059 156.184 162.052 156.151 162.053 156.117C162.053 156.083 162.06 156.05 162.073 156.019L162.997 153.91L164.02 155.083C164.045 155.106 164.064 155.134 164.078 155.165C164.091 155.196 164.098 155.23 164.098 155.264C164.098 155.298 164.091 155.331 164.078 155.362C164.064 155.393 164.045 155.421 164.02 155.445C163.996 155.468 163.968 155.487 163.936 155.5C163.905 155.513 163.872 155.52 163.838 155.52C163.804 155.52 163.771 155.513 163.739 155.5C163.708 155.487 163.68 155.468 163.656 155.445L163.172 154.889L162.576 156.25C162.546 156.29 162.506 156.321 162.459 156.34C162.413 156.359 162.362 156.364 162.312 156.356Z" fill="#455A64"/>
<path d="M136.297 182.661L92.9395 157.76V127.642L136.297 152.55V182.661Z" fill="#F1463B"/>
<path opacity="0.1" d="M136.297 182.661L92.9395 157.76V127.642L136.297 152.55V182.661Z" fill="black"/>
<path d="M98.4223 145.855L111.169 153.155C111.336 153.265 111.476 153.411 111.576 153.583C111.676 153.756 111.735 153.949 111.747 154.147V162.932C111.747 163.656 111.232 163.956 110.598 163.594L97.876 156.287C97.7078 156.181 97.5676 156.035 97.4672 155.864C97.3667 155.692 97.3088 155.5 97.2984 155.302V146.51C97.2795 145.787 97.7944 145.493 98.4223 145.855Z" fill="#FAFAFA"/>
<path d="M98.1084 147.221L98.5417 147.471V155.226L98.1084 154.977V147.221Z" fill="#455A64"/>
<path d="M99.8672 148.232L100.614 148.669V156.425L99.8672 155.988V148.232Z" fill="#455A64"/>
<path d="M101.631 149.243L102.064 149.493V157.248L101.631 156.998V149.243Z" fill="#455A64"/>
<path d="M102.963 149.991L103.829 150.503V158.259L102.963 157.747V149.991Z" fill="#455A64"/>
<path d="M105.153 151.264L105.587 151.514V159.269L105.153 159.02V151.264Z" fill="#455A64"/>
<path d="M106.422 151.976L107.352 152.525V160.28L106.422 159.731V151.976Z" fill="#455A64"/>
<path d="M108.675 153.286L109.108 153.535V161.291L108.675 161.041V153.286Z" fill="#455A64"/>
<path d="M109.681 153.854L109.899 153.978V161.734L109.681 161.609V153.854Z" fill="#455A64"/>
<path d="M107.871 152.862L108.089 152.987V160.742L107.871 160.617V152.862Z" fill="#455A64"/>
<path d="M104.324 150.796L104.543 150.921V158.677L104.324 158.552V150.796Z" fill="#455A64"/>
<path d="M102.384 149.686L102.596 149.811V157.566L102.384 157.448V149.686Z" fill="#455A64"/>
<path d="M100.984 148.925L101.202 149.049V156.805L100.984 156.68V148.925Z" fill="#455A64"/>
<path d="M99.0938 147.783L99.3059 147.901V155.663L99.0938 155.538V147.783Z" fill="#455A64"/>
<path d="M110.44 154.297L110.873 154.546V162.302L110.44 162.052V154.297Z" fill="#455A64"/>
<path d="M111.145 142.66L114.108 144.364V139.79L111.145 138.087V142.66Z" fill="#37474F"/>
<path d="M114.108 139.791L159.764 113.542L156.8 111.838L111.145 138.087L114.108 139.791Z" fill="#455A64"/>
<path opacity="0.1" d="M93.5688 127.286L128.826 147.452L173.81 121.609L138.596 101.393L93.5688 127.286Z" fill="black"/>
<path d="M170.238 92.627L135.137 72.5302L93.645 96.3706L128.745 116.467L170.238 92.627Z" fill="#F1463B"/>
<path opacity="0.7" d="M170.238 92.627L135.137 72.5302L93.645 96.3706L128.745 116.467L170.238 92.627Z" fill="white"/>
<path d="M128.746 145.393L170.239 121.546V92.627L128.746 116.467V145.393Z" fill="#F1463B"/>
<path opacity="0.6" d="M128.746 145.393L170.239 121.546V92.627L128.746 116.467V145.393Z" fill="white"/>
<path d="M134.403 134.268C134.249 134.269 134.098 134.23 133.963 134.156C133.775 134.018 133.626 133.834 133.53 133.622C133.434 133.41 133.395 133.177 133.417 132.945V129.395V129.133L133.599 129.164L136.4 127.53V131.498C136.394 132.008 136.266 132.509 136.027 132.96C135.788 133.412 135.444 133.8 135.024 134.093C134.835 134.203 134.622 134.263 134.403 134.268ZM133.863 129.657V132.945C133.842 133.098 133.861 133.253 133.919 133.397C133.976 133.54 134.069 133.666 134.189 133.763C134.29 133.808 134.401 133.827 134.512 133.816C134.622 133.805 134.727 133.765 134.817 133.7C135.167 133.445 135.454 133.113 135.654 132.73C135.854 132.347 135.963 131.923 135.973 131.492V131.198H134.937L134.729 129.807L133.863 129.657ZM135.301 130.755H135.929V128.316L134.252 129.289L135.081 129.439L135.301 130.755Z" fill="#455A64"/>
<path d="M134.887 137.101C134.827 137.101 134.769 137.078 134.727 137.035C134.685 136.993 134.661 136.936 134.661 136.877V133.894C134.655 133.862 134.657 133.829 134.666 133.797C134.674 133.766 134.69 133.737 134.711 133.712C134.732 133.687 134.759 133.667 134.789 133.653C134.818 133.639 134.851 133.632 134.884 133.632C134.917 133.632 134.949 133.639 134.979 133.653C135.009 133.667 135.035 133.687 135.056 133.712C135.078 133.737 135.093 133.766 135.102 133.797C135.11 133.829 135.112 133.862 135.107 133.894V136.877C135.107 136.935 135.084 136.991 135.043 137.033C135.002 137.075 134.946 137.1 134.887 137.101Z" fill="#455A64"/>
<path d="M133.58 137.849C133.54 137.851 133.501 137.842 133.466 137.822C133.432 137.802 133.404 137.773 133.386 137.737C133.356 137.686 133.348 137.625 133.363 137.568C133.378 137.51 133.416 137.461 133.467 137.431L136.079 135.934C136.105 135.914 136.135 135.9 136.166 135.892C136.198 135.885 136.231 135.884 136.263 135.891C136.295 135.897 136.325 135.91 136.351 135.929C136.377 135.948 136.399 135.972 136.415 136.001C136.431 136.029 136.441 136.06 136.444 136.092C136.446 136.124 136.442 136.157 136.431 136.187C136.42 136.218 136.403 136.245 136.38 136.268C136.357 136.291 136.329 136.309 136.299 136.321L133.693 137.818C133.658 137.837 133.62 137.848 133.58 137.849Z" fill="#455A64"/>
<path d="M142.879 132.684C142.793 132.685 142.709 132.663 142.634 132.621C142.547 132.561 142.477 132.481 142.43 132.387C142.383 132.293 142.36 132.189 142.364 132.085V131.461C142.364 131.401 142.388 131.344 142.43 131.302C142.473 131.26 142.53 131.236 142.59 131.236C142.65 131.236 142.708 131.26 142.75 131.302C142.793 131.344 142.816 131.401 142.816 131.461V132.085C142.816 132.178 142.816 132.222 142.86 132.234C142.911 132.241 142.963 132.227 143.005 132.197C143.144 132.068 143.254 131.912 143.326 131.737C143.399 131.563 143.433 131.375 143.425 131.186V127.218C143.42 127.186 143.422 127.153 143.43 127.121C143.439 127.09 143.454 127.06 143.476 127.036C143.497 127.011 143.523 126.991 143.553 126.977C143.583 126.963 143.615 126.956 143.648 126.956C143.681 126.956 143.714 126.963 143.743 126.977C143.773 126.991 143.8 127.011 143.821 127.036C143.842 127.06 143.858 127.09 143.866 127.121C143.875 127.153 143.877 127.186 143.871 127.218V131.186C143.884 131.451 143.833 131.714 143.724 131.956C143.615 132.198 143.45 132.411 143.243 132.577C143.133 132.644 143.008 132.68 142.879 132.684Z" fill="#455A64"/>
<path d="M140.513 129.239V128.852C140.567 127.86 140.855 126.894 141.355 126.034C141.855 125.173 142.551 124.441 143.389 123.898C143.684 123.633 144.057 123.469 144.453 123.428C144.849 123.387 145.248 123.471 145.593 123.669C145.937 123.868 146.21 124.169 146.371 124.531C146.532 124.893 146.574 125.296 146.49 125.683V125.807L140.513 129.239ZM144.732 123.942C144.335 123.959 143.95 124.08 143.615 124.291C142.9 124.756 142.295 125.368 141.841 126.086C141.387 126.805 141.095 127.612 140.984 128.453L146.007 125.552C146.026 125.27 145.972 124.988 145.85 124.734C145.728 124.479 145.542 124.26 145.31 124.098C145.134 123.999 144.935 123.947 144.732 123.948V123.942Z" fill="#455A64"/>
<path d="M150.955 128.135C150.925 128.135 150.896 128.129 150.869 128.118C150.841 128.106 150.816 128.09 150.795 128.069C150.774 128.048 150.758 128.023 150.746 127.996C150.735 127.969 150.729 127.94 150.729 127.91V120.311C150.729 120.251 150.753 120.194 150.795 120.152C150.838 120.11 150.895 120.086 150.955 120.086C151.015 120.086 151.072 120.11 151.115 120.152C151.157 120.194 151.181 120.251 151.181 120.311V127.91C151.181 127.97 151.157 128.027 151.115 128.069C151.072 128.111 151.015 128.135 150.955 128.135Z" fill="#455A64"/>
<path d="M150.295 122.076C150.258 122.077 150.221 122.068 150.189 122.05C150.156 122.033 150.128 122.007 150.108 121.976C150.088 121.945 150.076 121.909 150.074 121.872C150.071 121.835 150.078 121.798 150.094 121.765L150.892 119.924L151.784 120.947C151.805 120.968 151.821 120.993 151.833 121.02C151.844 121.047 151.85 121.077 151.85 121.106C151.85 121.136 151.844 121.165 151.833 121.192C151.821 121.22 151.805 121.245 151.784 121.265C151.763 121.286 151.739 121.303 151.712 121.314C151.685 121.325 151.656 121.331 151.627 121.331C151.597 121.331 151.568 121.325 151.541 121.314C151.514 121.303 151.49 121.286 151.47 121.265L151.043 120.779L150.528 121.964C150.505 122.004 150.471 122.036 150.429 122.057C150.388 122.077 150.341 122.084 150.295 122.076Z" fill="#455A64"/>
<path d="M153.033 126.956C153.004 126.956 152.974 126.95 152.947 126.938C152.919 126.927 152.894 126.911 152.873 126.89C152.852 126.869 152.836 126.844 152.824 126.817C152.813 126.79 152.807 126.76 152.807 126.731V119.131C152.807 119.072 152.831 119.015 152.873 118.973C152.916 118.931 152.973 118.907 153.033 118.907C153.093 118.907 153.151 118.931 153.193 118.973C153.235 119.015 153.259 119.072 153.259 119.131V126.731C153.259 126.76 153.253 126.79 153.242 126.817C153.231 126.844 153.214 126.869 153.193 126.89C153.172 126.911 153.147 126.927 153.12 126.938C153.092 126.95 153.063 126.956 153.033 126.956Z" fill="#455A64"/>
<path d="M152.374 120.866H152.286C152.233 120.841 152.191 120.797 152.17 120.742C152.149 120.687 152.15 120.627 152.173 120.573L152.971 118.732L153.862 119.762C153.881 119.784 153.896 119.809 153.905 119.837C153.914 119.865 153.917 119.894 153.915 119.923C153.913 119.952 153.905 119.98 153.891 120.006C153.878 120.032 153.86 120.055 153.837 120.074C153.815 120.092 153.789 120.107 153.761 120.116C153.734 120.125 153.704 120.128 153.675 120.126C153.646 120.123 153.618 120.115 153.592 120.102C153.566 120.089 153.542 120.071 153.523 120.049L153.096 119.562L152.582 120.747C152.562 120.784 152.532 120.815 152.495 120.836C152.458 120.857 152.417 120.867 152.374 120.866Z" fill="#455A64"/>
<path d="M128.746 145.393L93.6455 125.29V96.3705L128.746 116.467V145.393Z" fill="#F1463B"/>
<path opacity="0.4" d="M128.746 145.393L93.6455 125.29V96.3705L128.746 116.467V145.393Z" fill="white"/>
<path d="M98.4233 112.848L111.17 120.148C111.337 120.258 111.477 120.404 111.577 120.576C111.677 120.749 111.736 120.942 111.748 121.14V129.925C111.748 130.649 111.233 130.948 110.599 130.587L97.877 123.28C97.7088 123.173 97.5686 123.028 97.4682 122.857C97.3677 122.685 97.3098 122.493 97.2993 122.295V113.503C97.2805 112.78 97.7954 112.486 98.4233 112.848Z" fill="#FAFAFA"/>
<path d="M98.1104 114.215L98.5436 114.464V122.22L98.1104 121.97V114.215Z" fill="#455A64"/>
<path d="M99.8691 115.225L100.616 115.662V123.418L99.8691 122.981V115.225Z" fill="#455A64"/>
<path d="M101.632 116.236L102.065 116.486V124.241L101.632 123.992V116.236Z" fill="#455A64"/>
<path d="M102.964 116.985L103.83 117.497V125.252L102.964 124.741V116.985Z" fill="#455A64"/>
<path d="M105.154 118.258L105.588 118.508V126.263L105.154 126.014V118.258Z" fill="#455A64"/>
<path d="M106.424 118.969L107.354 119.518V127.274L106.424 126.725V118.969Z" fill="#455A64"/>
<path d="M108.678 120.28L109.111 120.529V128.285L108.678 128.035V120.28Z" fill="#455A64"/>
<path d="M109.683 120.847L109.901 120.972V128.728L109.683 128.603V120.847Z" fill="#455A64"/>
<path d="M107.875 119.855L108.093 119.98V127.735L107.875 127.611V119.855Z" fill="#455A64"/>
<path d="M104.325 117.79L104.544 117.915V125.67L104.325 125.546V117.79Z" fill="#455A64"/>
<path d="M102.385 116.68L102.597 116.804V124.56L102.385 124.441V116.68Z" fill="#455A64"/>
<path d="M100.986 115.918L101.205 116.037V123.799L100.986 123.674V115.918Z" fill="#455A64"/>
<path d="M99.0957 114.777L99.3078 114.895V122.657L99.0957 122.532V114.777Z" fill="#455A64"/>
<path d="M110.442 121.291L110.875 121.534V129.296L110.442 129.046V121.291Z" fill="#455A64"/>
<path d="M108.144 109.71L111.446 111.607V106.516L108.144 104.619V109.71Z" fill="#37474F"/>
<path d="M111.446 106.515L152.945 82.6688L149.636 80.7783L108.144 104.619L111.446 106.515Z" fill="#455A64"/>
<path d="M182.851 169.027C186.801 171.298 193.206 171.298 197.161 169.027C201.117 166.756 201.111 163.087 197.161 160.816C193.212 158.545 186.801 158.551 182.845 160.816C178.889 163.081 178.896 166.762 182.851 169.027Z" fill="#37474F"/>
<path d="M198.536 164.573V147.621H181.457V164.573C181.388 165.877 182.211 167.199 183.969 168.192C187.303 170.107 192.716 170.107 196.056 168.192C197.783 167.199 198.612 165.877 198.536 164.573Z" fill="#EBEBEB"/>
<path d="M183.963 151.083C187.297 152.999 192.71 152.999 196.05 151.083C199.391 149.168 199.384 146.092 196.05 144.151C192.716 142.211 187.297 142.236 183.963 144.151C180.629 146.067 180.622 149.168 183.963 151.083Z" fill="#FAFAFA"/>
<path d="M184.331 150.777C187.471 152.531 192.545 152.531 195.678 150.777C198.811 149.024 198.817 146.167 195.678 144.407C192.538 142.648 187.465 142.654 184.331 144.407C181.198 146.16 181.198 149.043 184.331 150.777Z" fill="#EBEBEB"/>
<path d="M195.679 145.256C192.54 143.503 187.466 143.503 184.333 145.256C182.952 146.03 182.179 147.015 182.016 148.032C182.179 149.043 182.952 150.029 184.333 150.803C187.473 152.556 192.546 152.556 195.679 150.803C197.055 150.029 197.827 149.043 197.99 148.032C197.821 147.034 197.055 146.03 195.679 145.256Z" fill="#F5F5F5"/>
<path d="M181.457 161.709C181.457 162.957 182.279 164.236 183.968 165.197C187.302 167.112 192.715 167.112 196.055 165.197C197.719 164.242 198.567 162.988 198.567 161.734V150.378C198.567 151.626 197.732 152.874 196.055 153.847C192.715 155.763 187.302 155.763 183.968 153.847C182.285 152.886 181.457 151.62 181.457 150.353V161.709Z" fill="#F1463B"/>
<path opacity="0.3" d="M181.457 161.709C181.457 162.957 182.279 164.236 183.968 165.197C187.302 167.112 192.715 167.112 196.055 165.197C197.719 164.242 198.567 162.988 198.567 161.734V150.378C198.567 151.626 197.732 152.874 196.055 153.847C192.715 155.763 187.302 155.763 183.968 153.847C182.285 152.886 181.457 151.62 181.457 150.353V161.709Z" fill="black"/>
<path opacity="0.1" d="M193.507 169.196C190.367 170.001 186.543 169.676 183.963 168.191C182.223 167.199 181.401 165.883 181.451 164.566V147.614C181.451 148.862 182.286 150.11 183.963 151.083C185.043 151.699 186.229 152.112 187.46 152.3V166.65C187.46 168.048 189.551 169.739 193.507 169.196Z" fill="black"/>
<path d="M191.956 150.64L191.046 150.122C190.311 149.698 190.117 149.13 190.606 148.843C190.973 148.717 191.364 148.674 191.75 148.718C192.136 148.762 192.507 148.893 192.835 149.099L193.74 149.617C194.474 150.041 194.675 150.609 194.179 150.896C193.813 151.023 193.423 151.066 193.038 151.021C192.653 150.977 192.283 150.847 191.956 150.64Z" fill="#E0E0E0"/>
<path d="M191.007 149.629C191.158 149.706 191.325 149.746 191.494 149.746C191.663 149.746 191.83 149.706 191.98 149.629C192.25 149.479 192.25 149.23 191.98 149.074C191.83 148.997 191.663 148.957 191.494 148.957C191.325 148.957 191.158 148.997 191.007 149.074C190.737 149.23 190.737 149.479 191.007 149.629Z" fill="#F5F5F5"/>
<path d="M192.798 150.596C192.948 150.673 193.115 150.713 193.284 150.713C193.453 150.713 193.62 150.673 193.771 150.596C193.829 150.575 193.878 150.537 193.913 150.487C193.949 150.436 193.967 150.377 193.967 150.316C193.967 150.254 193.949 150.195 193.913 150.145C193.878 150.094 193.829 150.056 193.771 150.035C193.619 149.961 193.453 149.923 193.284 149.923C193.116 149.923 192.949 149.961 192.798 150.035C192.74 150.056 192.69 150.094 192.655 150.145C192.62 150.195 192.601 150.254 192.601 150.316C192.601 150.377 192.62 150.436 192.655 150.487C192.69 150.537 192.74 150.575 192.798 150.596Z" fill="#F5F5F5"/>
<path d="M170.192 176.296C174.148 178.561 180.552 178.561 184.508 176.296C188.464 174.031 188.458 170.35 184.508 168.085C180.559 165.821 174.148 165.821 170.192 168.085C166.236 170.35 166.23 174.031 170.192 176.296Z" fill="#37474F"/>
<path d="M185.89 171.835V154.883H168.792V171.835C168.723 173.145 169.546 174.462 171.304 175.46C174.638 177.375 180.051 177.375 183.385 175.46C185.118 174.487 185.94 173.145 185.89 171.835Z" fill="#EBEBEB"/>
<path d="M171.296 158.352C174.631 160.261 180.043 160.261 183.377 158.352C186.712 156.443 186.718 153.33 183.377 151.414C180.037 149.499 174.631 149.505 171.296 151.414C167.962 153.323 167.956 156.437 171.296 158.352Z" fill="#FAFAFA"/>
<path d="M171.668 158.065C174.808 159.824 179.881 159.824 183.015 158.065C186.148 156.305 186.154 153.46 183.015 151.701C179.875 149.941 174.802 149.941 171.668 151.701C168.535 153.46 168.535 156.305 171.668 158.065Z" fill="#EBEBEB"/>
<path d="M183.013 152.524C179.873 150.765 174.8 150.765 171.667 152.524C170.285 153.298 169.513 154.284 169.35 155.294C169.513 156.305 170.285 157.291 171.667 158.065C174.806 159.824 179.88 159.824 183.013 158.065C184.388 157.291 185.16 156.305 185.324 155.294C185.16 154.284 184.388 153.273 183.013 152.524Z" fill="#F5F5F5"/>
<path d="M168.791 168.971C168.791 170.219 169.614 171.467 171.303 172.465C174.637 174.381 180.049 174.381 183.384 172.465C185.054 171.504 185.895 170.25 185.895 168.996V157.641C185.895 158.889 185.06 160.136 183.384 161.11C180.049 163.019 174.637 163.019 171.303 161.11C169.62 160.143 168.791 158.876 168.791 157.616V168.971Z" fill="#F1463B"/>
<path opacity="0.3" d="M168.791 168.971C168.791 170.219 169.614 171.467 171.303 172.465C174.637 174.381 180.049 174.381 183.384 172.465C185.054 171.504 185.895 170.25 185.895 168.996V157.641C185.895 158.889 185.06 160.136 183.384 161.11C180.049 163.019 174.637 163.019 171.303 161.11C169.62 160.143 168.791 158.876 168.791 157.616V168.971Z" fill="black"/>
<path opacity="0.1" d="M180.867 176.464C177.727 177.269 173.903 176.945 171.322 175.46C169.583 174.468 168.761 173.145 168.811 171.835V154.883C168.811 156.131 169.646 157.378 171.322 158.352C172.403 158.967 173.589 159.378 174.82 159.562V173.913C174.795 175.316 176.886 176.982 180.867 176.464Z" fill="black"/>
<path d="M179.29 157.909L178.379 157.385C177.645 156.967 177.45 156.393 177.94 156.137C178.306 156.007 178.697 155.962 179.083 156.006C179.47 156.049 179.841 156.179 180.169 156.386L181.073 156.911C181.808 157.329 182.009 157.903 181.513 158.158C181.147 158.285 180.757 158.328 180.373 158.285C179.988 158.242 179.618 158.113 179.29 157.909Z" fill="#E0E0E0"/>
<path d="M178.355 156.898C178.506 156.975 178.673 157.015 178.842 157.015C179.011 157.015 179.178 156.975 179.328 156.898C179.386 156.877 179.436 156.839 179.471 156.789C179.506 156.738 179.525 156.679 179.525 156.618C179.525 156.556 179.506 156.497 179.471 156.447C179.436 156.396 179.386 156.358 179.328 156.337C179.177 156.263 179.011 156.225 178.842 156.225C178.673 156.225 178.507 156.263 178.355 156.337C178.298 156.358 178.248 156.396 178.213 156.447C178.178 156.497 178.159 156.556 178.159 156.618C178.159 156.679 178.178 156.738 178.213 156.789C178.248 156.839 178.298 156.877 178.355 156.898Z" fill="#F5F5F5"/>
<path d="M180.139 157.865C180.29 157.939 180.457 157.978 180.626 157.978C180.794 157.978 180.961 157.939 181.112 157.865C181.17 157.844 181.22 157.806 181.255 157.756C181.29 157.705 181.309 157.646 181.309 157.585C181.309 157.524 181.29 157.464 181.255 157.414C181.22 157.363 181.17 157.325 181.112 157.304C180.962 157.227 180.795 157.187 180.626 157.187C180.456 157.187 180.29 157.227 180.139 157.304C180.081 157.325 180.031 157.363 179.996 157.414C179.961 157.464 179.942 157.524 179.942 157.585C179.942 157.646 179.961 157.705 179.996 157.756C180.031 157.806 180.081 157.844 180.139 157.865Z" fill="#F5F5F5"/>
<path d="M164.673 185.262C170.263 185.262 174.795 182.662 174.795 179.454C174.795 176.246 170.263 173.645 164.673 173.645C159.083 173.645 154.551 176.246 154.551 179.454C154.551 182.662 159.083 185.262 164.673 185.262Z" fill="#37474F"/>
<path d="M173.205 179.104V162.152H156.126V179.104C156.057 180.408 156.879 181.731 158.637 182.729C161.971 184.638 167.384 184.638 170.718 182.729C172.451 181.731 173.274 180.408 173.205 179.104Z" fill="#EBEBEB"/>
<path d="M158.633 165.615C161.968 167.53 167.38 167.53 170.714 165.615C174.049 163.699 174.055 160.623 170.714 158.683C167.374 156.742 161.968 156.767 158.633 158.683C155.299 160.598 155.293 163.699 158.633 165.615Z" fill="#FAFAFA"/>
<path d="M159.004 165.334C162.143 167.093 167.217 167.093 170.35 165.334C173.483 163.574 173.49 160.723 170.35 158.964C167.211 157.204 162.137 157.21 159.004 158.964C155.87 160.717 155.87 163.574 159.004 165.334Z" fill="#EBEBEB"/>
<path d="M170.35 159.787C167.21 158.033 162.137 158.033 159.004 159.787C157.622 160.56 156.85 161.552 156.687 162.563C156.85 163.574 157.622 164.56 159.004 165.333C162.143 167.093 167.217 167.093 170.35 165.333C171.725 164.56 172.497 163.574 172.661 162.563C172.497 161.552 171.725 160.56 170.35 159.787Z" fill="#F5F5F5"/>
<path d="M156.128 176.24C156.128 177.488 156.95 178.767 158.64 179.728C161.974 181.643 167.386 181.643 170.721 179.728C172.391 178.773 173.232 177.519 173.232 176.265V164.91C173.232 166.157 172.397 167.405 170.721 168.379C167.386 170.294 161.974 170.294 158.64 168.379C156.957 167.418 156.128 166.151 156.128 164.885V176.24Z" fill="#F1463B"/>
<path opacity="0.3" d="M156.128 176.24C156.128 177.488 156.95 178.767 158.64 179.728C161.974 181.643 167.386 181.643 170.721 179.728C172.391 178.773 173.232 177.519 173.232 176.265V164.91C173.232 166.157 172.397 167.405 170.721 168.379C167.386 170.294 161.974 170.294 158.64 168.379C156.957 167.418 156.128 166.151 156.128 164.885V176.24Z" fill="black"/>
<path d="M166.627 165.171L165.716 164.653C164.982 164.229 164.787 163.661 165.277 163.374C165.644 163.248 166.035 163.205 166.421 163.249C166.807 163.293 167.178 163.424 167.506 163.63L168.41 164.148C169.145 164.572 169.346 165.14 168.85 165.427C168.484 165.554 168.094 165.597 167.709 165.552C167.324 165.508 166.954 165.378 166.627 165.171Z" fill="#E0E0E0"/>
<path d="M165.676 164.161C165.827 164.237 165.994 164.277 166.163 164.277C166.332 164.277 166.499 164.237 166.649 164.161C166.919 164.011 166.919 163.761 166.649 163.605C166.499 163.529 166.332 163.489 166.163 163.489C165.994 163.489 165.827 163.529 165.676 163.605C165.406 163.761 165.406 164.011 165.676 164.161Z" fill="#F5F5F5"/>
<path d="M167.473 165.128C167.624 165.204 167.79 165.244 167.96 165.244C168.129 165.244 168.296 165.204 168.446 165.128C168.716 164.972 168.716 164.722 168.446 164.572C168.296 164.496 168.129 164.456 167.96 164.456C167.79 164.456 167.624 164.496 167.473 164.572C167.203 164.722 167.203 164.972 167.473 165.128Z" fill="#F5F5F5"/>
<path opacity="0.1" d="M168.175 183.733C165.035 184.538 161.211 184.208 158.637 182.723C156.898 181.731 156.069 180.414 156.125 179.104V162.152C156.125 163.399 156.967 164.647 158.637 165.621C159.715 166.235 160.899 166.646 162.128 166.831V181.182C162.128 182.598 164.219 184.27 168.175 183.733Z" fill="black"/>
<path d="M144.85 190.828C148.806 193.093 155.21 193.093 159.166 190.828C163.122 188.563 163.116 184.882 159.166 182.617C155.217 180.352 148.806 180.352 144.85 182.617C140.894 184.882 140.9 188.563 144.85 190.828Z" fill="#37474F"/>
<path d="M160.542 186.373V169.414H143.463V186.373C143.393 187.677 144.216 188.993 145.974 189.992C149.308 191.907 154.721 191.907 158.055 189.992C159.788 188.993 160.611 187.677 160.542 186.373Z" fill="#EBEBEB"/>
<path d="M152.007 174.318C156.727 174.318 160.553 172.122 160.553 169.414C160.553 166.705 156.727 164.51 152.007 164.51C147.288 164.51 143.461 166.705 143.461 169.414C143.461 172.122 147.288 174.318 152.007 174.318Z" fill="#FAFAFA"/>
<path d="M146.331 172.615C149.471 174.374 154.544 174.374 157.678 172.615C160.811 170.855 160.817 168.01 157.678 166.251C154.538 164.491 149.471 164.504 146.331 166.232C143.192 167.96 143.192 170.843 146.331 172.615Z" fill="#EBEBEB"/>
<path d="M157.683 167.055C154.544 165.296 149.47 165.296 146.337 167.055C144.956 167.829 144.183 168.815 144.02 169.826C144.183 170.836 144.956 171.822 146.337 172.596C149.477 174.355 154.55 174.355 157.683 172.596C159.059 171.822 159.831 170.836 159.994 169.826C159.831 168.815 159.059 167.829 157.683 167.055Z" fill="#F5F5F5"/>
<path d="M143.461 183.502C143.461 184.75 144.284 186.029 145.973 186.996C149.307 188.912 154.72 188.912 158.054 186.996C159.724 186.035 160.566 184.781 160.566 183.527V172.178C160.566 173.426 159.731 174.674 158.054 175.647C154.72 177.556 149.307 177.556 145.973 175.647C144.29 174.68 143.461 173.413 143.461 172.153V183.502Z" fill="#F1463B"/>
<path opacity="0.3" d="M143.461 183.502C143.461 184.75 144.284 186.029 145.973 186.996C149.307 188.912 154.72 188.912 158.054 186.996C159.724 186.035 160.566 184.781 160.566 183.527V172.178C160.566 173.426 159.731 174.674 158.054 175.647C154.72 177.556 149.307 177.556 145.973 175.647C144.29 174.68 143.461 173.413 143.461 172.153V183.502Z" fill="black"/>
<path opacity="0.1" d="M155.507 190.996C152.367 191.801 148.55 191.477 145.969 189.992C144.23 189 143.407 187.677 143.457 186.367V169.414C143.457 170.662 144.292 171.91 145.969 172.883C147.048 173.5 148.235 173.911 149.466 174.094V188.444C149.473 189.848 151.557 191.539 155.507 190.996Z" fill="black"/>
<path d="M153.96 172.441L153.05 171.917C152.315 171.499 152.12 170.925 152.61 170.669C152.977 170.541 153.368 170.496 153.754 170.54C154.14 170.583 154.511 170.712 154.839 170.918L155.743 171.442C156.478 171.86 156.679 172.434 156.183 172.69C155.817 172.817 155.428 172.86 155.043 172.817C154.658 172.773 154.288 172.645 153.96 172.441Z" fill="#E0E0E0"/>
<path d="M153.497 171.542C153.878 171.542 154.188 171.366 154.188 171.149C154.188 170.931 153.878 170.755 153.497 170.755C153.115 170.755 152.806 170.931 152.806 171.149C152.806 171.366 153.115 171.542 153.497 171.542Z" fill="#F5F5F5"/>
<path d="M154.807 172.397C154.959 172.471 155.125 172.509 155.294 172.509C155.463 172.509 155.629 172.471 155.781 172.397C155.838 172.375 155.888 172.337 155.923 172.287C155.958 172.237 155.977 172.177 155.977 172.116C155.977 172.055 155.958 171.995 155.923 171.945C155.888 171.895 155.838 171.856 155.781 171.835C155.63 171.759 155.463 171.719 155.294 171.719C155.125 171.719 154.958 171.759 154.807 171.835C154.75 171.856 154.7 171.895 154.665 171.945C154.63 171.995 154.611 172.055 154.611 172.116C154.611 172.177 154.63 172.237 154.665 172.287C154.7 172.337 154.75 172.375 154.807 172.397Z" fill="#F5F5F5"/>
<path d="M195.404 176.239C199.36 178.51 205.765 178.51 209.72 176.239C213.676 173.968 213.67 170.299 209.72 168.028C205.771 165.757 199.36 165.764 195.404 168.028C191.448 170.293 191.454 173.974 195.404 176.239Z" fill="#37474F"/>
<path d="M211.095 171.784V154.826H194.016V171.784C193.947 173.089 194.77 174.405 196.528 175.403C199.862 177.319 205.275 177.319 208.609 175.403C210.342 174.405 211.165 173.089 211.095 171.784Z" fill="#EBEBEB"/>
<path d="M196.522 158.295C199.856 160.211 205.269 160.211 208.603 158.295C211.937 156.38 211.944 153.273 208.603 151.363C205.263 149.454 199.856 149.448 196.522 151.363C193.188 153.279 193.182 156.392 196.522 158.295Z" fill="#FAFAFA"/>
<path d="M196.886 158.008C200.026 159.768 205.099 159.768 208.232 158.008C211.366 156.249 211.372 153.404 208.232 151.644C205.093 149.885 200.019 149.885 196.886 151.644C193.753 153.404 193.753 156.255 196.886 158.008Z" fill="#EBEBEB"/>
<path d="M208.233 152.468C205.094 150.708 200.02 150.708 196.887 152.468C195.512 153.242 194.739 154.227 194.576 155.238C194.739 156.249 195.512 157.235 196.887 158.008C200.026 159.768 205.1 159.768 208.233 158.008C209.615 157.235 210.387 156.249 210.55 155.238C210.381 154.227 209.615 153.273 208.233 152.468Z" fill="#F5F5F5"/>
<path d="M194.017 168.914C194.017 170.162 194.839 171.447 196.528 172.408C199.862 174.324 205.275 174.324 208.609 172.408C210.28 171.454 211.121 170.2 211.121 168.939V157.59C211.121 158.838 210.286 160.086 208.609 161.059C205.275 162.974 199.862 162.974 196.528 161.059C194.845 160.092 194.017 158.825 194.017 157.565V168.914Z" fill="#F1463B"/>
<path opacity="0.3" d="M194.017 168.914C194.017 170.162 194.839 171.447 196.528 172.408C199.862 174.324 205.275 174.324 208.609 172.408C210.28 171.454 211.121 170.2 211.121 168.939V157.59C211.121 158.838 210.286 160.086 208.609 161.059C205.275 162.974 199.862 162.974 196.528 161.059C194.845 160.092 194.017 158.825 194.017 157.565V168.914Z" fill="black"/>
<path opacity="0.1" d="M206.061 176.408C202.922 177.213 199.098 176.888 196.523 175.403C194.784 174.411 193.961 173.089 194.011 171.778V154.826C194.011 156.074 194.847 157.322 196.523 158.295C197.602 158.914 198.788 159.327 200.021 159.512V173.862C200.021 175.26 202.112 176.982 206.061 176.408Z" fill="black"/>
<path d="M204.515 157.852L203.605 157.334C202.87 156.91 202.676 156.336 203.165 156.055C203.532 155.929 203.923 155.886 204.308 155.929C204.694 155.972 205.065 156.101 205.394 156.305L206.299 156.829C207.033 157.247 207.228 157.821 206.738 158.077C206.375 158.212 205.986 158.263 205.6 158.224C205.215 158.185 204.843 158.058 204.515 157.852Z" fill="#E0E0E0"/>
<path d="M203.561 156.842C203.712 156.918 203.88 156.958 204.05 156.958C204.221 156.958 204.388 156.918 204.54 156.842C204.598 156.822 204.649 156.785 204.685 156.735C204.721 156.685 204.74 156.625 204.74 156.564C204.74 156.503 204.721 156.443 204.685 156.393C204.649 156.343 204.598 156.306 204.54 156.286C204.388 156.21 204.221 156.17 204.05 156.17C203.88 156.17 203.712 156.21 203.561 156.286C203.502 156.306 203.451 156.343 203.416 156.393C203.38 156.443 203.36 156.503 203.36 156.564C203.36 156.625 203.38 156.685 203.416 156.735C203.451 156.785 203.502 156.822 203.561 156.842Z" fill="#F5F5F5"/>
<path d="M205.357 157.808C205.508 157.882 205.675 157.921 205.843 157.921C206.012 157.921 206.178 157.882 206.33 157.808C206.388 157.787 206.437 157.749 206.472 157.699C206.508 157.649 206.526 157.589 206.526 157.528C206.526 157.467 206.508 157.407 206.472 157.357C206.437 157.307 206.388 157.268 206.33 157.247C206.179 157.17 206.013 157.13 205.843 157.13C205.674 157.13 205.507 157.17 205.357 157.247C205.299 157.268 205.249 157.307 205.214 157.357C205.179 157.407 205.16 157.467 205.16 157.528C205.16 157.589 205.179 157.649 205.214 157.699C205.249 157.749 205.299 157.787 205.357 157.808Z" fill="#F5F5F5"/>
<path d="M189.897 185.212C195.487 185.212 200.019 182.611 200.019 179.403C200.019 176.195 195.487 173.594 189.897 173.594C184.307 173.594 179.775 176.195 179.775 179.403C179.775 182.611 184.307 185.212 189.897 185.212Z" fill="#37474F"/>
<path d="M198.45 179.047V162.095H181.352V179.047C181.283 180.358 182.106 181.674 183.864 182.672C187.198 184.588 192.611 184.588 195.945 182.672C197.678 181.674 198.5 180.358 198.45 179.047Z" fill="#EBEBEB"/>
<path d="M183.857 165.558C187.191 167.473 192.603 167.473 195.938 165.558C199.272 163.642 199.278 160.566 195.938 158.626C192.597 156.685 187.191 156.71 183.857 158.626C180.522 160.541 180.516 163.642 183.857 165.558Z" fill="#FAFAFA"/>
<path d="M184.221 165.277C187.36 167.036 192.434 167.036 195.567 165.277C198.7 163.517 198.706 160.666 195.567 158.913C192.427 157.159 187.354 157.153 184.221 158.913C181.087 160.672 181.087 163.517 184.221 165.277Z" fill="#EBEBEB"/>
<path d="M195.568 159.737C192.429 157.977 187.355 157.977 184.222 159.737C182.847 160.51 182.074 161.496 181.911 162.507C182.074 163.518 182.847 164.503 184.222 165.277C187.361 167.037 192.435 167.037 195.568 165.277C196.95 164.503 197.722 163.518 197.885 162.507C197.722 161.496 196.95 160.51 195.568 159.737Z" fill="#F5F5F5"/>
<path d="M181.352 176.183C181.352 177.431 182.174 178.679 183.863 179.678C187.197 181.587 192.61 181.587 195.944 179.678C197.614 178.717 198.456 177.463 198.456 176.208V164.859C198.456 166.107 197.621 167.355 195.944 168.322C192.61 170.237 187.197 170.237 183.863 168.322C182.18 167.361 181.352 166.095 181.352 164.834V176.183Z" fill="#F1463B"/>
<path opacity="0.3" d="M181.352 176.183C181.352 177.431 182.174 178.679 183.863 179.678C187.197 181.587 192.61 181.587 195.944 179.678C197.614 178.717 198.456 177.463 198.456 176.208V164.859C198.456 166.107 197.621 167.355 195.944 168.322C192.61 170.237 187.197 170.237 183.863 168.322C182.18 167.361 181.352 166.095 181.352 164.834V176.183Z" fill="black"/>
<path opacity="0.1" d="M193.426 183.677C190.287 184.482 186.463 184.151 183.888 182.666C182.149 181.674 181.326 180.358 181.377 179.047V162.095C181.377 163.343 182.212 164.591 183.888 165.564C184.969 166.178 186.155 166.589 187.386 166.775V181.125C187.354 182.529 189.445 184.214 193.426 183.677Z" fill="black"/>
<path d="M191.845 165.127L190.941 164.61C190.206 164.185 190.012 163.617 190.501 163.362C190.868 163.235 191.259 163.192 191.645 163.236C192.031 163.281 192.402 163.411 192.73 163.617L193.635 164.135C194.369 164.56 194.564 165.127 194.074 165.414C193.705 165.537 193.313 165.574 192.927 165.525C192.54 165.475 192.171 165.339 191.845 165.127Z" fill="#E0E0E0"/>
<path d="M190.914 164.11C191.066 164.184 191.232 164.222 191.401 164.222C191.57 164.222 191.736 164.184 191.888 164.11C191.945 164.089 191.995 164.051 192.03 164C192.065 163.95 192.084 163.891 192.084 163.829C192.084 163.768 192.065 163.709 192.03 163.658C191.995 163.608 191.945 163.57 191.888 163.549C191.737 163.472 191.57 163.432 191.401 163.432C191.232 163.432 191.065 163.472 190.914 163.549C190.857 163.57 190.807 163.608 190.772 163.658C190.737 163.709 190.718 163.768 190.718 163.829C190.718 163.891 190.737 163.95 190.772 164C190.807 164.051 190.857 164.089 190.914 164.11Z" fill="#F5F5F5"/>
<path d="M192.7 165.071C192.85 165.147 193.017 165.187 193.186 165.187C193.356 165.187 193.522 165.147 193.673 165.071C193.731 165.051 193.782 165.014 193.818 164.964C193.854 164.914 193.873 164.854 193.873 164.793C193.873 164.732 193.854 164.672 193.818 164.622C193.782 164.572 193.731 164.535 193.673 164.515C193.522 164.439 193.356 164.399 193.186 164.399C193.017 164.399 192.85 164.439 192.7 164.515C192.641 164.535 192.591 164.572 192.555 164.622C192.519 164.672 192.5 164.732 192.5 164.793C192.5 164.854 192.519 164.914 192.555 164.964C192.591 165.014 192.641 165.051 192.7 165.071Z" fill="#F5F5F5"/>
<path d="M170.075 190.771C174.031 193.042 180.436 193.042 184.392 190.771C188.348 188.5 188.341 184.831 184.392 182.56C180.442 180.289 174.031 180.295 170.075 182.56C166.12 184.825 166.126 188.506 170.075 190.771Z" fill="#37474F"/>
<path d="M185.766 186.341V169.358H168.687V186.341C168.618 187.645 169.44 188.962 171.198 189.96C174.532 191.875 179.945 191.875 183.279 189.96C185.012 188.937 185.835 187.62 185.766 186.341Z" fill="#EBEBEB"/>
<path d="M171.19 172.827C174.524 174.742 179.937 174.742 183.271 172.827C186.605 170.911 186.612 167.835 183.271 165.895C179.931 163.954 174.524 163.979 171.19 165.895C167.856 167.81 167.85 170.911 171.19 172.827Z" fill="#FAFAFA"/>
<path d="M171.557 172.546C174.697 174.299 179.771 174.299 182.904 172.546C186.037 170.793 186.043 167.935 182.904 166.175C179.764 164.416 174.691 164.416 171.557 166.175C168.424 167.935 168.424 170.786 171.557 172.546Z" fill="#EBEBEB"/>
<path d="M182.903 167C179.763 165.24 174.69 165.24 171.556 167C170.181 167.773 169.409 168.759 169.246 169.77C169.409 170.781 170.181 171.766 171.556 172.54C174.696 174.3 179.769 174.3 182.903 172.54C184.284 171.766 185.056 170.781 185.22 169.77C185.056 168.759 184.284 167.773 182.903 167Z" fill="#F5F5F5"/>
<path d="M168.686 183.446C168.686 184.693 169.509 185.979 171.198 186.94C174.532 188.855 179.944 188.855 183.279 186.94C184.949 185.985 185.79 184.731 185.79 183.477V172.121C185.79 173.369 184.955 174.617 183.279 175.59C179.944 177.506 174.532 177.506 171.198 175.59C169.515 174.623 168.686 173.363 168.686 172.096V183.446Z" fill="#F1463B"/>
<path opacity="0.3" d="M168.686 183.446C168.686 184.693 169.509 185.979 171.198 186.94C174.532 188.855 179.944 188.855 183.279 186.94C184.949 185.985 185.79 184.731 185.79 183.477V172.121C185.79 173.369 184.955 174.617 183.279 175.59C179.944 177.506 174.532 177.506 171.198 175.59C169.515 174.623 168.686 173.363 168.686 172.096V183.446Z" fill="black"/>
<path d="M179.179 172.383L178.274 171.866C177.54 171.441 177.345 170.867 177.835 170.586C178.202 170.46 178.592 170.417 178.978 170.46C179.364 170.503 179.735 170.632 180.064 170.836L180.968 171.36C181.703 171.778 181.897 172.352 181.408 172.608C181.043 172.741 180.653 172.79 180.267 172.751C179.881 172.712 179.509 172.587 179.179 172.383Z" fill="#E0E0E0"/>
<path d="M178.232 171.367C178.383 171.443 178.549 171.483 178.719 171.483C178.888 171.483 179.055 171.443 179.205 171.367C179.475 171.211 179.475 170.961 179.205 170.811C179.055 170.735 178.888 170.695 178.719 170.695C178.549 170.695 178.383 170.735 178.232 170.811C178.174 170.831 178.123 170.868 178.087 170.918C178.051 170.968 178.032 171.028 178.032 171.089C178.032 171.15 178.051 171.21 178.087 171.26C178.123 171.31 178.174 171.347 178.232 171.367Z" fill="#F5F5F5"/>
<path d="M180.035 172.34C180.186 172.417 180.352 172.457 180.522 172.457C180.691 172.457 180.858 172.417 181.008 172.34C181.066 172.319 181.116 172.28 181.151 172.23C181.186 172.18 181.205 172.12 181.205 172.059C181.205 171.998 181.186 171.938 181.151 171.888C181.116 171.838 181.066 171.8 181.008 171.778C180.857 171.705 180.69 171.666 180.522 171.666C180.353 171.666 180.186 171.705 180.035 171.778C179.977 171.8 179.927 171.838 179.892 171.888C179.857 171.938 179.838 171.998 179.838 172.059C179.838 172.12 179.857 172.18 179.892 172.23C179.927 172.28 179.977 172.319 180.035 172.34Z" fill="#F5F5F5"/>
<path opacity="0.1" d="M180.73 190.939C177.59 191.744 173.773 191.42 171.192 189.935C169.453 188.943 168.63 187.626 168.68 186.316V169.364C168.68 170.612 169.516 171.86 171.192 172.833C172.274 173.444 173.459 173.854 174.69 174.043V188.394C174.69 189.798 176.78 191.482 180.73 190.939Z" fill="black"/>
<path d="M157.409 198.04C161.365 200.305 167.77 200.305 171.726 198.04C175.682 195.775 175.675 192.094 171.726 189.829C167.776 187.564 161.365 187.558 157.409 189.829C153.454 192.1 153.46 195.769 157.409 198.04Z" fill="#37474F"/>
<path d="M173.102 193.579V176.627H156.023V193.579C155.953 194.889 156.776 196.206 158.534 197.204C161.868 199.119 167.281 199.119 170.615 197.204C172.348 196.206 173.171 194.889 173.102 193.579Z" fill="#EBEBEB"/>
<path d="M158.527 180.102C161.861 182.018 167.274 182.018 170.608 180.102C173.942 178.187 173.948 175.111 170.608 173.17C167.267 171.23 161.861 171.255 158.527 173.17C155.193 175.086 155.186 178.18 158.527 180.102Z" fill="#FAFAFA"/>
<path d="M158.891 179.808C162.031 181.568 167.104 181.568 170.238 179.808C173.371 178.049 173.377 175.197 170.238 173.444C167.098 171.691 162.025 171.685 158.891 173.444C155.758 175.204 155.752 178.049 158.891 179.808Z" fill="#EBEBEB"/>
<path d="M170.239 174.268C167.099 172.508 162.026 172.508 158.892 174.268C157.517 175.042 156.745 176.027 156.582 177.038C156.745 178.049 157.517 179.035 158.892 179.808C162.032 181.568 167.105 181.568 170.239 179.808C171.62 179.035 172.392 178.049 172.556 177.038C172.392 176.027 171.62 175.042 170.239 174.268Z" fill="#F5F5F5"/>
<path d="M156.022 190.708C156.022 191.956 156.845 193.235 158.534 194.202C161.868 196.112 167.28 196.112 170.615 194.202C172.285 193.241 173.126 191.987 173.126 190.733V179.39C173.126 180.638 172.291 181.886 170.615 182.853C167.28 184.769 161.868 184.769 158.534 182.853C156.851 181.892 156.022 180.626 156.022 179.365V190.708Z" fill="#F1463B"/>
<path opacity="0.3" d="M156.022 190.708C156.022 191.956 156.845 193.235 158.534 194.202C161.868 196.112 167.28 196.112 170.615 194.202C172.285 193.241 173.126 191.987 173.126 190.733V179.39C173.126 180.638 172.291 181.886 170.615 182.853C167.28 184.769 161.868 184.769 158.534 182.853C156.851 181.892 156.022 180.626 156.022 179.365V190.708Z" fill="black"/>
<path opacity="0.1" d="M168.064 198.196C164.924 199.001 161.1 198.67 158.526 197.185C156.787 196.193 155.964 194.877 156.014 193.566V176.627C156.014 177.874 156.849 179.122 158.526 180.096C159.607 180.71 160.793 181.12 162.023 181.306V195.656C162.03 197.06 164.114 198.745 168.064 198.196Z" fill="black"/>
<path d="M166.515 179.646L165.611 179.128C164.877 178.704 164.682 178.136 165.172 177.881C165.536 177.749 165.927 177.703 166.313 177.746C166.698 177.789 167.069 177.921 167.395 178.13L168.305 178.648C169.04 179.072 169.234 179.646 168.745 179.927C168.376 180.05 167.984 180.089 167.598 180.04C167.212 179.992 166.842 179.857 166.515 179.646Z" fill="#E0E0E0"/>
<path d="M166.057 178.754C166.439 178.754 166.748 178.578 166.748 178.361C166.748 178.143 166.439 177.967 166.057 177.967C165.676 177.967 165.367 178.143 165.367 178.361C165.367 178.578 165.676 178.754 166.057 178.754Z" fill="#F5F5F5"/>
<path d="M167.369 179.603C167.52 179.679 167.686 179.719 167.856 179.719C168.025 179.719 168.192 179.679 168.342 179.603C168.401 179.583 168.451 179.545 168.487 179.496C168.523 179.446 168.542 179.386 168.542 179.325C168.542 179.264 168.523 179.204 168.487 179.154C168.451 179.104 168.401 179.067 168.342 179.047C168.192 178.971 168.025 178.931 167.856 178.931C167.686 178.931 167.52 178.971 167.369 179.047C167.099 179.203 167.099 179.478 167.369 179.603Z" fill="#F5F5F5"/>
<path d="M1.42822 190.934L44.4967 166.227L98.6478 197.292L55.5793 222L1.42822 190.934Z" fill="black"/>
<path d="M44.4969 166.227V123.975L0.555664 149.188L37.3199 170.345L44.4969 166.227Z" fill="#37474F"/>
<path d="M44.498 123.974V166.227L62.7577 176.703L99.522 155.539L44.498 123.974Z" fill="#263238"/>
<path d="M0.555664 149.187V190.435L55.5796 222V180.82L0.555664 149.187Z" fill="#263238"/>
<path d="M55.5796 180.82V222L99.5209 196.793V155.538L55.5796 180.82Z" fill="#37474F"/>
<path d="M55.5796 180.82L56.4461 220.428L88.3566 203.195L55.5796 222V180.82Z" fill="#455A64"/>
<path d="M60.8284 208.754C60.6718 208.755 60.5177 208.714 60.3826 208.635C60.1858 208.496 60.0299 208.306 59.9306 208.087C59.8314 207.868 59.7923 207.627 59.8175 207.388V203.75V203.482L60.0059 203.513L62.8817 201.835V205.909C62.8753 206.432 62.7438 206.947 62.4982 207.41C62.2526 207.873 61.8998 208.272 61.4689 208.573C61.2751 208.688 61.0542 208.75 60.8284 208.754ZM60.2821 204.018V207.4C60.2618 207.555 60.281 207.713 60.3381 207.859C60.3951 208.005 60.4881 208.135 60.6087 208.236C60.7101 208.281 60.8216 208.298 60.9319 208.286C61.0422 208.274 61.1473 208.233 61.2366 208.167C61.5958 207.906 61.8897 207.565 62.0955 207.172C62.3012 206.78 62.4134 206.345 62.4233 205.903V205.603H61.3559L61.1487 204.174L60.2821 204.018ZM61.7577 205.148H62.4233V202.652L60.7028 203.656L61.5631 203.812L61.7577 205.148Z" fill="#E0E0E0"/>
<path d="M61.3505 211.662C61.2889 211.662 61.2298 211.637 61.1862 211.594C61.1426 211.551 61.1182 211.492 61.1182 211.431V208.367C61.1198 208.306 61.1447 208.249 61.188 208.206C61.2312 208.163 61.2894 208.138 61.3505 208.136C61.4121 208.136 61.4712 208.161 61.5148 208.204C61.5583 208.247 61.5828 208.306 61.5828 208.367V211.431C61.5837 211.461 61.5783 211.492 61.5669 211.52C61.5555 211.548 61.5385 211.574 61.5167 211.596C61.495 211.617 61.469 211.634 61.4404 211.646C61.4118 211.657 61.3812 211.662 61.3505 211.662Z" fill="#E0E0E0"/>
<path d="M60.0122 212.429C59.9717 212.43 59.9316 212.42 59.8963 212.4C59.8609 212.38 59.8316 212.352 59.8113 212.317C59.7813 212.264 59.773 212.202 59.7882 212.144C59.8035 212.086 59.841 212.036 59.8929 212.005L62.5741 210.464C62.6284 210.434 62.6923 210.426 62.752 210.443C62.8118 210.459 62.8628 210.498 62.8943 210.551C62.9238 210.604 62.9311 210.666 62.9147 210.725C62.8983 210.783 62.8594 210.833 62.8064 210.863L60.1252 212.398C60.0917 212.419 60.0522 212.43 60.0122 212.429Z" fill="#E0E0E0"/>
<path d="M69.5633 207.151C69.4755 207.152 69.3888 207.131 69.3121 207.088C69.2224 207.028 69.1498 206.946 69.1013 206.85C69.0529 206.754 69.0304 206.647 69.0359 206.539V205.915C69.0303 205.882 69.0321 205.848 69.0411 205.816C69.0501 205.784 69.066 205.754 69.0878 205.728C69.1096 205.703 69.1368 205.682 69.1674 205.668C69.198 205.654 69.2313 205.647 69.265 205.647C69.2988 205.647 69.3321 205.654 69.3627 205.668C69.3933 205.682 69.4205 205.703 69.4423 205.728C69.4641 205.754 69.48 205.784 69.489 205.816C69.498 205.848 69.4998 205.882 69.4942 205.915V206.539C69.4911 206.566 69.4933 206.593 69.5009 206.618C69.5084 206.644 69.5211 206.668 69.5382 206.689C69.5382 206.689 69.6135 206.689 69.6889 206.651C69.8324 206.52 69.9455 206.36 70.0203 206.181C70.0951 206.002 70.1299 205.809 70.1222 205.616V201.541C70.1166 201.508 70.1184 201.475 70.1274 201.442C70.1364 201.41 70.1523 201.38 70.1741 201.354C70.1959 201.329 70.2231 201.308 70.2537 201.294C70.2843 201.28 70.3176 201.273 70.3513 201.273C70.3851 201.273 70.4184 201.28 70.449 201.294C70.4796 201.308 70.5068 201.329 70.5286 201.354C70.5504 201.38 70.5663 201.41 70.5753 201.442C70.5843 201.475 70.5861 201.508 70.5805 201.541V205.616C70.5944 205.886 70.5448 206.156 70.4359 206.404C70.3269 206.652 70.1615 206.871 69.9526 207.045C69.8364 207.118 69.7008 207.155 69.5633 207.151Z" fill="#E0E0E0"/>
<path d="M67.1333 203.588V203.189C67.1894 202.171 67.4858 201.18 67.9985 200.296C68.5111 199.413 69.2257 198.662 70.0845 198.104C70.3916 197.845 70.7715 197.687 71.1724 197.652C71.5733 197.616 71.9754 197.704 72.3239 197.904C72.6724 198.104 72.9501 198.407 73.1191 198.769C73.2881 199.132 73.3401 199.538 73.268 199.932V200.069L67.1333 203.588ZM71.4659 198.154C71.0582 198.17 70.662 198.293 70.3168 198.509C69.5841 198.987 68.9636 199.616 68.4977 200.354C68.0317 201.091 67.7313 201.92 67.6168 202.783L72.8033 199.807C72.8229 199.518 72.7681 199.229 72.6439 198.967C72.5198 198.705 72.3304 198.479 72.0938 198.31C71.9018 198.204 71.6853 198.15 71.4659 198.154Z" fill="#E0E0E0"/>
<path d="M77.8513 202.459C77.7907 202.457 77.7332 202.432 77.691 202.389C77.6488 202.346 77.6252 202.288 77.6252 202.228V194.454C77.6197 194.42 77.6215 194.387 77.6304 194.354C77.6394 194.322 77.6554 194.292 77.6772 194.266C77.699 194.241 77.7261 194.22 77.7567 194.206C77.7873 194.192 77.8207 194.185 77.8544 194.185C77.8881 194.185 77.9215 194.192 77.9521 194.206C77.9827 194.22 78.0098 194.241 78.0316 194.266C78.0534 194.292 78.0694 194.322 78.0784 194.354C78.0873 194.387 78.0891 194.42 78.0836 194.454V202.259C78.0759 202.315 78.0481 202.366 78.0054 202.402C77.9626 202.439 77.9078 202.459 77.8513 202.459Z" fill="#E0E0E0"/>
<path d="M77.1806 196.201C77.1495 196.206 77.1175 196.206 77.0864 196.201C77.0312 196.176 76.9878 196.131 76.9655 196.075C76.9432 196.019 76.9438 195.957 76.9671 195.901L77.7897 194.029L78.7064 195.077C78.7494 195.121 78.7735 195.179 78.7735 195.24C78.7735 195.3 78.7494 195.359 78.7064 195.402C78.6622 195.443 78.6038 195.466 78.5432 195.466C78.4825 195.466 78.4242 195.443 78.3799 195.402L77.9467 194.903L77.4192 196.119C77.3915 196.154 77.3543 196.181 77.312 196.195C77.2696 196.209 77.224 196.211 77.1806 196.201Z" fill="#E0E0E0"/>
<path d="M79.9875 201.248C79.927 201.246 79.8695 201.221 79.8273 201.178C79.785 201.135 79.7614 201.077 79.7614 201.017V193.206C79.7559 193.173 79.7577 193.139 79.7667 193.106C79.7756 193.074 79.7916 193.044 79.8134 193.019C79.8352 192.993 79.8624 192.972 79.893 192.958C79.9236 192.944 79.9569 192.937 79.9906 192.937C80.0244 192.937 80.0577 192.944 80.0883 192.958C80.1189 192.972 80.1461 192.993 80.1679 193.019C80.1897 193.044 80.2056 193.074 80.2146 193.106C80.2236 193.139 80.2254 193.173 80.2198 193.206V201.011C80.2207 201.042 80.2153 201.073 80.204 201.101C80.1927 201.13 80.1757 201.156 80.154 201.178C80.1324 201.2 80.1065 201.218 80.0779 201.23C80.0493 201.242 80.0185 201.248 79.9875 201.248Z" fill="#E0E0E0"/>
<path d="M79.3154 194.99C79.2843 194.996 79.2523 194.996 79.2212 194.99C79.166 194.965 79.1226 194.92 79.1003 194.864C79.078 194.808 79.0786 194.746 79.1019 194.691L79.9245 192.819L80.8412 193.83C80.8755 193.876 80.8907 193.935 80.8839 193.992C80.877 194.05 80.8486 194.103 80.8043 194.14C80.76 194.178 80.703 194.198 80.6447 194.196C80.5864 194.194 80.531 194.17 80.4896 194.129L80.0563 193.63L79.5289 194.847C79.5115 194.889 79.482 194.925 79.444 194.95C79.406 194.976 79.3613 194.99 79.3154 194.99Z" fill="#E0E0E0"/>
<path d="M9.96844 178.469L21.9616 185.332C22.1201 185.434 22.2522 185.573 22.3471 185.735C22.442 185.898 22.4971 186.08 22.5078 186.268V194.547C22.5078 195.234 22.0181 195.508 21.4278 195.171L9.44727 188.302C9.29035 188.2 9.15975 188.062 9.06596 187.901C8.97218 187.739 8.91782 187.558 8.90726 187.372V179.086C8.88843 178.406 9.3782 178.126 9.96844 178.469Z" fill="#FAFAFA"/>
<path d="M9.67236 179.754L10.0805 179.991V187.303L9.67236 187.073V179.754Z" fill="#455A64"/>
<path d="M11.3306 180.708L12.0338 181.12V188.432L11.3306 188.021V180.708Z" fill="#455A64"/>
<path d="M12.9941 181.663L13.4023 181.894V189.206L12.9941 188.975V181.663Z" fill="#455A64"/>
<path d="M14.2432 182.368L15.0657 182.848L15.0594 190.161L14.2432 189.68V182.368Z" fill="#455A64"/>
<path d="M16.3159 183.566L16.7241 183.803V191.115L16.3159 190.878V183.566Z" fill="#455A64"/>
<path d="M17.5103 184.24L18.3893 184.751V192.07L17.5103 191.552V184.24Z" fill="#455A64"/>
<path d="M19.6387 185.475L20.0468 185.706V193.018L19.6387 192.788V185.475Z" fill="#455A64"/>
<path d="M20.5869 186.005L20.7928 186.124V193.436L20.5869 193.324V186.005Z" fill="#455A64"/>
<path d="M18.8784 185.076L19.0843 185.188V192.507L18.8784 192.388V185.076Z" fill="#455A64"/>
<path d="M15.5381 183.128L15.7377 183.241V190.553L15.5381 190.441V183.128Z" fill="#455A64"/>
<path d="M13.7041 182.081L13.9038 182.2V189.512L13.7041 189.394V182.081Z" fill="#455A64"/>
<path d="M12.3862 181.357L12.5921 181.476V188.788L12.3862 188.669V181.357Z" fill="#455A64"/>
<path d="M10.6016 180.284L10.8012 180.403V187.715L10.6016 187.597V180.284Z" fill="#455A64"/>
<path d="M21.3013 186.424L21.7094 186.661V193.973L21.3013 193.736V186.424Z" fill="#455A64"/>
<path d="M44.4969 123.974L0.555664 149.187L55.5796 180.82L99.5209 155.539L44.4969 123.974Z" fill="#455A64"/>
<path opacity="0.1" d="M0.555664 149.187L55.5796 179.254L99.5209 155.539L55.5796 180.82L0.555664 149.187Z" fill="white"/>
<path d="M18.79 138.724L73.8453 170.307L80.6142 166.42L25.5589 134.837L18.79 138.724Z" fill="#F1463B"/>
<path d="M80.6146 166.414V174.962L79.7983 174.5L78.9443 175.96L78.0967 175.461L77.2427 176.939L76.395 176.44L75.5411 177.894L74.6934 177.414L73.8457 178.874V170.307L80.6146 166.414Z" fill="#F1463B"/>
<path opacity="0.25" d="M80.6146 166.414V174.962L79.7983 174.5L78.9443 175.96L78.0967 175.461L77.2427 176.939L76.395 176.44L75.5411 177.894L74.6934 177.414L73.8457 178.874V170.307L80.6146 166.414Z" fill="black"/>
<path opacity="0.1" d="M42.3693 126.713L4.04785 148.694L52.2652 176.452L90.5867 154.396L42.3693 126.713Z" fill="black"/>
<path d="M11.3359 149.775L43.3657 131.35L84.0858 154.722L52.056 173.097L11.3359 149.775Z" fill="black"/>
<path d="M43.3668 127.437V91.1246L10.5835 109.93L42.3244 128.161L43.3668 127.437Z" fill="#37474F"/>
<path d="M43.3657 91.1248V127.438L53.1988 133.09L84.833 114.884L43.3657 91.1248Z" fill="#263238"/>
<path d="M10.5835 109.93V149.343L52.0571 173.096V133.745L10.5835 109.93Z" fill="#263238"/>
<path d="M52.0571 133.745V173.097L84.8341 154.291V114.884L52.0571 133.745Z" fill="#37474F"/>
<path d="M52.0571 133.745L52.8043 171.743L80.2629 156.912L52.0571 173.097V133.745Z" fill="#455A64"/>
<path d="M56.5788 161.697C56.4424 161.699 56.308 161.664 56.1895 161.597C56.022 161.477 55.8891 161.315 55.8043 161.128C55.7194 160.941 55.6855 160.735 55.706 160.53V157.411V157.18H55.863L58.3746 155.738V159.245C58.3694 159.695 58.2562 160.138 58.0443 160.536C57.8325 160.935 57.5281 161.277 57.1565 161.535C56.9821 161.64 56.7825 161.696 56.5788 161.697ZM56.1016 157.641V160.549C56.0848 160.684 56.1024 160.821 56.1529 160.948C56.2034 161.074 56.285 161.186 56.3904 161.273C56.4768 161.309 56.5712 161.323 56.6646 161.313C56.758 161.304 56.8473 161.27 56.9241 161.217C57.2337 160.991 57.4869 160.697 57.6643 160.358C57.8418 160.02 57.9387 159.645 57.9476 159.264V159.008H57.0309L56.8488 157.76L56.1016 157.641ZM57.3574 158.609H57.9351V156.443L56.4532 157.305L57.1879 157.436L57.3574 158.609Z" fill="#E0E0E0"/>
<path d="M57.0232 164.2C56.9971 164.2 56.9711 164.196 56.9468 164.187C56.9224 164.177 56.9002 164.163 56.8815 164.145C56.8627 164.127 56.8478 164.106 56.8377 164.082C56.8275 164.058 56.8223 164.032 56.8223 164.006V161.386C56.8223 161.333 56.8434 161.282 56.8811 161.244C56.9188 161.207 56.9699 161.186 57.0232 161.186C57.0765 161.186 57.1276 161.207 57.1653 161.244C57.203 161.282 57.2241 161.333 57.2241 161.386V164.025C57.218 164.073 57.1941 164.118 57.1571 164.15C57.1201 164.182 57.0724 164.2 57.0232 164.2Z" fill="#E0E0E0"/>
<path d="M55.8674 164.861C55.8326 164.862 55.7984 164.853 55.7685 164.835C55.7385 164.817 55.7141 164.792 55.6979 164.761C55.6844 164.739 55.6754 164.715 55.6716 164.689C55.6677 164.664 55.6691 164.638 55.6755 164.613C55.6819 164.588 55.6933 164.564 55.7091 164.544C55.7248 164.523 55.7444 164.506 55.7669 164.493L58.0777 163.17C58.1224 163.154 58.1714 163.154 58.216 163.171C58.2607 163.187 58.298 163.219 58.3213 163.26C58.3447 163.301 58.3526 163.349 58.3436 163.396C58.3347 163.442 58.3094 163.484 58.2723 163.513L55.9679 164.836C55.9375 164.854 55.9026 164.863 55.8674 164.861Z" fill="#E0E0E0"/>
<path d="M64.0754 160.319C64.0004 160.319 63.9267 160.3 63.8619 160.262C63.7823 160.213 63.718 160.142 63.6759 160.058C63.6339 159.975 63.6156 159.881 63.6233 159.788V159.252C63.6181 159.223 63.6193 159.193 63.6269 159.165C63.6344 159.137 63.6481 159.111 63.667 159.088C63.6858 159.066 63.7094 159.048 63.736 159.036C63.7626 159.023 63.7917 159.017 63.8211 159.017C63.8504 159.017 63.8795 159.023 63.9061 159.036C63.9327 159.048 63.9563 159.066 63.9751 159.088C63.994 159.111 64.0077 159.137 64.0152 159.165C64.0228 159.193 64.024 159.223 64.0188 159.252V159.788C64.0146 159.837 64.0279 159.886 64.0565 159.925C64.1035 159.929 64.1502 159.915 64.1884 159.888C64.3116 159.775 64.4086 159.637 64.4726 159.482C64.5365 159.328 64.566 159.162 64.5588 158.996V155.489C64.5537 155.461 64.5549 155.431 64.5625 155.403C64.57 155.375 64.5837 155.348 64.6026 155.326C64.6214 155.304 64.645 155.286 64.6716 155.273C64.6982 155.261 64.7273 155.254 64.7566 155.254C64.786 155.254 64.815 155.261 64.8417 155.273C64.8683 155.286 64.8919 155.304 64.9107 155.326C64.9296 155.348 64.9433 155.375 64.9508 155.403C64.9584 155.431 64.9596 155.461 64.9544 155.489V158.996C64.9643 159.233 64.9183 159.469 64.8202 159.686C64.7221 159.903 64.5746 160.094 64.3893 160.244C64.2923 160.293 64.1845 160.319 64.0754 160.319Z" fill="#E0E0E0"/>
<path d="M61.9966 157.255V156.912C62.0482 156.037 62.305 155.187 62.7466 154.428C63.1882 153.67 63.8022 153.025 64.5396 152.544C64.8043 152.324 65.1307 152.19 65.4746 152.161C65.8185 152.131 66.1633 152.207 66.4622 152.379C66.761 152.55 66.9996 152.809 67.1454 153.12C67.2912 153.431 67.3373 153.779 67.2773 154.117V154.229L61.9966 157.255ZM65.7264 152.576C65.3744 152.589 65.0322 152.695 64.7343 152.881C64.1041 153.294 63.5704 153.836 63.1696 154.471C62.7687 155.106 62.51 155.819 62.411 156.563L66.8755 153.998C66.891 153.748 66.8414 153.499 66.7314 153.274C66.6214 153.048 66.4547 152.855 66.2475 152.713C66.0892 152.622 65.9093 152.575 65.7264 152.576Z" fill="#E0E0E0"/>
<path d="M71.2205 156.282C71.1683 156.28 71.1188 156.258 71.0825 156.221C71.0462 156.184 71.0259 156.134 71.0259 156.082V149.362C71.0342 149.316 71.0585 149.274 71.0947 149.244C71.1309 149.214 71.1765 149.198 71.2237 149.198C71.2708 149.198 71.3165 149.214 71.3526 149.244C71.3888 149.274 71.4132 149.316 71.4215 149.362V156.082C71.4215 156.135 71.4003 156.186 71.3626 156.223C71.3249 156.261 71.2738 156.282 71.2205 156.282Z" fill="#E0E0E0"/>
<path d="M70.6424 150.897H70.567C70.5423 150.889 70.5198 150.875 70.5008 150.857C70.4818 150.839 70.4668 150.817 70.4567 150.793C70.4467 150.769 70.4418 150.743 70.4424 150.717C70.443 150.691 70.4491 150.665 70.4603 150.642L71.1698 149.013L71.9547 149.924C71.973 149.942 71.9874 149.963 71.9973 149.987C72.0072 150.011 72.0122 150.036 72.0122 150.061C72.0122 150.087 72.0072 150.112 71.9973 150.136C71.9874 150.159 71.973 150.181 71.9547 150.199C71.9164 150.234 71.8659 150.254 71.8134 150.254C71.761 150.254 71.7105 150.234 71.6722 150.199L71.3017 149.768L70.8433 150.816C70.8217 150.848 70.7911 150.873 70.7553 150.887C70.7195 150.902 70.6802 150.905 70.6424 150.897Z" fill="#E0E0E0"/>
<path d="M73.061 155.24C73.0349 155.24 73.009 155.235 72.985 155.225C72.961 155.214 72.9392 155.2 72.9211 155.181C72.9029 155.162 72.8887 155.14 72.8793 155.116C72.8699 155.092 72.8655 155.066 72.8663 155.04V148.32C72.8746 148.274 72.899 148.233 72.9351 148.203C72.9713 148.172 73.017 148.156 73.0641 148.156C73.1113 148.156 73.1569 148.172 73.1931 148.203C73.2292 148.233 73.2536 148.274 73.2619 148.32V155.04C73.2619 155.093 73.2407 155.144 73.203 155.181C73.1654 155.219 73.1143 155.24 73.061 155.24Z" fill="#E0E0E0"/>
<path d="M72.4825 149.855C72.4557 149.862 72.4277 149.862 72.4009 149.855C72.3773 149.845 72.356 149.831 72.3382 149.812C72.3203 149.794 72.3064 149.772 72.297 149.748C72.2877 149.725 72.2832 149.699 72.2837 149.674C72.2843 149.648 72.29 149.623 72.3004 149.6L73.0037 147.977L73.7948 148.882C73.813 148.9 73.8275 148.921 73.8374 148.945C73.8472 148.969 73.8523 148.994 73.8523 149.019C73.8523 149.045 73.8472 149.07 73.8374 149.094C73.8275 149.117 73.813 149.139 73.7948 149.157C73.7565 149.192 73.706 149.212 73.6535 149.212C73.6011 149.212 73.5506 149.192 73.5123 149.157L73.1355 148.726L72.6834 149.774C72.6607 149.805 72.6299 149.829 72.5945 149.843C72.559 149.857 72.5202 149.862 72.4825 149.855Z" fill="#E0E0E0"/>
<path d="M43.3677 91.1241L10.5845 109.929L52.0581 133.745L84.8351 114.883L43.3677 91.1241Z" fill="#455A64"/>
<path opacity="0.1" d="M10.584 109.929L51.9006 132.341L84.8346 114.883L52.0576 133.745L10.584 109.929Z" fill="white"/>
<path d="M25.1562 101.575L66.655 125.346L72.4757 122.002L30.9833 98.2304L25.1562 101.575Z" fill="#F1463B"/>
<path d="M72.476 121.996V129.353L71.7727 128.953L71.0443 130.207L70.3096 129.783L69.5813 131.05L68.8466 130.619L68.1182 131.88L67.3836 131.462L66.6489 132.722V125.347L72.476 121.996Z" fill="#F1463B"/>
<path opacity="0.25" d="M72.476 121.996V129.353L71.7727 128.953L71.0443 130.207L70.3096 129.783L69.5813 131.05L68.8466 130.619L68.1182 131.88L67.3836 131.462L66.6489 132.722V125.347L72.476 121.996Z" fill="black"/>
<path d="M17.3026 139.765L29.2957 146.629C29.4535 146.731 29.5846 146.87 29.6784 147.032C29.7722 147.195 29.8261 147.377 29.8357 147.565V155.844C29.8357 156.53 29.3459 156.805 28.7494 156.468L16.7563 149.605C16.5994 149.503 16.4688 149.365 16.375 149.204C16.2812 149.042 16.2269 148.861 16.2163 148.675V140.383C16.2226 139.703 16.7061 139.422 17.3026 139.765Z" fill="#FAFAFA"/>
<path d="M17.0083 141.05L17.4164 141.288V148.6L17.0083 148.363V141.05Z" fill="#455A64"/>
<path d="M18.6631 142.005L19.3663 142.417V149.73L18.6631 149.318V142.005Z" fill="#455A64"/>
<path d="M20.3291 142.96L20.7372 143.191V150.504L20.3291 150.273V142.96Z" fill="#455A64"/>
<path d="M21.5781 143.665L22.3944 144.146V151.458L21.5781 150.978V143.665Z" fill="#455A64"/>
<path d="M23.6489 144.863L24.0571 145.1V152.413L23.6489 152.176V144.863Z" fill="#455A64"/>
<path d="M24.8442 145.537L25.717 146.049V153.361L24.8442 152.85V145.537Z" fill="#455A64"/>
<path d="M26.9717 146.766L27.3798 147.003V154.316L26.9717 154.079V146.766Z" fill="#455A64"/>
<path d="M27.9209 147.303L28.1206 147.421V154.734L27.9209 154.615V147.303Z" fill="#455A64"/>
<path d="M26.2114 146.373L26.4173 146.485V153.798L26.2114 153.685V146.373Z" fill="#455A64"/>
<path d="M22.8715 144.42L23.0711 144.539V151.851L22.8652 151.739L22.8715 144.42Z" fill="#455A64"/>
<path d="M21.0391 143.378L21.2387 143.497V150.809L21.0391 150.691V143.378Z" fill="#455A64"/>
<path d="M19.7202 142.655L19.9199 142.773V150.086L19.7202 149.967V142.655Z" fill="#455A64"/>
<path d="M17.9365 141.582L18.1362 141.694V149.006L17.9365 148.894V141.582Z" fill="#455A64"/>
<path d="M28.6353 147.721L29.0434 147.958L29.0371 155.27L28.6353 155.033V147.721Z" fill="#455A64"/>
</svg>
