<svg width="381" height="380" viewBox="0 0 381 380" fill="none" xmlns="http://www.w3.org/2000/svg">
<path d="M184.644 34.5163C186.374 33.3455 188.414 32.7197 190.503 32.7197C192.591 32.7197 194.632 33.3455 196.361 34.5163C221.378 51.9329 319.544 119.383 319.544 119.383H61.4609C61.4609 119.383 159.628 51.9329 184.644 34.5163Z" fill="#F7BF75"/>
<path d="M196.358 34.5163C194.628 33.3455 192.588 32.7197 190.499 32.7197C188.411 32.7197 186.371 33.3455 184.641 34.5163L169.758 44.8079L282.016 122.233H323.658C323.658 122.233 222.166 51.9329 196.358 34.5163Z" fill="#F1734D"/>
<path d="M282.017 155.8H97.875V306.533H282.017V155.8Z" fill="#F1734D"/>
<path d="M331.418 306.691H49.426C45.3161 306.691 41.9844 310.023 41.9844 314.133V339.783C41.9844 343.893 45.3161 347.225 49.426 347.225H331.418C335.528 347.225 338.859 343.893 338.859 339.783V314.133C338.859 310.023 335.528 306.691 331.418 306.691Z" fill="#F7BF75"/>
<path d="M118.936 155.8H61.4609V306.533H118.936V155.8Z" fill="#FFEABB"/>
<path d="M319.702 155.8H262.227V306.533H319.702V155.8Z" fill="#FFEABB"/>
<path fill-rule="evenodd" clip-rule="evenodd" d="M335.06 126.666C335.081 125.738 334.916 124.815 334.575 123.951C334.235 123.088 333.725 122.301 333.076 121.637C332.427 120.973 331.652 120.446 330.796 120.086C329.94 119.726 329.021 119.541 328.093 119.541H52.9096C51.0939 119.54 49.3434 120.218 48.0013 121.441C47.3144 122.121 46.7767 122.937 46.4223 123.837C46.068 124.736 45.9047 125.7 45.943 126.666V148.833C45.9093 149.751 46.076 150.666 46.4315 151.514C46.7869 152.361 47.3226 153.121 48.0013 153.741C48.6336 154.404 49.3959 154.928 50.2405 155.283C51.0852 155.637 51.9938 155.813 52.9096 155.799H328.093C329.941 155.799 331.713 155.065 333.019 153.759C334.326 152.452 335.06 150.68 335.06 148.833V126.666Z" fill="#F94060"/>
<path fill-rule="evenodd" clip-rule="evenodd" d="M300.085 305.9H317.801V155.8H300.085V305.9ZM101.535 305.9H119.251V155.8H101.535V305.9Z" fill="#F7BF75"/>
</svg>
