<svg fill="none" height="110" viewBox="0 0 110 110" width="110" xmlns="http://www.w3.org/2000/svg" xmlns:xlink="http://www.w3.org/1999/xlink"><filter id="a" color-interpolation-filters="sRGB" filterUnits="userSpaceOnUse" height="25.6836" width="25.6807" x="19.0776" y="2.17188"><feFlood flood-opacity="0" result="BackgroundImageFix"/><feBlend in="SourceGraphic" in2="BackgroundImageFix" mode="normal" result="shape"/><feGaussianBlur result="effect1_foregroundBlur_2626_4734" stdDeviation="2"/></filter><g fill="#fff"><path d="m54.9939 17.6714c-4.8761 0-8.8357-3.9596-8.8357-8.83572s3.9596-8.83568 8.8357-8.83568 8.8357 3.95956 8.8357 8.83568-3.9596 8.83572-8.8357 8.83572z"/><path d="m78.508 23.7949c-3.153 0-6.086-1.6987-7.6625-4.4239-1.1854-2.0409-1.491-4.424-.8799-6.7093.611-2.2853 2.0775-4.17952 4.1184-5.36495 1.3443-.76991 2.8719-1.18542 4.4117-1.18542 3.153 0 6.086 1.68648 7.6625 4.42397 1.1854 2.0409 1.491 4.4239.8799 6.7092-.611 2.2853-2.0775 4.1796-4.1184 5.365-1.3443.7699-2.8719 1.1854-4.4117 1.1854z"/><path d="m94.9806 40.7568c-3.153 0-6.086-1.6987-7.6625-4.4239-1.1854-2.0409-1.4909-4.424-.8799-6.7093.6111-2.2853 2.0776-4.1795 4.1185-5.3649 1.3443-.7699 2.8719-1.1855 4.4117-1.1855 3.153 0 6.0856 1.6865 7.6626 4.424 1.185 2.0409 1.491 4.4239.88 6.7092s-2.078 4.1796-4.1187 5.365c-1.3442.7699-2.8719 1.1854-4.4117 1.1854z"/><path d="m101.152 63.8296c-4.8638 0-8.8234-3.9596-8.8234-8.8357s3.9596-8.8357 8.8354-8.8357c4.864 0 8.836 3.9596 8.836 8.8357-.012 4.8761-3.984 8.8357-8.848 8.8357z"/><path d="m94.9559 86.915c-1.5398 0-3.0674-.4033-4.4117-1.1854-2.0409-1.1854-3.5074-3.0797-4.1185-5.365-.611-2.2853-.2933-4.6561.8799-6.7092 1.5765-2.7253 4.5095-4.424 7.6625-4.424 1.5398 0 3.0675.4156 4.4117 1.1855 4.2162 2.4319 5.6702 7.8458 3.2382 12.0742-1.576 2.7252-4.5091 4.4239-7.6621 4.4239z"/><path d="m78.0789 103.804c-3.153 0-6.086-1.699-7.6625-4.4243-2.4319-4.2162-.9898-9.63 3.2386-12.0742 1.3443-.7699 2.8596-1.1854 4.3995-1.1854 3.153 0 6.086 1.6987 7.6625 4.424 1.1732 2.0408 1.4909 4.4239.8799 6.7092-.6111 2.2731-2.0776 4.1797-4.1185 5.3647-1.3321.782-2.8597 1.186-4.3995 1.186z"/><path d="m54.9939 109.988c-4.8761 0-8.8357-3.96-8.8357-8.836 0-2.3585.9166-4.5827 2.5908-6.2448 1.6743-1.6742 3.8863-2.5908 6.2449-2.5908 4.8761 0 8.8357 3.9596 8.8357 8.8356s-3.9596 8.836-8.8357 8.836z"/><path d="m31.9083 103.804c-1.5399 0-3.0675-.416-4.4118-1.186-4.2162-2.432-5.6704-7.8455-3.2385-12.0739 1.5765-2.7253 4.5095-4.424 7.6625-4.424 1.5398 0 3.0674.4155 4.4117 1.1854 4.2162 2.432 5.6705 7.8458 3.2385 12.062-1.5764 2.7375-4.5094 4.4365-7.6624 4.4365z"/><path d="m15.0318 86.915c-3.153 0-6.08597-1.6987-7.66246-4.4239-2.43194-4.2162-.97766-9.6301 3.23856-12.0742 1.3443-.7699 2.8719-1.1855 4.4117-1.1855 3.153 0 6.086 1.6987 7.6625 4.424 2.4319 4.2162.9899 9.63-3.2386 12.062-1.3442.7821-2.8719 1.1976-4.4117 1.1976z"/><path d="m8.83568 63.8296c-4.87612 0-8.83568-3.9596-8.83568-8.8357s3.95956-8.8357 8.83568-8.8357c2.35862 0 4.58282.9166 6.24482 2.5908 1.6743 1.6743 2.5909 3.8863 2.5909 6.2449 0 4.8639-3.9596 8.8357-8.83572 8.8357z"/><path d="m15.0074 40.7568c-1.5398 0-3.0674-.4155-4.4117-1.1854-4.21623-2.432-5.67051-7.8458-3.23856-12.0742 1.57649-2.7253 4.50946-4.424 7.66246-4.424 1.5398 0 3.0674.4033 4.4117 1.1855 2.0409 1.1732 3.5074 3.0796 4.1185 5.3649.611 2.2853.2933 4.6562-.8799 6.7093-1.5765 2.7252-4.5095 4.4239-7.6625 4.4239z"/><g filter="url(#a)"><path d="m31.9212 23.8554c-3.153 0-6.086-1.6864-7.6625-4.4239-2.4319-4.2162-.9899-9.63003 3.2386-12.0742 1.3442-.78214 2.8719-1.18542 4.4117-1.18542 3.153 0 6.086 1.69869 7.6625 4.42392 1.1854 2.0409 1.4909 4.424.8799 6.7093-.6111 2.2853-2.0776 4.1795-4.1185 5.3649-1.3443.7822-2.8719 1.1854-4.4117 1.1854z"/><path d="m31.9212 23.8554c-3.153 0-6.086-1.6864-7.6625-4.4239-2.4319-4.2162-.9899-9.63003 3.2386-12.0742 1.3442-.78214 2.8719-1.18542 4.4117-1.18542 3.153 0 6.086 1.69869 7.6625 4.42392 1.1854 2.0409 1.4909 4.424.8799 6.7093-.6111 2.2853-2.0776 4.1795-4.1185 5.3649-1.3443.7822-2.8719 1.1854-4.4117 1.1854z"/></g><path d="m27.2464 6.92476c-4.467 2.58254-5.9904 8.30174-3.4208 12.75654 1.6662 2.893 4.7647 4.6741 8.0956 4.6741 1.6267 0 3.2413-.4259 4.6632-1.2532 2.1533-1.2508 3.7043-3.2531 4.35-5.668.6448-2.4115.3227-4.9313-.9301-7.0887-1.6656-2.87925-4.7632-4.67362-8.0953-4.67362-1.6265 0-3.2408.42583-4.6626 1.25288z"/><path d="m27.2464 6.92476c-4.467 2.58254-5.9904 8.30174-3.4208 12.75654 1.6662 2.893 4.7647 4.6741 8.0956 4.6741 1.6267 0 3.2413-.4259 4.6632-1.2532 2.1533-1.2508 3.7043-3.2531 4.35-5.668.6448-2.4115.3227-4.9313-.9301-7.0887-1.6656-2.87925-4.7632-4.67362-8.0953-4.67362-1.6265 0-3.2408.42583-4.6626 1.25288z"/></g><path d="m27.2464 6.92476c-4.467 2.58254-5.9904 8.30174-3.4208 12.75654 1.6662 2.893 4.7647 4.6741 8.0956 4.6741 1.6267 0 3.2413-.4259 4.6632-1.2532 2.1533-1.2508 3.7043-3.2531 4.35-5.668.6448-2.4115.3227-4.9313-.9301-7.0887-1.6656-2.87925-4.7632-4.67362-8.0953-4.67362-1.6265 0-3.2408.42583-4.6626 1.25288z" stroke="#fff"/></svg>