<svg fill="none" height="114" viewBox="0 0 110 114" width="110" xmlns="http://www.w3.org/2000/svg" xmlns:xlink="http://www.w3.org/1999/xlink"><filter id="a" color-interpolation-filters="sRGB" filterUnits="userSpaceOnUse" height="25.6709" width="25.6709" x="42.1582" y="0"><feFlood flood-opacity="0" result="BackgroundImageFix"/><feBlend in="SourceGraphic" in2="BackgroundImageFix" mode="normal" result="shape"/><feGaussianBlur result="effect1_foregroundBlur_2626_5500" stdDeviation="2"/></filter><g filter="url(#a)"><path d="m54.9939 21.6714c-4.8761 0-8.8357-3.9596-8.8357-8.8357 0-4.87614 3.9596-8.8357 8.8357-8.8357s8.8357 3.95956 8.8357 8.8357c0 4.8761-3.9596 8.8357-8.8357 8.8357z" fill="#fff"/></g><g fill="#fff"><path d="m45.6582 12.8357c0 5.1522 4.1834 9.3357 9.3357 9.3357 5.1522 0 9.3357-4.1835 9.3357-9.3357 0-5.15229-4.1835-9.3357-9.3357-9.3357-5.1523 0-9.3357 4.18341-9.3357 9.3357z" stroke="#fff"/><path d="m78.5075 27.7949c-3.153 0-6.086-1.6987-7.6625-4.4239-1.1854-2.0409-1.4909-4.424-.8799-6.7093s2.0775-4.1795 4.1184-5.3649c1.3443-.77 2.8719-1.1855 4.4118-1.1855 3.1529 0 6.0859 1.6865 7.6624 4.424 1.1855 2.0409 1.491 4.4239.8799 6.7092-.611 2.2853-2.0775 4.1796-4.1184 5.365-1.3443.7699-2.8719 1.1854-4.4117 1.1854z"/><path d="m94.9811 44.7568c-3.153 0-6.086-1.6987-7.6625-4.4239-1.1854-2.0409-1.4909-4.424-.8799-6.7093.6111-2.2853 2.0776-4.1795 4.1185-5.3649 1.3442-.7699 2.8719-1.1855 4.4117-1.1855 3.153 0 6.0861 1.6865 7.6621 4.424 1.186 2.0409 1.491 4.4239.88 6.7092s-2.077 4.1796-4.1182 5.365c-1.3443.7699-2.8719 1.1854-4.4117 1.1854z"/><path d="m101.153 67.8296c-4.8643 0-8.8239-3.9596-8.8239-8.8357s3.9596-8.8357 8.8359-8.8357c4.864 0 8.835 3.9596 8.835 8.8357-.012 4.8761-3.984 8.8357-8.847 8.8357z"/><path d="m101.153 67.8296c-4.8643 0-8.8239-3.9596-8.8239-8.8357s3.9596-8.8357 8.8359-8.8357c4.864 0 8.835 3.9596 8.835 8.8357-.012 4.8761-3.984 8.8357-8.847 8.8357z"/><path d="m94.9554 90.915c-1.5398 0-3.0674-.4033-4.4117-1.1854-2.0409-1.1854-3.5074-3.0797-4.1184-5.365-.6111-2.2853-.2933-4.6561.8799-6.7092 1.5764-2.7253 4.5095-4.424 7.6624-4.424 1.5399 0 3.0675.4156 4.4118 1.1855 4.2166 2.4319 5.6706 7.8458 3.2386 12.0742-1.577 2.7252-4.5096 4.4239-7.6626 4.4239z"/><path d="m78.0789 107.804c-3.153 0-6.086-1.699-7.6625-4.424-2.4319-4.2165-.9898-9.6303 3.2386-12.0745 1.3443-.7699 2.8596-1.1854 4.3995-1.1854 3.153 0 6.086 1.6987 7.6625 4.424 1.1732 2.0408 1.4909 4.4239.8799 6.7089-.6111 2.273-2.0776 4.18-4.1185 5.365-1.3321.782-2.8597 1.186-4.3995 1.186z"/><path d="m54.9939 113.988c-4.8761 0-8.8357-3.96-8.8357-8.836 0-2.359.9166-4.583 2.5908-6.2448 1.6743-1.6742 3.8863-2.5908 6.2449-2.5908 4.8761 0 8.8357 3.9596 8.8357 8.8356s-3.9596 8.836-8.8357 8.836z"/><path d="m31.9078 107.804c-1.5398 0-3.0675-.416-4.4117-1.186-4.2162-2.432-5.6705-7.8455-3.2386-12.0739 1.5765-2.7253 4.5095-4.424 7.6625-4.424 1.5398 0 3.0674.4155 4.4117 1.1854 4.2162 2.432 5.6705 7.8458 3.2386 12.0625-1.5765 2.737-4.5095 4.436-7.6625 4.436z"/><path d="m15.0313 90.915c-3.1529 0-6.08595-1.6987-7.66244-4.4239-2.43195-4.2162-.97767-9.6301 3.23854-12.0742 1.3443-.7699 2.8719-1.1855 4.4117-1.1855 3.153 0 6.086 1.6987 7.6625 4.424 2.4319 4.2162.9899 9.63-3.2385 12.062-1.3443.7821-2.8719 1.1976-4.4118 1.1976z"/><path d="m8.83568 67.8296c-4.87612 0-8.83568-3.9596-8.83568-8.8357s3.95956-8.8357 8.83568-8.8357c2.35862 0 4.58282.9166 6.24482 2.5908 1.6743 1.6743 2.5909 3.8863 2.5909 6.2449 0 4.8639-3.9596 8.8357-8.83572 8.8357z"/><path d="m15.0074 44.7568c-1.5398 0-3.0674-.4155-4.4117-1.1854-4.21623-2.432-5.67051-7.8458-3.23856-12.0742 1.57649-2.7253 4.50946-4.424 7.66246-4.424 1.5398 0 3.0674.4033 4.4117 1.1855 2.0409 1.1732 3.5074 3.0796 4.1185 5.3649.611 2.2853.2933 4.6562-.8799 6.7093-1.5765 2.7252-4.5095 4.4239-7.6625 4.4239z"/><path d="m31.9207 27.8554c-3.153 0-6.086-1.6864-7.6625-4.4239-2.4319-4.2162-.9899-9.63 3.2386-12.0742 1.3443-.7821 2.8719-1.1854 4.4117-1.1854 3.153 0 6.086 1.6987 7.6625 4.4239 1.1854 2.0409 1.4909 4.424.8799 6.7093-.6111 2.2853-2.0776 4.1795-4.1185 5.3649-1.3443.7822-2.8719 1.1854-4.4117 1.1854z"/></g></svg>