<svg width="26" height="26" viewBox="0 0 26 26" fill="none" xmlns="http://www.w3.org/2000/svg">
<path d="M20.636 19.431L21.4663 20.1301C19.2931 23.0362 15.8246 24.9173 11.9167 24.9173C5.33527 24.9173 0 19.582 0 13.0007C0 6.41926 5.33527 1.08398 11.9167 1.08398C18.4981 1.08398 23.8333 6.41926 23.8333 13.0007V13.6353L25.2333 12.2353L25.9993 13.0014L23.2917 15.709L20.5833 13.0006L21.3493 12.2346L22.75 13.6353V13.0007C22.75 7.01757 17.8997 2.16732 11.9167 2.16732C5.93358 2.16732 1.08333 7.01757 1.08333 13.0007C1.08333 18.9837 5.93358 23.834 11.9167 23.834C15.4921 23.834 18.663 22.1019 20.636 19.431Z" fill="#6D7986"/>
<path d="M12.9997 6.5H10.833V14.0833L15.383 17.875L16.7913 16.25L12.9997 13.1083V6.5Z" fill="#FF5C5C"/>
</svg>
