<svg width="287" height="330" viewBox="0 0 287 330" fill="none" xmlns="http://www.w3.org/2000/svg">
<ellipse cx="136.5" cy="314" rx="132.5" ry="16" fill="#284059"/>
<path d="M222.291 130.055C222.291 130.055 216.494 127.098 211.356 140.764C206.219 154.431 204.581 162.17 204.581 162.17C204.581 162.17 203.132 165.068 201.088 163.51C199.045 161.952 195.907 157.221 192.85 158.481C189.676 159.793 189.009 163.554 190.248 168.88C191.487 174.206 193.755 185.908 193.958 186.995C194.161 188.082 193.726 189.655 192.154 188.821C190.581 187.988 181.125 179.575 177.401 184.3C173.676 189.024 179.574 203.248 180.161 204.814C180.748 206.379 180.531 207.103 179.814 207.596C179.096 208.089 176.191 204.951 173.386 202.676C170.582 200.401 166.966 198.241 165.053 201.147C163.14 204.053 163.669 215.154 176.191 231.878L182.495 239.248L192.103 237.617C212.443 232.878 220.001 224.726 220.407 221.262C220.813 217.799 216.639 217.118 213.037 217.067C209.436 217.016 205.197 217.538 204.958 216.697C204.719 215.857 205.001 215.154 206.48 214.35C207.958 213.545 221.595 206.437 221.791 200.422C221.986 194.408 209.335 194.756 207.596 194.386C205.856 194.017 206.567 192.502 207.385 191.828C208.204 191.155 217.53 183.64 221.878 180.372C226.226 177.104 228.16 173.785 226.573 170.742C224.986 167.699 219.617 169.423 217.037 169.293C214.458 169.162 215.226 166.01 215.226 166.01C215.226 166.01 218.943 159.032 223.813 145.272C228.682 131.511 222.175 130.055 222.175 130.055" fill="#173352"/>
<path d="M181.156 241.125C184.779 231.038 191.51 213.212 197.213 197.872C202.916 182.532 208.082 168.663 211.705 158.591L216.053 146.656C216.56 145.258 216.959 144.171 217.234 143.417C217.365 143.055 217.473 142.772 217.546 142.576C217.618 142.381 217.662 142.294 217.662 142.294C217.638 142.392 217.609 142.489 217.575 142.584L217.292 143.439L216.162 146.7C215.184 149.533 213.727 153.62 211.916 158.663C208.293 168.75 203.177 182.648 197.481 197.981C191.786 213.314 185.01 231.125 181.337 241.197" fill="#173352"/>
<path d="M196.945 165.279C197.07 165.476 197.177 165.685 197.263 165.902C197.445 166.315 197.705 166.916 197.988 167.663C198.597 169.155 199.387 171.235 200.22 173.547C201.053 175.858 201.763 177.894 202.329 179.474L202.973 181.264C203.073 181.476 203.146 181.7 203.191 181.93C203.057 181.737 202.947 181.528 202.865 181.307C202.684 180.902 202.43 180.3 202.14 179.546C201.546 178.054 200.785 175.96 199.966 173.648L197.792 167.735C197.532 167.011 197.314 166.431 197.14 165.945C197.05 165.731 196.984 165.508 196.945 165.279Z" fill="#173352"/>
<path d="M204.118 182.003C204.082 181.931 208.307 180.105 213.538 177.938C218.77 175.771 223.045 174.076 223.074 174.155C223.103 174.235 218.893 176.047 213.654 178.221C208.415 180.394 204.147 182.09 204.118 182.003Z" fill="#173352"/>
<path d="M194.299 205.154C194.535 205.089 194.778 205.05 195.023 205.038L196.958 204.828C198.596 204.647 200.849 204.386 203.328 204.009C205.806 203.632 208.03 203.219 209.646 202.908L211.559 202.538C211.796 202.475 212.039 202.441 212.284 202.437C212.063 202.533 211.832 202.606 211.595 202.654C211.153 202.77 210.509 202.937 209.704 203.118C208.103 203.487 205.871 203.937 203.386 204.306C200.9 204.676 198.632 204.915 196.994 205.031C196.176 205.096 195.509 205.132 195.052 205.154C194.802 205.184 194.549 205.184 194.299 205.154Z" fill="#173352"/>
<path d="M184.481 191.452C184.644 191.602 184.79 191.77 184.916 191.952L186.024 193.401C186.945 194.604 188.198 196.3 189.575 198.155C190.952 200.01 192.184 201.72 193.061 202.959C193.466 203.546 193.785 204.039 194.089 204.408C194.229 204.58 194.344 204.77 194.43 204.973C194.268 204.825 194.123 204.66 193.995 204.481C193.691 204.089 193.329 203.618 192.887 203.031C191.966 201.821 190.713 200.133 189.336 198.278C187.959 196.423 186.727 194.705 185.851 193.466L184.822 192.017C184.687 191.842 184.573 191.653 184.481 191.452Z" fill="#E0E0E0"/>
<path d="M173.213 210.792C173.421 210.984 173.608 211.198 173.771 211.429L175.221 213.248C176.416 214.784 178.039 216.929 179.829 219.299C181.619 221.668 183.213 223.842 184.358 225.415L185.706 227.284C185.878 227.514 186.033 227.756 186.17 228.009C185.962 227.816 185.774 227.603 185.612 227.371L184.162 225.552C182.967 224.016 181.344 221.871 179.554 219.494C177.764 217.118 176.17 214.958 175.025 213.386L173.677 211.516C173.505 211.287 173.35 211.044 173.213 210.792Z" fill="#E0E0E0"/>
<path d="M185.929 227.502C186.221 227.42 186.519 227.364 186.821 227.335L189.263 226.973C191.328 226.668 194.176 226.248 197.306 225.676C200.436 225.103 203.255 224.538 205.277 224.103L207.697 223.589C207.989 223.512 208.287 223.459 208.588 223.429C208.307 223.546 208.016 223.636 207.719 223.697C207.161 223.857 206.342 224.067 205.327 224.306C203.298 224.799 200.48 225.415 197.357 225.973C194.233 226.531 191.364 226.936 189.292 227.183C188.255 227.306 187.415 227.4 186.835 227.451C186.535 227.489 186.232 227.506 185.929 227.502Z" fill="#E0E0E0"/>
<path d="M114.606 213.321C127.649 205.531 131.591 189.633 132.134 175.133C132.221 172.713 132.67 170.184 131.67 167.989C130.67 165.793 128.098 164.148 125.873 165.01C124.018 165.735 123.091 167.757 121.968 169.409C120.464 171.616 118.367 173.352 115.917 174.416C114.323 175.104 112.388 175.459 110.924 174.51C108.924 173.213 108.888 170.322 109.069 167.916L110.113 154.496C110.294 152.098 110.475 149.641 109.895 147.308C109.316 144.975 107.809 142.743 105.548 141.938C103.287 141.134 100.388 142.257 99.7508 144.569C99.5935 145.557 99.5015 146.554 99.4754 147.554C99.3378 148.547 98.7943 149.619 97.8233 149.83C96.8523 150.04 95.932 149.293 95.2654 148.54C92.9611 145.938 91.4974 142.692 90.1496 139.475C88.8018 136.257 87.4975 132.953 85.4396 130.163C83.3816 127.374 80.4107 125.04 76.9905 124.598C73.5703 124.156 69.7443 126.048 68.6356 129.337C67.5269 132.627 69.2515 136.236 71.208 139.134C74.0998 143.424 77.5946 147.275 81.5846 150.569C82.3722 151.08 82.9763 151.828 83.3092 152.706C83.715 154.344 82.0846 155.829 80.4687 156.242C78.6354 156.713 76.7079 156.387 74.8166 156.474C72.9254 156.561 70.8385 157.242 70.0051 158.96C68.8458 161.351 70.7298 164.032 72.621 165.894C76.4295 169.562 80.8419 172.545 85.6642 174.713C87.3815 175.481 89.2003 176.162 90.5336 177.525C91.8669 178.887 92.5771 181.09 91.5988 182.72C90.6206 184.35 88.367 184.734 86.5265 184.256C84.6859 183.778 83.1135 182.662 81.4034 181.872C78.1861 180.387 73.9109 180.314 71.5921 183.017C70.0704 184.792 69.7588 187.365 70.3022 189.676C70.9495 191.937 72.0462 194.045 73.5268 195.872C78.3065 202.53 84.7713 207.797 92.2582 211.132C99.7218 214.335 106.751 215.56 114.577 213.306" fill="#284059"/>
<path d="M111.519 203.981C109.672 195.931 107.369 187.994 104.62 180.206C103.905 178.134 103.198 176.085 102.497 174.061C101.773 172.054 101.092 170.054 100.323 168.141C98.7662 164.484 97.0075 160.916 95.0554 157.453C93.2221 154.127 91.3599 151.033 89.6063 148.156C87.8527 145.279 86.1426 142.634 84.4905 140.279C81.9022 136.562 79.0263 133.054 75.8892 129.787C74.7806 128.635 73.8893 127.765 73.2806 127.186L72.556 126.533C72.4802 126.453 72.395 126.383 72.3024 126.323C72.3697 126.407 72.4423 126.487 72.5198 126.562L73.1864 127.251C73.7806 127.852 74.6356 128.736 75.7371 129.91C78.8215 133.212 81.6531 136.741 84.2079 140.468C85.831 142.816 87.5121 145.475 89.2802 148.352C91.0483 151.228 92.9033 154.33 94.6931 157.656C96.6148 161.117 98.3515 164.677 99.8959 168.322C100.686 170.221 101.345 172.199 102.07 174.221C102.794 176.242 103.476 178.286 104.2 180.358C106.941 188.132 109.249 196.053 111.113 204.082" fill="#173352"/>
<path d="M100.165 168.119C100.308 167.794 100.413 167.454 100.477 167.105C100.65 166.453 100.868 165.496 101.121 164.315C101.636 161.945 102.223 158.656 102.868 155.018C103.513 151.38 104.143 148.112 104.687 145.757C104.955 144.583 105.179 143.627 105.346 142.975C105.456 142.639 105.527 142.291 105.556 141.939C105.398 142.254 105.272 142.584 105.179 142.924C104.962 143.569 104.694 144.511 104.382 145.685C103.759 148.025 103.071 151.301 102.426 154.938C101.781 158.576 101.245 161.771 100.817 164.25C100.614 165.373 100.448 166.315 100.31 167.068C100.223 167.412 100.174 167.765 100.165 168.119Z" fill="#173352"/>
<path d="M69.7003 160.148C70.0983 160.262 70.5057 160.339 70.9176 160.38C71.7074 160.511 72.8451 160.685 74.2509 160.953C77.0551 161.46 80.9101 162.293 85.1202 163.402C89.3302 164.511 93.091 165.692 95.7938 166.612C97.1489 167.069 98.2285 167.467 98.9821 167.735C99.3647 167.895 99.7598 168.024 100.163 168.119C99.8107 167.899 99.4368 167.714 99.0474 167.569C98.3227 167.25 97.2431 166.844 95.8953 166.315C93.2142 165.308 89.4534 164.083 85.2289 162.967C81.6402 162.008 78.0052 161.232 74.3378 160.641C72.9248 160.417 71.7727 160.286 70.9756 160.214C70.5536 160.151 70.1265 160.129 69.7003 160.148Z" fill="#173352"/>
<path d="M111.179 203.386C111.275 203.277 111.355 203.155 111.418 203.024L112.026 201.944C112.548 201.009 113.265 199.625 114.135 197.908C115.881 194.481 118.135 189.662 120.555 184.314C122.975 178.967 125.185 174.133 126.852 170.67C127.664 168.989 128.338 167.605 128.838 166.576C129.048 166.126 129.229 165.764 129.374 165.46C129.444 165.332 129.498 165.195 129.533 165.054C129.437 165.163 129.356 165.285 129.294 165.416C129.127 165.706 128.925 166.061 128.685 166.496C128.164 167.438 127.439 168.815 126.57 170.532C124.83 173.959 122.57 178.778 120.149 184.126C117.729 189.474 115.526 194.307 113.86 197.77C113.041 199.452 112.367 200.836 111.874 201.865L111.338 202.98C111.268 203.108 111.214 203.245 111.179 203.386Z" fill="#E0E0E0"/>
<path d="M71.0854 187.242C71.2068 187.324 71.3383 187.39 71.4768 187.437L72.6434 187.923L76.9331 189.662C80.5562 191.111 85.5416 193.213 91.0487 195.524C96.5558 197.836 101.556 199.872 105.215 201.263C107.041 201.988 108.527 202.509 109.563 202.872L110.758 203.278C110.895 203.334 111.039 203.371 111.186 203.386C111.062 203.303 110.928 203.238 110.787 203.191L109.628 202.705L105.331 200.973C101.708 199.524 96.7225 197.415 91.2226 195.111C85.7228 192.807 80.7157 190.763 77.0563 189.365C75.2303 188.64 73.7448 188.118 72.7086 187.763L71.5202 187.358C71.3822 187.297 71.2355 187.257 71.0854 187.242Z" fill="#173352"/>
<path opacity="0.6" d="M29.3693 49.4334L29.7896 49.629L29.4635 49.8319C28.4978 50.4395 27.6641 51.2349 27.0118 52.171C26.3595 53.1071 25.902 54.1647 25.6665 55.2811L24.9419 60.4041L23.9999 56.0564C23.5465 54.7697 22.8116 53.6005 21.8488 52.634C20.8861 51.6674 19.7197 50.928 18.4348 50.4696L19.1594 50.042C20.1489 49.4209 20.9995 48.6022 21.6578 47.6371C22.3162 46.672 22.7681 45.5814 22.9854 44.4335L23.384 40.535L24.8332 44.5277C25.6736 46.6758 27.2935 48.4277 29.3693 49.4334Z" fill="#E0E0E0"/>
<path opacity="0.6" d="M26.0057 161.076L26.2956 161.214L26.0709 161.359C25.4061 161.777 24.832 162.326 24.3827 162.97C23.9334 163.615 23.618 164.343 23.4551 165.112L22.9551 168.634L22.3029 165.648C21.9915 164.764 21.4863 163.96 20.8244 163.295C20.1624 162.631 19.3604 162.123 18.4769 161.808L18.9479 161.511C19.6286 161.084 20.214 160.521 20.6678 159.858C21.1216 159.194 21.434 158.445 21.5855 157.656L21.8537 154.975L22.8391 157.721C23.4316 159.2 24.5634 160.399 26.0057 161.076Z" fill="#E0E0E0"/>
<path opacity="0.6" d="M20.4057 178.981L20.7898 179.162L20.4927 179.344C19.6056 179.903 18.8399 180.636 18.2412 181.497C17.6425 182.359 17.2229 183.331 17.0073 184.358L16.3696 189.053L15.5073 185.075C15.091 183.895 14.4162 182.822 13.5324 181.936C12.6486 181.05 11.578 180.372 10.3987 179.952L11.0292 179.561C11.9366 178.99 12.7169 178.239 13.3215 177.354C13.9261 176.469 14.3421 175.469 14.5436 174.416L14.9059 170.837L16.2174 174.46C16.9938 176.441 18.4897 178.056 20.4057 178.981Z" fill="#EBEBEB"/>
<path opacity="0.6" d="M89.599 12.8839L90.0193 13.0796L89.6932 13.2825C88.7318 13.8943 87.9035 14.6933 87.2574 15.632C86.6113 16.5706 86.1607 17.6297 85.9324 18.7461L85.2078 23.8692L84.2658 19.5215C83.8067 18.2406 83.0677 17.0783 82.1024 16.1193C81.1371 15.1603 79.9701 14.4288 78.6862 13.9781L79.4108 13.5506C80.4003 12.9295 81.2509 12.1107 81.9092 11.1456C82.5676 10.1806 83.0195 9.08991 83.2368 7.94203L83.6354 4.04358L85.0846 8.03623C85.9319 10.1588 87.5421 11.8878 89.599 12.8839Z" fill="#EBEBEB"/>
<path opacity="0.6" d="M209.748 8.90558L210.176 9.10123L209.85 9.30412C208.881 9.9129 208.045 10.7104 207.392 11.6491C206.738 12.5877 206.28 13.6484 206.045 14.7678L205.321 19.8908L204.379 15.5431C203.924 14.2569 203.189 13.0882 202.227 12.1218C201.264 11.1554 200.098 10.4156 198.814 9.95628L199.495 9.52875C200.486 8.90491 201.338 8.08267 201.997 7.11372C202.655 6.14477 203.106 5.05007 203.321 3.89846L203.712 0L205.161 3.99266C206.012 6.15239 207.652 7.90838 209.748 8.90558Z" fill="#EBEBEB"/>
<path opacity="0.6" d="M286.601 79.6864L287 79.9255L286.659 80.0922C285.629 80.5998 284.713 81.3111 283.966 82.1829C283.218 83.0547 282.656 84.0691 282.312 85.1646L281.072 90.1934L280.565 85.7805C280.239 84.4552 279.622 83.2193 278.758 82.1626C277.895 81.1059 276.806 80.255 275.573 79.6719L276.297 79.3169C277.34 78.7937 278.263 78.0619 279.011 77.1669C279.759 76.2719 280.315 75.2329 280.645 74.1141L281.42 70.2664L282.456 74.3822C283.118 76.6106 284.599 78.5058 286.601 79.6864Z" fill="#EBEBEB"/>
<path opacity="0.6" d="M267.276 175.648L267.53 175.764L267.334 175.887C266.759 176.249 266.263 176.723 265.874 177.281C265.486 177.839 265.213 178.469 265.073 179.133L264.639 182.177L264.081 179.597C263.81 178.832 263.373 178.138 262.8 177.564C262.227 176.989 261.533 176.55 260.769 176.278L261.175 176.025C261.767 175.654 262.276 175.164 262.67 174.587C263.064 174.009 263.335 173.357 263.465 172.67L263.697 170.351L264.552 172.721C265.055 174.007 266.029 175.053 267.276 175.648Z" fill="#EBEBEB"/>
<path opacity="0.6" d="M280.855 133.54L281.282 133.743L280.956 133.946C279.987 134.553 279.151 135.349 278.498 136.286C277.844 137.224 277.386 138.284 277.152 139.402L276.427 144.526L275.485 140.178C275.034 138.89 274.3 137.719 273.337 136.753C272.374 135.786 271.206 135.047 269.92 134.591L270.601 134.163C271.59 133.541 272.441 132.722 273.1 131.757C273.76 130.792 274.214 129.702 274.434 128.555L274.826 124.649L276.275 128.642C277.127 130.795 278.764 132.545 280.855 133.54Z" fill="#E0E0E0"/>
<path opacity="0.6" d="M23.9414 70.9621L24.8617 71.3969L24.1371 71.8462C22.0174 73.1734 20.1878 74.9154 18.7583 76.9675C17.3288 79.0197 16.3288 81.3396 15.8185 83.7879L14.2388 94.9905L12.1736 85.5053C11.1841 82.6899 9.57726 80.1315 7.47086 78.0176C5.36446 75.9037 2.81184 74.2877 0 73.2882L1.49272 72.3462C3.65203 70.9851 5.50812 69.1942 6.94547 67.0849C8.38283 64.9756 9.37069 62.5931 9.84758 60.0856L10.7099 51.5496L13.8475 60.2812C15.736 64.9927 19.3441 68.8106 23.9414 70.9621Z" fill="#EBEBEB"/>
<path opacity="0.6" d="M276.993 55.1145L277.718 55.542L277.102 55.8464C275.264 56.7589 273.63 58.0336 272.297 59.5939C270.965 61.1542 269.962 62.9679 269.348 64.9259L267.131 73.9474L266.218 66.0345C265.635 63.6545 264.528 61.4347 262.977 59.5378C261.427 57.6408 259.471 56.1147 257.254 55.071L258.559 54.4261C260.43 53.4872 262.089 52.1736 263.431 50.5668C264.774 48.96 265.772 47.0944 266.363 45.0858L267.812 38.1874L269.667 45.5713C270.815 49.5639 273.432 52.9737 276.993 55.1145Z" fill="#E0E0E0"/>
<path d="M268.348 256.682C269.943 256.535 271.479 256.008 272.829 255.146C274.179 254.283 275.304 253.111 276.108 251.726C277.5 248.827 277.934 245.561 277.347 242.4C271.963 244.537 268.261 250.371 268.348 256.682Z" fill="#F03226"/>
<path d="M233.675 181.213C234.598 179.497 235.097 177.586 235.131 175.639C235.165 173.691 234.733 171.764 233.871 170.017C231.862 166.673 228.846 164.05 225.255 162.525C223.806 169.416 227.262 177.119 233.675 181.249" fill="#F03226"/>
<path d="M228.037 167.974C228.037 167.974 228.109 168.083 228.225 168.3L228.747 169.271C229.203 170.126 229.848 171.401 230.638 173.061C232.87 177.764 234.733 182.634 236.21 187.626C238.417 195.042 239.528 202.742 239.508 210.48C239.446 215.046 238.916 219.594 237.928 224.052C237.397 226.409 236.734 228.734 235.942 231.016C235.116 233.357 234.148 235.647 233.044 237.871C230.822 242.255 227.998 246.306 224.653 249.907C221.503 253.204 218.162 256.314 214.646 259.218C211.334 262.037 208.168 264.703 205.392 267.392C202.777 269.85 200.386 272.537 198.248 275.421C197.338 276.687 196.498 278.003 195.733 279.362C195.058 280.579 194.455 281.835 193.929 283.123C193.104 285.196 192.522 287.358 192.197 289.565C191.995 290.961 191.905 292.372 191.929 293.782C191.929 294.268 191.929 294.63 191.965 294.884C192.001 295.137 191.965 295.261 191.965 295.261C191.896 294.78 191.855 294.296 191.842 293.811C191.79 292.395 191.858 290.977 192.045 289.572C192.342 287.339 192.907 285.15 193.726 283.051C194.244 281.749 194.842 280.481 195.516 279.254C196.276 277.88 197.116 276.552 198.03 275.276C200.149 272.365 202.528 269.653 205.139 267.174C207.914 264.464 211.081 261.79 214.385 258.957C217.88 256.052 221.202 252.946 224.334 249.653C227.649 246.077 230.449 242.055 232.653 237.704C233.757 235.495 234.725 233.22 235.551 230.893C236.34 228.625 237 226.314 237.529 223.973C238.519 219.539 239.053 215.015 239.123 210.473C239.165 202.769 238.089 195.1 235.928 187.705C234.481 182.716 232.662 177.843 230.486 173.126C229.711 171.459 229.095 170.169 228.653 169.307C228.45 168.88 228.283 168.583 228.167 168.314C228.051 168.046 228.037 167.974 228.037 167.974Z" fill="#263238"/>
<path d="M221.798 267.74C223.537 269.145 224.544 269.044 225.805 270.537C227.066 272.029 227.979 273.834 229.254 275.283C231.095 277.319 233.964 278.486 236.653 279.073C241.479 280.123 247.305 279.073 244.623 277.022C237.864 271.66 229.744 268.287 221.175 267.283" fill="#F03226"/>
<path d="M246.746 266.667C248.246 269.203 249.949 271.92 252.71 272.942C254.883 273.725 257.246 273.326 259.427 272.667C261.608 272.007 263.738 271.08 266.006 270.834C259.804 269.196 253.115 267.377 246.746 266.667Z" fill="#F03226"/>
<path d="M238.291 227.277C241.225 226.951 244.399 226.516 246.464 224.379C248.059 222.755 248.638 220.408 248.972 218.147C249.305 215.886 249.298 213.567 250.001 211.401C245.964 216.379 241.559 221.726 238.291 227.248" fill="#F03226"/>
<path d="M253.232 260.74L253.362 257.254C253.347 255.867 253.528 254.483 253.898 253.146C254.518 251.434 255.602 249.929 257.029 248.798C258.443 247.674 259.959 246.684 261.558 245.842C262 251.639 258.442 258.196 253.232 260.725" fill="#F03226"/>
<path d="M225.233 245.957L224.125 242.646C223.624 241.351 223.31 239.993 223.19 238.61C223.175 236.793 223.661 235.008 224.596 233.451C225.527 231.906 226.599 230.45 227.798 229.103C230.24 234.356 229.248 241.762 225.233 245.965" fill="#F03226"/>
<path d="M232.761 263.754C235.044 264.168 237.4 263.763 239.413 262.609C241.224 261.443 242.52 259.628 243.036 257.537C240.961 257.718 238.955 258.369 237.169 259.441C235.384 260.513 233.866 261.979 232.732 263.725" fill="#F03226"/>
<path d="M233.284 241.922C235.564 242.334 237.916 241.931 239.929 240.784C241.747 239.618 243.055 237.805 243.588 235.712C241.513 235.891 239.506 236.541 237.72 237.613C235.934 238.686 234.417 240.152 233.284 241.9" fill="#F03226"/>
<path d="M272.463 250.421L272.376 250.66L272.087 251.349C271.936 251.726 271.76 252.091 271.558 252.443C271.442 252.653 271.326 252.885 271.195 253.168C271.065 253.45 270.884 253.646 270.717 253.892C268.731 256.836 266.083 259.273 262.985 261.008C260.876 262.241 258.626 263.214 256.283 263.906C253.594 264.697 250.835 265.221 248.044 265.472C242.16 266.066 235.66 265.682 228.87 265.689C222.081 265.696 215.566 266.37 210.103 268.587C207.516 269.599 205.107 271.016 202.965 272.783C201.111 274.337 199.432 276.089 197.958 278.008C195.797 280.778 194.11 283.888 192.965 287.21C192.748 287.797 192.61 288.333 192.487 288.79C192.369 289.178 192.272 289.572 192.197 289.971C192.132 290.275 192.081 290.514 192.038 290.696C192.025 290.78 192.004 290.863 191.973 290.942C191.961 290.858 191.961 290.773 191.973 290.688C191.973 290.507 192.045 290.261 192.096 289.964C192.153 289.562 192.238 289.165 192.349 288.775C192.471 288.237 192.621 287.704 192.799 287.181C193.892 283.816 195.556 280.664 197.719 277.863C199.189 275.91 200.874 274.129 202.74 272.551C204.899 270.753 207.331 269.31 209.943 268.276C215.457 266.03 222.052 265.341 228.841 265.334C235.631 265.327 242.131 265.718 247.986 265.146C250.773 264.895 253.53 264.376 256.217 263.595C258.542 262.918 260.777 261.967 262.877 260.762C265.945 259.069 268.585 256.697 270.594 253.827C270.768 253.573 270.927 253.327 271.079 253.102L271.434 252.378C271.644 252.032 271.833 251.674 272 251.305L272.318 250.631C272.356 250.554 272.405 250.484 272.463 250.421Z" fill="#263238"/>
<path d="M235.849 261.551C235.09 262.346 234.244 263.054 233.327 263.66C232.485 264.363 231.566 264.968 230.588 265.464C231.343 264.668 232.187 263.961 233.102 263.356C233.945 262.65 234.867 262.045 235.849 261.551Z" fill="#263238"/>
<path d="M204.132 275.247C205.704 277.747 208.378 278.732 211.24 279.449C214.102 280.167 215.834 279.899 219.407 278.435C215.327 274.667 209.189 272.957 204.132 275.247Z" fill="#F03226"/>
<path d="M217.32 259.283C220.001 260.841 223.516 260.841 226.537 260.117C228.058 259.781 229.461 259.043 230.6 257.98C231.738 256.917 232.57 255.568 233.008 254.073C230.169 253.353 227.182 253.461 224.402 254.384C221.622 255.308 219.165 257.008 217.32 259.283Z" fill="#F03226"/>
<path d="M237.103 217.285C238.392 214.466 238.045 210.966 237.03 208.031C236.546 206.551 235.673 205.229 234.503 204.201C233.333 203.174 231.908 202.48 230.378 202.191C229.941 205.086 230.342 208.046 231.533 210.721C232.725 213.396 234.657 215.674 237.103 217.285Z" fill="#F03226"/>
<path d="M248.246 265.348C248.932 265.023 249.589 264.64 250.21 264.203C251.606 263.009 252.747 261.545 253.565 259.899C254.608 258.008 255.485 256.225 256.297 255.044C256.607 254.572 256.946 254.12 257.311 253.689C257.579 253.385 257.746 253.233 257.76 253.254C257.775 253.276 257.246 253.979 256.521 255.182C255.797 256.385 254.949 258.167 253.898 260.08C253.064 261.776 251.857 263.262 250.369 264.428C249.905 264.762 249.395 265.028 248.855 265.218C248.661 265.295 248.455 265.339 248.246 265.348Z" fill="#263238"/>
<path d="M255.711 269.486C254.874 269.365 254.046 269.186 253.233 268.95L247.306 267.501L241.357 266.153C240.527 266.005 239.709 265.802 238.907 265.544C239.136 265.525 239.365 265.542 239.588 265.595C240.016 265.653 240.646 265.754 241.414 265.892C242.951 266.167 245.038 266.617 247.393 267.131C249.748 267.646 251.806 268.225 253.306 268.66C254.03 268.878 254.661 269.066 255.074 269.204C255.299 269.264 255.515 269.36 255.711 269.486Z" fill="#263238"/>
<path d="M234.478 274.298C233.658 273.889 232.862 273.434 232.094 272.935C230.645 272.08 228.58 270.943 226.246 269.841C223.913 268.74 221.732 267.878 220.145 267.291C219.272 267.011 218.413 266.687 217.573 266.32C217.82 266.333 218.064 266.382 218.297 266.465C218.761 266.588 219.42 266.783 220.232 267.044C222.339 267.733 224.401 268.554 226.406 269.501C228.404 270.447 230.34 271.519 232.203 272.711C232.927 273.167 233.485 273.551 233.869 273.834C234.09 273.963 234.295 274.119 234.478 274.298Z" fill="#263238"/>
<path d="M227.095 256.102C226.865 256.223 226.622 256.315 226.37 256.377L224.37 257.037C222.682 257.595 220.371 258.414 217.849 259.435C215.327 260.457 213.124 261.508 211.53 262.29L209.646 263.247C209.419 263.382 209.176 263.486 208.922 263.558C209.114 263.384 209.329 263.236 209.559 263.116C209.987 262.856 210.61 262.5 211.4 262.08C215.499 259.883 219.814 258.115 224.276 256.805C225.131 256.559 225.827 256.37 226.312 256.261C226.564 256.17 226.828 256.116 227.095 256.102Z" fill="#263238"/>
<path d="M226.458 235.487C226.544 236.228 226.556 236.975 226.494 237.719C226.344 241.308 225.778 244.868 224.806 248.327C224.633 249.052 224.39 249.758 224.081 250.436C224.181 249.7 224.336 248.974 224.545 248.262C224.856 246.921 225.269 245.073 225.581 243.008C225.893 240.943 226.11 239.066 226.226 237.704C226.25 236.96 226.327 236.219 226.458 235.487Z" fill="#263238"/>
<path d="M240.515 201.799L243.189 199.568C244.286 198.726 245.261 197.735 246.087 196.626C247.057 195.088 247.581 193.313 247.602 191.495C247.623 189.689 247.478 187.884 247.167 186.104C242.326 189.292 239.305 196.126 240.493 201.799" fill="#F03226"/>
<path d="M244.971 192.234C244.697 192.926 244.373 193.597 244 194.242C243.384 195.466 242.551 197.14 241.761 199.097C240.971 201.053 240.312 202.807 239.884 204.104C239.696 204.819 239.453 205.519 239.16 206.198C239.25 205.458 239.415 204.73 239.652 204.024C240.145 202.299 240.74 200.605 241.435 198.952C242.126 197.294 242.912 195.678 243.79 194.111C244.119 193.447 244.515 192.818 244.971 192.234Z" fill="#263238"/>
<path d="M240.747 238.255C240.234 238.677 239.678 239.044 239.088 239.349C238.037 239.972 236.552 240.798 234.871 241.61C233.189 242.422 231.639 243.11 230.523 243.559C229.922 243.84 229.293 244.056 228.646 244.204C229.211 243.857 229.805 243.559 230.421 243.313C231.53 242.806 233.059 242.088 234.726 241.269C236.392 240.451 237.899 239.675 238.979 239.096C239.544 238.766 240.135 238.485 240.747 238.255Z" fill="#263238"/>
<path d="M244.023 220.002C243.669 220.606 243.264 221.178 242.812 221.712C241.957 222.842 240.921 224.226 239.776 225.755L236.805 229.849C236.427 230.44 236.001 230.997 235.53 231.516C235.822 230.876 236.176 230.267 236.588 229.697C237.313 228.603 238.298 227.125 239.486 225.531C240.675 223.937 241.776 222.538 242.617 221.545C243.033 220.985 243.504 220.468 244.023 220.002Z" fill="#263238"/>
<path d="M237.747 222.987C237.682 222.987 237.747 222.262 237.645 221.067C237.52 219.533 237.228 218.017 236.776 216.545C236.261 214.82 235.66 213.292 235.232 212.197C234.961 211.611 234.747 210.999 234.595 210.371C234.947 210.912 235.244 211.487 235.479 212.089C236.131 213.498 236.685 214.951 237.138 216.436C237.603 217.931 237.864 219.481 237.913 221.045C237.966 221.697 237.91 222.353 237.747 222.987Z" fill="#263238"/>
<path d="M234.479 190.205C234.066 187.43 232.073 184.945 229.856 183.22C228.754 182.34 227.436 181.771 226.039 181.573C224.643 181.374 223.219 181.552 221.914 182.09C223.015 184.501 224.784 186.546 227.01 187.984C229.237 189.422 231.829 190.193 234.479 190.205Z" fill="#F03226"/>
<path d="M237.776 194.22C237.718 194.22 237.391 193.669 236.739 192.821C235.882 191.721 234.911 190.716 233.841 189.821C232.594 188.763 231.384 187.901 230.515 187.271C230.023 186.955 229.562 186.593 229.138 186.191C229.681 186.413 230.194 186.7 230.667 187.046C231.865 187.795 233.008 188.628 234.087 189.539C235.178 190.446 236.141 191.496 236.949 192.662C237.309 193.132 237.589 193.658 237.776 194.22Z" fill="#263238"/>
<path d="M213.052 277.29C212.129 277.066 211.217 276.795 210.321 276.479C208.169 275.745 205.889 275.469 203.625 275.667C201.376 275.993 199.293 277.041 197.69 278.652C197.05 279.334 196.459 280.061 195.922 280.826C195.996 280.57 196.105 280.326 196.248 280.102C196.608 279.508 197.036 278.958 197.524 278.464C199.128 276.741 201.273 275.618 203.603 275.283C205.92 275.071 208.255 275.391 210.429 276.218C211.27 276.508 211.929 276.768 212.386 276.942C212.62 277.033 212.844 277.149 213.052 277.29Z" fill="#263238"/>
<path d="M10.3468 250.095C8.79026 249.715 7.34759 248.967 6.13973 247.914C4.93188 246.862 3.99406 245.535 3.40492 244.045C2.452 240.969 2.50276 237.67 3.54985 234.625C8.56422 237.523 11.354 243.892 10.3468 250.081" fill="#F03226"/>
<path d="M55.7878 180.575C54.498 177.025 54.94 172.525 57.2371 169.474C59.7116 166.448 63.084 164.286 66.8673 163.3C67.2876 170.336 62.7297 177.438 55.7806 180.575" fill="#F03226"/>
<path d="M63.3172 168.322C63.3172 168.322 63.252 168.43 63.1143 168.633L62.4911 169.532C61.9404 170.314 61.1433 171.481 60.1433 173.003C57.3259 177.292 54.8265 181.783 52.6653 186.437C49.4628 193.352 47.2666 200.69 46.1437 208.227C45.5191 212.676 45.3395 217.176 45.6075 221.661C45.9082 226.477 46.7914 231.239 48.2378 235.842C48.5784 237.03 49.0422 238.175 49.4552 239.32C49.8682 240.465 50.3682 241.581 50.9044 242.661C51.1725 243.197 51.4189 243.747 51.7015 244.276L52.5638 245.842C53.129 246.885 53.7667 247.878 54.3971 248.856C56.9318 252.571 59.7032 256.12 62.694 259.479C65.5055 262.74 68.2301 265.805 70.5924 268.827C72.8113 271.609 74.8032 274.565 76.5487 277.667C77.3241 279.116 77.998 280.515 78.5632 281.87C79.0862 283.152 79.5362 284.464 79.911 285.797C80.5192 287.933 80.8671 290.135 80.9472 292.355C81.0005 293.756 80.9424 295.159 80.7733 296.551C80.7164 297.038 80.6341 297.521 80.5269 298C80.5269 298 80.5269 297.877 80.5631 297.63C80.5994 297.384 80.6428 297.022 80.6936 296.551C81.0563 292.958 80.7217 289.328 79.7081 285.862C79.3252 284.541 78.868 283.241 78.3385 281.971C77.7637 280.623 77.0874 279.235 76.3096 277.805C74.5506 274.73 72.5491 271.8 70.3243 269.044C67.9547 266.044 65.2519 262.993 62.4114 259.74C59.3947 256.37 56.6014 252.807 54.0493 249.073C53.4116 248.088 52.7667 247.088 52.1943 246.037L51.3247 244.465C51.0421 243.929 50.7957 243.378 50.5276 242.834C49.9697 241.755 49.5349 240.603 49.0784 239.479C48.6219 238.356 48.1944 237.168 47.8465 235.972C46.3947 231.338 45.509 226.545 45.2089 221.697C44.943 217.187 45.1323 212.662 45.7741 208.19C46.9245 200.622 49.1676 193.26 52.4334 186.336C54.6206 181.676 57.1593 177.19 60.0274 172.916C61.0491 171.401 61.8607 170.249 62.4404 169.481L63.0925 168.604C63.2302 168.409 63.3172 168.322 63.3172 168.322Z" fill="#263238"/>
<path d="M54.7734 267.906C52.8531 269.044 51.8749 268.791 50.4257 270.08C48.9764 271.37 47.8243 273.015 46.3171 274.261C44.1939 276.008 41.1795 276.732 38.4405 276.913C33.513 277.247 27.9045 275.341 30.8392 273.711C38.3178 269.403 46.8501 267.267 55.4763 267.544" fill="#F03226"/>
<path d="M30.2369 263.167C28.3819 265.45 26.295 267.892 23.411 268.486C21.1719 268.95 18.8676 268.196 16.8097 267.225C14.7518 266.254 12.7736 265.051 10.5707 264.443C16.9474 263.718 23.8313 262.928 30.2369 263.167Z" fill="#F03226"/>
<path d="M44.4119 225.451C41.5642 224.726 38.4845 223.799 36.7599 221.415C35.4194 219.567 35.1513 217.154 35.1947 214.893C35.2382 212.633 35.5498 210.314 35.1947 208.06C38.4483 213.582 42.0207 219.524 44.4337 225.451" fill="#F03226"/>
<path d="M24.6951 256.342L25.0864 252.878C25.306 251.507 25.3304 250.111 25.1589 248.733C24.7929 246.955 23.9428 245.312 22.7024 243.987C21.4719 242.657 20.1207 241.444 18.6663 240.364C17.3692 246.008 19.9199 253.037 24.6951 256.305" fill="#F03226"/>
<path d="M54.5773 245.856C55.099 244.822 55.6255 243.786 56.1569 242.748C56.8456 241.542 57.358 240.244 57.6786 238.893C57.9637 237.098 57.7455 235.259 57.0482 233.581C56.3585 231.912 55.5143 230.311 54.5265 228.799C51.3382 233.639 51.2513 241.117 54.5773 245.856Z" fill="#F03226"/>
<path d="M44.4978 262.349C42.1798 262.421 39.9107 261.672 38.0921 260.233C36.4556 258.827 35.4186 256.849 35.1937 254.704C37.221 255.187 39.1111 256.127 40.7198 257.452C42.3285 258.777 43.6133 260.452 44.476 262.349" fill="#F03226"/>
<path d="M47.2083 240.682C44.8905 240.754 42.6219 240.004 40.8027 238.566C39.1655 237.161 38.1284 235.183 37.9042 233.037C39.9299 233.522 41.8184 234.463 43.4257 235.787C45.0331 237.112 46.3168 238.786 47.1793 240.682" fill="#F03226"/>
<path d="M7.2016 243.298C7.24065 243.374 7.26987 243.454 7.28856 243.537C7.34653 243.718 7.41899 243.95 7.50594 244.262C7.61228 244.652 7.74544 245.035 7.90448 245.407L8.17984 246.131L8.54939 246.921C10.1142 250.073 12.3827 252.822 15.1797 254.957C17.0771 256.461 19.1472 257.734 21.3462 258.747C23.8759 259.9 26.5113 260.805 29.2156 261.45C34.9183 262.899 41.3892 263.457 48.1209 264.457C54.8526 265.457 61.251 267.124 66.3741 270.167C68.8158 271.572 71.0174 273.357 72.8956 275.457C74.5084 277.294 75.913 279.304 77.0839 281.449C78.8028 284.541 79.9815 287.903 80.5694 291.391C80.6853 292.007 80.736 292.558 80.7795 293.036C80.8284 293.44 80.8526 293.847 80.852 294.253C80.852 294.565 80.852 294.811 80.852 294.978C80.8599 295.062 80.8599 295.147 80.852 295.232C80.8446 295.147 80.8446 295.062 80.852 294.978C80.852 294.79 80.852 294.543 80.8013 294.253C80.7505 293.964 80.7578 293.529 80.6926 293.051C80.6273 292.572 80.5766 292.029 80.4462 291.42C79.8115 287.963 78.6016 284.637 76.8666 281.58C75.6956 279.461 74.2933 277.477 72.6855 275.667C70.8258 273.604 68.6517 271.848 66.2436 270.464C61.1713 267.479 54.8091 265.841 48.1281 264.834C41.4471 263.827 34.8676 263.247 29.1286 261.798C26.4066 261.143 23.7561 260.221 21.2158 259.044C19.0003 258.011 16.9177 256.714 15.013 255.182C12.1928 253.004 9.92623 250.191 8.39722 246.972C8.26679 246.689 8.15085 246.414 8.03491 246.16C7.91897 245.907 7.85376 245.66 7.77405 245.436C7.62784 245.058 7.5068 244.67 7.41174 244.276C7.33928 243.972 7.27406 243.733 7.23058 243.552C7.2139 243.468 7.20421 243.383 7.2016 243.298Z" fill="#263238"/>
<path d="M41.7734 259.711C42.6668 260.341 43.486 261.07 44.2153 261.885C45.0295 262.62 45.7586 263.444 46.3892 264.341C45.4942 263.71 44.6727 262.981 43.94 262.167C43.1269 261.433 42.4 260.609 41.7734 259.711Z" fill="#263238"/>
<path d="M71.1214 277.943C69.1939 280.182 66.4041 280.761 63.4621 281.051C60.5202 281.341 58.8608 280.812 55.5348 278.841C60.1289 275.718 66.4548 274.928 71.1214 277.943Z" fill="#F03226"/>
<path d="M60.4323 260.204C57.5338 261.356 54.0701 260.827 51.1934 259.675C49.741 259.114 48.4646 258.176 47.4964 256.957C46.5282 255.737 45.9033 254.282 45.6863 252.74C48.6004 252.446 51.5377 252.992 54.151 254.315C56.7642 255.638 58.9439 257.681 60.4323 260.204Z" fill="#F03226"/>
<path d="M47.0642 215.748C46.2091 212.763 47.0642 209.357 48.5134 206.603C49.2142 205.214 50.2735 204.036 51.5818 203.193C52.8902 202.349 54.4 201.871 55.9552 201.807C55.9594 204.736 55.1251 207.605 53.5509 210.076C51.9767 212.546 49.7283 214.515 47.0714 215.748" fill="#F03226"/>
<path d="M28.9541 261.639C28.7496 261.593 28.5538 261.515 28.3744 261.407C27.8675 261.139 27.4014 260.799 26.9904 260.399C25.6951 259.03 24.7222 257.389 24.1426 255.595C23.418 253.545 22.8311 251.668 22.2731 250.363C21.7152 249.059 21.2804 248.306 21.3311 248.269C21.3818 248.233 21.4905 248.429 21.7079 248.769C22.008 249.246 22.2767 249.743 22.5122 250.255C23.1427 251.552 23.7441 253.436 24.4977 255.465C25.0623 257.211 25.9743 258.826 27.1788 260.211C27.7289 260.736 28.3229 261.214 28.9541 261.639Z" fill="#263238"/>
<path d="M20.9549 264.624C21.1697 264.545 21.3937 264.494 21.6215 264.472C22.0563 264.392 22.6795 264.298 23.4548 264.196C25.0055 263.986 27.1504 263.747 29.5272 263.552C31.9039 263.356 34.0633 263.254 35.6212 263.211C36.4038 263.211 37.0704 263.211 37.4762 263.211C37.7045 263.193 37.9342 263.21 38.1574 263.262C37.3231 263.398 36.4807 263.478 35.6357 263.501L29.5561 263.95L23.4838 264.486C22.6449 264.589 21.8 264.635 20.9549 264.624Z" fill="#263238"/>
<path d="M41.2232 272.522C41.4173 272.368 41.6319 272.241 41.8609 272.146C42.2811 271.921 42.9043 271.624 43.6797 271.276C47.7406 269.475 52.0101 268.188 56.3895 267.443C57.2228 267.305 57.904 267.211 58.3822 267.16C58.6225 267.125 58.8666 267.125 59.1068 267.16C58.2211 267.401 57.3238 267.596 56.4185 267.747C54.7591 268.088 52.4838 268.617 50.0056 269.363C47.5274 270.109 45.339 270.928 43.7666 271.537C42.1942 272.146 41.2449 272.573 41.2232 272.522Z" fill="#263238"/>
<path d="M51.2368 255.617C51.4883 255.666 51.732 255.749 51.9614 255.863C52.4251 256.044 53.0918 256.334 53.8961 256.704C56.0058 257.682 58.064 258.768 60.0626 259.957C62.0611 261.142 63.9961 262.431 65.8596 263.819C66.5842 264.355 67.1349 264.798 67.519 265.124C67.7283 265.276 67.9203 265.451 68.0914 265.645C67.8545 265.54 67.6327 265.404 67.432 265.24L65.7002 264.037C64.2509 263.022 62.193 261.667 59.867 260.276C57.5409 258.885 55.3671 257.747 53.7802 256.943L51.9034 256.001C51.6662 255.901 51.4423 255.772 51.2368 255.617Z" fill="#263238"/>
<path d="M54.9111 235.32C54.9252 236.063 54.8913 236.806 54.8097 237.545C54.7227 238.914 54.643 240.805 54.6648 242.892C54.6865 244.979 54.8024 246.87 54.9111 248.233C55.0086 248.97 55.057 249.713 55.0561 250.457C54.842 249.75 54.7059 249.021 54.6503 248.283C54.4212 246.502 54.2978 244.71 54.2807 242.914C54.2657 241.121 54.3528 239.328 54.5416 237.545C54.5884 236.792 54.7122 236.047 54.9111 235.32Z" fill="#263238"/>
<path d="M45.9839 199.93L43.6651 197.321C42.6904 196.331 41.8631 195.206 41.2087 193.981C40.4844 192.315 40.2336 190.483 40.484 188.684C40.7295 186.896 41.1394 185.135 41.7087 183.423C46.0564 187.285 48.0056 194.495 45.9984 199.93" fill="#F03226"/>
<path d="M42.9838 189.828C43.3564 190.472 43.6624 191.152 43.8968 191.857C44.5331 193.535 45.0726 195.248 45.5127 196.988C45.9552 198.729 46.2915 200.495 46.52 202.277C46.6528 203.009 46.7086 203.752 46.6866 204.495C46.493 203.781 46.3502 203.055 46.2591 202.321C46.02 200.973 45.6577 199.118 45.1432 197.089C44.6287 195.06 44.0708 193.256 43.6432 191.959C43.3783 191.263 43.158 190.552 42.9838 189.828Z" fill="#263238"/>
<path d="M40.3671 235.951C40.9442 236.275 41.4921 236.648 42.0048 237.067C42.9975 237.791 44.3598 238.762 45.896 239.827C47.4322 240.893 48.7945 241.813 49.8524 242.48C50.4275 242.81 50.9709 243.194 51.4755 243.624C50.8577 243.384 50.2674 243.078 49.7147 242.711C48.6568 242.095 47.2148 241.197 45.6786 240.132C44.1424 239.067 42.7801 238.045 41.8454 237.277C41.3081 236.887 40.8127 236.443 40.3671 235.951Z" fill="#263238"/>
<path d="M39.817 217.407C40.264 217.949 40.6595 218.531 40.9981 219.147C41.6792 220.255 42.5778 221.806 43.5053 223.552C44.4328 225.299 45.2154 226.914 45.7443 228.096C46.0667 228.721 46.3264 229.376 46.5197 230.052C46.1317 229.467 45.7924 228.852 45.5052 228.212L43.1792 223.726C42.2734 222.045 41.4474 220.531 40.7735 219.284C40.4053 218.685 40.0855 218.057 39.817 217.407Z" fill="#263238"/>
<path d="M45.5856 221.292C45.5273 220.644 45.5689 219.992 45.7088 219.357C45.99 217.816 46.4775 216.319 47.158 214.908C47.831 213.501 48.596 212.141 49.4478 210.835C49.7712 210.275 50.1498 209.748 50.5782 209.263C50.3313 209.859 50.0306 210.432 49.6797 210.973C49.0928 212.009 48.2667 213.43 47.5058 215.067C46.8417 216.457 46.3291 217.915 45.9769 219.415C45.7088 220.56 45.6508 221.292 45.5856 221.292Z" fill="#263238"/>
<path d="M53.6641 189.336C54.4829 186.647 56.8235 184.481 59.2654 183.104C60.4817 182.39 61.8662 182.014 63.2762 182.014C64.6862 182.014 66.0707 182.39 67.287 183.104C65.8455 185.331 63.7966 187.098 61.3825 188.197C58.9684 189.296 56.2901 189.681 53.6641 189.307" fill="#F03226"/>
<path d="M49.8095 192.836C50.0699 192.297 50.4203 191.807 50.8457 191.387C51.8151 190.351 52.922 189.454 54.1355 188.72C55.3397 187.982 56.594 187.328 57.889 186.764C58.4088 186.491 58.9583 186.28 59.5267 186.133C59.0507 186.475 58.5408 186.766 58.005 187.003C57.0485 187.503 55.7224 188.177 54.3384 189.039C53.1529 189.769 52.0456 190.619 51.0341 191.575C50.6485 192.017 50.2397 192.438 49.8095 192.836Z" fill="#263238"/>
<path d="M62.019 278.645C62.2522 278.546 62.495 278.471 62.7436 278.421C63.2219 278.305 63.9175 278.145 64.787 277.986C67.0607 277.49 69.4177 277.519 71.6782 278.073C73.9355 278.736 75.8972 280.153 77.236 282.087C77.6349 282.666 77.9656 283.288 78.2215 283.942C78.3292 284.171 78.4001 284.416 78.4316 284.667C78.013 283.816 77.5284 283 76.9824 282.225C75.6318 280.396 73.7251 279.054 71.5477 278.399C69.3397 277.863 67.0433 277.798 64.8088 278.211C63.0769 278.508 62.019 278.703 62.019 278.645Z" fill="#263238"/>
<path d="M271.761 315.42C271.761 315.528 215.161 315.608 145.358 315.608C75.5558 315.608 18.9413 315.55 18.9413 315.42C18.9413 315.289 75.5269 315.231 145.358 315.231C215.19 315.231 271.761 315.34 271.761 315.42Z" fill="#263238"/>
<path d="M107.795 61.0778C107.795 61.0778 104.94 59.759 105.621 66.5704C106.302 73.3818 109.135 85.896 110.454 86.5554C111.773 87.2148 109.36 88.309 110.454 90.7292C111.125 92.2078 111.64 93.7524 111.99 95.3378C111.99 95.3378 108.367 105.656 108.758 108.736C109.15 111.816 112.65 133.989 111.99 137.938C111.331 141.887 112.15 145.525 112.266 149.916C112.381 154.307 110.237 163.858 110.237 163.858C110.237 163.858 99.4398 173.437 96.9616 180.626C94.4834 187.814 90.7661 199.712 89.027 203.929C87.2879 208.147 81.0562 214.074 79.8533 219.052C78.6504 224.03 74.6505 237.646 77.3751 250.044C80.0997 262.442 84.5633 279.297 89.027 281.283C93.4906 283.268 95.7225 285.746 97.4543 285.993C99.1862 286.239 132.033 310.977 146.171 311.963C160.308 312.948 175.554 295.166 180.764 289.71C185.974 284.253 198.365 255.501 198.611 250.791C198.858 246.08 201.836 230.704 198.611 221.038C195.387 211.371 194.894 196.741 191.177 186.575C187.459 176.408 195.872 165.372 186.713 148.452C186.525 148.097 184.575 142.337 184.575 142.337C184.575 142.337 184.481 97.816 181.757 92.1132C181.757 92.1132 182.742 82.1932 181.503 80.4614C180.264 78.7295 179.525 78.2295 180.264 76.4904C181.003 74.7514 181.503 69.8022 181.503 69.8022C181.503 69.8022 181.01 52.1939 177.539 52.6939C174.068 53.1939 164.127 62.3676 161.895 69.0486C161.895 69.0486 159.598 73.6789 156.822 74.1209C154.047 74.563 142.011 75.6789 138.279 76.4615C134.548 77.244 133.606 76.6136 130.961 75.6789C128.316 74.7441 125.504 74.2803 122.99 71.7877C120.475 69.295 111.932 60.0126 107.795 61.0778Z" fill="#F1463B"/>
<path d="M130.249 78.1499C130.393 78.3316 130.513 78.5314 130.604 78.7441C130.807 79.1426 131.09 79.7223 131.423 80.4397C132.104 81.8889 132.988 83.8889 133.887 86.1425C134.786 88.396 135.532 90.4902 136.061 91.9394C136.307 92.664 136.503 93.309 136.626 93.7365C136.707 93.9536 136.76 94.18 136.785 94.4104C136.405 93.6392 136.078 92.8426 135.807 92.0264C135.242 90.5771 134.452 88.4975 133.561 86.2294C132.67 83.9614 131.815 81.9542 131.206 80.4904C130.832 79.7338 130.512 78.9517 130.249 78.1499Z" fill="#263238"/>
<path d="M160.771 83.3962C159.639 85.0399 158.613 86.7534 157.698 88.5266C156.908 90.3603 156.237 92.2434 155.691 94.1641C155.696 93.5708 155.781 92.9808 155.945 92.4105C156.271 91.0164 156.745 89.6609 157.358 88.3671C157.971 87.0852 158.717 85.8709 159.582 84.744C159.915 84.2424 160.315 83.7889 160.771 83.3962Z" fill="#263238"/>
<path d="M155.497 80.983C154.769 82.5598 154.211 84.209 153.83 85.9032C153.577 87.6203 153.504 89.3592 153.613 91.0915C153.425 90.6075 153.32 90.0957 153.301 89.577C153.052 87.0655 153.522 84.5349 154.656 82.2801C154.864 81.805 155.148 81.3669 155.497 80.983Z" fill="#263238"/>
<g opacity="0.3">
<path opacity="0.3" d="M163.515 77.273C163.143 76.6666 162.899 75.9909 162.797 75.2871C162.695 74.5832 162.737 73.8659 162.921 73.1789C163.296 71.8094 163.857 70.4977 164.588 69.2804C167.066 64.6864 169.617 59.9908 173.508 56.5126C173.99 56.0314 174.568 55.6562 175.203 55.4112C175.522 55.2928 175.867 55.2599 176.202 55.3158C176.538 55.3718 176.853 55.5146 177.116 55.73C177.422 56.0698 177.643 56.477 177.761 56.9184C178.922 59.9415 179.654 63.1123 179.935 66.3385C180.208 69.5947 179.431 72.8528 177.718 75.6354C175.928 78.3382 172.848 80.2802 169.609 80.2222C168.334 80.1915 167.083 79.8685 165.952 79.278C164.822 78.6876 163.842 77.8454 163.088 76.8165" fill="black"/>
</g>
<g opacity="0.3">
<path opacity="0.3" d="M112.105 85.3745C114.531 85.7152 116.998 85.1419 119.025 83.7659C119.679 83.3682 120.245 82.8421 120.689 82.2194C121.134 81.5966 121.448 80.8902 121.612 80.1428C121.836 78.6211 121.148 77.1283 120.481 75.7443C119.473 73.4658 118.26 71.283 116.858 69.2227C115.439 67.1583 113.482 65.5219 111.199 64.491C110.213 64.0852 108.858 63.9548 108.3 64.8678C108.108 65.2585 108.025 65.6944 108.061 66.1286C108.031 70.758 108.472 75.3785 109.38 79.9181C109.837 82.1862 110.597 84.6934 112.641 85.7731" fill="black"/>
</g>
<path d="M126.51 63.4181L126.67 63.4906L126.547 63.5703C126.179 63.8035 125.862 64.1075 125.613 64.4646C125.364 64.8216 125.189 65.2245 125.097 65.6499L124.8 66.9615L124.46 65.9543C124.299 65.4719 124.029 65.0331 123.671 64.6723C123.313 64.3116 122.876 64.0385 122.395 63.8746L122.655 63.7079C123.028 63.4666 123.348 63.153 123.596 62.7859C123.845 62.4187 124.018 62.0054 124.105 61.5703L124.337 60.4254L124.793 61.5993C125.104 62.4076 125.721 63.061 126.51 63.4181Z" fill="white"/>
<g opacity="0.3">
<path opacity="0.3" d="M108.752 82.635C108.147 84.0551 107.691 85.534 107.39 87.0479C107.027 88.5769 107.165 90.4826 108.506 91.3087C109.708 92.0333 111.274 91.5406 112.542 90.9246C118.549 88.0262 123.273 83.0335 127.462 77.838C124.672 79.8525 122.027 82.6495 118.766 83.7871C115.505 84.9248 112.114 85.961 108.737 82.635" fill="black"/>
</g>
<g opacity="0.3">
<path opacity="0.3" d="M159.002 72.976C159.589 74.6861 159.988 76.4759 161.024 77.9541C162.026 79.4733 163.463 80.6552 165.147 81.3453C168.118 82.4685 171.408 81.512 174.567 81.1207C175.884 81.0341 177.191 80.8329 178.473 80.5192C179.094 80.347 179.672 80.0474 180.171 79.6394C180.67 79.2315 181.079 78.7242 181.371 78.1497L179.922 79.1787C179.922 79.1787 171.313 80.4758 165.299 77.9686C160.256 75.8454 159.002 72.976 159.002 72.976Z" fill="black"/>
</g>
<path d="M155.685 70.911C155.377 70.9691 155.063 70.991 154.75 70.9763C154.156 70.9763 153.301 71.0197 152.221 71.0777C146.648 71.3466 141.13 72.3081 135.794 73.9399C134.772 74.2515 133.946 74.5124 133.381 74.7008C133.092 74.82 132.791 74.9051 132.483 74.9544C132.751 74.7951 133.035 74.6639 133.33 74.5631C133.881 74.3312 134.7 74.0269 135.714 73.6863C141.033 71.89 146.594 70.9126 152.207 70.7878C153.279 70.7878 154.149 70.7878 154.75 70.7878C155.065 70.8003 155.378 70.8415 155.685 70.911Z" fill="#263238"/>
<path d="M107.179 179.865C102.707 187.904 100.332 196.94 100.273 206.139C100.871 202.939 102.334 199.964 104.505 197.538C102.888 203.246 101.811 209.093 101.288 215.002C102.244 213.313 103.201 211.632 104.15 209.929C102.215 222.414 105.447 235.124 109.737 247.001C114.027 258.877 119.44 270.435 122.121 282.783C123.055 287.13 123.635 291.688 122.258 295.891C121.2 299.108 119.048 301.927 118.353 305.239C117.657 308.55 117.469 315.079 120.845 315.296H143.468C144.381 308.775 143.374 302.014 140.714 295.007L139.656 251.254L136.033 244.907C136.033 244.907 139.417 249.349 141.323 249.979L135.613 240.675L138.157 242.124C138.157 242.124 134.765 235.146 134.345 230.53C133.925 225.914 134.765 221.835 134.765 221.016" fill="#F1463B"/>
<path d="M134.793 221.03C134.804 221.151 134.804 221.272 134.793 221.393C134.793 221.639 134.721 221.994 134.67 222.465C134.561 223.414 134.394 224.82 134.336 226.668C134.216 228.947 134.438 231.231 134.996 233.443C135.828 236.434 136.927 239.344 138.278 242.139L138.409 242.421L138.104 242.233L135.561 240.784L135.699 240.646C137.409 243.421 139.322 246.552 141.423 249.936L141.604 250.225L141.286 250.109C140.725 249.884 140.21 249.56 139.764 249.153C139.293 248.759 138.845 248.338 138.423 247.892C137.542 246.97 136.71 246.003 135.931 244.994L136.148 244.856L139.771 251.189V251.225C140.083 263.826 140.452 278.681 140.858 294.985V294.927C142.074 298.095 142.958 301.381 143.496 304.731C144.052 308.23 144.093 311.792 143.619 315.303V315.463H121.677C121.251 315.485 120.823 315.459 120.402 315.383C119.961 315.28 119.557 315.057 119.235 314.738C118.642 314.09 118.241 313.29 118.076 312.427C117.886 311.592 117.782 310.739 117.764 309.883C117.71 308.166 117.878 306.449 118.264 304.775C118.736 303.11 119.392 301.504 120.221 299.985C120.714 299 121.214 298.014 121.627 297.014C122.044 296.013 122.357 294.971 122.561 293.905C122.937 291.778 122.99 289.607 122.721 287.464C122.468 285.337 122.078 283.229 121.554 281.152C121.071 279.08 120.516 277.036 119.888 275.022C117.438 266.971 114.25 259.414 111.438 252.044C108.627 244.675 106.149 237.458 104.765 230.342C103.317 223.62 103.059 216.696 104.004 209.886L104.279 209.98L101.417 215.052L101.084 215.625L101.149 214.965C101.675 209.05 102.76 203.198 104.388 197.488L104.598 197.603C102.436 200.009 100.975 202.961 100.374 206.139H100.163C100.224 199.364 101.541 192.659 104.047 186.365C104.917 184.191 105.728 182.568 106.286 181.481L106.946 180.271L107.178 179.865C107.178 179.865 107.112 180.01 106.975 180.285C106.837 180.56 106.613 180.973 106.337 181.51C105.801 182.604 105.004 184.22 104.163 186.408C101.709 192.699 100.43 199.387 100.388 206.139H100.178C100.768 202.905 102.24 199.896 104.431 197.444L104.779 197.046L104.642 197.56C103.029 203.26 101.959 209.1 101.446 215.002L101.178 214.915L104.033 209.842L104.439 209.118L104.315 209.929C103.385 216.706 103.652 223.593 105.105 230.277C106.497 237.363 108.953 244.559 111.786 251.914C114.62 259.269 117.815 266.87 120.243 274.949C120.866 276.973 121.424 279.024 121.916 281.101C122.443 283.193 122.837 285.315 123.098 287.456C123.364 289.626 123.308 291.824 122.931 293.978C122.723 295.065 122.405 296.129 121.982 297.152C121.554 298.181 121.054 299.166 120.532 300.152C119.718 301.645 119.074 303.225 118.612 304.862C118.233 306.503 118.065 308.185 118.112 309.869C118.135 310.698 118.24 311.523 118.424 312.333C118.568 313.129 118.932 313.869 119.475 314.47C119.748 314.74 120.092 314.928 120.467 315.014C120.863 315.09 121.268 315.114 121.67 315.086H143.467L143.286 315.238C143.753 311.763 143.711 308.238 143.162 304.775C142.638 301.446 141.763 298.181 140.554 295.036C140.177 278.732 139.829 263.877 139.532 251.276V251.341C138.271 249.117 137.054 246.994 135.945 244.994L136.163 244.849C136.932 245.858 137.754 246.825 138.626 247.747C139.042 248.185 139.479 248.601 139.938 248.993C140.366 249.379 140.856 249.69 141.387 249.914L141.249 250.088L135.554 240.776L135.344 240.436L135.692 240.639L138.228 242.124L138.104 242.233C136.762 239.425 135.674 236.503 134.851 233.501C134.302 231.275 134.094 228.978 134.235 226.69C134.307 224.835 134.496 223.429 134.619 222.48C134.742 221.53 134.793 221.03 134.793 221.03Z" fill="#263238"/>
<path d="M128.866 315.311C128.808 315.311 129.047 314.68 129.271 313.673C129.569 312.364 129.647 311.015 129.503 309.68C129.141 306.521 127.598 304.326 127.735 304.275C128.124 304.703 128.44 305.193 128.67 305.724C129.308 306.954 129.715 308.29 129.873 309.666C130.03 311.042 129.914 312.436 129.532 313.767C129.401 314.316 129.175 314.839 128.866 315.311Z" fill="#263238"/>
<path d="M135.598 315.311C135.701 314.758 135.837 314.211 136.003 313.673C136.301 312.364 136.377 311.015 136.228 309.68C135.873 306.521 134.329 304.326 134.467 304.275C134.853 304.706 135.169 305.195 135.402 305.724C136.036 306.955 136.444 308.29 136.605 309.666C136.761 311.042 136.646 312.436 136.264 313.767C136.133 314.316 135.907 314.839 135.598 315.311Z" fill="#263238"/>
<path d="M187.335 191.372C188.118 197.654 189.509 208.951 187.335 218.835C185.161 228.719 183.096 231.704 180.589 239.849C178.082 247.994 173.843 265.109 173.843 265.109C173.843 265.109 171.328 270.602 168.662 276.247C165.995 281.891 166.154 301.985 166.053 303.058C165.886 304.898 168.017 306.181 168.647 307.92C169.372 309.884 169.951 312.188 168.85 313.963C168.105 314.989 167.07 315.769 165.879 316.202C162.232 317.771 158.242 318.371 154.295 317.944C150.348 317.518 146.578 316.079 143.351 313.768L142.198 284.783" fill="#F1463B"/>
<path d="M142.198 284.775C142.198 284.775 142.198 284.949 142.198 285.283C142.198 285.616 142.249 286.138 142.278 286.783C142.343 288.116 142.43 290.058 142.546 292.58C142.764 297.594 143.068 304.833 143.452 313.768L143.394 313.666C146.989 316.231 151.25 317.7 155.662 317.898C158.105 318.012 160.55 317.74 162.908 317.094C164.128 316.745 165.315 316.294 166.459 315.746C167.044 315.504 167.576 315.147 168.021 314.697C168.467 314.246 168.817 313.711 169.053 313.123C169.387 311.851 169.331 310.508 168.893 309.268C168.716 308.622 168.473 307.995 168.169 307.398C167.801 306.822 167.397 306.27 166.959 305.746C166.482 305.201 166.126 304.562 165.915 303.869C165.839 303.51 165.819 303.141 165.857 302.775V301.724C165.857 300.311 165.908 298.884 165.93 297.449C166.009 294.551 166.118 291.652 166.328 288.681C166.501 285.671 166.862 282.675 167.408 279.71C167.524 279.036 167.72 278.377 167.893 277.718C167.99 277.388 168.103 277.064 168.234 276.747C168.349 276.426 168.482 276.111 168.633 275.805L170.321 272.182L173.625 265.088C174.93 259.856 176.234 254.791 177.531 249.936C178.828 245.081 180.096 240.429 181.618 236.11C182.342 233.936 183.19 231.885 183.929 229.864C184.668 227.842 185.321 225.871 185.871 223.944C186.925 220.394 187.653 216.756 188.045 213.074C188.479 207.766 188.421 202.43 187.871 197.133C187.697 195.27 187.531 193.828 187.429 192.857C187.378 192.379 187.335 192.017 187.306 191.749C187.277 191.481 187.306 191.372 187.306 191.372C187.306 191.372 187.306 191.502 187.371 191.749L187.523 192.85C187.654 193.821 187.835 195.256 188.031 197.118C188.635 202.411 188.732 207.749 188.32 213.06C187.931 216.766 187.203 220.428 186.147 224.002C185.603 225.936 184.951 227.929 184.219 229.951C183.487 231.972 182.676 234.045 181.929 236.197C180.422 240.501 179.183 245.16 177.879 250.008C176.574 254.856 175.285 259.921 173.987 265.153L170.69 272.254L169.002 275.877C168.856 276.176 168.727 276.483 168.618 276.797C168.489 277.105 168.377 277.419 168.285 277.739C168.111 278.384 167.922 279.029 167.806 279.703C167.265 282.652 166.905 285.631 166.727 288.623C166.524 291.58 166.408 294.5 166.336 297.369C166.307 298.819 166.278 300.244 166.249 301.645V302.703C166.213 303.036 166.231 303.374 166.299 303.703C166.5 304.344 166.833 304.937 167.278 305.442C167.724 305.977 168.135 306.541 168.509 307.13C168.816 307.754 169.059 308.407 169.234 309.079C169.687 310.389 169.737 311.805 169.379 313.144C169.159 313.8 168.774 314.389 168.263 314.854C167.765 315.3 167.206 315.673 166.604 315.963C165.438 316.521 164.225 316.977 162.981 317.325C160.598 317.975 158.128 318.246 155.662 318.13C151.19 317.917 146.877 316.406 143.249 313.782H143.198V313.717C142.872 304.775 142.604 297.536 142.416 292.522C142.336 290.022 142.271 288.087 142.22 286.725C142.22 286.073 142.22 285.573 142.22 285.225C142.22 284.877 142.198 284.775 142.198 284.775Z" fill="#263238"/>
<path d="M146.482 292.406C146.459 292.343 146.447 292.277 146.446 292.21C146.446 292.058 146.402 291.869 146.366 291.63C146.301 291.123 146.236 290.362 146.156 289.391C145.982 286.636 145.982 283.872 146.156 281.116C146.359 277.623 146.881 273.486 147.504 268.913C147.83 266.631 148.149 264.225 148.62 261.747C149.078 259.179 149.822 256.671 150.837 254.269C152.105 251.37 154.018 248.899 155.743 246.566C157.472 244.42 158.861 242.02 159.859 239.45L160.141 239.617L156.46 243.4L156.235 243.189C157.708 241.588 158.914 239.76 159.808 237.777C160.5 236.263 161.008 234.672 161.322 233.038C161.524 231.995 161.65 230.939 161.699 229.878C161.699 229.53 161.699 229.255 161.699 229.038C161.69 228.944 161.69 228.849 161.699 228.755C161.712 228.849 161.712 228.944 161.699 229.038C161.699 229.226 161.699 229.509 161.699 229.878C161.609 234.881 159.715 239.682 156.366 243.4L156.148 243.189L159.808 239.385L160.315 238.849L160.083 239.574C159.092 242.191 157.695 244.636 155.946 246.82C154.221 249.168 152.322 251.588 151.091 254.457C150.094 256.835 149.365 259.317 148.917 261.856C148.439 264.312 148.12 266.718 147.786 269C147.12 273.566 146.591 277.696 146.337 281.167C146.129 283.913 146.081 286.669 146.192 289.42C146.243 290.391 146.279 291.152 146.33 291.659C146.33 291.898 146.33 292.094 146.366 292.246C146.412 292.293 146.451 292.347 146.482 292.406Z" fill="#263238"/>
<path d="M147.707 240.863C147.418 240.221 147.197 239.551 147.047 238.863C146.699 237.61 146.272 235.856 145.902 233.907C145.533 231.958 145.272 230.168 145.134 228.878C145.022 228.181 144.98 227.475 145.011 226.769C145.193 227.45 145.324 228.142 145.402 228.842C145.605 230.124 145.895 231.892 146.272 233.834C146.649 235.776 146.996 237.53 147.308 238.798C147.492 239.476 147.625 240.166 147.707 240.863Z" fill="#263238"/>
<path d="M148.416 238.61C148.202 236.797 148.11 234.971 148.14 233.146C148.044 231.322 148.078 229.494 148.242 227.675C148.456 229.488 148.548 231.313 148.517 233.139C148.613 234.963 148.579 236.791 148.416 238.61Z" fill="#263238"/>
<path d="M153.83 224.646C153.91 225.23 153.91 225.823 153.83 226.407C153.598 229.231 152.887 231.995 151.729 234.581C151.519 235.129 151.239 235.648 150.895 236.124C150.787 236.073 151.953 233.668 152.758 230.487C153.103 229.133 153.371 227.762 153.562 226.378C153.605 225.795 153.695 225.215 153.83 224.646Z" fill="#263238"/>
<path d="M157.351 219.045C157.452 219.731 157.467 220.427 157.395 221.117C157.305 222.788 157.062 224.447 156.67 226.074C156.276 227.698 155.733 229.282 155.047 230.805C154.789 231.441 154.453 232.042 154.047 232.595C154.248 231.938 154.49 231.295 154.772 230.668C155.996 227.59 156.784 224.356 157.112 221.059C157.152 220.384 157.232 219.711 157.351 219.045Z" fill="#263238"/>
<path d="M162.141 213.19C162.256 213.777 162.287 214.377 162.235 214.973C162.193 216.409 162.001 217.837 161.663 219.233C161.316 220.631 160.831 221.99 160.214 223.291C159.987 223.844 159.682 224.361 159.308 224.827C160.092 222.979 160.753 221.082 161.286 219.146C161.697 217.181 161.983 215.192 162.141 213.19Z" fill="#263238"/>
<path d="M166.872 210.545C166.93 211.145 166.903 211.75 166.792 212.342C166.621 213.785 166.326 215.211 165.908 216.603C165.497 217.995 164.969 219.35 164.329 220.654C164.092 221.209 163.782 221.73 163.409 222.204C163.595 221.634 163.82 221.077 164.082 220.538C164.639 219.217 165.123 217.867 165.532 216.494C165.931 215.116 166.258 213.718 166.51 212.306C166.585 211.71 166.706 211.122 166.872 210.545Z" fill="#263238"/>
<path d="M170.712 205.277C170.765 206.004 170.729 206.734 170.603 207.451C170.169 210.883 169.085 214.201 167.408 217.226C167.086 217.866 166.692 218.466 166.234 219.016C166.507 218.36 166.819 217.722 167.169 217.103C167.928 215.574 168.577 213.993 169.111 212.371C169.64 210.752 170.049 209.095 170.335 207.415C170.418 206.696 170.544 205.982 170.712 205.277Z" fill="#263238"/>
<path d="M173.046 203.32C173.183 203.892 173.246 204.479 173.234 205.067C173.338 207.905 173.02 210.742 172.292 213.487C172.173 214.062 171.981 214.62 171.72 215.146C171.77 214.563 171.874 213.986 172.031 213.422C172.249 212.364 172.517 210.9 172.698 209.27C172.879 207.639 172.944 206.146 172.966 205.067C172.939 204.483 172.965 203.899 173.046 203.32Z" fill="#263238"/>
<path d="M144.626 190.401C146.169 189.131 147.545 187.67 148.72 186.053C149.786 184.354 150.629 182.525 151.227 180.611C151.211 181.21 151.096 181.803 150.886 182.365C150.468 183.75 149.842 185.064 149.031 186.263C148.229 187.464 147.252 188.538 146.133 189.451C145.685 189.847 145.176 190.168 144.626 190.401Z" fill="#263238"/>
<path d="M147.525 192.553C147.431 192.488 148.765 190.538 149.852 187.857C150.938 185.176 151.366 182.85 151.482 182.872C151.498 183.393 151.437 183.913 151.301 184.415C151.048 185.655 150.679 186.868 150.199 188.039C149.73 189.196 149.152 190.307 148.475 191.357C148.222 191.803 147.902 192.206 147.525 192.553Z" fill="#263238"/>
<path d="M149.445 197.676C149.414 197.05 149.456 196.423 149.568 195.806C149.699 194.661 149.93 193.082 150.249 191.35C150.568 189.618 150.916 188.067 151.198 186.944C151.318 186.332 151.502 185.734 151.749 185.162C151.709 185.783 151.612 186.399 151.459 187.002C151.22 188.27 150.938 189.763 150.619 191.422C150.3 193.082 150.054 194.582 149.829 195.85C149.758 196.469 149.63 197.081 149.445 197.676Z" fill="#263238"/>
<path d="M152.597 198.379C152.5 197.848 152.481 197.306 152.539 196.77C152.584 195.476 152.712 194.185 152.923 192.908C153.134 191.633 153.422 190.372 153.786 189.132C153.908 188.606 154.1 188.099 154.358 187.625C154.467 187.625 153.771 190.002 153.293 192.973C152.815 195.944 152.728 198.386 152.597 198.379Z" fill="#263238"/>
<path d="M156.575 199.48C156.262 199.061 156.017 198.593 155.851 198.096C154.934 195.771 154.502 193.283 154.583 190.785C154.567 190.264 154.628 189.744 154.764 189.241C154.887 189.241 154.713 191.611 155.22 194.459C155.588 196.154 156.04 197.83 156.575 199.48Z" fill="#263238"/>
<path d="M158.431 193.27C158.127 192.91 157.882 192.504 157.706 192.067C157.191 191.05 156.783 189.981 156.489 188.879C156.195 187.777 156.013 186.648 155.945 185.51C155.878 185.027 155.898 184.536 156.003 184.06C156.119 184.06 156.163 186.234 156.858 188.749C157.554 191.263 158.539 193.212 158.431 193.27Z" fill="#263238"/>
<path d="M160.917 193.263C160.523 192.759 160.187 192.212 159.917 191.633C159.359 190.596 158.642 189.133 157.953 187.473C157.265 185.814 156.729 184.27 156.388 183.126C156.166 182.527 156.015 181.904 155.939 181.271C156.229 181.839 156.471 182.43 156.663 183.039C157.069 184.147 157.634 185.662 158.323 187.314C159.011 188.966 159.685 190.437 160.178 191.502C160.475 192.067 160.722 192.656 160.917 193.263Z" fill="#263238"/>
<path d="M152.257 211.429C152.137 210.467 152.137 209.493 152.257 208.531C152.258 207.553 152.379 206.58 152.619 205.632C152.749 206.594 152.749 207.569 152.619 208.531C152.622 209.508 152.5 210.482 152.257 211.429Z" fill="#263238"/>
<path d="M152.794 215.48C152.685 215.437 153.584 213.306 154.243 210.611C154.902 207.915 154.968 205.603 155.12 205.611C155.196 206.108 155.196 206.614 155.12 207.111C155.037 208.316 154.858 209.513 154.584 210.69C154.311 211.87 153.943 213.026 153.482 214.147C153.323 214.624 153.091 215.074 152.794 215.48Z" fill="#263238"/>
<g opacity="0.3">
<path opacity="0.3" d="M127.409 225.334C123.699 223.653 119.561 223.211 115.619 222.19C111.677 221.168 107.649 219.342 105.533 215.856C105.207 215.327 104.772 214.675 104.156 214.777C103.54 214.878 103.323 215.791 103.381 216.48C103.572 218.589 104.22 220.631 105.279 222.465V222.422C105.808 224.226 107.243 226.711 108.902 227.617C110.593 228.451 112.386 229.06 114.235 229.429L134.626 234.436C134.481 230.363 131.119 227.016 127.409 225.334Z" fill="black"/>
</g>
<g opacity="0.3">
<path opacity="0.3" d="M109.571 246.4C112.324 251.392 118.121 253.863 123.672 255.182C129.222 256.501 135.07 257.073 140.077 259.812C139.78 256.189 136.657 253.327 133.288 251.921C129.918 250.515 126.208 250.146 122.701 249.139C116.722 247.424 111.433 243.875 107.578 238.994C107.861 242.367 109.415 245.506 111.926 247.776" fill="black"/>
</g>
<g opacity="0.3">
<path opacity="0.3" d="M114.656 259.305C116.968 259.522 119.388 259.768 121.308 261.08C124.083 262.971 125.105 266.573 127.417 269.007C125.967 269.5 124.467 268.638 123.199 267.804L115.374 262.696" fill="black"/>
</g>
<g opacity="0.3">
<path opacity="0.3" d="M153.8 249.761L153.923 249.653L154.648 248.631L153.8 249.761Z" fill="black"/>
</g>
<g opacity="0.3">
<path opacity="0.3" d="M168.538 243.154C163.393 244.712 157.908 246.052 153.93 249.675C152.543 251.705 151.347 253.859 150.358 256.11C157.372 252.885 165.154 253.849 172.031 250.349C174.914 248.834 177.353 246.594 179.106 243.849C180.86 241.105 181.868 237.95 182.031 234.697C179.212 239.335 173.734 241.574 168.538 243.154Z" fill="black"/>
</g>
<g opacity="0.3">
<path opacity="0.3" d="M161.8 232.617C162.213 229.675 164.336 227.204 166.836 225.588C169.336 223.972 172.191 223.038 174.974 221.965C177.756 220.893 180.539 219.632 182.611 217.502C182.421 221.311 180.914 224.937 178.347 227.758C175.78 230.58 172.314 232.423 168.539 232.972C166.155 233.32 163.713 233.139 161.344 233.537L161.699 232.595" fill="black"/>
</g>
<g opacity="0.3">
<path opacity="0.3" d="M186.974 178.467C181.902 180.735 179.047 185.996 176.185 190.735C173.322 195.474 169.518 200.43 164.04 201.256C168.098 201.589 172.127 199.988 175.438 197.633C178.75 195.278 181.46 192.162 184.134 189.09C186.395 186.488 188.771 183.633 189.025 180.199C189.068 179.945 189.058 179.686 188.996 179.436C188.933 179.187 188.82 178.953 188.663 178.749C188.293 178.387 187.503 178.481 187.431 178.996" fill="black"/>
</g>
<g opacity="0.3">
<path opacity="0.3" d="M135.93 220.726C138.263 218.82 139.169 215.589 138.988 212.589C138.806 209.589 137.683 206.719 136.575 203.893C135.69 201.661 134.77 199.364 133.075 197.661C128.625 193.198 121.053 194.589 115.329 191.959C116.742 195.212 119.981 197.256 123.176 198.792C126.372 200.328 129.799 201.632 132.285 204.161C136.632 208.574 138.748 213.118 135.908 220.697" fill="black"/>
</g>
<path d="M92.4547 283.319C88.3172 288.341 88.7809 295.71 90.4765 302C91.5127 305.847 93.0199 309.739 95.9402 312.449C100.599 316.796 107.737 317.115 113.99 315.956C132.99 312.427 148.772 297.116 154.866 278.761C156.142 274.957 157.04 270.935 156.627 266.935C156.214 262.935 154.294 258.964 150.917 256.791C147.54 254.617 142.642 254.682 139.801 257.515C137.845 259.464 137.106 262.29 136.367 264.957C134.852 270.377 132.939 275.826 129.592 280.334C126.244 284.841 121.273 288.449 115.664 289.029C107.621 289.862 100.542 283.536 92.4765 283.333" fill="#F1463B"/>
<path d="M92.4539 283.319H92.9973C93.5313 283.338 94.0636 283.389 94.5915 283.471C96.6182 283.78 98.6039 284.315 100.512 285.065C101.765 285.522 103.142 286.08 104.649 286.666C106.276 287.323 107.941 287.882 109.635 288.34C111.579 288.865 113.599 289.048 115.605 288.884C117.846 288.635 120.016 287.946 121.989 286.855C124.166 285.659 126.125 284.106 127.786 282.261C129.581 280.254 131.092 278.011 132.279 275.594C133.549 273 134.601 270.305 135.424 267.537C135.873 266.087 136.257 264.638 136.685 263.189C137.08 261.661 137.69 260.198 138.496 258.841C139.365 257.448 140.643 256.357 142.156 255.718C143.71 255.1 145.4 254.905 147.054 255.153C148.743 255.387 150.343 256.054 151.699 257.088C153.061 258.172 154.182 259.529 154.989 261.073C155.817 262.618 156.38 264.291 156.655 266.022C156.929 267.775 156.968 269.556 156.771 271.319C156.302 274.9 155.357 278.402 153.96 281.732C151.328 288.346 147.515 294.425 142.706 299.673C142.416 299.992 142.141 300.318 141.844 300.63L140.931 301.528C140.322 302.115 139.735 302.739 139.105 303.297C137.83 304.398 136.598 305.536 135.25 306.499C132.687 308.478 129.943 310.211 127.054 311.673C125.605 312.354 124.236 313.064 122.786 313.586C122.062 313.854 121.337 314.166 120.613 314.398L118.439 315.057C118.084 315.166 117.714 315.289 117.366 315.376L116.287 315.622L114.113 316.108C112.707 316.377 111.287 316.558 109.859 316.651C107.142 316.872 104.407 316.627 101.772 315.927C99.3328 315.257 97.1083 313.966 95.3161 312.18C93.7515 310.495 92.5219 308.528 91.693 306.383C90.9491 304.5 90.3531 302.562 89.9104 300.586C89.1298 297.427 88.8994 294.157 89.2293 290.92C89.3836 289.745 89.6505 288.588 90.0264 287.464C90.3221 286.646 90.6882 285.856 91.1206 285.101L91.6133 284.319L92.0191 283.783L92.3597 283.362C92.3597 283.362 92.2582 283.514 92.0481 283.804C91.9466 283.954 91.8162 284.135 91.6568 284.348L91.1858 285.145C90.7652 285.896 90.4135 286.685 90.1351 287.5C89.7689 288.617 89.5141 289.767 89.3742 290.934C89.0668 294.155 89.3119 297.405 90.0988 300.543C90.5458 302.507 91.1467 304.434 91.8959 306.304C92.7181 308.405 93.9357 310.328 95.4828 311.97C97.2475 313.717 99.4343 314.978 101.83 315.63C104.427 316.324 107.122 316.569 109.801 316.354C111.217 316.258 112.626 316.075 114.019 315.803L116.142 315.318L117.221 315.072C117.576 314.985 117.946 314.861 118.279 314.753L120.453 314.093C121.178 313.861 121.866 313.55 122.576 313.282C124.023 312.721 125.44 312.088 126.823 311.383C129.686 309.921 132.408 308.196 134.953 306.231C136.293 305.267 137.511 304.137 138.779 303.043C139.409 302.485 139.982 301.869 140.59 301.282L141.496 300.384C141.793 300.079 142.069 299.753 142.358 299.442C147.127 294.219 150.912 288.178 153.532 281.609C154.949 278.29 155.912 274.794 156.394 271.218C156.589 269.486 156.555 267.737 156.293 266.015C156.019 264.325 155.468 262.692 154.662 261.182C153.871 259.703 152.78 258.405 151.46 257.37C150.152 256.373 148.61 255.729 146.982 255.501C145.392 255.261 143.767 255.446 142.271 256.037C140.821 256.64 139.596 257.685 138.772 259.022C137.979 260.344 137.379 261.771 136.989 263.261C136.561 264.71 136.17 266.196 135.721 267.609C134.888 270.391 133.824 273.098 132.54 275.703C131.334 278.141 129.8 280.404 127.982 282.427C126.297 284.293 124.307 285.859 122.098 287.058C120.082 288.166 117.865 288.858 115.576 289.094C113.544 289.252 111.499 289.056 109.533 288.514C107.833 288.048 106.163 287.477 104.533 286.804C103.026 286.21 101.635 285.638 100.41 285.174C98.5223 284.421 96.5595 283.872 94.5553 283.536C94.0329 283.444 93.5053 283.383 92.9756 283.355L92.4539 283.319Z" fill="#263238"/>
<g opacity="0.3">
<path opacity="0.3" d="M156.707 264.986C157.163 277.464 150.185 289.978 145.359 296.014C142.185 299.97 138.258 303.26 134.352 306.463C132.055 308.361 129.396 310.898 126.526 311.687C132.802 311.253 138.359 307.485 142.997 303.231C147.006 299.703 150.353 295.487 152.881 290.782C155.301 286.079 160.084 271.152 156.707 264.986Z" fill="black"/>
</g>
<path d="M89.6575 246.399C89.4038 245.627 89.1957 244.841 89.0343 244.044C88.6647 242.595 88.114 240.573 87.3821 238.4C86.6503 236.226 85.8604 234.298 85.2663 232.914C84.9046 232.178 84.5946 231.418 84.3387 230.639C84.4802 230.809 84.5995 230.997 84.6938 231.197C84.9039 231.566 85.1793 232.11 85.5126 232.791C86.3658 234.567 87.1087 236.394 87.7372 238.262C88.3684 240.13 88.8886 242.035 89.2951 243.965C89.4401 244.689 89.5488 245.312 89.6067 245.733C89.6605 245.951 89.6777 246.176 89.6575 246.399Z" fill="#263238"/>
<path d="M91.294 243.74C91.1853 243.74 90.6274 241.392 89.6129 238.574C88.5984 235.755 87.555 233.545 87.6564 233.501C87.9882 233.924 88.2612 234.389 88.468 234.885C89.0351 236.044 89.5359 237.235 89.968 238.45C90.4027 239.667 90.7657 240.908 91.0549 242.168C91.2057 242.679 91.2861 243.208 91.294 243.74Z" fill="#263238"/>
<path d="M93.4244 246.79C92.4239 243.998 91.6651 241.126 91.1563 238.204C92.1567 240.996 92.9155 243.869 93.4244 246.79Z" fill="#263238"/>
<path d="M95.8095 248.45C94.7993 245.942 94.0301 243.343 93.5125 240.689C94.0756 241.919 94.5197 243.201 94.8385 244.515C95.2847 245.794 95.6098 247.111 95.8095 248.45Z" fill="#263238"/>
<path d="M99.3096 250.696C98.6988 249.79 98.1932 248.818 97.8024 247.798C97.2987 246.833 96.9119 245.811 96.6502 244.754C97.2621 245.658 97.7655 246.631 98.1502 247.653C98.6503 248.62 99.0392 249.641 99.3096 250.696Z" fill="#263238"/>
<path d="M101.526 252.957C100.932 251.832 100.447 250.652 100.076 249.435C99.6039 248.267 99.2518 247.053 99.0258 245.812C99.6097 246.935 100.083 248.112 100.439 249.327C100.923 250.497 101.287 251.713 101.526 252.957Z" fill="#263238"/>
<path d="M104.251 169.604C102.594 171.842 100.476 173.697 98.0389 175.043C95.6021 176.39 92.9042 177.197 90.1282 177.409C91.5668 178.091 93.1548 178.398 94.744 178.3C93.166 179.392 91.2785 179.949 89.3601 179.887C90.3058 180.722 91.4562 181.29 92.6937 181.535C93.9312 181.779 95.2114 181.691 96.4034 181.278C98.7934 180.42 100.832 178.794 102.2 176.655C103.554 174.531 104.646 172.251 105.454 169.865" fill="#F1463B"/>
<path d="M155.372 317.803C155.307 317.803 155.43 317.079 155.437 315.934C155.445 314.443 155.212 312.96 154.749 311.543C154.279 310.127 153.582 308.798 152.684 307.608C151.995 306.688 151.474 306.159 151.524 306.159C152.05 306.511 152.513 306.95 152.894 307.456C154.87 309.833 155.874 312.869 155.705 315.956C155.697 316.586 155.584 317.21 155.372 317.803Z" fill="#263238"/>
<path d="M165.901 316.629C165.836 316.629 165.901 315.905 165.822 314.687C165.727 313.139 165.422 311.611 164.916 310.144C164.635 309.341 164.291 308.56 163.887 307.811C163.579 307.192 163.197 306.613 162.749 306.086C162.327 305.612 161.775 305.272 161.162 305.108C161.162 305.108 161.358 305.057 161.691 305.108C162.166 305.248 162.596 305.511 162.938 305.869C163.433 306.392 163.854 306.979 164.191 307.615C164.624 308.372 164.985 309.168 165.271 309.992C165.794 311.491 166.07 313.064 166.09 314.651C166.128 315.316 166.065 315.984 165.901 316.629Z" fill="#263238"/>
<path d="M119.561 83.5774C119.827 83.5939 120.088 83.6501 120.337 83.7441C121.036 83.9378 121.721 84.1799 122.387 84.4687C123.39 84.875 124.359 85.3596 125.286 85.9179C126.41 86.6078 127.474 87.3907 128.467 88.2584C129.448 89.1485 130.355 90.1179 131.177 91.1569C131.845 91.9998 132.446 92.8939 132.974 93.8308C133.338 94.4548 133.658 95.1038 133.931 95.7727C134.043 96.0045 134.13 96.2473 134.191 96.4974C134.126 96.4974 133.691 95.4829 132.742 93.9322C132.19 93.0295 131.578 92.1652 130.909 91.3453C129.27 89.3274 127.312 87.5919 125.112 86.2078C124.212 85.6467 123.278 85.1432 122.315 84.7006C120.627 83.947 119.54 83.6426 119.561 83.5774Z" fill="#263238"/>
<path d="M153.597 143.301C153.466 143.47 153.312 143.621 153.141 143.75C152.685 144.134 152.2 144.482 151.692 144.793C149.868 145.889 147.802 146.518 145.677 146.627L144.677 146.678L145.605 146.293C147.487 145.515 149.218 144.414 150.721 143.04C150.924 142.859 151.112 142.67 151.293 142.496L151.489 142.808C148.277 143.869 144.826 143.977 141.554 143.12C140.581 142.868 139.635 142.524 138.728 142.091C138.402 141.946 138.17 141.801 138.004 141.714C137.917 141.673 137.836 141.619 137.764 141.554C139.018 142.08 140.306 142.519 141.619 142.866C144.844 143.628 148.217 143.486 151.366 142.453L152.134 142.192L151.561 142.765C151.38 142.946 151.184 143.134 150.974 143.323C149.431 144.717 147.649 145.821 145.714 146.583L145.641 146.25C147.719 146.162 149.749 145.591 151.568 144.583C152.902 143.866 153.561 143.257 153.597 143.301Z" fill="#263238"/>
<path d="M158.815 142.344C158.895 142.409 158.626 142.909 158.213 143.46C157.8 144.011 157.395 144.409 157.308 144.351C157.221 144.293 157.496 143.786 157.909 143.235C158.322 142.685 158.728 142.279 158.815 142.344Z" fill="#263238"/>
<path d="M163.467 138.837C162.742 140.829 161.318 142.49 159.46 143.511C159.394 143.424 160.503 142.583 161.597 141.293C162.691 140.004 163.387 138.786 163.467 138.837Z" fill="#263238"/>
<path d="M157.75 107.033C158.036 108.073 158.539 109.041 159.227 109.872C159.914 110.704 160.77 111.38 161.737 111.857C162.705 112.334 163.762 112.6 164.841 112.639C165.919 112.677 166.993 112.487 167.992 112.08C168.991 111.674 169.893 111.06 170.638 110.28C171.382 109.5 171.954 108.57 172.313 107.553C172.673 106.536 172.813 105.455 172.725 104.38C172.636 103.305 172.321 102.26 171.8 101.316C171.8 101.316 166.916 98.8667 163.416 100.743C159.916 102.62 157.75 107.033 157.75 107.033Z" fill="white"/>
<path d="M163.409 100.642C164.728 99.6856 168.481 100.309 168.481 100.309C169.764 103.099 170.293 106.526 168.742 109.178C168.356 109.729 167.856 110.19 167.276 110.53C166.696 110.87 166.049 111.081 165.38 111.149C164.778 111.105 164.194 110.922 163.676 110.612C163.157 110.302 162.718 109.876 162.394 109.366C161.098 107.415 160.243 105.204 159.887 102.888C159.887 102.888 162.083 101.591 163.409 100.642Z" fill="#F03226"/>
<path d="M164.082 101.968C164.126 101.859 164.271 101.613 164.271 101.613L164.575 101.83C165.64 102.613 165.973 104.403 166.075 105.722C166.192 106.802 166.022 107.894 165.582 108.888C165.517 109.076 165.423 109.287 165.234 109.337C164.915 109.432 164.691 109.048 164.589 108.736C163.865 106.548 163.292 104.135 164.082 101.968Z" fill="#263238"/>
<path d="M156.156 113.772C156.025 113.729 156.04 113.316 156.119 112.584C156.199 111.852 156.33 110.816 156.525 109.511C156.74 107.929 157.146 106.379 157.735 104.896C158.118 103.976 158.636 103.119 159.272 102.352C159.992 101.521 160.875 100.845 161.866 100.367C163.728 99.4887 165.8 99.1546 167.844 99.4029C169.425 99.5892 170.979 99.9588 172.474 100.504C175.003 101.432 176.38 102.367 176.286 102.584C176.191 102.801 174.619 102.345 172.105 101.787C169.59 101.229 165.974 100.454 162.685 102.055C161.916 102.427 161.225 102.941 160.648 103.569C160.109 104.19 159.656 104.879 159.301 105.62C158.702 106.971 158.218 108.37 157.851 109.801C157.579 110.813 157.245 111.808 156.851 112.779C156.525 113.468 156.272 113.816 156.156 113.772Z" fill="#263238"/>
<path d="M159.539 105.903C160.394 105.059 161.541 104.576 162.742 104.555C162.88 104.54 163.02 104.576 163.133 104.657C163.189 104.724 163.226 104.806 163.24 104.892C163.254 104.979 163.245 105.068 163.213 105.149C163.067 105.697 162.734 106.177 162.271 106.504C161.809 106.824 161.286 107.046 160.735 107.157C160.397 107.269 160.029 107.248 159.706 107.099C159.583 107.023 159.482 106.916 159.415 106.789C159.347 106.661 159.315 106.518 159.322 106.374C159.33 106.235 159.373 106.099 159.448 105.981C159.523 105.863 159.626 105.767 159.749 105.7" fill="white"/>
<path d="M164.605 104.432C164.617 104.588 164.674 104.737 164.771 104.859C164.868 104.982 164.999 105.074 165.147 105.122C165.296 105.171 165.455 105.174 165.606 105.132C165.756 105.089 165.891 105.003 165.992 104.885C166.094 104.766 166.158 104.619 166.176 104.464C166.195 104.309 166.167 104.152 166.096 104.013C166.025 103.873 165.914 103.758 165.777 103.682C165.641 103.606 165.485 103.572 165.329 103.584C165.122 103.603 164.929 103.702 164.794 103.86C164.658 104.019 164.59 104.224 164.605 104.432Z" fill="white"/>
<g opacity="0.3">
<path opacity="0.3" d="M120.764 104.591L111.539 108.678C110.712 108.986 109.968 109.482 109.366 110.127C109.049 110.413 108.85 110.807 108.807 111.232C108.765 111.657 108.882 112.082 109.137 112.425C109.391 112.768 109.764 113.004 110.183 113.087C110.601 113.17 111.036 113.094 111.402 112.874C112.094 112.519 112.718 112.042 113.242 111.468C116.474 108.395 120.293 106.026 124.112 103.671C122.481 104.171 122.604 103.925 120.981 104.396" fill="black"/>
</g>
<g opacity="0.3">
<path opacity="0.3" d="M182.851 103.417C182.157 102.928 181.353 102.62 180.51 102.519L171.09 100.62L170.909 100.468C169.293 100.352 169.46 100.562 167.851 100.468C171.859 101.917 175.895 103.367 179.54 105.613C180.14 106.055 180.818 106.38 181.539 106.569C181.904 106.655 182.286 106.625 182.633 106.483C182.979 106.342 183.274 106.096 183.474 105.78C183.648 105.373 183.682 104.919 183.569 104.491C183.456 104.063 183.203 103.685 182.851 103.417Z" fill="black"/>
</g>
<path d="M112.199 138.271C110.139 143.992 107.08 149.301 103.163 153.952C104.442 154.137 105.746 153.927 106.902 153.351C105.873 154.972 104.518 156.361 102.924 157.43C104.765 158.257 110.243 152.648 111.946 151.561C111.598 159.3 104.699 168.263 105.12 172.205C109.112 169.539 113.395 166.481 114.641 161.843C116.67 154.278 109.641 146.235 112.286 138.873" fill="#F1463B"/>
<path d="M164.192 123.772C164.177 124.314 164.082 124.852 163.909 125.366C163.444 126.803 162.588 128.082 161.438 129.062C160.636 129.745 159.712 130.269 158.713 130.605C157.544 130.986 156.298 131.063 155.09 130.83C153.75 130.576 152.491 129.999 151.424 129.149C150.253 128.236 149.366 127.01 148.866 125.612L149.228 125.569C149.113 126.698 148.765 127.791 148.206 128.779C147.391 130.254 146.152 131.451 144.649 132.214C143.241 132.913 141.657 133.18 140.098 132.982C138.696 132.831 137.353 132.333 136.192 131.533C135.188 130.823 134.368 129.884 133.801 128.793C132.974 127.219 132.67 125.422 132.931 123.663C133.01 123.022 133.199 122.399 133.489 121.823C133.304 122.432 133.165 123.054 133.076 123.685C132.879 125.404 133.216 127.142 134.04 128.663C134.598 129.707 135.398 130.601 136.373 131.272C137.492 132.047 138.788 132.531 140.141 132.677C141.63 132.863 143.141 132.611 144.489 131.953C145.921 131.214 147.103 130.07 147.888 128.663C148.417 127.721 148.748 126.68 148.859 125.605L148.946 124.772L149.221 125.562C149.702 126.834 150.5 127.962 151.54 128.838C152.58 129.715 153.827 130.31 155.163 130.569C156.314 130.799 157.505 130.737 158.626 130.388C159.594 130.075 160.493 129.584 161.279 128.938C162.414 128.002 163.277 126.779 163.778 125.395C164.134 124.352 164.192 123.765 164.192 123.772Z" fill="#263238"/>
<path d="M153.706 117.519C153.107 117.343 152.476 117.301 151.859 117.395C150.141 117.526 147.569 117.526 145.685 117.634C145.53 117.624 145.375 117.624 145.221 117.634H145.141C144.324 117.727 143.535 117.986 142.823 118.395C142.59 118.498 142.384 118.654 142.222 118.85C142.059 119.046 141.945 119.278 141.888 119.526C141.794 120.345 142.736 120.888 143.554 121.026C144.373 121.163 145.315 121.178 145.851 121.808C146.162 122.296 146.373 122.84 146.475 123.41C146.607 123.838 146.836 124.231 147.144 124.557C147.452 124.884 147.83 125.136 148.25 125.294C148.677 125.437 149.137 125.444 149.568 125.314C149.999 125.184 150.379 124.924 150.656 124.569C151.337 123.613 151.032 122.178 151.786 121.287C152.283 120.831 152.871 120.485 153.511 120.272C153.83 120.164 154.116 119.973 154.337 119.718C154.559 119.463 154.708 119.154 154.772 118.823C154.746 118.524 154.63 118.239 154.44 118.006C154.25 117.773 153.995 117.604 153.706 117.519Z" fill="#263238"/>
<path d="M110.737 143.155C110.778 143.044 110.832 142.937 110.896 142.837L111.404 141.96C111.673 141.496 111.965 141.046 112.28 140.612C112.643 140.097 113.005 139.496 113.541 138.895C114.077 138.293 114.577 137.598 115.215 136.924C115.853 136.25 116.548 135.54 117.302 134.808C118.975 133.273 120.776 131.884 122.686 130.656C124.617 129.458 126.646 128.425 128.751 127.569C129.729 127.207 130.657 126.844 131.555 126.591C132.454 126.337 133.28 126.105 134.048 125.931C134.816 125.757 135.497 125.634 136.142 125.525C136.672 125.428 137.206 125.358 137.743 125.315L138.751 125.228C138.868 125.209 138.988 125.209 139.106 125.228C138.992 125.265 138.876 125.292 138.758 125.308L137.758 125.46C137.323 125.518 136.794 125.598 136.178 125.736C135.562 125.873 134.867 125.967 134.113 126.185C133.36 126.402 132.519 126.591 131.649 126.909C130.78 127.228 129.845 127.54 128.881 127.909C126.803 128.771 124.799 129.801 122.889 130.989C120.997 132.206 119.206 133.572 117.534 135.076C116.809 135.8 116.085 136.46 115.447 137.148C114.809 137.837 114.251 138.467 113.751 139.076C113.251 139.684 112.831 140.25 112.454 140.75C112.126 141.169 111.819 141.604 111.534 142.054C111.302 142.387 111.114 142.663 110.962 142.895C110.809 143.126 110.751 143.163 110.737 143.155Z" fill="#263238"/>
<path d="M120.344 141.779C120.467 141.5 120.62 141.235 120.801 140.989C121.112 140.496 121.598 139.801 122.25 138.967C125.629 134.632 129.941 131.113 134.866 128.671C135.808 128.207 136.583 127.866 137.134 127.663C137.409 127.534 137.698 127.437 137.996 127.374C137.745 127.544 137.475 127.685 137.192 127.794C136.663 128.04 135.902 128.417 135.018 128.91C130.206 131.455 125.947 134.93 122.489 139.134C121.822 139.938 121.301 140.583 120.953 141.076C120.776 141.331 120.572 141.567 120.344 141.779Z" fill="#263238"/>
<path d="M121.011 125.207C121.201 125.092 121.406 125.005 121.62 124.946C122.018 124.794 122.605 124.605 123.337 124.402C125.253 123.886 127.213 123.546 129.192 123.388C131.171 123.232 133.16 123.261 135.134 123.475C135.858 123.562 136.496 123.656 136.916 123.743C137.135 123.771 137.349 123.827 137.554 123.91C137.554 123.968 136.619 123.844 135.112 123.743C133.151 123.605 131.182 123.605 129.221 123.743C127.269 123.902 125.332 124.202 123.424 124.642C121.931 124.997 121.033 125.265 121.011 125.207Z" fill="#263238"/>
<path d="M125.171 144.286C125.252 144.053 125.361 143.832 125.498 143.627C125.722 143.206 126.077 142.612 126.534 141.902C128.953 138.18 131.902 134.831 135.287 131.96C135.939 131.417 136.483 130.989 136.867 130.714C137.056 130.554 137.265 130.42 137.49 130.315C137.49 130.359 136.715 131.04 135.468 132.163C132.204 135.117 129.287 138.433 126.773 142.047C125.787 143.431 125.222 144.322 125.171 144.286Z" fill="#263238"/>
<path d="M152.431 133.149C152.431 133.192 152.148 133.402 151.59 133.598C150.854 133.848 150.074 133.944 149.299 133.88C148.523 133.817 147.769 133.595 147.083 133.228C146.562 132.946 146.301 132.685 146.359 132.649C147.318 133.067 148.33 133.354 149.366 133.504C150.399 133.522 151.43 133.403 152.431 133.149Z" fill="#263238"/>
<path d="M171.59 130.011C171.59 130.062 170.865 129.533 169.677 128.837C168.115 127.946 166.441 127.268 164.699 126.823C162.951 126.387 161.152 126.194 159.351 126.25C157.974 126.294 157.119 126.439 157.112 126.373C157.105 126.308 157.315 126.286 157.699 126.207C158.239 126.095 158.786 126.02 159.337 125.982C163.021 125.711 166.695 126.633 169.815 128.612C170.282 128.907 170.73 129.231 171.155 129.583C171.438 129.837 171.612 129.989 171.59 130.011Z" fill="#263238"/>
<path d="M175.358 126.62C175.358 126.678 174.285 126.286 172.553 125.794C168.037 124.481 163.33 123.944 158.633 124.207C156.836 124.301 155.735 124.446 155.735 124.388C155.982 124.296 156.24 124.238 156.503 124.214C157.003 124.12 157.735 124.026 158.633 123.939C163.364 123.537 168.128 124.079 172.648 125.533C173.51 125.815 174.198 126.076 174.669 126.257C174.912 126.352 175.143 126.473 175.358 126.62Z" fill="#263238"/>
<path d="M176.373 120.149C176.373 120.207 175.235 120.019 173.409 119.83C171.023 119.599 168.623 119.543 166.228 119.664C163.836 119.797 161.458 120.11 159.112 120.598C157.308 120.982 156.214 121.323 156.214 121.229C156.445 121.108 156.688 121.01 156.938 120.939C157.431 120.772 158.149 120.562 159.047 120.345C163.754 119.195 168.635 118.932 173.438 119.569C174.351 119.693 175.09 119.823 175.612 119.939C175.874 119.974 176.13 120.045 176.373 120.149Z" fill="#263238"/>
<g opacity="0.3">
<path opacity="0.3" d="M144.468 131.873C145.228 132.402 146.286 131.996 147.011 131.424C147.736 130.852 148.388 130.105 149.286 129.881C150.953 129.467 152.728 131.062 154.322 130.424C153.086 130.108 151.94 129.51 150.975 128.676C150.009 127.843 149.25 126.796 148.757 125.62C148.824 127.004 148.435 128.373 147.649 129.515C146.864 130.658 145.726 131.512 144.41 131.946" fill="black"/>
</g>
<g opacity="0.3">
<path opacity="0.3" d="M184.416 129.837C182.005 133.995 178.694 137.562 174.725 140.275C170.757 142.988 166.232 144.779 161.482 145.517C165.685 146.688 170.158 146.42 174.192 144.757C178.14 143.199 181.677 140.752 184.525 137.605L184.416 129.837Z" fill="black"/>
</g>
<path d="M138.613 108.381C138.403 109.441 137.972 110.444 137.346 111.325C136.721 112.205 135.916 112.943 134.984 113.49C134.053 114.036 133.016 114.379 131.942 114.495C130.868 114.612 129.782 114.499 128.755 114.165C127.728 113.83 126.783 113.282 125.984 112.555C125.184 111.829 124.548 110.941 124.117 109.951C123.686 108.961 123.469 107.89 123.483 106.81C123.496 105.73 123.738 104.665 124.193 103.685C124.193 103.685 128.888 100.888 132.511 102.512C136.134 104.135 138.613 108.381 138.613 108.381Z" fill="white"/>
<path d="M132.018 102.381C130.568 101.62 126.945 102.765 126.945 102.765C126.069 105.714 126.025 109.178 127.931 111.584C128.395 112.072 128.959 112.455 129.584 112.705C130.209 112.955 130.881 113.067 131.554 113.033C132.142 112.906 132.693 112.643 133.162 112.265C133.631 111.888 134.006 111.407 134.257 110.859C135.264 108.744 135.801 106.434 135.829 104.091C135.829 104.091 133.46 103.164 132.018 102.381Z" fill="#F03226"/>
<path d="M131.432 103.584C131.372 103.466 131.304 103.352 131.229 103.243L130.939 103.482C129.932 104.337 129.729 106.149 129.714 107.468C129.677 108.554 129.927 109.632 130.439 110.591C130.518 110.772 130.627 110.975 130.823 111.018C131.142 111.084 131.345 110.685 131.424 110.374C131.982 108.134 132.381 105.685 131.432 103.584Z" fill="#263238"/>
<path d="M140.692 114.99C140.576 115.04 140.294 114.707 139.967 114.04C139.503 113.1 139.096 112.132 138.75 111.142C138.271 109.739 137.675 108.379 136.968 107.077C136.565 106.362 136.065 105.706 135.482 105.128C134.866 104.537 134.14 104.074 133.344 103.765C129.96 102.403 126.374 103.49 123.924 104.164C121.475 104.838 119.946 105.512 119.816 105.265C119.685 105.019 121.011 104.019 123.439 102.91C124.893 102.255 126.417 101.769 127.982 101.461C130.004 101.068 132.096 101.252 134.018 101.99C135.043 102.398 135.973 103.012 136.75 103.794C137.439 104.513 138.016 105.331 138.46 106.222C139.151 107.66 139.667 109.175 139.996 110.736C140.286 112.019 140.489 113.055 140.627 113.772C140.765 114.49 140.815 114.939 140.692 114.99Z" fill="#263238"/>
<path d="M125.983 106.946C127.171 107.079 128.365 106.755 129.323 106.04C129.44 105.967 129.528 105.854 129.57 105.722C129.569 105.633 129.546 105.546 129.503 105.469C129.46 105.392 129.398 105.327 129.323 105.28C128.869 104.94 128.31 104.768 127.744 104.794C127.184 104.83 126.637 104.978 126.135 105.229C125.802 105.353 125.526 105.596 125.36 105.91C125.312 106.041 125.299 106.181 125.322 106.318C125.344 106.456 125.402 106.585 125.49 106.693C125.579 106.793 125.692 106.871 125.819 106.917C125.945 106.964 126.081 106.979 126.215 106.961" fill="white"/>
<path d="M131.779 106.983C132.215 106.983 132.569 106.629 132.569 106.193C132.569 105.756 132.215 105.403 131.779 105.403C131.343 105.403 130.989 105.756 130.989 106.193C130.989 106.629 131.343 106.983 131.779 106.983Z" fill="white"/>
<g opacity="0.3">
<path opacity="0.3" d="M132.359 98.9098C133.298 98.8071 134.247 98.9942 135.076 99.446C135.901 99.9008 136.678 100.437 137.395 101.047L139.757 102.931C139.857 102.019 139.677 101.098 139.242 100.289C138.806 99.4815 138.135 98.8249 137.318 98.4068C136.501 97.9887 135.576 97.8289 134.665 97.9485C133.755 98.0681 132.903 98.4615 132.221 99.0765" fill="black"/>
</g>
<g opacity="0.3">
<path opacity="0.3" d="M155.708 100.062C156.183 99.2662 156.821 98.5784 157.578 98.043C158.336 97.5077 159.197 97.1366 160.106 96.9538C160.418 96.8886 160.831 96.7364 160.773 96.4248C160.75 96.3511 160.713 96.2828 160.663 96.2242C160.613 96.1656 160.552 96.118 160.483 96.0842C159.873 95.6877 159.171 95.4547 158.445 95.4078C157.72 95.3608 156.994 95.5014 156.338 95.8161C155.689 96.1554 155.159 96.6832 154.816 97.3299C154.473 97.9766 154.334 98.712 154.418 99.4392C154.429 99.6163 154.478 99.7888 154.561 99.9452C154.645 100.101 154.762 100.238 154.903 100.345C154.976 100.393 155.058 100.424 155.144 100.436C155.23 100.448 155.318 100.441 155.4 100.415C155.483 100.388 155.559 100.343 155.622 100.284C155.685 100.224 155.734 100.151 155.765 100.07" fill="black"/>
</g>
<path d="M152.873 116.076C151.432 115.892 149.978 115.817 148.526 115.852C147.087 116.008 145.663 116.274 144.265 116.649C145.582 115.974 147.023 115.575 148.499 115.476C149.976 115.378 151.457 115.582 152.852 116.076H152.873Z" fill="#263238"/>
<path d="M150.908 113.432C150.144 113.58 149.373 113.686 148.597 113.75C147.842 113.938 147.078 114.085 146.307 114.193C146.965 113.726 147.735 113.443 148.539 113.374C149.32 113.185 150.137 113.205 150.908 113.432Z" fill="#263238"/>
<path d="M149.794 112.41C149.794 112.519 149.309 112.598 148.714 112.591C148.12 112.584 147.628 112.497 147.628 112.396C147.628 112.294 148.12 112.214 148.714 112.214C149.309 112.214 149.801 112.309 149.794 112.41Z" fill="#263238"/>
<g opacity="0.3">
<path opacity="0.3" d="M112.779 151.423L116.605 148.141C116.355 149.084 116.414 150.082 116.772 150.989L119.236 148.148C119.895 149.757 121.765 150.467 123.46 150.873C128.533 152.083 133.83 152.126 139.061 152.163C137.222 153.58 135.066 154.53 132.779 154.931C130.498 155.33 128.177 155.459 125.866 155.315C123.283 155.217 120.708 154.963 118.156 154.554C116.026 154.206 113.7 153.605 112.504 151.807" fill="black"/>
</g>
<path d="M184.597 142.33C175.264 149.332 164.565 154.296 153.192 156.902C134.729 160.981 111.889 152.09 111.889 152.09L110.208 158.648C110.208 158.648 134.562 168.162 151.656 165.684C172.619 162.648 186.264 147.38 186.264 147.38L184.597 142.33Z" fill="#F03226"/>
<path d="M152.141 166.394C152.22 166.329 152.518 166.604 152.568 167.068C152.619 167.532 152.394 167.865 152.3 167.793C152.206 167.72 152.235 167.445 152.192 167.068C152.148 166.691 152.054 166.452 152.141 166.394Z" fill="white"/>
<path d="M155.584 177.655C154.668 178.138 153.63 178.34 152.601 178.234C151.571 178.128 150.596 177.72 149.798 177.06C149 176.4 148.416 175.519 148.119 174.528C147.821 173.536 147.824 172.479 148.127 171.489C148.43 170.499 149.02 169.621 149.821 168.966C150.623 168.311 151.6 167.908 152.63 167.808C153.661 167.708 154.697 167.915 155.61 168.404C156.522 168.893 157.27 169.641 157.758 170.554C158.082 171.162 158.283 171.829 158.349 172.516C158.415 173.203 158.345 173.896 158.143 174.555C157.942 175.215 157.611 175.828 157.172 176.36C156.733 176.892 156.193 177.332 155.584 177.655Z" fill="#F03226"/>
<path d="M158.09 170.214L157.953 169.959C157.713 169.511 157.155 169.343 156.707 169.583L148.156 174.168C147.708 174.408 147.54 174.966 147.78 175.414L147.917 175.669C148.157 176.117 148.715 176.286 149.163 176.045L157.714 171.46C158.162 171.22 158.33 170.662 158.09 170.214Z" fill="#F03226"/>
<path d="M155.495 175.908C155.286 175.328 155.016 174.772 154.691 174.249C154.614 174.098 154.511 173.963 154.386 173.85C154.321 173.798 154.242 173.764 154.159 173.754C154.076 173.744 153.991 173.757 153.915 173.792C153.843 173.846 153.789 173.921 153.761 174.006C153.732 174.092 153.73 174.184 153.756 174.271C153.807 174.443 153.888 174.604 153.995 174.749C154.641 175.69 154.955 176.819 154.886 177.959C155.121 177.871 155.351 177.769 155.575 177.654C155.744 177.08 155.716 176.465 155.495 175.908Z" fill="#263238"/>
<path d="M147.736 174.524C148.059 174.097 148.442 173.718 148.874 173.401C149.861 172.568 150.932 171.84 152.069 171.227C153.205 170.625 154.4 170.139 155.634 169.778C156.136 169.593 156.665 169.491 157.2 169.474C155.511 170.08 153.857 170.777 152.243 171.561C150.691 172.47 149.187 173.46 147.736 174.524Z" fill="#263238"/>
<path d="M148.742 176.292C149.055 175.895 149.426 175.548 149.844 175.263C150.791 174.512 151.794 173.833 152.844 173.234C153.894 172.634 154.986 172.111 156.112 171.669C156.572 171.459 157.06 171.315 157.561 171.242C157.605 171.35 155.467 172.162 153.039 173.56C150.612 174.959 148.815 176.365 148.742 176.292Z" fill="#263238"/>
<path d="M154.662 175.148C154.564 175.212 154.454 175.256 154.338 175.276C154.222 175.295 154.103 175.291 153.989 175.262C153.875 175.234 153.769 175.182 153.676 175.109C153.583 175.037 153.506 174.947 153.45 174.843C153.394 174.74 153.36 174.626 153.351 174.509C153.341 174.392 153.356 174.274 153.394 174.163C153.433 174.052 153.494 173.95 153.574 173.864C153.653 173.778 153.75 173.709 153.858 173.662C154.056 173.557 154.288 173.534 154.502 173.6C154.717 173.665 154.897 173.812 155.003 174.01C155.108 174.206 155.132 174.436 155.068 174.649C155.004 174.863 154.858 175.042 154.662 175.148Z" fill="#263238"/>
<path d="M148.358 172.981C148.256 172.981 148.039 172.3 148.3 171.466C148.561 170.633 149.133 170.169 149.198 170.242C149.264 170.314 148.879 170.836 148.662 171.575C148.445 172.314 148.459 172.966 148.358 172.981Z" fill="white"/>
<path d="M148.865 175.843C148.865 175.952 148.467 175.915 148.3 175.546C148.134 175.176 148.351 174.865 148.445 174.923C148.539 174.981 148.539 175.176 148.641 175.387C148.742 175.597 148.887 175.742 148.865 175.843Z" fill="white"/>
<path d="M153.828 177.589C153.05 177.71 152.253 177.62 151.52 177.329C150.788 177.039 150.146 176.558 149.662 175.937C149.734 175.85 150.509 176.531 151.662 176.981C152.814 177.43 153.828 177.481 153.828 177.589Z" fill="white"/>
<path d="M151.83 168.358C151.866 168.358 151.75 168.648 151.352 168.822C151.089 168.939 150.797 168.971 150.515 168.914C150.233 168.858 149.976 168.714 149.78 168.505C149.583 168.295 149.456 168.03 149.417 167.745C149.378 167.46 149.429 167.17 149.562 166.916C149.758 166.532 150.033 166.43 150.048 166.467C150.062 166.503 149.91 166.677 149.808 167.017C149.732 167.224 149.715 167.447 149.759 167.663C149.803 167.879 149.905 168.078 150.056 168.239C150.206 168.4 150.398 168.516 150.61 168.574C150.822 168.632 151.046 168.63 151.258 168.568C151.613 168.488 151.787 168.322 151.83 168.358Z" fill="white"/>
<g opacity="0.3">
<path opacity="0.3" d="M146.323 157.858C128.679 158.503 111.911 152.061 111.911 152.061L111.505 153.648C124.49 159.916 139.512 164.64 153.772 162.503C166.417 160.604 177.59 153.039 184.554 142.315C184.554 142.344 164.852 157.177 146.323 157.858Z" fill="black"/>
</g>
<path d="M141.409 156.923C140.147 158.115 138.689 159.078 137.098 159.771C138.513 160.169 140.001 160.228 141.443 159.942C142.885 159.656 144.239 159.034 145.395 158.126L145.503 162.474C146.685 162.112 146.953 160.213 148.177 160.068C149.402 159.923 150.047 161.887 151.315 162.242C151.109 161.837 150.993 161.392 150.974 160.938C150.971 160.709 151.039 160.485 151.169 160.297C151.299 160.109 151.484 159.965 151.699 159.887C152.043 159.829 152.397 159.885 152.706 160.047L156.402 161.496L154.619 159.155C157.571 159.931 160.648 160.111 163.67 159.684C162.054 159.263 160.486 158.677 158.989 157.938C161.428 157.871 163.826 157.289 166.025 156.228C165.367 156.137 164.756 155.834 164.286 155.366C166.626 155.498 168.948 154.887 170.92 153.619C172.892 152.351 174.412 150.492 175.264 148.308C172.177 149.274 169.051 150.114 165.887 150.829C157.873 152.648 149.561 153.728 142.163 157.271" fill="#F1463B"/>
<path d="M81.4253 216.828C76.3256 223.628 73.7624 231.997 74.1791 240.486C74.4979 246.515 76.1573 253.233 72.6212 258.124C73.2281 258.16 73.836 258.073 74.4087 257.869C74.9813 257.664 75.507 257.347 75.9544 256.935C76.0066 258.887 75.4103 260.801 74.2588 262.377C74.9211 262.447 75.5895 262.325 76.1844 262.026C76.7793 261.727 77.2755 261.262 77.6138 260.689C78.2637 264.175 79.4569 267.537 81.1499 270.652C81.3166 270.196 81.4905 269.739 81.6572 269.29C81.7814 271.7 82.4688 274.048 83.6643 276.144C84.8598 278.241 86.5301 280.028 88.5411 281.362C90.4396 282.609 93.0482 283.377 94.9105 282.087C96.4104 281.029 96.8452 279.007 96.9249 277.181C97.251 269.776 93.6641 262.805 89.7222 256.537C85.7802 250.269 81.2949 244.117 79.4616 236.972C77.7006 229.953 78.615 222.529 82.0267 216.146" fill="#F1463B"/>
</svg>
