<?xml version="1.0" standalone="no"?>
<!DOCTYPE svg PUBLIC "-//W3C//DTD SVG 20010904//EN"
 "http://www.w3.org/TR/2001/REC-SVG-20010904/DTD/svg10.dtd">
<svg version="1.0" xmlns="http://www.w3.org/2000/svg"
 width="700.000000pt" height="700.000000pt" viewBox="0 0 700.000000 700.000000"
 preserveAspectRatio="xMidYMid meet">
<metadata>
Created by potrace 1.11, written by Peter Selinger 2001-2013
</metadata>
<g transform="translate(0.000000,700.000000) scale(0.100000,-0.100000)"
fill="#000000" stroke="none">
<path d="M3537 6344 c-1 -1 -31 -4 -67 -7 -169 -14 -287 -76 -393 -208 -70
-87 -121 -207 -267 -624 -23 -66 -55 -156 -70 -200 -33 -89 -111 -313 -190
-540 -28 -82 -60 -172 -70 -200 -22 -57 -256 -722 -306 -865 -18 -52 -60 -174
-94 -270 -34 -96 -91 -258 -127 -360 -36 -102 -86 -246 -113 -320 -26 -74 -50
-142 -53 -150 -18 -51 -45 -47 359 -47 335 0 376 1 383 16 5 9 44 120 87 246
42 127 98 291 124 365 l46 135 727 3 726 2 46 -147 c25 -82 50 -159 55 -173 7
-20 69 -218 131 -416 l10 -32 399 1 c220 0 400 1 400 2 0 3 -347 1042 -825
2470 -348 1040 -346 1036 -470 1160 -78 78 -145 116 -250 140 -53 13 -190 26
-198 19z m71 -1050 c35 -109 95 -298 133 -419 39 -121 88 -274 109 -340 21
-66 66 -208 100 -315 33 -107 65 -205 70 -218 6 -13 10 -25 10 -27 0 -3 -229
-5 -510 -5 -280 0 -510 1 -510 3 0 1 113 338 251 747 138 410 253 753 256 763
3 10 10 16 16 14 6 -2 39 -93 75 -203z"/>
<path d="M1699 1406 c-1 -1 -2 -172 -3 -381 l-1 -381 1837 0 1838 0 0 381 0
381 -1835 0 c-1009 0 -1836 0 -1836 0z"/>
</g>
</svg>
