<svg fill="none" height="39" viewBox="0 0 59 39" width="59" xmlns="http://www.w3.org/2000/svg" xmlns:xlink="http://www.w3.org/1999/xlink"><linearGradient id="a" gradientUnits="userSpaceOnUse" x1="20.33" x2="58.081" y1="3.36302" y2="102.932"><stop offset=".00155865" stop-color="#fff"/><stop offset="1" stop-color="#b9cece"/></linearGradient><path d="m46.0568 10.401c-.7933 0-1.5676.0742-2.3175.2119-2.082-1.67358-4.782-2.69042-7.7364-2.70278-2.7659-4.18744-7.7099-6.978479-13.353-6.978479-8.6671 0-15.69307 6.583039-15.69307 14.703659 0 .5349.03203 1.0628.09233 1.5818-4.03963 1.0522-7.0071678 4.5158-7.0071678 8.6362 0 4.9553 4.2864478 8.9715 9.5752678 8.9715.90254 0 1.77294-.1253 2.60204-.3442 1.7466 1.7424 4.2205 2.8369 6.9732 2.8369 2.0085 0 3.8701-.5808 5.4094-1.5712 2.0707 1.6048 4.7274 2.5687 7.6233 2.5687 4.5634 0 8.5296-2.3939 10.5494-5.914 1.0438.2789 2.1441.4307 3.2822.4307 6.6096 0 11.97-5.0207 11.97-11.2153-.0019-6.1947-5.3604-11.2154-11.97-11.2154z" fill="url(#a)"/></svg>