<svg fill="none" height="40" viewBox="0 0 60 40" width="60" xmlns="http://www.w3.org/2000/svg" xmlns:xlink="http://www.w3.org/1999/xlink"><linearGradient id="a" gradientUnits="userSpaceOnUse" x1="21.0073" x2="60.598" y1="2.9271" y2="106.294"><stop offset=".00155865" stop-color="#fff"/><stop offset="1" stop-color="#b9cece"/></linearGradient><path d="m47.5137 10.2524c-.8173 0-1.6152.0772-2.3878.2205-2.1451-1.74189-4.9269-2.80024-7.9707-2.8131-2.8498-4.35836-7.9436-7.263316-13.7577-7.263316-8.9297 0-16.16863 6.851736-16.16863 15.303816 0 .5568.03301 1.1062.09513 1.6464-4.16204 1.0951-7.219508 4.7001-7.219508 8.9886 0 5.1576 4.416338 9.3378 9.865428 9.3378.92988 0 1.82668-.1305 2.68088-.3583 1.7995 1.8135 4.3484 2.9527 7.1845 2.9527 2.0694 0 3.9874-.6045 5.5734-1.6353 2.1334 1.6702 4.8706 2.6734 7.8543 2.6734 4.7017 0 8.788-2.4915 10.869-6.1553 1.0755.2903 2.2091.4483 3.3817.4483 6.8099 0 12.3327-5.2256 12.3327-11.6731-.0019-6.4475-5.5228-11.6731-12.3327-11.6731z" fill="url(#a)"/></svg>