<svg fill="none" viewBox="0 0 654 520" width="347" xmlns="http://www.w3.org/2000/svg"><g fill="#d9f1f8" fill-opacity=".5" opacity=".4"><path d="m563.776 188.486-20.553 11.855c.113-.898.173-1.803.18-2.708v-5.954c0-10.6-7.443-14.886-16.626-9.595-3.968 2.44-7.358 5.714-9.936 9.595-1.488-13.326-11.944-18.294-24.642-10.959-13.72 7.928-24.857 27.189-24.857 43.044v8.967c-.086 3.553.638 7.08 2.116 10.312l-17.074 9.846c-2.682 1.75-4.914 4.107-6.515 6.88-1.602 2.773-2.528 5.885-2.703 9.082 0 5.883 4.125 8.268 9.218 5.381l111.357-64.296c2.68-1.751 4.912-4.108 6.513-6.881 1.602-2.773 2.528-5.884 2.705-9.081.036-6.044-4.107-8.429-9.183-5.488z"/><path d="m647.263 223.961-13.111 7.568c.074-.595.11-1.194.108-1.793v-3.749c0-6.743-4.735-9.487-10.581-6.097-2.518 1.541-4.672 3.609-6.313 6.062-.969-8.501-7.623-11.658-15.711-6.977-8.752 5.04-15.854 17.325-15.854 27.44v5.685c-.058 2.262.402 4.508 1.345 6.564l-10.886 6.295c-1.712 1.113-3.137 2.613-4.159 4.38-1.023 1.768-1.613 3.751-1.724 5.789 0 3.749 2.636 5.273 5.883 3.39l71.003-40.981c1.712-1.116 3.137-2.62 4.159-4.39s1.612-3.756 1.723-5.796c0-3.749-2.636-5.184-5.882-3.39z"/></g><ellipse cx="325" cy="488.5" fill="#f3f3f3" rx="264" ry="31.5"/><path d="m154.379 380.145c.238-2.93 1.357-5.72 3.21-8 1.745-2.292 4.161-3.98 6.911-4.829 2.347-.669 4.849-.542 7.116.36 2.268.902 4.174 2.529 5.423 4.627 1.058-2.108 2.758-3.825 4.854-4.903s4.48-1.461 6.808-1.093c2.831.523 5.428 1.919 7.428 3.993 2.114 2.035 3.552 4.672 4.118 7.553.678 3.681.153 7.482-1.497 10.84-1.961 3.416-4.705 6.316-8.005 8.462-5.355 3.676-12.395 8.289-12.395 8.289s-6.45-4.253-12.18-7.208c-3.538-1.73-6.609-4.286-8.955-7.453-2.065-3.147-3.059-6.879-2.836-10.638z" fill="#f5f6f7"/><path d="m555.626 220.931c.229-2.932 1.35-5.724 3.21-8 1.736-2.294 4.148-3.983 6.896-4.829 2.347-.669 4.849-.542 7.116.36 2.268.902 4.174 2.529 5.424 4.627 1.057-2.108 2.757-3.825 4.853-4.903s4.48-1.461 6.808-1.093c2.831.523 5.428 1.919 7.429 3.993 2.113 2.037 3.555 4.673 4.131 7.553.661 3.69.121 7.495-1.54 10.855-1.957 3.419-4.701 6.32-8.005 8.461-5.341 3.676-12.395 8.289-12.395 8.289s-6.436-4.324-12.18-7.207c-3.538-1.731-6.609-4.286-8.955-7.453-2.053-3.157-3.033-6.893-2.792-10.653z" fill="#f5f6f7"/><path d="m193.347 344.353c.141-1.882.86-3.675 2.059-5.132 1.117-1.475 2.668-2.564 4.434-3.113.941-.258 1.925-.323 2.892-.192.967.132 1.898.457 2.737.956.99.609 1.824 1.444 2.433 2.436.679-1.353 1.77-2.454 3.116-3.144 1.347-.689 2.877-.931 4.37-.691 1.819.324 3.487 1.217 4.765 2.552 1.36 1.309 2.285 3.005 2.649 4.858.434 2.366.091 4.808-.978 6.962-1.256 2.196-3.018 4.06-5.14 5.435-3.441 2.364-7.962 5.333-7.962 5.333s-4.146-2.739-7.831-4.67c-2.274-1.112-4.249-2.753-5.759-4.786-1.308-2.018-1.934-4.403-1.785-6.804z" fill="#f3f4f5"/><path d="m530.993 256.22c.151-1.88.869-3.67 2.059-5.132 1.12-1.47 2.67-2.553 4.434-3.099 1.509-.417 3.112-.329 4.566.248 1.455.577 2.682 1.614 3.496 2.952.477-.943 1.155-1.77 1.987-2.422.771-.601 1.656-1.039 2.601-1.287.946-.248 1.932-.3 2.898-.154 1.818.335 3.485 1.232 4.766 2.566 1.361 1.307 2.287 3.004 2.649 4.858.432 2.366.089 4.808-.979 6.962-1.252 2.199-3.015 4.064-5.14 5.435-3.441 2.349-7.961 5.319-7.961 5.319s-4.132-2.725-7.832-4.671c-2.277-1.107-4.253-2.749-5.759-4.785-1.307-2.013-1.933-4.394-1.785-6.79z" fill="#f3f4f5"/><path d="m603.769 329.088c.142-1.883.861-3.675 2.059-5.132 1.118-1.476 2.668-2.564 4.434-3.114.942-.257 1.925-.322 2.892-.191s1.898.456 2.737.955c.991.61 1.824 1.444 2.433 2.436.675-1.356 1.766-2.46 3.114-3.15 1.347-.69 2.879-.929 4.373-.684 1.813.336 3.478 1.228 4.765 2.551 1.359 1.309 2.284 3.005 2.649 4.858.426 2.366.083 4.807-.979 6.963-1.257 2.2-3.025 4.064-5.154 5.434-3.427 2.364-7.962 5.334-7.962 5.334s-4.131-2.739-7.817-4.671c-2.274-1.111-4.248-2.752-5.759-4.785-1.308-2.018-1.934-4.403-1.785-6.804z" fill="#f5f6f7"/><path d="m202.92 404.089c.096-1.239.574-2.417 1.367-3.373.724-.969 1.73-1.689 2.88-2.061.621-.17 1.27-.213 1.908-.127.638.087 1.252.302 1.806.631.649.409 1.195.962 1.598 1.615.317-.622.764-1.167 1.31-1.6.51-.395 1.094-.681 1.718-.842s1.273-.194 1.91-.095c1.198.216 2.297.806 3.139 1.686.909.854 1.537 1.966 1.799 3.186.281 1.563.054 3.174-.648 4.598-.827 1.453-1.993 2.684-3.397 3.59-2.261 1.557-5.255 3.503-5.255 3.503s-2.721-1.802-5.154-3.071c-1.493-.74-2.79-1.821-3.787-3.157-.869-1.327-1.288-2.899-1.194-4.483z" fill="#f3f4f5"/><path d="m125.02 55.3018s-6.637 5.7661 7.774 19.0424c7.29 6.9423 15.033 13.3905 23.179 19.3018 0 0 2.879 3.2578-.087 5.0308-2.965 1.7732-10.408 3.2432-10.408 7.6972 0 4.455 4.319 7.367 11.618 8.52s23.034 4.324 24.373 4.555 3.196 1.629 1.354 3.171c-1.843 1.543-17.089 9.053-13.087 16.073s24.647 6.934 26.908 6.977c2.26.043 3.037.692 3.282 1.845s-5.125 3.186-9.372 5.492c-4.247 2.307-8.768 5.766-6.133 9.615 2.634 3.849 16.729 8.822 43.866 1.716l12.367-4.109 2.88-12.8c4.405-27.735-1.901-41.285-6.004-43.534s-7.069 2.58-8.955 7.035c-1.886 4.454-3.383 10.004-4.549 9.888-1.166-.115-1.9-.85-2.159-3.099-.26-2.249-2.174-22.8333-9.56-26.12-7.385-3.2866-13.346 12.628-14.699 14.617s-2.879.317-3.282-1.038-5.054-16.7647-6.911-23.8569c-1.857-7.0923-5.01-11.1573-9.602-10.7248-4.593.4324-5.154 8.0003-6.637 11.1428s-4.996.591-4.996.591c-6.687-7.547-13.873-14.6359-21.509-21.219-14.641-12.9735-19.781-5.6795-19.781-5.6795" fill="#f5f6f7"/><g fill="#f3f4f5"><path d="m242.312 162.868c-10.711-9.63-29.47-27.057-45.652-41.934-16.182-14.876-30.838-28.3399-41.506-38.0124l-12.64-11.4455c-1.44-1.3551-2.649-2.393-3.441-3.1281l-.892-.8073-.288-.2883c.11.0746.216.1564.316.2451.216.2018.533.4613.922.7928l3.469 3.056c3.024 2.6668 7.371 6.5445 12.727 11.3591 10.726 9.6293 25.41 23.0646 41.592 37.9256 16.182 14.862 34.941 32.348 45.595 42.02"/><path d="m155.97 104.715c.34-.04.683-.04 1.022 0h2.563c2.16 0 5.154 0 8.451.202l8.436.375 2.563.101c.311-.029.624-.029.936 0-.308.065-.622.094-.936.087-.619 0-1.44 0-2.577 0-2.16 0-5.14-.13-8.437-.26l-8.45-.331-2.549-.087c-.343.016-.686-.013-1.022-.087z"/><path d="m180.419 104.285c-.115 0-.245-6.184-.289-13.7952-.043-7.6111 0-13.8096.13-13.8096s.231 6.184.274 13.7952c.044 7.6112-.014 13.8096-.115 13.8096z"/><path d="m204.234 128.242c.042-.319.114-.632.216-.937.201-.663.432-1.442.72-2.508.604-2.134 1.439-5.074 2.202-8.347.763-3.272 1.44-6.256 1.829-8.432.216-1.01.374-1.874.518-2.566.039-.321.116-.636.23-.937.013.323-.012.647-.072.965-.086.62-.201 1.442-.388 2.595-.36 2.177-.922 5.19-1.714 8.476-.791 3.287-1.655 6.213-2.332 8.332-.345 1.052-.619 1.889-.835 2.48-.089.307-.214.602-.374.879z"/><path d="m182.219 133.547c.263-.139.544-.241.835-.303l2.333-.649c1.972-.547 4.693-1.254 7.716-2.018s5.759-1.441 7.746-1.902l2.346-.534c.289-.072.582-.12.878-.144-.264.135-.545.237-.835.303l-2.317.648c-1.973.548-4.708 1.255-7.717 2.019s-5.759 1.441-7.746 1.902l-2.361.534c-.288.073-.581.121-.878.144z"/><path d="m200.561 157.36c.346-.156.708-.277 1.079-.361l2.98-.85c2.52-.706 6.004-1.643 9.862-2.667 3.858-1.023 7.357-1.917 9.905-2.551l3.009-.721c.363-.103.734-.176 1.109-.216-.342.159-.699.285-1.066.374l-2.98.851c-2.519.692-6.018 1.643-9.876 2.652s-7.357 1.918-9.891 2.552l-3.009.721c-.365.113-.741.185-1.122.216z"/><path d="m227.797 149.981c.044-.406.126-.807.245-1.197.201-.821.46-1.917.791-3.214.663-2.725 1.57-6.487 2.448-10.667.878-4.181 1.598-8.001 2.087-10.754.245-1.326.447-2.422.591-3.272.055-.405.142-.805.259-1.197 0 .411-.034.82-.101 1.225-.101.779-.245 1.903-.461 3.287-.417 2.782-1.079 6.602-1.972 10.783-.893 4.18-1.843 7.957-2.577 10.667-.374 1.355-.691 2.436-.921 3.185-.105.393-.235.778-.389 1.154z"/><path d="m531.714 135.536c-19.119-16.765-20.991-44.2254-17.564-68.2986.575-4.0362.59-8.3464 2.879-11.6907s7.04-5.2759 10.481-3.1857c2.879 1.7442 3.772 5.3768 5.139 8.4473 1.821 4.1005 4.767 7.5995 8.494 10.0905 2.433 1.6145 5.529 2.7677 8.221 1.6433 3.686-1.5424 4.607-6.3138 5.024-10.35.759-7.4958 1.517-14.9965 2.275-22.5019.188-4.0456 1.034-8.0333 2.505-11.806 1.656-3.6903 4.794-6.9336 8.739-7.5967s8.422 2.0613 8.796 6.0831c-.017 1.6801-.157 3.3567-.417 5.0165-.134.8431-.011 1.7071.354 2.4787.365.7717.954 1.415 1.69 1.8458 1.555.6487 3.283-.3171 4.607-1.4415 4.578-3.6182 7.961-8.5482 11.158-13.4637 3.196-4.9155 6.32-10.0329 10.639-14.11237s9.818-6.962485 15.606-6.6741836c5.787.2883016 11.517 4.5119236 12.381 10.3211536.864 5.8093-3.081 11.2294-7.198 15.4242-6.066 6.2483-13 11.5887-20.588 15.8566-1.453.6116-2.674 1.6722-3.484 3.0271-1.166 2.5803 1.094 5.521 3.643 6.6886 2.879 1.3118 6.161 1.3551 9.257 2.0614 3.095.7063 6.334 2.465 7.198 5.5498 1.209 4.3245-2.692 8.231-6.378 10.6816-7.373 4.9296-15.54 8.548-24.143 10.696-3.066.764-6.277 1.4415-8.883 3.2001-2.606 1.7587-4.477 5.3336-3.325 8.2166 1.151 2.883 4.736 4.3245 7.889 4.0651 3.153-.2595 6.119-1.6289 9.185-2.4218 5.759-1.4415 12.828-.3459 15.837 4.8147.903 1.7598 1.386 3.706 1.411 5.684.025 1.979-.409 3.936-1.267 5.718-1.754 3.547-4.202 6.704-7.199 9.284-9.885 9.577-22.131 16.357-35.488 19.647-13.274 3.056-25.266 2.984-37.503-3.041"/><path d="m539.6 121.02c5.439-12.762 11.602-25.2033 18.456-37.263 1.814-3.2145 3.585-6.3858 5.341-9.5139 1.757-3.1281 3.513-6.2129 5.399-9.1392 3.654-5.5974 7.61-10.9918 11.849-16.1593 4.016-4.9588 8.004-9.5139 11.762-13.752 3.757-4.238 7.371-8.1013 10.797-11.532 5.361-5.3732 11.138-10.3137 17.276-14.7755 2.174-1.58566 3.902-2.75328 5.082-3.5317l1.354-.87932c.148-.10842.307-.20027.475-.27388-.135.1265-.279.24218-.432.34595l-1.31.93699c-1.152.80724-2.88 2.01811-4.996 3.6326-6.071 4.54196-11.798 9.52886-17.132 14.91956-3.383 3.4164-6.954 7.2941-10.697 11.5321s-7.702 8.822-11.69 13.7808c-4.219 5.1469-8.146 10.5274-11.762 16.1161-1.886 2.883-3.614 5.9678-5.37 9.0959l-5.341 9.514c-6.844 12.0332-13.01 24.4398-18.471 37.1618"/><path d="m569.017 65.1039c-.122-.5787-.189-1.1674-.202-1.7587-.101-1.1388-.173-2.7821-.245-4.8146-.129-4.0651-.129-9.6869-.1-15.8566.028-6.1696 0-11.8059-.245-15.8566-.101-2.0325-.187-3.6758-.274-4.8002-.072-.5888-.072-1.1842 0-1.7731.161.57.268 1.154.317 1.7443.173 1.1243.346 2.7677.504 4.7858.331 4.065.489 9.6869.461 15.8566-.029 6.1696-.072 11.6473-.101 15.8566v4.8146c.036.6031-.002 1.2084-.115 1.8019z"/><path d="m621.708 61.0108c-.695.0583-1.393.0583-2.088 0-1.339 0-3.282 0-5.672 0-4.78 0-11.388.2306-18.716.8072s-13.849 1.4415-18.586 2.1334c-2.375.346-4.319.6775-5.6.8938-.682.1542-1.375.2507-2.073.2883.65-.2606 1.325-.4538 2.015-.5766 1.31-.3027 3.211-.7208 5.572-1.1388 4.736-.8505 11.316-1.7587 18.615-2.3497 6.224-.5127 12.471-.7099 18.715-.591 2.39 0 4.319.173 5.673.2883.721.01 1.44.0921 2.145.2451z"/><path d="m540.336 120.126c-.127-.206-.224-.429-.288-.663l-.676-1.96c-.591-1.716-1.44-4.21-2.289-7.309-1.858-6.198-4.147-14.8329-6.551-24.3901s-4.607-18.2062-6.334-24.4336l-2.059-7.3661c-.216-.7928-.403-1.4415-.547-2.0037-.082-.2322-.13-.4749-.144-.7207.113.2181.209.4446.288.6775.172.5334.403 1.182.676 1.9604.591 1.7154 1.368 4.2093 2.289 7.3085 1.858 6.1841 4.147 14.8187 6.551 24.3903s4.607 18.2065 6.334 24.5055l2.059 7.366c.216.793.403 1.442.547 2.004.074.205.122.418.144.634z"/><path d="m611.344 105.394c-.221.109-.46.177-.705.202l-2.059.462-7.616 1.585c-6.42 1.355-15.26 3.301-25.035 5.492-9.776 2.191-18.716 4.051-25.108 5.262-3.225.62-5.845 1.081-7.659 1.441l-2.088.303c-.243.041-.491.041-.734 0 .229-.086.465-.153.705-.202l2.073-.447 7.602-1.6c6.421-1.34 15.275-3.301 25.05-5.477 9.776-2.177 18.644-4.065 25.094-5.276 3.225-.606 5.845-1.067 7.659-1.355l2.087-.318c.241-.055.488-.079.734-.072z"/></g><path d="m430.574 307.66s29.131-32.7 58.096-26.697c28.966 6.003 34.028 11.066 34.028 11.066s44.431-10.319 44.929-4.62-13.833 34.636-13.833 34.636c4.198 7.582 6.522 16.058 6.777 24.721s-1.566 17.261-5.311 25.077c0 0 34.471 32.119 19.089 40.308s-48.22-2.545-48.22-2.545-67.752 65.455-127.26 77.821c-59.507 12.367-131.824-18.729-156.695-44.015-26.337-26.752-48.552-98.847-43.351-102.527 7.58-5.311-5.339-44.485 44.264-80.228 49.604-35.744 45.233-56.409 45.233-56.409l19.365-6.557s-19.891 61.665 8.909 101.226c28.799 39.562 79.896 58.595 113.98 8.743z" fill="#f1463b"/><path d="m488.256 280.299c-5.601 2.064-10.43 5.802-13.833 10.706-1.657 2.445-2.733 5.237-3.145 8.162-.413 2.925-.151 5.906.766 8.714.997 2.786 2.816 5.203 5.217 6.932s5.27 2.688 8.228 2.751c6.972-.194 13.833-6.031 20.251-3.043 3.901 1.853 5.699 6.39 8.991 9.184 1.393 1.072 2.995 1.84 4.703 2.253 1.708.414 3.483.465 5.212.149 1.729-.315 3.372-.99 4.824-1.98 1.451-.991 2.679-2.275 3.603-3.769 1.011-2.082 1.536-4.367 1.536-6.681 0-2.315-.525-4.599-1.536-6.681-2.05-4.164-4.998-7.82-8.631-10.707-10.53-8.956-23.665-14.282-37.459-15.188" fill="#fff" opacity=".04"/><path d="m208.31 333.416c-4.648-7.386-24.898-2.766-32.174 1.937s-11.979 12.532-16.599 19.891c-6.806 10.651-14.718 20.97-25.342 27.859-10.623 6.888-24.345 9.959-36.1579 5.533-11.813-4.427-19.9188-16.101-27.3607-26.697s-16.1565-21.662-28.6888-24.899c-17.18-4.481-35.6326 9.074-40.11435 26.254-4.48174 17.18 2.76653 35.827 14.88385 48.802 19.9465 21.385 52.2594 29.048 80.7267 22.132 28.4672-6.916 52.7572-26.725 68.2772-51.513 5.865-9.378 10.734-19.642 18.757-27.25s20.5-12.062 30.432-6.971" fill="#f1463b"/><path d="m464.076 313.967c.207 4.227-1.208 8.373-3.956 11.591 1.051-1.715-.664-3.762-2.214-5.035-1.549-1.272-3.292-3.236-2.323-4.979 1.493-2.767 6.473 0 8.603-2.241" fill="#263238"/><path d="m457.851 299.222c0 .221-1.162.996-3.126 2.296-2.57 1.478-4.531 3.822-5.533 6.612-.355 1.364-.264 2.806.258 4.114.523 1.309 1.45 2.417 2.646 3.162 1.937 1.162 3.486 1.051 3.486 1.328 0 .276-1.577.719-4.011-.332-1.405-.661-2.56-1.757-3.292-3.126-.907-1.697-1.134-3.675-.637-5.533.534-1.573 1.383-3.02 2.496-4.252 1.114-1.233 2.467-2.224 3.978-2.914 1.128-.725 2.404-1.189 3.735-1.355z" fill="#263238"/><path d="m479.069 340.249c.756-.022 1.497.222 2.092.688.596.467 1.009 1.128 1.168 1.868s.054 1.512-.297 2.182-.926 1.196-1.625 1.487c-.699.29-1.477.327-2.2.103s-1.345-.694-1.757-1.329-.589-1.394-.5-2.145c.09-.752.439-1.448.989-1.968" fill="#263238"/><path d="m481.92 297.063c.757-.022 1.497.222 2.092.688.596.467 1.009 1.128 1.168 1.868s.054 1.512-.297 2.182-.926 1.196-1.625 1.487c-.699.29-1.477.327-2.2.103s-1.345-.694-1.757-1.329-.589-1.394-.5-2.145c.09-.751.439-1.448.989-1.968" fill="#263238"/><path d="m377.788 335.85c55.89 0 101.199-45.308 101.199-101.198 0-55.891-45.309-101.199-101.199-101.199-55.891 0-101.199 45.308-101.199 101.199 0 55.89 45.308 101.198 101.199 101.198z" fill="#455a64"/><path d="m440.145 341.882c-.454-23.393-9.054-45.896-24.317-63.63-4.98-5.726-11.066-11.066-18.398-12.753-7.331-1.688-16.35 1.604-18.895 8.77-2.351 6.722 1.383 13.832 4.399 20.334 10.426 22.398 13.224 47.595 7.967 71.735" fill="#f1463b"/><path d="m438.431 340.996c-.063-.681-.063-1.366 0-2.047 0-1.328 0-3.265-.166-5.782-.437-7.069-1.624-14.07-3.541-20.888-2.848-10.108-7.374-19.665-13.39-28.273-3.332-5.167-7.624-9.646-12.643-13.197-2.658-1.783-5.651-3.006-8.797-3.596-3.228-.541-6.54-.256-9.628.83-3.072 1.041-5.704 3.088-7.469 5.81-1.541 2.75-2.198 5.909-1.881 9.046.961 6.101 2.537 12.088 4.703 17.872 3.473 10 6.065 20.284 7.746 30.736 1.07 7.088 1.07 14.297 0 21.385-.301 1.923-.717 3.826-1.245 5.699-.172.656-.403 1.295-.692 1.909-.166 0 .72-2.767 1.328-7.691.808-7.037.622-14.152-.553-21.136-1.858-10.353-4.579-20.533-8.134-30.432l-2.766-8.714c-1.026-3.078-1.703-6.261-2.02-9.49-.373-3.464.352-6.958 2.075-9.987 1.955-3.034 4.881-5.316 8.3-6.473 3.34-1.195 6.932-1.509 10.429-.913 3.357.64 6.548 1.958 9.379 3.873 5.163 3.677 9.576 8.306 13.002 13.639 10.14 14.745 15.807 32.103 16.323 49.991v5.837c-.045.675-.165 1.343-.36 1.992z" fill="#263238"/><path d="m391.26 288.82c-1.901-2.21-3.596-4.59-5.062-7.11-1.893-2.25-3.579-4.667-5.035-7.221 4.981 3.455 8.563 8.577 10.097 14.441z" fill="#263238"/><path d="m397.984 282.097c-2.113-1.985-3.972-4.224-5.533-6.667-1.978-2.119-3.679-4.48-5.063-7.027.304-.305 3.348 2.213 6.308 6.058 2.004 2.177 3.472 4.792 4.288 7.636z" fill="#263238"/><path d="m406.007 279.94c-.47 0-1.217-3.403-3.182-7.221-1.964-3.817-4.288-6.529-3.956-6.861 2.435 1.378 4.328 3.544 5.367 6.142 1.496 2.36 2.123 5.168 1.771 7.94z" fill="#263238"/><path d="m227.042 328.74c6.954-4.977 12.309-11.869 15.414-19.837 3.105-7.967 3.824-16.666 2.071-25.035-1.041-2.526-1.041-5.36 0-7.885 2.268-3.569 7.469-1.743 11.619-1.134 23.156 3.32 65.4 1.328 65.4 1.328 14.22-1.328 36.352-3.652 36.352-3.652-10.651 17.844-35.964 31.261-55.192 30.957 7.698 6.619 14.332 14.383 19.67 23.018 9.307 14.651 13.437 31.998 11.73 49.271-.931 8.567-3.721 16.827-8.175 24.205-4.453 7.377-10.462 13.694-17.608 18.51-14.469 9.24-34.084 10.568-48.94 1.937" fill="#f1463b"/><path d="m278.911 426.398c4.09-.185 8.155-.741 12.145-1.66 10.946-3.007 20.677-9.363 27.831-18.176 8.015-9.411 12.805-21.143 13.667-33.474.262-4.647.068-9.308-.581-13.916-.641-4.934-1.743-9.797-3.292-14.524-1.56-4.986-3.569-9.819-6.004-14.441-5.044-9.885-11.992-18.676-20.444-25.867l-1.494-1.273h1.964c13.055-.469 25.756-4.372 36.822-11.315 7.43-4.863 13.511-11.524 17.678-19.365l.803 1.134c-38.263 4.191-76.841 4.682-115.198 1.466l.581-.747c2.58 7.966 3.299 16.418 2.103 24.705-.835 6.233-2.705 12.283-5.533 17.899-1.804 3.527-3.984 6.847-6.502 9.904-.885 1.024-1.604 1.771-2.074 2.269l-.775.747c.19-.302.402-.589.636-.858.443-.525 1.134-1.3 1.964-2.351 2.384-3.121 4.46-6.465 6.197-9.987 2.702-5.585 4.469-11.576 5.229-17.734 1.074-8.148.289-16.433-2.296-24.234l-.277-.802h.858c38.283 2.926 76.754 2.296 114.921-1.882l1.521-.193-.719 1.328c-4.307 8.035-10.567 14.856-18.204 19.835-11.298 7.114-24.281 11.104-37.624 11.564l.442-1.383c12.574 10.932 21.856 25.147 26.808 41.055 1.563 4.809 2.666 9.756 3.292 14.773.636 4.749.793 9.55.47 14.331-.324 4.49-1.168 8.928-2.517 13.224-2.451 7.653-6.411 14.736-11.647 20.832-7.331 8.898-17.316 15.219-28.495 18.037-.968.222-1.881.471-2.767.637l-2.49.276-2.102.277h-4.122z" fill="#263238"/><path d="m330.812 287.907c3.463-1.192 6.727-2.899 9.683-5.062 4.675-3.901 6.141-8.881 6.612-8.715.47.166 0 1.356-.692 3.32-1.093 2.556-2.77 4.821-4.897 6.612-2.107 1.795-4.61 3.066-7.303 3.707-2.075.47-3.403.332-3.403.138z" fill="#263238"/><path d="m449.855 333.416c0 .194-1.715 0-3.431-1.771-.976-1.123-1.601-2.508-1.798-3.984-.21-1.794.107-3.611.913-5.228.715-1.444 1.736-2.715 2.993-3.723s2.718-1.73 4.283-2.115c2.379-.525 3.873 0 3.846 0-.028 0-1.439.249-3.514 1.024-2.695.976-4.907 2.959-6.169 5.533-.649 1.211-.961 2.574-.903 3.946.059 1.373.485 2.704 1.235 3.856 1.217 1.77 2.628 2.241 2.545 2.462z" fill="#263238"/><path d="m559.549 285.528c3.209.138-7.387 10.928-11.841 15.797-1.521 2.08-3.776 3.504-6.308 3.983-2.07-.079-4.06-.826-5.671-2.13-4.285-2.898-8.085-6.456-11.26-10.54l-.719-.858s29.104-6.556 35.799-6.252z" fill="#000" opacity=".09"/><path d="m545.525 380.999c-7.884 5.656-13.711 13.727-16.599 22.99 9.741 4.801 20.708 6.537 31.455 4.98 1.096-.033 2.172-.297 3.159-.773.986-.477 1.861-1.156 2.568-1.994 1.605-2.434.277-5.726-1.355-8.133-4.869-7.166-12.118-12.256-19.228-17.18" fill="#000" opacity=".09"/><path d="m443.328 405.04c-.249 0 1.439-4.232 3.624-11.066 5.698-17.864 8.18-36.598 7.331-55.33-.304-7.165-.857-11.592-.608-11.647.371.988.613 2.021.719 3.071.36 1.992.719 4.897 1.024 8.493 1.468 18.878-1.059 37.853-7.414 55.69-.936 2.699-2.007 5.349-3.21 7.94-.352 1.014-.846 1.973-1.466 2.849z" fill="#263238"/><path d="m462.667 395.829c-.249 0 .443-3.763 1.135-9.821 1.759-15.766.823-31.717-2.767-47.169-1.355-5.948-2.49-9.572-2.241-9.655.49.751.863 1.572 1.107 2.434.636 1.605 1.411 3.984 2.241 6.944 4.251 15.501 5.193 31.723 2.766 47.612-.47 3.015-.968 5.533-1.411 7.11-.131.889-.411 1.749-.83 2.545z" fill="#263238"/><path d="m454.669 292.776c1.24 2.691 1.791 5.648 1.605 8.604.332 2.936-.057 5.908-1.134 8.659-.471-2.842-.619-5.728-.443-8.603-.347-2.876-.356-5.782-.028-8.66z" fill="#263238"/><path d="m482.443 445.736c-1.244-7.525-12.311-20.085-19.946-19.864-7.636.221-14.635 3.929-21.496 7.276-6.861 3.348-14.358 6.446-21.911 5.367-9.71-1.411-17.263-9.378-26.752-11.896-4.074-.932-8.296-1.016-12.404-.245-4.108.772-8.012 2.38-11.471 4.727-6.903 4.765-12.512 11.173-16.322 18.646-4.067 7.442-6.916 15.603-12.145 22.271-5.229 6.667-13.833 12.947-22.132 10.761 0 0 53.117 17.263 95.942 1.549 31.594-11.508 68.637-38.592 68.637-38.592z" fill="#fff" opacity=".04"/><path d="m432.927 308.214c-3.346-.48-6.759-.088-9.91 1.137-3.15 1.226-5.931 3.244-8.073 5.859s-3.573 5.739-4.155 9.069c-.581 3.33-.293 6.754.836 9.94 1.097 2.312 1.95 4.732 2.545 7.22.664 4.814-2.296 9.324-2.96 14.11-.311 2.147-.113 4.338.579 6.395s1.858 3.922 3.405 5.445c1.587 1.478 3.565 2.467 5.7 2.85 2.134.382 4.333.142 6.334-.692 4.842-2.185 7.193-7.691 8.549-12.809 4.188-16.042 3.062-33.01-3.21-48.358" fill="#fff" opacity=".04"/><path d="m226.851 426.233c10.032 1.991 20.383 1.71 30.293-.822 9.91-2.533 19.126-7.252 26.973-13.812 8.079-6.861 14.691-16.129 15.963-26.67 1.273-10.54-3.928-22.132-13.832-26.254-13.141-5.533-28.523 3.79-42.217 0-5.631-2.056-10.849-5.101-15.41-8.991-4.579-3.88-10.058-6.553-15.935-7.774-5.92-.747-12.726 1.992-14.69 7.663v4.814c6.031 19.753 16.848 45.094 28.855 71.846z" fill="#fff" opacity=".04"/><path d="m60.858 435.085c3.4339.642 6.9692.485 10.3331-.456 3.3639-.942 6.4663-2.645 9.0677-4.976 2.6015-2.331 4.6323-5.229 5.9357-8.47s1.8446-6.739 1.5816-10.222c-.1329-1.377-.4301-2.733-.8852-4.039-3.5688-9.71-12.1173-17.955-22.3811-19.144-6.0863-.72-12.5876.996-18.2589-1.328-5.6714-2.324-9.4338-8.742-11.5364-14.856-2.1025-6.114-3.4581-12.671-7.2483-17.927-3.7901-5.257-11.066-8.715-16.8203-5.533 0 0-18.64628 16.599-6.5843 44.125 9.7658 22.05 28.3844 37.985 56.7964 42.826z" fill="#fff" opacity=".04"/><path d="m440.339 162.418c-.224.62-.531 1.206-.913 1.743l-2.933 4.814c-1.511 2.555-3.154 5.03-4.924 7.414-2.047 2.766-4.233 6.141-7.055 9.489l-4.315 5.339c-1.494 1.854-3.237 3.652-4.953 5.533-3.347 3.901-7.331 7.691-11.453 11.758-9.183 8.595-19.025 16.457-29.436 23.515-10.505 6.911-21.541 12.98-33.004 18.149-5.339 2.241-10.374 4.481-15.271 6.086-2.435.83-4.759 1.743-7.055 2.434l-6.584 1.937c-4.178 1.328-8.078 2.047-11.453 2.767-2.883.72-5.801 1.293-8.743 1.715l-5.533.857c-.637.127-1.286.192-1.936.194.616-.242 1.256-.418 1.909-.526l5.533-1.134c2.407-.442 5.339-1.051 8.687-1.964 3.347-.913 7.192-1.688 11.342-3.071l6.529-2.019c2.269-.72 4.565-1.66 6.972-2.518 4.841-1.66 9.821-3.901 15.133-6.169 22.8-10.341 43.745-24.361 61.997-41.498 4.122-4.039 8.134-7.774 11.509-11.619 1.715-1.881 3.458-3.652 5.007-5.533l4.344-5.257c2.766-3.292 5.118-6.529 7.22-9.295 2.103-2.767 3.79-5.201 5.118-7.248l3.182-4.62c.332-.447.692-.872 1.079-1.273z" fill="#263238"/><path d="m365.174 238.83c-.91-1.061-1.725-2.2-2.435-3.403-.747-1.135-1.632-2.545-2.545-4.233s-2.047-3.569-3.016-5.782c-2.472-5.116-4.544-10.416-6.197-15.852-1.968-6.686-3.375-13.525-4.205-20.445-.732-6.919-.88-13.887-.442-20.831.413-5.672 1.254-11.304 2.517-16.848.471-2.38 1.162-4.454 1.688-6.308.429-1.595.946-3.165 1.549-4.703.41-1.34.947-2.637 1.605-3.873.304 0-1.826 5.699-3.735 15.133-1.108 5.475-1.829 11.022-2.158 16.599-.804 13.755.75 27.546 4.592 40.778 1.562 5.396 3.503 10.675 5.81 15.797 3.79 8.825 7.11 13.805 6.972 13.971z" fill="#263238"/><path d="m392.177 215.092c-.8-.762-1.506-1.616-2.103-2.545-1.84-2.41-3.513-4.942-5.007-7.581-2.259-3.905-4.202-7.984-5.81-12.2-1.936-5.175-3.427-10.506-4.454-15.935-.957-5.482-1.447-11.035-1.466-16.599.018-4.514.397-9.019 1.134-13.473.467-3.003 1.142-5.971 2.02-8.88.246-1.086.627-2.136 1.134-3.127.277 0-1.051 4.62-2.047 12.173-.544 4.405-.803 8.841-.775 13.279.064 5.488.545 10.963 1.439 16.378 1.02 5.35 2.454 10.613 4.288 15.741 1.552 4.175 3.402 8.234 5.533 12.145 3.486 6.668 6.363 10.43 6.114 10.624z" fill="#263238"/><path d="m417.35 191.936c-1.988-2.006-3.674-4.289-5.008-6.778-3.459-5.879-6.006-12.251-7.552-18.895-1.546-6.651-2.06-13.5-1.522-20.306.093-2.827.606-5.624 1.522-8.3.276 0-.222 3.209-.388 8.3-.45 13.424 2.632 26.732 8.936 38.593 2.407 4.592 4.233 7.22 4.012 7.386z" fill="#263238"/><path d="m466.841 183.692c-.232.651-.538 1.273-.913 1.854l-2.932 5.256c-1.245 2.269-2.767 5.035-4.925 8.106s-4.233 6.695-7.054 10.402l-4.316 6.004c-1.494 2.047-3.237 4.066-4.952 6.197-3.375 4.343-7.359 8.631-11.509 13.196-9.207 9.7-19.109 18.715-29.629 26.973-10.619 8.177-21.815 15.574-33.503 22.132-5.533 2.767-10.623 5.672-15.658 7.857-2.49 1.107-4.869 2.296-7.221 3.265l-6.805 2.766c-4.288 1.798-8.3 3.016-11.813 4.233-3.514 1.217-6.557 2.103-9.102 2.766l-5.782 1.522c-.665.213-1.352.352-2.047.415.632-.297 1.289-.538 1.964-.719l5.699-1.826c2.49-.747 5.533-1.688 8.963-3.016 3.431-1.328 7.47-2.545 11.703-4.426l6.722-2.767c2.352-.996 4.703-2.185 7.166-3.347 4.979-2.213 10.07-5.063 15.492-7.94 11.556-6.552 22.649-13.892 33.198-21.966 10.445-8.236 20.316-17.175 29.546-26.752 4.123-4.51 8.134-8.742 11.537-13.003 1.715-2.13 3.486-4.094 5.007-6.114l4.371-5.809c2.767-3.652 5.118-7.221 7.221-10.236 2.102-3.016 3.818-5.727 5.146-7.94 1.328-2.214 2.351-3.763 3.181-5.063.351-.711.767-1.387 1.245-2.02z" fill="#263238"/><path d="m480.649 197.415c-.137.667-.351 1.317-.636 1.936-.553 1.411-1.3 3.209-2.186 5.533l-1.604 3.956c-.636 1.411-1.411 2.905-2.186 4.537-1.632 3.237-3.32 7.027-5.699 11.066l-3.569 6.004c-1.245 2.158-2.766 4.288-4.205 6.529-2.766 4.564-6.39 9.101-10.014 13.832-16.248 20.684-36.179 38.186-58.789 51.623-5.284 2.96-10.236 5.893-15.133 8.134-2.406 1.134-4.703 2.351-6.999 3.32l-6.639 2.766c-4.178 1.854-8.162 3.016-11.592 4.233-1.715.553-3.292 1.134-4.786 1.577l-4.122 1.079-5.672 1.466c-.658.196-1.335.326-2.019.387.62-.303 1.269-.544 1.936-.719l5.533-1.715 4.067-1.218c1.466-.498 3.016-1.106 4.731-1.715 3.375-1.272 7.303-2.517 11.426-4.426l6.556-2.767c2.269-.996 4.537-2.241 6.944-3.403 4.842-2.268 9.738-5.228 14.939-8.299 22.379-13.454 42.16-30.818 58.401-51.263 3.652-4.787 7.193-9.241 10.07-13.833 1.467-2.241 2.988-4.316 4.261-6.446l3.652-6.142c2.434-3.845 4.149-7.58 5.865-10.761.802-1.605 1.632-3.099 2.296-4.482s1.189-2.767 1.743-3.873c.996-2.186 1.798-3.956 2.434-5.312.295-.557.627-1.093.996-1.604z" fill="#263238"/><path d="m353.001 215.315c-3.188-1.034-6.318-2.234-9.379-3.597-15.023-5.936-30.729-9.97-46.754-12.007-3.342-.272-6.666-.725-9.959-1.355.907-.201 1.841-.257 2.766-.166 1.743 0 4.261.138 7.359.387 16.226 1.472 32.107 5.555 47.031 12.09 2.766 1.272 5.118 2.379 6.667 3.209.822.367 1.586.852 2.269 1.439z" fill="#263238"/><path d="m350.096 180.926c-.221.442-9.24-4.288-21.164-7.913-11.923-3.624-22.132-4.813-22.132-5.311 2.238-.197 4.492-.076 6.695.359 10.693 1.424 21.078 4.602 30.736 9.407 2.118.85 4.096 2.016 5.865 3.458z" fill="#263238"/><path d="m341.02 246.216c-2.92-.854-5.784-1.889-8.576-3.099-6.859-2.523-13.862-4.638-20.97-6.335-7.121-1.669-14.337-2.907-21.607-3.707-3.035-.184-6.056-.553-9.046-1.107 3.042-.345 6.114-.345 9.157 0 14.758.984 29.249 4.415 42.881 10.153 2.875 1.032 5.615 2.407 8.161 4.095z" fill="#263238"/><path d="m228.672 235.039c0-.166 2.214 0 6.004-1.134 5.344-1.606 10.235-4.45 14.275-8.3 5.952-5.735 10.8-12.515 14.303-20.002 4.343-8.299 8.299-17.954 14.773-26.807 6.009-8.354 13.323-15.686 21.662-21.717 6.832-4.912 14.271-8.92 22.132-11.924 5.262-2.014 10.698-3.542 16.239-4.565 1.964-.359 3.514-.498 4.565-.636.523-.073 1.054-.073 1.577 0-1.972.566-3.977 1.009-6.004 1.328-5.447 1.235-10.785 2.91-15.962 5.007-7.659 3.123-14.906 7.174-21.579 12.062-8.148 6.007-15.308 13.251-21.219 21.468-6.363 8.66-10.319 18.259-14.773 26.559-3.631 7.594-8.673 14.429-14.857 20.14-4.213 3.854-9.318 6.602-14.856 7.995-1.498.35-3.027.554-4.564.609-.573.055-1.151.027-1.716-.083z" fill="#455a64"/><path d="m428.192 217.804c-.221-.249 4.897-3.707 11.481-11.066 8.505-9.527 14.697-20.888 18.093-33.198 1.04-3.5 1.535-7.139 1.467-10.79-.014-3.294-1.026-6.506-2.905-9.212-1.782-2.363-4.321-4.043-7.193-4.759-2.531-.644-5.164-.775-7.746-.387-3.797.695-7.476 1.925-10.928 3.652-1.265.689-2.589 1.263-3.956 1.715 1.152-.87 2.384-1.629 3.679-2.268 3.443-1.98 7.178-3.399 11.066-4.206 2.753-.492 5.577-.417 8.3.222 3.2.727 6.047 2.546 8.05 5.146 2.066 2.938 3.212 6.424 3.293 10.014.114 3.736-.343 7.468-1.356 11.066-3.419 12.586-9.879 24.139-18.812 33.641-2.683 2.874-5.608 5.512-8.742 7.885-1.155 1-2.428 1.855-3.791 2.545z" fill="#455a64"/></svg>
