<svg width="381" height="380" viewBox="0 0 381 380" fill="none" xmlns="http://www.w3.org/2000/svg">
<path d="M332.711 296.43L38.8375 259.634C30.2992 258.565 24.2448 250.777 25.3137 242.238L46.084 76.346C47.1529 67.8077 54.9412 61.7526 63.4803 62.8215L357.354 99.6171C365.892 100.686 371.947 108.475 370.878 117.013L350.107 282.905C349.038 291.444 341.249 297.499 332.711 296.43Z" fill="#BADDC2"/>
<path d="M321.85 315.789H25.6825C17.0775 315.789 10.1016 308.812 10.1016 300.208V133.02C10.1016 124.415 17.0775 117.439 25.6825 117.439H321.85C330.455 117.439 337.431 124.415 337.431 133.02V300.208C337.431 308.812 330.455 315.789 321.85 315.789Z" fill="#22A7F0"/>
<path d="M129.208 265.86C138.643 265.86 138.659 251.197 129.208 251.197C103.619 251.197 45.0473 251.197 41.3515 251.197C31.9166 251.197 31.9012 265.86 41.3515 265.86C41.3515 265.86 125.512 265.86 129.208 265.86Z" fill="white"/>
<path d="M154.625 265.86C160.635 265.86 166.645 265.86 172.655 265.86C182.09 265.86 182.106 251.197 172.655 251.197C166.645 251.197 160.635 251.197 154.625 251.197C145.19 251.197 145.175 265.86 154.625 265.86Z" fill="white"/>
<path d="M241.296 288.52C256.421 288.52 268.683 276.259 268.683 261.134C268.683 246.009 256.421 233.748 241.296 233.748C226.171 233.748 213.91 246.009 213.91 261.134C213.91 276.259 226.171 288.52 241.296 288.52Z" fill="#F7BF75"/>
<path d="M285.531 288.52C300.656 288.52 312.917 276.259 312.917 261.134C312.917 246.009 300.656 233.748 285.531 233.748C270.406 233.748 258.145 246.009 258.145 261.134C258.145 276.259 270.406 288.52 285.531 288.52Z" fill="#F94060"/>
<path d="M10.1026 184.266C20.9855 184.266 335.832 184.721 336.882 184.266C337.011 184.209 337.282 184.266 337.432 184.266C337.567 184.266 337.571 165.937 337.432 165.937C326.55 165.937 11.7038 165.481 10.6539 165.937C10.5234 165.993 10.2529 165.937 10.1026 165.937C9.96839 165.937 9.96326 184.266 10.1026 184.266Z" fill="white"/>
</svg>
