<svg width="381" height="380" viewBox="0 0 381 380" fill="none" xmlns="http://www.w3.org/2000/svg">
<g clip-path="url(#clip0_1220_56110)">
<path d="M174.621 59.9421L155.621 31.4166C151.905 25.8434 146.862 21.2728 140.942 18.1119C135.022 14.9511 128.409 13.2983 121.693 13.3008H27.6429C20.4441 13.3008 13.5402 16.1495 8.44996 21.2202C3.35968 26.2909 0.5 33.1682 0.5 40.3392V67.3777C0.5 70.9632 1.92984 74.4019 4.47498 76.9372C7.02011 79.4726 10.4721 80.8969 14.0714 80.8969H163.357C165.812 80.8904 168.22 80.2206 170.323 78.9588C172.426 77.697 174.146 75.8905 175.3 73.7317C176.441 71.5846 176.98 69.1708 176.861 66.7442C176.742 64.3175 175.968 61.9678 174.621 59.9421Z" fill="#6AC5F8"/>
<path d="M271.929 53.8594H0.5V243.129C0.5 250.3 3.35968 257.177 8.44996 262.248C13.5402 267.318 20.4441 270.167 27.6429 270.167H285.5C289.099 270.167 292.551 268.743 295.096 266.207C297.642 263.672 299.071 260.233 299.071 256.648V80.8978C299.071 73.7268 296.212 66.8495 291.121 61.7788C286.031 56.7081 279.127 53.8594 271.929 53.8594Z" fill="#FFEABB"/>
<path d="M285.5 364.801C337.967 364.801 380.5 322.431 380.5 270.166C380.5 217.901 337.967 175.531 285.5 175.531C233.033 175.531 190.5 217.901 190.5 270.166C190.5 322.431 233.033 364.801 285.5 364.801Z" fill="#6AC5F8"/>
<path d="M285.501 283.686C281.902 283.686 278.45 282.262 275.905 279.726C273.36 277.191 271.93 273.752 271.93 270.167V229.609C271.93 226.024 273.36 222.585 275.905 220.05C278.45 217.514 281.902 216.09 285.501 216.09C289.101 216.09 292.552 217.514 295.098 220.05C297.643 222.585 299.073 226.024 299.073 229.609V270.167C299.073 273.752 297.643 277.191 295.098 279.726C292.552 282.262 289.101 283.686 285.501 283.686Z" fill="#22A7F0"/>
<path d="M285.501 324.244C281.902 324.244 278.45 322.819 275.905 320.284C273.36 317.749 271.93 314.31 271.93 310.724C271.93 307.139 273.36 303.7 275.905 301.165C278.45 298.629 281.902 297.205 285.501 297.205C289.101 297.205 292.552 298.629 295.098 301.165C297.643 303.7 299.073 307.139 299.073 310.724C299.073 314.31 297.643 317.749 295.098 320.284C292.552 322.819 289.101 324.244 285.501 324.244Z" fill="#22A7F0"/>
</g>
<defs>
<clipPath id="clip0_1220_56110">
<rect width="380" height="380" fill="white" transform="translate(0.5)"/>
</clipPath>
</defs>
</svg>
