<svg width="203" height="140" viewBox="0 0 203 140" fill="none" xmlns="http://www.w3.org/2000/svg">
<path d="M160.472 36.0428C157.708 36.0428 155.009 36.3181 152.396 36.8293C145.141 30.6164 135.732 26.8415 125.436 26.7957C115.797 11.2504 98.5681 0.88916 78.903 0.88916C48.6994 0.88916 24.2148 25.3276 24.2148 55.4743C24.2148 57.4601 24.3265 59.4196 24.5366 61.3464C10.4591 65.2523 0.117676 78.1106 0.117676 93.4067C0.117676 111.803 15.0553 126.712 33.486 126.712C36.6311 126.712 39.6646 126.247 42.5537 125.434C48.6403 131.903 57.2615 135.966 66.8544 135.966C73.8537 135.966 80.3409 133.81 85.7053 130.133C92.9213 136.091 102.179 139.669 112.271 139.669C128.174 139.669 141.996 130.782 149.034 117.714C152.672 118.75 156.506 119.313 160.472 119.313C183.506 119.313 202.186 100.675 202.186 77.678C202.179 54.6813 183.506 36.0428 160.472 36.0428Z" fill="url(#paint0_linear_1196_3585)"/>
<defs>
<linearGradient id="paint0_linear_1196_3585" x1="70.8183" y1="9.91527" x2="217.624" y2="373.391" gradientUnits="userSpaceOnUse">
<stop offset="0.00155865" stop-color="white"/>
<stop offset="1" stop-color="#B9CECE"/>
</linearGradient>
</defs>
</svg>
