<svg width="722" height="536" viewBox="0 0 722 536" fill="none" xmlns="http://www.w3.org/2000/svg">
<path d="M649.107 494.906H601.388V495.266H649.107V494.906Z" fill="#49546B"/>
<path d="M478.111 498.825H465.59V499.185H478.111V498.825Z" fill="#49546B"/>
<path d="M599.946 481.536H572.297V481.896H599.946V481.536Z" fill="#49546B"/>
<path d="M138.698 483.954H76.4697V484.314H138.698V483.954Z" fill="#49546B"/>
<path d="M160.657 483.954H151.537V484.314H160.657V483.954Z" fill="#49546B"/>
<path d="M325.284 490.035H190.309V490.395H325.284V490.035Z" fill="#49546B"/>
<path d="M342.359 407.462H64.1521C61.9726 407.458 59.8838 406.589 58.344 405.047C56.8042 403.505 55.9394 401.414 55.9395 399.235V8.155C55.9584 5.98805 56.8316 3.9161 58.3693 2.38918C59.907 0.862266 61.9851 0.00371209 64.1521 0H342.359C344.54 0 346.633 0.866775 348.176 2.40964C349.719 3.95251 350.586 6.04509 350.586 8.22704V399.235C350.586 401.417 349.719 403.509 348.176 405.052C346.633 406.595 344.54 407.462 342.359 407.462ZM64.1521 0.288164C62.0682 0.29198 60.0709 1.12249 58.5987 2.59739C57.1265 4.0723 56.2997 6.07108 56.2997 8.155V399.235C56.2997 401.319 57.1265 403.317 58.5987 404.792C60.0709 406.267 62.0682 407.098 64.1521 407.102H342.359C344.444 407.098 346.443 406.268 347.917 404.793C349.392 403.319 350.222 401.32 350.225 399.235V8.155C350.222 6.06975 349.392 4.071 347.917 2.59651C346.443 1.12202 344.444 0.291972 342.359 0.288164H64.1521Z" fill="#49546B"/>
<path d="M654.019 407.462H375.798C373.618 407.458 371.527 406.59 369.985 405.048C368.443 403.506 367.575 401.415 367.571 399.235V8.155C367.594 5.98674 368.47 3.9148 370.01 2.38828C371.55 0.861762 373.63 0.00367161 375.798 0H654.019C656.184 0.0074987 658.258 0.867728 659.793 2.39424C661.327 3.92075 662.198 5.99054 662.217 8.155V399.235C662.217 401.412 661.355 403.5 659.818 405.042C658.281 406.584 656.196 407.454 654.019 407.462ZM375.798 0.288164C373.713 0.291972 371.714 1.12202 370.24 2.59651C368.765 4.071 367.935 6.06975 367.931 8.155V399.235C367.935 401.32 368.765 403.319 370.24 404.793C371.714 406.268 373.713 407.098 375.798 407.102H654.019C656.104 407.098 658.103 406.268 659.578 404.793C661.052 403.319 661.882 401.32 661.886 399.235V8.155C661.882 6.06975 661.052 4.071 659.578 2.59651C658.103 1.12202 656.104 0.291972 654.019 0.288164H375.798Z" fill="#49546B"/>
<path d="M721.291 471.724H0.884766V472.084H721.291V471.724Z" fill="#49546B"/>
<path d="M215.824 270.324H183.55V407.144H215.824V270.324Z" fill="#49546B"/>
<path d="M269.625 223.672H237.351V407.145H269.625V223.672Z" fill="#49546B"/>
<path d="M323.424 270.324H291.149V407.144H323.424V270.324Z" fill="#49546B"/>
<path d="M108.226 316.963H75.9521V407.129H108.226V316.963Z" fill="#49546B"/>
<path d="M162.025 294.445H129.751V407.131H162.025V294.445Z" fill="#49546B"/>
<path d="M377.225 316.963H344.951V407.129H377.225V316.963Z" fill="#F5F5F5"/>
<path d="M646.21 177.019H613.936V407.146H646.21V177.019Z" fill="#49546B"/>
<path d="M431.024 270.324H398.75V407.144H431.024V270.324Z" fill="#49546B"/>
<path d="M592.41 223.672H560.136V407.145H592.41V223.672Z" fill="#49546B"/>
<path d="M538.624 247.793H506.35V407.132H538.624V247.793Z" fill="#49546B"/>
<path d="M484.825 294.445H452.551V407.131H484.825V294.445Z" fill="#49546B"/>
<path d="M120.649 231.95C123.506 219.845 116.009 207.716 103.904 204.859C91.7996 202.002 79.6707 209.499 76.8137 221.604C73.9567 233.709 81.4535 245.838 93.5583 248.695C105.663 251.552 117.792 244.055 120.649 231.95Z" fill="#49546B"/>
<path d="M117.361 242.707C126.155 233.913 126.155 219.654 117.361 210.859C108.566 202.065 94.3074 202.065 85.5128 210.859C76.7183 219.654 76.7183 233.913 85.5128 242.707C94.3074 251.502 108.566 251.502 117.361 242.707Z" fill="#49546B"/>
<path d="M101.44 243.642C110.75 243.642 118.297 236.094 118.297 226.784C118.297 217.474 110.75 209.927 101.44 209.927C92.1294 209.927 84.582 217.474 84.582 226.784C84.582 236.094 92.1294 243.642 101.44 243.642Z" fill="#8C94A4"/>
<path d="M108.846 230.373C109.494 234.104 106.93 236.597 102.319 236.986L102.247 240.069H99.4373L99.5238 236.986C97.1108 236.803 94.7731 236.063 92.6943 234.825L93.9622 231.352C95.6535 232.48 97.5901 233.186 99.6102 233.413L99.7399 228.687C96.988 227.894 93.9767 226.857 93.3571 223.471C92.7087 219.739 95.3166 217.218 100.028 216.887V213.803H102.895V216.915C104.799 217.079 106.651 217.622 108.342 218.515L107.16 221.886C105.808 221.09 104.299 220.598 102.737 220.445L102.622 225.373C105.33 226.209 108.27 227.16 108.846 230.373ZM99.812 224.609L99.9272 220.575C98.3855 220.878 97.6363 221.742 97.7948 222.808C97.9533 223.875 98.7313 224.177 99.812 224.609ZM104.423 231.107C104.293 230.286 103.558 229.782 102.506 229.422L102.42 233.254C103.889 232.952 104.624 232.174 104.423 231.107Z" fill="white"/>
<path d="M634.916 36.7119H517.648C511.688 36.7119 506.856 41.5435 506.856 47.5036V91.823C506.856 97.7831 511.688 102.615 517.648 102.615H634.916C640.876 102.615 645.708 97.7831 645.708 91.823V47.5036C645.708 41.5435 640.876 36.7119 634.916 36.7119Z" fill="#49546B"/>
<path d="M542.904 45.6885H533.135C532.562 45.6885 532.098 46.1529 532.098 46.7259V93.5235C532.098 94.0964 532.562 94.5608 533.135 94.5608H542.904C543.477 94.5608 543.941 94.0964 543.941 93.5235V46.7259C543.941 46.1529 543.477 45.6885 542.904 45.6885Z" fill="#B7B4B4"/>
<path d="M622.868 45.6885H613.099C612.526 45.6885 612.062 46.1529 612.062 46.7259V93.5235C612.062 94.0964 612.526 94.5608 613.099 94.5608H622.868C623.441 94.5608 623.905 94.0964 623.905 93.5235V46.7259C623.905 46.1529 623.441 45.6885 622.868 45.6885Z" fill="#B7B4B4"/>
<path d="M584.271 61.8096H574.502C573.929 61.8096 573.465 62.274 573.465 62.847V93.5363C573.465 94.1092 573.929 94.5736 574.502 94.5736H584.271C584.844 94.5736 585.308 94.1092 585.308 93.5363V62.847C585.308 62.274 584.844 61.8096 584.271 61.8096Z" fill="#B7B4B4"/>
<path d="M563.767 69.6611H553.998C553.425 69.6611 552.961 70.1256 552.961 70.6985V93.521C552.961 94.0939 553.425 94.5584 553.998 94.5584H563.767C564.34 94.5584 564.804 94.0939 564.804 93.521V70.6985C564.804 70.1256 564.34 69.6611 563.767 69.6611Z" fill="#B7B4B4"/>
<path d="M603.577 88.7979H593.808C593.235 88.7979 592.771 89.2623 592.771 89.8352V93.5237C592.771 94.0967 593.235 94.5611 593.808 94.5611H603.577C604.15 94.5611 604.614 94.0967 604.614 93.5237V89.8352C604.614 89.2623 604.15 88.7979 603.577 88.7979Z" fill="white"/>
<path d="M618.157 45.4007C618.028 45.3366 617.886 45.2999 617.742 45.2929C617.597 45.286 617.453 45.3089 617.318 45.3603C617.182 45.4117 617.059 45.4904 616.956 45.5916C616.852 45.6927 616.771 45.8141 616.717 45.9482L599.427 83.4093C599.353 83.5894 599.23 83.7455 599.073 83.8601C598.915 83.9746 598.729 84.0432 598.535 84.0581C598.34 84.0731 598.146 84.0338 597.973 83.9447C597.8 83.8555 597.654 83.7201 597.554 83.5534L581.532 59.1748C581.384 58.9411 581.149 58.7753 580.88 58.7133C580.61 58.6513 580.327 58.698 580.091 58.8434L559.92 66.912C559.757 67.0113 559.57 67.0638 559.379 67.0638C559.189 67.0638 559.002 67.0113 558.839 66.912L536.867 44.7811C536.741 44.7132 536.603 44.6719 536.46 44.6599C536.318 44.6479 536.175 44.6655 536.039 44.7115C535.904 44.7575 535.78 44.8309 535.674 44.9272C535.569 45.0235 535.484 45.1405 535.426 45.271V45.3863C535.321 45.6252 535.308 45.8947 535.391 46.1424C535.473 46.39 535.645 46.5981 535.873 46.7262L559.026 69.5343C559.188 69.6368 559.375 69.6912 559.567 69.6912C559.758 69.6912 559.945 69.6368 560.107 69.5343L579.385 61.9556C579.501 61.8817 579.631 61.8316 579.766 61.8083C579.902 61.7849 580.041 61.7888 580.175 61.8196C580.309 61.8505 580.436 61.9077 580.547 61.9879C580.659 62.0681 580.754 62.1698 580.826 62.287L597.871 88.3225C597.97 88.4897 598.114 88.626 598.287 88.7162C598.459 88.8065 598.653 88.8472 598.847 88.8337C599.041 88.8203 599.228 88.7533 599.386 88.6401C599.544 88.527 599.668 88.3721 599.744 88.1928L618.618 46.7694C618.727 46.525 618.74 46.2486 618.655 45.9951C618.57 45.7415 618.392 45.5294 618.157 45.4007Z" fill="#E0E0E0"/>
<path d="M319.592 100.989C332.571 100.989 343.092 90.4679 343.092 77.4894C343.092 64.5109 332.571 53.9897 319.592 53.9897C306.614 53.9897 296.093 64.5109 296.093 77.4894C296.093 90.4679 306.614 100.989 319.592 100.989Z" fill="#E0E0E0"/>
<path opacity="0.8" d="M319.319 96.3499C329.735 96.3499 338.179 87.9058 338.179 77.4896C338.179 67.0734 329.735 58.6294 319.319 58.6294C308.903 58.6294 300.459 67.0734 300.459 77.4896C300.459 87.9058 308.903 96.3499 319.319 96.3499Z" fill="white"/>
<path d="M319.261 80.9712C320.319 80.9712 321.177 80.1133 321.177 79.055C321.177 77.9966 320.319 77.1387 319.261 77.1387C318.203 77.1387 317.345 77.9966 317.345 79.055C317.345 80.1133 318.203 80.9712 319.261 80.9712Z" fill="#E0E0E0"/>
<path d="M319.045 79.7638L310.934 72.1275L311.726 71.2918L319.074 78.2077L332.243 66.5659L333.007 67.4304L319.045 79.7638Z" fill="#E0E0E0"/>
<path d="M361.09 535.999C515.375 535.999 640.449 528.697 640.449 519.689C640.449 510.682 515.375 503.379 361.09 503.379C206.804 503.379 81.7305 510.682 81.7305 519.689C81.7305 528.697 206.804 535.999 361.09 535.999Z" fill="#49546B"/>
<path d="M408.951 270.44H313.828V520.752H408.951V270.44Z" fill="#EF3124" fill-opacity="0.95"/>
<path opacity="0.5" d="M409.254 270.44H338.323V520.752H409.254V270.44Z" fill="black"/>
<path d="M533.221 355.779H438.099V520.738H533.221V355.779Z" fill="#EF3124" fill-opacity="0.95"/>
<path opacity="0.3" d="M533.22 355.391H462.289V520.753H533.22V355.391Z" fill="black"/>
<path d="M284.076 315.075H188.953V520.736H284.076V315.075Z" fill="#EF3124" fill-opacity="0.95"/>
<path opacity="0.4" d="M284.075 314.571H213.144V520.737H284.075V314.571Z" fill="black"/>
<path d="M192.409 149.844V158.489C197.854 158.924 203.022 161.067 207.178 164.613L213.33 158.46C207.52 153.324 200.152 150.289 192.409 149.844Z" fill="#EF3124" fill-opacity="0.95"/>
<path d="M188.189 210.489C182.029 209.995 176.247 207.324 171.877 202.955C167.508 198.585 164.837 192.803 164.343 186.643H155.698C156.206 195.1 159.791 203.078 165.776 209.074C171.761 215.069 179.733 218.668 188.189 219.191V210.489Z" fill="#EF3124" fill-opacity="0.95"/>
<path d="M164.372 182.438C164.87 176.285 167.539 170.509 171.901 166.141C176.264 161.774 182.036 159.098 188.189 158.592V149.947C179.724 150.46 171.74 154.053 165.743 160.05C159.747 166.046 156.153 174.031 155.641 182.495L164.372 182.438Z" fill="#EF3124" fill-opacity="0.95"/>
<path opacity="0.2" d="M164.372 182.438C164.87 176.285 167.539 170.509 171.901 166.141C176.264 161.774 182.036 159.098 188.189 158.592V149.947C179.724 150.46 171.74 154.053 165.743 160.05C159.747 166.046 156.153 174.031 155.641 182.495L164.372 182.438Z" fill="black"/>
<path d="M216.298 161.529L210.146 167.681C213.252 171.33 215.291 175.766 216.037 180.5C216.783 185.234 216.206 190.082 214.372 194.51C212.537 198.937 209.516 202.772 205.641 205.592C201.765 208.411 197.186 210.105 192.409 210.488V219.132C198.9 218.736 205.149 216.524 210.444 212.748C215.739 208.973 219.866 203.786 222.356 197.778C224.846 191.771 225.599 185.185 224.528 178.771C223.456 172.357 220.605 166.372 216.298 161.5V161.529Z" fill="#EF3124" fill-opacity="0.95"/>
<g opacity="0.8">
<path opacity="0.8" d="M192.408 149.845V158.49C197.853 158.925 203.021 161.068 207.177 164.614L213.329 158.461C207.519 153.325 200.151 150.29 192.408 149.845Z" fill="white"/>
</g>
<g opacity="0.6">
<path opacity="0.6" d="M188.189 210.489C182.029 209.995 176.247 207.324 171.877 202.955C167.508 198.585 164.837 192.803 164.343 186.643H155.698C156.206 195.1 159.791 203.078 165.776 209.074C171.761 215.069 179.733 218.668 188.189 219.191V210.489Z" fill="white"/>
</g>
<g opacity="0.7">
<path opacity="0.7" d="M164.371 182.438C164.869 176.285 167.538 170.509 171.9 166.141C176.263 161.774 182.035 159.098 188.188 158.592V149.947C179.723 150.46 171.739 154.053 165.742 160.05C159.746 166.046 156.152 174.031 155.64 182.495L164.371 182.438Z" fill="white"/>
</g>
<path opacity="0.5" d="M216.298 161.529L210.146 167.681C213.252 171.33 215.291 175.766 216.037 180.5C216.783 185.234 216.206 190.082 214.372 194.51C212.537 198.937 209.516 202.772 205.641 205.592C201.765 208.411 197.186 210.105 192.409 210.488V219.132C198.9 218.736 205.149 216.524 210.444 212.748C215.739 208.973 219.866 203.786 222.356 197.778C224.846 191.771 225.599 185.185 224.528 178.771C223.456 172.357 220.605 166.372 216.298 161.5V161.529Z" fill="white"/>
<path d="M513.812 150.016C511.048 150.016 508.346 150.835 506.047 152.371C503.749 153.907 501.958 156.089 500.9 158.643C499.842 161.197 499.565 164.007 500.104 166.718C500.644 169.429 501.975 171.919 503.929 173.874C505.884 175.829 508.374 177.16 511.085 177.699C513.796 178.238 516.606 177.961 519.16 176.904C521.714 175.846 523.897 174.054 525.432 171.756C526.968 169.458 527.788 166.756 527.788 163.992C527.788 160.285 526.315 156.73 523.694 154.109C521.073 151.488 517.518 150.016 513.812 150.016ZM513.812 170.979C512.429 170.982 511.077 170.575 509.926 169.809C508.775 169.043 507.877 167.952 507.346 166.676C506.814 165.399 506.674 163.994 506.942 162.637C507.21 161.281 507.874 160.034 508.851 159.055C509.828 158.077 511.073 157.41 512.429 157.139C513.785 156.868 515.191 157.006 516.468 157.534C517.746 158.063 518.838 158.958 519.607 160.108C520.375 161.257 520.785 162.609 520.785 163.992C520.782 165.841 520.046 167.614 518.74 168.923C517.433 170.233 515.661 170.972 513.812 170.979Z" fill="#EF3124" fill-opacity="0.95"/>
<path d="M549.041 191.021C546.276 191.019 543.573 191.836 541.273 193.37C538.972 194.904 537.179 197.086 536.119 199.639C535.059 202.193 534.78 205.003 535.318 207.715C535.855 210.427 537.185 212.919 539.139 214.875C541.093 216.831 543.583 218.163 546.295 218.704C549.006 219.244 551.817 218.968 554.372 217.911C556.926 216.853 559.11 215.062 560.646 212.763C562.182 210.465 563.003 207.762 563.003 204.997C563.003 201.293 561.532 197.741 558.914 195.12C556.296 192.499 552.745 191.025 549.041 191.021ZM549.041 211.971C547.658 211.974 546.305 211.566 545.153 210.799C544.002 210.032 543.104 208.941 542.573 207.664C542.043 206.386 541.903 204.98 542.172 203.623C542.441 202.266 543.107 201.02 544.085 200.042C545.064 199.064 546.31 198.398 547.667 198.129C549.024 197.859 550.43 197.999 551.707 198.53C552.985 199.06 554.076 199.958 554.843 201.11C555.61 202.261 556.017 203.614 556.015 204.997C556.011 206.846 555.275 208.617 553.968 209.924C552.661 211.231 550.889 211.967 549.041 211.971Z" fill="#EF3124" fill-opacity="0.95"/>
<path d="M519.041 218.973H509.748L542.037 150.016H551.33L519.041 218.973Z" fill="#EF3124" fill-opacity="0.95"/>
<g opacity="0.5">
<path opacity="0.5" d="M513.812 150.014C511.048 150.014 508.346 150.834 506.047 152.37C503.749 153.905 501.958 156.088 500.9 158.642C499.842 161.195 499.565 164.006 500.104 166.717C500.644 169.428 501.975 171.918 503.929 173.872C505.884 175.827 508.374 177.158 511.085 177.697C513.796 178.237 516.606 177.96 519.16 176.902C521.714 175.844 523.897 174.053 525.432 171.755C526.968 169.456 527.788 166.754 527.788 163.99C527.788 160.283 526.315 156.729 523.694 154.108C521.073 151.487 517.518 150.014 513.812 150.014ZM513.812 170.978C512.429 170.981 511.077 170.573 509.926 169.807C508.775 169.041 507.877 167.951 507.346 166.674C506.814 165.398 506.674 163.992 506.942 162.636C507.21 161.279 507.874 160.033 508.851 159.054C509.828 158.075 511.073 157.408 512.429 157.137C513.785 156.867 515.191 157.004 516.468 157.533C517.746 158.061 518.838 158.957 519.607 160.106C520.375 161.256 520.785 162.607 520.785 163.99C520.782 165.84 520.046 167.613 518.74 168.922C517.433 170.231 515.661 170.97 513.812 170.978Z" fill="white"/>
<path opacity="0.5" d="M549.04 191.02C546.275 191.017 543.572 191.834 541.272 193.368C538.971 194.902 537.178 197.084 536.118 199.638C535.058 202.191 534.779 205.002 535.317 207.714C535.854 210.426 537.184 212.917 539.138 214.873C541.092 216.829 543.582 218.162 546.294 218.702C549.005 219.243 551.816 218.967 554.371 217.909C556.925 216.852 559.109 215.061 560.645 212.762C562.182 210.463 563.002 207.761 563.002 204.996C563.002 201.292 561.531 197.739 558.913 195.119C556.295 192.498 552.744 191.024 549.04 191.02ZM549.04 211.969C547.657 211.972 546.304 211.565 545.152 210.798C544.001 210.031 543.103 208.94 542.572 207.662C542.042 206.385 541.902 204.979 542.171 203.622C542.44 202.265 543.106 201.018 544.084 200.04C545.063 199.062 546.309 198.396 547.666 198.127C549.023 197.858 550.429 197.998 551.707 198.528C552.984 199.059 554.075 199.957 554.842 201.108C555.609 202.26 556.016 203.613 556.014 204.996C556.01 206.844 555.274 208.616 553.967 209.923C552.66 211.23 550.888 211.966 549.04 211.969Z" fill="white"/>
<path opacity="0.5" d="M519.041 218.971H509.748L542.037 150.014H551.33L519.041 218.971Z" fill="white"/>
</g>
<path d="M353.883 156.197C354.257 157.984 354.618 159.54 355.035 161.168C355.453 162.796 355.9 164.324 356.375 165.966C357.312 169.122 358.393 172.263 359.588 175.447C361.979 182.061 365.25 188.322 369.314 194.062C370.511 195.665 371.841 197.164 373.291 198.543C374.916 200.102 376.767 201.408 378.78 202.419C382.642 204.297 386.93 205.127 391.214 204.825C394.965 204.566 398.648 203.7 402.121 202.26C403.757 201.592 405.354 200.832 406.905 199.984C407.68 199.545 408.43 199.064 409.152 198.543C409.873 198.01 410.593 197.563 411.4 196.972L407.553 190.186L405.536 190.719L403.418 191.224C401.977 191.541 400.536 191.814 399.096 192.002C396.496 192.4 393.856 192.453 391.243 192.16C389.151 191.948 387.142 191.225 385.393 190.057C384.64 189.515 383.944 188.897 383.319 188.212C382.554 187.3 381.851 186.337 381.215 185.331C379.753 183.034 378.476 180.626 377.397 178.127C376.215 175.519 375.178 172.767 374.198 169.943C373.219 167.119 372.34 164.18 371.461 161.298L370.222 156.975C369.833 155.535 369.4 154.007 369.098 152.754L353.883 156.197Z" fill="#FF8B7B"/>
<path d="M352.573 147.467C359.114 139.154 369.027 142.194 374.603 155.421C377.684 162.456 380.134 169.751 381.922 177.22L358.668 185.389C352.559 172.898 345.859 155.982 352.573 147.467Z" fill="#EF3124" fill-opacity="0.95"/>
<path opacity="0.1" d="M352.573 147.467C359.114 139.154 369.027 142.194 374.603 155.421C377.684 162.456 380.134 169.751 381.922 177.22L358.668 185.389C352.559 172.898 345.859 155.982 352.573 147.467Z" fill="black"/>
<path opacity="0.3" d="M362.283 161.37C360.381 160.073 356.447 167.637 354.632 176.541C355.914 179.653 357.283 182.636 358.652 185.402L372.642 180.489C370.351 172.118 366.591 164.251 362.283 161.37Z" fill="black"/>
<path d="M408.734 186.772L413.82 183.991L415.607 195.344C415.607 195.344 407.106 200.474 404.671 196.238L404.93 193.356C405.067 192.053 405.476 190.793 406.131 189.659C406.787 188.525 407.673 187.541 408.734 186.772Z" fill="#FF8B7B"/>
<path d="M420.203 183.43L424.655 192.564L415.564 195.36L413.777 183.992L420.203 183.43Z" fill="#FF8B7B"/>
<path d="M352.442 140.033L340.57 138.318L325.744 139.615C323.493 139.811 321.37 140.741 319.699 142.261C318.027 143.781 316.902 145.808 316.494 148.029C314.831 158.855 313.845 169.773 313.54 180.721C313.021 193.04 314.39 211.223 316.422 227.649L365.957 221.655C366.432 178.431 369.703 165.045 370.106 153.591C370.187 151.34 369.525 149.125 368.223 147.287C366.922 145.449 365.052 144.09 362.902 143.419L352.442 140.033Z" fill="#EF3124" fill-opacity="0.95"/>
<path d="M367.455 354.368L378.002 357.293L387.439 332.525L376.921 329.615L367.455 354.368Z" fill="#FF8B7B"/>
<path d="M382.7 354.009C381.866 352.925 380.659 352.191 379.314 351.948L368.464 349.845C368.222 349.789 367.968 349.827 367.752 349.95C367.536 350.072 367.374 350.271 367.297 350.508L363.969 360.406C363.784 360.949 363.819 361.543 364.067 362.06C364.314 362.577 364.755 362.977 365.295 363.172H365.41C369.415 364.757 372.124 364.21 378.377 365.42C382.224 366.169 390.322 368.734 395.667 368.518C401.012 368.302 401.07 362.942 398.793 362.538C390.725 361.285 384.544 356.444 382.7 354.009Z" fill="#263238"/>
<g opacity="0.2">
<path opacity="0.2" d="M387.439 332.538L382.411 345.707L372.037 342.379L376.907 329.613L387.439 332.538Z" fill="black"/>
</g>
<path d="M413.734 259.505C413.339 263.428 412.626 267.311 411.602 271.118C408.821 281.867 404.066 292.817 400.075 303.493C392.353 324.587 385.581 342.914 385.581 342.914L371.173 337.929C371.173 337.929 384.14 276.896 392.886 270.657H339.259C338.256 270.658 337.255 270.59 336.262 270.456C345.497 269.26 359.891 263.568 373.247 257.877C385.048 252.834 396.084 247.792 402.064 245.89C409.383 249.016 414.296 253.353 413.734 259.505Z" fill="#263238"/>
<path opacity="0.1" d="M413.734 259.505C413.339 263.428 412.626 267.311 411.602 271.118C408.821 281.867 404.066 292.817 400.075 303.493C392.353 324.587 385.581 342.914 385.581 342.914L371.173 337.929C371.173 337.929 384.14 276.896 392.886 270.657H339.259C338.256 270.658 337.255 270.59 336.262 270.456C345.497 269.26 359.891 263.568 373.247 257.877C385.048 252.834 396.084 247.792 402.064 245.89C409.383 249.016 414.296 253.353 413.734 259.505Z" fill="black"/>
<path opacity="0.6" d="M402.077 245.946C396.084 247.891 385.047 252.891 373.261 257.934C359.905 263.625 345.511 269.316 336.275 270.512C320.715 268.437 314.865 249.894 331.132 228.512C341.693 228.512 352.312 238.598 352.312 238.598C352.312 238.598 384.24 238.439 402.077 245.946Z" fill="black"/>
<path d="M440.892 333.087H452.678L440.33 303.493L432.319 317.08L440.892 333.087Z" fill="#FF8B7B"/>
<path d="M451.714 330.29L437.868 327.135C437.633 327.071 437.382 327.1 437.168 327.215C436.953 327.33 436.791 327.523 436.715 327.754L432.854 338.402C432.697 338.943 432.761 339.523 433.031 340.017C433.301 340.511 433.755 340.878 434.294 341.039H434.366C439.222 342.062 441.57 342.307 447.694 343.675C451.44 344.54 460.921 347.018 466.093 348.2C471.266 349.381 472.62 344.309 470.56 343.344C461.338 339.022 456.324 334.987 453.644 331.501C453.164 330.882 452.48 330.453 451.714 330.29Z" fill="#263238"/>
<g opacity="0.2">
<path opacity="0.2" d="M440.33 303.495L445.589 316.102L434.97 322.024L432.319 317.082L440.33 303.495Z" fill="black"/>
</g>
<path d="M445.749 311.619L432.782 319.471C432.782 319.471 421.961 296.75 411.616 271.118C412.64 267.311 413.353 263.427 413.749 259.505C414.311 253.352 409.426 249.016 402.107 245.961C396.113 247.906 385.077 252.906 373.291 257.949C359.934 263.64 345.541 269.331 336.305 270.527C335.245 270.669 334.176 270.746 333.107 270.757C315.356 270.757 309.232 255.197 316.393 228.801C326.954 228.801 345.036 227.663 345.036 227.663C345.036 227.663 379.933 219.277 405.046 222.13C411.006 222.832 416.588 225.408 420.99 229.486C425.392 233.564 428.386 238.934 429.54 244.823C436.009 276.866 445.749 311.619 445.749 311.619Z" fill="#263238"/>
<path d="M445.749 311.619L432.782 319.471C432.782 319.471 421.961 296.75 411.616 271.118C412.64 267.311 413.353 263.427 413.749 259.505C414.311 253.352 409.426 249.016 402.107 245.961C396.113 247.906 385.077 252.906 373.291 257.949C359.934 263.64 345.541 269.331 336.305 270.527C335.245 270.669 334.176 270.746 333.107 270.757C315.356 270.757 309.232 255.197 316.393 228.801C326.954 228.801 345.036 227.663 345.036 227.663C345.036 227.663 379.933 219.277 405.046 222.13C411.006 222.832 416.588 225.408 420.99 229.486C425.392 233.564 428.386 238.934 429.54 244.823C436.009 276.866 445.749 311.619 445.749 311.619Z" fill="#263238"/>
<path d="M352.442 140.033L340.57 138.318L325.744 139.615C323.493 139.811 321.37 140.741 319.699 142.261C318.027 143.781 316.902 145.808 316.494 148.029C314.831 158.855 313.845 169.773 313.54 180.721C313.021 193.04 314.39 211.223 316.422 227.649L365.957 221.655C366.432 178.431 369.703 165.045 370.106 153.591C370.187 151.34 369.525 149.125 368.223 147.287C366.922 145.449 365.052 144.09 362.902 143.419L352.442 140.033Z" fill="#EF3124" fill-opacity="0.95"/>
<path d="M316.305 224.91L315.023 228.929C314.865 229.232 315.21 229.563 315.743 229.578L365.192 226.624C365.596 226.624 365.941 226.437 365.97 226.177L366.503 222.143C366.503 221.855 366.186 221.61 365.754 221.596L317.098 224.578C316.948 224.558 316.796 224.578 316.657 224.636C316.517 224.695 316.396 224.789 316.305 224.91Z" fill="#263238"/>
<path opacity="0.1" d="M316.305 224.91L315.023 228.929C314.865 229.232 315.21 229.563 315.743 229.578L365.192 226.624C365.596 226.624 365.941 226.437 365.97 226.177L366.503 222.143C366.503 221.855 366.186 221.61 365.754 221.596L317.098 224.578C316.948 224.558 316.796 224.578 316.657 224.636C316.517 224.695 316.396 224.789 316.305 224.91Z" fill="black"/>
<path opacity="0.3" d="M321.32 143.992C331.19 142.263 330.7 164.696 326.205 181.107C324.908 185.862 319.289 183.873 317.387 182.634C311.148 178.658 309.045 151.167 321.32 143.992Z" fill="black"/>
<path d="M320.124 177.217C320.499 186.914 317.415 192 322.588 195.241C327.76 198.483 358.32 208.612 359.069 207.344C357.628 209.678 356.187 211.667 354.747 214.03C345.938 212.704 337.126 211.479 328.308 210.356C321.867 209.549 311.479 207.892 306.436 203.8C301.854 200.111 302.676 183.917 303.454 172.246C307.502 169.84 320.124 177.217 320.124 177.217Z" fill="#FF8B7B"/>
<path d="M317.488 140.045C327.574 137.062 331.478 145.188 328.395 159.15C326.841 166.679 324.608 174.053 321.724 181.18L300.486 174.48C302.792 160.778 307.085 143.099 317.488 140.045Z" fill="#EF3124" fill-opacity="0.95"/>
<path d="M332.271 139.977C332.002 142.13 332.552 144.305 333.813 146.071C335.054 147.814 336.505 149.396 338.135 150.783C340.138 152.612 342.529 154.586 345.238 154.226C347.731 153.895 349.157 152.641 350.166 149.673C352.298 153.117 352.399 154.831 354.748 155.047C355.509 155.007 356.252 154.801 356.926 154.446C357.6 154.09 358.189 153.592 358.652 152.987C359.517 152.275 360.233 151.4 360.76 150.411C361.287 149.422 361.613 148.339 361.721 147.224C362.283 142.901 358.753 138.838 354.632 137.297C350.437 135.892 346.079 135.03 341.665 134.732C337.818 134.329 332.977 135.524 332.271 139.977Z" fill="#EF3124" fill-opacity="0.95"/>
<path opacity="0.3" d="M332.271 139.977C332.002 142.13 332.552 144.305 333.813 146.071C335.054 147.814 336.505 149.396 338.135 150.783C340.138 152.612 342.529 154.586 345.238 154.226C347.731 153.895 349.157 152.641 350.166 149.673C352.298 153.117 352.399 154.831 354.748 155.047C355.509 155.007 356.252 154.801 356.926 154.446C357.6 154.09 358.189 153.592 358.652 152.987C359.517 152.275 360.233 151.4 360.76 150.411C361.287 149.422 361.613 148.339 361.721 147.224C362.283 142.901 358.753 138.838 354.632 137.297C350.437 135.892 346.079 135.03 341.665 134.732C337.818 134.329 332.977 135.524 332.271 139.977Z" fill="black"/>
<path d="M342.587 119.068L347.961 125.278L355.266 133.721C354.612 134.627 354.124 135.642 353.825 136.718C353.328 137.861 353.26 139.144 353.633 140.332C354.006 141.521 354.796 142.535 355.856 143.188C356.966 143.706 357.542 149.542 350.194 148.951C348.099 148.915 346.033 148.447 344.127 147.577C342.221 146.707 340.514 145.453 339.114 143.894C337.774 142.093 337.414 141.127 338.797 139.153C342.716 133.577 343.033 125.494 342.587 119.068Z" fill="#FF8B7B"/>
<path opacity="0.2" d="M353.508 131.631L348.897 125.536C348.897 125.709 348.782 125.911 348.725 126.112C348.499 126.972 348.345 127.849 348.263 128.735C347.99 131.76 350.828 135.636 353.594 137.293L353.811 136.688C354.152 135.664 354.637 134.694 355.251 133.806C355.287 133.756 355.331 133.712 355.381 133.677L353.508 131.631Z" fill="black"/>
<path d="M343.09 107.643C342.254 117.656 341.332 123.492 345.626 129.169C352.124 137.813 365.062 134.73 368.837 125.105C372.238 116.461 372.944 101.519 363.751 96.2892C360.514 94.502 356.7 94.0733 353.147 95.0973C349.595 96.1213 346.594 98.5141 344.804 101.75C343.797 103.56 343.211 105.575 343.09 107.643Z" fill="#FF8B7B"/>
<path d="M341.622 116.504L345.944 118.362C347.385 117.757 347.716 116.014 347.615 114.429C347.183 108.32 358.205 100.856 358.205 100.856C358.205 100.856 346.549 97.0239 343.048 96.4476C341.823 96.2459 337.415 99.4445 336.737 100.77C335.831 102.715 335.486 104.874 335.741 107.005C335.995 109.136 336.839 111.153 338.178 112.83C339.204 114.163 340.357 115.394 341.622 116.504Z" fill="#263238"/>
<path d="M337.934 114.704C338.148 116.94 339.173 119.02 340.815 120.553C342.948 122.513 345.556 120.38 345.873 117.528C346.132 114.992 344.85 111.289 342.256 110.439C339.663 109.589 337.689 111.908 337.934 114.704Z" fill="#FF8B7B"/>
<path d="M358.118 113.652C357.96 114.474 358.262 115.237 358.795 115.353C359.329 115.468 359.833 114.906 360.049 114.085C360.265 113.263 359.89 112.5 359.357 112.384C358.824 112.269 358.205 112.817 358.118 113.652Z" fill="#263238"/>
<path d="M367.355 115.683C367.196 116.519 367.499 117.282 368.046 117.397C368.594 117.513 369.127 116.936 369.285 116.13C369.444 115.323 369.127 114.545 368.594 114.429C368.061 114.314 367.513 114.862 367.355 115.683Z" fill="#263238"/>
<path d="M364.27 115.639C364.559 117.991 365.15 120.296 366.028 122.497C365.47 122.698 364.874 122.773 364.283 122.715C363.693 122.658 363.122 122.47 362.613 122.166L364.27 115.639Z" fill="#FF5652"/>
<path d="M360.281 126.789C359.363 126.471 358.52 125.968 357.804 125.311C357.087 124.654 356.513 123.858 356.117 122.971C356.093 122.912 356.093 122.846 356.117 122.786C356.141 122.727 356.188 122.68 356.246 122.654C356.31 122.634 356.378 122.637 356.439 122.664C356.5 122.69 356.549 122.738 356.578 122.798C357.021 123.755 357.68 124.595 358.502 125.255C359.325 125.915 360.288 126.376 361.318 126.602C361.35 126.606 361.381 126.616 361.41 126.631C361.438 126.647 361.463 126.668 361.483 126.694C361.503 126.719 361.518 126.748 361.527 126.78C361.536 126.811 361.538 126.844 361.534 126.876C361.523 126.942 361.487 127.002 361.434 127.042C361.38 127.082 361.313 127.1 361.246 127.092C360.915 127.021 360.592 126.92 360.281 126.789Z" fill="#263238"/>
<path d="M356.849 110.337C356.768 110.32 356.696 110.274 356.648 110.207C356.556 110.116 356.505 109.991 356.505 109.862C356.505 109.732 356.556 109.608 356.648 109.516C357.225 108.997 357.922 108.629 358.677 108.446C359.431 108.262 360.219 108.268 360.97 108.464C361.094 108.501 361.198 108.585 361.26 108.698C361.323 108.812 361.337 108.945 361.302 109.069C361.259 109.191 361.17 109.291 361.054 109.348C360.938 109.404 360.804 109.413 360.682 109.372C360.093 109.236 359.48 109.243 358.894 109.391C358.308 109.538 357.765 109.823 357.311 110.222C357.252 110.282 357.178 110.325 357.097 110.346C357.015 110.366 356.929 110.363 356.849 110.337Z" fill="#263238"/>
<path d="M368.405 110.35C368.383 110.27 368.383 110.186 368.405 110.106C368.422 110.043 368.451 109.984 368.49 109.933C368.53 109.881 368.579 109.838 368.636 109.806C368.692 109.774 368.754 109.753 368.818 109.745C368.883 109.737 368.948 109.742 369.01 109.76C369.754 109.937 370.444 110.292 371.021 110.794C371.598 111.295 372.045 111.929 372.324 112.641C372.36 112.767 372.346 112.903 372.284 113.018C372.222 113.134 372.118 113.221 371.993 113.261C371.869 113.297 371.735 113.282 371.622 113.22C371.509 113.158 371.424 113.053 371.388 112.93C371.165 112.364 370.809 111.86 370.35 111.461C369.891 111.062 369.343 110.78 368.751 110.639C368.674 110.623 368.602 110.588 368.542 110.538C368.482 110.488 368.435 110.423 368.405 110.35Z" fill="#263238"/>
<path d="M371.462 223.877L434.685 224.065C435.787 224.047 436.845 223.627 437.659 222.884C438.474 222.141 438.989 221.126 439.108 220.03L441.99 188.016C442.045 187.499 441.99 186.977 441.828 186.483C441.666 185.989 441.402 185.535 441.052 185.151C440.702 184.767 440.274 184.462 439.798 184.255C439.321 184.049 438.806 183.945 438.287 183.952L375.064 183.765C373.96 183.787 372.903 184.21 372.088 184.955C371.274 185.7 370.76 186.717 370.641 187.814L367.759 219.814C367.704 220.331 367.759 220.853 367.921 221.347C368.082 221.841 368.347 222.294 368.697 222.678C369.047 223.062 369.474 223.368 369.951 223.574C370.427 223.781 370.942 223.884 371.462 223.877Z" fill="#EF3124" fill-opacity="0.95"/>
<path opacity="0.3" d="M371.462 223.877L434.685 224.065C435.787 224.047 436.845 223.627 437.659 222.884C438.474 222.141 438.989 221.126 439.108 220.03L441.99 188.016C442.045 187.499 441.99 186.977 441.828 186.483C441.666 185.989 441.402 185.535 441.052 185.151C440.702 184.767 440.274 184.462 439.798 184.255C439.321 184.049 438.806 183.945 438.287 183.952L375.064 183.765C373.96 183.787 372.903 184.21 372.088 184.955C371.274 185.7 370.76 186.717 370.641 187.814L367.759 219.814C367.704 220.331 367.759 220.853 367.921 221.347C368.082 221.841 368.347 222.294 368.697 222.678C369.047 223.062 369.474 223.368 369.951 223.574C370.427 223.781 370.942 223.884 371.462 223.877Z" fill="black"/>
<path d="M373.32 223.743L436.543 223.93C437.647 223.912 438.707 223.49 439.522 222.744C440.337 221.998 440.85 220.98 440.966 219.882L443.848 187.881C443.905 187.365 443.852 186.843 443.692 186.35C443.532 185.856 443.269 185.402 442.92 185.018C442.572 184.633 442.145 184.328 441.669 184.121C441.193 183.914 440.678 183.811 440.16 183.818L376.937 183.631C375.834 183.656 374.778 184.08 373.964 184.824C373.151 185.569 372.635 186.583 372.513 187.68L369.632 219.68C369.574 220.196 369.628 220.718 369.788 221.212C369.947 221.705 370.211 222.159 370.559 222.544C370.908 222.928 371.335 223.234 371.811 223.44C372.287 223.647 372.801 223.75 373.32 223.743Z" fill="#EF3124" fill-opacity="0.95"/>
<path opacity="0.2" d="M373.32 223.743L436.543 223.93C437.647 223.912 438.707 223.49 439.522 222.744C440.337 221.998 440.85 220.98 440.966 219.882L443.848 187.881C443.905 187.365 443.852 186.843 443.692 186.35C443.532 185.856 443.269 185.402 442.92 185.018C442.572 184.633 442.145 184.328 441.669 184.121C441.193 183.914 440.678 183.811 440.16 183.818L376.937 183.631C375.834 183.656 374.778 184.08 373.964 184.824C373.151 185.569 372.635 186.583 372.513 187.68L369.632 219.68C369.574 220.196 369.628 220.718 369.788 221.212C369.947 221.705 370.211 222.159 370.559 222.544C370.908 222.928 371.335 223.234 371.811 223.44C372.287 223.647 372.801 223.75 373.32 223.743Z" fill="white"/>
<path d="M411.184 204.238C411.094 205.116 410.746 205.949 410.183 206.629C409.62 207.31 408.868 207.808 408.021 208.061C407.175 208.315 406.273 208.311 405.429 208.052C404.584 207.792 403.836 207.288 403.278 206.604C402.72 205.919 402.378 205.084 402.294 204.205C402.211 203.325 402.39 202.441 402.809 201.664C403.228 200.886 403.868 200.25 404.649 199.836C405.429 199.423 406.314 199.249 407.193 199.339C407.777 199.398 408.343 199.572 408.86 199.851C409.376 200.129 409.833 200.506 410.204 200.961C410.574 201.416 410.852 201.94 411.02 202.502C411.188 203.064 411.244 203.654 411.184 204.238Z" fill="white"/>
<path d="M437.452 223.889C437.452 225.806 436.313 227.362 434.93 227.362L369.676 227.102C368.97 227.102 368.394 226.324 368.394 225.374C368.394 224.423 368.97 223.616 369.676 223.616L437.452 223.889Z" fill="#EF3124" fill-opacity="0.95"/>
<path opacity="0.3" d="M437.452 223.889C437.452 225.806 436.313 227.362 434.93 227.362L369.676 227.102C368.97 227.102 368.394 226.324 368.394 225.374C368.394 224.423 368.97 223.616 369.676 223.616L437.452 223.889Z" fill="black"/>
<path d="M369.271 227.117H337.861C337.058 227.117 336.289 226.798 335.721 226.231C335.154 225.663 334.835 224.894 334.835 224.091C334.833 224.029 334.844 223.968 334.866 223.91C334.888 223.853 334.922 223.8 334.965 223.756C335.008 223.711 335.06 223.676 335.116 223.652C335.173 223.628 335.234 223.616 335.296 223.616H369.271C369.501 223.616 369.729 223.661 369.941 223.75C370.154 223.838 370.346 223.968 370.508 224.131C370.671 224.295 370.799 224.489 370.885 224.702C370.972 224.915 371.016 225.143 371.014 225.374C371.014 225.836 370.83 226.279 370.503 226.606C370.176 226.933 369.733 227.117 369.271 227.117Z" fill="#EF3124" fill-opacity="0.95"/>
<path d="M352.299 202.868L357.515 201.341L357.04 214.178C357.04 214.178 345.715 216.844 345.009 211.628L346.45 208.819C347.703 206.398 349.432 203.574 352.299 202.868Z" fill="#FF8B7B"/>
<path d="M365.324 204.9L363.782 212.104L357.039 214.164L357.515 201.341L365.324 204.9Z" fill="#FF8B7B"/>
<path d="M367.383 336.878L388.995 344.212L393.418 335.279L369.515 327.686L367.383 336.878Z" fill="#EF3124" fill-opacity="0.95"/>
<path d="M429.469 321.244L449.395 310.121L445.735 300.857L424.08 313.507L429.469 321.244Z" fill="#EF3124" fill-opacity="0.95"/>
<path d="M372.168 107.544C375.136 107.371 376.346 103.87 375.986 102.371C375.546 100.394 374.345 98.6702 372.643 97.5732C373.594 94.6915 372.312 91.1759 368.739 88.741C367.439 87.9894 365.986 87.542 364.489 87.4322C362.992 87.3224 361.489 87.5531 360.094 88.107C360.094 85.4991 355.296 83.7846 352.212 87.0408C350.942 86.2551 349.45 85.902 347.962 86.0344C346.474 86.1669 345.069 86.7778 343.957 87.7756C343.568 88.1144 343.278 88.551 343.116 89.0401C342.954 89.5292 342.925 90.0528 343.034 90.5564C341.809 90.5714 340.609 90.9168 339.563 91.5562C338.517 92.1955 337.663 93.1052 337.091 94.1894C336.519 95.2736 336.249 96.492 336.311 97.7164C336.374 98.9408 336.765 100.126 337.444 101.146C338.409 102.587 340.7 102.587 342.429 102.213C342.907 103.034 343.549 103.748 344.315 104.311C345.081 104.873 345.955 105.272 346.881 105.483C352.573 107.371 360.396 105.598 361.779 105.483C363.162 105.253 364.581 105.535 365.77 106.276C365.509 106.639 365.171 106.94 364.78 107.156C364.389 107.373 363.955 107.5 363.508 107.529C362.652 107.616 361.787 107.572 360.944 107.399C362.871 108.671 365.213 109.151 367.485 108.739C368.46 108.249 369.46 107.811 370.482 107.428C371.173 107.327 372.24 107.644 372.168 107.544Z" fill="#263238"/>
<path d="M285.404 283.658C284.639 283.347 283.924 282.925 283.284 282.403C282.577 281.977 281.936 281.452 281.378 280.844C282.14 281.16 282.852 281.585 283.492 282.105C284.198 282.532 284.842 283.054 285.404 283.658Z" fill="#F1463B"/>
<path d="M243.575 227.858C244.625 228.263 245.629 228.779 246.569 229.397C247.57 229.908 248.511 230.529 249.375 231.247C248.329 230.84 247.328 230.324 246.389 229.709C245.388 229.194 244.444 228.574 243.575 227.858Z" fill="#F1463B"/>
<path d="M282.181 286.885C281.691 286.253 281.296 285.553 281.009 284.806C280.62 284.114 280.337 283.366 280.171 282.589C280.662 283.22 281.057 283.921 281.342 284.668C281.731 285.361 282.014 286.108 282.181 286.885Z" fill="#F1463B"/>
<path d="M296.221 221.814C296.246 222.306 296.173 222.798 296.006 223.262C295.659 224.41 295.068 225.469 294.273 226.367C293.48 227.261 292.501 227.97 291.405 228.446C290.972 228.664 290.501 228.796 290.019 228.834C290.019 228.771 290.538 228.619 291.328 228.21C293.391 227.142 294.983 225.343 295.791 223.165C296.068 222.354 296.158 221.8 296.221 221.814Z" fill="#F1463B"/>
<path d="M267.31 215.704C266.803 215.546 266.332 215.289 265.924 214.948C264.872 214.175 264.006 213.176 263.389 212.025C262.771 210.874 262.418 209.6 262.356 208.296C262.301 207.757 262.355 207.212 262.515 206.695C262.577 206.695 262.515 207.312 262.612 208.275C262.875 210.803 264.119 213.127 266.077 214.747C266.798 215.364 267.338 215.648 267.31 215.704Z" fill="#F1463B"/>
<path d="M327.343 229.439C327.065 230.674 326.44 231.805 325.541 232.696C324.728 233.664 323.659 234.385 322.457 234.775C324.554 233.484 326.246 231.63 327.343 229.425V229.439Z" fill="#F1463B"/>
<path d="M312.458 236.299C311.56 235.214 310.941 233.925 310.656 232.545C310.371 231.166 310.428 229.738 310.822 228.385C310.725 229.751 310.788 231.123 311.009 232.474C311.345 233.8 311.831 235.083 312.458 236.299Z" fill="#F1463B"/>
<path d="M301.051 256.887C301.021 258.122 300.737 259.338 300.217 260.458C299.697 261.579 298.953 262.581 298.029 263.401C298.705 262.406 299.325 261.374 299.886 260.311C300.34 259.193 300.728 258.05 301.051 256.887Z" fill="#F1463B"/>
<path d="M237.998 265.501C237.998 265.931 239.148 277.843 235.704 282.133L232.405 286.291L233.951 288.03C233.951 288.03 232.807 304.662 233.951 307.836C234.557 309.634 235.657 311.226 237.124 312.43L244.858 311.571C244.858 311.571 245.149 307.697 242.994 307.267C240.839 306.838 241.13 305.542 241.13 305.542C241.546 301.492 242.822 297.577 244.872 294.059C248.164 288.751 251.178 288.605 255.766 283.727C260.353 278.848 263.95 272.535 264.379 271.101C264.809 269.666 263.52 261.052 263.52 261.052L250.201 250.436L237.998 265.501Z" fill="#F1463B"/>
<path d="M272.586 267.655C272.302 268.224 270.577 285.59 270.577 285.59L280.77 314.438C280.77 314.438 284.499 316.448 283.355 319.608L278.504 320.301L273.764 315.852C273.942 315.08 273.887 314.273 273.606 313.533C273.325 312.793 272.83 312.153 272.184 311.694C269.891 309.823 257.258 289.304 253.529 288.133C249.801 286.962 250.799 285.694 250.799 285.694L257.978 259.575L272.76 264.204L272.586 267.655Z" fill="#F1463B"/>
<path d="M200.065 222.663C200.21 215.352 203.308 209.836 204.673 204.999C206.059 200.037 206.551 195.664 203.565 191.631C202.727 190.488 201.668 189.524 200.451 188.798C199.234 188.071 197.883 187.597 196.479 187.403C195.075 187.209 193.646 187.3 192.278 187.669C190.909 188.038 189.629 188.679 188.513 189.552C187.4 190.305 186.595 191.435 186.247 192.733C185.991 194.043 186.67 195.595 187.952 195.949C189.677 196.413 191.229 194.68 192.997 194.466C195.221 194.188 197.071 196.468 197.245 198.7C197.418 200.931 196.441 203.038 195.574 205.117C191.458 214.985 188.859 228.817 197.092 239.177L206.385 235.344C203.01 231.637 199.996 227.576 200.065 222.663Z" fill="#F1463B"/>
<path d="M193.648 246.791C193.648 246.791 190.523 249.466 190.779 256.784C191.035 264.102 193.128 273.381 192.207 277.573C191.285 281.766 191.001 293.789 190.765 296.194C190.53 298.598 196.857 313.172 196.857 313.172L204.84 313.677C204.84 313.677 205.47 308.861 201.929 307.849C198.388 306.838 196.856 295.306 198.631 290.871C200.405 286.436 203.571 290.241 208.894 278.966C214.216 267.691 215.484 265.287 215.484 264.774C215.484 264.261 193.648 246.791 193.648 246.791Z" fill="#F1463B"/>
<path d="M206.489 280.228C206.489 280.228 202.283 284.656 203.121 288.578C203.96 292.501 211.68 305.681 211.68 305.681L220.293 304.794C220.293 304.794 222.067 302.514 218.138 300.74L215.484 298.336C215.484 298.336 212.712 295.564 212.712 292.099C212.712 288.634 219.746 286.887 221.603 279.265C223.46 271.642 224.548 267.831 224.548 267.831L208.132 271.379L206.489 280.228Z" fill="#F1463B"/>
<path d="M212.677 231.838C207.415 231.844 202.302 233.58 198.124 236.779C195.794 238.479 193.999 240.808 192.948 243.494C190.238 251.304 191.721 261.408 191.472 263.625C191.222 265.843 191.777 268.476 192.4 273.784C192.858 277.686 216.966 276.923 216.966 276.923L223.744 274.214C223.744 274.214 227.209 272.246 231.748 276.189C236.287 280.132 240.001 282.225 242.586 281.851C245.171 281.476 257.513 266.702 257.513 266.702L252.71 240.369C252.71 240.369 241.248 234.915 233.12 233.079C227.832 231.873 218.532 231.769 212.677 231.838Z" fill="#F1463B"/>
<path d="M236.148 261.504C236.368 261.765 236.561 262.048 236.723 262.349C237.193 263.151 237.596 263.99 237.928 264.858C239.056 267.733 239.461 270.841 239.107 273.908C238.753 276.976 237.651 279.91 235.898 282.453C235.375 283.219 234.791 283.942 234.152 284.615C233.927 284.871 233.676 285.103 233.403 285.308C233.597 285.028 233.813 284.764 234.048 284.518C234.642 283.819 235.188 283.08 235.683 282.307C237.348 279.771 238.397 276.88 238.746 273.866C239.095 270.852 238.734 267.798 237.693 264.948C237.382 264.083 237.016 263.238 236.598 262.419C236.426 262.125 236.275 261.819 236.148 261.504Z" fill="#263238"/>
<path d="M244.901 294.061C244.97 293.875 245.058 293.696 245.165 293.528C245.457 293.041 245.785 292.578 246.149 292.142C247.441 290.632 248.865 289.241 250.404 287.984C252.646 286.881 254.713 285.452 256.536 283.743C259.234 281.203 261.36 278.118 262.773 274.693C263.194 273.653 263.55 272.588 263.84 271.505C263.917 271.099 264.028 270.7 264.173 270.313C264.136 270.726 264.071 271.136 263.979 271.54C263.737 272.643 263.413 273.728 263.009 274.783C261.648 278.286 259.516 281.438 256.772 284.006C254.928 285.743 252.823 287.181 250.535 288.268C248.997 289.509 247.554 290.865 246.218 292.322C245.849 292.738 245.502 293.173 245.179 293.625C245.098 293.778 245.006 293.924 244.901 294.061Z" fill="#263238"/>
<path d="M218.45 255.146C218.444 255.281 218.426 255.416 218.395 255.548C218.346 255.846 218.277 256.241 218.201 256.691C218.041 257.689 217.875 259.138 217.771 260.939C217.667 262.741 217.633 264.889 217.466 267.28C217.344 269.887 216.861 272.463 216.032 274.937C215.11 277.399 213.657 279.628 211.777 281.465C210.259 282.959 208.576 284.275 206.76 285.388C205.546 286.144 204.295 286.838 203.011 287.467C202.553 287.695 202.2 287.855 201.957 287.965C201.836 288.028 201.708 288.077 201.576 288.111C201.684 288.027 201.8 287.955 201.923 287.896L202.941 287.342C203.828 286.857 205.11 286.157 206.621 285.18C208.401 284.05 210.051 282.728 211.541 281.237C213.371 279.423 214.789 277.237 215.699 274.827C216.515 272.379 217.002 269.835 217.147 267.259C217.321 264.889 217.383 262.734 217.529 260.925C217.622 259.5 217.803 258.081 218.069 256.677C218.166 256.179 218.256 255.797 218.332 255.541C218.352 255.404 218.391 255.271 218.45 255.146Z" fill="#263238"/>
<path d="M231.181 275.723C230.432 275.197 229.625 274.758 228.776 274.414C227.845 274.097 226.861 273.965 225.88 274.026C224.677 274.103 223.501 274.411 222.415 274.933C220.017 275.966 217.848 276.901 216.303 277.622L214.473 278.488C214.253 278.61 214.021 278.708 213.78 278.779C213.966 278.613 214.173 278.473 214.397 278.364C214.813 278.114 215.423 277.782 216.185 277.393C217.709 276.61 219.865 275.633 222.262 274.622C223.392 274.085 224.617 273.777 225.866 273.714C226.889 273.667 227.91 273.832 228.866 274.199C229.507 274.442 230.108 274.781 230.647 275.204C231.029 275.509 231.181 275.703 231.181 275.723Z" fill="#263238"/>
<path d="M275.482 232.075C275.538 232.303 282.696 238.311 283.341 240.335C283.603 241.332 283.603 242.38 283.341 243.377L285.461 247.791C285.461 247.791 283.916 251.949 281.504 253.009C279.896 253.681 278.195 254.106 276.459 254.271C276.286 254.271 274.45 257.431 273.417 262.129C272.766 265.206 272.315 268.322 272.066 271.457L253.778 256.862C253.778 256.862 250.819 245.671 251.048 243.086C251.276 240.501 255.809 236.662 255.899 236.433C255.989 236.205 259.364 233.336 259.364 233.336L264.013 230.529C264.013 230.529 267.742 224.791 272.329 223.988C276.917 223.184 275.6 227.452 275.6 227.452L275.482 232.075Z" fill="#F1463B"/>
<path d="M274.214 241.805C274.214 241.77 274.449 241.534 274.976 241.375C275.678 241.172 276.43 241.223 277.098 241.52C277.766 241.817 278.308 242.34 278.628 242.996C278.864 243.495 278.871 243.842 278.829 243.849C278.788 243.856 278.677 243.544 278.406 243.114C278.061 242.555 277.554 242.114 276.953 241.848C276.352 241.582 275.685 241.504 275.039 241.624C274.768 241.705 274.493 241.765 274.214 241.805Z" fill="#263238"/>
<path d="M273.341 225.067C272.444 225.516 271.576 226.021 270.742 226.578C268.785 227.988 267.25 229.904 266.3 232.121C266.155 232.447 266.051 232.78 265.94 233.099L265.794 233.591C265.749 233.693 265.725 233.804 265.725 233.916C265.827 233.947 265.935 233.947 266.037 233.916L266.515 233.833C266.834 233.771 267.139 233.701 267.437 233.632C268.494 233.376 269.532 233.042 270.541 232.634C272.26 231.941 273.244 231.311 273.278 231.366C273.066 231.549 272.833 231.707 272.585 231.837C271.951 232.221 271.294 232.566 270.617 232.87C269.61 233.318 268.567 233.679 267.499 233.951C267.194 234.034 266.882 234.103 266.563 234.173L266.078 234.263C265.989 234.283 265.899 234.296 265.808 234.304C265.739 234.315 265.67 234.307 265.605 234.283C265.54 234.259 265.482 234.218 265.437 234.166C265.392 234.113 265.361 234.05 265.347 233.982C265.333 233.914 265.337 233.844 265.358 233.778C265.358 233.674 265.406 233.604 265.427 233.514L265.572 233.008C265.69 232.683 265.801 232.315 265.947 232.004C266.913 229.718 268.521 227.761 270.576 226.37C271.197 225.958 271.856 225.605 272.544 225.316C272.798 225.201 273.066 225.118 273.341 225.067Z" fill="#263238"/>
<path d="M257.895 248.268C258.141 248.197 258.394 248.153 258.65 248.136C259.135 248.067 259.842 247.998 260.729 247.928C263.005 247.759 265.288 247.708 267.569 247.776C269.852 247.839 272.13 248.019 274.394 248.316C275.261 248.434 275.961 248.545 276.439 248.642C276.692 248.671 276.94 248.729 277.18 248.815C276.926 248.839 276.669 248.827 276.418 248.781L274.339 248.573C272.606 248.4 270.181 248.212 267.534 248.136C264.887 248.06 262.461 248.136 260.722 248.185L258.643 248.275C258.394 248.305 258.143 248.303 257.895 248.268Z" fill="#263238"/>
<path d="M257.077 253.553C257.298 253.447 257.531 253.368 257.77 253.318C258.214 253.186 258.865 253.013 259.676 252.819C261.29 252.424 263.543 251.952 266.044 251.537C268.546 251.121 270.833 250.844 272.489 250.719C273.321 250.643 273.993 250.594 274.457 250.58C274.687 250.555 274.92 250.555 275.15 250.58C274.927 250.66 274.694 250.707 274.457 250.719L272.503 250.968C270.861 251.176 268.588 251.481 266.086 251.897C263.584 252.313 261.346 252.742 259.717 253.068L257.791 253.456C257.558 253.519 257.318 253.552 257.077 253.553Z" fill="#263238"/>
<path d="M285.406 247.672C284.709 247.393 283.972 247.225 283.223 247.173C283.143 247.16 283.061 247.166 282.984 247.192C282.906 247.217 282.836 247.261 282.78 247.319C282.669 247.471 282.78 247.693 282.842 247.866C283.14 248.421 283.527 248.924 283.985 249.356C284.079 249.468 284.209 249.544 284.353 249.571C284.623 249.571 284.775 249.294 284.893 249.051C285.153 248.666 285.345 248.239 285.461 247.79L285.406 247.672Z" fill="#FF725E"/>
<g opacity="0.2">
<path opacity="0.2" d="M265.571 233.743C265.549 233.788 265.537 233.838 265.537 233.888C265.537 233.939 265.549 233.989 265.571 234.034C265.648 234.145 265.807 234.138 265.939 234.11C268.535 233.662 271.021 232.721 273.263 231.338L273.956 227.18C274.022 226.799 273.997 226.407 273.883 226.037C273.768 225.668 273.568 225.33 273.298 225.053C271.416 225.789 269.735 226.96 268.392 228.47C267.049 229.981 266.082 231.787 265.571 233.743Z" fill="black"/>
</g>
<g opacity="0.2">
<path opacity="0.2" d="M203.691 289.97C203.691 289.97 216.407 284.966 218.763 281.432C220.183 279.302 221.43 277.061 222.491 274.731L214.3 278.806C214.3 278.806 208.063 285.368 202.728 287.523L203.691 289.97Z" fill="black"/>
</g>
<g opacity="0.2">
<path opacity="0.2" d="M251.77 287.614C254.403 287.752 257.223 287.835 259.441 286.415C261.245 285.12 262.476 283.174 262.871 280.989C263.256 278.824 263.354 276.617 263.162 274.426C261.263 279.215 257.743 284.634 251.77 287.593" fill="black"/>
</g>
<path d="M191.541 250.435C191.523 250.33 191.523 250.222 191.541 250.116C191.541 249.915 191.541 249.604 191.624 249.216C191.767 248.115 191.998 247.028 192.317 245.966C193.368 242.411 195.414 239.232 198.214 236.804C199.793 235.504 201.562 234.454 203.46 233.693C204.985 233.058 206.568 232.573 208.186 232.245C209.273 232.017 210.376 231.876 211.485 231.822C211.88 231.822 212.178 231.822 212.393 231.822C212.496 231.804 212.601 231.804 212.705 231.822C212.306 231.888 211.903 231.93 211.499 231.947C210.401 232.054 209.31 232.233 208.235 232.48C206.643 232.844 205.087 233.349 203.585 233.991C201.745 234.757 200.028 235.791 198.492 237.061C195.743 239.452 193.707 242.555 192.608 246.028C192.26 247.071 191.989 248.139 191.797 249.223C191.624 250.006 191.569 250.435 191.541 250.435Z" fill="#263238"/>
<path d="M251.595 262.752C251.485 262.489 251.404 262.215 251.353 261.935C251.182 261.168 251.069 260.39 251.013 259.606C250.818 256.971 251.208 254.325 252.157 251.859L252.434 252.067C252.143 252.274 251.845 252.503 251.547 252.76C250.654 253.489 249.837 254.306 249.108 255.199L248.803 255.573V255.088C248.809 252.991 249.245 250.918 250.085 248.997C250.329 248.445 250.609 247.91 250.923 247.396C251.029 247.204 251.157 247.025 251.304 246.862C251.353 246.862 250.854 247.659 250.286 249.08C249.529 250.992 249.144 253.031 249.149 255.088L248.837 254.977C249.577 254.059 250.411 253.22 251.325 252.475C251.623 252.233 251.928 251.997 252.226 251.782L252.711 251.429L252.496 251.99C251.557 254.417 251.135 257.014 251.256 259.613C251.346 261.567 251.665 262.738 251.595 262.752Z" fill="#263238"/>
<path d="M203.696 261.719C203.644 261.452 203.621 261.18 203.627 260.908C203.611 260.163 203.636 259.418 203.703 258.677C203.94 256.143 204.6 253.667 205.658 251.352L205.921 251.567C205.276 252.041 204.671 252.567 204.112 253.14C203.544 253.717 203.027 254.343 202.567 255.011L202.241 255.489V254.914C202.246 252.37 202.787 249.855 203.828 247.533C204.136 246.857 204.487 246.202 204.881 245.572C205.011 245.322 205.171 245.089 205.36 244.879C205.408 244.914 204.764 245.856 204.043 247.596C203.084 249.902 202.592 252.375 202.595 254.872L202.269 254.775C202.733 254.08 203.262 253.43 203.849 252.835C204.419 252.243 205.04 251.702 205.706 251.22L206.26 250.825L205.976 251.442C204.91 253.718 204.209 256.148 203.897 258.642C203.78 259.577 203.738 260.333 203.71 260.853C203.732 261.141 203.728 261.431 203.696 261.719Z" fill="#263238"/>
<path d="M290.582 284.715C289.814 284.403 289.097 283.979 288.454 283.456C287.745 283.028 287.101 282.501 286.541 281.891C287.306 282.208 288.02 282.634 288.663 283.157C289.372 283.584 290.018 284.109 290.582 284.715Z" fill="#F1463B"/>
<path d="M248.598 228.708C249.651 229.114 250.659 229.631 251.603 230.252C252.607 230.765 253.552 231.388 254.42 232.109C253.369 231.7 252.364 231.183 251.422 230.565C250.417 230.048 249.47 229.426 248.598 228.708Z" fill="#F1463B"/>
<path d="M287.347 287.956C286.855 287.322 286.459 286.619 286.172 285.869C285.781 285.174 285.497 284.424 285.33 283.644C285.823 284.277 286.22 284.98 286.506 285.73C286.896 286.426 287.18 287.176 287.347 287.956Z" fill="#F1463B"/>
<path d="M301.439 222.642C301.464 223.136 301.391 223.63 301.224 224.096C300.875 225.248 300.282 226.311 299.485 227.212C298.689 228.109 297.706 228.821 296.605 229.298C296.171 229.518 295.699 229.65 295.214 229.688C295.214 229.625 295.736 229.472 296.528 229.062C298.599 227.99 300.196 226.184 301.008 223.998C301.286 223.184 301.377 222.628 301.439 222.642Z" fill="#F1463B"/>
<path d="M272.421 216.507C271.912 216.349 271.439 216.091 271.03 215.749C269.974 214.973 269.104 213.97 268.484 212.815C267.865 211.66 267.51 210.381 267.448 209.072C267.393 208.531 267.447 207.984 267.607 207.465C267.67 207.465 267.607 208.084 267.705 209.051C267.968 211.588 269.217 213.921 271.183 215.547C271.906 216.166 272.449 216.452 272.421 216.507Z" fill="#F1463B"/>
<path d="M332.678 230.293C332.399 231.533 331.772 232.667 330.87 233.562C330.054 234.534 328.981 235.257 327.774 235.649C329.879 234.353 331.578 232.493 332.678 230.279V230.293Z" fill="#F1463B"/>
<path d="M317.737 237.179C316.836 236.09 316.215 234.796 315.929 233.412C315.643 232.027 315.7 230.593 316.096 229.236C315.999 230.606 316.062 231.984 316.284 233.34C316.621 234.671 317.108 235.959 317.737 237.179Z" fill="#F1463B"/>
<path d="M306.289 257.845C306.258 259.084 305.974 260.304 305.452 261.429C304.93 262.554 304.183 263.559 303.256 264.383C303.934 263.384 304.557 262.349 305.12 261.281C305.575 260.159 305.965 259.011 306.289 257.845Z" fill="#F1463B"/>
<path d="M242.999 266.49C242.999 266.922 244.154 278.878 240.697 283.184L237.386 287.357L238.937 289.103C238.937 289.103 237.789 305.797 238.937 308.983C239.546 310.788 240.65 312.386 242.123 313.594L249.885 312.732C249.885 312.732 250.177 308.843 248.014 308.412C245.851 307.981 246.143 306.68 246.143 306.68C246.561 302.615 247.841 298.686 249.899 295.155C253.203 289.827 256.229 289.681 260.833 284.784C265.438 279.887 269.048 273.55 269.479 272.111C269.911 270.671 268.617 262.025 268.617 262.025L255.248 251.369L242.999 266.49Z" fill="#F1463B"/>
<path d="M277.715 268.654C277.43 269.225 275.698 286.656 275.698 286.656L285.93 315.612C285.93 315.612 289.672 317.629 288.524 320.801L283.655 321.497L278.898 317.031C279.076 316.257 279.021 315.446 278.738 314.703C278.456 313.96 277.96 313.318 277.312 312.858C275.009 310.98 262.329 290.384 258.587 289.208C254.845 288.033 255.846 286.76 255.846 286.76L263.052 260.544L277.889 265.19L277.715 268.654Z" fill="#F1463B"/>
<path d="M204.923 223.491C205.069 216.153 208.179 210.616 209.549 205.761C210.94 200.781 211.434 196.392 208.436 192.344C207.596 191.196 206.533 190.229 205.311 189.5C204.089 188.77 202.734 188.294 201.324 188.1C199.915 187.905 198.481 187.996 197.107 188.366C195.734 188.737 194.448 189.38 193.328 190.257C192.211 191.013 191.403 192.146 191.054 193.45C190.796 194.764 191.478 196.322 192.765 196.677C194.497 197.143 196.055 195.404 197.829 195.189C200.061 194.91 201.919 197.199 202.092 199.439C202.266 201.678 201.286 203.793 200.416 205.879C196.284 215.784 193.676 229.668 201.939 240.067L211.267 236.22C207.88 232.499 204.854 228.423 204.923 223.491Z" fill="#F1463B"/>
<path d="M198.482 247.71C198.482 247.71 195.345 250.395 195.602 257.741C195.86 265.086 197.96 274.399 197.035 278.608C196.11 282.816 195.825 294.884 195.588 297.298C195.352 299.711 201.703 314.339 201.703 314.339L209.715 314.847C209.715 314.847 210.348 310.012 206.794 308.997C203.24 307.981 201.703 296.407 203.483 291.956C205.264 287.504 208.443 291.323 213.785 280.006C219.127 268.689 220.399 266.275 220.399 265.76C220.399 265.246 198.482 247.71 198.482 247.71Z" fill="#F1463B"/>
<path d="M211.371 281.272C211.371 281.272 207.149 285.717 207.991 289.653C208.832 293.59 216.581 306.82 216.581 306.82L225.227 305.93C225.227 305.93 227.008 303.641 223.064 301.861L220.4 299.447C220.4 299.447 217.618 296.665 217.618 293.187C217.618 289.709 224.678 287.956 226.542 280.305C228.406 272.654 229.498 268.828 229.498 268.828L213.02 272.389L211.371 281.272Z" fill="#F1463B"/>
<path d="M217.583 232.702C212.302 232.707 207.169 234.45 202.976 237.661C200.637 239.367 198.835 241.705 197.78 244.401C195.06 252.24 196.549 262.381 196.298 264.607C196.048 266.833 196.605 269.476 197.231 274.804C197.69 278.72 221.888 277.955 221.888 277.955L228.691 275.236C228.691 275.236 232.169 273.26 236.725 277.218C241.281 281.176 245.009 283.276 247.604 282.901C250.198 282.525 262.586 267.696 262.586 267.696L257.766 241.264C257.766 241.264 246.261 235.79 238.102 233.947C232.795 232.736 223.46 232.632 217.583 232.702Z" fill="#F1463B"/>
<path d="M241.141 262.477C241.363 262.739 241.556 263.023 241.718 263.326C242.19 264.13 242.595 264.972 242.929 265.844C244.061 268.729 244.467 271.849 244.111 274.928C243.756 278.007 242.65 280.952 240.891 283.504C240.366 284.274 239.78 284.999 239.138 285.674C238.912 285.932 238.661 286.165 238.387 286.37C238.581 286.089 238.797 285.824 239.034 285.577C239.63 284.875 240.179 284.134 240.675 283.358C242.347 280.812 243.399 277.911 243.75 274.885C244.1 271.86 243.738 268.795 242.692 265.934C242.38 265.065 242.013 264.217 241.593 263.395C241.421 263.1 241.27 262.794 241.141 262.477Z" fill="#263238"/>
<path d="M249.928 295.155C249.996 294.968 250.085 294.788 250.192 294.62C250.485 294.131 250.815 293.666 251.18 293.229C252.477 291.714 253.906 290.317 255.451 289.055C257.702 287.948 259.776 286.514 261.606 284.798C264.314 282.249 266.448 279.152 267.866 275.714C268.289 274.671 268.646 273.602 268.938 272.515C269.014 272.107 269.126 271.707 269.271 271.318C269.234 271.733 269.169 272.144 269.077 272.55C268.834 273.657 268.509 274.746 268.103 275.805C266.737 279.321 264.597 282.485 261.843 285.063C259.991 286.806 257.879 288.249 255.583 289.341C254.038 290.587 252.59 291.947 251.249 293.41C250.879 293.827 250.531 294.264 250.206 294.717C250.125 294.871 250.032 295.017 249.928 295.155Z" fill="#263238"/>
<path d="M223.378 256.093C223.371 256.229 223.353 256.364 223.322 256.497C223.273 256.796 223.204 257.192 223.127 257.644C222.967 258.646 222.8 260.1 222.696 261.908C222.592 263.717 222.557 265.873 222.39 268.273C222.267 270.889 221.782 273.475 220.95 275.959C220.025 278.43 218.567 280.667 216.679 282.511C215.156 284.01 213.466 285.331 211.643 286.448C210.426 287.207 209.17 287.904 207.88 288.535C207.421 288.764 207.066 288.924 206.823 289.035C206.701 289.098 206.573 289.148 206.44 289.181C206.548 289.097 206.665 289.025 206.788 288.966L207.811 288.409C208.701 287.922 209.988 287.22 211.504 286.239C213.291 285.106 214.947 283.778 216.443 282.281C218.279 280.461 219.702 278.267 220.616 275.847C221.435 273.391 221.924 270.837 222.07 268.252C222.244 265.873 222.306 263.71 222.452 261.894C222.546 260.463 222.727 259.039 222.995 257.63C223.092 257.13 223.183 256.747 223.259 256.49C223.279 256.352 223.319 256.219 223.378 256.093Z" fill="#263238"/>
<path d="M236.155 276.75C235.403 276.222 234.593 275.781 233.742 275.436C232.807 275.118 231.819 274.985 230.834 275.046C229.627 275.124 228.446 275.434 227.356 275.958C224.95 276.994 222.772 277.933 221.221 278.656L219.385 279.526C219.164 279.648 218.931 279.746 218.689 279.818C218.876 279.651 219.084 279.511 219.309 279.401C219.726 279.15 220.338 278.816 221.103 278.427C222.633 277.641 224.797 276.66 227.203 275.645C228.337 275.106 229.566 274.797 230.82 274.733C231.847 274.687 232.872 274.852 233.832 275.22C234.475 275.464 235.078 275.804 235.62 276.229C236.002 276.535 236.155 276.73 236.155 276.75Z" fill="#263238"/>
<path d="M280.622 232.937C280.678 233.167 287.863 239.197 288.51 241.228C288.773 242.229 288.773 243.281 288.51 244.282L290.639 248.713C290.639 248.713 289.087 252.886 286.667 253.95C285.052 254.625 283.345 255.051 281.603 255.216C281.429 255.216 279.586 258.388 278.55 263.104C277.896 266.192 277.443 269.32 277.193 272.466L258.837 257.818C258.837 257.818 255.867 246.584 256.097 243.99C256.326 241.395 260.875 237.542 260.966 237.312C261.056 237.083 264.443 234.203 264.443 234.203L269.111 231.386C269.111 231.386 272.853 225.627 277.458 224.82C282.062 224.013 280.741 228.298 280.741 228.298L280.622 232.937Z" fill="#F1463B"/>
<path d="M279.35 242.704C279.35 242.669 279.586 242.432 280.115 242.272C280.82 242.069 281.574 242.12 282.244 242.418C282.915 242.716 283.459 243.241 283.78 243.9C284.017 244.401 284.024 244.749 283.982 244.756C283.94 244.762 283.829 244.449 283.558 244.018C283.211 243.457 282.703 243.014 282.099 242.747C281.496 242.48 280.826 242.402 280.177 242.523C279.906 242.603 279.63 242.664 279.35 242.704Z" fill="#263238"/>
<path d="M278.472 225.905C277.572 226.356 276.701 226.863 275.864 227.422C273.9 228.837 272.358 230.761 271.405 232.986C271.259 233.313 271.155 233.647 271.043 233.967L270.897 234.461C270.852 234.564 270.828 234.675 270.828 234.788C270.93 234.818 271.039 234.818 271.141 234.788L271.621 234.704C271.941 234.642 272.247 234.572 272.546 234.502C273.608 234.245 274.649 233.911 275.662 233.501C277.387 232.805 278.375 232.172 278.41 232.228C278.196 232.411 277.963 232.57 277.714 232.701C277.077 233.086 276.418 233.433 275.739 233.737C274.728 234.187 273.681 234.55 272.609 234.822C272.302 234.906 271.989 234.975 271.67 235.045L271.183 235.135C271.093 235.155 271.003 235.169 270.911 235.177C270.843 235.187 270.772 235.18 270.707 235.156C270.642 235.131 270.584 235.091 270.539 235.038C270.494 234.985 270.463 234.922 270.449 234.854C270.435 234.785 270.438 234.715 270.459 234.649C270.459 234.544 270.508 234.475 270.529 234.384L270.675 233.876C270.793 233.55 270.904 233.181 271.05 232.868C272.021 230.574 273.634 228.61 275.697 227.213C276.321 226.799 276.982 226.445 277.672 226.156C277.928 226.04 278.196 225.956 278.472 225.905Z" fill="#263238"/>
<path d="M262.969 249.193C263.216 249.122 263.47 249.077 263.727 249.06C264.214 248.991 264.923 248.921 265.814 248.852C268.098 248.681 270.389 248.63 272.679 248.699C274.97 248.762 277.257 248.943 279.53 249.241C280.4 249.36 281.102 249.471 281.582 249.568C281.836 249.598 282.086 249.656 282.326 249.742C282.071 249.766 281.814 249.754 281.561 249.707L279.475 249.499C277.736 249.325 275.301 249.137 272.644 249.06C269.987 248.984 267.553 249.06 265.807 249.109L263.72 249.2C263.47 249.23 263.218 249.228 262.969 249.193Z" fill="#263238"/>
<path d="M262.148 254.499C262.37 254.393 262.604 254.314 262.844 254.263C263.289 254.131 263.943 253.957 264.757 253.762C266.377 253.366 268.638 252.893 271.149 252.475C273.66 252.058 275.955 251.78 277.618 251.655C278.453 251.578 279.127 251.529 279.593 251.515C279.824 251.49 280.058 251.49 280.289 251.515C280.065 251.596 279.831 251.643 279.593 251.655L277.632 251.905C275.983 252.114 273.702 252.42 271.191 252.837C268.68 253.254 266.433 253.686 264.799 254.013L262.865 254.402C262.631 254.466 262.39 254.498 262.148 254.499Z" fill="#263238"/>
<path d="M290.583 248.594C289.883 248.314 289.144 248.145 288.392 248.093C288.312 248.08 288.229 248.086 288.152 248.112C288.074 248.137 288.004 248.181 287.947 248.239C287.836 248.392 287.947 248.615 288.009 248.789C288.309 249.346 288.696 249.851 289.157 250.284C289.251 250.397 289.382 250.473 289.526 250.5C289.797 250.5 289.95 250.222 290.068 249.978C290.329 249.591 290.522 249.163 290.639 248.712L290.583 248.594Z" fill="#FF725E"/>
<g opacity="0.2">
<path opacity="0.2" d="M270.676 234.612C270.653 234.657 270.642 234.707 270.642 234.758C270.642 234.809 270.653 234.859 270.676 234.904C270.753 235.016 270.913 235.009 271.045 234.981C273.651 234.531 276.146 233.587 278.397 232.198L279.092 228.025C279.159 227.642 279.133 227.249 279.018 226.878C278.903 226.507 278.702 226.168 278.432 225.89C276.542 226.628 274.855 227.804 273.507 229.32C272.159 230.836 271.189 232.649 270.676 234.612Z" fill="black"/>
</g>
<g opacity="0.2">
<path opacity="0.2" d="M208.563 291.051C208.563 291.051 221.326 286.029 223.691 282.482C225.117 280.344 226.368 278.095 227.433 275.756L219.212 279.846C219.212 279.846 212.952 286.433 207.596 288.596L208.563 291.051Z" fill="black"/>
</g>
<g opacity="0.2">
<path opacity="0.2" d="M256.819 288.688C259.462 288.827 262.293 288.91 264.519 287.485C266.331 286.185 267.565 284.232 267.962 282.038C268.349 279.865 268.447 277.65 268.254 275.451C266.349 280.258 262.815 285.697 256.819 288.667" fill="black"/>
</g>
<path d="M196.367 251.37C196.349 251.264 196.349 251.155 196.367 251.05C196.367 250.848 196.367 250.535 196.451 250.145C196.594 249.041 196.826 247.95 197.146 246.883C198.201 243.316 200.255 240.125 203.066 237.688C204.65 236.382 206.426 235.329 208.331 234.565C209.862 233.928 211.45 233.441 213.075 233.111C214.166 232.882 215.273 232.741 216.386 232.687C216.782 232.687 217.081 232.687 217.297 232.687C217.4 232.668 217.506 232.668 217.61 232.687C217.209 232.753 216.805 232.795 216.4 232.812C215.297 232.92 214.203 233.099 213.123 233.347C211.526 233.712 209.964 234.22 208.456 234.864C206.609 235.632 204.886 236.671 203.344 237.945C200.585 240.345 198.542 243.46 197.438 246.946C197.089 247.993 196.817 249.065 196.625 250.152C196.451 250.938 196.395 251.37 196.367 251.37Z" fill="#263238"/>
<path d="M256.646 263.73C256.535 263.466 256.454 263.191 256.402 262.909C256.231 262.14 256.117 261.359 256.062 260.572C255.865 257.927 256.257 255.271 257.209 252.796L257.488 253.004C257.195 253.213 256.896 253.443 256.597 253.7C255.701 254.432 254.881 255.253 254.149 256.148L253.843 256.524V256.037C253.849 253.933 254.287 251.852 255.13 249.923C255.374 249.37 255.655 248.833 255.971 248.316C256.078 248.124 256.206 247.944 256.354 247.781C256.402 247.781 255.902 248.581 255.331 250.007C254.572 251.926 254.185 253.973 254.191 256.037L253.878 255.926C254.62 255.004 255.457 254.163 256.375 253.415C256.674 253.171 256.98 252.935 257.279 252.719L257.766 252.365L257.55 252.928C256.608 255.364 256.184 257.97 256.305 260.579C256.396 262.541 256.715 263.716 256.646 263.73Z" fill="#263238"/>
<path d="M208.568 262.693C208.516 262.425 208.492 262.152 208.499 261.88C208.482 261.132 208.507 260.384 208.575 259.64C208.812 257.096 209.475 254.611 210.537 252.288L210.801 252.503C210.154 252.979 209.546 253.507 208.985 254.082C208.415 254.662 207.896 255.29 207.434 255.96L207.107 256.44V255.863C207.112 253.309 207.655 250.785 208.7 248.455C209.009 247.776 209.362 247.119 209.758 246.487C209.887 246.235 210.049 246.002 210.237 245.791C210.286 245.826 209.639 246.772 208.916 248.518C207.954 250.832 207.46 253.314 207.462 255.821L207.135 255.724C207.601 255.026 208.132 254.374 208.721 253.776C209.293 253.182 209.917 252.639 210.585 252.155L211.142 251.759L210.857 252.378C209.787 254.663 209.082 257.102 208.77 259.605C208.652 260.544 208.61 261.302 208.582 261.824C208.604 262.113 208.6 262.405 208.568 262.693Z" fill="#263238"/>
</svg>
