<svg width="375" height="301" viewBox="0 0 375 301" fill="none" xmlns="http://www.w3.org/2000/svg">
<path d="M353.607 277.607H326.839V277.809H353.607V277.607Z" fill="#EBEBEB"/>
<path d="M257.69 279.805H250.667V280.007H257.69V279.805Z" fill="#EBEBEB"/>
<path d="M326.031 270.107H310.522V270.309H326.031V270.107Z" fill="#EBEBEB"/>
<path d="M67.3038 271.463H32.3979V271.665H67.3038V271.463Z" fill="#EBEBEB"/>
<path d="M79.6208 271.463H74.5049V271.665H79.6208V271.463Z" fill="#EBEBEB"/>
<path d="M171.965 274.875H96.2529V275.077H171.965V274.875Z" fill="#EBEBEB"/>
<path d="M181.543 228.557H25.4885C24.266 228.555 23.0943 228.068 22.2306 227.203C21.3669 226.338 20.8818 225.165 20.8818 223.942V4.57438C20.8925 3.35887 21.3823 2.19665 22.2448 1.34016C23.1074 0.48367 24.273 0.00208222 25.4885 0H181.543C182.767 0 183.94 0.4862 184.806 1.35164C185.671 2.21708 186.157 3.39087 186.157 4.61479V223.942C186.157 225.166 185.671 226.34 184.806 227.206C183.94 228.071 182.767 228.557 181.543 228.557ZM25.4885 0.161639C24.3196 0.16378 23.1993 0.629636 22.3735 1.45695C21.5477 2.28427 21.0839 3.40545 21.0839 4.57438V223.942C21.0839 225.111 21.5477 226.233 22.3735 227.06C23.1993 227.887 24.3196 228.353 25.4885 228.355H181.543C182.712 228.353 183.834 227.887 184.661 227.06C185.488 226.233 185.953 225.112 185.955 223.942V4.57438C185.953 3.4047 185.488 2.28355 184.661 1.45646C183.834 0.629373 182.712 0.163776 181.543 0.161639H25.4885Z" fill="#EBEBEB"/>
<path d="M356.363 228.557H200.3C199.077 228.555 197.905 228.068 197.04 227.203C196.175 226.338 195.688 225.166 195.686 223.942V4.57438C195.698 3.35814 196.19 2.19592 197.054 1.33966C197.918 0.483388 199.084 0.00205951 200.3 0H356.363C357.577 0.00420624 358.74 0.486734 359.601 1.343C360.462 2.19926 360.951 3.36027 360.961 4.57438V223.942C360.961 225.164 360.477 226.335 359.615 227.2C358.753 228.065 357.584 228.553 356.363 228.557ZM200.3 0.161639C199.131 0.163776 198.009 0.629373 197.182 1.45646C196.355 2.28355 195.89 3.4047 195.888 4.57438V223.942C195.89 225.112 196.355 226.233 197.182 227.06C198.009 227.887 199.131 228.353 200.3 228.355H356.363C357.532 228.353 358.653 227.887 359.48 227.06C360.308 226.233 360.773 225.112 360.775 223.942V4.57438C360.773 3.4047 360.308 2.28355 359.48 1.45646C358.653 0.629373 357.532 0.163776 356.363 0.161639H200.3Z" fill="#EBEBEB"/>
<path d="M394.097 264.604H-10V264.806H394.097V264.604Z" fill="#EBEBEB"/>
<path d="M110.566 151.633H92.4624V228.379H110.566V151.633Z" fill="#E6E6E6"/>
<path d="M140.744 125.465H122.641V228.38H140.744V125.465Z" fill="#E0E0E0"/>
<path d="M170.922 151.633H152.818V228.379H170.922V151.633Z" fill="#EBEBEB"/>
<path d="M50.211 177.795H32.1074V228.372H50.211V177.795Z" fill="#F0F0F0"/>
<path d="M80.3882 165.162H62.2847V228.371H80.3882V165.162Z" fill="#EBEBEB"/>
<path d="M201.101 177.795H182.997V228.372H201.101V177.795Z" fill="#F5F5F5"/>
<path d="M351.982 99.2949H333.878V228.38H351.982V99.2949Z" fill="#E0E0E0"/>
<path d="M231.278 151.633H213.174V228.379H231.278V151.633Z" fill="#F0F0F0"/>
<path d="M321.804 125.465H303.7V228.38H321.804V125.465Z" fill="#E6E6E6"/>
<path d="M291.634 138.994H273.53V228.372H291.634V138.994Z" fill="#EBEBEB"/>
<path d="M261.457 165.162H243.353V228.371H261.457V165.162Z" fill="#F0F0F0"/>
<path d="M57.1792 130.109C58.7818 123.319 54.5766 116.515 47.7867 114.913C40.9967 113.31 34.1933 117.515 32.5907 124.305C30.9881 131.095 35.1933 137.899 41.9832 139.501C48.7732 141.104 55.5767 136.899 57.1792 130.109Z" fill="#E0E0E0"/>
<path d="M55.3347 136.141C60.2679 131.208 60.2679 123.21 55.3347 118.277C50.4016 113.344 42.4034 113.344 37.4703 118.277C32.5372 123.21 32.5372 131.208 37.4703 136.141C42.4034 141.074 50.4016 141.074 55.3347 136.141Z" fill="#E6E6E6"/>
<path d="M46.4041 136.666C51.6264 136.666 55.86 132.432 55.86 127.21C55.86 121.987 51.6264 117.754 46.4041 117.754C41.1818 117.754 36.9482 121.987 36.9482 127.21C36.9482 132.432 41.1818 136.666 46.4041 136.666Z" fill="#F0F0F0"/>
<path d="M50.5584 129.222C50.9221 131.315 49.4835 132.713 46.8973 132.932L46.8569 134.661H45.2809L45.3294 132.932C43.9759 132.829 42.6646 132.414 41.4985 131.719L42.2097 129.772C43.1584 130.404 44.2447 130.8 45.3779 130.927L45.4506 128.276C43.907 127.832 42.2178 127.25 41.8703 125.351C41.5066 123.257 42.9694 121.843 45.6122 121.657V119.928H47.2205V121.673C48.2886 121.765 49.3275 122.07 50.2755 122.571L49.6128 124.462C48.8544 124.015 48.0077 123.739 47.1316 123.654L47.067 126.418C48.5864 126.886 50.2351 127.42 50.5584 129.222ZM45.491 125.989L45.5557 123.726C44.6909 123.896 44.2706 124.381 44.3595 124.979C44.4484 125.577 44.8849 125.747 45.491 125.989ZM48.0772 129.634C48.0045 129.173 47.5923 128.891 47.0023 128.689L46.9538 130.838C47.7782 130.669 48.1904 130.232 48.0772 129.634Z" fill="white"/>
<path d="M345.646 20.5918H279.867C276.524 20.5918 273.814 23.302 273.814 26.6452V51.5052C273.814 54.8484 276.524 57.5586 279.867 57.5586H345.646C348.989 57.5586 351.7 54.8484 351.7 51.5052V26.6452C351.7 23.302 348.989 20.5918 345.646 20.5918Z" fill="#F0F0F0"/>
<path d="M294.034 25.627H288.555C288.233 25.627 287.973 25.8875 287.973 26.2089V52.459C287.973 52.7804 288.233 53.0409 288.555 53.0409H294.034C294.355 53.0409 294.616 52.7804 294.616 52.459V26.2089C294.616 25.8875 294.355 25.627 294.034 25.627Z" fill="white"/>
<path d="M338.889 25.627H333.409C333.088 25.627 332.827 25.8875 332.827 26.2089V52.459C332.827 52.7804 333.088 53.0409 333.409 53.0409H338.889C339.21 53.0409 339.471 52.7804 339.471 52.459V26.2089C339.471 25.8875 339.21 25.627 338.889 25.627Z" fill="white"/>
<path d="M317.238 34.6699H311.759C311.437 34.6699 311.177 34.9304 311.177 35.2518V52.4663C311.177 52.7877 311.437 53.0482 311.759 53.0482H317.238C317.56 53.0482 317.82 52.7877 317.82 52.4663V35.2518C317.82 34.9304 317.56 34.6699 317.238 34.6699Z" fill="white"/>
<path d="M305.737 39.0742H300.258C299.936 39.0742 299.676 39.3347 299.676 39.6561V52.4579C299.676 52.7793 299.936 53.0398 300.258 53.0398H305.737C306.059 53.0398 306.319 52.7793 306.319 52.4579V39.6561C306.319 39.3347 306.059 39.0742 305.737 39.0742Z" fill="white"/>
<path d="M328.068 49.8086H322.588C322.267 49.8086 322.006 50.0691 322.006 50.3905V52.4595C322.006 52.7808 322.267 53.0414 322.588 53.0414H328.068C328.389 53.0414 328.65 52.7808 328.65 52.4595V50.3905C328.65 50.0691 328.389 49.8086 328.068 49.8086Z" fill="white"/>
<path d="M336.246 25.4664C336.174 25.4304 336.094 25.4099 336.013 25.406C335.932 25.4021 335.851 25.4149 335.775 25.4438C335.7 25.4726 335.63 25.5167 335.572 25.5735C335.514 25.6302 335.469 25.6983 335.438 25.7735L325.74 46.7865C325.698 46.8876 325.63 46.9751 325.541 47.0394C325.453 47.1037 325.348 47.1421 325.239 47.1505C325.131 47.1589 325.021 47.1369 324.924 47.0869C324.827 47.0369 324.746 46.9609 324.689 46.8674L315.702 33.1927C315.619 33.0616 315.488 32.9686 315.336 32.9338C315.185 32.899 315.026 32.9253 314.894 33.0068L303.579 37.5327C303.488 37.5884 303.383 37.6179 303.276 37.6179C303.169 37.6179 303.064 37.5884 302.973 37.5327L290.648 25.1189C290.578 25.0808 290.5 25.0576 290.42 25.0509C290.34 25.0442 290.26 25.054 290.184 25.0798C290.108 25.1056 290.038 25.1468 289.979 25.2008C289.92 25.2548 289.873 25.3205 289.84 25.3937V25.4583C289.781 25.5923 289.774 25.7435 289.82 25.8824C289.867 26.0213 289.963 26.1381 290.091 26.2099L303.078 39.0036C303.169 39.0611 303.274 39.0917 303.381 39.0917C303.489 39.0917 303.594 39.0611 303.684 39.0036L314.498 34.7525C314.563 34.7111 314.636 34.683 314.712 34.6699C314.788 34.6568 314.866 34.659 314.941 34.6763C315.016 34.6936 315.087 34.7256 315.15 34.7707C315.213 34.8157 315.266 34.8727 315.306 34.9384L324.867 49.5425C324.923 49.6363 325.004 49.7127 325.1 49.7634C325.197 49.814 325.306 49.8368 325.415 49.8293C325.524 49.8217 325.628 49.7841 325.717 49.7207C325.806 49.6572 325.875 49.5703 325.918 49.4698L336.505 26.2342C336.566 26.0971 336.573 25.9421 336.526 25.7998C336.478 25.6576 336.378 25.5386 336.246 25.4664Z" fill="#E0E0E0"/>
<path d="M168.772 56.6465C176.052 56.6465 181.954 50.7449 181.954 43.4648C181.954 36.1848 176.052 30.2832 168.772 30.2832C161.492 30.2832 155.591 36.1848 155.591 43.4648C155.591 50.7449 161.492 56.6465 168.772 56.6465Z" fill="#E0E0E0"/>
<path opacity="0.8" d="M168.619 54.0452C174.462 54.0452 179.199 49.3087 179.199 43.466C179.199 37.6232 174.462 32.8867 168.619 32.8867C162.777 32.8867 158.04 37.6232 158.04 43.466C158.04 49.3087 162.777 54.0452 168.619 54.0452Z" fill="white"/>
<path d="M168.587 45.4193C169.18 45.4193 169.662 44.9381 169.662 44.3444C169.662 43.7508 169.18 43.2695 168.587 43.2695C167.993 43.2695 167.512 43.7508 167.512 44.3444C167.512 44.9381 167.993 45.4193 168.587 45.4193Z" fill="#E0E0E0"/>
<path d="M168.466 44.741L163.916 40.4575L164.36 39.9888L168.482 43.8681L175.869 37.3379L176.297 37.8228L168.466 44.741Z" fill="#E0E0E0"/>
<path d="M192.049 300.657C278.593 300.657 348.75 296.561 348.75 291.508C348.75 286.455 278.593 282.359 192.049 282.359C105.506 282.359 35.3486 286.455 35.3486 291.508C35.3486 296.561 105.506 300.657 192.049 300.657Z" fill="#F5F5F5"/>
<path d="M218.897 151.697H165.54V292.105H218.897V151.697Z" fill="#EF3124" fill-opacity="0.95"/>
<path opacity="0.5" d="M219.066 151.697H179.279V292.105H219.066V151.697Z" fill="black"/>
<path d="M288.603 199.566H235.246V292.097H288.603V199.566Z" fill="#EF3124" fill-opacity="0.95"/>
<path opacity="0.3" d="M288.603 199.348H248.815V292.104H288.603V199.348Z" fill="black"/>
<path d="M148.85 176.734H95.4932V292.096H148.85V176.734Z" fill="#EF3124" fill-opacity="0.95"/>
<path opacity="0.4" d="M148.85 176.453H109.062V292.098H148.85V176.453Z" fill="black"/>
<path d="M97.4321 84.0527V88.9019C100.486 89.1459 103.385 90.348 105.716 92.3367L109.167 88.8857C105.908 86.0044 101.775 84.3022 97.4321 84.0527Z" fill="#EF3124" fill-opacity="0.95"/>
<path d="M95.0646 118.071C91.6096 117.794 88.366 116.296 85.9151 113.845C83.4641 111.394 81.966 108.15 81.689 104.695H76.8398C77.1248 109.439 79.1355 113.914 82.4927 117.277C85.8499 120.64 90.3217 122.659 95.0646 122.952V118.071Z" fill="#EF3124" fill-opacity="0.95"/>
<path d="M81.7048 102.336C81.9844 98.8847 83.4813 95.645 85.9283 93.195C88.3753 90.7451 91.6132 89.2443 95.0642 88.9605V84.1113C90.3161 84.3988 85.8376 86.4146 82.474 89.7782C79.1104 93.1417 77.0946 97.6203 76.8071 102.368L81.7048 102.336Z" fill="#EF3124" fill-opacity="0.95"/>
<path opacity="0.2" d="M81.7048 102.336C81.9844 98.8847 83.4813 95.645 85.9283 93.195C88.3753 90.7451 91.6132 89.2443 95.0642 88.9605V84.1113C90.3161 84.3988 85.8376 86.4146 82.474 89.7782C79.1104 93.1417 77.0946 97.6203 76.8071 102.368L81.7048 102.336Z" fill="black"/>
<path d="M110.832 90.608L107.381 94.059C109.124 96.1058 110.267 98.5942 110.686 101.25C111.104 103.905 110.781 106.625 109.752 109.108C108.723 111.592 107.028 113.743 104.854 115.324C102.68 116.905 100.112 117.856 97.4321 118.07V122.92C101.073 122.697 104.578 121.456 107.548 119.338C110.518 117.221 112.834 114.311 114.23 110.941C115.627 107.572 116.049 103.877 115.448 100.279C114.847 96.6816 113.248 93.3248 110.832 90.5918V90.608Z" fill="#EF3124" fill-opacity="0.95"/>
<g opacity="0.8">
<path opacity="0.8" d="M97.4312 84.0527V88.9019C100.485 89.1459 103.384 90.348 105.715 92.3367L109.166 88.8857C105.907 86.0044 101.774 84.3022 97.4312 84.0527Z" fill="white"/>
</g>
<g opacity="0.6">
<path opacity="0.6" d="M95.0646 118.069C91.6096 117.792 88.366 116.294 85.9151 113.843C83.4641 111.392 81.966 108.148 81.689 104.693H76.8398C77.1248 109.437 79.1355 113.912 82.4927 117.275C85.8499 120.638 90.3217 122.657 95.0646 122.95V118.069Z" fill="white"/>
</g>
<g opacity="0.7">
<path opacity="0.7" d="M81.7043 102.334C81.9839 98.8828 83.4808 95.643 85.9278 93.1931C88.3748 90.7431 91.6127 89.2423 95.0637 88.9585V84.1094C90.3156 84.3969 85.8371 86.4127 82.4735 89.7762C79.1099 93.1398 77.0941 97.6184 76.8066 102.366L81.7043 102.334Z" fill="white"/>
</g>
<path opacity="0.5" d="M110.832 90.608L107.381 94.059C109.124 96.1058 110.267 98.5942 110.686 101.25C111.104 103.905 110.781 106.625 109.752 109.108C108.723 111.592 107.028 113.743 104.854 115.324C102.68 116.905 100.112 117.856 97.4321 118.07V122.92C101.073 122.697 104.578 121.456 107.548 119.338C110.518 117.221 112.834 114.311 114.23 110.941C115.627 107.572 116.049 103.877 115.448 100.279C114.847 96.6816 113.248 93.3248 110.832 90.5918V90.608Z" fill="white"/>
<path d="M277.716 84.1465C276.165 84.1465 274.65 84.6063 273.361 85.4677C272.071 86.3291 271.067 87.5535 270.473 88.9859C269.88 90.4184 269.725 91.9947 270.027 93.5154C270.33 95.0361 271.076 96.433 272.173 97.5293C273.269 98.6257 274.666 99.3723 276.187 99.6748C277.707 99.9773 279.284 99.8221 280.716 99.2287C282.148 98.6354 283.373 97.6305 284.234 96.3414C285.096 95.0522 285.555 93.5365 285.555 91.986C285.555 89.9068 284.729 87.9128 283.259 86.4426C281.789 84.9724 279.795 84.1465 277.716 84.1465ZM277.716 95.9057C276.94 95.9073 276.182 95.6788 275.536 95.2491C274.89 94.8193 274.387 94.2077 274.089 93.4916C273.791 92.7755 273.712 91.9871 273.862 91.2262C274.013 90.4653 274.385 89.7662 274.933 89.2172C275.481 88.6682 276.18 88.294 276.94 88.1421C277.701 87.9902 278.489 88.0674 279.206 88.3638C279.923 88.6603 280.535 89.1627 280.966 89.8074C281.398 90.4522 281.628 91.2104 281.628 91.986C281.625 93.0235 281.213 94.018 280.48 94.7524C279.747 95.4868 278.753 95.9014 277.716 95.9057Z" fill="#EF3124" fill-opacity="0.95"/>
<path d="M297.477 107.148C295.926 107.147 294.41 107.605 293.119 108.466C291.829 109.326 290.823 110.55 290.228 111.982C289.634 113.415 289.477 114.991 289.779 116.512C290.081 118.034 290.827 119.431 291.923 120.528C293.019 121.626 294.416 122.373 295.936 122.676C297.457 122.979 299.034 122.825 300.467 122.231C301.9 121.638 303.125 120.634 303.987 119.344C304.848 118.055 305.308 116.539 305.308 114.988C305.308 112.91 304.484 110.917 303.015 109.447C301.547 107.977 299.555 107.151 297.477 107.148ZM297.477 118.9C296.701 118.901 295.942 118.672 295.296 118.242C294.65 117.812 294.147 117.2 293.849 116.484C293.551 115.767 293.473 114.978 293.624 114.217C293.775 113.456 294.149 112.757 294.697 112.208C295.246 111.66 295.945 111.286 296.706 111.135C297.467 110.984 298.256 111.062 298.973 111.36C299.689 111.658 300.301 112.161 300.731 112.807C301.161 113.453 301.39 114.212 301.389 114.988C301.386 116.025 300.974 117.018 300.241 117.752C299.507 118.485 298.514 118.897 297.477 118.9Z" fill="#EF3124" fill-opacity="0.95"/>
<path d="M280.649 122.827H275.437L293.548 84.1465H298.761L280.649 122.827Z" fill="#EF3124" fill-opacity="0.95"/>
<g opacity="0.5">
<path opacity="0.5" d="M277.716 84.1465C276.165 84.1465 274.65 84.6063 273.361 85.4677C272.071 86.3291 271.067 87.5535 270.473 88.9859C269.88 90.4184 269.725 91.9947 270.027 93.5154C270.33 95.0361 271.076 96.433 272.173 97.5293C273.269 98.6257 274.666 99.3723 276.187 99.6748C277.707 99.9773 279.284 99.8221 280.716 99.2287C282.148 98.6354 283.373 97.6305 284.234 96.3414C285.096 95.0522 285.555 93.5365 285.555 91.986C285.555 89.9068 284.729 87.9128 283.259 86.4426C281.789 84.9724 279.795 84.1465 277.716 84.1465ZM277.716 95.9057C276.94 95.9073 276.182 95.6788 275.536 95.2491C274.89 94.8193 274.387 94.2077 274.089 93.4916C273.791 92.7755 273.712 91.9871 273.862 91.2262C274.013 90.4653 274.385 89.7662 274.933 89.2172C275.481 88.6682 276.18 88.294 276.94 88.1421C277.701 87.9902 278.489 88.0674 279.206 88.3638C279.923 88.6603 280.535 89.1627 280.966 89.8074C281.398 90.4522 281.628 91.2104 281.628 91.986C281.625 93.0235 281.213 94.018 280.48 94.7524C279.747 95.4868 278.753 95.9014 277.716 95.9057Z" fill="white"/>
<path opacity="0.5" d="M297.476 107.146C295.926 107.145 294.409 107.603 293.119 108.464C291.829 109.324 290.823 110.548 290.228 111.98C289.633 113.413 289.477 114.989 289.779 116.51C290.08 118.032 290.826 119.429 291.922 120.526C293.018 121.624 294.415 122.371 295.936 122.674C297.457 122.977 299.034 122.823 300.467 122.229C301.9 121.636 303.124 120.632 303.986 119.342C304.848 118.053 305.308 116.537 305.308 114.986C305.308 112.908 304.483 110.915 303.015 109.445C301.546 107.976 299.554 107.149 297.476 107.146ZM297.476 118.898C296.701 118.899 295.942 118.67 295.296 118.24C294.65 117.81 294.146 117.198 293.849 116.482C293.551 115.765 293.473 114.976 293.624 114.215C293.775 113.454 294.148 112.755 294.697 112.206C295.245 111.658 295.945 111.284 296.706 111.133C297.467 110.982 298.256 111.06 298.972 111.358C299.689 111.656 300.301 112.159 300.731 112.805C301.161 113.451 301.39 114.21 301.388 114.986C301.386 116.023 300.973 117.016 300.24 117.75C299.507 118.483 298.513 118.895 297.476 118.898Z" fill="white"/>
<path opacity="0.5" d="M280.649 122.827H275.437L293.548 84.1465H298.761L280.649 122.827Z" fill="white"/>
</g>
<path d="M188.007 87.6152C188.217 88.6173 188.42 89.4902 188.654 90.4034C188.888 91.3167 189.139 92.1734 189.405 93.0947C189.931 94.8647 190.537 96.6265 191.208 98.4126C192.549 102.123 194.384 105.635 196.663 108.855C197.335 109.754 198.081 110.594 198.894 111.368C199.806 112.243 200.844 112.975 201.973 113.542C204.139 114.596 206.545 115.061 208.948 114.892C211.051 114.746 213.118 114.261 215.066 113.453C215.983 113.078 216.879 112.652 217.749 112.176C218.184 111.93 218.605 111.66 219.01 111.368C219.414 111.069 219.818 110.818 220.27 110.487L218.113 106.68L216.981 106.979L215.793 107.262C214.985 107.44 214.177 107.594 213.368 107.699C211.911 107.922 210.43 107.952 208.964 107.788C207.79 107.668 206.663 107.263 205.683 106.608C205.26 106.304 204.87 105.958 204.519 105.573C204.09 105.061 203.695 104.521 203.339 103.957C202.519 102.669 201.803 101.318 201.197 99.9159C200.534 98.4531 199.952 96.9094 199.403 95.3253C198.853 93.7413 198.36 92.0926 197.867 90.4762L197.172 88.0516C196.954 87.2434 196.712 86.3867 196.542 85.6836L188.007 87.6152Z" fill="#FF8B7B"/>
<path d="M187.273 82.7171C190.942 78.0538 196.502 79.7591 199.63 87.1783C201.358 91.1245 202.732 95.2166 203.735 99.4063L190.691 103.989C187.264 96.9817 183.506 87.4935 187.273 82.7171Z" fill="#EF3124" fill-opacity="0.95"/>
<path opacity="0.1" d="M187.273 82.7171C190.942 78.0538 196.502 79.7591 199.63 87.1783C201.358 91.1245 202.732 95.2166 203.735 99.4063L190.691 103.989C187.264 96.9817 183.506 87.4935 187.273 82.7171Z" fill="black"/>
<path opacity="0.3" d="M192.719 90.5152C191.652 89.7878 189.446 94.0308 188.427 99.0254C189.147 100.771 189.914 102.444 190.682 103.996L198.53 101.24C197.245 96.5443 195.135 92.1315 192.719 90.5152Z" fill="black"/>
<path d="M218.775 104.763L221.628 103.203L222.63 109.572C222.63 109.572 217.862 112.449 216.496 110.073L216.642 108.456C216.718 107.726 216.948 107.019 217.315 106.383C217.683 105.746 218.18 105.194 218.775 104.763Z" fill="#FF8B7B"/>
<path d="M225.209 102.889L227.706 108.013L222.606 109.581L221.604 103.204L225.209 102.889Z" fill="#FF8B7B"/>
<path d="M187.2 78.5477L180.54 77.5859L172.224 78.3133C170.961 78.4234 169.77 78.9449 168.833 79.7975C167.895 80.6502 167.264 81.7869 167.035 83.0332C166.103 89.1055 165.549 95.23 165.378 101.371C165.087 108.281 165.855 118.481 166.995 127.694L194.78 124.332C195.047 100.086 196.882 92.5779 197.108 86.1528C197.153 84.8903 196.782 83.6479 196.052 82.617C195.322 81.586 194.273 80.8235 193.067 80.4469L187.2 78.5477Z" fill="#EF3124" fill-opacity="0.95"/>
<path d="M195.621 198.773L201.537 200.414L206.83 186.521L200.93 184.889L195.621 198.773Z" fill="#FF8B7B"/>
<path d="M204.171 198.572C203.703 197.965 203.026 197.553 202.272 197.417L196.186 196.237C196.05 196.206 195.908 196.227 195.787 196.295C195.665 196.364 195.574 196.476 195.531 196.608L193.665 202.161C193.561 202.465 193.58 202.798 193.719 203.088C193.858 203.379 194.106 203.603 194.408 203.712H194.473C196.72 204.601 198.239 204.294 201.746 204.973C203.904 205.393 208.446 206.832 211.445 206.711C214.443 206.59 214.476 203.583 213.199 203.357C208.673 202.654 205.206 199.938 204.171 198.572Z" fill="#263238"/>
<g opacity="0.2">
<path opacity="0.2" d="M206.83 186.527L204.009 193.914L198.19 192.047L200.922 184.887L206.83 186.527Z" fill="black"/>
</g>
<path d="M221.579 145.561C221.357 147.761 220.957 149.94 220.383 152.075C218.823 158.104 216.156 164.247 213.917 170.235C209.586 182.067 205.787 192.348 205.787 192.348L197.705 189.551C197.705 189.551 204.979 155.316 209.885 151.817H179.804C179.241 151.817 178.68 151.779 178.123 151.704C183.303 151.033 191.377 147.84 198.869 144.648C205.488 141.819 211.679 138.991 215.033 137.924C219.138 139.678 221.894 142.11 221.579 145.561Z" fill="#263238"/>
<path opacity="0.1" d="M221.579 145.561C221.357 147.761 220.957 149.94 220.383 152.075C218.823 158.104 216.156 164.247 213.917 170.235C209.586 182.067 205.787 192.348 205.787 192.348L197.705 189.551C197.705 189.551 204.979 155.316 209.885 151.817H179.804C179.241 151.817 178.68 151.779 178.123 151.704C183.303 151.033 191.377 147.84 198.869 144.648C205.488 141.819 211.679 138.991 215.033 137.924C219.138 139.678 221.894 142.11 221.579 145.561Z" fill="black"/>
<path opacity="0.6" d="M215.041 137.957C211.679 139.048 205.488 141.852 198.877 144.681C191.385 147.873 183.311 151.066 178.131 151.737C169.402 150.573 166.121 140.171 175.246 128.178C181.17 128.178 187.126 133.835 187.126 133.835C187.126 133.835 205.036 133.746 215.041 137.957Z" fill="black"/>
<path d="M236.814 186.837H243.425L236.498 170.236L232.005 177.858L236.814 186.837Z" fill="#FF8B7B"/>
<path d="M242.884 185.269L235.117 183.499C234.985 183.463 234.845 183.479 234.724 183.544C234.604 183.609 234.513 183.717 234.47 183.847L232.304 189.819C232.217 190.123 232.252 190.448 232.404 190.725C232.555 191.002 232.81 191.208 233.113 191.298H233.153C235.877 191.872 237.194 192.009 240.629 192.777C242.73 193.262 248.048 194.652 250.949 195.315C253.851 195.978 254.611 193.133 253.455 192.591C248.282 190.167 245.47 187.904 243.967 185.948C243.697 185.601 243.314 185.36 242.884 185.269Z" fill="#263238"/>
<g opacity="0.2">
<path opacity="0.2" d="M236.498 170.236L239.448 177.308L233.492 180.63L232.005 177.858L236.498 170.236Z" fill="black"/>
</g>
<path d="M239.538 174.795L232.264 179.199C232.264 179.199 226.195 166.454 220.392 152.076C220.966 149.941 221.366 147.762 221.588 145.562C221.903 142.111 219.164 139.679 215.058 137.965C211.696 139.056 205.505 141.861 198.894 144.689C191.402 147.882 183.328 151.074 178.148 151.745C177.553 151.825 176.954 151.868 176.354 151.874C166.397 151.874 162.962 143.146 166.979 128.34C172.903 128.34 183.045 127.701 183.045 127.701C183.045 127.701 202.62 122.997 216.707 124.598C220.049 124.992 223.181 126.436 225.65 128.724C228.119 131.012 229.798 134.024 230.446 137.327C234.075 155.301 239.538 174.795 239.538 174.795Z" fill="#263238"/>
<path d="M239.538 174.795L232.264 179.199C232.264 179.199 226.195 166.454 220.392 152.076C220.966 149.941 221.366 147.762 221.588 145.562C221.903 142.111 219.164 139.679 215.058 137.965C211.696 139.056 205.505 141.861 198.894 144.689C191.402 147.882 183.328 151.074 178.148 151.745C177.553 151.825 176.954 151.868 176.354 151.874C166.397 151.874 162.962 143.146 166.979 128.34C172.903 128.34 183.045 127.701 183.045 127.701C183.045 127.701 202.62 122.997 216.707 124.598C220.049 124.992 223.181 126.436 225.65 128.724C228.119 131.012 229.798 134.024 230.446 137.327C234.075 155.301 239.538 174.795 239.538 174.795Z" fill="#263238"/>
<path d="M187.2 78.5477L180.54 77.5859L172.224 78.3133C170.961 78.4234 169.77 78.9449 168.833 79.7975C167.895 80.6502 167.264 81.7869 167.035 83.0332C166.103 89.1055 165.549 95.23 165.378 101.371C165.087 108.281 165.855 118.481 166.995 127.694L194.78 124.332C195.047 100.086 196.882 92.5779 197.108 86.1528C197.153 84.8903 196.782 83.6479 196.052 82.617C195.322 81.586 194.273 80.8235 193.067 80.4469L187.2 78.5477Z" fill="#EF3124" fill-opacity="0.95"/>
<path d="M166.929 126.158L166.21 128.413C166.121 128.582 166.315 128.768 166.614 128.776L194.351 127.119C194.578 127.119 194.772 127.014 194.788 126.869L195.087 124.606C195.087 124.444 194.909 124.307 194.667 124.299L167.374 125.972C167.29 125.961 167.205 125.972 167.127 126.004C167.048 126.037 166.98 126.09 166.929 126.158Z" fill="#263238"/>
<path opacity="0.1" d="M166.929 126.158L166.21 128.413C166.121 128.582 166.315 128.768 166.614 128.776L194.351 127.119C194.578 127.119 194.772 127.014 194.788 126.869L195.087 124.606C195.087 124.444 194.909 124.307 194.667 124.299L167.374 125.972C167.29 125.961 167.205 125.972 167.127 126.004C167.048 126.037 166.98 126.09 166.929 126.158Z" fill="black"/>
<path opacity="0.3" d="M169.742 80.7677C175.278 79.7979 175.003 92.3814 172.481 101.587C171.754 104.254 168.602 103.138 167.535 102.443C164.036 100.213 162.856 84.7925 169.742 80.7677Z" fill="black"/>
<path d="M169.071 99.4046C169.281 104.844 167.551 107.697 170.453 109.515C173.354 111.334 190.496 117.015 190.916 116.304C190.108 117.613 189.3 118.728 188.492 120.054C183.551 119.31 178.607 118.623 173.661 117.993C170.049 117.54 164.222 116.611 161.393 114.316C158.823 112.247 159.283 103.163 159.72 96.6163C161.991 95.2666 169.071 99.4046 169.071 99.4046Z" fill="#FF8B7B"/>
<path d="M167.592 78.5534C173.25 76.8804 175.44 81.4386 173.71 89.27C172.839 93.4936 171.586 97.6296 169.968 101.627L158.056 97.8692C159.349 90.1833 161.757 80.2667 167.592 78.5534Z" fill="#EF3124" fill-opacity="0.95"/>
<path d="M175.884 78.5142C175.733 79.7219 176.042 80.9422 176.749 81.9329C177.445 82.9104 178.259 83.7981 179.174 84.5756C180.297 85.602 181.638 86.7093 183.158 86.5072C184.556 86.3213 185.356 85.6182 185.922 83.9533C187.118 85.8849 187.175 86.8467 188.492 86.9679C188.919 86.945 189.336 86.8298 189.714 86.6303C190.092 86.4308 190.422 86.1516 190.682 85.8122C191.167 85.4128 191.569 84.9217 191.864 84.367C192.16 83.8123 192.343 83.2049 192.404 82.5794C192.719 80.1548 190.739 77.8757 188.427 77.0109C186.074 76.2232 183.63 75.7397 181.154 75.5724C178.996 75.3461 176.28 76.0169 175.884 78.5142Z" fill="#EF3124" fill-opacity="0.95"/>
<path opacity="0.3" d="M175.884 78.5142C175.733 79.7219 176.042 80.9422 176.749 81.9329C177.445 82.9104 178.259 83.7981 179.174 84.5756C180.297 85.602 181.638 86.7093 183.158 86.5072C184.556 86.3213 185.356 85.6182 185.922 83.9533C187.118 85.8849 187.175 86.8467 188.492 86.9679C188.919 86.945 189.336 86.8298 189.714 86.6303C190.092 86.4308 190.422 86.1516 190.682 85.8122C191.167 85.4128 191.569 84.9217 191.864 84.367C192.16 83.8123 192.343 83.2049 192.404 82.5794C192.719 80.1548 190.739 77.8757 188.427 77.0109C186.074 76.2232 183.63 75.7397 181.154 75.5724C178.996 75.3461 176.28 76.0169 175.884 78.5142Z" fill="black"/>
<path d="M181.67 66.7871L184.685 70.2704L188.783 75.0064C188.416 75.5145 188.142 76.0837 187.974 76.6875C187.696 77.3282 187.657 78.048 187.867 78.7147C188.076 79.3813 188.519 79.95 189.114 80.3163C189.736 80.6072 190.06 83.8804 185.938 83.5491C184.762 83.5288 183.604 83.2664 182.535 82.7783C181.465 82.2903 180.508 81.5869 179.723 80.7123C178.971 79.702 178.769 79.1606 179.545 78.0533C181.743 74.9256 181.921 70.3917 181.67 66.7871Z" fill="#FF8B7B"/>
<path opacity="0.2" d="M187.797 73.8347L185.211 70.416C185.211 70.513 185.146 70.6261 185.114 70.7393C184.987 71.2216 184.901 71.7136 184.856 72.2102C184.702 73.9074 186.294 76.0814 187.846 77.0109L187.967 76.6714C188.159 76.0971 188.431 75.5528 188.775 75.055C188.795 75.0269 188.82 75.0023 188.848 74.9823L187.797 73.8347Z" fill="black"/>
<path d="M181.954 60.3783C181.485 65.9953 180.968 69.2684 183.376 72.4527C187.021 77.3019 194.279 75.5723 196.396 70.1736C198.303 65.3244 198.699 56.9435 193.543 54.0097C191.728 53.0073 189.588 52.7668 187.595 53.3412C185.602 53.9155 183.919 55.2578 182.915 57.0728C182.35 58.0883 182.022 59.2182 181.954 60.3783Z" fill="#FF8B7B"/>
<path d="M181.13 65.3489L183.554 66.3915C184.363 66.052 184.548 65.0741 184.492 64.1851C184.249 60.7584 190.432 56.5719 190.432 56.5719C190.432 56.5719 183.894 54.4221 181.93 54.0989C181.243 53.9857 178.77 55.7799 178.39 56.5234C177.882 57.6145 177.688 58.8257 177.831 60.0208C177.974 61.2159 178.447 62.3475 179.198 63.288C179.774 64.036 180.421 64.7262 181.13 65.3489Z" fill="#263238"/>
<path d="M179.061 64.3398C179.181 65.5941 179.756 66.7612 180.677 67.6211C181.873 68.7202 183.336 67.5241 183.514 65.9239C183.659 64.5015 182.94 62.4244 181.485 61.9476C180.031 61.4707 178.923 62.7719 179.061 64.3398Z" fill="#FF8B7B"/>
<path d="M190.383 63.7491C190.294 64.2098 190.464 64.6381 190.763 64.7028C191.062 64.7674 191.345 64.4522 191.466 63.9915C191.587 63.5309 191.377 63.1025 191.078 63.0379C190.779 62.9732 190.431 63.2803 190.383 63.7491Z" fill="#263238"/>
<path d="M195.564 64.8875C195.475 65.3562 195.645 65.7846 195.952 65.8492C196.259 65.9139 196.558 65.5906 196.647 65.138C196.736 64.6855 196.558 64.249 196.259 64.1844C195.96 64.1197 195.653 64.4268 195.564 64.8875Z" fill="#263238"/>
<path d="M193.834 64.8633C193.996 66.1826 194.328 67.4756 194.82 68.7103C194.507 68.8231 194.173 68.8649 193.842 68.8328C193.51 68.8007 193.19 68.6953 192.905 68.5244L193.834 64.8633Z" fill="#FF5652"/>
<path d="M191.596 71.1179C191.081 70.9392 190.609 70.657 190.207 70.2887C189.805 69.9204 189.483 69.4737 189.261 68.9762C189.247 68.9429 189.247 68.9057 189.261 68.8724C189.274 68.8392 189.3 68.8126 189.333 68.7984C189.369 68.787 189.407 68.7889 189.442 68.8037C189.476 68.8186 189.503 68.8454 189.519 68.8792C189.768 69.4156 190.138 69.8872 190.599 70.2574C191.06 70.6275 191.601 70.886 192.178 71.0128C192.196 71.0148 192.214 71.0204 192.23 71.0292C192.246 71.0381 192.26 71.05 192.271 71.0642C192.282 71.0785 192.291 71.0949 192.295 71.1124C192.3 71.13 192.302 71.1483 192.299 71.1664C192.293 71.2036 192.273 71.237 192.243 71.2596C192.213 71.2822 192.175 71.2923 192.138 71.2876C191.952 71.2481 191.771 71.1913 191.596 71.1179Z" fill="#263238"/>
<path d="M189.672 61.8895C189.626 61.8802 189.586 61.8543 189.559 61.8168C189.507 61.7653 189.479 61.6955 189.479 61.6228C189.479 61.5501 189.507 61.4803 189.559 61.4288C189.883 61.1378 190.274 60.9316 190.697 60.8286C191.12 60.7256 191.562 60.7292 191.983 60.8389C192.053 60.8595 192.111 60.9067 192.146 60.9703C192.181 61.0339 192.189 61.1086 192.169 61.1783C192.145 61.2467 192.095 61.3029 192.03 61.3347C191.965 61.3664 191.89 61.3712 191.822 61.348C191.491 61.2721 191.147 61.2758 190.819 61.3587C190.49 61.4416 190.185 61.6013 189.93 61.8249C189.898 61.8589 189.856 61.883 189.81 61.8944C189.765 61.9059 189.717 61.9042 189.672 61.8895Z" fill="#263238"/>
<path d="M196.153 61.8981C196.141 61.8532 196.141 61.8057 196.153 61.7607C196.163 61.7256 196.179 61.6927 196.201 61.6638C196.223 61.635 196.251 61.6109 196.283 61.5928C196.314 61.5748 196.349 61.5632 196.385 61.5587C196.421 61.5543 196.458 61.557 196.493 61.5668C196.91 61.6663 197.297 61.8652 197.621 62.1467C197.944 62.4282 198.195 62.7838 198.352 63.1831C198.372 63.2539 198.364 63.3297 198.329 63.3946C198.294 63.4595 198.236 63.5083 198.166 63.5307C198.096 63.5507 198.021 63.5424 197.958 63.5076C197.894 63.4728 197.847 63.4143 197.826 63.3448C197.702 63.0273 197.502 62.7447 197.244 62.5209C196.987 62.2972 196.679 62.139 196.347 62.0598C196.304 62.0509 196.264 62.0316 196.23 62.0034C196.196 61.9751 196.17 61.939 196.153 61.8981Z" fill="#263238"/>
<path d="M197.867 125.578L233.331 125.683C233.949 125.673 234.543 125.438 234.999 125.021C235.456 124.604 235.745 124.035 235.812 123.42L237.429 105.462C237.459 105.173 237.429 104.88 237.338 104.603C237.247 104.326 237.099 104.071 236.902 103.856C236.706 103.64 236.466 103.469 236.199 103.353C235.932 103.237 235.643 103.179 235.351 103.183L199.888 103.078C199.269 103.09 198.676 103.328 198.219 103.746C197.762 104.164 197.474 104.734 197.407 105.349L195.79 123.299C195.76 123.589 195.79 123.882 195.881 124.159C195.972 124.436 196.12 124.69 196.316 124.906C196.513 125.121 196.752 125.292 197.02 125.408C197.287 125.524 197.576 125.582 197.867 125.578Z" fill="#EF3124" fill-opacity="0.95"/>
<path opacity="0.3" d="M197.867 125.578L233.331 125.683C233.949 125.673 234.543 125.438 234.999 125.021C235.456 124.604 235.745 124.035 235.812 123.42L237.429 105.462C237.459 105.173 237.429 104.88 237.338 104.603C237.247 104.326 237.099 104.071 236.902 103.856C236.706 103.64 236.466 103.469 236.199 103.353C235.932 103.237 235.643 103.179 235.351 103.183L199.888 103.078C199.269 103.09 198.676 103.328 198.219 103.746C197.762 104.164 197.474 104.734 197.407 105.349L195.79 123.299C195.76 123.589 195.79 123.882 195.881 124.159C195.972 124.436 196.12 124.69 196.316 124.906C196.513 125.121 196.752 125.292 197.02 125.408C197.287 125.524 197.576 125.582 197.867 125.578Z" fill="black"/>
<path d="M198.911 125.502L234.374 125.607C234.994 125.597 235.588 125.36 236.045 124.942C236.502 124.523 236.79 123.952 236.855 123.336L238.472 105.386C238.504 105.097 238.474 104.804 238.384 104.527C238.295 104.25 238.147 103.995 237.951 103.78C237.756 103.564 237.516 103.393 237.249 103.277C236.982 103.161 236.694 103.103 236.403 103.107L200.939 103.002C200.321 103.016 199.728 103.254 199.272 103.671C198.816 104.089 198.526 104.658 198.458 105.273L196.842 123.223C196.81 123.512 196.839 123.805 196.929 124.082C197.019 124.359 197.166 124.614 197.362 124.829C197.558 125.045 197.797 125.216 198.064 125.332C198.331 125.448 198.62 125.506 198.911 125.502Z" fill="#EF3124" fill-opacity="0.95"/>
<path opacity="0.2" d="M198.911 125.502L234.374 125.607C234.994 125.597 235.588 125.36 236.045 124.942C236.502 124.523 236.79 123.952 236.855 123.336L238.472 105.386C238.504 105.097 238.474 104.804 238.384 104.527C238.295 104.25 238.147 103.995 237.951 103.78C237.756 103.564 237.516 103.393 237.249 103.277C236.982 103.161 236.694 103.103 236.403 103.107L200.939 103.002C200.321 103.016 199.728 103.254 199.272 103.671C198.816 104.089 198.526 104.658 198.458 105.273L196.842 123.223C196.81 123.512 196.839 123.805 196.929 124.082C197.019 124.359 197.166 124.614 197.362 124.829C197.558 125.045 197.797 125.216 198.064 125.332C198.331 125.448 198.62 125.506 198.911 125.502Z" fill="white"/>
<path d="M220.149 114.562C220.099 115.054 219.903 115.521 219.587 115.903C219.272 116.285 218.85 116.564 218.375 116.706C217.9 116.848 217.394 116.847 216.921 116.701C216.447 116.555 216.027 116.273 215.714 115.889C215.401 115.505 215.209 115.036 215.163 114.543C215.116 114.05 215.216 113.554 215.451 113.118C215.686 112.681 216.045 112.325 216.483 112.093C216.921 111.861 217.418 111.763 217.91 111.814C218.238 111.847 218.556 111.945 218.845 112.101C219.135 112.257 219.391 112.469 219.599 112.724C219.807 112.979 219.963 113.273 220.057 113.588C220.151 113.903 220.183 114.234 220.149 114.562Z" fill="white"/>
<path d="M234.883 125.585C234.883 126.66 234.245 127.533 233.469 127.533L196.866 127.387C196.47 127.387 196.146 126.951 196.146 126.418C196.146 125.884 196.47 125.432 196.866 125.432L234.883 125.585Z" fill="#EF3124" fill-opacity="0.95"/>
<path opacity="0.3" d="M234.883 125.585C234.883 126.66 234.245 127.533 233.469 127.533L196.866 127.387C196.47 127.387 196.146 126.951 196.146 126.418C196.146 125.884 196.47 125.432 196.866 125.432L234.883 125.585Z" fill="black"/>
<path d="M196.639 127.396H179.02C178.57 127.396 178.138 127.217 177.82 126.898C177.502 126.58 177.323 126.148 177.323 125.698C177.322 125.664 177.328 125.629 177.34 125.597C177.353 125.565 177.372 125.535 177.396 125.51C177.42 125.485 177.449 125.466 177.481 125.452C177.513 125.439 177.547 125.432 177.582 125.432H196.639C196.768 125.432 196.896 125.457 197.015 125.507C197.134 125.557 197.242 125.629 197.333 125.721C197.424 125.813 197.496 125.921 197.545 126.041C197.593 126.161 197.618 126.289 197.617 126.418C197.617 126.677 197.514 126.926 197.33 127.109C197.147 127.293 196.898 127.396 196.639 127.396Z" fill="#EF3124" fill-opacity="0.95"/>
<path d="M187.119 113.792L190.044 112.936L189.778 120.137C189.778 120.137 183.425 121.632 183.029 118.706L183.837 117.13C184.541 115.772 185.51 114.188 187.119 113.792Z" fill="#FF8B7B"/>
<path d="M194.425 114.932L193.56 118.973L189.778 120.128L190.045 112.936L194.425 114.932Z" fill="#FF8B7B"/>
<path d="M195.58 188.963L207.703 193.077L210.184 188.066L196.776 183.807L195.58 188.963Z" fill="#EF3124" fill-opacity="0.95"/>
<path d="M230.405 180.196L241.583 173.956L239.53 168.76L227.383 175.856L230.405 180.196Z" fill="#EF3124" fill-opacity="0.95"/>
<path d="M198.264 60.3233C199.929 60.2263 200.607 58.2624 200.405 57.4219C200.159 56.313 199.485 55.3459 198.53 54.7306C199.064 53.1142 198.345 51.1422 196.34 49.7763C195.611 49.3548 194.796 49.1038 193.956 49.0422C193.117 48.9806 192.274 49.11 191.491 49.4207C191.491 47.9579 188.8 46.9962 187.07 48.8227C186.357 48.3819 185.521 48.1839 184.686 48.2582C183.851 48.3325 183.063 48.6751 182.439 49.2349C182.221 49.4249 182.059 49.6698 181.968 49.9441C181.877 50.2185 181.861 50.5122 181.922 50.7947C181.234 50.8031 180.562 50.9968 179.975 51.3555C179.388 51.7141 178.909 52.2244 178.588 52.8325C178.267 53.4407 178.116 54.1241 178.151 54.8109C178.186 55.4977 178.405 56.1624 178.786 56.7349C179.328 57.5431 180.613 57.5431 181.583 57.333C181.851 57.7936 182.211 58.1942 182.641 58.5098C183.07 58.8255 183.56 59.0493 184.08 59.1676C187.272 60.2263 191.661 59.2322 192.437 59.1676C193.212 59.0386 194.008 59.1966 194.675 59.6121C194.529 59.8157 194.339 59.9844 194.12 60.106C193.9 60.2276 193.657 60.299 193.406 60.3152C192.926 60.3637 192.441 60.3392 191.968 60.2425C193.049 60.9555 194.363 61.2247 195.637 60.9941C196.184 60.719 196.745 60.4735 197.318 60.2586C197.706 60.202 198.304 60.3798 198.264 60.3233Z" fill="#263238"/>
<path d="M149.595 159.111C149.166 158.937 148.765 158.7 148.405 158.408C148.009 158.169 147.649 157.874 147.336 157.533C147.764 157.71 148.163 157.949 148.522 158.241C148.918 158.48 149.279 158.773 149.595 159.111Z" fill="#F1463B"/>
<path d="M126.132 127.812C126.721 128.039 127.284 128.329 127.812 128.675C128.373 128.962 128.901 129.31 129.386 129.713C128.799 129.485 128.237 129.196 127.71 128.85C127.149 128.562 126.62 128.214 126.132 127.812Z" fill="#F1463B"/>
<path d="M147.787 160.922C147.512 160.567 147.291 160.174 147.13 159.756C146.912 159.367 146.753 158.948 146.66 158.512C146.935 158.866 147.157 159.259 147.317 159.678C147.535 160.066 147.694 160.486 147.787 160.922Z" fill="#F1463B"/>
<path d="M155.663 124.422C155.677 124.698 155.636 124.974 155.542 125.234C155.347 125.878 155.016 126.472 154.57 126.976C154.125 127.477 153.576 127.875 152.961 128.142C152.719 128.265 152.454 128.339 152.184 128.36C152.184 128.325 152.475 128.239 152.918 128.01C154.076 127.411 154.968 126.402 155.422 125.18C155.577 124.725 155.628 124.414 155.663 124.422Z" fill="#F1463B"/>
<path d="M139.446 120.995C139.162 120.906 138.897 120.762 138.669 120.571C138.079 120.137 137.593 119.577 137.246 118.931C136.9 118.286 136.702 117.571 136.667 116.839C136.636 116.537 136.667 116.232 136.756 115.941C136.791 115.941 136.756 116.287 136.811 116.828C136.958 118.246 137.656 119.549 138.754 120.458C139.159 120.804 139.462 120.964 139.446 120.995Z" fill="#F1463B"/>
<path d="M173.12 128.699C172.964 129.392 172.613 130.026 172.109 130.526C171.653 131.069 171.054 131.473 170.379 131.692C171.556 130.968 172.505 129.928 173.12 128.691V128.699Z" fill="#F1463B"/>
<path d="M164.771 132.548C164.267 131.94 163.92 131.217 163.76 130.443C163.6 129.669 163.632 128.868 163.853 128.109C163.799 128.875 163.834 129.645 163.958 130.403C164.147 131.147 164.419 131.866 164.771 132.548Z" fill="#F1463B"/>
<path d="M158.372 144.096C158.355 144.788 158.196 145.47 157.904 146.099C157.613 146.727 157.195 147.289 156.677 147.75C157.056 147.192 157.404 146.613 157.719 146.016C157.973 145.389 158.191 144.748 158.372 144.096Z" fill="#F1463B"/>
<path d="M123.004 148.927C123.004 149.168 123.649 155.85 121.717 158.256L119.867 160.589L120.734 161.564C120.734 161.564 120.093 170.893 120.734 172.674C121.074 173.682 121.691 174.575 122.514 175.251L126.852 174.769C126.852 174.769 127.016 172.596 125.807 172.355C124.598 172.114 124.761 171.387 124.761 171.387C124.995 169.115 125.71 166.919 126.86 164.946C128.707 161.968 130.397 161.887 132.971 159.15C135.544 156.414 137.561 152.873 137.802 152.068C138.043 151.263 137.32 146.432 137.32 146.432L129.849 140.477L123.004 148.927Z" fill="#F1463B"/>
<path d="M142.405 150.136C142.246 150.455 141.278 160.196 141.278 160.196L146.996 176.378C146.996 176.378 149.087 177.505 148.446 179.278L145.725 179.666L143.066 177.171C143.166 176.738 143.135 176.285 142.977 175.87C142.82 175.455 142.542 175.096 142.18 174.839C140.893 173.789 133.807 162.279 131.716 161.622C129.625 160.965 130.184 160.254 130.184 160.254L134.211 145.604L142.503 148.2L142.405 150.136Z" fill="#F1463B"/>
<path d="M101.726 124.898C101.808 120.798 103.545 117.703 104.311 114.99C105.089 112.207 105.365 109.754 103.689 107.492C103.22 106.85 102.626 106.31 101.943 105.902C101.26 105.495 100.503 105.229 99.7149 105.12C98.9273 105.011 98.1259 105.062 97.3583 105.269C96.5906 105.476 95.8725 105.836 95.2465 106.326C94.6219 106.748 94.1706 107.382 93.9754 108.11C93.8316 108.845 94.2125 109.715 94.9316 109.914C95.8995 110.174 96.7702 109.202 97.7614 109.082C99.0092 108.926 100.047 110.205 100.144 111.457C100.241 112.708 99.6933 113.89 99.2074 115.056C96.8985 120.592 95.4408 128.35 100.059 134.161L105.271 132.012C103.378 129.932 101.687 127.654 101.726 124.898Z" fill="#F1463B"/>
<path d="M98.1265 138.434C98.1265 138.434 96.3734 139.934 96.5172 144.039C96.6611 148.144 97.835 153.348 97.318 155.7C96.801 158.052 96.6416 164.796 96.5095 166.145C96.3773 167.494 99.9262 175.668 99.9262 175.668L104.404 175.952C104.404 175.952 104.758 173.251 102.772 172.683C100.785 172.116 99.9262 165.647 100.921 163.16C101.916 160.672 103.693 162.806 106.678 156.482C109.663 150.157 110.375 148.808 110.375 148.521C110.375 148.233 98.1265 138.434 98.1265 138.434Z" fill="#F1463B"/>
<path d="M105.33 157.188C105.33 157.188 102.971 159.672 103.441 161.872C103.911 164.073 108.242 171.466 108.242 171.466L113.073 170.968C113.073 170.968 114.068 169.689 111.864 168.694L110.376 167.345C110.376 167.345 108.821 165.791 108.821 163.847C108.821 161.904 112.766 160.924 113.808 156.648C114.85 152.372 115.46 150.234 115.46 150.234L106.251 152.225L105.33 157.188Z" fill="#F1463B"/>
<path d="M108.801 130.044C105.849 130.048 102.981 131.021 100.638 132.816C99.331 133.769 98.3236 135.076 97.7342 136.582C96.2143 140.963 97.0462 146.631 96.9062 147.875C96.7663 149.118 97.0773 150.596 97.4271 153.573C97.6837 155.762 111.207 155.334 111.207 155.334L115.009 153.814C115.009 153.814 116.952 152.71 119.498 154.922C122.044 157.134 124.128 158.308 125.578 158.098C127.028 157.888 133.951 149.6 133.951 149.6L131.257 134.829C131.257 134.829 124.827 131.77 120.268 130.74C117.302 130.064 112.085 130.005 108.801 130.044Z" fill="#F1463B"/>
<path d="M121.967 146.686C122.09 146.832 122.199 146.991 122.289 147.16C122.553 147.609 122.779 148.08 122.966 148.567C123.598 150.18 123.825 151.923 123.626 153.644C123.428 155.364 122.81 157.01 121.827 158.436C121.533 158.866 121.206 159.272 120.847 159.649C120.721 159.793 120.58 159.923 120.427 160.038C120.536 159.881 120.657 159.733 120.789 159.595C121.122 159.202 121.429 158.788 121.706 158.355C122.64 156.932 123.229 155.31 123.424 153.62C123.62 151.929 123.418 150.216 122.833 148.617C122.659 148.132 122.454 147.658 122.219 147.199C122.123 147.034 122.038 146.862 121.967 146.686Z" fill="#263238"/>
<path d="M126.876 164.948C126.915 164.843 126.964 164.743 127.024 164.649C127.188 164.376 127.372 164.116 127.576 163.871C128.301 163.025 129.1 162.244 129.963 161.539C131.221 160.92 132.38 160.119 133.403 159.16C134.916 157.735 136.109 156.005 136.901 154.084C137.137 153.5 137.337 152.903 137.5 152.296C137.543 152.068 137.605 151.844 137.687 151.627C137.666 151.858 137.629 152.088 137.578 152.315C137.442 152.934 137.26 153.542 137.034 154.134C136.27 156.099 135.074 157.868 133.535 159.308C132.5 160.282 131.32 161.089 130.037 161.698C129.174 162.395 128.364 163.155 127.615 163.972C127.408 164.206 127.213 164.45 127.032 164.703C126.987 164.789 126.935 164.871 126.876 164.948Z" fill="#263238"/>
<path d="M112.039 143.119C112.036 143.195 112.025 143.271 112.008 143.345C111.981 143.512 111.942 143.733 111.899 143.986C111.81 144.546 111.716 145.358 111.658 146.369C111.6 147.379 111.58 148.584 111.487 149.925C111.418 151.388 111.147 152.833 110.682 154.221C110.165 155.602 109.35 156.852 108.296 157.882C107.444 158.72 106.5 159.459 105.481 160.083C104.801 160.507 104.099 160.896 103.378 161.249C103.122 161.377 102.924 161.466 102.788 161.529C102.72 161.564 102.648 161.591 102.574 161.61C102.634 161.563 102.699 161.523 102.768 161.49L103.339 161.179C103.837 160.907 104.556 160.514 105.404 159.966C106.402 159.332 107.328 158.591 108.163 157.754C109.19 156.737 109.985 155.51 110.496 154.159C110.953 152.786 111.227 151.359 111.308 149.914C111.405 148.584 111.44 147.376 111.522 146.361C111.574 145.561 111.676 144.766 111.825 143.978C111.88 143.698 111.93 143.485 111.973 143.341C111.984 143.264 112.006 143.189 112.039 143.119Z" fill="#263238"/>
<path d="M119.18 154.663C118.76 154.368 118.307 154.121 117.831 153.928C117.309 153.75 116.757 153.676 116.206 153.711C115.532 153.754 114.872 153.927 114.263 154.22C112.918 154.799 111.701 155.324 110.834 155.728L109.808 156.214C109.685 156.282 109.555 156.337 109.419 156.377C109.524 156.284 109.64 156.205 109.765 156.144C109.999 156.004 110.341 155.817 110.768 155.6C111.623 155.16 112.832 154.612 114.177 154.045C114.811 153.744 115.498 153.571 116.199 153.536C116.772 153.509 117.345 153.602 117.882 153.808C118.241 153.944 118.578 154.134 118.881 154.371C119.094 154.542 119.18 154.651 119.18 154.663Z" fill="#263238"/>
<path d="M144.03 130.177C144.061 130.305 148.076 133.675 148.438 134.81C148.585 135.37 148.585 135.957 148.438 136.517L149.627 138.993C149.627 138.993 148.761 141.325 147.408 141.92C146.506 142.297 145.552 142.535 144.578 142.627C144.481 142.627 143.451 144.4 142.872 147.035C142.506 148.761 142.253 150.509 142.114 152.267L131.855 144.081C131.855 144.081 130.196 137.803 130.324 136.353C130.452 134.904 132.994 132.75 133.045 132.622C133.095 132.494 134.989 130.884 134.989 130.884L137.597 129.31C137.597 129.31 139.688 126.091 142.261 125.641C144.835 125.19 144.096 127.584 144.096 127.584L144.03 130.177Z" fill="#F1463B"/>
<path d="M143.319 135.636C143.319 135.616 143.451 135.484 143.746 135.395C144.14 135.281 144.562 135.31 144.936 135.476C145.311 135.642 145.615 135.936 145.795 136.304C145.927 136.584 145.931 136.778 145.908 136.782C145.884 136.786 145.822 136.611 145.671 136.37C145.477 136.057 145.193 135.809 144.855 135.66C144.518 135.511 144.144 135.467 143.781 135.535C143.63 135.58 143.475 135.613 143.319 135.636Z" fill="#263238"/>
<path d="M142.829 126.248C142.326 126.5 141.839 126.783 141.371 127.095C140.274 127.886 139.412 128.962 138.879 130.205C138.798 130.388 138.74 130.574 138.677 130.753L138.596 131.029C138.57 131.087 138.557 131.149 138.557 131.212C138.614 131.229 138.675 131.229 138.732 131.212L139 131.165C139.179 131.13 139.35 131.091 139.517 131.053C140.11 130.909 140.692 130.722 141.258 130.493C142.222 130.104 142.774 129.75 142.794 129.781C142.675 129.884 142.544 129.973 142.405 130.046C142.049 130.261 141.681 130.455 141.301 130.625C140.736 130.876 140.151 131.079 139.552 131.231C139.381 131.278 139.206 131.317 139.027 131.356L138.755 131.406C138.705 131.417 138.654 131.425 138.603 131.43C138.565 131.435 138.526 131.431 138.489 131.418C138.453 131.404 138.421 131.381 138.395 131.352C138.37 131.322 138.353 131.287 138.345 131.249C138.337 131.211 138.339 131.171 138.351 131.134C138.351 131.076 138.378 131.037 138.39 130.986L138.471 130.703C138.537 130.52 138.6 130.314 138.681 130.139C139.223 128.857 140.125 127.759 141.278 126.979C141.626 126.748 141.996 126.55 142.382 126.388C142.525 126.323 142.675 126.277 142.829 126.248Z" fill="#263238"/>
<path d="M134.165 139.261C134.303 139.221 134.445 139.197 134.588 139.187C134.86 139.148 135.257 139.11 135.754 139.071C137.031 138.975 138.311 138.947 139.591 138.985C140.872 139.02 142.15 139.122 143.42 139.288C143.906 139.354 144.298 139.417 144.566 139.471C144.708 139.487 144.848 139.52 144.982 139.568C144.84 139.581 144.696 139.575 144.555 139.549L143.389 139.432C142.417 139.335 141.056 139.23 139.572 139.187C138.087 139.145 136.726 139.187 135.75 139.215L134.584 139.265C134.445 139.282 134.304 139.281 134.165 139.261Z" fill="#263238"/>
<path d="M133.706 142.227C133.83 142.168 133.96 142.123 134.095 142.095C134.344 142.021 134.709 141.924 135.164 141.815C136.069 141.593 137.333 141.329 138.736 141.096C140.139 140.863 141.422 140.707 142.351 140.637C142.817 140.594 143.195 140.567 143.455 140.559C143.584 140.545 143.714 140.545 143.844 140.559C143.719 140.604 143.588 140.63 143.455 140.637L142.359 140.777C141.438 140.894 140.163 141.065 138.759 141.298C137.356 141.531 136.101 141.772 135.187 141.955L134.106 142.173C133.976 142.208 133.841 142.226 133.706 142.227Z" fill="#263238"/>
<path d="M149.597 138.926C149.206 138.77 148.793 138.675 148.372 138.646C148.327 138.639 148.281 138.643 148.238 138.657C148.195 138.671 148.156 138.695 148.124 138.728C148.061 138.813 148.124 138.938 148.159 139.035C148.326 139.346 148.543 139.629 148.8 139.871C148.853 139.934 148.925 139.976 149.006 139.991C149.158 139.991 149.243 139.836 149.309 139.7C149.455 139.484 149.563 139.244 149.628 138.992L149.597 138.926Z" fill="#FF725E"/>
<g opacity="0.2">
<path opacity="0.2" d="M138.47 131.115C138.458 131.14 138.451 131.168 138.451 131.196C138.451 131.225 138.458 131.253 138.47 131.278C138.513 131.34 138.603 131.336 138.676 131.321C140.133 131.07 141.527 130.542 142.785 129.766L143.174 127.434C143.211 127.22 143.197 127 143.132 126.793C143.068 126.585 142.956 126.396 142.805 126.24C141.749 126.653 140.806 127.31 140.052 128.157C139.299 129.004 138.757 130.018 138.47 131.115Z" fill="black"/>
</g>
<g opacity="0.2">
<path opacity="0.2" d="M103.76 162.653C103.76 162.653 110.893 159.847 112.215 157.864C113.011 156.669 113.711 155.412 114.306 154.105L109.711 156.391C109.711 156.391 106.213 160.072 103.22 161.281L103.76 162.653Z" fill="black"/>
</g>
<g opacity="0.2">
<path opacity="0.2" d="M130.729 161.333C132.206 161.41 133.788 161.457 135.032 160.66C136.044 159.934 136.734 158.843 136.956 157.617C137.172 156.402 137.227 155.164 137.119 153.936C136.054 156.622 134.08 159.661 130.729 161.321" fill="black"/>
</g>
<path d="M96.9447 140.478C96.9345 140.419 96.9345 140.358 96.9447 140.299C96.9447 140.186 96.9447 140.011 96.9913 139.794C97.0712 139.176 97.2012 138.567 97.38 137.971C97.9693 135.977 99.1172 134.194 100.688 132.832C101.573 132.102 102.566 131.514 103.631 131.086C104.486 130.731 105.374 130.459 106.282 130.274C106.891 130.146 107.51 130.067 108.132 130.037C108.353 130.037 108.521 130.037 108.641 130.037C108.699 130.027 108.758 130.027 108.816 130.037C108.592 130.074 108.366 130.098 108.14 130.107C107.524 130.167 106.912 130.267 106.309 130.406C105.416 130.61 104.543 130.894 103.701 131.254C102.668 131.683 101.705 132.263 100.843 132.976C99.3017 134.317 98.1598 136.057 97.5433 138.006C97.3478 138.591 97.1958 139.19 97.0885 139.798C96.9913 140.237 96.9602 140.478 96.9447 140.478Z" fill="#263238"/>
<path d="M130.631 147.386C130.57 147.238 130.524 147.085 130.495 146.927C130.4 146.497 130.336 146.061 130.305 145.621C130.195 144.143 130.414 142.659 130.946 141.275L131.102 141.392C130.939 141.509 130.771 141.637 130.604 141.781C130.104 142.19 129.645 142.648 129.236 143.149L129.065 143.359V143.087C129.069 141.911 129.313 140.748 129.784 139.67C129.921 139.361 130.078 139.061 130.254 138.772C130.314 138.664 130.386 138.564 130.468 138.473C130.495 138.473 130.216 138.92 129.897 139.717C129.473 140.789 129.256 141.933 129.259 143.087L129.084 143.024C129.499 142.509 129.967 142.039 130.48 141.621C130.647 141.485 130.818 141.353 130.985 141.233L131.257 141.034L131.137 141.349C130.61 142.711 130.373 144.167 130.441 145.625C130.492 146.721 130.67 147.378 130.631 147.386Z" fill="#263238"/>
<path d="M103.763 146.807C103.734 146.657 103.721 146.505 103.724 146.352C103.715 145.935 103.729 145.517 103.767 145.101C103.899 143.679 104.27 142.29 104.863 140.992L105.011 141.112C104.649 141.378 104.31 141.673 103.996 141.995C103.678 142.319 103.387 142.67 103.129 143.044L102.947 143.313V142.99C102.949 141.563 103.253 140.152 103.837 138.85C104.009 138.471 104.207 138.103 104.428 137.75C104.5 137.61 104.59 137.479 104.696 137.361C104.723 137.381 104.362 137.909 103.957 138.885C103.42 140.179 103.144 141.566 103.145 142.967L102.962 142.912C103.223 142.522 103.52 142.158 103.849 141.824C104.168 141.492 104.517 141.188 104.89 140.918L105.201 140.696L105.042 141.042C104.444 142.319 104.05 143.682 103.876 145.081C103.81 145.606 103.786 146.03 103.771 146.321C103.783 146.483 103.781 146.646 103.763 146.807Z" fill="#263238"/>
</svg>
