<svg width="381" height="380" viewBox="0 0 381 380" fill="none" xmlns="http://www.w3.org/2000/svg">
<path d="M51.7422 42.1621V197.781C51.7422 263.141 108.125 322.276 191.449 353.4C274.777 322.276 331.156 263.141 331.156 197.781V42.1621H51.7422Z" fill="#95A5A6"/>
<path d="M51.7422 26.5996V182.219C51.7422 247.579 108.125 306.714 191.449 337.838C274.777 306.714 331.156 247.579 331.156 182.219V26.5996H51.7422Z" fill="#ECF0F1"/>
<path d="M51.7422 26.5996V182.219C51.7422 247.579 108.125 306.714 191.449 337.838V26.5996H51.7422Z" fill="#BDC3C7"/>
<path d="M82.7891 57.7236V182.219C82.7891 235.129 126.643 281.815 191.45 306.714C256.259 281.815 300.111 235.129 300.111 182.219V57.7236H82.7891Z" fill="#C0392B"/>
<path d="M191.449 57.7236V306.714C256.258 281.815 300.11 235.129 300.11 182.219V57.7236H191.449Z" fill="#E74C3C"/>
<path d="M147.305 121.527L125.477 143.314L169.624 188.444L125.477 232.016L147.305 253.804L191.449 210.229L235.597 253.804L257.422 232.016L213.275 188.444L257.422 144.87L235.1 121.527L191.449 166.657L147.305 121.527Z" fill="#C0392B"/>
<path d="M147.305 105.965L125.477 127.752L169.624 172.882L125.477 216.454L147.305 238.241L191.449 194.667L235.597 238.241L257.422 216.454L213.275 172.882L257.422 129.308L235.1 105.965L191.449 151.095L147.305 105.965Z" fill="#ECF0F1"/>
</svg>
