<svg width="347" height="324" viewBox="0 0 347 324" fill="none" xmlns="http://www.w3.org/2000/svg">
<path d="M44.615 235.71L32.4643 235.939L26.3153 236.037C24.2602 236.037 22.2215 236.037 20.1336 236.037H19.7733V235.669V225.328V224.951H20.1827L32.4234 225.008C36.5173 225.008 40.6111 225.099 44.705 225.139H44.9261V225.361C44.9261 227.113 44.8524 228.857 44.8197 230.584L44.615 235.71ZM44.615 235.71L44.4921 230.494C44.4921 228.775 44.4021 227.064 44.3857 225.369L44.615 225.59C40.5211 225.639 36.4272 225.721 32.3333 225.729L20.1336 225.77L20.543 225.361L20.502 235.702L20.1336 235.341C22.156 235.341 24.1701 235.341 26.1925 235.382L32.276 235.481L44.615 235.71Z" fill="#EBEBEB"/>
<path d="M30.9906 248.752L18.8482 248.982L12.691 249.08C10.6359 249.08 8.59712 249.08 6.50924 249.08H6.14898V248.711L6.09985 238.37V237.961H6.50924L18.709 238.051C22.8029 238.051 26.8967 238.149 30.9497 238.19H31.1708V238.411C31.1708 240.163 31.1052 241.907 31.0643 243.635L30.9906 248.752ZM30.9906 248.752L30.876 243.537C30.876 241.817 30.7859 240.106 30.7696 238.411L30.9906 238.632C26.8967 238.681 22.8029 238.763 18.7499 238.772L6.50924 238.821L6.91863 238.411L6.87769 248.752L6.50924 248.392C8.53162 248.392 10.5458 248.392 12.5682 248.433L18.6599 248.531L30.9906 248.752Z" fill="#EBEBEB"/>
<path d="M30.9907 24.9323L18.8155 25.1697L12.6583 25.2598C10.6032 25.2598 8.5644 25.2598 6.47653 25.3089H6.11626V24.9405L6.06714 14.5993V14.1899H6.47653L18.709 14.2309C22.8029 14.2309 26.8968 14.3291 30.9497 14.3701H31.1708V14.5911C31.1708 16.3433 31.1053 18.0873 31.0643 19.8149L30.9907 24.9323ZM30.9907 24.9323L30.876 19.7167C30.876 17.9972 30.786 16.286 30.7696 14.5911L30.9907 14.8122C26.8968 14.8122 22.8029 14.9432 18.75 14.9514L6.50927 15.0005L6.91866 14.5911L6.87772 24.9323L6.50927 24.572C8.53165 24.572 10.5458 24.572 12.5682 24.572L18.6599 24.6703L30.9907 24.9323Z" fill="#EBEBEB"/>
<path d="M340.439 24.9323L328.288 25.1697L322.139 25.2598C320.084 25.2598 318.046 25.2598 315.958 25.3089H315.597V24.9405V14.5993V14.1899H316.007L328.247 14.2391C332.341 14.2391 336.435 14.3373 340.488 14.3783H340.709V14.5993C340.709 16.3515 340.636 18.0955 340.603 19.8231L340.439 24.9323ZM340.439 24.9323L340.316 19.7167C340.316 17.9972 340.226 16.286 340.21 14.5911L340.439 14.8122C336.345 14.8122 332.251 14.9432 328.198 14.9514L315.925 15.0005L316.334 14.5911L316.293 24.9323L315.925 24.572C317.947 24.572 319.961 24.572 321.984 24.572L328.067 24.6703L340.439 24.9323Z" fill="#EBEBEB"/>
<path d="M326.781 37.975L314.639 38.2043L308.482 38.2943C306.426 38.2943 304.388 38.2943 302.3 38.3435H301.94V37.975L301.89 27.6257V27.2163H302.3L314.54 27.2654C318.634 27.2654 322.728 27.3637 326.781 27.4046H327.01V27.6257C327.01 29.3779 326.945 31.1219 326.904 32.8495L326.781 37.975ZM326.781 37.975L326.667 32.7594C326.626 31.0318 326.576 29.3287 326.56 27.6339L326.781 27.855C322.687 27.855 318.593 27.986 314.54 27.9941L302.3 28.0433L302.709 27.6339L302.668 37.975L302.3 37.6148C304.322 37.6148 306.336 37.6148 308.359 37.6148L314.45 37.713L326.781 37.975Z" fill="#EBEBEB"/>
<path d="M260.362 134.632L248.22 134.861L242.063 134.951C240.008 134.951 237.969 134.951 235.889 135H235.521V134.632L235.48 124.291V123.881H235.897L248.13 123.93C252.224 123.93 256.318 124.029 260.371 124.07H260.6V124.291C260.6 126.043 260.526 127.787 260.485 129.506L260.362 134.632ZM260.362 134.632L260.248 129.416C260.248 127.689 260.158 125.986 260.141 124.291L260.362 124.512C256.269 124.512 252.175 124.643 248.122 124.651L235.889 124.7L236.299 124.291L236.25 134.632L235.889 134.272C237.903 134.272 239.918 134.272 241.948 134.313L248.032 134.403L260.362 134.632Z" fill="#EBEBEB"/>
<path d="M246.713 147.675L234.563 147.905L228.414 147.995C226.358 148.036 224.32 147.995 222.232 148.044H221.872V147.675L221.822 137.342V136.933H222.232L234.472 136.982C238.566 136.982 242.66 137.08 246.754 137.121H246.975V137.342C246.975 139.095 246.901 140.839 246.869 142.558L246.713 147.675ZM246.713 147.675L246.59 142.46C246.59 140.732 246.5 139.029 246.484 137.334L246.713 137.555C242.619 137.596 238.525 137.686 234.432 137.695L222.191 137.744L222.6 137.334L222.584 147.675L222.224 147.315C224.246 147.315 226.26 147.315 228.283 147.315L234.366 147.405L246.713 147.675Z" fill="#EBEBEB"/>
<path d="M233.105 134.632L220.946 134.886L214.797 134.976C212.742 134.976 210.703 134.976 208.615 135.025H208.247V134.656L208.206 124.315V123.906H208.615L220.897 123.955C224.991 123.955 229.085 124.053 233.13 124.094H233.359V124.315C233.359 126.067 233.285 127.811 233.252 129.531L233.105 134.632ZM233.105 134.632L232.99 129.416C232.99 127.689 232.9 125.985 232.884 124.291L233.105 124.512C229.011 124.512 224.917 124.643 220.873 124.651L208.591 124.7L209 124.291L208.951 134.632L208.591 134.271C210.605 134.271 212.619 134.271 214.65 134.312L220.733 134.402L233.105 134.632Z" fill="#EBEBEB"/>
<path d="M340.439 248.752L328.288 248.982L322.139 249.08C320.084 249.08 318.046 249.08 315.958 249.08H315.597V248.711V238.37V237.961H316.007L328.207 238.051C332.3 238.051 336.394 238.149 340.447 238.19H340.668V238.411C340.668 240.163 340.595 241.907 340.562 243.635L340.439 248.752ZM340.439 248.752L340.316 243.537C340.316 241.817 340.226 240.106 340.21 238.411L340.439 238.632C336.345 238.681 332.251 238.763 328.198 238.772L315.958 238.821L316.367 238.411L316.326 248.752L315.958 248.392C317.98 248.392 319.994 248.392 322.017 248.433L328.1 248.531L340.439 248.752Z" fill="#EBEBEB"/>
<path d="M119.754 97.4021L107.611 97.6313L101.454 97.7214C99.3987 97.7214 97.36 97.7214 95.2803 97.7214H94.9119V97.3529V87.0118V86.5942H95.3294L107.562 86.6434C111.656 86.6434 115.75 86.7334 119.803 86.7744H120.032V86.9954C120.032 88.7394 119.966 90.4834 119.925 92.211L119.754 97.4021ZM119.754 97.4021L119.639 92.1783C119.598 90.4589 119.549 88.7558 119.532 87.0609L119.754 87.282C115.66 87.282 111.566 87.413 107.513 87.413L95.2803 87.4621L95.6815 87.0609V97.4021L95.3213 97.0336C97.3354 97.0336 99.3496 97.0336 101.372 97.0827L107.464 97.1728L119.754 97.4021Z" fill="#EBEBEB"/>
<path d="M6.83666 267.207H123.414L127.156 193.239H3.08667L6.83666 267.207Z" fill="#5C5D64"/>
<path d="M114.824 227.055H12.2401L10.8318 201.469H116.454L114.824 227.055ZM13.0179 226.237H114.055L115.594 202.288H11.6997L13.0179 226.237Z" fill="#DBDBDB"/>
<path d="M113.433 256.596H15.1805L14.0342 233.507H114.875L113.433 256.596ZM15.9992 255.778H112.664L114.007 234.326H14.9348L15.9992 255.778Z" fill="#DBDBDB"/>
<path d="M75.3027 217H53.6133L52.7946 210.9H76.056L75.3027 217ZM54.3339 216.182H74.5822L75.1553 211.719H53.7607L54.3339 216.182Z" fill="#DBDBDB"/>
<path d="M75.3027 248.107H53.6133L52.7946 242.007H76.056L75.3027 248.107ZM54.3339 247.288H74.5822L75.1553 242.826H53.7607L54.3339 247.288Z" fill="#DBDBDB"/>
<path d="M22.999 267.208L21.8691 275.265L19.5929 291.46H15.1388V267.208H22.999Z" fill="#858FB4"/>
<path d="M22.999 267.208L21.8691 275.265H15.1388V267.208H22.999Z" fill="#7681A4"/>
<path d="M107.243 267.208L108.373 275.265L110.649 291.46H115.103V267.208H107.243Z" fill="#EBEBEB"/>
<path d="M107.243 267.208L108.373 275.265H115.103V267.208H107.243Z" fill="#DBDBDB"/>
<path d="M336.893 171.788V104.673H288.438V171.788H336.893Z" fill="#8692B3"/>
<path d="M330.563 165.451V111.002H294.783V165.451H330.563Z" fill="#24364A"/>
<path d="M330.556 111.01H294.775V165.459H330.556V111.01Z" fill="#24364A"/>
<g opacity="0.2">
<path opacity="0.2" d="M325.971 165.459H314.729L294.776 145.505V134.264L325.971 165.459Z" fill="#EBEBEB"/>
<path opacity="0.2" d="M330.565 136.458L305.109 111.01H308.818L330.565 132.757V136.458Z" fill="#EBEBEB"/>
<path opacity="0.2" d="M330.564 120.852L320.723 111.01H321.951L330.564 119.616V120.852Z" fill="#EBEBEB"/>
<path opacity="0.2" d="M307.499 165.459H306.263L294.776 153.972V152.735L307.499 165.459Z" fill="#EBEBEB"/>
<path opacity="0.2" d="M330.564 144.212L297.354 111.01H298.591L330.564 142.983V144.212Z" fill="#EBEBEB"/>
</g>
<path d="M297.354 111.01H294.775V165.459H297.354V111.01Z" fill="#DBDBDB"/>
<path d="M339.472 104.673H336.893V171.788H339.472V104.673Z" fill="#DBDBDB"/>
<path d="M307.507 82.7786V15.6636L259.052 15.6636V82.7786H307.507Z" fill="#6B7489"/>
<path d="M301.17 76.449V22.0005L265.39 22.0005V76.449H301.17Z" fill="#24364A"/>
<g opacity="0.2">
<path opacity="0.2" d="M301.169 61.3354L265.389 25.5549V22.0015H273.077L301.169 50.0936V61.3354Z" fill="#EBEBEB"/>
<path opacity="0.2" d="M284.589 76.4488H273.339L265.389 68.4985V57.2485L284.589 76.4488Z" fill="#EBEBEB"/>
<path opacity="0.2" d="M301.17 29.0174L294.153 22.0005H297.846L301.17 25.3247V29.0174Z" fill="#EBEBEB"/>
<path opacity="0.2" d="M297.305 76.4491H296.069L265.389 45.7696V44.5332L297.305 76.4491Z" fill="#EBEBEB"/>
<path opacity="0.2" d="M301.17 46.359L276.811 22.0005H278.048L301.17 45.1227V46.359Z" fill="#EBEBEB"/>
</g>
<path d="M267.969 22.0005H265.39V76.449H267.969V22.0005Z" fill="#DBDBDB"/>
<path d="M310.086 15.6636H307.507V82.7786H310.086V15.6636Z" fill="#DBDBDB"/>
<path d="M4.27417 291.443L46.5721 291.246L88.87 291.173L173.458 291.042L258.045 291.173L300.343 291.246L342.641 291.443L300.343 291.647L258.045 291.721L173.458 291.852L88.87 291.721L46.5721 291.647L4.27417 291.443Z" fill="#0B1F35"/>
<path d="M334.364 220.856C324.727 233.915 314.713 249.071 312.257 265.446C312.257 265.692 312.625 265.774 312.683 265.528C313.794 261.067 315.22 256.689 316.949 252.428C323.286 250.684 329.509 249.251 332.833 242.955C336.231 236.486 335.797 228.061 335.15 221.012C335.076 220.602 334.56 220.586 334.364 220.856Z" fill="#EF3124" fill-opacity="0.95"/>
<path d="M317.006 252.273C321.337 242.554 326.897 232.794 333.963 224.803C334.012 224.746 334.086 224.803 334.045 224.877C329.419 230.567 325.898 236.765 322.467 243.078C325.66 239.803 329.157 236.929 332.186 233.499C332.243 233.433 332.333 233.499 332.276 233.597C329.279 237.199 325.996 241.113 322.082 243.774C321.034 245.717 319.975 247.658 318.906 249.596C319.168 249.448 319.438 249.317 319.724 249.186C319.773 249.186 319.814 249.235 319.765 249.252C319.47 249.407 319.176 249.563 318.865 249.694C318.357 250.611 317.857 251.536 317.333 252.453C317.202 252.658 316.916 252.478 317.006 252.273Z" fill="#0B1F35"/>
<path d="M320.232 248.883C322.811 247.438 325.275 245.796 327.601 243.971C327.658 243.922 327.757 244.012 327.691 244.061C325.434 246.013 322.962 247.703 320.322 249.096C320.216 249.121 320.109 248.949 320.232 248.883Z" fill="#0B1F35"/>
<path d="M311.11 262.99C311.119 263.031 311.141 263.067 311.173 263.092C311.205 263.118 311.245 263.132 311.286 263.132C311.327 263.132 311.367 263.118 311.399 263.092C311.431 263.067 311.454 263.031 311.462 262.99C311.511 257.595 311.462 252.174 311.544 246.762C312.928 243.97 315.892 242.431 317.955 240.212C319.44 238.581 320.731 236.784 321.803 234.857C324.285 230.252 325.803 225.191 326.266 219.98C326.831 214.249 324.628 195.179 322.213 195.843C320.952 196.186 316.866 205.611 315.785 208.73C314.035 213.871 312.753 219.16 311.954 224.532C309.98 237.232 310.144 250.217 311.11 262.99Z" fill="#EF3124" fill-opacity="0.95"/>
<path d="M311.07 239.687C311.364 232.867 312.904 225.973 314.345 219.357C315.892 212.226 317.702 205.512 321.37 199.158C321.375 199.143 321.384 199.13 321.395 199.119C321.406 199.108 321.419 199.099 321.434 199.094C321.449 199.089 321.464 199.087 321.48 199.088C321.496 199.09 321.511 199.095 321.524 199.103C321.538 199.111 321.549 199.121 321.558 199.134C321.567 199.147 321.573 199.162 321.575 199.177C321.578 199.193 321.577 199.209 321.572 199.224C321.568 199.239 321.56 199.253 321.55 199.264C319.113 204.215 317.227 209.418 315.925 214.78C316.171 214.404 316.465 214.035 316.744 213.675C316.85 213.528 317.08 213.675 316.981 213.814C316.656 214.398 316.272 214.946 315.835 215.452H315.794C314.525 220.544 313.624 225.76 312.846 230.959L313.018 230.755C313.059 230.755 313.125 230.755 313.1 230.82C313.076 230.886 312.896 231.164 312.789 231.336C312.396 233.972 312.036 236.609 311.667 239.221C316.367 235.2 320.379 230.468 322.647 224.638H322.688C320.469 230.689 316.957 236.101 311.594 239.737L311.299 241.841C311.299 241.988 311.045 241.947 311.045 241.841C311.045 241.218 311.045 240.596 311.102 239.974C311.069 239.971 311.037 239.956 311.013 239.932C310.989 239.909 310.974 239.878 310.97 239.844C310.966 239.81 310.974 239.776 310.992 239.748C311.01 239.719 311.038 239.698 311.07 239.687Z" fill="#0B1F35"/>
<path d="M313.28 229.863C316.875 224.508 320.232 219.3 322.86 213.373C322.86 213.307 322.999 213.373 322.975 213.43C320.756 219.309 317.661 225.278 313.46 230.002C313.378 230.076 313.215 229.945 313.28 229.863Z" fill="#0B1F35"/>
<path d="M318.054 212.029C319.544 209.393 321.108 206.838 322.508 204.153C322.508 204.079 322.655 204.153 322.622 204.218C321.473 207.018 320.018 209.681 318.283 212.16C318.266 212.191 318.237 212.213 318.203 212.222C318.169 212.232 318.133 212.227 318.103 212.21C318.072 212.192 318.05 212.163 318.041 212.13C318.032 212.096 318.036 212.06 318.054 212.029Z" fill="#0B1F35"/>
<path d="M307.459 247.392C307.39 250.973 306.967 254.539 306.198 258.037L306.37 259.199C307.466 255.341 308.104 251.367 308.269 247.36C308.3 247.303 308.316 247.24 308.316 247.175C308.316 247.111 308.3 247.048 308.269 246.991C308.419 241.615 308.019 236.238 307.074 230.943C305.436 221.036 301.76 211.53 294.849 204.096C294.791 204.047 294.723 204.012 294.649 203.994C294.576 203.975 294.499 203.974 294.425 203.99C294.35 204.006 294.281 204.038 294.221 204.085C294.161 204.132 294.113 204.191 294.08 204.259C291.296 211.35 292.27 219.816 294.645 226.882C295.935 230.714 297.781 234.336 300.122 237.633C302.513 240.932 305.534 243.782 307.459 247.392Z" fill="#EF3124" fill-opacity="0.95"/>
<path d="M295.676 207.387C302.227 218.031 306.787 230.616 307.344 243.176C307.344 243.397 306.984 243.454 306.951 243.233C306.795 242.103 306.623 240.982 306.443 239.868C303.733 237.272 300.958 234.53 299.017 231.287C299.007 231.275 299.003 231.26 299.004 231.245C299.006 231.229 299.013 231.215 299.025 231.205C299.037 231.196 299.053 231.191 299.068 231.192C299.083 231.194 299.097 231.202 299.107 231.214C301.357 233.974 303.768 236.599 306.329 239.074C305.854 236.298 305.305 233.563 304.642 230.886L304.126 230.28C304.012 230.149 304.2 229.953 304.323 230.084C304.446 230.215 304.421 230.206 304.478 230.264C303.553 226.575 302.41 222.944 301.056 219.39C299.418 217.401 297.519 215.681 296.307 213.282C296.307 213.225 296.356 213.184 296.397 213.233C297.371 214.601 298.313 215.984 299.418 217.253C299.86 217.761 300.352 218.236 300.802 218.727C299.296 214.87 297.509 211.129 295.455 207.535C295.438 207.521 295.425 207.503 295.416 207.483C295.407 207.463 295.403 207.442 295.404 207.42C295.405 207.398 295.411 207.377 295.422 207.358C295.432 207.339 295.447 207.323 295.466 207.31C295.484 207.298 295.505 207.291 295.526 207.288C295.548 207.285 295.57 207.288 295.59 207.295C295.611 207.303 295.629 207.315 295.644 207.331C295.659 207.347 295.67 207.366 295.676 207.387Z" fill="#0B1F35"/>
<path d="M297.003 220.496C299.123 223.345 301.531 226.064 303.504 229.011C303.561 229.093 303.438 229.183 303.365 229.118C300.835 226.743 298.698 223.501 296.864 220.578C296.806 220.488 296.945 220.414 297.003 220.496Z" fill="#0B1F35"/>
<path d="M303.799 229.675L303.889 229.765C303.954 229.822 303.889 229.92 303.791 229.855L303.701 229.765C303.643 229.707 303.733 229.609 303.799 229.675Z" fill="#0B1F35"/>
<path d="M285.417 227.824C286.19 233.76 288.581 239.368 292.328 244.036C293.87 245.871 295.781 247.36 297.936 248.408C300.393 249.612 302.906 250.996 305.412 251.978C306.606 255.018 307.495 258.17 308.065 261.386C308.147 261.116 308.228 260.829 308.302 260.567C306.665 246.714 297.732 234.882 286.269 227.284C286.18 227.227 286.076 227.197 285.97 227.197C285.864 227.197 285.761 227.227 285.671 227.283C285.582 227.34 285.511 227.421 285.466 227.517C285.421 227.613 285.404 227.719 285.417 227.824Z" fill="#EF3124" fill-opacity="0.95"/>
<path d="M289.38 231.91C289.298 231.844 289.38 231.697 289.495 231.763C295.795 236.45 300.817 242.643 304.102 249.776C304.184 249.964 303.922 250.128 303.815 249.939C303.283 249.006 302.735 248.097 302.178 247.205C299.558 246.705 297.085 244.871 295.144 243.111C295.087 243.062 295.144 242.988 295.218 243.037C296.21 243.944 297.31 244.725 298.493 245.362C299.566 245.903 300.712 246.238 301.826 246.672C300.851 245.133 299.844 243.659 298.788 242.226C295.964 241.152 293.315 239.665 290.928 237.813C290.854 237.756 290.928 237.633 291.001 237.682C293.363 239.117 295.801 240.42 298.305 241.588C296.707 239.483 294.985 237.476 293.147 235.578C292.254 235.103 291.354 234.636 290.494 234.129C290.481 234.119 290.472 234.105 290.467 234.089C290.463 234.073 290.465 234.056 290.471 234.041C290.478 234.026 290.489 234.013 290.504 234.006C290.518 233.998 290.535 233.995 290.551 233.998C291.265 234.249 291.947 234.584 292.582 234.997C291.583 233.957 290.543 232.917 289.38 231.91Z" fill="#0B1F35"/>
<path d="M289.618 236.692C289.775 236.784 289.923 236.891 290.06 237.011C290.06 237.011 290.06 237.101 290.011 237.076C289.847 237.008 289.691 236.923 289.544 236.823C289.471 236.765 289.544 236.642 289.618 236.692Z" fill="#0B1F35"/>
<path d="M326.192 291.377H294.784L297.322 262.777L297.879 256.464H323.097L323.654 262.777L326.192 291.377Z" fill="#455A64"/>
<path d="M323.654 262.777H297.323L297.879 256.464H323.098L323.654 262.777Z" fill="#0B1F35"/>
<path d="M324.596 252.06H296.373V258.299H324.596V252.06Z" fill="#455A64"/>
<path d="M173.458 323.031C208.684 323.031 237.24 318.288 237.24 312.436C237.24 306.585 208.684 301.841 173.458 301.841C138.232 301.841 109.675 306.585 109.675 312.436C109.675 318.288 138.232 323.031 173.458 323.031Z" fill="#49546B"/>
<path d="M111.231 212.496C111.231 212.496 116.144 183.839 118.174 178.181C119.599 174.276 125.429 164.426 129.596 157.122C130.415 155.648 135.803 152.079 138.382 150.711C141.853 148.877 148.395 151.833 148.87 159.382C149.067 162.518 143.728 166.096 142.238 169.396C140.142 174.03 140.003 180.04 139.831 181.022C139.536 182.66 151.105 195.482 150.598 200.362C150.09 205.242 136.679 221.986 133.772 222.952C130.865 223.918 111.321 217.22 111.231 212.496Z" fill="#FF5C5C" fill-opacity="0.95"/>
<path d="M135.066 163.107C137.678 165.032 141.853 166.178 144.072 166.702C146.176 164.205 148.985 161.683 148.846 159.382C148.371 151.833 141.837 148.877 138.365 150.711C135.95 152.044 133.642 153.564 131.463 155.255C131.463 155.255 131.348 160.373 135.066 163.107Z" fill="#EBEBEB"/>
<path d="M145.906 152.513C145.955 152.513 146.013 152.562 145.972 152.603C144.809 153.692 143.687 154.839 142.631 156.042C141.583 157.041 140.89 158.355 140.658 159.784C140.653 159.798 140.644 159.811 140.631 159.82C140.619 159.829 140.604 159.833 140.588 159.833C140.573 159.833 140.558 159.829 140.546 159.82C140.533 159.811 140.524 159.798 140.519 159.784C140.473 158.295 140.906 156.832 141.755 155.608C142.795 154.159 144.383 153.348 145.906 152.513Z" fill="#0B1F35"/>
<path d="M142.345 149.876C142.35 149.872 142.356 149.869 142.363 149.867C142.369 149.865 142.376 149.864 142.383 149.865C142.39 149.866 142.397 149.868 142.403 149.871C142.409 149.875 142.414 149.879 142.418 149.884C142.423 149.89 142.426 149.896 142.428 149.903C142.43 149.909 142.43 149.916 142.429 149.923C142.429 149.93 142.427 149.936 142.423 149.942C142.42 149.948 142.415 149.954 142.41 149.958C141.329 151.051 140.317 152.21 139.381 153.43C138.562 154.453 137.145 155.96 137.743 157.368C137.841 157.614 137.743 157.638 137.555 157.425C136.67 156.099 137.555 154.404 138.373 153.274C139.422 151.855 140.78 150.693 142.345 149.876Z" fill="#0B1F35"/>
<path opacity="0.1" d="M133.797 222.952C136.703 221.985 150.107 205.241 150.614 200.362C150.999 196.636 144.351 188.301 141.313 183.822L116.152 186.279C113.925 196.726 111.24 212.479 111.24 212.479C111.321 217.22 130.882 223.909 133.797 222.952Z" fill="black"/>
<path d="M64.0207 222.887C64.0207 222.887 39.5966 220.701 38.7287 222.445C38.1556 223.583 43.5431 238.132 46.6053 242.955C49.6675 247.777 69.3427 266.323 74.5419 270.408L64.0207 222.887Z" fill="#FF5C5C" fill-opacity="0.95"/>
<path opacity="0.1" d="M54.0646 242.767C56.1443 246.042 65.7731 255.196 72.4461 260.927L64.5613 225.351C58.4533 224.533 45.9178 223.059 45.3938 224.254C44.9107 225.286 51.1252 238.141 54.0646 242.767Z" fill="black"/>
<path d="M87.4871 196.244C87.4871 195.638 82.0913 177.969 90.0826 166.973C91.5564 164.934 118.445 189.849 118.445 189.849L87.4871 196.244Z" fill="#FF5C5C" fill-opacity="0.95"/>
<path opacity="0.1" d="M92.5548 195.187L117.356 190.07C114.768 187.679 95.8299 170.305 94.7082 171.836C88.7148 180.089 92.0472 193.017 92.5548 195.187Z" fill="black"/>
<path d="M161.922 222.731C161.922 222.731 153.218 199.584 138.177 188.408C136.302 187.024 100.072 188.26 92.8664 190.045C90.8195 190.553 67.1569 212.054 60.402 225.924C59.2393 228.225 64.7251 253.681 73.5679 268.852C75.754 272.611 115.039 306.451 140.707 312.174C145.555 313.255 206.914 311.355 221.652 301.153C236.389 290.951 262.099 254.065 263.671 243.757C265.243 233.449 228.562 202.278 216.092 202.278C203.622 202.278 161.922 222.731 161.922 222.731Z" fill="#FF5C5C" fill-opacity="0.95"/>
<path d="M106.245 195.098C109.201 190.652 115.121 191.364 120.312 194.811C124.504 197.603 127.042 203.089 124.209 207.355C121.376 211.621 114.58 210.909 110.634 208.288C106.687 205.668 103.044 199.921 106.245 195.098Z" fill="#0B1F35"/>
<path d="M107.047 196.243C109.823 192.067 115.391 192.739 120.27 195.973C124.217 198.601 126.6 203.759 123.93 207.771C121.261 211.783 114.924 211.112 111.174 208.647C107.424 206.183 104.034 200.779 107.047 196.243Z" fill="white"/>
<path d="M111.051 197.93C113.221 194.655 117.601 195.187 121.401 197.725C124.487 199.78 126.354 203.817 124.266 206.953C122.178 210.089 117.184 209.573 114.277 207.641C111.371 205.708 108.685 201.459 111.051 197.93Z" fill="#0B1F35"/>
<path d="M107.956 199.077C108.947 197.595 110.929 197.832 112.656 198.987C114.064 199.912 114.908 201.746 113.958 203.179C113.008 204.612 110.74 204.366 109.43 203.49C108.12 202.614 106.851 200.69 107.956 199.077Z" fill="white"/>
<path d="M86.3979 226.137C81.2969 230.853 82.3531 237.133 86.5862 241.694C87.5449 242.687 88.6913 243.48 89.9588 244.026C91.2264 244.573 92.5898 244.862 93.9701 244.877C95.3503 244.892 96.7198 244.633 97.9991 244.115C99.2784 243.597 100.442 242.829 101.422 241.858C106.335 237.33 105.23 230.084 102.012 226.612C101.026 225.543 99.8359 224.681 98.5125 224.078C97.1891 223.474 95.7586 223.14 94.3046 223.096C92.8507 223.052 91.4025 223.298 90.0449 223.82C88.6872 224.342 87.4474 225.13 86.3979 226.137Z" fill="#0B1F35"/>
<path d="M87.7739 226.637C82.9841 231.075 83.9748 236.978 87.9458 241.277C88.8489 242.203 89.9259 242.941 91.1149 243.45C92.3039 243.958 93.5817 244.227 94.8748 244.241C96.168 244.255 97.4512 244.013 98.6507 243.529C99.8502 243.046 100.943 242.331 101.865 241.424C106.467 237.167 105.443 230.363 102.422 227.096C101.495 226.097 100.378 225.291 99.1374 224.727C97.8967 224.162 96.5561 223.849 95.1936 223.807C93.8311 223.764 92.4737 223.992 91.2 224.478C89.9264 224.964 88.7618 225.698 87.7739 226.637Z" fill="white"/>
<path d="M91.5807 228.495C87.8225 231.967 88.6004 236.585 91.7117 239.958C92.4172 240.69 93.2613 241.274 94.1948 241.677C95.1282 242.079 96.1324 242.292 97.1489 242.303C98.1654 242.313 99.1739 242.122 100.116 241.739C101.057 241.356 101.913 240.789 102.634 240.073C106.229 236.74 105.434 231.418 103.068 228.855C102.343 228.069 101.468 227.435 100.494 226.991C99.5213 226.546 98.4693 226.3 97.4 226.267C96.3306 226.233 95.2653 226.413 94.2662 226.796C93.2671 227.178 92.3541 227.756 91.5807 228.495Z" fill="#0B1F35"/>
<path d="M87.3311 230.804C85.628 232.376 85.9801 234.472 87.3884 236.003C87.7096 236.335 88.0933 236.599 88.5174 236.781C88.9415 236.963 89.3975 237.06 89.859 237.064C90.3206 237.069 90.7784 236.982 91.206 236.808C91.6336 236.634 92.0225 236.378 92.3502 236.052C93.0256 235.388 93.4221 234.492 93.4586 233.545C93.4951 232.599 93.169 231.674 92.5467 230.96C92.2166 230.603 91.8189 230.317 91.3767 230.116C90.9346 229.915 90.4569 229.804 89.9715 229.789C89.4861 229.775 89.0026 229.857 88.5493 230.031C88.096 230.206 87.6819 230.468 87.3311 230.804Z" fill="white"/>
<path d="M107.08 218.825C107.588 219.12 111.379 217.613 111.616 217.294C111.854 216.974 112.255 212.864 111.846 212.438C111.436 212.013 109.332 214.494 108.841 215.157C108.35 215.82 106.581 218.547 107.08 218.825Z" fill="#0B1F35"/>
<path d="M116.684 212.824C117.007 213.759 117.28 214.71 117.503 215.674C117.615 216.132 117.672 216.602 117.675 217.074C117.684 217.252 117.638 217.429 117.544 217.581C117.422 217.695 117.272 217.774 117.11 217.811C116.677 217.889 116.233 217.889 115.8 217.811C115.33 217.741 114.865 217.64 114.408 217.508C113.478 217.244 112.567 216.919 111.681 216.533L110.044 215.829L111.035 217.295C111.696 218.273 112.274 219.306 112.762 220.382C113.003 220.909 113.195 221.457 113.335 222.019C113.483 222.522 113.483 223.056 113.335 223.558L113.253 223.714L113.163 223.853C113.073 223.943 112.983 224.033 112.885 224.115C112.672 224.29 112.435 224.433 112.181 224.541C111.656 224.76 111.106 224.911 110.543 224.991C109.347 225.157 108.137 225.195 106.932 225.106C108.131 225.39 109.362 225.511 110.592 225.466C111.225 225.443 111.85 225.33 112.451 225.13C113.14 224.948 113.728 224.5 114.089 223.886C114.358 223.241 114.418 222.528 114.261 221.847C114.13 221.226 113.938 220.62 113.687 220.038C113.203 218.894 112.613 217.798 111.927 216.763L111.297 217.524C112.237 217.919 113.206 218.242 114.195 218.49C114.699 218.61 115.21 218.692 115.726 218.736C116.277 218.799 116.835 218.746 117.364 218.58C117.691 218.487 117.979 218.289 118.182 218.015C118.339 217.734 118.402 217.41 118.363 217.09C118.312 216.572 118.194 216.063 118.011 215.575C117.654 214.619 117.21 213.698 116.684 212.824Z" fill="#0B1F35"/>
<path d="M124.962 195.94C126.6 193.517 128.298 191.142 130.055 188.817C131.816 186.5 133.6 184.191 135.492 181.972C136.409 180.842 137.367 179.745 138.317 178.64C139.266 177.534 140.257 176.462 141.248 175.365C143.205 173.203 145.276 171.148 147.331 169.06C146.226 170.026 145.112 170.976 144.056 171.975C143 172.974 141.944 173.997 140.929 175.053C138.873 177.133 136.941 179.336 135.05 181.604C133.158 183.872 131.39 186.172 129.695 188.563C128.854 189.759 128.036 190.968 127.239 192.19C126.444 193.419 125.667 194.655 124.962 195.94Z" fill="#0B1F35"/>
<path d="M127.026 196.055C127.894 195.064 128.753 194.065 129.638 193.091C130.522 192.117 131.39 191.134 132.282 190.168C134.067 188.236 135.86 186.312 137.719 184.437C138.62 183.487 139.561 182.562 140.486 181.636L143.336 178.902L144.769 177.551L146.226 176.224C147.176 175.316 148.199 174.489 149.165 173.588C147.053 175.16 144.99 176.814 143.025 178.574C141.059 180.335 139.152 182.152 137.293 184.027C135.434 185.902 133.658 187.843 131.946 189.849C130.235 191.855 128.565 193.918 127.026 196.055Z" fill="#0B1F35"/>
<path d="M127.861 197.668C128.679 196.931 129.498 196.194 130.317 195.474C131.136 194.753 131.954 194.016 132.773 193.312C134.411 191.888 136.106 190.463 137.809 189.087C139.512 187.712 141.207 186.32 142.926 184.993C144.645 183.667 146.398 182.308 148.125 180.949C147.192 181.53 146.267 182.128 145.35 182.734C144.433 183.34 143.54 183.978 142.656 184.625C140.863 185.902 139.135 187.27 137.432 188.653C135.729 190.037 134.075 191.495 132.478 193.001C130.882 194.508 129.318 196.022 127.861 197.668Z" fill="#0B1F35"/>
<path d="M91.1062 250.905C89.8535 252.215 88.6499 253.599 87.5036 254.999C86.3574 256.399 85.2193 257.815 84.1139 259.256C81.9032 262.13 79.8153 265.111 77.8175 268.14C75.8197 271.169 73.9529 274.281 72.2171 277.474C71.341 279.054 70.5141 280.675 69.6953 282.297C69.2859 283.115 68.8765 283.934 68.5326 284.753L67.4027 287.209C69.0976 284 70.7679 280.79 72.6183 277.679C73.519 276.107 74.4524 274.559 75.3858 273.012C76.3192 271.464 77.3017 269.941 78.3088 268.443C80.2575 265.397 82.3454 262.433 84.4742 259.51C86.603 256.587 88.7973 253.697 91.1062 250.905Z" fill="#0B1F35"/>
<path d="M91.9988 253.312C90.0419 255.933 88.2324 258.659 86.4884 261.427C84.7444 264.194 83.1233 267.035 81.5758 269.901C80.0283 272.767 78.4808 275.714 77.1462 278.67C75.8116 281.626 74.5425 284.672 73.4208 287.742C74.1167 286.26 74.7226 284.745 75.4513 283.28L76.4748 281.061L77.5556 278.866C78.2679 277.401 79.013 275.943 79.7499 274.494C80.4868 273.045 81.2646 271.604 82.0589 270.179C83.59 267.297 85.2193 264.448 86.8733 261.664C87.6975 260.256 88.5408 258.856 89.4033 257.464C90.2466 256.064 91.1227 254.688 91.9988 253.312Z" fill="#0B1F35"/>
<path d="M94.2095 253.713C92.8094 256.063 91.5812 258.52 90.3776 260.976C89.174 263.432 88.1014 265.929 87.0452 268.443C85.989 270.957 85.031 273.511 84.1549 276.09C83.7046 277.376 83.2952 278.678 82.8694 279.972C82.4437 281.265 82.0998 282.583 81.7313 283.902C82.6893 281.347 83.5981 278.784 84.5807 276.246C85.5632 273.708 86.5375 271.178 87.5856 268.664C88.6336 266.151 89.698 263.653 90.787 261.164C91.3328 259.92 91.895 258.681 92.4736 257.447C93.0304 256.17 93.6199 254.942 94.2095 253.713Z" fill="#0B1F35"/>
<path opacity="0.1" d="M115.014 238.05C116.423 237.314 117.847 236.683 119.239 236.044C119.927 235.701 120.639 235.414 121.294 235.054C121.921 234.748 122.514 234.378 123.063 233.948C123.519 233.477 123.877 232.921 124.119 232.311C124.447 231.648 124.692 230.935 124.938 230.223C125.47 228.79 125.978 227.324 126.575 225.859C126.629 227.445 126.488 229.031 126.158 230.583C125.997 231.373 125.778 232.151 125.503 232.909C125.227 233.765 124.75 234.543 124.111 235.177C123.445 235.719 122.699 236.155 121.9 236.47C119.69 237.373 117.348 237.913 114.965 238.067L115.014 238.05Z" fill="black"/>
<path d="M262.64 247.253C270.279 231.631 278.802 208.362 271.327 190.529C263.851 172.696 223.469 143.073 217.23 125.313C210.991 107.554 217.394 98.4984 211.777 97.4749C208.903 96.9345 202.689 112.131 205.727 127.074C209.878 147.461 251.463 184.715 256.491 196.375C261.518 208.034 256.212 217.95 249.506 228.151L262.64 247.253Z" fill="#FF5C5C" fill-opacity="0.95"/>
<path d="M184.709 193.222C184.264 193.197 183.831 193.069 183.444 192.848C183.057 192.628 182.727 192.321 182.478 191.951C182.23 191.582 182.071 191.159 182.013 190.718C181.955 190.276 182.001 189.827 182.146 189.406C182.187 189.283 186.33 177.206 186.616 157.277C186.788 145.34 180.516 140.362 173.884 135.089C167.727 130.176 161.357 125.141 161.848 114.84C162.241 106.612 168.12 102.796 173.311 99.4392C178.502 96.0822 183.21 93.02 184.258 85.9212C186.559 70.5119 172.738 56.0851 172.64 55.9459C172.146 55.3961 171.884 54.6768 171.907 53.9382C171.931 53.1996 172.24 52.4987 172.768 51.982C173.296 51.4653 174.004 51.1726 174.743 51.1652C175.482 51.1577 176.195 51.4361 176.734 51.9421C177.381 52.6135 192.659 68.5223 189.949 86.7646C188.508 96.4179 181.818 100.757 176.447 104.245C171.076 107.733 167.834 110.075 167.596 115.119C167.244 122.488 171.764 126.066 177.471 130.602C184.209 135.948 192.585 142.605 192.372 157.359C192.069 178.312 187.754 190.79 187.574 191.306C187.367 191.891 186.976 192.394 186.459 192.739C185.943 193.085 185.329 193.254 184.709 193.222Z" fill="#455A64"/>
<path d="M176.798 281.609C180.998 281.609 182.186 278.776 182.186 278.776C182.186 278.776 184.216 282.051 187.647 281.027C191.078 280.004 190.676 275.812 190.676 275.812C190.676 275.812 192.723 278.563 196.408 276.753C199.38 275.304 197.816 270.826 197.816 270.826C198.715 271.674 199.874 272.193 201.106 272.297C202.337 272.401 203.567 272.084 204.596 271.399C206.233 270.424 206.037 267.305 206.307 267.141C215.403 260.157 233.826 245.476 224.885 209.229C218.089 181.677 191.495 173.031 168.389 174.186C168.037 174.186 167.849 172.311 165.352 172.311C164.745 172.253 164.135 172.373 163.595 172.656C163.056 172.94 162.61 173.375 162.314 173.907C161.812 173.328 161.127 172.939 160.372 172.806C159.617 172.674 158.84 172.805 158.171 173.178C157.441 173.521 156.85 174.102 156.493 174.825C156.136 175.547 156.035 176.37 156.206 177.158C155.289 176.666 153.815 174.325 150.475 175.635C147.134 176.945 147.74 180.547 147.74 180.547C147.019 180.032 146.161 179.744 145.275 179.721C144.389 179.697 143.517 179.94 142.77 180.416C142.041 180.842 141.845 183.929 141.517 184.453C137.497 179.778 135.229 185.165 136.162 186.827C137.423 189.079 134.287 190.504 133.706 191.093C119.484 205.242 115.349 234.947 125.838 253.762C139.225 277.785 160.66 279.963 172.426 279.341C172.352 279.316 173.458 281.609 176.798 281.609Z" fill="#455A64"/>
<path d="M190.014 266.315C176.455 259.371 168.014 244.666 163.068 230.763C157.828 215.976 156.444 200.096 159.048 184.625C159.245 183.463 157.468 182.988 157.271 184.134C154.494 200.446 156.064 217.201 161.824 232.712C167.015 246.549 175.522 260.952 189.081 267.919C190.137 268.452 191.07 266.855 190.014 266.315Z" fill="#37474F"/>
<path d="M173.966 271.055C162.834 261.036 154.22 248.533 148.824 234.562C143.429 220.59 141.402 205.544 142.91 190.643C143.033 189.464 141.182 189.472 141.068 190.643C139.553 205.785 141.621 221.071 147.106 235.266C152.59 249.461 161.337 262.167 172.64 272.357C173.54 273.151 174.842 271.849 173.966 271.055Z" fill="#37474F"/>
<path d="M206.438 267.526C221.176 258.921 226.089 241.784 226.261 225.548C226.268 225.386 226.226 225.225 226.142 225.087C226.057 224.948 225.933 224.838 225.786 224.77C226.294 223.939 226.709 223.055 227.022 222.133C227.407 221.012 225.63 220.496 225.246 221.642C224.454 224.101 222.799 226.191 220.587 227.524C218.374 228.858 215.754 229.345 213.21 228.897C213.161 228.893 213.111 228.893 213.062 228.897C213.325 227.571 213.513 226.231 213.627 224.885C213.7 224.898 213.775 224.898 213.848 224.885C216.544 224.774 219.147 223.87 221.331 222.287C223.516 220.704 225.185 218.512 226.13 215.984C226.177 215.872 226.197 215.751 226.187 215.63C226.178 215.509 226.141 215.391 226.078 215.287C226.015 215.184 225.928 215.096 225.824 215.032C225.721 214.969 225.604 214.93 225.483 214.92C225.472 214.841 225.45 214.764 225.417 214.691C225.406 214.668 225.392 214.646 225.377 214.625C225.489 214.524 225.574 214.395 225.624 214.252C225.674 214.109 225.687 213.956 225.663 213.807C222.585 195.474 208.362 185.747 191.831 180.638L192.134 180.458C192.239 180.397 192.33 180.316 192.403 180.22C192.476 180.124 192.53 180.015 192.56 179.898C192.591 179.781 192.599 179.66 192.582 179.54C192.566 179.421 192.527 179.305 192.466 179.201C192.405 179.097 192.324 179.005 192.228 178.932C192.132 178.859 192.023 178.806 191.906 178.775C191.789 178.744 191.668 178.737 191.548 178.753C191.429 178.769 191.313 178.809 191.209 178.869C190.505 179.262 189.817 179.688 189.121 180.098L189.023 180.163C181.709 184.588 175.088 190.067 169.372 196.424C169.191 196.522 169.047 196.678 168.963 196.866C167.768 198.209 166.597 199.576 165.483 201.001C165.434 199.314 165.434 197.619 165.483 195.924C165.631 195.921 165.775 195.881 165.904 195.808C166.032 195.735 166.141 195.632 166.22 195.507C171.498 187.667 178.836 181.434 187.426 177.494C188.507 176.994 187.574 175.406 186.501 175.856C178.183 179.69 171.001 185.614 165.655 193.051C166.046 188.271 166.912 183.542 168.242 178.935C168.284 178.707 168.24 178.472 168.117 178.276C167.994 178.08 167.802 177.937 167.579 177.875C167.356 177.813 167.118 177.838 166.912 177.943C166.706 178.048 166.547 178.227 166.466 178.444C156.845 211.948 171.992 246.058 199.61 265.963C200.576 266.658 201.493 265.062 200.543 264.374L200.207 264.12C207.051 261.267 212.838 256.355 216.765 250.066C220.693 243.777 222.566 236.421 222.126 229.019C222.12 228.866 222.075 228.717 221.995 228.585C222.874 227.999 223.675 227.303 224.378 226.514C223.985 242.071 219.154 258.364 204.588 266.298C204.477 266.357 204.38 266.438 204.301 266.536L202.664 266.241C201.501 266.028 201.026 267.805 202.172 268.018L205.284 268.591C205.434 268.618 205.588 268.61 205.734 268.568C205.88 268.526 206.015 268.45 206.127 268.347C206.239 268.243 206.325 268.116 206.379 267.973C206.433 267.831 206.453 267.678 206.438 267.526ZM189.694 181.964C205.251 186.451 218.9 194.786 223.149 210.818C214.765 197.57 200.486 185.436 184.462 185.387C186.157 184.142 187.909 183.012 189.694 181.923V181.964ZM181.908 187.286C198.087 186.017 212.587 197.93 221.16 211.096C215.784 204.74 209.074 199.645 201.508 196.173C193.942 192.7 185.705 190.936 177.38 191.004C178.837 189.743 180.36 188.474 181.908 187.286ZM172.017 196.178C173.131 194.999 174.285 193.869 175.456 192.764C175.589 192.836 175.739 192.87 175.89 192.862C185.247 192.535 194.533 194.602 202.868 198.868C211.203 203.133 218.31 209.456 223.518 217.237C223.436 217.376 223.362 217.524 223.272 217.663C216.863 210.496 208.937 204.849 200.071 201.131C191.204 197.413 181.621 195.718 172.017 196.17V196.178ZM165.778 206.118L168.382 206.036C169.569 205.995 169.569 204.153 168.382 204.194L165.639 204.284C165.639 203.932 165.573 203.58 165.557 203.228C165.705 203.228 165.851 203.194 165.984 203.127C166.116 203.06 166.231 202.963 166.318 202.843C167.571 201.206 168.897 199.642 170.257 198.111C179.939 197.379 189.66 198.896 198.66 202.543C207.659 206.191 215.693 211.87 222.134 219.137C221.499 219.84 220.781 220.464 219.997 220.995C219.958 220.914 219.902 220.841 219.833 220.783C206.386 209.513 189.249 203.609 171.714 204.202C170.527 204.202 170.527 206.086 171.714 206.045C188.68 205.444 205.275 211.1 218.343 221.937C217.354 222.394 216.308 222.714 215.232 222.887C215.207 222.77 215.159 222.66 215.09 222.563C215.021 222.465 214.933 222.383 214.831 222.322C200.403 212.947 183.344 208.457 166.171 209.516C166.015 208.394 165.884 207.265 165.778 206.118ZM208.068 237.371C207.424 238.535 206.702 239.654 205.906 240.72C199.616 237.694 194.074 233.312 189.678 227.889C189.657 227.76 189.603 227.639 189.522 227.537C189.44 227.435 189.333 227.356 189.211 227.308C185.604 222.71 182.888 217.479 181.204 211.882C182.145 212.005 183.079 212.136 184.012 212.292C184.012 212.292 184.012 212.292 184.012 212.333C189.016 223.128 197.483 231.944 208.068 237.379V237.371ZM203.483 232.458C206.224 232.288 208.853 231.311 211.04 229.65C210.546 231.742 209.832 233.775 208.911 235.717C207.037 234.748 205.224 233.666 203.483 232.475V232.458ZM202.803 243.782C199.957 245.092 196.827 245.665 193.701 245.446C190.576 245.227 187.556 244.224 184.921 242.529C185.513 241.506 186.243 240.569 187.091 239.745C189.104 241.49 191.613 242.562 194.266 242.81C196.919 243.058 199.584 242.471 201.886 241.129C202.009 241.064 202.113 240.968 202.189 240.851C203.008 241.317 203.876 241.768 204.735 242.193C204.285 242.726 203.802 243.233 203.319 243.716C203.144 243.69 202.965 243.713 202.803 243.782ZM188.507 238.534C190.276 237.256 192.321 236.415 194.476 236.077C194.659 236.046 194.827 235.954 194.951 235.815C196.686 237.259 198.519 238.58 200.437 239.77C198.549 240.766 196.409 241.181 194.286 240.962C192.163 240.744 190.152 239.901 188.507 238.542V238.534ZM189.49 217.704C189.394 217.741 189.306 217.794 189.228 217.859C188.14 216.198 187.148 214.476 186.255 212.701C188.09 213.061 189.899 213.52 191.7 214.011C191.788 214.785 191.62 215.567 191.22 216.235C190.821 216.904 190.213 217.423 189.49 217.712V217.704ZM193.584 214.527C196.156 215.297 198.686 216.199 201.165 217.229C200.862 218.949 200.077 220.549 198.902 221.841C197.726 223.134 196.209 224.067 194.525 224.533C194.484 224.549 194.446 224.571 194.41 224.598C192.912 222.946 191.523 221.198 190.251 219.366C191.208 218.964 192.029 218.294 192.616 217.437C193.203 216.581 193.53 215.573 193.559 214.535L193.584 214.527ZM195.802 226.064C197.579 225.432 199.165 224.356 200.408 222.939C201.652 221.521 202.513 219.81 202.909 217.966C204.031 218.465 205.136 218.998 206.234 219.546C206.234 219.546 206.234 219.595 206.234 219.628C205.794 221.694 204.743 223.58 203.217 225.04C201.691 226.5 199.761 227.468 197.677 227.816C197.011 227.259 196.378 226.678 195.778 226.072L195.802 226.064ZM166.498 211.326C169.004 211.186 171.501 211.178 173.982 211.268C171.239 212.933 169.16 215.501 168.103 218.531C167.432 216.181 166.908 213.782 166.474 211.35L166.498 211.326ZM168.816 220.971C168.976 220.944 169.125 220.869 169.243 220.757C169.362 220.645 169.444 220.5 169.479 220.34C169.919 218.494 170.788 216.777 172.016 215.329C173.244 213.88 174.795 212.742 176.545 212.005C176.664 211.96 176.769 211.883 176.85 211.784C176.93 211.685 176.983 211.566 177.003 211.44C177.822 211.506 178.641 211.563 179.402 211.645C179.349 211.816 179.349 211.998 179.402 212.169C180.236 215.026 181.333 217.8 182.677 220.455C180.315 220.495 178.003 221.143 175.964 222.336C173.924 223.529 172.227 225.227 171.034 227.267C170.183 225.228 169.454 223.124 168.791 220.995L168.816 220.971ZM171.96 229.38C172.047 229.304 172.12 229.212 172.173 229.109C173.199 226.956 174.846 225.159 176.902 223.95C178.958 222.74 181.328 222.173 183.709 222.322C184.722 224.127 185.851 225.864 187.091 227.521C184.5 228.024 182.103 229.248 180.176 231.05C178.248 232.853 176.868 235.163 176.193 237.715C174.615 235.028 173.194 232.254 171.935 229.404L171.96 229.38ZM177.429 239.77C177.577 239.65 177.678 239.482 177.716 239.295C178.159 236.684 179.436 234.286 181.354 232.459C183.272 230.632 185.73 229.474 188.36 229.159C188.957 229.887 189.58 230.608 190.218 231.304C185.207 233.564 180.074 236.593 179.083 242.316C178.51 241.498 177.945 240.654 177.405 239.794L177.429 239.77ZM180.311 244.068C180.452 243.999 180.573 243.893 180.66 243.763C180.748 243.632 180.8 243.48 180.811 243.323C181.286 237.543 186.853 234.784 191.578 232.679C192.167 233.269 192.765 233.842 193.379 234.399C190.525 234.965 187.896 236.344 185.808 238.371C183.72 240.398 182.263 242.985 181.613 245.821C181.155 245.28 180.712 244.691 180.287 244.093L180.311 244.068ZM193.305 249.865C191.533 250.147 189.721 250.059 187.984 249.608C186.247 249.158 184.622 248.353 183.21 247.245C183.388 246.183 183.687 245.144 184.102 244.15C186.406 245.606 188.979 246.584 191.668 247.027C194.357 247.47 197.108 247.369 199.757 246.73C197.959 248.003 196.055 249.121 194.067 250.07C193.959 249.98 193.832 249.917 193.695 249.886C193.559 249.855 193.417 249.856 193.281 249.89L193.305 249.865ZM185.51 250.684C186.996 251.304 188.572 251.678 190.177 251.79C189.277 252.15 188.368 252.51 187.451 252.862C186.763 252.183 186.124 251.454 185.486 250.717L185.51 250.684ZM188.785 254.303C195.884 251.552 202.418 248.285 207.167 242.022C209.748 238.609 211.614 234.71 212.653 230.559C212.653 230.559 212.653 230.559 212.71 230.559C214.26 230.809 215.841 230.793 217.385 230.51C216.358 236.873 213.551 242.815 209.288 247.65C205.025 252.485 199.481 256.015 193.297 257.832C193.114 257.883 192.955 257.996 192.847 258.151C191.471 256.964 190.096 255.671 188.794 254.336L188.785 254.303ZM198.709 262.843C198.644 262.843 198.611 262.917 198.553 262.949C197.096 261.828 195.655 260.681 194.271 259.486C200.787 257.492 206.6 253.685 211.034 248.511C215.467 243.337 218.337 237.008 219.309 230.264C219.322 230.199 219.322 230.132 219.309 230.067C219.653 229.945 219.989 229.789 220.317 229.642C220.661 236.748 218.761 243.782 214.884 249.747C211.007 255.712 205.351 260.305 198.717 262.876L198.709 262.843ZM200.92 230.559C200.388 230.149 199.855 229.74 199.339 229.298C201.414 228.695 203.293 227.555 204.787 225.994C206.281 224.433 207.336 222.505 207.847 220.406C209.211 221.132 210.559 221.896 211.891 222.698C211.865 224.041 211.756 225.381 211.564 226.71C210.228 228.158 208.566 229.265 206.716 229.94C204.866 230.615 202.882 230.838 200.928 230.591L200.92 230.559Z" fill="#37474F"/>
<path d="M163.559 270.932C163.647 270.885 163.725 270.821 163.788 270.744C164.648 271.186 165.696 270.048 164.869 269.319C154.896 260.466 147.2 249.342 142.432 236.888C137.664 224.435 135.963 211.016 137.473 197.766C137.604 196.595 135.761 196.604 135.63 197.766C135.557 198.429 135.499 199.093 135.442 199.748C131.14 200.012 127.115 201.963 124.241 205.176C123.423 206.06 124.749 207.362 125.543 206.478C128.039 203.646 131.54 201.899 135.303 201.606C135.205 203.244 135.15 204.865 135.139 206.47C129.992 207.53 125.225 209.954 121.335 213.487C120.45 214.305 121.76 215.575 122.637 214.789C126.173 211.605 130.48 209.4 135.131 208.394C135.131 209.434 135.18 210.482 135.229 211.522C129.608 212.416 124.453 215.179 120.598 219.365C119.779 220.233 121.089 221.543 121.9 220.667C125.452 216.816 130.179 214.248 135.344 213.364C135.385 213.937 135.434 214.51 135.483 215.083C129.653 216.698 124.31 219.724 119.926 223.893C119.067 224.712 120.369 226.006 121.228 225.195C125.315 221.317 130.278 218.486 135.696 216.942C135.835 218.154 135.991 219.357 136.179 220.553C136.007 220.52 135.829 220.543 135.671 220.618C129.233 223.396 123.821 228.113 120.188 234.112C119.566 235.127 121.155 236.052 121.777 235.045C125.232 229.375 130.357 224.913 136.449 222.272C136.654 223.377 136.867 224.483 137.112 225.547C136.917 225.563 136.733 225.644 136.588 225.776C133.199 228.913 130.508 232.729 128.692 236.976C126.877 241.222 125.977 245.804 126.051 250.422C126.072 250.651 126.179 250.864 126.349 251.019C126.52 251.174 126.742 251.26 126.972 251.26C127.202 251.26 127.424 251.174 127.595 251.019C127.765 250.864 127.871 250.651 127.893 250.422C127.819 246.126 128.64 241.863 130.304 237.902C131.967 233.941 134.436 230.369 137.555 227.414C137.948 229.052 138.373 230.648 138.906 232.245C133.547 238.375 130.258 246.039 129.506 254.147C129.308 254.159 129.119 254.232 128.965 254.356C128.81 254.479 128.698 254.648 128.643 254.838C128.588 255.029 128.594 255.231 128.659 255.418C128.724 255.605 128.845 255.768 129.007 255.883C132.292 258.104 136.043 259.54 139.971 260.081C143.899 260.622 147.899 260.253 151.662 259.002C151.818 258.96 151.957 258.874 152.063 258.753C152.17 258.632 152.238 258.482 152.26 258.323C153.079 259.395 153.897 260.443 154.765 261.483C151.249 263.638 147.171 264.696 143.052 264.522C138.932 264.349 134.957 262.951 131.635 260.509C130.661 259.821 129.735 261.418 130.701 262.097C134.354 264.742 138.715 266.233 143.222 266.379C147.729 266.525 152.177 265.319 155.993 262.916C156.976 264.046 157.989 265.154 159.031 266.24C156.174 267.862 153.02 268.892 149.756 269.269C146.493 269.646 143.187 269.362 140.035 268.435C139.808 268.393 139.573 268.437 139.377 268.56C139.18 268.683 139.037 268.875 138.976 269.098C138.914 269.321 138.938 269.559 139.043 269.765C139.149 269.971 139.327 270.131 139.544 270.211C143.009 271.221 146.643 271.508 150.223 271.056C153.803 270.604 157.253 269.422 160.357 267.583C161.004 268.222 161.659 268.852 162.331 269.483C157.352 271.984 151.776 273.05 146.225 272.561C145.046 272.463 145.046 274.305 146.225 274.404C152.215 274.906 158.225 273.703 163.559 270.932ZM133.846 243.912C135.262 240.446 137.194 237.213 139.577 234.325C140.866 238.142 142.426 241.864 144.244 245.46C140.712 245.99 137.102 245.451 133.878 243.912H133.846ZM133.215 245.632C136.873 247.316 140.951 247.863 144.924 247.204C144.98 247.19 145.035 247.17 145.087 247.147C145.841 248.555 146.643 249.939 147.478 251.306C142.29 252.267 136.936 251.739 132.036 249.783C132.352 248.373 132.746 246.982 133.215 245.615V245.632ZM130.939 254.941C131.05 254.864 131.142 254.763 131.209 254.645C131.275 254.528 131.315 254.397 131.324 254.262C131.414 253.369 131.537 252.485 131.692 251.617C136.906 253.63 142.581 254.135 148.068 253.074C148.217 253.047 148.356 252.979 148.469 252.878C149.41 254.352 150.409 255.793 151.441 257.217C151.357 257.202 151.271 257.202 151.187 257.217C147.851 258.345 144.307 258.724 140.808 258.328C137.308 257.932 133.939 256.77 130.939 254.925V254.941Z" fill="#37474F"/>
<path d="M153.48 231.5C146.111 215.739 147.503 198.266 149.009 181.44C149.116 180.261 147.274 180.269 147.167 181.44C145.62 198.635 144.383 216.328 151.883 232.425C152.391 233.523 153.979 232.589 153.48 231.5Z" fill="#37474F"/>
<path d="M163.092 181.104C163.354 178.771 163.608 176.445 163.87 174.112C164.001 172.933 162.159 172.941 162.028 174.112C161.766 176.445 161.504 178.771 161.25 181.104C161.119 182.283 162.961 182.275 163.092 181.104Z" fill="#37474F"/>
<path d="M190.693 275.632C176.279 269.251 164.939 257.476 159.105 242.832C158.671 241.743 156.886 242.218 157.328 243.324C163.292 258.432 174.937 270.604 189.768 277.229C190.841 277.704 191.774 276.115 190.693 275.632Z" fill="#37474F"/>
<path d="M199.25 269.803C184.925 258.811 173.517 244.473 166.024 228.045C165.524 226.973 163.936 227.906 164.427 228.979C172.092 245.666 183.73 260.22 198.325 271.367C199.266 272.12 200.183 270.515 199.25 269.803Z" fill="#37474F"/>
<path d="M164.877 224.95C164.856 224.72 164.749 224.507 164.579 224.352C164.408 224.197 164.186 224.111 163.956 224.111C163.726 224.111 163.504 224.197 163.333 224.352C163.163 224.507 163.057 224.72 163.035 224.95C163.057 225.179 163.163 225.392 163.333 225.547C163.504 225.702 163.726 225.788 163.956 225.788C164.186 225.788 164.408 225.702 164.579 225.547C164.749 225.392 164.856 225.179 164.877 224.95Z" fill="#37474F"/>
<path d="M157.607 226.726C152.378 210.852 151.729 193.826 155.732 177.6C156.01 176.454 154.233 175.962 153.955 177.117C149.868 193.66 150.517 211.019 155.83 227.21C156.198 228.339 157.975 227.865 157.607 226.726Z" fill="#37474F"/>
<path d="M155.273 236.028C155.251 235.799 155.145 235.586 154.975 235.431C154.804 235.276 154.582 235.19 154.352 235.19C154.121 235.19 153.899 235.276 153.729 235.431C153.559 235.586 153.452 235.799 153.431 236.028C153.452 236.258 153.559 236.471 153.729 236.626C153.899 236.781 154.121 236.866 154.352 236.866C154.582 236.866 154.804 236.781 154.975 236.626C155.145 236.471 155.251 236.258 155.273 236.028Z" fill="#37474F"/>
<path d="M171.207 277.785C171.811 278.098 172.434 278.371 173.073 278.604C174.195 279.013 174.711 277.228 173.565 276.827C171.009 275.901 168.803 274.204 167.252 271.972C166.572 271.014 164.976 271.931 165.655 272.905C165.795 273.102 165.942 273.282 166.089 273.47C162.333 275.184 158.183 275.852 154.078 275.403C152.899 275.28 152.907 277.13 154.078 277.245C158.627 277.719 163.218 276.914 167.334 274.919C167.934 275.516 168.58 276.063 169.266 276.557C167.789 277.058 166.253 277.369 164.697 277.482C163.518 277.572 163.51 279.415 164.697 279.325C166.935 279.159 169.132 278.64 171.207 277.785Z" fill="#37474F"/>
<path d="M137.866 194.426C138.101 192.838 138.333 191.255 138.562 189.677C138.582 189.528 138.568 189.377 138.52 189.235C138.471 189.093 138.391 188.964 138.284 188.858C139.166 188.547 139.965 188.038 140.619 187.369C141.274 186.7 141.766 185.891 142.058 185.002C142.443 183.88 140.666 183.364 140.282 184.511C140.021 185.279 139.547 185.958 138.914 186.467C138.282 186.975 137.518 187.294 136.712 187.385C135.541 187.499 135.533 189.341 136.712 189.227H136.785C136.556 190.807 136.319 192.379 136.089 193.959C135.917 195.089 137.694 195.597 137.866 194.426Z" fill="#37474F"/>
<path d="M173.671 55.7998C175.868 55.7998 177.65 54.0182 177.65 51.8206C177.65 49.6229 175.868 47.8413 173.671 47.8413C171.473 47.8413 169.691 49.6229 169.691 51.8206C169.691 54.0182 171.473 55.7998 173.671 55.7998Z" fill="#C7C7C7"/>
<path d="M177.224 51.0256C177.224 51.8127 176.99 52.582 176.553 53.2364C176.116 53.8908 175.495 54.4008 174.767 54.702C174.04 55.0032 173.24 55.082 172.468 54.9284C171.696 54.7749 170.987 54.3959 170.431 53.8394C169.874 53.2829 169.495 52.5739 169.342 51.802C169.188 51.0301 169.267 50.23 169.568 49.5029C169.869 48.7757 170.379 48.1543 171.034 47.717C171.688 47.2798 172.458 47.0464 173.245 47.0464C173.767 47.0453 174.285 47.1475 174.769 47.3471C175.252 47.5467 175.691 47.8398 176.061 48.2095C176.431 48.5792 176.724 49.0183 176.923 49.5016C177.123 49.9848 177.225 50.5028 177.224 51.0256Z" fill="#DBDBDB"/>
<path d="M126.289 257.701C126.289 257.701 141.068 232.671 145.014 228.127C147.741 224.983 157.828 219.423 164.321 214.085C165.631 213.004 167.784 208.312 170.683 207.96C174.58 207.485 180.426 215.583 178.183 222.805C175.939 230.026 165.082 237.06 164.264 238.501C163.445 239.942 169.643 256.031 167.432 260.411C165.221 264.792 146.717 275.649 143.688 275.509C140.658 275.37 124.676 262.114 126.289 257.701Z" fill="#FF5C5C" fill-opacity="0.95"/>
<path d="M169.594 224.074C171.574 225.603 174.051 226.343 176.545 226.154C177.241 225.103 177.792 223.962 178.183 222.764C180.426 215.55 174.58 207.453 170.683 207.928C167.784 208.28 165.623 212.971 164.321 214.052C164.321 214.052 164.829 220.16 169.594 224.074Z" fill="#EBEBEB"/>
<path d="M175.579 210.408C175.589 210.401 175.602 210.399 175.614 210.4C175.626 210.401 175.638 210.406 175.647 210.414C175.657 210.422 175.663 210.434 175.665 210.446C175.668 210.458 175.666 210.471 175.661 210.482C174.735 211.784 173.868 213.126 173.073 214.51C172.239 215.707 171.822 217.146 171.886 218.604C171.881 218.618 171.872 218.631 171.859 218.64C171.847 218.649 171.832 218.654 171.816 218.654C171.801 218.654 171.786 218.649 171.774 218.64C171.761 218.631 171.752 218.618 171.747 218.604C171.41 217.154 171.542 215.635 172.124 214.265C172.86 212.668 174.277 211.522 175.579 210.408Z" fill="#0B1F35"/>
<path d="M172.181 207.854C172.23 207.854 172.296 207.854 172.263 207.927C171.419 209.211 170.658 210.549 169.987 211.931C169.397 213.094 168.3 214.862 169.168 216.123C169.315 216.344 169.168 216.402 168.996 216.213C167.874 215.091 168.423 213.249 168.955 211.988C169.708 210.387 170.811 208.974 172.181 207.854Z" fill="#0B1F35"/>
<path d="M133.551 245.607C133.154 246.678 132.683 247.721 132.143 248.727C131.635 249.742 131.062 250.717 130.505 251.683C129.948 252.649 129.318 253.599 128.671 254.524C128.024 255.449 127.361 256.366 126.632 257.267C126.922 256.156 127.325 255.077 127.836 254.049C128.331 253.023 128.878 252.023 129.474 251.052C130.071 250.086 130.685 249.136 131.365 248.227C132.026 247.3 132.757 246.424 133.551 245.607Z" fill="#0B1F35"/>
<path d="M166.728 261.361C164.898 263.537 162.827 265.498 160.554 267.207C158.31 268.948 155.959 270.545 153.513 271.989C151.053 273.418 148.498 274.677 145.866 275.755C143.237 276.83 140.511 277.652 137.727 278.211C140.298 276.999 142.852 275.853 145.342 274.584C147.831 273.315 150.254 271.989 152.711 270.564C155.167 269.139 157.484 267.682 159.834 266.159C162.184 264.636 164.493 263.088 166.728 261.361Z" fill="#0B1F35"/>
<path d="M150.148 272.93C149.746 273.658 149.268 274.341 148.723 274.969C148.19 275.603 147.612 276.2 146.995 276.754C145.777 277.893 144.355 278.793 142.803 279.407C143.417 278.834 144.032 278.31 144.637 277.769C145.243 277.229 145.857 276.697 146.447 276.132C147.667 275.067 148.846 273.97 150.148 272.93Z" fill="#0B1F35"/>
<path d="M206.414 275.534C206.414 275.534 179.149 236.503 187.222 220.34C193.174 208.435 222.012 191.576 222.012 191.576C222.012 191.576 208.404 173.948 208.223 170.37C208.043 166.792 217.042 166.637 221.881 167.807C226.72 168.978 246.444 192.977 246.714 195.99C246.984 199.003 240.36 209.909 241.269 214.592C242.178 219.276 249.08 224.688 249.555 225.49C250.03 226.293 254.574 245.959 250.513 252.444C246.452 258.929 212.26 278.588 206.414 275.534Z" fill="#FF5C5C" fill-opacity="0.95"/>
<path d="M215.617 182.98C223.19 183.856 227.342 175.512 228.488 172.778C225.729 170.1 223.289 168.143 221.872 167.8C217.05 166.637 208.043 166.792 208.223 170.371C208.338 172.589 212.481 178.673 215.617 182.98Z" fill="#EBEBEB"/>
<path d="M214.118 166.955C214.122 166.945 214.13 166.936 214.139 166.929C214.149 166.923 214.16 166.919 214.171 166.919C214.183 166.919 214.194 166.923 214.204 166.929C214.213 166.936 214.22 166.945 214.225 166.955C214.47 168.593 214.781 170.272 215.174 171.868C215.401 173.373 216.115 174.762 217.205 175.823C217.217 175.836 217.224 175.852 217.225 175.87C217.226 175.888 217.22 175.905 217.209 175.919C217.198 175.933 217.183 175.942 217.166 175.946C217.148 175.949 217.13 175.946 217.115 175.937C215.811 175.079 214.813 173.829 214.266 172.368C213.66 170.624 213.922 168.765 214.118 166.955Z" fill="#0B1F35"/>
<path d="M209.689 167.472C209.689 167.457 209.695 167.442 209.706 167.431C209.717 167.421 209.731 167.415 209.746 167.415C209.762 167.415 209.776 167.421 209.787 167.431C209.798 167.442 209.804 167.457 209.804 167.472C210.086 169.06 210.474 170.627 210.966 172.163C211.351 173.473 211.785 175.61 213.349 175.963C213.619 176.02 213.562 176.159 213.283 176.151C211.646 176.11 210.704 174.317 210.197 172.966C209.615 171.196 209.442 169.318 209.689 167.472Z" fill="#0B1F35"/>
<path d="M188.744 242.832C190.57 246.214 192.339 249.611 194.107 253.009C195.876 256.407 197.636 259.797 199.454 263.154C201.272 266.511 203.098 269.868 204.981 273.192C206.864 276.516 208.845 279.742 210.892 283.018C208.33 280.139 205.99 277.071 203.892 273.839C201.771 270.621 199.847 267.289 198.013 263.907C196.179 260.526 194.509 257.054 192.961 253.542C191.414 250.029 189.948 246.484 188.744 242.832Z" fill="#0B1F35"/>
<path d="M241.907 216.459C243.974 218.971 246.178 221.368 248.507 223.64C248.802 223.91 249.096 224.18 249.399 224.458C249.746 224.731 250.072 225.029 250.374 225.351C250.939 226.089 251.338 226.941 251.544 227.848C251.941 229.489 252.179 231.164 252.257 232.851C252.394 236.148 252.301 239.45 251.978 242.733C251.687 246.005 251.198 249.256 250.513 252.469C250.513 249.194 250.636 245.918 250.701 242.643C250.767 239.368 250.808 236.093 250.619 232.925C250.573 231.341 250.381 229.765 250.046 228.217C249.926 227.513 249.664 226.842 249.276 226.243C249.019 225.956 248.745 225.682 248.458 225.425C248.163 225.13 247.868 224.827 247.59 224.524C245.379 222.074 243.471 219.366 241.907 216.459Z" fill="#0B1F35"/>
<path d="M202.402 270.13C203.15 271.635 203.795 273.189 204.334 274.781C204.875 276.361 205.382 277.941 205.783 279.595C204.836 278.19 204.086 276.661 203.556 275.051C202.99 273.459 202.603 271.808 202.402 270.13Z" fill="#0B1F35"/>
<path d="M251.446 240.302C252.237 241.332 252.864 242.478 253.305 243.7C253.532 244.31 253.71 244.937 253.837 245.575C253.988 246.218 254.022 246.884 253.935 247.54C253.706 246.917 253.46 246.344 253.223 245.755C252.985 245.165 252.764 244.576 252.535 243.986C252.073 242.79 251.709 241.557 251.446 240.302Z" fill="#0B1F35"/>
</svg>
