<svg width="381" height="380" viewBox="0 0 381 380" fill="none" xmlns="http://www.w3.org/2000/svg">
<path fill-rule="evenodd" clip-rule="evenodd" d="M29 216.765L202.122 43.7002H344.4V178.872L173.144 359.1L29 216.765Z" fill="#F94060"/>
<path fill-rule="evenodd" clip-rule="evenodd" d="M63.1992 217.345L86.0295 194.695L194.487 302.295L171.611 324.9L63.1992 217.345ZM254.364 95.6139C258.315 91.6928 263.349 89.0222 268.83 87.9398C274.311 86.8574 279.992 87.4118 285.156 89.533C290.319 91.6542 294.732 95.2469 297.837 99.8566C300.942 104.466 302.599 109.886 302.599 115.43C302.599 120.974 300.942 126.394 297.837 131.004C294.732 135.613 290.319 139.206 285.156 141.327C279.992 143.449 274.311 144.003 268.83 142.921C263.349 141.838 258.315 139.168 254.364 135.247C249.068 129.99 246.093 122.862 246.093 115.43C246.093 107.998 249.068 100.87 254.364 95.6139Z" fill="#2C3E50"/>
</svg>
