<svg width="381" height="380" viewBox="0 0 381 380" fill="none" xmlns="http://www.w3.org/2000/svg">
<g clip-path="url(#clip0_1220_56168)">
<path d="M38.5 66.5C17.5126 66.5 0.5 83.6 0.5 104.5V294.5C0.5 315.4 17.5126 332.5 38.5 332.5H342.5C363.495 332.5 380.5 315.4 380.5 294.5V104.5C380.5 83.6 363.495 66.5 342.5 66.5H38.5Z" fill="#AEC1B3"/>
<path d="M38.5 47.5C17.5126 47.5 0.5 64.5126 0.5 85.5V275.5C0.5 296.495 17.5126 313.5 38.5 313.5H342.5C363.495 313.5 380.5 296.495 380.5 275.5V85.5C380.5 64.5126 363.495 47.5 342.5 47.5H38.5Z" fill="#BADDC2"/>
<path d="M171.5 85.5H38.5V275.5H171.5V85.5Z" fill="#ECF0F1"/>
<path d="M101.437 104.499C89.467 105.399 78.2814 110.798 70.1301 119.611C61.9787 128.423 57.4662 139.995 57.5 151.999C57.5014 158.59 58.8747 165.109 61.5324 171.141C64.1902 177.173 68.0742 182.586 72.9375 187.035C59.2879 192.678 47.487 201.646 38.5 213.16V256.499V275.499H171.5V256.499V212.571C162.494 201.323 150.499 192.583 137.062 187.035C141.926 182.586 145.81 177.173 148.467 171.141C151.125 165.109 152.498 158.59 152.5 151.999C152.518 145.45 151.182 138.967 148.576 132.959C145.969 126.951 142.148 121.547 137.353 117.086C132.557 112.626 126.891 109.205 120.711 107.039C114.53 104.872 107.968 104.008 101.437 104.499Z" fill="#2C3E50"/>
<path d="M209.5 104.5V123.5H285.5V104.5H209.5ZM209.5 142.5V161.5H342.5V142.5H209.5ZM209.5 180.5V199.5H342.5V180.5H209.5Z" fill="#7F8C8D"/>
</g>
<defs>
<clipPath id="clip0_1220_56168">
<rect width="380" height="380" fill="white" transform="translate(0.5)"/>
</clipPath>
</defs>
</svg>
