<svg fill="none" viewBox="0 0 564 530" width="347" xmlns="http://www.w3.org/2000/svg"><path d="m53.872 321.855-16.8405.347-8.5486.154c-2.8623 0-5.7375 0-8.5999.064h-.5648v-.577l-.077-14.364v-.654h.6418l16.9945.077c5.6734 0 11.3339.141 16.9945.205h.3594v.347c0 2.439-.1155 4.852-.1669 7.252zm0 0-.1797-7.265c0-2.387-.1412-4.749-.1669-7.098l.3466.347c-5.6606.064-11.3211.205-16.9945.205l-16.9945.09.6418-.642v14.363l-.5776-.577c2.7982 0 5.5963 0 8.4074.077l8.4459.141z" fill="#ebebeb"/><path d="m34.913 339.967-16.8405.346-8.54855.154c-2.86237 0-5.73757 0-8.599937.065h-.564773v-.578l-.077013-14.325v-.654h.641786l16.994487.077c5.6606 0 11.3339.141 16.9945.205h.3594v.372c0 2.439-.1027 4.852-.1669 7.252zm0 0-.1797-7.265c0-2.388-.1412-4.749-.1669-7.098l.3466.346c-5.6606.064-11.3339.206-16.9945.206l-16.994487.089.641787-.641-.06418 14.363-.577607-.578c2.798187 0 5.596377 0 8.407397.077l8.44589.141z" fill="#ebebeb"/><path d="m337.001 131.656-16.841.359-8.548.141c-2.863 0-5.738 0-8.6.077h-.565v-.577l-.077-14.363v-.642h.642l16.994.09c5.674 0 11.334.141 16.995.205h.359v.347c0 2.438-.115 4.864-.179 7.265zm0 0-.18-7.252c0-2.388-.141-4.762-.167-7.111l.347.359c-5.661.064-11.321.193-16.995.205l-16.994.077.642-.641-.064 14.363-.578-.565c2.798 0 5.596 0 8.407.064l8.446.141z" fill="#ebebeb"/><path d="m318.045 149.78-16.841.359-8.548.142c-2.863.064-5.738 0-8.6.077h-.565v-.578l-.077-14.363v-.642h.642l16.994.09c5.661 0 11.334.141 16.995.205h.359v.347c0 2.439-.102 4.865-.167 7.265zm0 0-.18-7.252c-.064-2.388-.141-4.762-.167-7.111l.347.359c-5.661 0-11.334.193-16.995.206l-16.994.077.642-.642v14.363l-.578-.565h8.407l8.446.141z" fill="#ebebeb"/><path d="m299.161 131.656-16.853.359-8.549.141c-2.849 0-5.724 0-8.587.077h-.577v-.577-14.363-.642h.642l16.994.09c5.661 0 11.321.141 16.994.205h.334v.347c0 2.438-.115 4.864-.167 7.265zm0 0-.179-7.252c-.065-2.388-.154-4.762-.18-7.111l.359.359c-5.673.064-11.334.193-16.994.205l-16.995.077.642-.641-.077 14.363-.565-.565c2.799 0 5.584 0 8.395.064l8.446.141z" fill="#ebebeb"/><path d="m562.256 339.967-16.854.346-8.548.154c-2.85 0-5.725 0-8.587.065h-.578v-.578l-.064-14.325v-.654h.642l16.994.077c5.661 0 11.334.141 16.995.205h.346v.372c0 2.439-.102 4.852-.167 7.252zm0 0-.18-7.265c0-2.388-.154-4.749-.167-7.098l.347.346c-5.661.064-11.334.206-16.995.206l-16.994.089.642-.641-.077 14.363-.565-.578c2.798 0 5.596 0 8.394.077l8.446.141z" fill="#ebebeb"/><path d="m543.297 15.082-16.853.3465-8.548.1541c-2.85 0-5.725 0-8.588 0h-.526v-.5648-14.36318-.65462h.655l16.994.0770112c5.661 0 11.321.1411928 16.995.2053708h.346v.346565c0 2.425953-.115 4.851903-.166 7.252183zm0 0-.179-7.26505c-.064-2.38744-.154-4.74922-.18-7.098153l.359.346563c-5.673 0-11.333.20537-16.994.20537l-16.995.07702.642-.628953-.077 14.363203-.565-.5776h8.395l8.446.154z" fill="#ebebeb"/><path d="m562.256 33.1931-16.854.3466-8.548.154c-2.85 0-5.725 0-8.587 0h-.578v-.5776l-.064-14.2605v-.6546h.642l16.994.077c5.661 0 11.334.1412 16.995.2054h.346v.3722c0 2.426-.102 4.8519-.167 7.2522zm0 0-.18-7.265c0-2.3875-.154-4.7492-.167-7.0982l.347.3466c-5.661 0-11.334.2054-16.995.2054l-16.994.077.642-.629-.077 14.3504-.565-.5648h8.394l8.446.154z" fill="#ebebeb"/><path d="m53.872 15.082-16.8405.3465-8.5486.1541c-2.8623 0-5.7375 0-8.5999 0h-.5648v-.5648l-.077-14.36318v-.65462h.6418l16.9945.0770112c5.6734 0 11.3339.1411928 16.9945.2053708h.3594v.346565c0 2.425953-.1155 4.851903-.1669 7.252183zm0 0-.1797-7.26505c0-2.38744-.1412-4.74922-.1669-7.098153l.3466.346563c-5.6606 0-11.3211.20537-16.9945.20537l-16.9945.07702.6418-.628953v14.363203l-.5776-.5776h8.4074l8.4459.154z" fill="#ebebeb"/><path d="m13.5918 329.185h304.6942l6.328-125.02h-317.36302z" fill="#ebebeb"/><path d="m303.846 261.451h-127.381l-2.388-43.411h132.555zm-125.931-1.541h124.507l2.567-40.329h-129.295z" fill="#dbdbdb"/><path d="m301.498 311.33h-120.026l-1.951-39.174h124.506zm-118.589-1.54h117.139l2.259-36.107h-121.195z" fill="#dbdbdb"/><path d="m252.414 244.405h-21.397l-1.284-10.474h24.093zm-20.049-1.54h18.701l.95-7.394h-20.601z" fill="#dbdbdb"/><path d="m252.414 296.967h-21.397l-1.284-10.461h24.093zm-20.049-1.527h18.701l.95-7.394h-20.601z" fill="#dbdbdb"/><path d="m154.016 261.451h-127.3813l-2.4003-43.462h132.5676zm-125.9309-1.541h124.5069l2.567-40.33h-129.2945z" fill="#dbdbdb"/><path d="m151.655 311.33h-120.0399l-1.951-39.174h124.5069zm-118.5766-1.54h117.1386l2.259-36.107h-121.1818z" fill="#dbdbdb"/><path d="m102.584 244.405h-21.3972l-1.3606-10.474h24.1058zm-20.0495-1.54h18.7015l.95-7.394h-20.5371z" fill="#dbdbdb"/><path d="m102.584 296.967h-21.3972l-1.3606-10.461h24.1058zm-20.0495-1.527h18.7015l.95-7.394h-20.5371z" fill="#dbdbdb"/><path d="m40.9207 329.185-1.9125 13.619-3.8507 27.365h-7.5218v-40.984z" fill="#ebebeb"/><path d="m40.9207 329.185-1.9125 13.619h-11.3725v-13.619z" fill="#dbdbdb"/><path d="m290.959 329.185 1.913 13.619 3.85 27.365h7.522v-40.984z" fill="#ebebeb"/><path d="m290.959 329.185 1.913 13.619h11.372v-13.619z" fill="#dbdbdb"/><path d="m120.231 204.114v-92.174h-23.2065v92.174z" fill="#c7c7c7"/><path d="m120.231 117.139v-10.128h-23.2065v10.128z" fill="#dbdbdb"/><path d="m120.231 133.876v-3.76h-23.2065v3.76z" fill="#dbdbdb"/><path d="m120.231 192.022v-10.127h-23.2065v10.127z" fill="#dbdbdb"/><path d="m136.456 204.114v-107.5251h-16.224v107.5251z" fill="#dbdbdb"/><path d="m133.145 148.047v-41.357h-9.73v41.357z" fill="#ebebeb"/><path d="m251.999 192.452-76.468-75.593-11.406 11.539 76.468 75.592z" fill="#c7c7c7"/><path d="m231.796 176.986-29.411-29.075-6.84 6.92 29.411 29.074z" fill="#dbdbdb"/><path d="m164.001 204.126v-81.673h-27.545v81.673z" fill="#a6a6a6"/><path d="m164.001 195.462v-7.611h-27.545v7.611z" fill="#c7c7c7"/><path d="m66.8881 204.197 30.275-70.535-17.4922-7.508-30.2749 70.535z" fill="#a6a6a6"/><path d="m70.0971 196.693 2.8199-6.57-17.4922-7.508-2.8199 6.57z" fill="#c7c7c7"/><path d="m88.1137 154.762 2.8199-6.57-17.4922-7.508-2.8199 6.57z" fill="#c7c7c7"/><path d="m85.3816 162.86 1.0813-2.551-17.5126-7.423-1.0812 2.55z" fill="#c7c7c7"/><path d="m281.589 530c92.822 0 168.07-14.062 168.07-31.409s-75.248-31.409-168.07-31.409c-92.824 0-168.071 14.062-168.071 31.409s75.247 31.409 168.071 31.409z" fill="#284059"/><path d="m0 370.169 70.4039-.308 70.3911-.115 140.795-.219 140.795.219 70.391.115 70.404.308-70.404.321-70.391.116-140.795.205-140.795-.218-70.3911-.103z" fill="#263238"/><path d="m141.553 300.574c-2.696 3.299-5.058 89.542-1.849 100.119 3.209 10.576 23.477 30.138 24.247 32.923.551 2.65.551 5.385 0 8.035-.308 1.284-6.687 6.559-8.818 9.127-1.091 1.283-2.939 11.141-1.284 11.911 1.656.77 14.222-.154 17.97-3.709 3.748-3.556 13.221-18.266 14.12-20.538.898-2.271-1.643-18.406-2.298-21.653-.655-3.248 20.858-49.315 20.935-65.604.077-16.288-57.388-57.491-63.023-50.611z" fill="#f1463b"/><path d="m166.929 450.777c.014-.017.033-.028.055-.03s.044.004.061.017c.017.014.027.034.03.056.002.021-.004.043-.018.06-1.283 2.015-2.374 4.107-3.401 6.238-1.085 1.851-1.536 4.005-1.284 6.136 0 .027-.01.053-.03.072-.019.02-.045.03-.072.03-.028 0-.054-.01-.073-.03-.019-.019-.03-.045-.03-.072-.643-2.097-.607-4.343.103-6.418 1.09-2.337 2.681-4.405 4.659-6.059z" fill="#263238"/><path d="m159.984 450.636c.013-.009.029-.013.045-.013.017.001.032.006.045.016s.022.024.027.04c.004.015.004.032-.002.047-1.109 1.994-2.091 4.056-2.939 6.174-.757 1.771-2.195 4.505-.809 6.29.231.308 0 .397-.256.141-1.772-1.541-1.156-4.313-.488-6.251.95-2.453 2.447-4.657 4.377-6.444z" fill="#263238"/><path d="m277.893 296.518c2.696 3.299 5.058 89.542 1.849 100.183-3.209 10.64-23.477 30.125-24.247 32.898-.551 2.654-.551 5.393 0 8.047.308 1.284 7.316 7.317 8.818 9.127 2.144 2.567 4.274 9.973 2.567 10.743s-16.866 0-19.253-2.567c-3.556-3.709-13.234-18.252-14.12-20.537-.885-2.285 1.656-18.419 2.298-21.667.642-3.247-20.884-49.327-20.909-65.616-.026-16.289 57.362-57.44 62.997-50.611z" fill="#f1463b"/><path d="m277.894 296.518c2.696 3.299 5.057 89.542 1.849 100.183-3.209 10.64-23.477 30.125-24.247 32.898-.551 2.654-.551 5.393 0 8.047.308 1.284 7.316 7.317 8.818 9.127 2.144 2.567 4.274 9.973 2.567 10.743s-16.866 0-19.253-2.567c-3.556-3.709-13.234-18.252-14.12-20.537-.885-2.285 1.656-18.419 2.298-21.667.642-3.247-20.884-49.327-20.91-65.616-.025-16.289 57.363-57.44 62.998-50.611z" fill="#000" opacity=".01"/><path d="m252.145 446.054c-.064 0-.167 0-.115.116 1.36 1.938 2.657 3.927 3.85 5.994 1.226 1.762 1.844 3.875 1.759 6.02 0 .027.011.053.03.072.019.02.045.031.072.031.028 0 .054-.011.073-.031.019-.019.03-.045.03-.072.502-2.144.309-4.392-.552-6.418-1.271-2.262-3.029-4.213-5.147-5.712z" fill="#263238"/><path d="m259.077 445.425c-.077 0-.18 0-.129.115 1.251 1.907 2.379 3.892 3.376 5.943.873 1.72 2.503 4.339 1.284 6.226-.218.321 0 .398.256.128 1.669-1.669.86-4.39.065-6.277-1.138-2.382-2.796-4.479-4.852-6.135z" fill="#263238"/><path d="m269.666 437.814s41.857 27.378 47.069 28.931c5.211 1.553 76.449 33.181 81.943 33.72 2.22.218 24.786 1.887 26.172 1.193 1.386-.693-6.033-10.897-11.257-13.336s-20.293-3.851-22.27-5.134c-1.977-1.284-45.297-45.131-47.762-48.956-2.464-3.825-8.985-39.251-8.985-39.251z" fill="#f1463b"/><path d="m407.958 491.518c-.077 0-.167 0-.103.116 1.553 1.784 3.055 3.632 4.441 5.557 1.406 1.627 2.24 3.669 2.375 5.815.008.023.022.042.042.056.019.014.043.022.067.022s.047-.008.067-.022c.019-.014.034-.033.042-.056.258-2.2-.191-4.426-1.284-6.354-1.283-2.259-3.517-3.683-5.647-5.134z" fill="#263238"/><path d="m414.774 490.17c-.064-.064-.154 0-.103.116 1.446 1.764 2.775 3.621 3.98 5.558 1.052 1.617 2.952 4.056 1.899 6.058-.179.347 0 .398.27.103 1.476-1.836.385-4.467-.603-6.251-1.369-2.249-3.23-4.158-5.443-5.584z" fill="#263238"/><path d="m343.201 433.449-55.63 15.853c-9.614-6.123-17.854-11.553-17.854-11.553l64.936-42.807s5.827 32.154 8.548 38.507z" fill="#000" opacity=".1"/><path d="m295.775 364.406c-10.898-17.97-15.814-92.854-33.745-108.937-10.269-9.254-73.408-57.234-95.074-51.227-7.073 1.964-28.688 78.76-24.979 102.891 4.159 26.955 22.104 70.596 30.383 80.865 8.279 10.268 57.863 4.954 65.462 9.139 7.599 4.184 57.953-32.731 57.953-32.731z" fill="#f1463b"/><path d="m169.458 386.406c-.167-.817-.386-1.623-.655-2.413-.449-1.501-.949-2.978-1.463-4.454-1.014-2.913-2.105-5.789-3.222-8.651-2.246-5.737-4.762-11.372-7.342-16.982-1.463-3.209-2.965-6.417-4.454-9.601 0-.128-.269 0-.218.09 4.518 11.552 8.549 23.169 13.208 34.657.655 1.604 1.284 3.196 2.002 4.787.309.719.642 1.425.976 2.131.436.937 1.065 1.72 1.425 2.696 0 .115.244.064.192-.065-.218-.716-.368-1.45-.449-2.195z" fill="#263238"/><path d="m145.776 329.711c-.526-3.544-.604-7.141-.231-10.705.295-3.632.693-7.265 1.206-10.872.591-4.064 1.271-8.12 2.041-12.168 0-.064-.09-.09-.103 0-1.809 7.252-3.17 14.607-4.3 22-.66 3.558-.867 7.185-.616 10.795.376 3.436 1.271 6.795 2.657 9.961 1.57 3.554 3.402 6.986 5.481 10.268.064.09.231 0 .193-.09-2.401-6.276-5.199-12.514-6.328-19.189z" fill="#263238"/><path d="m166.736 227.321c-6.187-16.084-29.304-48.34-20.845-86.629 6.264-28.238 39.893-68.6837 38.699-88.5662-.924-15.5441-38.058-5.9301-38.699-23.9771-.745-21.02493 42.858-29.52218 58.595-3.4015 20.627 34.2842-30.01 96.7938-36.364 129.4098-6.726 34.567 9.909 59.622 9.216 61.252s-10.602 11.912-10.602 11.912z" fill="#f1463b"/><path d="m173.27 366.704s-7.367 39.79-.346 53.139c5.352 10.269 18.868 44.373 22.116 62.446.526 2.965 1.81 8.677 2.67 10.076s19.779 6.482 21.923 5.481c1.284-.59 1.155-7.701.231-9.293-1.284-2.375-6.816-6.559-6.957-7.355-.244-1.283-1.656-40.843-1.13-44.257.527-3.415 16.918-30.447 19.37-43.282 2.451-12.836-55.387-30.999-57.877-26.955z" fill="#f1463b"/><path d="m207.67 485.344c-.012-.017-.03-.028-.051-.032-.02-.004-.041.001-.058.013s-.029.03-.032.051c-.004.02.001.041.013.058 1.206 2.041 2.336 4.133 3.35 6.277 1.086 1.854 1.537 4.013 1.283 6.148 0 .027.011.053.03.073.02.019.046.03.073.03s.053-.011.072-.03c.02-.02.031-.046.031-.073.672-2.086.672-4.331 0-6.418-1.094-2.359-2.704-4.443-4.711-6.097z" fill="#263238"/><path d="m214.627 485.267c-.065-.064-.18 0-.129.09 1.095 2.003 2.06 4.073 2.888 6.2.745 1.784 2.157 4.518.745 6.302-.231.295 0 .398.256.141 1.797-1.527 1.194-4.312.552-6.238-.928-2.463-2.403-4.683-4.312-6.495z" fill="#263238"/><path d="m181.869 439.11c-.564-1.528-1.052-3.081-1.604-4.621-1.104-3.081-2.311-6.123-3.517-9.165-1.207-3.042-2.362-5.84-3.53-8.766-1.243-2.871-2.106-5.892-2.567-8.985-.278-3.155-.3-6.328-.064-9.486.154-3.235.359-6.482.616-9.717.5-6.418 1.283-12.835 2.015-19.253.886-7.24 1.656-14.492 2.901-21.693.007-.044-.002-.089-.027-.127-.024-.038-.062-.065-.105-.076-.044-.012-.09-.006-.13.015-.039.021-.07.056-.085.099-1.566 6.417-2.965 12.835-4.21 19.253-1.113 6.373-1.888 12.799-2.323 19.254-.265 3.286-.483 6.576-.655 9.87-.239 3.268-.299 6.546-.179 9.82.359 6.418 2.875 12.309 5.416 18.124 1.476 3.363 2.901 6.764 4.48 10.076.796 1.656 1.656 3.273 2.426 4.941.77 1.669 1.72 3.376 2.49 5.135 0 .102.231 0 .193-.09-.539-1.502-.976-3.068-1.541-4.608z" fill="#263238"/><path d="m172.114 337.49c0-.072-.028-.14-.078-.191-.051-.051-.12-.079-.191-.079-.072 0-.14.028-.191.079-.05.051-.079.119-.079.191-.244 3.568-.526 7.162-.552 10.743 0 1.759 0 3.517.142 5.276 0 .847.141 1.707.192 2.567.015.863.114 1.723.295 2.567 0 .027.011.053.03.072.02.02.046.031.073.031s.053-.011.073-.031c.019-.019.03-.045.03-.072.33-1.649.506-3.325.526-5.006.116-1.81.193-3.633.193-5.442 0-3.569-.244-7.163-.463-10.705z" fill="#263238"/><path d="m344.486 382.107c3.85.128 2.849-63.601-12.13-80.365-2.156-2.4-36.068 41.203-36.543 42.679s40.65 37.39 48.673 37.686z" fill="#f1463b"/><path d="m343.266 381.824c3.311.116 2.426-54.269-10.359-68.581-1.835-2.054-30.805 35.157-31.177 36.428-.373 1.27 34.72 31.909 41.536 32.153z" fill="#000" opacity=".1"/><path d="m331.521 377.871c.153-1.724.401-3.438.745-5.135.328-1.734.757-3.449 1.283-5.134.96-3.331 2.4-6.505 4.274-9.421 1.829-2.936 4.267-5.444 7.15-7.355.721-.467 1.467-.896 2.233-1.284.772-.391 1.564-.738 2.375-1.04 1.63-.636 3.314-1.126 5.032-1.463-3.543.287-6.971 1.395-10.012 3.235-1.538.905-2.946 2.014-4.185 3.299-1.261 1.265-2.391 2.654-3.376 4.146-1.883 3.014-3.294 6.3-4.184 9.742-.905 3.395-1.354 6.896-1.335 10.41z" fill="#263238"/><path d="m329.083 376.78c-.173-2.513-.173-5.035 0-7.548.123-2.509.402-5.008.834-7.483.791-4.947 2.269-9.76 4.39-14.299 1.059-2.264 2.304-4.436 3.723-6.495 1.439-2.046 3.04-3.973 4.787-5.763 1.752-1.8 3.659-3.44 5.699-4.903 2.044-1.487 4.188-2.829 6.418-4.018-4.649 2.052-8.905 4.897-12.579 8.407-1.836 1.772-3.503 3.71-4.98 5.789-1.462 2.086-2.75 4.288-3.851 6.585-2.141 4.624-3.594 9.537-4.312 14.582-.762 5.017-.805 10.116-.129 15.146z" fill="#263238"/><path d="m212.779 393.338c-3.85.487-8.766-63.049 4.583-81.148 1.912-2.567 39.791 37.66 40.368 39.085.578 1.425-37.018 41.1-44.951 42.063z" fill="#f1463b"/><path d="m213.934 392.953c-3.286.423-7.483-53.795 3.851-69.236 1.643-2.221 33.937 32.089 34.451 33.373.513 1.283-31.538 34.99-38.302 35.863z" fill="#000" opacity=".1"/><path d="m257.897 350.877c-2.567-3.851-15.262-17.521-18.625-20.807s-7.124-6.597-10.769-9.806c-1.908-1.712-3.829-3.393-5.763-5.045l-2.914-2.426c-.758-.784-1.622-1.458-2.567-2.002-2.311-1.027-7.008 11.039-9.383 24.76-1.467 9.194-1.923 18.522-1.361 27.815.218 5.218.784 10.415 1.695 15.557.858 5.087 2.08 10.106 3.658 15.018.007.02.02.036.037.048.018.012.038.019.059.019s.042-.007.059-.019.03-.028.037-.048c-.898-4.428-1.771-8.857-2.297-13.324-.526-4.466-.899-8.843-1.104-13.272-.463-8.896-.154-17.816.924-26.66 2.233-17.084 7.458-27.892 7.624-27.75l2.799 2.567c1.78 1.668 3.581 3.324 5.404 4.967 3.504 3.158 6.995 6.341 10.563 9.422 3.787 3.247 18.278 17.392 21.564 21.307.154.167.527-.064.36-.321z" fill="#263238"/><path d="m225.255 387.934c-.33-1.735-.758-3.449-1.284-5.134-.477-1.675-1.051-3.321-1.72-4.929-1.27-3.227-3-6.253-5.134-8.985-2.103-2.743-4.762-5.009-7.804-6.649-.76-.419-1.545-.792-2.349-1.117-.809-.282-1.617-.616-2.464-.821-1.68-.475-3.398-.801-5.135-.976 3.553-.049 7.068.729 10.269 2.272 1.614.772 3.12 1.751 4.479 2.914 1.377 1.149 2.629 2.439 3.736 3.85 2.183 2.817 3.916 5.957 5.134 9.306 1.217 3.305 1.981 6.759 2.272 10.269z" fill="#263238"/><path d="m227.59 386.612c-.045-2.52-.264-5.033-.655-7.522-.353-2.486-.864-4.946-1.527-7.368-1.265-4.855-3.205-9.508-5.764-13.824-1.269-2.154-2.711-4.202-4.312-6.122-1.627-1.899-3.399-3.667-5.302-5.289-1.913-1.627-3.966-3.083-6.135-4.351-2.163-1.284-4.41-2.42-6.726-3.401 4.821 1.61 9.325 4.046 13.311 7.2 1.988 1.593 3.826 3.363 5.493 5.289 1.659 1.939 3.153 4.013 4.467 6.199 2.575 4.401 4.482 9.159 5.661 14.12 1.21 4.926 1.712 10.001 1.489 15.069z" fill="#263238"/><path d="m319.661 438.892c1.181-.373 25.543-17.277 33.784-42.025 1.399-4.21-30.537-48.249-46.029-56.31-7.817-4.069-54.18 2.567-56.965 3.453-10.885 3.478-42.82 48.981-41.331 62.895.539 5.134 15.8 25.055 42.422 36.145 6.495 2.76 39.932 4.762 68.119-4.158z" fill="#f1463b"/><path d="m218.208 382.889c-3.442 3.927-6.279 8.344-8.421 13.106-1.02 2.401-1.778 4.906-2.259 7.47-.491 2.539-.762 5.116-.808 7.701.007.02.02.037.037.049.018.012.038.018.059.018s.041-.006.059-.018c.017-.012.03-.029.037-.049.604-2.503 1.284-4.967 2.041-7.419.757-2.451 1.682-4.762 2.567-7.123 1.747-4.803 4.061-9.379 6.893-13.632.103-.064-.103-.218-.205-.103z" fill="#263238"/><path d="m219.504 421.704c-2.375-2.414-4.5-5.063-6.341-7.906-1.958-3.338-2.786-7.219-2.361-11.065 0-.128-.18-.179-.193 0-.416 2.029-.648 4.091-.693 6.161.079 1.949.602 3.854 1.527 5.571 1.81 3.273 4.84 5.481 7.882 7.535.154.051.282-.18.179-.296z" fill="#263238"/><path d="m317.031 347.193c-2.016-1.899-3.967-3.85-6.149-5.583-.96-.819-2.032-1.498-3.183-2.015-1.181-.475-14.53-2.247-55.463 2.926-2.808.538-5.355 1.997-7.239 4.146-2.247 2.221-4.262 4.672-6.418 7.021-.103.103 0 .231.141.141 2.015-1.809 4.03-3.632 6.071-5.416s4.223-3.633 6.765-3.979c21.089-2.94 50.123-5.032 57.76-2.388 1.316.672 2.523 1.538 3.582 2.567 1.283.963 2.567 1.862 3.85 2.85.206.141.449-.103.283-.27z" fill="#263238"/><path d="m351.777 388.704c-2.441-4.312-5.441-8.282-8.921-11.809-1.989-2.092-4.094-4.056-6.058-6.174-.09-.09-.219 0-.142.154 2.157 2.439 4.121 5.045 6.046 7.702s3.62 4.941 5.288 7.521c1.669 2.58 2.914 4.993 4.288 7.56 1.485 2.636 2.596 5.465 3.298 8.408 0 .128.244.103.231 0-.451-4.676-1.82-9.217-4.03-13.362z" fill="#263238"/><path d="m351.956 400.847c-9.345 22.565-31.178 37.711-32.295 38.045-28.239 8.985-61.611 6.931-68.119 4.21-11.906-4.942-22.742-12.143-31.91-21.205l-.128-.167s10.923-3.658 16.892-2.464c5.968 1.194 14.517 9.601 27.173 9.319 12.656-.283 13.246-8.061 16.122-13.106 1.283-2.361 4.98-6.815 13.708-4.531 0 0 1.926-21.191 4.133-22.051 2.773-1.066 6.752 20.537 7.304 21.05.552.514 2.875-2.464 5.981 0 3.106 2.465 5.84 11.142 14.813 11.142 10.859 0 11.808-15.005 18.342-18.304 2.491-1.213 5.214-1.874 7.984-1.938z" fill="#fff"/><path d="m322.666 385.033c8.382-.898 13.49 7.021 14.53 16.802.847 7.933-3.273 16.545-11.321 17.405s-14.042-8.125-14.825-15.557c-.783-7.431 2.438-17.726 11.616-18.65z" fill="#263238"/><path d="m322.01 387.164c7.882-.835 12.682 6.61 13.658 15.8.796 7.445-3.068 15.557-10.641 16.353s-13.195-7.624-13.914-14.62c-.719-6.995 2.336-16.622 10.897-17.533z" fill="#fff"/><path d="m324.025 393.659c6.174-.655 9.922 5.134 10.692 12.373.616 5.828-2.413 12.169-8.33 12.836-5.917.668-10.269-5.969-10.911-11.449-.641-5.481 1.849-13.003 8.549-13.76z" fill="#263238"/><path d="m319.456 391.091c2.799-.295 4.506 2.349 4.852 5.622.283 2.645-1.091 5.52-3.786 5.815-2.696.295-4.685-2.721-4.955-5.198-.269-2.478.847-5.918 3.889-6.239z" fill="#fff"/><path d="m263.185 392.876c-10.872-1.451-17.444 6.174-18.741 15.929-.243 2.17-.052 4.366.561 6.461.613 2.096 1.637 4.048 3.012 5.744 1.374 1.696 3.073 3.102 4.996 4.136s4.032 1.675 6.205 1.886c10.449 1.386 18.15-7.24 19.138-14.659.305-2.279.153-4.597-.447-6.817s-1.637-4.298-3.049-6.113c-1.413-1.815-3.173-3.331-5.177-4.458-2.005-1.128-4.214-1.845-6.498-2.109z" fill="#263238"/><path d="m263.966 395.058c-10.268-1.361-16.404 5.801-17.623 14.979-.226 2.037-.044 4.099.534 6.065s1.542 3.798 2.834 5.389c1.292 1.59 2.887 2.909 4.694 3.877 1.806.969 3.786 1.569 5.826 1.766 9.819 1.284 17.072-6.803 17.97-13.773.287-2.139.145-4.314-.417-6.398-.563-2.084-1.536-4.035-2.861-5.739s-2.977-3.127-4.858-4.186c-1.881-1.058-3.954-1.732-6.099-1.98z" fill="#fff"/><path d="m265.507 401.501c-8.009-1.065-12.836 4.544-13.798 11.719-.176 1.597-.033 3.212.42 4.753.454 1.54 1.209 2.976 2.221 4.222 1.013 1.247 2.263 2.28 3.678 3.04 1.415.759 2.967 1.231 4.565 1.386 7.702 1.014 13.349-5.34 14.12-10.795.225-1.68.113-3.387-.331-5.023-.444-1.635-1.211-3.165-2.255-4.5s-2.344-2.447-3.825-3.272c-1.48-.824-3.111-1.345-4.795-1.53z" fill="#263238"/><path d="m258.486 398.716c-3.633-.488-5.828 2.066-6.251 5.314-.082.724-.019 1.457.186 2.157.204.699.545 1.351 1.004 1.917s1.026 1.036 1.668 1.381c.641.345 1.345.559 2.071.629 1.493.164 2.991-.252 4.186-1.163 1.195-.91 1.994-2.245 2.232-3.727.102-.764.05-1.54-.152-2.283s-.551-1.438-1.026-2.045c-.474-.606-1.066-1.111-1.739-1.486-.673-.374-1.414-.61-2.179-.694z" fill="#fff"/><path d="m292.937 410.653c.167.898 5.815 3.992 6.418 3.966s6.033-3.709 6.135-4.621c.103-.911-5.031-.988-6.34-.911-1.31.077-6.367.667-6.213 1.566z" fill="#263238"/><path d="m309.933 416.275c-.835 1.284-1.682 2.657-2.567 3.851-.449.597-.961 1.143-1.528 1.63-.217.183-.478.307-.757.359-.262-.041-.509-.147-.719-.308-.52-.444-.955-.979-1.283-1.578-.39-.64-.737-1.305-1.04-1.99-.611-1.399-1.134-2.835-1.566-4.3l-.783-2.683-.783 2.683c-.518 1.791-1.188 3.534-2.002 5.211-.395.823-.867 1.605-1.412 2.336-.458.692-1.11 1.232-1.874 1.554h-.257-.27c-.202-.003-.404-.025-.603-.065-.446-.086-.878-.233-1.284-.436-.811-.43-1.566-.961-2.246-1.579-1.4-1.288-2.664-2.716-3.773-4.261.861 1.735 1.953 3.346 3.247 4.787.667.75 1.436 1.402 2.285 1.939.92.638 2.053.892 3.157.706 1.054-.324 1.979-.97 2.644-1.849.643-.796 1.202-1.657 1.669-2.567.912-1.748 1.656-3.579 2.221-5.468h-1.566c.468 1.541 1.056 3.043 1.758 4.493.378.735.807 1.443 1.284 2.117.481.738 1.11 1.368 1.848 1.849.442.275.957.409 1.476.385.493-.099.942-.35 1.284-.719.585-.582 1.086-1.243 1.489-1.964.767-1.319 1.42-2.702 1.951-4.133z" fill="#263238"/><path d="m340.456 408.638c4.595-.462 9.19-.783 13.786-.989 4.595-.205 9.216-.359 13.811-.295 2.31 0 4.608 0 6.905.064 2.298.064 4.609.167 6.906.296 4.608.192 9.19.641 13.798 1.039-2.284-.372-4.556-.757-6.854-1.039-2.297-.283-4.595-.54-6.893-.719-4.608-.398-9.228-.527-13.862-.578s-9.242.167-13.85.514c-2.297.179-4.608.41-6.905.667-2.298.257-4.583.603-6.842 1.04z" fill="#263238"/><path d="m342.393 411.269c2.079 0 4.158.09 6.238.18 2.079.09 4.158.154 6.225.269 4.146.206 8.292.45 12.425.835 2.079.141 4.146.359 6.213.552l6.186.706 3.094.372 3.08.436c2.067.244 4.108.642 6.174.912-4.043-.976-8.125-1.823-12.258-2.439s-8.253-1.091-12.412-1.464c-4.159-.372-8.305-.564-12.476-.628-4.172-.065-8.331-.026-12.489.269z" fill="#263238"/><path d="m341.275 413.913c1.72.244 3.44.488 5.135.77 1.694.283 3.414.527 5.134.822 3.414.603 6.829 1.181 10.269 1.848 3.44.668 6.79 1.348 10.178 2.08 3.389.731 6.752 1.501 10.153 2.246-1.66-.556-3.316-1.083-4.967-1.579-1.669-.462-3.337-.937-5.032-1.36-3.35-.899-6.751-1.618-10.153-2.298-3.401-.68-6.841-1.207-10.268-1.643s-6.97-.783-10.449-.886z" fill="#263238"/><path d="m237.819 423.592c-2.849-.206-5.724-.244-8.587-.283-2.862-.038-5.724 0-8.6.167-5.724.218-11.436.693-17.135 1.284-5.699.59-11.386 1.489-17.008 2.567-2.811.526-5.609 1.155-8.407 1.797-1.399.321-2.772.693-4.159 1.065l-4.146 1.117c5.61-1.168 11.193-2.375 16.841-3.273 2.824-.488 5.648-.912 8.471-1.284 2.824-.372 5.661-.77 8.51-1.052 5.674-.706 11.373-1.156 17.072-1.528s11.424-.565 17.148-.577z" fill="#263238"/><path d="m235.794 427.109c-5.135.256-10.269.808-15.403 1.489-5.135.68-10.269 1.566-15.3 2.567-5.032 1.001-10.115 2.156-15.095 3.504-4.981 1.348-9.935 2.888-14.787 4.621 2.503-.642 4.955-1.438 7.458-2.041l3.748-.988 3.748-.899c2.567-.616 5.031-1.168 7.534-1.746 2.503-.577 5.045-1.078 7.573-1.54 5.045-1.04 10.128-1.925 15.223-2.734 2.568-.424 5.135-.809 7.702-1.168s5.044-.744 7.599-1.065z" fill="#263238"/><path d="m237.538 430.202c-4.262.655-8.459 1.592-12.644 2.567-4.184.976-8.33 2.233-12.45 3.479-4.12 1.245-8.189 2.669-12.207 4.21-2.028.744-4.018 1.553-6.02 2.361-2.002.809-3.953 1.682-5.917 2.568 4.056-1.412 8.099-2.901 12.168-4.262 4.069-1.36 8.151-2.734 12.258-3.992 4.108-1.258 8.215-2.49 12.348-3.671 2.067-.603 4.133-1.155 6.213-1.707 2.079-.552 4.158-1.04 6.251-1.553z" fill="#263238"/><path d="m328.595 468.966c-.07-.743.077-1.49.423-2.151.347-.661.877-1.207 1.528-1.572-.625-.38-1.113-.95-1.392-1.626s-.336-1.424-.161-2.135c.719-2.336 3.594-2.092 3.594-2.092-.558-.476-.929-1.135-1.047-1.859-.117-.724.026-1.466.405-2.094 1.002-2.054 4.082-.963 4.082-.963-.585-.622-.941-1.424-1.011-2.275s.151-1.701.626-2.41c.668-1.13 2.785-.988 2.927-1.181 4.826-6.264 14.94-18.971 39.944-12.836 18.997 4.685 24.953 23.028 24.157 38.995 0 .244 1.284.36 1.284 2.093.038.418-.046.838-.242 1.209-.196.372-.495.678-.862.883.403.344.674.818.767 1.339.094.522.004 1.06-.254 1.523-.239.501-.64.907-1.139 1.152-.498.244-1.065.314-1.607.196.333.642 1.951 1.656 1.052 3.979-.267.649-.746 1.188-1.36 1.528-.613.341-1.324.463-2.016.346.371.5.58 1.101.598 1.723s-.154 1.235-.495 1.755c-.295.514-2.426.642-2.785.873 20.537 10.59 52.498 10.269 58.98 12.836 21.217 8.382-3.748 28.855-22.065 22.475-1.155-.398.732-2.567 1.951-2.477 20.64 1.887 30.267-13.105 17.88-16.584-8.035-2.246-39.521-1.861-58.389-12.592-1.541-.872-2.568 1.284-2.94 1.708-9.755 9.806-30.241 12.668-43.218 5.429-16.558-9.229-18.047-24.016-17.636-32.089-.526-.32-.952-.78-1.231-1.329s-.399-1.164-.348-1.777z" fill="#455a64"/><g fill="#263238"><path d="m339.146 459.852c4.788 9.345 14.928 15.172 24.516 18.586 10.2 3.612 21.15 4.566 31.82 2.773.796-.141 1.143 1.091.334 1.283-11.248 1.92-22.804.84-33.501-3.132-9.537-3.581-19.472-9.447-24.273-18.804-.372-.796.732-1.437 1.104-.706z"/><path d="m335.873 470.917c6.909 7.677 15.53 13.618 25.164 17.34s20.01 5.121 30.286 4.082c.822-.089.809 1.181 0 1.284-10.445 1.038-20.989-.397-30.777-4.187-9.789-3.791-18.549-9.832-25.571-17.634-.552-.59.346-1.489.898-.885z"/><path d="m337.491 449.288.397 2.144c.154.809 1.374.462 1.284-.334-.077-.372-.141-.744-.205-1.104.065-.06.121-.129.167-.205 5.468-10.05 16.686-13.375 27.43-13.644-.546.482-1.025 1.034-1.425 1.643-.092-.059-.199-.09-.308-.09-5.103-.301-10.174.994-14.509 3.703s-7.72 6.699-9.687 11.417c0-.09-.115-.154-.167-.231-.474-.667-1.578 0-1.103.642 13.734 19.035 37.223 29.522 60.327 22.86.171-.044.316-.154.405-.306.089-.151.115-.332.07-.502-.044-.17-.154-.316-.306-.405-.151-.089-.332-.114-.502-.07-3.176.915-6.436 1.513-9.73 1.784 5.134-3.685 9.225-8.638 11.873-14.376.347-.744-.757-1.386-1.091-.642-2.711 5.92-7.001 10.979-12.399 14.62-.084.057-.154.133-.203.223-.049.089-.076.189-.079.291-1.181 0-2.337 0-3.505 0 .976-.783 1.926-1.592 2.85-2.414.13-.053.238-.147.308-.269 4.381-3.948 8.157-8.519 11.206-13.567.005-.022.005-.044 0-.065.282-.475.577-.95.847-1.437.065-.145.075-.309.026-.46-.048-.152-.151-.28-.288-.359-.138-.08-.3-.106-.455-.074-.156.033-.294.122-.387.251l-.116.218c-3.529-11.411-10.268-21.217-22.86-23.348-.105-.021-.213-.014-.314.02-.102.034-.192.093-.264.173-.05-.012-.103-.012-.154 0-.007-.083-.034-.163-.078-.233-.045-.071-.105-.13-.176-.172-.072-.043-.152-.068-.235-.073-.083-.006-.166.008-.242.041-1.749.646-3.267 1.798-4.359 3.308-1.093 1.511-1.711 3.313-1.777 5.176v.155c-.927.07-1.848.199-2.759.385.006-.034.006-.069 0-.103-.309-1.755.027-3.563.947-5.09.92-1.526 2.362-2.668 4.058-3.215.771-.256.437-1.489-.333-1.219-.637.214-1.248.498-1.823.847-.047-.102-.123-.187-.219-.245-.097-.057-.208-.083-.32-.076-11.193.128-23.014 3.479-28.945 13.67-.11-.038-.229-.046-.344-.024s-.222.074-.31.151c-.089.077-.156.175-.194.286s-.047.229-.024.344zm57.491 14.389c0-11.051-8.408-20.896-17.534-26.672 11.052 2.926 16.789 12.335 19.896 23.104-.758 1.194-1.515 2.4-2.362 3.568zm-3.851 4.891c.049-5.741-1.166-11.421-3.56-16.639-2.393-5.218-5.906-9.844-10.29-13.551 9.088 5.904 17.29 15.904 16.417 27.071-.873 1.065-1.72 2.105-2.618 3.119zm-18.406-31.653.295-.167c5.365 3.592 9.723 8.495 12.664 14.243 2.94 5.748 4.364 12.151 4.138 18.604-.004.103.023.206.077.295-.77.808-1.54 1.604-2.362 2.374.313-6.622-.855-13.231-3.417-19.346s-6.455-11.582-11.395-16.003zm5.609 39.38c.734-11.842-2.362-23.606-8.831-33.553-.086-.141-.225-.242-.385-.282.114-.742.334-1.464.654-2.144 7.453 8.997 11.348 20.414 10.949 32.09 0 .17.068.333.188.453.121.121.284.188.454.188s.334-.067.454-.188c.12-.12.188-.283.188-.453.41-12.09-3.658-23.906-11.424-33.181l-.154-.115c.368-.537.799-1.029 1.284-1.464 5.012 4.438 8.928 9.976 11.442 16.18 2.515 6.204 3.558 12.906 3.049 19.581-1.052.937-2.131 1.861-3.26 2.721-.081.062-.146.141-.191.233-.044.091-.067.192-.066.293h-.731c0-.629 0-1.283 0-1.9 0-.616-1.284-.808-1.284 0 0 .604 0 1.207-.064 1.797-.745-.064-1.464-.141-2.298-.256zm-1.951-12.31c.103.642.192 1.284.282 1.939-3.86-1.161-7.469-3.033-10.641-5.52-.032-.083-.086-.157-.156-.213-.07-.057-.153-.094-.242-.108-3.741-3.032-6.765-6.854-8.856-11.192.738-.552 1.514-1.049 2.323-1.489 3.751 7.293 9.825 13.129 17.264 16.583zm-16.122-17.161c1.338-.64 2.741-1.135 4.185-1.476-1.144 1.509-1.818 3.321-1.939 5.211-.841-1.192-1.6-2.44-2.272-3.735zm-5.506 3.851c.333-.334.68-.668 1.052-.989.283.604.603 1.194.924 1.759-.083.054-.149.129-.192.218-.927 1.587-1.333 3.425-1.163 5.255s.909 3.56 2.113 4.949c-.568.581-1.211 1.082-1.913 1.489-1.172-1.816-1.867-3.899-2.02-6.055-.152-2.157.242-4.317 1.147-6.28.045-.105.062-.22.052-.333zm2.708 1.976c.821 1.322 1.73 2.588 2.721 3.787-.094.084-.157.197-.18.321-.232 1.485-.808 2.896-1.681 4.12-.935-1.125-1.517-2.501-1.674-3.955-.158-1.454.116-2.922.788-4.221zm17.777 6.02c.334 1.284.642 2.503.899 3.761-1.227-.616-2.419-1.302-3.568-2.053.052-.05.092-.112.115-.18.202-.491.557-.904 1.013-1.177s.987-.392 1.516-.338zm-3.696 1.027c-1.266-.876-2.471-1.836-3.607-2.875v-.077c.325-1.159.969-2.203 1.858-3.013.89-.81 1.99-1.354 3.174-1.569.712 1.713 1.337 3.461 1.874 5.237-.718.023-1.414.253-2.004.663s-1.049.982-1.321 1.647zm-5.841-5.134c.239-1.439.908-2.771 1.918-3.823 1.011-1.051 2.315-1.772 3.743-2.069.372.758.745 1.515 1.091 2.298-1.272.272-2.453.865-3.431 1.724-.977.858-1.718 1.953-2.152 3.179-.398-.411-.796-.834-1.194-1.271zm6.418 20.37c2.088-.725 3.858-2.155 5.006-4.043.069 1.711.069 3.423 0 5.134-1.698-.263-3.382-.614-5.044-1.052zm-6.032-2.041c1.406-.82 2.577-1.99 3.4-3.395s1.27-2.999 1.297-4.627c1.831.933 3.743 1.697 5.712 2.285.117.039.243.039.36 0 .064.552.102 1.104.154 1.656-.089.012-.173.049-.243.105-.07.057-.124.131-.155.215-.508 1.208-1.293 2.28-2.292 3.127-.999.848-2.184 1.447-3.459 1.751-.11.02-.211.074-.29.155-.078.08-.129.183-.146.294-1.553-.423-2.952-.95-4.377-1.527zm-7.24-3.504c1.761-.466 3.355-1.419 4.599-2.749s2.088-2.984 2.435-4.773c1.142.856 2.338 1.636 3.581 2.337.101 1.64-.29 3.274-1.122 4.691-.832 1.418-2.068 2.555-3.55 3.267-.073.033-.139.081-.192.141-1.973-.858-3.893-1.831-5.751-2.914zm-3.17-2.002c3.94-.68 6.033-4.223 7.586-7.702.487.437.975.86 1.489 1.284-.22 1.814-1.02 3.508-2.28 4.831-1.261 1.323-2.915 2.204-4.716 2.511-.131.021-.25.089-.334.192-.59-.32-1.168-.718-1.745-1.103zm-2.439-1.733c1.957-.451 3.742-1.458 5.14-2.899 1.398-1.442 2.35-3.256 2.741-5.226.385.424.77.847 1.181 1.284-1.438 3.26-3.337 7.098-7.329 7.431-.106.01-.208.047-.296.108-.088.06-.158.143-.205.239-.423-.321-.821-.629-1.232-.924zm-2.914-8.587c.654-1.374 1.427-2.689 2.311-3.928-.443 1.826-.514 3.723-.21 5.577.304 1.855.978 3.629 1.981 5.218-.684.288-1.399.495-2.131.616-.766-.974-1.322-2.096-1.633-3.296-.312-1.199-.372-2.45-.177-3.674.017-.088.012-.18-.012-.266-.024-.087-.069-.167-.129-.234zm-1.925 4.557c.244-.629.488-1.284.744-1.874.066 1.105.322 2.19.758 3.208-.514-.423-1.014-.86-1.502-1.27zm-3.684-3.736c.11-.076.188-.19.218-.321 1.254-4.256 3.685-8.071 7.011-11.007 3.327-2.936 7.415-4.873 11.794-5.589-.187 1.066-.187 2.156 0 3.222-2.868.74-5.556 2.05-7.907 3.85-4.313 3.273-6.559 7.779-8.459 12.682-.898-.924-1.784-1.874-2.657-2.824zm19.716-18.945c-.103.231-.206.462-.295.693h-.129c-4.655.664-9.026 2.641-12.599 5.698s-6.202 7.069-7.579 11.566c-.821-.963-1.617-1.951-2.387-2.952.029-.034.051-.073.064-.116 1.779-4.57 4.95-8.465 9.063-11.135 4.114-2.67 8.963-3.978 13.862-3.741zm2.015 6.007c.919-.131 1.845-.204 2.772-.218.552.911 1.079 1.848 1.579 2.785-1.456.351-2.793 1.082-3.873 2.12-1.081 1.037-1.866 2.344-2.275 3.785-.308-.36-.59-.719-.873-1.092-.167-1.345-.012-2.712.452-3.986s1.224-2.42 2.218-3.343z"/><path d="m333.562 490.055c.064.808 1.283.808 1.283 0-.338-3.832.4-7.681 2.131-11.116.424.462.86.924 1.284 1.36-1.268 2.144-2.082 4.524-2.394 6.995-.311 2.47-.112 4.978.584 7.369.044.161.151.299.296.382.146.083.319.105.48.06.162-.044.299-.15.383-.296.083-.146.104-.318.06-.48-.636-2.175-.829-4.457-.566-6.708.262-2.251.974-4.427 2.094-6.397.744.718 1.501 1.424 2.284 2.092-1.659 2.631-2.493 5.698-2.395 8.806.098 3.109 1.125 6.117 2.947 8.638.475.667 1.566 0 1.104-.642-1.684-2.292-2.648-5.033-2.77-7.874-.121-2.841.607-5.654 2.09-8.081.719.603 1.437 1.168 2.182 1.733-.108.017-.209.065-.291.138s-.141.167-.171.273c-.866 2.593-1.124 5.351-.752 8.06s1.362 5.296 2.895 7.561c.081.111.194.194.323.239.13.045.27.049.402.011s.249-.116.335-.223c.087-.106.138-.237.147-.374 5.58-.503 10.861-2.748 15.095-6.418 1.104.334 2.208.655 3.337.924-2.038 2.151-4.5 3.855-7.231 5.004s-5.671 1.718-8.634 1.671c-.17 0-.333.068-.454.188-.12.12-.188.284-.188.454s.068.333.188.454c.121.12.284.188.454.188 3.186.05 6.347-.571 9.277-1.823s5.564-3.106 7.73-5.442c.089-.101.143-.227.154-.36.758.167 1.515.308 2.285.449-1.825 4.2-4.9 7.736-8.805 10.128-.145.085-.25.224-.292.386-.042.163-.018.336.067.48.085.145.224.25.387.292.162.042.335.018.48-.067 4.134-2.509 7.386-6.241 9.306-10.68.031-.113.031-.233 0-.346.821.128 1.655.231 2.49.334-1.067 3.733-3.017 7.154-5.686 9.973-.565.59.333 1.489.898.899 2.871-3.027 4.956-6.711 6.071-10.731l1.181.09c-.607 3.56-2.376 6.819-5.031 9.267-.604.565.295 1.463.898.899 2.891-2.655 4.796-6.212 5.404-10.089l2.156.077c-.691 3.205-2.209 6.175-4.402 8.612-.552.604.346 1.502.898.899 2.421-2.691 4.083-5.979 4.814-9.524 1.121 0 2.237-.039 3.35-.116-.195 2.601-1.402 5.02-3.363 6.739-.604.552.295 1.438.898.899 2.21-1.978 3.556-4.743 3.748-7.702l1.361-.128c.808-.09.821-1.361 0-1.284-9.137 1.039-18.389-.135-26.977-3.423-8.587-3.289-16.258-8.595-22.364-15.471-.5-.565-1.283.154-.975.745-.053.041-.097.094-.129.154-1.891 3.655-2.71 7.771-2.361 11.873zm21.037 8.523c-1.06-2.224-1.431-4.714-1.065-7.15 2.487 1.257 5.06 2.334 7.701 3.222-1.989 1.642-4.219 2.971-6.61 3.94zm-4.043 1.283c-1.351-3.38-1.716-7.074-1.052-10.654.937.578 1.899 1.13 2.862 1.656v.103c-.454 2.744-.074 5.561 1.091 8.086-.952.315-1.92.577-2.901.783zm-5.134-13.195c.006-.055.006-.111 0-.167.975.706 1.964 1.399 2.991 2.041-.07.081-.118.178-.142.282-.73 3.781-.383 7.69 1.002 11.283-.604.103-1.207.18-1.823.244-.094.008-.185.036-.267.083-.082.046-.153.11-.208.186-1.269-2.073-2.066-4.399-2.337-6.815-.271-2.415-.007-4.86.771-7.163z"/><path d="m363.136 485.049c10.859 5.07 22.912 4.12 34.515 3.08.822-.077.809 1.194 0 1.284-11.873 1.065-24.054 1.925-35.157-3.26-.744-.347-.038-1.451.642-1.104z"/><path d="m397.909 478.374 4.814-.539c.821-.09.808 1.181 0 1.284l-4.814.539c-.795.128-.795-1.143 0-1.284z"/><path d="m332.715 459.377c4.393 9.954 12.513 17.788 22.617 21.821.757.295.423 1.527-.334 1.219-10.417-4.118-18.801-12.161-23.348-22.398-.36-.732.731-1.386 1.065-.642z"/><path d="m336.785 453.485c7.577 9.874 17.457 17.74 28.777 22.912.745.347.103 1.438-.642 1.104-11.506-5.285-21.541-13.31-29.227-23.374-.551-.654.552-1.283 1.092-.642z"/><path d="m367.654 477.193c.17 0 .333.068.453.188.121.12.188.284.188.454s-.067.333-.188.454c-.12.12-.283.188-.453.188-.171 0-.334-.068-.454-.188-.121-.121-.188-.284-.188-.454s.067-.334.188-.454c.12-.12.283-.188.454-.188z"/><path d="m366.436 482.225c10.946 3.602 22.686 4.047 33.873 1.283.796-.192 1.143 1.027.347 1.22-11.41 2.828-23.386 2.383-34.554-1.284-.77-.27-.436-1.502.334-1.219z"/><path d="m360.03 483.804c.171 0 .334.067.454.188.121.12.188.283.188.453 0 .171-.067.334-.188.454-.12.121-.283.188-.454.188-.17 0-.333-.067-.453-.188-.121-.12-.188-.283-.188-.454 0-.17.067-.333.188-.453.12-.121.283-.188.453-.188z"/><path d="m331.239 472.829c-.223-.413-.416-.842-.578-1.284-.282-.77.937-1.103 1.22-.333.635 1.764 1.807 3.286 3.35 4.351.667.462 0 1.566-.642 1.104l-.398-.308c-1.165 2.598-1.608 5.463-1.283 8.292.09.808-1.181.808-1.284 0-.319-3.142.241-6.31 1.617-9.152-.412-.395-.79-.824-1.129-1.284-.349 1.016-.565 2.073-.642 3.145-.064.821-1.283.821-1.283 0 .097-1.558.453-3.089 1.052-4.531z"/><path d="m388.718 495.818 3.273-.488c.102-.013.207-.002.304.031.098.034.187.089.261.162.224-.601.58-1.144 1.042-1.588s1.018-.779 1.627-.979c.771-.257 1.104.975.334 1.283-.531.179-.999.506-1.349.943-.351.437-.568.965-.628 1.522-.077.808-1.347.808-1.283 0l-3.26.475c-.783-.026-1.13-1.246-.321-1.361z"/></g></svg>
