<svg width="31" height="18" viewBox="0 0 31 18" fill="none" xmlns="http://www.w3.org/2000/svg">
<path d="M19.4123 1.92529H11.5645V16.0748H19.4123V1.92529Z" fill="#FF5A00"/>
<path d="M12.0869 9C12.0869 6.12524 13.4335 3.57379 15.5 1.92524C13.9792 0.725243 12.0607 0 9.96817 0C5.01101 0 1 4.02524 1 9C1 13.9748 5.01101 18 9.96817 18C12.0607 18 13.9792 17.2748 15.5 16.0748C13.4306 14.4495 12.0869 11.8748 12.0869 9Z" fill="#EB001B"/>
<path d="M30 9C30 13.9748 25.989 18 21.0318 18C18.9393 18 17.0208 17.2748 15.5 16.0748C17.5926 14.4233 18.9131 11.8748 18.9131 9C18.9131 6.12524 17.5665 3.57379 15.5 1.92524C17.0179 0.725243 18.9363 0 21.0289 0C25.989 0 30 4.05146 30 9Z" fill="#F79E1B"/>
</svg>
