<svg width="224" height="128" viewBox="0 0 224 128" fill="none" xmlns="http://www.w3.org/2000/svg">
<path d="M30.3608 63.9411C29.6204 63.9698 28.8817 63.8781 28.1738 63.6695C26.5103 63.201 25.0235 62.2638 23.8916 60.9702C22.7597 59.6767 22.0308 58.0818 21.7923 56.3766C21.5704 54.7673 21.7888 53.1232 22.4246 51.617C22.7573 50.8002 23.2159 50.0389 23.7839 49.3605C24.3635 48.6392 25.0549 48.014 25.8316 47.5086C27.461 46.4195 29.3937 45.8769 31.3439 45.961C33.294 46.0452 35.158 46.7516 36.66 47.9758C38.0519 49.1089 39.0694 50.6312 39.5834 52.3499C40.0575 53.9013 40.1015 55.5557 39.7109 57.1397C39.288 58.8166 38.389 60.3422 37.1217 61.5334C35.8544 62.7247 34.2725 63.5312 32.5658 63.8561C31.8392 64.0055 31.0941 64.0342 30.3608 63.9411C31.0871 63.8877 31.8103 63.794 32.527 63.6604C34.4705 63.2271 36.2186 62.1587 37.4907 60.6266C38.4301 59.5093 39.0743 58.1781 39.3639 56.7556C39.6535 55.3331 39.5793 53.8651 39.148 52.4868C38.6404 50.8628 37.6638 49.4275 36.3387 48.3584C34.9124 47.2076 33.1477 46.5453 31.3032 46.4686C29.4586 46.3919 27.6311 46.9048 26.0882 47.9321C25.3485 48.4084 24.6882 48.9979 24.1322 49.6783C23.5908 50.3103 23.1497 51.0205 22.8248 51.7839C22.2552 53.1193 22.029 54.5713 22.1667 56.0078C22.3044 57.4443 22.8018 58.8197 23.6134 60.0086C24.7088 61.653 26.3351 62.8748 28.2284 63.476C28.9304 63.6671 29.6421 63.8223 30.3608 63.9411Z" fill="#E0E0E0"/>
<path d="M24.8819 74.5438L24.9804 74.8448L25.1572 75.7706L25.8291 79.444L25.7564 79.3764L34.0611 79.676L33.9265 79.7794L35.2866 74.952L35.3075 74.8616L35.391 74.8337C37.154 74.4402 38.8596 73.8176 40.4638 72.982L40.5549 72.9516L40.6403 73.0066L44.7432 75.8103L44.5133 75.8286L50.6899 70.2199L50.6449 70.4686L48.1907 66.1382L48.1513 66.0178L48.2254 65.9096C49.2062 64.4042 49.9828 62.7782 50.5349 61.0742L50.5764 60.9435L50.6979 60.903C52.2329 60.6243 53.9247 60.3101 55.6518 60.0007L55.4606 60.2147L55.907 51.9533L56.0768 52.1887C54.5702 51.7819 52.9174 51.3403 51.242 50.8812L51.1035 50.844L51.0591 50.7086C50.6851 48.9681 50.0835 47.2862 49.2695 45.7057L49.1791 45.6357L49.2635 45.5074L52.1731 41.3981L52.1908 41.7093L46.6451 35.6314L46.9654 35.6831C45.5399 36.4761 44.0786 37.3143 42.5693 38.1603L42.425 38.2084L42.2969 38.126C40.7985 37.1681 39.1772 36.4127 37.4749 35.8795L37.2998 35.6792L37.253 35.5363L37.2062 35.3933L37.1532 35.0771L37.0446 34.4624L36.835 33.2303L36.4132 30.7838L36.6564 30.9864C33.8445 30.8733 31.0756 30.7542 28.3496 30.6291L28.6087 30.4425L27.2511 35.2773L27.2069 35.4256L27.0702 35.4712C25.3126 35.8513 23.6115 36.4639 22.0129 37.2927L21.8762 37.3384L21.7481 37.2559L17.7084 34.4395L18.0065 34.4235C15.8868 36.3217 13.8221 38.182 11.8125 40.0045L11.8603 39.7132L14.3018 44.0562L14.3436 44.1841L14.2644 44.3024C13.2768 45.8032 12.4934 47.426 11.9347 49.1278L11.8933 49.2585L11.7717 49.299C10.0674 49.6008 8.42121 49.8999 6.81298 50.1863L6.99138 49.9848L6.53023 58.2011L6.38283 58.0083C8.08344 58.4672 9.67565 58.904 11.2124 59.3258L11.3233 59.3556L11.3578 59.4609C11.7247 61.2082 12.3203 62.8978 13.1296 64.4865L13.1592 64.5768L13.1029 64.6623C12.0403 66.1521 11.09 67.4958 10.1808 68.7591L10.1722 68.5784L15.7127 74.6663L15.5714 74.6467L19.9597 72.1972L20.0129 72.1794L20.0252 72.2171C21.1569 72.955 22.3604 73.5793 23.6181 74.0809L24.5748 74.4293C24.6814 74.461 24.785 74.5018 24.8844 74.5513C24.775 74.5377 24.6677 74.5119 24.5643 74.4745C24.3477 74.4049 24.0304 74.3105 23.6151 74.1487C22.3358 73.6755 21.1105 73.072 19.9585 72.3478L20.0344 72.3225C18.8446 73.0117 17.4112 73.8323 15.6659 74.8322L15.5823 74.8601L15.5552 74.7773L9.93342 68.7498L9.85336 68.6597L9.92233 68.5616C10.819 67.2858 11.7693 65.942 12.789 64.4499L12.7775 64.6207C11.9388 63.0136 11.3211 61.2999 10.9406 59.525L11.0683 59.6577L6.23604 58.3577L6.15044 58.3279L6.10117 58.1774L6.53235 49.921L6.54385 49.7503L6.70335 49.697C8.29394 49.4082 9.95535 49.1041 11.6572 48.7948L11.4792 48.946C12.0415 47.1975 12.8355 45.5291 13.8403 43.9849L13.8333 44.2209L11.3791 39.8905L11.3224 39.7174L11.4573 39.5889L17.6464 33.9928L17.7889 33.8618L17.9496 33.9667L22.0496 36.8131L21.7922 36.7989C23.4278 35.9479 25.1678 35.3166 26.9661 34.9218L26.7803 35.1006L28.1552 30.3184L28.2098 30.1249L28.4143 30.1318C31.1437 30.2502 33.9118 30.3668 36.7186 30.4816L36.9256 30.496L36.9871 30.6841L37.4014 33.1331L37.6186 34.3626L37.722 34.9874L37.8181 35.2809L37.8674 35.4313L37.8896 35.4991L37.9117 35.5668L37.7391 35.374C39.4913 35.9184 41.1609 36.6914 42.7046 37.6728L42.442 37.6686C43.9489 36.8151 45.4405 35.9667 46.8281 35.1865L47.0179 35.1231L47.1582 35.2683L52.7011 41.3637L52.8413 41.5089L52.7188 41.675L49.8092 45.7843L49.8264 45.5281C50.6624 47.1454 51.275 48.8694 51.6479 50.654L51.4802 50.4763C53.1531 50.9278 54.8083 51.3769 56.3098 51.7938L56.4937 51.8409L56.4796 52.0293L56.0231 60.2857L56.009 60.474L55.8419 60.5298C54.1148 60.8392 52.4205 61.1459 50.8856 61.4246L51.0611 61.2658C50.4993 63.0166 49.7025 64.6863 48.6924 66.2295L48.6992 66.0186L51.1407 70.3616L51.1875 70.5045L51.0653 70.6204L44.8612 76.1965L44.7569 76.2897L44.6364 76.2048L40.544 73.3559L40.7156 73.3654C39.0832 74.2041 37.3486 74.8251 35.5571 75.2123L35.6717 75.0989L34.2763 79.9213L34.2478 80.0143L34.1566 80.0448L25.8603 79.6422L25.7995 79.6625L25.7798 79.6023L25.1986 75.9487L25.055 74.9951L24.8819 74.5438Z" fill="#E0E0E0"/>
<path fill-rule="evenodd" clip-rule="evenodd" d="M61.1475 109.003C59.7145 108.56 58.3505 107.926 57.0926 107.118L53.4424 109.171L48.8377 104.114L51.2239 100.722C50.5359 99.3982 50.0336 97.985 49.7306 96.5218L45.7172 95.4326L46.094 88.5798L50.1981 87.836C50.6647 86.4058 51.3204 85.0418 52.1478 83.78L50.127 80.1812L55.2578 75.5476L58.6574 77.9016C60.0027 77.2088 61.4313 76.6927 62.9069 76.3665L64.043 72.3734L70.9289 72.6624L71.6328 76.7425C73.0637 77.1902 74.4271 77.824 75.6876 78.6274L79.3303 76.577L83.9425 81.6311L81.5285 85.0408C82.2091 86.3681 82.7112 87.7803 83.0217 89.2413L87.0275 90.3331L86.6584 97.1833L82.5466 97.9297C82.08 99.3577 81.427 100.721 80.6045 101.983L82.6254 105.582L77.4869 110.218L74.0849 107.857C72.7449 108.555 71.3191 109.072 69.8454 109.397L68.7017 113.392L61.8134 113.096L61.1196 109.021L61.1475 109.003ZM65.6837 100.211C67.1449 100.273 68.597 99.9035 69.8562 99.1479C71.1155 98.3924 72.1255 97.2852 72.7586 95.9662C73.3917 94.6473 73.6195 93.1758 73.4133 91.7377C73.2071 90.2996 72.576 88.9594 71.5998 87.8864C70.6237 86.8134 69.3463 86.0559 67.929 85.7095C66.5117 85.3631 65.0181 85.4433 63.637 85.9401C62.2559 86.4369 61.0492 87.3279 60.1695 88.5006C59.2897 89.6732 58.7764 91.0749 58.6942 92.5285C58.6396 93.4953 58.7772 94.4611 59.099 95.3707C59.4209 96.2802 59.9207 97.1157 60.5699 97.8293C61.2191 98.5429 62.0049 99.1206 62.8824 99.5293C63.7599 99.938 64.7118 100.17 65.6837 100.211Z" fill="#E0E0E0"/>
<path fill-rule="evenodd" clip-rule="evenodd" d="M88.9613 71.2372C86.7149 70.537 84.5757 69.5417 82.5998 68.2776L76.9124 71.4945L69.685 63.5742L73.4708 58.2294C72.3945 56.1486 71.6059 53.9303 71.1261 51.6339L64.8401 49.9345L65.423 39.182L71.8687 38.0239C72.596 35.7813 73.6216 33.6425 74.9179 31.6646L71.7471 26.046L79.7957 18.7693L85.1285 22.4728C87.2336 21.3789 89.4738 20.5694 91.7889 20.0662L93.5699 13.7964L104.348 14.2386L105.439 20.6347C107.687 21.3323 109.826 22.3277 111.801 23.5942L117.488 20.3773L124.708 28.3001L120.95 33.6273C122.026 35.7056 122.813 37.9214 123.293 40.2152L129.581 41.9222L128.998 52.6747L122.552 53.8328C121.825 56.0754 120.799 58.2142 119.503 60.1921L122.674 65.8107L114.625 73.0874L109.293 69.3839C107.187 70.4778 104.947 71.2873 102.632 71.7905L100.851 78.0603L90.0505 77.6006L88.9514 71.2071L88.9613 71.2372ZM96.081 57.4433C98.372 57.5396 100.648 56.958 102.621 55.772C104.595 54.586 106.177 52.8489 107.168 50.7803C108.158 48.7117 108.513 46.4044 108.188 44.1501C107.862 41.8958 106.871 39.7957 105.338 38.1153C103.806 36.4349 101.802 35.2497 99.579 34.7094C97.3563 34.169 95.0149 34.2979 92.8507 35.0797C90.6865 35.8616 88.7968 37.2612 87.4203 39.1017C86.0438 40.9422 85.2424 43.141 85.1174 45.4201C85.0344 46.9345 85.2521 48.447 85.7583 49.871C86.2644 51.295 87.049 52.6027 88.0672 53.7193C89.0854 54.8359 90.3172 55.7395 91.6923 56.3785C93.0674 57.0175 94.5587 57.3793 96.081 57.4433Z" fill="#E0E0E0"/>
<path d="M195.328 63.1341C195.441 62.5587 195.647 62.0056 195.938 61.4967C196.604 60.2968 197.603 59.3148 198.814 58.6683C200.025 58.0218 201.397 57.7384 202.765 57.8519C204.056 57.9615 205.293 58.4163 206.347 59.1688C206.921 59.5674 207.429 60.0535 207.853 60.6092C208.307 61.1815 208.667 61.8231 208.918 62.5096C209.468 63.9547 209.537 65.5382 209.117 67.0259C208.696 68.5135 207.808 69.8263 206.583 70.77C205.45 71.6448 204.082 72.1632 202.653 72.2596C201.362 72.3543 200.068 72.0998 198.909 71.5228C197.683 70.9047 196.662 69.9462 195.967 68.7622C195.273 67.5782 194.934 66.219 194.993 64.8476C195.009 64.2618 195.122 63.6827 195.328 63.1341C195.238 63.7029 195.179 64.2764 195.152 64.8518C195.135 66.4245 195.646 67.9575 196.605 69.2045C197.301 70.123 198.218 70.8513 199.271 71.3225C200.323 71.7936 201.477 71.9923 202.626 71.9003C203.98 71.7924 205.273 71.2902 206.345 70.4558C207.498 69.5576 208.334 68.3136 208.73 66.906C209.125 65.4984 209.06 64.0011 208.543 62.6335C208.307 61.9805 207.97 61.3692 207.542 60.8222C207.15 60.2949 206.679 59.8313 206.145 59.4479C205.211 58.7763 204.124 58.3489 202.983 58.2046C201.842 58.0603 200.683 58.2037 199.612 58.6216C198.135 59.1789 196.89 60.2187 196.078 61.5725C195.802 62.0799 195.551 62.6011 195.328 63.1341Z" fill="#E0E0E0"/>
<path d="M188.093 57.0666L187.841 57.09L187.09 57.0648L184.114 56.942L184.18 56.8978L182.435 63.2433L182.379 63.1215L185.881 65.0108L185.948 65.0427L185.954 65.112C185.939 66.5387 186.112 67.9612 186.469 69.3426L186.476 69.4181L186.418 69.4743L183.492 72.1463L183.52 71.966L186.752 77.702L186.567 77.624L190.378 76.4883L190.479 76.4789L190.549 76.5548C191.54 77.5728 192.662 78.4546 193.885 79.177L193.979 79.2317L193.988 79.3324C193.925 80.5634 193.861 81.9215 193.787 83.306L193.656 83.1214L199.992 84.9055L199.778 84.9952C200.369 83.9055 201.013 82.7092 201.674 81.4986L201.728 81.3984L201.842 81.3878C203.262 81.4031 204.678 81.2328 206.054 80.8813L206.125 80.8239L206.209 80.9113L208.872 83.8691L208.627 83.8284L214.358 80.6158L214.26 80.8535C213.903 79.6171 213.518 78.3453 213.136 77.0351L213.125 76.9155L213.212 76.8312C214.229 75.8439 215.111 74.7265 215.835 73.5081L216.023 73.4081L216.142 73.397L216.262 73.3858L216.517 73.4002L217.015 73.4237L218.01 73.477L219.987 73.5785L219.785 73.7306C220.385 71.5841 220.982 69.4718 221.576 67.3936L221.674 67.6257L218.165 65.737L218.058 65.6771L218.047 65.5639C218.072 64.1436 217.906 62.7264 217.553 61.3503L217.543 61.2371L217.63 61.1527L220.554 58.5317L220.512 58.7641C219.423 56.8003 218.354 54.8854 217.304 53.0195L217.522 53.1072L213.704 54.2309L213.597 54.2408L213.519 54.1592C212.533 53.1368 211.415 52.2503 210.195 51.5233L210.101 51.4685L210.092 51.3678C210.168 50.0023 210.235 48.682 210.306 47.3931L210.43 47.5657L204.131 45.7781L204.307 45.6981C203.641 46.9282 203.012 48.0787 202.404 49.189L202.361 49.2693L202.273 49.2775C200.849 49.2555 199.428 49.4198 198.046 49.7663L197.971 49.7733L197.915 49.7151C196.951 48.6368 196.08 47.6705 195.264 46.7498L195.406 46.7747L189.668 49.9816L189.709 49.8762L190.813 53.6838L190.817 53.7278L190.785 53.7308C190.006 54.474 189.302 55.2923 188.683 56.1737L188.238 56.85C188.194 56.9266 188.143 56.9993 188.087 57.0672C188.117 56.9853 188.157 56.9071 188.205 56.834C188.298 56.6793 188.43 56.4513 188.631 56.1596C189.231 55.2566 189.923 54.4178 190.696 53.6566L190.702 53.7195C190.383 52.6827 190.006 51.4355 189.548 49.9166L189.541 49.8474L189.61 49.8409L195.317 46.5608L195.401 46.5149L195.465 46.5851C196.293 47.4983 197.163 48.4647 198.137 49.5103L198.006 49.4717C199.407 49.1057 200.851 48.9286 202.299 48.9449L202.173 49.0202L204.063 45.5241L204.102 45.4634L204.227 45.4517L210.563 47.2232L210.693 47.2618L210.706 47.394C210.64 48.6696 210.574 50.0026 210.504 51.3675L210.419 51.204C211.675 51.942 212.827 52.8446 213.843 53.8878L213.661 53.8413L217.472 52.7056L217.617 52.6921L217.692 52.8184L220.912 58.5618L220.988 58.6944L220.877 58.8L217.919 61.4623L217.977 61.2664C218.34 62.6747 218.514 64.1252 218.493 65.5795L218.388 65.4052L221.853 67.298L221.993 67.3738L221.95 67.5301C221.361 69.6121 220.767 71.7242 220.166 73.8665L220.117 74.0234L219.96 74.0381L217.982 73.9303L216.988 73.8832L216.483 73.854L216.238 73.8769L216.112 73.8886L216.055 73.8939L215.999 73.8991L216.18 73.7998C215.438 75.0547 214.533 76.2062 213.49 77.2243L213.541 77.0227C213.929 78.3323 214.317 79.6293 214.67 80.8343L214.685 80.9916L214.547 81.0743L208.802 84.2818L208.664 84.3645L208.557 84.2412L205.895 81.2833L206.091 81.3413C204.682 81.7033 203.231 81.8748 201.777 81.8509L201.946 81.7527C201.29 82.9627 200.64 84.1596 200.042 85.2436L199.972 85.3771L199.829 85.3333L193.498 83.5424L193.354 83.4986L193.341 83.3602C193.416 81.9757 193.486 80.6171 193.549 79.386L193.64 79.5489C192.383 78.811 191.231 77.906 190.216 76.8589L190.378 76.9008L186.56 78.0246L186.44 78.0357L186.373 77.9214L183.171 72.1699L183.117 72.0733L183.205 71.9953L186.164 69.3393L186.125 69.4698C185.771 68.066 185.604 66.6215 185.63 65.1739L185.697 65.2819L182.205 63.3663L182.138 63.3281L182.131 63.2526L183.954 56.9315L183.95 56.8811L184 56.8765L186.944 57.0657L187.711 57.1212L188.093 57.0666Z" fill="#E0E0E0"/>
<path fill-rule="evenodd" clip-rule="evenodd" d="M154.976 78.9597C155.58 77.9329 156.321 76.9927 157.178 76.1646L156.248 72.9947L161.015 70.329L163.215 72.7585C164.369 72.4593 165.559 72.3187 166.75 72.3404L168.327 69.4385L173.582 70.9234L173.413 74.2147C174.439 74.8235 175.379 75.5663 176.208 76.4237L179.372 75.4943L182.037 80.2547L179.589 82.4633C179.883 83.6204 180.023 84.8109 180.008 86.0046L182.903 87.5759L181.424 92.8301L178.127 92.6611C177.518 93.6854 176.778 94.6252 175.924 95.4562L176.853 98.6198L172.087 101.292L169.878 98.8377C168.723 99.1307 167.535 99.2713 166.343 99.2558L164.766 102.151L159.511 100.673L159.68 97.3752C158.656 96.7668 157.716 96.0262 156.885 95.1725L153.722 96.1019L151.056 91.3352L153.51 89.1261C153.212 87.9721 153.069 86.7834 153.086 85.5916L150.19 84.014L151.675 78.7592L154.967 78.9351L154.976 78.9597ZM160.979 83.9869C160.665 85.1017 160.688 86.2848 161.045 87.3866C161.403 88.4884 162.079 89.4595 162.988 90.1771C163.898 90.8948 164.999 91.3268 166.154 91.4187C167.309 91.5105 168.465 91.258 169.476 90.693C170.487 90.1281 171.308 89.276 171.836 88.2446C172.363 87.2132 172.572 86.0486 172.438 84.8981C172.304 83.7475 171.831 82.6626 171.08 81.7804C170.33 80.8983 169.334 80.2584 168.22 79.9418C167.479 79.7312 166.704 79.6687 165.939 79.7581C165.173 79.8475 164.433 80.0869 163.761 80.4626C163.088 80.8384 162.496 81.343 162.019 81.9478C161.542 82.5525 161.188 83.2454 160.979 83.9869Z" fill="#E0E0E0"/>
<path d="M110.439 21.1021C115.659 18.1281 122.825 18.582 130.815 23.1684C146.796 32.4009 159.767 54.8432 159.767 73.3321C159.767 82.5527 156.53 89.0382 151.299 92.06L141.397 97.7571C136.166 100.767 128.94 100.337 120.95 95.7267C104.969 86.4942 91.998 64.0399 91.998 45.5629C91.998 36.3543 95.2229 29.8808 100.442 26.8471C102.628 25.5571 108.218 22.3562 110.439 21.1021Z" fill="#F04539" fill-opacity="0.95"/>
<path opacity="0.15" d="M110.439 21.1021C115.659 18.1281 122.825 18.582 130.815 23.1684C146.796 32.4009 159.767 54.8432 159.767 73.3321C159.767 82.5527 156.53 89.0382 151.299 92.06L141.397 97.7571C136.166 100.767 128.94 100.337 120.95 95.7267C104.969 86.4942 91.998 64.0399 91.998 45.5629C91.998 36.3543 95.2229 29.8808 100.442 26.8471C102.628 25.5571 108.218 22.3562 110.439 21.1021Z" fill="black"/>
<path d="M137.038 98.1394C138.85 101.066 141.331 103.522 144.276 105.306C147.568 107.225 151.336 108.173 155.144 108.041C155.322 108.04 155.498 107.999 155.658 107.921L165.5 102.248C165.651 102.163 165.777 102.039 165.865 101.889C165.953 101.739 165.999 101.568 165.999 101.394C165.999 101.22 165.953 101.049 165.865 100.899C165.777 100.749 165.651 100.625 165.5 100.54C163.001 99.1774 160.872 97.2265 159.297 94.8562C157.721 92.4859 156.747 89.7675 156.458 86.9362L137.038 98.1394Z" fill="#F04539" fill-opacity="0.95"/>
<path opacity="0.25" d="M137.038 98.1394C138.85 101.066 141.331 103.522 144.276 105.306C147.568 107.225 151.336 108.173 155.144 108.041C155.322 108.04 155.498 107.999 155.658 107.921L165.5 102.248C165.651 102.163 165.777 102.039 165.865 101.889C165.953 101.739 165.999 101.568 165.999 101.394C165.999 101.22 165.953 101.049 165.865 100.899C165.777 100.749 165.651 100.625 165.5 100.54C163.001 99.1774 160.872 97.2265 159.297 94.8562C157.721 92.4859 156.747 89.7675 156.458 86.9362L137.038 98.1394Z" fill="black"/>
<path d="M141.413 97.7341C152.718 91.207 152.718 70.0407 141.412 50.4579C130.105 30.875 111.775 20.2913 100.47 26.8184C89.1647 33.3455 89.1654 54.5117 100.472 74.0946C111.778 93.6774 130.108 104.261 141.413 97.7341Z" fill="#F04539" fill-opacity="0.95"/>
<path d="M146.713 88.2738C146.194 91.8165 146.773 95.4333 148.372 98.6367C149.972 101.84 152.515 104.476 155.659 106.189C155.848 106.297 155.996 106.464 156.08 106.664C156.164 106.865 156.181 107.087 156.126 107.297C156.072 107.508 155.95 107.694 155.779 107.828C155.609 107.963 155.399 108.037 155.182 108.041C151.369 108.165 147.598 107.213 144.301 105.294C136.609 100.421 135.642 94.6518 135.642 94.6518L146.713 88.2738Z" fill="#F04539" fill-opacity="0.95"/>
<path d="M117.931 70.418L121.633 72.4007C121.756 72.4995 121.905 72.5588 122.062 72.5708C122.218 72.5828 122.375 72.547 122.511 72.468C122.647 72.389 122.756 72.2707 122.823 72.1286C122.89 71.9864 122.913 71.8273 122.887 71.6721L123.401 44.2015C123.387 43.7886 123.271 43.3856 123.062 43.029C122.854 42.6724 122.56 42.3734 122.207 42.1591L115.136 38.3968C114.455 38.0385 113.941 38.3968 114.025 39.1254L116.557 68.3995C116.619 68.8177 116.775 69.2164 117.013 69.5659C117.251 69.9154 117.564 70.2067 117.931 70.418Z" fill="#FAFAFA"/>
<path d="M120.285 85.1088C122.673 86.3748 124.011 84.5833 123.868 82.1587C123.804 80.7567 123.407 79.3901 122.712 78.1712C122.016 76.9523 121.041 75.916 119.867 75.1477C117.478 73.8697 116.14 75.6732 116.283 78.0978C116.344 79.5006 116.738 80.8688 117.434 82.0883C118.13 83.3078 119.107 84.3434 120.285 85.1088Z" fill="#FAFAFA"/>
</svg>
