<svg width="314" height="385" viewBox="0 0 314 385" fill="none" xmlns="http://www.w3.org/2000/svg">
<path d="M137.589 366.912L138.968 367.464L138.761 365.995L137.382 365.443L137.589 366.912Z" fill="#4F2E16"/>
<path d="M76.8516 300.323L82.9007 295.563L102.329 280.269L123.678 288.793L127.205 290.202L127.56 290.36L130.811 291.661L154.052 300.944L136.298 314.927L134.525 316.337L134.21 316.583L131.333 318.85L128.466 321.116L109.334 336.184L86.2405 326.94L82.8515 325.58L82.4869 325.433L79.0782 324.073L57.6501 315.509L57.6205 315.489L76.8516 300.323Z" fill="#FFDDA8"/>
<path d="M109.315 336.154L116.319 384.708L135.462 369.749L135.531 369.69L138.91 367.049L140.053 366.162L141.531 365.019L143.314 363.619L161.067 349.724L154.033 300.934L134.506 316.317L133.028 317.48L131.895 318.376L128.437 321.096L109.315 336.154Z" fill="#BC7C46"/>
<path d="M79.0988 324.053L80.951 324.802L82.2908 325.344L82.5568 325.462L82.9017 325.6L86.2415 326.93L109.305 336.164L116.31 384.728L93.2561 375.573L89.2956 374.006L87.9557 373.464L86.1036 372.735L64.646 364.23L57.6215 315.499L79.0988 324.053Z" fill="#DDA866"/>
<path d="M110.683 374.993L111.038 375.141L110.22 369.454L109.865 369.307L110.683 374.993Z" fill="#4F2E16"/>
<path d="M108.781 370.059L109.067 370.423L110.062 369.526L111.441 371.369L111.668 371.212L109.983 368.975L108.781 370.059Z" fill="#4F2E16"/>
<path d="M107.147 373.584L107.501 373.722L106.684 368.035L106.319 367.897L107.147 373.584Z" fill="#4F2E16"/>
<path d="M105.234 368.638L105.539 369.002L106.515 368.115L107.904 369.948L108.13 369.8L106.436 367.563L105.234 368.638Z" fill="#4F2E16"/>
<path d="M105.817 373.229L112.427 375.87C112.526 375.909 112.595 375.86 112.575 375.752C112.565 375.653 112.467 375.525 112.378 375.495L105.767 372.854C105.669 372.815 105.61 372.864 105.62 372.973C105.629 373.071 105.718 373.189 105.817 373.229Z" fill="#4F2E16"/>
<path d="M106.081 374.764L112.574 377.356C113.263 377.632 113.726 377.257 113.628 376.528L112.633 369.61C112.524 368.881 111.884 368.063 111.194 367.797L104.702 365.195C104.022 364.929 103.559 365.294 103.658 366.023L104.653 372.941C104.771 373.67 105.401 374.488 106.081 374.764ZM111.253 368.171C111.746 368.368 112.199 368.95 112.278 369.472L113.273 376.39C113.352 376.913 113.007 377.179 112.524 376.982L106.032 374.38C105.549 374.183 105.086 373.601 105.017 373.079L104.012 366.161C103.933 365.639 104.278 365.373 104.761 365.57L111.253 368.171Z" fill="#4F2E16"/>
<path d="M94.6346 370.27L101.314 372.941C102.014 373.227 102.496 372.842 102.388 372.093L101.364 364.978C101.255 364.229 100.595 363.392 99.8956 363.106L93.2159 360.435C92.5164 360.159 92.0337 360.534 92.142 361.283L93.1666 368.398C93.2849 369.147 93.9351 369.985 94.6346 370.27ZM99.9547 363.49C100.457 363.687 100.92 364.289 100.999 364.821L102.024 371.946C102.102 372.478 101.767 372.754 101.255 372.547L94.5755 369.876C94.0829 369.679 93.6002 369.078 93.5213 368.546L92.4967 361.431C92.4179 360.899 92.7726 360.623 93.2652 360.83L99.9547 363.49Z" fill="#4F2E16"/>
<path d="M97.6996 369.661C97.808 369.7 97.8769 369.641 97.8572 369.532L97.1183 364.438C97.0986 364.329 97.0001 364.211 96.9016 364.172C96.8031 364.132 96.7341 364.191 96.7538 364.29L97.4927 369.395C97.5124 369.503 97.6011 369.621 97.6996 369.661Z" fill="#4F2E16"/>
<path d="M96.8817 369.327L98.527 369.987C98.6255 370.036 98.6945 369.977 98.6846 369.869C98.6649 369.76 98.5762 369.642 98.4679 369.602L96.8127 368.942C96.7142 368.903 96.6452 368.952 96.6551 369.06C96.6748 369.169 96.7733 369.287 96.8817 369.327Z" fill="#4F2E16"/>
<path d="M95.0784 363.008L95.4232 365.393C95.5119 366.033 96.0735 366.753 96.6843 366.989L98.0242 367.521C98.6252 367.768 99.039 367.442 98.9404 366.802L98.5956 364.417L97.9355 364.151L98.3 366.703C98.3197 366.812 98.2508 366.861 98.1523 366.822C98.0537 366.782 97.9552 366.664 97.9355 366.555L97.571 364.003L95.0784 363.008Z" fill="#4F2E16"/>
<path d="M102.447 281.008L152.761 301.131L109.206 335.209L58.921 315.282L102.447 281.008Z" fill="#F9C98A"/>
<path d="M57.7096 315.974L57.7589 316.358L109.452 337.023L109.393 336.639L57.7096 315.974Z" fill="#BC7C46"/>
<path d="M82.4874 325.423L82.8421 325.571L127.56 290.36L127.215 290.212L82.4874 325.423Z" fill="#BC7C46"/>
<path d="M82.566 325.453L82.6744 326.242L82.9995 326.192L82.9108 325.591L82.566 325.453Z" fill="#BC7C46"/>
<path d="M79.0784 324.023L86.1029 372.725L93.2653 375.563L86.2408 326.881L79.0784 324.023Z" fill="#9B7451"/>
<path d="M79.0785 324.053L82.4873 325.413L82.842 325.571L86.2311 326.931L130.811 291.651L127.56 290.36L127.205 290.202L123.678 288.793L79.0785 324.053Z" fill="#CAAF8F"/>
<path d="M128.437 321.058L135.462 369.75L135.541 369.691L141.531 365.01L134.506 316.288L128.437 321.058Z" fill="#9B7451"/>
<path d="M76.8616 300.323L128.466 321.107L131.323 318.83L131.629 318.584L134.2 316.564L134.515 316.317L91.147 298.875L87.886 297.564L82.9009 295.563L80.5462 297.406L79.0192 298.628L76.8616 300.323Z" fill="#CAAF8F"/>
<path d="M62.9411 334.046L77.8767 340.018L76.1624 328.162L61.2269 322.19L62.9411 334.046Z" fill="#E5E0DC"/>
<path d="M63.0591 325.562L75.1475 330.401L74.9603 329.07L62.862 324.231L63.0591 325.562Z" fill="#4F2E16"/>
<path d="M63.4046 327.947L75.493 332.785L75.4044 332.194L63.316 327.365L63.4046 327.947Z" fill="#B2AEAB"/>
<path d="M63.6213 329.503L75.7196 334.342L75.6309 333.751L63.5425 328.922L63.6213 329.503Z" fill="#B2AEAB"/>
<path d="M63.8668 331.179L75.9552 336.018L75.8764 335.427L63.7782 330.598L63.8668 331.179Z" fill="#B2AEAB"/>
<path d="M64.0937 332.736L76.1821 337.574L76.1033 336.983L64.0051 332.154L64.0937 332.736Z" fill="#B2AEAB"/>
<path d="M79.0188 298.629L91.1465 298.876L104.457 299.161L104.486 297.91L87.8855 297.565L80.5458 297.407L79.0188 298.629Z" fill="#4F2E16"/>
<path d="M104.438 296.595L107.32 297.747L105.777 301.609L102.895 300.457L104.438 296.595Z" fill="#939899"/>
<path d="M105.186 295.288C105.264 295.495 105.333 295.721 105.363 295.977C105.422 296.431 105.412 296.933 105.343 297.426V297.436C105.195 297.436 105.038 297.515 104.88 297.643C104.289 298.106 103.905 299.072 104.003 299.811C104.043 300.018 104.092 300.185 104.2 300.294C103.915 300.708 103.59 301.072 103.225 301.358C103.028 301.516 102.811 301.634 102.614 301.733C102.112 301.979 101.629 302.008 101.215 301.851C100.93 301.733 100.693 301.535 100.506 301.26C100.299 300.964 100.171 300.57 100.102 300.107C99.836 298.274 100.801 295.849 102.26 294.706C102.634 294.42 102.989 294.243 103.343 294.164C103.668 294.095 103.984 294.105 104.26 294.223C104.663 294.411 104.989 294.765 105.186 295.288Z" fill="#939899"/>
<path d="M106.585 295.169L104.26 294.243C103.984 294.135 103.669 294.115 103.343 294.184L100.506 301.269C100.693 301.545 100.93 301.752 101.215 301.861L103.54 302.787L104.447 300.51C104.338 300.471 104.26 300.412 104.191 300.304C104.082 300.195 104.033 300.028 103.994 299.821C103.895 299.082 104.279 298.116 104.87 297.653C105.028 297.525 105.176 297.446 105.334 297.446V297.436C105.452 297.416 105.57 297.426 105.659 297.465L106.585 295.169Z" fill="#939899"/>
<path d="M104.585 295.662C104.782 295.505 104.969 295.377 105.196 295.298C105.688 295.051 106.181 295.022 106.585 295.189C107.146 295.396 107.56 296.007 107.698 296.924C107.826 297.801 107.669 298.826 107.314 299.762C107.156 300.166 106.969 300.54 106.762 300.905C106.407 301.457 106.013 301.95 105.56 302.304C104.831 302.876 104.122 303.024 103.56 302.797C103.146 302.63 102.831 302.275 102.624 301.743C102.545 301.536 102.477 301.309 102.447 301.063C102.171 299.22 103.137 296.805 104.585 295.662ZM104.004 299.821C104.043 300.038 104.092 300.196 104.201 300.314C104.27 300.422 104.348 300.471 104.457 300.511C104.674 300.59 104.969 300.54 105.265 300.304C105.353 300.235 105.442 300.156 105.521 300.048C105.777 299.742 105.984 299.328 106.082 298.905C106.141 298.638 106.171 298.372 106.132 298.136C106.063 297.781 105.905 297.535 105.678 297.446C105.58 297.407 105.472 297.397 105.363 297.426L105.353 297.436C105.196 297.436 105.048 297.515 104.89 297.643C104.802 297.722 104.713 297.801 104.634 297.889L104.476 297.791L103.767 298.816L104.063 299.023C103.984 299.299 103.964 299.575 104.004 299.821Z" fill="#D1D1D1"/>
<path d="M131.894 318.378L138.968 367.464L140.101 366.558L133.027 317.481L131.894 318.378Z" fill="#4F2E16"/>
<path d="M103.757 298.826L104.053 299.033C104.161 298.609 104.349 298.205 104.624 297.899L104.467 297.801L103.757 298.826Z" fill="#D1D1D1"/>
<path d="M104.053 299.042L105.511 300.057L106.742 300.905L131.884 318.387L133.017 317.48L107.294 299.772L106.062 298.924L104.614 297.919C104.348 298.215 104.151 298.619 104.053 299.042Z" fill="#4F2E16"/>
<path d="M104.171 298.667C104.102 298.815 104.053 298.982 104.033 299.14L104.043 299.13L104.328 298.795L104.171 298.667Z" fill="#4F2E16"/>
<path d="M13.976 220.451L101.117 296.037C100.959 296.283 100.811 296.549 100.683 296.805L14.1632 221.762L13.976 220.451Z" fill="#4F2E16"/>
<path d="M104.683 299.328L167.115 197.756L166.367 197.293L104.053 299.043L104.683 299.328Z" fill="#4F2E16"/>
<path d="M104.792 299.141L122.899 230.681L122.052 230.454L104.053 299.043L104.792 299.141Z" fill="#4F2E16"/>
<path d="M104.171 298.67C104.102 298.818 104.053 298.985 104.033 299.143L104.043 299.133L104.417 298.887L104.211 298.581C104.191 298.601 104.181 298.63 104.171 298.67Z" fill="#4F2E16"/>
<path d="M62.7238 237.757L101.294 295.772C101.472 295.516 101.678 295.269 101.885 295.062L63.4528 237.274L62.7238 237.757Z" fill="#4F2E16"/>
<path d="M22.5968 153.883C51.3154 127.404 102.999 119.944 138.023 137.229C173.056 154.504 178.169 189.971 149.451 216.441C120.732 242.92 69.0588 250.38 34.0251 233.095C-1.00851 215.83 -6.1217 180.363 22.5968 153.883Z" fill="#A20F0F"/>
<path d="M0.0261536 190.168C0.47934 177.308 6.86343 164.004 19.4937 152.356C25.1093 147.192 31.5624 142.708 38.5671 138.963C46.8034 134.558 55.8278 131.158 65.1971 128.833C69.2856 127.827 73.4136 127.019 77.5908 126.418C78.0637 126.349 78.5268 126.28 78.9997 126.231C82.5168 125.758 86.0635 125.433 89.6004 125.265C92.9205 125.108 96.2406 125.078 99.5411 125.206C99.6199 125.206 99.6987 125.216 99.7677 125.216C103.393 125.344 106.979 125.63 110.526 126.093C110.536 126.083 110.536 126.083 110.546 126.093C121.225 127.483 131.432 130.38 140.565 134.883C143.806 136.48 146.801 138.224 149.54 140.106C129.944 132.42 106.477 131.316 84.5463 136.027C84.1227 135.938 83.6991 135.869 83.2459 135.82C83.167 135.81 83.0882 135.8 82.9996 135.8C82.5464 135.741 82.0932 135.721 81.6301 135.711C81.2164 135.711 80.8026 135.701 80.379 135.731C80.1524 135.741 79.9159 135.761 79.6893 135.78C79.1967 135.839 78.7041 135.908 78.2115 136.007C77.916 136.056 77.6302 136.125 77.3445 136.184C77.0687 136.253 76.8027 136.322 76.5367 136.401C76.5071 136.391 76.4874 136.411 76.4677 136.421C76.2313 136.49 76.0047 136.549 75.7781 136.638C75.719 136.647 75.6598 136.667 75.6106 136.697C75.4037 136.766 75.1968 136.854 74.9998 136.933C74.9406 136.953 74.8815 136.973 74.8224 137.002C73.7781 137.446 72.8225 137.988 72.0146 138.628C71.5319 139.013 71.1082 139.417 70.7634 139.84C69.1378 141.801 69.2462 143.969 70.9506 145.556C71.5319 146.078 72.2905 146.542 73.2067 146.916C75.0195 147.635 77.2263 147.901 79.4233 147.714C80.2509 147.655 81.0784 147.527 81.906 147.35C83.2557 147.064 84.5562 146.601 85.699 146.009C86.3591 145.674 86.9798 145.29 87.5315 144.856C87.8664 144.59 88.1719 144.314 88.4477 144.029C93.354 143.9 103.974 143.841 113.028 145.822C118.565 147.024 126.003 148.985 135.658 153.755C156.978 164.28 167.746 181.22 167.106 199.028C163.875 205.591 159.037 212.006 152.555 217.968C151.106 219.308 149.599 220.599 148.042 221.841C140.033 228.247 130.663 233.411 120.555 237.224C94.2407 247.217 62.9902 248.104 38.0351 238.318C35.7987 237.441 33.6116 236.485 31.4934 235.441C10.154 224.916 -0.604385 207.976 0.0261536 190.168Z" fill="#D5EEFA"/>
<path d="M140.565 134.874C143.806 136.47 146.801 138.214 149.54 140.097C146.801 139.022 143.983 138.086 141.107 137.268C139.56 135.721 137.895 134.263 136.141 132.873C137.639 133.504 139.126 134.164 140.565 134.874Z" fill="#D5EEFA"/>
<path d="M148.988 179.978C146.062 181.447 142.397 185.123 137.993 183.664C134.624 182.058 131.392 181.476 129.777 177.515C128.614 183.97 128.338 196.584 118.811 195.864C116.762 196.16 113.087 192.504 111.619 189.567C110.319 202.329 95.5212 208.656 82.9107 208.38C76.4577 207.217 67.9554 206.35 65.0097 200.486C62.2216 195.647 57.5222 192.139 56.7833 187.005C57.0788 189.055 56.4976 192.287 54.3006 191.558C52.2514 191.853 53.7094 187.448 52.3893 185.546C43.02 193.184 25.1387 199.954 18.0847 187.35C15.1488 181.486 12.9321 173.425 17.1783 166.527C18.9319 164.181 19.5132 160.949 21.2767 158.604C19.3753 159.924 17.9073 156.997 17.7595 155.972C17.3556 155.716 16.9812 155.44 16.6364 155.155C17.5527 154.208 18.4985 153.282 19.5034 152.356C25.119 147.192 31.572 142.708 38.5768 138.963C46.813 134.558 55.8375 131.158 65.2067 128.833C69.2953 127.827 73.4233 127.019 77.6005 126.418C78.0734 126.349 78.5364 126.28 79.0093 126.231C82.5265 125.758 86.0732 125.433 89.6101 125.265C92.9302 125.108 96.2503 125.078 99.5507 125.206C99.6295 125.206 99.7083 125.216 99.7773 125.216C103.403 125.344 106.989 125.63 110.536 126.093C110.546 126.083 110.546 126.083 110.555 126.093C119.54 127.266 128.19 129.513 136.151 132.883C137.904 134.272 139.56 135.741 141.116 137.278C123.422 132.233 103.423 131.976 84.556 136.027C84.1324 135.938 83.7087 135.869 83.2555 135.82C83.1767 135.81 83.0979 135.8 83.0092 135.8C82.556 135.741 82.1029 135.721 81.6398 135.711C81.226 135.711 80.8122 135.701 80.3886 135.731C80.162 135.741 79.9256 135.761 79.699 135.78C79.2064 135.839 78.7138 135.908 78.2212 136.007C77.9256 136.056 77.6399 136.125 77.3542 136.184C77.0783 136.253 76.8123 136.322 76.5463 136.401C76.5168 136.391 76.4971 136.411 76.4774 136.421C76.2409 136.49 76.0143 136.549 75.7877 136.638C75.7286 136.647 75.6695 136.667 75.6202 136.697C75.4134 136.766 75.2065 136.854 75.0094 136.933C74.9503 136.953 74.8912 136.973 74.8321 137.002C73.7878 137.446 72.8321 137.988 72.0243 138.628C71.5415 139.013 71.1179 139.417 70.7731 139.84C69.1475 141.801 69.2559 143.969 70.9602 145.556C71.5415 146.078 72.3001 146.542 73.2164 146.916C75.0291 147.635 77.236 147.901 79.433 147.714C80.2605 147.655 81.0881 147.527 81.9157 147.35C83.2654 147.064 84.5658 146.601 85.7087 146.009C86.3688 145.674 86.9894 145.29 87.5412 144.856C87.8761 144.59 88.1815 144.314 88.4574 144.029C93.3637 143.9 103.984 143.841 113.038 145.822C118.575 147.024 126.013 148.985 135.668 153.755C139.235 155.509 142.496 157.461 145.461 159.55C145.313 159.569 145.175 159.589 145.018 159.609C151.756 162.821 157.49 173.514 148.988 179.978Z" fill="#EAF5F9"/>
<path d="M88.4377 144.018C94.2307 143.88 100.043 144.393 106.142 145.073C116.358 146.206 126.388 149.182 135.639 153.745C156.958 164.27 167.726 181.21 167.086 199.017C177.588 177.761 171.263 154.908 149.54 140.096C129.944 132.409 106.477 131.306 84.5462 136.016C85.1669 136.164 85.7678 136.332 86.3196 136.558C90.2111 138.115 91.0189 141.298 88.4377 144.018Z" fill="#CC0E0E"/>
<path d="M72.1621 146.363C66.5564 147.871 61.1378 150 55.4729 152.385C45.9953 156.366 37.2172 162.052 29.6311 169.049C12.1537 185.171 6.61691 204.467 12.2621 221.367C-3.81634 203.954 -4.21043 180.234 12.4394 159.884C29.0597 146.965 51.2661 139.278 73.6202 137.593C73.0685 137.908 72.5365 138.243 72.0735 138.618C68.7928 141.2 68.911 144.491 72.1621 146.363Z" fill="#CC0E0E"/>
<path d="M120.545 237.225C130.644 233.411 140.023 228.237 148.032 221.842C148.042 213.061 146.229 202.448 140.633 190.563C130.299 168.626 104.693 149.942 85.6889 146C84.5363 146.601 83.2457 147.054 81.8959 147.34C96.2503 157.333 123.836 224.384 120.545 237.225Z" fill="#CC0E0E"/>
<path d="M67.7683 244.842C57 244.034 46.5471 241.728 37.0596 237.855C34.5671 229.439 33.306 218.737 35.3158 205.758C39.0201 181.792 58.3103 156.633 75.4232 147.478C76.6941 147.724 78.0734 147.793 79.4429 147.694C68.4973 161.343 60.9802 233.46 67.7683 244.842Z" fill="#CC0E0E"/>
<path d="M38.5672 138.953C51.7492 134.991 66.9902 134.508 74.6846 137.041C74.724 137.021 74.7634 137.011 74.8028 136.992C74.8619 136.962 74.921 136.943 74.9802 136.923C75.1772 136.834 75.3841 136.755 75.591 136.686C75.6402 136.657 75.6994 136.637 75.7585 136.627C75.8964 136.578 76.0442 136.519 76.2018 136.479C76.2806 136.46 76.3594 136.42 76.458 136.41C76.4777 136.401 76.4974 136.381 76.5269 136.391C76.7831 136.302 77.0589 136.233 77.3348 136.174C77.5909 136.105 77.8372 136.046 78.0934 135.996C77.8372 134.43 71.798 130.714 65.1873 128.822C55.8279 131.148 46.8035 134.548 38.5672 138.953Z" fill="#CC0E0E"/>
<path d="M80.3791 135.732C80.8028 135.702 81.2264 135.702 81.6303 135.712C82.0934 135.722 82.5564 135.732 82.9997 135.801C88.5267 132.174 99.7383 126.596 110.516 126.094C106.97 125.631 103.384 125.345 99.758 125.217C99.689 125.217 99.6003 125.207 99.5314 125.207C96.231 125.089 92.9108 125.118 89.5907 125.266C86.2509 127.887 81.0294 132.637 80.3791 135.732Z" fill="#CC0E0E"/>
<path d="M86.3291 136.558C85.7774 136.331 85.1764 136.164 84.5557 136.016C106.476 131.315 129.954 132.409 149.549 140.096C151.027 141.101 152.426 142.155 153.766 143.229C157.293 149.083 157.46 155.43 150.288 159.884C149.441 160.475 148.544 160.869 147.608 161.126C144.081 158.416 140.101 155.932 135.648 153.744C126.397 149.182 116.368 146.206 106.151 145.072C100.043 144.392 94.2402 143.88 88.4473 144.018C91.0186 141.298 90.2108 138.115 86.3291 136.558Z" fill="#E51717"/>
<path d="M5.60217 173.434C5.93714 171.552 6.58739 169.276 7.37555 167.029C8.8435 164.614 10.5282 162.229 12.4394 159.884C29.0597 146.965 51.2661 139.278 73.6202 137.593C73.0685 137.908 72.5365 138.243 72.0735 138.618C68.7928 141.209 68.911 144.491 72.1523 146.363C66.5465 147.871 61.1279 150 55.4631 152.385C45.9854 156.366 37.2073 162.052 29.6213 169.049C23.5722 174.627 18.9615 180.589 15.7399 186.689C8.1834 187.339 4.67609 180.283 5.60217 173.434Z" fill="#E51717"/>
<path d="M81.896 147.34C83.2457 147.054 84.5462 146.591 85.689 146C102.516 149.489 124.526 164.547 136.515 183.182C137.767 185.143 136.24 190.257 135.382 192.13C133.993 195.185 131.491 197.914 128.328 199.156C124.851 200.526 121.077 199.826 117.747 198.358C115.363 197.303 109.137 194.327 108.073 191.795C99.7576 171.977 89.1372 152.386 81.896 147.34Z" fill="#E51717"/>
<path d="M75.4232 147.478C76.6941 147.724 78.0734 147.793 79.4429 147.694C73.4529 155.164 68.4973 180.106 66.3397 203.048C62.5172 207.995 57.5616 212.124 50.813 210.912C42.094 209.148 39.2861 202.339 38.1236 194.534C44.9806 174.341 60.9802 155.204 75.4232 147.478Z" fill="#E51717"/>
<path d="M65.1968 128.822C71.8075 130.714 77.8369 134.439 78.1029 135.996C77.8468 136.046 77.5906 136.105 77.3443 136.174C77.0685 136.233 76.7926 136.302 76.5364 136.391C76.5069 136.381 76.4872 136.401 76.4675 136.41C76.3788 136.42 76.3 136.46 76.2113 136.479C76.0636 136.519 75.9158 136.578 75.768 136.627C75.7089 136.637 75.6498 136.657 75.6005 136.686C75.3936 136.755 75.1867 136.834 74.9897 136.923C74.9306 136.943 74.8715 136.962 74.8123 136.992C74.7729 137.011 74.7335 137.021 74.6941 137.041C66.9997 134.508 51.7587 135.001 38.5768 138.953C46.8032 134.548 55.8276 131.148 65.1968 128.822Z" fill="#E51717"/>
<path d="M80.3791 135.732C80.8028 135.702 81.2264 135.702 81.6303 135.712C82.0934 135.722 82.5564 135.732 82.9997 135.801C88.5267 132.174 99.7383 126.596 110.516 126.094C106.97 125.631 103.384 125.345 99.758 125.217C99.689 125.217 99.6003 125.207 99.5314 125.207C96.231 125.089 92.9108 125.118 89.5907 125.266C86.2509 127.887 81.0294 132.637 80.3791 135.732Z" fill="#E51717"/>
<path d="M169.129 116.497L169.793 116.762L169.694 116.055L169.029 115.789L169.129 116.497Z" fill="#4F2E16"/>
<path d="M139.865 84.4125L142.779 82.1192L152.14 74.75L162.427 78.8572L164.126 79.5362L164.297 79.6121L165.863 80.2389L177.061 84.7117L168.507 91.4493L167.653 92.1283L167.501 92.247L166.115 93.3391L164.734 94.4312L155.515 101.691L144.388 97.2373L142.756 96.5821L142.58 96.5109L140.938 95.8556L130.613 91.7294L130.599 91.72L139.865 84.4125Z" fill="#FFDDA8"/>
<path d="M155.507 101.678L158.882 125.072L168.105 117.864L168.138 117.836L169.766 116.563L170.317 116.136L171.029 115.585L171.888 114.911L180.442 108.216L177.053 84.708L167.644 92.1199L166.932 92.6802L166.387 93.1123L164.72 94.4228L155.507 101.678Z" fill="#BC7C46"/>
<path d="M140.948 95.846L141.841 96.2069L142.486 96.468L142.614 96.525L142.78 96.5915L144.39 97.2325L155.502 101.682L158.877 125.08L147.769 120.669L145.861 119.914L145.216 119.653L144.323 119.302L133.985 115.204L130.6 91.7246L140.948 95.846Z" fill="#DDA866"/>
<path d="M156.165 120.389L156.336 120.46L155.942 117.721L155.771 117.649L156.165 120.389Z" fill="#4F2E16"/>
<path d="M155.248 118.011L155.386 118.186L155.865 117.754L156.53 118.642L156.639 118.566L155.827 117.488L155.248 118.011Z" fill="#4F2E16"/>
<path d="M154.461 119.71L154.632 119.777L154.238 117.037L154.062 116.971L154.461 119.71Z" fill="#4F2E16"/>
<path d="M153.54 117.329L153.687 117.505L154.157 117.077L154.826 117.961L154.936 117.889L154.119 116.812L153.54 117.329Z" fill="#4F2E16"/>
<path d="M153.821 119.538L157.006 120.811C157.053 120.83 157.087 120.806 157.077 120.754C157.072 120.707 157.025 120.645 156.982 120.631L153.797 119.358C153.75 119.339 153.721 119.363 153.726 119.415C153.731 119.463 153.773 119.519 153.821 119.538Z" fill="#4F2E16"/>
<path d="M153.948 120.278L157.076 121.527C157.409 121.66 157.632 121.48 157.584 121.128L157.105 117.795C157.053 117.444 156.744 117.05 156.412 116.921L153.284 115.668C152.956 115.54 152.733 115.715 152.78 116.067L153.26 119.4C153.317 119.751 153.621 120.145 153.948 120.278ZM156.44 117.102C156.678 117.197 156.896 117.477 156.934 117.729L157.413 121.062C157.451 121.313 157.285 121.442 157.053 121.347L153.924 120.093C153.692 119.998 153.469 119.718 153.435 119.466L152.951 116.133C152.913 115.882 153.079 115.753 153.312 115.848L156.44 117.102Z" fill="#4F2E16"/>
<path d="M148.434 118.117L151.653 119.404C151.99 119.542 152.222 119.357 152.17 118.996L151.676 115.568C151.624 115.207 151.306 114.803 150.969 114.665L147.751 113.379C147.414 113.246 147.181 113.426 147.233 113.787L147.727 117.215C147.784 117.576 148.097 117.98 148.434 118.117ZM150.998 114.851C151.24 114.946 151.463 115.235 151.501 115.492L151.994 118.924C152.032 119.181 151.871 119.314 151.624 119.214L148.406 117.927C148.168 117.832 147.936 117.543 147.898 117.286L147.404 113.858C147.366 113.602 147.537 113.469 147.774 113.569L150.998 114.851Z" fill="#4F2E16"/>
<path d="M149.91 117.822C149.962 117.841 149.995 117.812 149.986 117.76L149.63 115.305C149.62 115.253 149.573 115.196 149.525 115.177C149.478 115.158 149.445 115.186 149.454 115.234L149.81 117.693C149.82 117.746 149.862 117.803 149.91 117.822Z" fill="#4F2E16"/>
<path d="M149.515 117.66L150.308 117.979C150.356 118.002 150.389 117.974 150.384 117.922C150.375 117.869 150.332 117.812 150.28 117.793L149.482 117.475C149.435 117.456 149.401 117.48 149.406 117.532C149.416 117.584 149.463 117.641 149.515 117.66Z" fill="#4F2E16"/>
<path d="M148.648 114.618L148.814 115.767C148.857 116.076 149.127 116.422 149.422 116.536L150.067 116.793C150.357 116.912 150.556 116.755 150.509 116.446L150.342 115.297L150.024 115.169L150.2 116.399C150.21 116.451 150.176 116.475 150.129 116.456C150.081 116.437 150.034 116.38 150.024 116.328L149.849 115.098L148.648 114.618Z" fill="#4F2E16"/>
<path d="M152.197 75.1084L176.439 84.8042L155.453 101.223L131.225 91.6225L152.197 75.1084Z" fill="#F9C98A"/>
<path d="M130.642 91.9521L130.666 92.1373L155.573 102.094L155.545 101.909L130.642 91.9521Z" fill="#BC7C46"/>
<path d="M142.581 96.5062L142.752 96.5775L164.298 79.6122L164.132 79.541L142.581 96.5062Z" fill="#BC7C46"/>
<path d="M142.619 96.5215L142.671 96.9013L142.828 96.8776L142.785 96.588L142.619 96.5215Z" fill="#BC7C46"/>
<path d="M140.938 95.832L144.323 119.297L147.774 120.665L144.389 97.209L140.938 95.832Z" fill="#9B7451"/>
<path d="M140.938 95.8473L142.581 96.5026L142.751 96.5785L144.384 97.2338L165.864 80.2354L164.297 79.6134L164.127 79.5374L162.427 78.8584L140.938 95.8473Z" fill="#CAAF8F"/>
<path d="M164.72 94.4026L168.104 117.863L168.142 117.835L171.029 115.579L167.644 92.1045L164.72 94.4026Z" fill="#9B7451"/>
<path d="M139.87 84.4145L164.734 94.4283L166.111 93.3315L166.258 93.2128L167.497 92.2394L167.649 92.1207L146.753 83.7165L145.182 83.085L142.78 82.1211L141.646 83.009L140.91 83.5978L139.87 84.4145Z" fill="#CAAF8F"/>
<path d="M133.162 100.663L140.359 103.541L139.533 97.8286L132.336 94.9512L133.162 100.663Z" fill="#E5E0DC"/>
<path d="M133.219 96.5746L139.044 98.906L138.953 98.265L133.124 95.9336L133.219 96.5746Z" fill="#4F2E16"/>
<path d="M133.386 97.7245L139.21 100.056L139.167 99.7709L133.343 97.4443L133.386 97.7245Z" fill="#B2AEAB"/>
<path d="M133.49 98.4745L139.319 100.806L139.276 100.521L133.452 98.1943L133.49 98.4745Z" fill="#B2AEAB"/>
<path d="M133.608 99.2811L139.433 101.612L139.395 101.328L133.566 99.001L133.608 99.2811Z" fill="#B2AEAB"/>
<path d="M133.717 100.031L139.542 102.362L139.504 102.078L133.675 99.751L133.717 100.031Z" fill="#B2AEAB"/>
<path d="M140.909 83.5976L146.752 83.7163L153.165 83.854L153.179 83.251L145.181 83.0848L141.644 83.0088L140.909 83.5976Z" fill="#4F2E16"/>
<path d="M153.156 82.6167L154.545 83.1719L153.801 85.0325L152.413 84.4773L153.156 82.6167Z" fill="#939899"/>
<path d="M153.516 81.9868C153.554 82.0866 153.587 82.1958 153.602 82.3192C153.63 82.5376 153.625 82.7798 153.592 83.0172V83.0219C153.521 83.0219 153.445 83.0599 153.369 83.1216C153.084 83.3448 152.899 83.8101 152.947 84.1663C152.966 84.266 152.989 84.3467 153.042 84.3989C152.904 84.5983 152.747 84.774 152.572 84.9117C152.477 84.9877 152.372 85.0447 152.277 85.0921C152.035 85.2109 151.803 85.2251 151.603 85.1491C151.466 85.0921 151.352 84.9972 151.261 84.8642C151.162 84.7218 151.1 84.5319 151.067 84.3087C150.939 83.4255 151.404 82.2575 152.106 81.7067C152.287 81.569 152.458 81.4835 152.629 81.4455C152.785 81.4123 152.937 81.4171 153.07 81.474C153.265 81.5643 153.421 81.7352 153.516 81.9868Z" fill="#939899"/>
<path d="M154.19 81.9298L153.07 81.4834C152.937 81.4312 152.785 81.4217 152.629 81.4549L151.262 84.8689C151.352 85.0018 151.466 85.1015 151.603 85.1538L152.724 85.6001L153.16 84.5033C153.108 84.4843 153.07 84.4558 153.037 84.4035C152.985 84.3513 152.961 84.2706 152.942 84.1709C152.895 83.8148 153.08 83.3495 153.364 83.1263C153.44 83.0646 153.512 83.0266 153.588 83.0266V83.0218C153.645 83.0123 153.702 83.0171 153.744 83.0361L154.19 81.9298Z" fill="#939899"/>
<path d="M153.227 82.1673C153.322 82.0914 153.412 82.0296 153.521 81.9917C153.758 81.873 153.996 81.8587 154.19 81.9394C154.461 82.0391 154.66 82.3335 154.727 82.7751C154.788 83.1977 154.712 83.6915 154.542 84.1426C154.466 84.3373 154.375 84.5177 154.276 84.6934C154.105 84.9593 153.915 85.1967 153.697 85.3676C153.345 85.643 153.004 85.7142 152.733 85.605C152.534 85.5243 152.382 85.3534 152.282 85.097C152.244 84.9972 152.211 84.888 152.197 84.7693C152.064 83.8814 152.529 82.7181 153.227 82.1673ZM152.947 84.1711C152.966 84.2755 152.989 84.3515 153.042 84.4085C153.075 84.4607 153.113 84.4844 153.165 84.5034C153.269 84.5414 153.412 84.5177 153.554 84.4037C153.597 84.3705 153.64 84.3325 153.678 84.2803C153.801 84.1331 153.901 83.9337 153.948 83.7295C153.977 83.6013 153.991 83.4731 153.972 83.3591C153.939 83.1882 153.863 83.0695 153.754 83.0268C153.706 83.0078 153.654 83.003 153.602 83.0173L153.597 83.022C153.521 83.022 153.45 83.06 153.374 83.1217C153.331 83.1597 153.288 83.1977 153.25 83.2404L153.174 83.1929L152.833 83.6867L152.975 83.7865C152.937 83.9194 152.928 84.0524 152.947 84.1711Z" fill="#D1D1D1"/>
<path d="M166.385 93.1108L169.793 116.761L170.339 116.325L166.931 92.6787L166.385 93.1108Z" fill="#4F2E16"/>
<path d="M152.828 83.693L152.97 83.7928C153.023 83.5886 153.113 83.3939 153.246 83.2467L153.17 83.1992L152.828 83.693Z" fill="#D1D1D1"/>
<path d="M152.97 83.7981L153.673 84.2872L154.266 84.6955L166.38 93.1188L166.926 92.6819L154.532 84.1495L153.939 83.7411L153.241 83.2568C153.113 83.3993 153.018 83.5939 152.97 83.7981Z" fill="#4F2E16"/>
<path d="M153.027 83.6143C152.994 83.6855 152.971 83.7662 152.961 83.8422L152.966 83.8374L153.103 83.676L153.027 83.6143Z" fill="#4F2E16"/>
<path d="M109.57 45.9287L151.556 82.3472C151.48 82.4659 151.409 82.5941 151.347 82.7175L109.66 46.5602L109.57 45.9287Z" fill="#4F2E16"/>
<path d="M153.274 83.933L183.355 34.9937L182.995 34.7705L152.971 83.7953L153.274 83.933Z" fill="#4F2E16"/>
<path d="M153.327 83.8418L162.051 50.8563L161.643 50.7471L152.971 83.7943L153.327 83.8418Z" fill="#4F2E16"/>
<path d="M153.028 83.616C152.994 83.6872 152.971 83.7679 152.961 83.8439L152.966 83.8391L153.146 83.7204L153.047 83.5732C153.037 83.5827 153.032 83.597 153.028 83.616Z" fill="#4F2E16"/>
<path d="M133.057 54.2678L151.641 82.2203C151.727 82.0968 151.826 81.9781 151.926 81.8784L133.409 54.0352L133.057 54.2678Z" fill="#4F2E16"/>
<path d="M113.724 13.8566C127.561 1.09827 152.463 -2.4961 169.338 5.83219C186.218 14.1557 188.682 31.2444 174.845 43.998C161.007 56.7563 136.11 60.3506 119.23 52.0224C102.35 43.7036 99.8868 26.6149 113.724 13.8566Z" fill="#A20F0F"/>
<path d="M102.849 31.3385C103.067 25.1422 106.143 18.7322 112.228 13.1198C114.934 10.6318 118.043 8.47137 121.418 6.66706C125.387 4.54464 129.735 2.90652 134.249 1.78595C136.219 1.30164 138.208 0.912292 140.221 0.622653C140.448 0.589416 140.672 0.556178 140.899 0.532437C142.594 0.304525 144.303 0.147838 146.007 0.067119C147.607 -0.00885159 149.206 -0.0230985 150.797 0.0386276C150.835 0.0386276 150.873 0.0433768 150.906 0.0433768C152.653 0.105103 154.381 0.242799 156.089 0.465963C156.094 0.461215 156.094 0.461215 156.099 0.465963C161.244 1.13545 166.162 2.53141 170.563 4.70132C172.124 5.47053 173.567 6.31095 174.887 7.21785C165.445 3.51429 154.138 2.98249 143.572 5.25211C143.368 5.20938 143.164 5.17614 142.945 5.1524C142.907 5.14765 142.869 5.1429 142.827 5.1429C142.608 5.11442 142.39 5.10492 142.167 5.10017C141.967 5.10017 141.768 5.09542 141.564 5.10967C141.455 5.11442 141.341 5.12391 141.232 5.13341C140.994 5.1619 140.757 5.19513 140.52 5.24262C140.377 5.26636 140.24 5.29959 140.102 5.32808C139.969 5.36132 139.841 5.39456 139.713 5.43254C139.698 5.42779 139.689 5.43729 139.679 5.44204C139.566 5.47528 139.456 5.50377 139.347 5.5465C139.319 5.55125 139.29 5.56074 139.266 5.57499C139.167 5.60823 139.067 5.65096 138.972 5.68894C138.944 5.69844 138.915 5.70794 138.887 5.72218C138.384 5.93585 137.923 6.197 137.534 6.50563C137.301 6.69081 137.097 6.88548 136.931 7.08965C136.148 8.03454 136.2 9.07913 137.021 9.84359C137.301 10.0952 137.667 10.3184 138.108 10.4988C138.982 10.8455 140.045 10.9737 141.104 10.8834C141.502 10.8549 141.901 10.7932 142.3 10.7078C142.95 10.5701 143.577 10.3469 144.127 10.062C144.445 9.90057 144.744 9.71539 145.01 9.50647C145.172 9.37827 145.319 9.24532 145.452 9.10763C147.816 9.0459 152.933 9.01741 157.295 9.97179C159.963 10.5511 163.547 11.4959 168.199 13.7941C178.471 18.8651 183.659 27.0272 183.351 35.6071C181.794 38.7694 179.463 41.8605 176.34 44.7331C175.642 45.3788 174.915 46.0009 174.165 46.5991C170.306 49.6854 165.792 52.1735 160.922 54.011C148.243 58.8257 133.186 59.253 121.162 54.5381C120.084 54.1155 119.031 53.6549 118.01 53.1516C107.728 48.0806 102.545 39.9185 102.849 31.3385Z" fill="#D5EEFA"/>
<path d="M170.563 4.6963C172.124 5.4655 173.567 6.30593 174.887 7.21283C173.567 6.69528 172.21 6.2442 170.824 5.8501C170.079 5.10464 169.276 4.40191 168.431 3.73242C169.153 4.0363 169.87 4.35443 170.563 4.6963Z" fill="#D5EEFA"/>
<path d="M174.621 26.4289C173.211 27.1364 171.445 28.9075 169.324 28.2048C167.7 27.4308 166.143 27.1507 165.365 25.2419C164.805 28.3519 164.672 34.4296 160.081 34.083C159.094 34.2254 157.324 32.4639 156.616 31.0489C155.99 37.1978 148.86 40.2461 142.784 40.1132C139.675 39.5529 135.578 39.135 134.159 36.3099C132.816 33.9785 130.551 32.2882 130.195 29.8144C130.338 30.802 130.058 32.3594 128.999 32.008C128.012 32.1505 128.714 30.028 128.078 29.1117C123.564 32.7915 114.948 36.0535 111.55 29.9806C110.135 27.1554 109.067 23.2714 111.113 19.9477C111.958 18.8176 112.238 17.2602 113.088 16.1302C112.171 16.7664 111.464 15.3562 111.393 14.8624C111.198 14.739 111.018 14.606 110.852 14.4683C111.293 14.0125 111.749 13.5662 112.233 13.1198C114.939 10.6318 118.048 8.47137 121.423 6.66707C125.391 4.54464 129.74 2.90652 134.254 1.78595C136.224 1.30164 138.213 0.912292 140.225 0.622654C140.453 0.589417 140.676 0.556178 140.904 0.532437C142.599 0.304525 144.308 0.147838 146.012 0.0671191C147.611 -0.00885159 149.211 -0.0230986 150.801 0.0386276C150.839 0.0386276 150.877 0.0433768 150.911 0.0433768C152.657 0.105103 154.385 0.242799 156.094 0.465963C156.099 0.461215 156.099 0.461215 156.104 0.465963C160.433 1.031 164.601 2.11358 168.436 3.73745C169.281 4.40694 170.078 5.11442 170.828 5.85513C162.303 3.42407 152.667 3.30062 143.577 5.25212C143.373 5.20938 143.168 5.17615 142.95 5.1524C142.912 5.14766 142.874 5.14291 142.831 5.14291C142.613 5.11442 142.395 5.10492 142.172 5.10017C141.972 5.10017 141.773 5.09542 141.569 5.10967C141.46 5.11442 141.346 5.12392 141.236 5.13341C140.999 5.1619 140.762 5.19514 140.524 5.24262C140.382 5.26636 140.244 5.2996 140.107 5.32808C139.974 5.36132 139.846 5.39456 139.717 5.43254C139.703 5.4278 139.694 5.43729 139.684 5.44204C139.57 5.47528 139.461 5.50377 139.352 5.5465C139.323 5.55125 139.295 5.56075 139.271 5.57499C139.172 5.60823 139.072 5.65096 138.977 5.68895C138.948 5.69844 138.92 5.70794 138.891 5.72218C138.388 5.93585 137.928 6.197 137.539 6.50563C137.306 6.69081 137.102 6.88549 136.936 7.08966C136.153 8.03454 136.205 9.07914 137.026 9.84359C137.306 10.0952 137.672 10.3184 138.113 10.4988C138.986 10.8455 140.05 10.9737 141.108 10.8834C141.507 10.855 141.906 10.7932 142.304 10.7078C142.955 10.5701 143.581 10.3469 144.132 10.062C144.45 9.90057 144.749 9.71539 145.015 9.50647C145.176 9.37827 145.323 9.24532 145.456 9.10763C147.82 9.0459 152.937 9.01741 157.3 9.97179C159.968 10.5511 163.551 11.496 168.203 13.7941C169.922 14.6392 171.493 15.5794 172.922 16.586C172.851 16.5955 172.784 16.605 172.708 16.6145C175.955 18.1624 178.718 23.3141 174.621 26.4289Z" fill="#EAF5F9"/>
<path d="M145.447 9.10252C148.238 9.03605 151.039 9.28295 153.977 9.61057C158.899 10.1566 163.732 11.5906 168.189 13.789C178.461 18.86 183.65 27.0221 183.341 35.602C188.401 25.3602 185.354 14.3492 174.887 7.21275C165.445 3.50918 154.138 2.97738 143.572 5.24701C143.871 5.31823 144.16 5.39895 144.426 5.50816C146.301 6.25837 146.69 7.79203 145.447 9.10252Z" fill="#CC0E0E"/>
<path d="M137.605 10.2327C134.904 10.9592 132.293 11.9848 129.564 13.1338C124.998 15.0521 120.768 17.7918 117.113 21.163C108.692 28.931 106.024 38.2279 108.744 46.371C100.997 37.981 100.807 26.5522 108.83 16.7472C116.838 10.5223 127.537 6.81877 138.308 6.00684C138.042 6.15878 137.786 6.32022 137.562 6.50065C135.982 7.74467 136.039 9.33055 137.605 10.2327Z" fill="#CC0E0E"/>
<path d="M160.917 54.0104C165.782 52.1729 170.301 49.6801 174.16 46.5985C174.165 42.3679 173.292 37.2541 170.595 31.5278C165.616 20.9584 153.279 11.9559 144.122 10.0566C143.567 10.3463 142.945 10.5647 142.295 10.7024C149.211 15.517 162.502 47.8236 160.917 54.0104Z" fill="#CC0E0E"/>
<path d="M135.488 57.6814C130.3 57.2921 125.263 56.181 120.692 54.315C119.491 50.26 118.884 45.1035 119.852 38.8502C121.637 27.3026 130.931 15.1806 139.176 10.7695C139.789 10.8882 140.453 10.9215 141.113 10.874C135.839 17.4502 132.218 52.1973 135.488 57.6814Z" fill="#CC0E0E"/>
<path d="M121.418 6.66139C127.77 4.75262 135.113 4.51996 138.82 5.74024C138.839 5.73075 138.858 5.726 138.877 5.7165C138.906 5.70226 138.934 5.69276 138.963 5.68326C139.058 5.64053 139.157 5.60254 139.257 5.56931C139.281 5.55506 139.309 5.54557 139.338 5.54082C139.404 5.51708 139.475 5.48859 139.551 5.4696C139.589 5.4601 139.627 5.44111 139.675 5.43636C139.684 5.43161 139.694 5.42212 139.708 5.42686C139.831 5.38413 139.964 5.35089 140.097 5.3224C140.221 5.28917 140.339 5.26068 140.463 5.23694C140.339 4.48198 137.429 2.69192 134.244 1.78027C129.735 2.90084 125.387 4.53896 121.418 6.66139Z" fill="#CC0E0E"/>
<path d="M141.564 5.11011C141.768 5.09586 141.972 5.09586 142.167 5.10061C142.39 5.10536 142.613 5.11011 142.826 5.14334C145.489 3.39602 150.891 0.708556 156.084 0.466399C154.376 0.243235 152.648 0.105539 150.901 0.0438125C150.868 0.0438125 150.825 0.0390633 150.792 0.0390633C149.202 -0.0179147 147.602 -0.00366774 146.002 0.0675548C144.393 1.33057 141.877 3.61918 141.564 5.11011Z" fill="#CC0E0E"/>
<path d="M144.431 5.50805C144.165 5.39884 143.876 5.31812 143.577 5.2469C154.138 2.98203 165.45 3.50907 174.892 7.21264C175.604 7.69695 176.278 8.20501 176.923 8.72256C178.623 11.543 178.703 14.6008 175.248 16.747C174.839 17.0318 174.407 17.2218 173.956 17.3452C172.257 16.0395 170.339 14.8429 168.194 13.7888C163.736 11.5904 158.904 10.1565 153.982 9.61046C151.039 9.28284 148.243 9.03594 145.452 9.10241C146.69 7.79192 146.301 6.25826 144.431 5.50805Z" fill="#E51717"/>
<path d="M105.535 23.2759C105.697 22.369 106.01 21.2722 106.39 20.1896C107.097 19.0263 107.909 17.8773 108.83 16.7472C116.838 10.5223 127.537 6.81877 138.308 6.00684C138.042 6.15878 137.786 6.32022 137.562 6.50065C135.982 7.74941 136.039 9.33055 137.6 10.2327C134.899 10.9592 132.289 11.9848 129.559 13.1338C124.993 15.0521 120.763 17.7918 117.108 21.163C114.194 23.8504 111.972 26.7231 110.42 29.6622C106.779 29.9756 105.089 26.5759 105.535 23.2759Z" fill="#E51717"/>
<path d="M142.295 10.7024C142.946 10.5647 143.572 10.3415 144.123 10.0566C152.23 11.7375 162.835 18.9927 168.612 27.9715C169.215 28.9164 168.479 31.3807 168.066 32.2828C167.397 33.7547 166.191 35.07 164.667 35.6683C162.992 36.3283 161.173 35.9911 159.569 35.2837C158.42 34.7756 155.42 33.3417 154.908 32.1214C150.901 22.5728 145.784 13.1335 142.295 10.7024Z" fill="#E51717"/>
<path d="M139.176 10.7695C139.789 10.8882 140.453 10.9215 141.113 10.874C138.227 14.4731 135.839 26.4907 134.8 37.5444C132.958 39.928 130.57 41.9175 127.319 41.3335C123.118 40.4836 121.765 37.2026 121.205 33.442C124.509 23.713 132.218 14.4921 139.176 10.7695Z" fill="#E51717"/>
<path d="M134.249 1.78027C137.434 2.69192 140.339 4.48673 140.467 5.23694C140.344 5.26068 140.221 5.28917 140.102 5.3224C139.969 5.35089 139.836 5.38413 139.713 5.42686C139.698 5.42212 139.689 5.43161 139.679 5.43636C139.637 5.44111 139.599 5.4601 139.556 5.4696C139.485 5.48859 139.414 5.51708 139.342 5.54082C139.314 5.54557 139.285 5.55506 139.262 5.56931C139.162 5.60254 139.062 5.64053 138.967 5.68326C138.939 5.69276 138.91 5.70226 138.882 5.7165C138.863 5.726 138.844 5.73075 138.825 5.74024C135.118 4.51996 127.774 4.75737 121.423 6.66139C125.387 4.53896 129.735 2.90084 134.249 1.78027Z" fill="#E51717"/>
<path d="M141.564 5.11011C141.768 5.09586 141.972 5.09586 142.167 5.10061C142.39 5.10536 142.613 5.11011 142.826 5.14334C145.489 3.39602 150.891 0.708556 156.084 0.466399C154.376 0.243235 152.648 0.105539 150.901 0.0438125C150.868 0.0438125 150.825 0.0390633 150.792 0.0390633C149.202 -0.0179147 147.602 -0.00366774 146.002 0.0675548C144.393 1.33057 141.877 3.61918 141.564 5.11011Z" fill="#E51717"/>
<path opacity="0.8" d="M263.977 181.242L264.55 181.755L264.704 180.994L264.123 180.489L263.977 181.242Z" fill="#4F2E16"/>
<g opacity="0.8">
<g opacity="0.8">
<g opacity="0.8">
<g opacity="0.8">
<g opacity="0.8">
<path opacity="0.8" d="M245.694 138.22L249.474 136.928L261.61 132.788L270.598 140.624L272.077 141.924L272.223 142.061L273.591 143.259L283.366 151.787L272.274 155.586L271.162 155.962L270.966 156.03L269.17 156.646L267.374 157.262L255.426 161.343L245.711 152.857L244.283 151.608L244.129 151.471L242.692 150.222L233.679 142.343L233.67 142.326L245.694 138.22Z" fill="#FFDDA8"/>
</g>
</g>
<g opacity="0.8">
<path opacity="0.8" d="M255.426 161.335L250.508 186.297L262.438 182.267L262.49 182.25L264.602 181.54L265.303 181.301L266.227 180.993L267.339 180.616L278.414 176.87L283.357 151.788L271.153 155.954L270.229 156.271L269.52 156.51L267.364 157.246L255.426 161.335Z" fill="#BC7C46"/>
</g>
<g opacity="0.8">
<g opacity="0.8">
<path opacity="0.8" d="M242.708 150.214L243.486 150.898L244.051 151.394L244.162 151.497L244.307 151.625L245.718 152.849L255.417 161.335L250.499 186.305L240.792 177.862L239.125 176.416L238.56 175.92L237.782 175.244L228.743 167.4L233.677 142.344L242.708 150.214Z" fill="#DDA866"/>
</g>
</g>
<g opacity="0.8">
<g opacity="0.8">
<g opacity="0.8">
<g opacity="0.8">
<g opacity="0.8">
<path opacity="0.8" d="M249.414 180.571L249.568 180.708L250.141 177.782L249.996 177.646L249.414 180.571Z" fill="#4F2E16"/>
</g>
</g>
<g opacity="0.8">
<g opacity="0.8">
<path opacity="0.8" d="M249.337 177.827L249.414 178.058L250.055 177.793L250.415 178.931L250.552 178.888L250.115 177.502L249.337 177.827Z" fill="#4F2E16"/>
</g>
</g>
</g>
<g opacity="0.8">
<g opacity="0.8">
<g opacity="0.8">
<path opacity="0.8" d="M247.935 179.275L248.08 179.404L248.653 176.486L248.508 176.35L247.935 179.275Z" fill="#4F2E16"/>
</g>
</g>
<g opacity="0.8">
<g opacity="0.8">
<path opacity="0.8" d="M247.849 176.529L247.926 176.76L248.567 176.495L248.926 177.633L249.063 177.599L248.618 176.213L247.849 176.529Z" fill="#4F2E16"/>
</g>
</g>
</g>
</g>
<g opacity="0.8">
<g opacity="0.8">
<path opacity="0.8" d="M247.345 178.871L250.124 181.3C250.167 181.334 250.201 181.317 250.218 181.266C250.227 181.215 250.201 181.138 250.167 181.104L247.388 178.674C247.345 178.64 247.311 178.657 247.294 178.708C247.277 178.768 247.302 178.837 247.345 178.871Z" fill="#4F2E16"/>
</g>
</g>
<g opacity="0.8">
<g opacity="0.8">
<g opacity="0.8">
<path opacity="0.8" d="M247.209 179.666L249.937 182.052C250.228 182.309 250.519 182.206 250.596 181.83L251.297 178.271C251.365 177.895 251.194 177.39 250.904 177.134L248.175 174.747C247.893 174.499 247.602 174.602 247.526 174.969L246.824 178.528C246.756 178.913 246.927 179.418 247.209 179.666ZM250.869 177.33C251.075 177.51 251.203 177.869 251.152 178.143L250.45 181.702C250.399 181.967 250.185 182.044 249.98 181.864L247.252 179.478C247.047 179.298 246.918 178.939 246.978 178.665L247.671 175.106C247.722 174.841 247.936 174.764 248.141 174.944L250.869 177.33Z" fill="#4F2E16"/>
</g>
</g>
</g>
</g>
<g opacity="0.8">
<g opacity="0.8">
<g opacity="0.8">
<g opacity="0.8">
<path opacity="0.8" d="M242.378 175.505L245.183 177.96C245.482 178.216 245.782 178.114 245.859 177.729L246.577 174.076C246.654 173.691 246.474 173.161 246.184 172.913L243.379 170.458C243.079 170.201 242.788 170.304 242.711 170.689L241.993 174.35C241.908 174.726 242.087 175.248 242.378 175.505ZM246.149 173.101C246.363 173.281 246.491 173.657 246.432 173.931L245.713 177.592C245.662 177.857 245.448 177.934 245.234 177.755L242.429 175.299C242.224 175.12 242.087 174.743 242.147 174.47L242.865 170.808C242.917 170.535 243.139 170.458 243.344 170.646L246.149 173.101Z" fill="#4F2E16"/>
</g>
</g>
</g>
<g opacity="0.8">
<g opacity="0.8">
<g opacity="0.8">
<path opacity="0.8" d="M243.985 175.732C244.028 175.767 244.071 175.749 244.088 175.698L244.601 173.08C244.609 173.029 244.584 172.952 244.541 172.909C244.498 172.875 244.455 172.892 244.447 172.944L243.934 175.57C243.917 175.621 243.942 175.698 243.985 175.732Z" fill="#4F2E16"/>
</g>
</g>
<g opacity="0.8">
<g opacity="0.8">
<path opacity="0.8" d="M243.635 175.432L244.327 176.04C244.37 176.074 244.413 176.065 244.43 176.014C244.439 175.954 244.413 175.886 244.37 175.843L243.677 175.236C243.635 175.193 243.592 175.21 243.583 175.27C243.566 175.313 243.592 175.39 243.635 175.432Z" fill="#4F2E16"/>
</g>
</g>
<g opacity="0.8">
<path opacity="0.8" d="M243.848 172.028L243.609 173.252C243.54 173.577 243.694 174.03 243.951 174.244L244.515 174.732C244.772 174.954 245.028 174.868 245.088 174.535L245.328 173.311L245.045 173.072L244.789 174.389C244.78 174.441 244.737 174.458 244.695 174.424C244.652 174.389 244.626 174.312 244.635 174.252L244.891 172.944L243.848 172.028Z" fill="#4F2E16"/>
</g>
</g>
</g>
<g opacity="0.8">
<g opacity="0.8">
<path opacity="0.8" d="M261.533 133.168L282.699 151.663L255.529 160.859L234.346 142.467L261.533 133.168Z" fill="#F9C98A"/>
</g>
</g>
<g opacity="0.8">
<path opacity="0.8" d="M233.635 142.583L233.592 142.78L255.34 161.779L255.375 161.582L233.635 142.583Z" fill="#BC7C46"/>
</g>
<g opacity="0.8">
<path opacity="0.8" d="M244.138 151.473L244.283 151.601L272.223 142.054L272.069 141.926L244.138 151.473Z" fill="#BC7C46"/>
</g>
<g opacity="0.8">
<path opacity="0.8" d="M244.172 151.497L244.086 151.908L244.257 151.933L244.317 151.625L244.172 151.497Z" fill="#BC7C46"/>
</g>
</g>
<path opacity="0.8" d="M242.709 150.198L237.783 175.237L240.793 177.863L245.719 152.833L242.709 150.198Z" fill="#9B7451"/>
<path opacity="0.8" d="M242.701 150.215L244.137 151.463L244.283 151.6L245.711 152.849L273.582 143.251L272.222 142.054L272.069 141.925L270.589 140.625L242.701 150.215Z" fill="#CAAF8F"/>
<path opacity="0.8" d="M267.373 157.229L262.447 182.268L262.498 182.251L266.227 180.993L271.161 155.938L267.373 157.229Z" fill="#9B7451"/>
<path opacity="0.8" d="M245.693 138.214L267.373 157.256L269.169 156.64L269.357 156.572L270.965 156.024L271.161 155.956L252.937 139.967L251.569 138.77L249.465 136.931L248.002 137.427L247.045 137.76L245.693 138.214Z" fill="#CAAF8F"/>
</g>
<g opacity="0.8">
<g opacity="0.8">
<path opacity="0.8" d="M233.088 152.336L239.374 157.819L240.571 151.728L234.285 146.236L233.088 152.336Z" fill="#E5E0DC"/>
</g>
<path opacity="0.8" d="M234.601 148.194L239.69 152.643L239.827 151.958L234.738 147.519L234.601 148.194Z" fill="#4F2E16"/>
<g opacity="0.8">
<path opacity="0.8" d="M234.362 149.419L239.451 153.867L239.511 153.567L234.422 149.119L234.362 149.419Z" fill="#B2AEAB"/>
</g>
<g opacity="0.8">
<path opacity="0.8" d="M234.208 150.224L239.288 154.673L239.348 154.373L234.268 149.925L234.208 150.224Z" fill="#B2AEAB"/>
</g>
<g opacity="0.8">
<path opacity="0.8" d="M234.037 151.087L239.126 155.527L239.185 155.228L234.097 150.788L234.037 151.087Z" fill="#B2AEAB"/>
</g>
<g opacity="0.8">
<path opacity="0.8" d="M233.875 151.892L238.963 156.332L239.023 156.032L233.935 151.593L233.875 151.892Z" fill="#B2AEAB"/>
</g>
</g>
</g>
<g opacity="0.8">
<path opacity="0.8" d="M247.045 137.76L252.937 139.967L259.403 142.397L259.625 141.79L251.569 138.77L248.003 137.427L247.045 137.76Z" fill="#4F2E16"/>
</g>
<path opacity="0.8" d="M259.841 141.139L261.052 142.195L259.636 143.82L258.424 142.764L259.841 141.139Z" fill="#939899"/>
<path opacity="0.8" d="M260.42 140.627C260.42 140.738 260.42 140.866 260.394 140.994C260.343 141.225 260.257 141.473 260.129 141.696V141.704C260.052 141.679 259.967 141.696 259.872 141.722C259.505 141.85 259.146 142.252 259.069 142.628C259.051 142.739 259.051 142.825 259.086 142.902C258.872 143.056 258.65 143.184 258.427 143.261C258.299 143.313 258.179 143.33 258.059 143.338C257.769 143.373 257.529 143.304 257.358 143.15C257.238 143.047 257.161 142.902 257.11 142.739C257.059 142.56 257.067 142.346 257.11 142.106C257.298 141.165 258.188 140.147 259.094 139.84C259.325 139.763 259.53 139.737 259.719 139.763C259.89 139.788 260.044 139.848 260.155 139.951C260.317 140.105 260.411 140.336 260.42 140.627Z" fill="#939899"/>
<path opacity="0.8" d="M261.121 140.806L260.146 139.951C260.026 139.848 259.881 139.788 259.71 139.763L257.11 142.748C257.153 142.911 257.238 143.056 257.358 143.159L258.333 144.014L259.171 143.056C259.128 143.013 259.094 142.971 259.086 142.911C259.051 142.842 259.06 142.748 259.068 142.637C259.145 142.261 259.505 141.85 259.872 141.73C259.966 141.696 260.061 141.679 260.129 141.713V141.705C260.189 141.713 260.249 141.739 260.283 141.773L261.121 140.806Z" fill="#939899"/>
<path opacity="0.8" d="M260.061 140.704C260.181 140.661 260.3 140.627 260.42 140.627C260.702 140.593 260.95 140.661 261.121 140.806C261.361 141.003 261.455 141.371 261.369 141.842C261.284 142.295 261.027 142.774 260.694 143.168C260.548 143.339 260.394 143.493 260.223 143.629C259.958 143.843 259.676 144.006 259.394 144.108C258.941 144.262 258.564 144.211 258.333 143.997C258.154 143.843 258.068 143.612 258.051 143.321C258.043 143.202 258.051 143.082 258.085 142.954C258.265 142.03 259.154 141.02 260.061 140.704ZM259.06 142.637C259.043 142.748 259.035 142.842 259.069 142.911C259.086 142.979 259.112 143.014 259.163 143.056C259.257 143.133 259.411 143.159 259.591 143.099C259.65 143.082 259.71 143.056 259.762 143.022C259.941 142.919 260.112 142.748 260.232 142.56C260.309 142.44 260.369 142.312 260.386 142.192C260.42 142.004 260.377 141.859 260.283 141.773C260.24 141.739 260.189 141.713 260.129 141.713H260.121C260.044 141.688 259.958 141.705 259.856 141.739C259.796 141.765 259.744 141.782 259.685 141.816L259.625 141.739L259.103 142.115L259.206 142.269C259.146 142.389 259.086 142.509 259.06 142.637Z" fill="#D1D1D1"/>
<g opacity="0.8">
<path opacity="0.8" d="M269.52 156.513L264.551 181.757L265.269 181.5L270.23 156.273L269.52 156.513Z" fill="#4F2E16"/>
</g>
<g opacity="0.8">
<path opacity="0.8" d="M259.112 142.115L259.214 142.269C259.343 142.08 259.505 141.909 259.693 141.815L259.633 141.738L259.112 142.115Z" fill="#D1D1D1"/>
<path opacity="0.8" d="M259.223 142.268L259.77 143.021L260.232 143.645L269.537 156.519L270.246 156.271L260.702 143.183L260.241 142.559L259.702 141.814C259.514 141.909 259.343 142.08 259.223 142.268Z" fill="#4F2E16"/>
</g>
<g opacity="0.8">
<path opacity="0.8" d="M259.342 142.106C259.282 142.166 259.23 142.243 259.196 142.312H259.205L259.401 142.201L259.342 142.106Z" fill="#4F2E16"/>
<path opacity="0.8" d="M228.64 88.333L258.298 140.293C258.178 140.387 258.059 140.489 257.956 140.592L228.511 89.0003L228.64 88.333Z" fill="#4F2E16"/>
</g>
<g opacity="0.8">
<path opacity="0.8" d="M259.479 142.516L307.473 103.542L307.191 103.191L259.222 142.268L259.479 142.516Z" fill="#4F2E16"/>
</g>
<g opacity="0.8">
<path opacity="0.8" d="M259.565 142.44L280.184 112.054L279.808 111.798L259.223 142.269L259.565 142.44Z" fill="#4F2E16"/>
</g>
<g opacity="0.8">
<path opacity="0.8" d="M259.343 142.106C259.283 142.166 259.232 142.243 259.198 142.312H259.206L259.428 142.252L259.377 142.063C259.369 142.081 259.36 142.089 259.343 142.106Z" fill="#4F2E16"/>
<path opacity="0.8" d="M249.525 105.176L258.436 140.19C258.565 140.096 258.71 140.01 258.847 139.942L249.961 105.057L249.525 105.176Z" fill="#4F2E16"/>
</g>
<g opacity="0.8">
<path opacity="0.8" d="M244.291 57.2373C262.891 49.2133 289.463 54.4486 303.642 68.9226C317.813 83.3967 314.221 101.626 295.62 109.65C277.019 117.666 250.448 112.439 236.277 97.9649C222.106 83.4908 225.69 65.2613 244.291 57.2373Z" fill="#A20F0F"/>
<path opacity="0.8" d="M227.015 71.1121C229.444 64.893 234.858 59.4781 243.033 55.9537C246.668 54.3882 250.593 53.3018 254.673 52.6773C259.462 51.9416 264.465 51.8219 269.442 52.2924C271.614 52.4977 273.778 52.8227 275.925 53.2419C276.164 53.2932 276.404 53.336 276.643 53.3959C278.448 53.7637 280.235 54.2171 281.997 54.7475C283.647 55.2436 285.281 55.7997 286.871 56.4241C286.906 56.4327 286.948 56.4584 286.982 56.4669C288.736 57.1513 290.438 57.9041 292.097 58.7424C292.105 58.7424 292.105 58.7424 292.105 58.7424C297.091 61.2574 301.589 64.4311 305.284 68.2036C306.592 69.5381 307.755 70.9068 308.782 72.3012C300.512 65.1668 289.215 60.5987 277.678 59.1359C277.49 59.0247 277.293 58.9135 277.079 58.8108C277.036 58.7937 277.002 58.7766 276.959 58.7595C276.746 58.6569 276.532 58.5628 276.301 58.4858C276.104 58.4088 275.899 58.3403 275.685 58.2805C275.574 58.2462 275.454 58.212 275.335 58.1864C275.078 58.1265 274.83 58.0752 274.573 58.0409C274.419 58.0153 274.266 57.9982 274.12 57.9811C273.975 57.9639 273.829 57.9554 273.684 57.9468C273.667 57.9383 273.658 57.9468 273.641 57.9468C273.513 57.9383 273.393 57.9297 273.265 57.9297C273.231 57.9212 273.197 57.9212 273.171 57.9297C273.06 57.9297 272.94 57.9297 272.829 57.9383C272.795 57.9383 272.76 57.9383 272.726 57.9383C272.136 57.9725 271.58 58.0752 271.067 58.2548C270.759 58.3574 270.486 58.4858 270.246 58.6312C269.117 59.307 268.792 60.3934 269.357 61.4541C269.553 61.8134 269.844 62.1727 270.229 62.5063C270.99 63.1736 272.025 63.6783 273.137 63.9606C273.556 64.0804 273.983 64.1573 274.411 64.2087C275.121 64.3028 275.839 64.3028 276.498 64.2087C276.882 64.1573 277.25 64.0718 277.592 63.9606C277.806 63.8836 278.003 63.8066 278.182 63.7125C280.603 64.4995 285.811 66.2874 289.899 68.8195C292.405 70.3593 295.706 72.6006 299.605 76.5955C308.26 85.4065 310.62 95.5521 307.251 104.158C304.54 106.81 301.076 109.119 296.877 110.924C295.937 111.335 294.979 111.703 294.004 112.036C288.984 113.799 283.51 114.714 277.909 114.842C263.319 115.21 247.874 110.274 237.338 101.198C236.397 100.385 235.49 99.5384 234.635 98.6659C225.998 89.8548 223.646 79.7178 227.015 71.1121Z" fill="#D5EEFA"/>
<path opacity="0.8" d="M305.284 68.2131C306.592 69.5476 307.755 70.9163 308.782 72.3107C307.627 71.3184 306.404 70.3774 305.139 69.4792C304.643 68.4612 304.078 67.4518 303.462 66.4766C304.095 67.0326 304.702 67.6143 305.284 68.2131Z" fill="#D5EEFA"/>
<path opacity="0.8" d="M301.666 91.729C299.981 91.9428 297.553 93.1148 295.654 91.6434C294.277 90.2747 292.798 89.4364 292.686 87.2208C291.01 90.1806 288.71 96.297 284.169 94.3124C283.108 94.1071 281.945 91.6862 281.731 89.9924C278.901 96.0147 270.571 96.5622 264.456 94.2696C261.497 92.5844 257.486 90.7024 257.059 87.332C256.52 84.4834 254.826 81.9598 255.348 79.3251C255.143 80.3773 254.305 81.8572 253.347 81.1215C252.295 80.9162 253.757 79.0086 253.441 77.8537C247.54 79.9752 237.628 80.2233 236.345 72.8408C235.909 69.4618 236.217 65.1418 239.475 62.49C240.741 61.6431 241.579 60.1632 242.836 59.3163C241.682 59.6328 241.46 57.9476 241.562 57.4172C241.408 57.2205 241.271 57.0237 241.152 56.8269C241.767 56.5275 242.392 56.2281 243.033 55.9458C246.668 54.3804 250.593 53.294 254.673 52.6695C259.462 51.9338 264.465 51.8141 269.442 52.2846C271.614 52.4984 273.778 52.8235 275.924 53.2426C276.164 53.294 276.403 53.3367 276.643 53.3966C278.447 53.7645 280.235 54.2179 281.996 54.7482C283.647 55.2444 285.28 55.8004 286.871 56.4249C286.905 56.4334 286.948 56.4591 286.982 56.4677C288.735 57.152 290.437 57.9048 292.096 58.7431C292.105 58.7431 292.105 58.7431 292.105 58.7431C296.295 60.8646 300.144 63.4481 303.462 66.4678C304.078 67.443 304.642 68.4524 305.138 69.4704C297.347 63.9613 287.598 60.4027 277.678 59.1366C277.489 59.0254 277.293 58.9142 277.079 58.8116C277.036 58.7945 277.002 58.7774 276.959 58.7602C276.745 58.6576 276.532 58.5635 276.301 58.4865C276.104 58.4095 275.899 58.3411 275.685 58.2812C275.574 58.247 275.454 58.2128 275.334 58.1871C275.078 58.1272 274.83 58.0759 274.573 58.0417C274.419 58.016 274.265 57.9989 274.12 57.9818C273.975 57.9647 273.829 57.9561 273.684 57.9476C273.667 57.939 273.658 57.9476 273.641 57.9476C273.513 57.939 273.393 57.9305 273.265 57.9305C273.231 57.9219 273.196 57.9219 273.171 57.9305C273.059 57.9305 272.94 57.9305 272.829 57.939C272.794 57.939 272.76 57.939 272.726 57.939C272.136 57.9732 271.58 58.0759 271.067 58.2555C270.759 58.3582 270.485 58.4865 270.246 58.6319C269.117 59.3077 268.792 60.3941 269.356 61.4549C269.553 61.8142 269.844 62.1735 270.229 62.5071C270.99 63.1743 272.025 63.679 273.136 63.9613C273.556 64.0811 273.983 64.1581 274.411 64.2094C275.121 64.3035 275.839 64.3035 276.497 64.2094C276.882 64.1581 277.25 64.0725 277.592 63.9613C277.806 63.8843 278.003 63.8074 278.182 63.7133C280.602 64.5003 285.811 66.2881 289.899 68.8202C292.404 70.36 295.705 72.6013 299.605 76.5962C301.05 78.0676 302.308 79.5817 303.402 81.1129C303.325 81.0958 303.257 81.0873 303.18 81.0702C305.959 83.8076 306.926 90.0267 301.666 91.729Z" fill="#EAF5F9"/>
<path opacity="0.8" d="M278.208 63.7221C281.065 64.6546 283.818 65.9035 286.692 67.2808C291.498 69.5905 295.894 72.7727 299.631 76.5965C308.26 85.4076 310.621 95.5531 307.251 104.159C316.034 95.5617 316.872 83.2861 308.782 72.3108C300.512 65.1764 289.215 60.6083 277.678 59.1455C277.96 59.3166 278.225 59.5048 278.456 59.7101C280.09 61.1387 279.936 62.841 278.208 63.7221Z" fill="#CC0E0E"/>
<path opacity="0.8" d="M269.835 62.0795C266.834 61.8486 263.815 61.9683 260.633 62.1565C255.314 62.473 250.037 63.7476 245.128 65.8691C233.806 70.7537 227.785 79.2482 227.639 88.487C222.765 77.2037 226.647 65.527 238.287 58.4353C248.635 54.9708 260.822 55.0307 272.059 58.0418C271.734 58.0932 271.418 58.1702 271.118 58.2728C269.074 58.9657 268.57 60.5996 269.835 62.0795Z" fill="#CC0E0E"/>
<path opacity="0.8" d="M277.909 114.852C283.51 114.724 288.984 113.8 294.004 112.046C295.518 107.752 296.45 102.243 295.757 95.468C294.466 82.9615 285.144 69.4113 276.523 64.2188C275.856 64.3128 275.147 64.3128 274.437 64.2188C279.739 71.5841 281.723 109.129 277.909 114.852Z" fill="#CC0E0E"/>
<path opacity="0.8" d="M250.773 109.506C245.642 107.264 240.93 104.339 236.944 100.806C237.167 96.2633 238.39 90.8141 241.605 84.8004C247.54 73.7139 261.292 64.7146 271.238 63.1748C271.82 63.517 272.478 63.7907 273.171 63.9704C265.474 68.7779 249.413 102.773 250.773 109.506Z" fill="#CC0E0E"/>
<path opacity="0.8" d="M254.673 52.6778C261.805 53.0029 269.34 55.3895 272.675 57.9473C272.701 57.9473 272.718 57.9473 272.743 57.9473C272.778 57.9388 272.812 57.9388 272.846 57.9473C272.957 57.9388 273.077 57.9388 273.188 57.9388C273.214 57.9302 273.248 57.9302 273.282 57.9388C273.359 57.9388 273.445 57.9388 273.522 57.9388C273.564 57.9388 273.607 57.9388 273.658 57.9473C273.667 57.9473 273.684 57.9388 273.701 57.9473C273.847 57.9473 273.992 57.9644 274.137 57.9815C274.274 57.9901 274.402 58.0072 274.539 58.0243C274.685 57.2116 272.367 54.3545 269.459 52.2928C264.465 51.8224 259.462 51.9336 254.673 52.6778Z" fill="#CC0E0E"/>
<path opacity="0.8" d="M275.694 58.281C275.907 58.3409 276.113 58.4179 276.309 58.4863C276.54 58.5633 276.754 58.6574 276.968 58.7601C280.295 57.9388 286.743 57.1347 292.105 58.743C290.446 57.9046 288.744 57.1518 286.991 56.4675C286.957 56.4504 286.914 56.4333 286.88 56.4247C285.289 55.8002 283.656 55.2442 282.005 54.748C279.91 55.4495 276.532 56.8781 275.694 58.281Z" fill="#CC0E0E"/>
<path opacity="0.8" d="M278.456 59.7099C278.225 59.5046 277.96 59.3164 277.678 59.1367C289.215 60.5995 300.512 65.1676 308.782 72.302C309.329 73.0462 309.834 73.8075 310.304 74.5603C311.022 78.0249 310.013 81.1643 305.746 82.1139C305.233 82.2593 304.719 82.2935 304.223 82.2593C302.966 80.3346 301.435 78.4269 299.64 76.5877C295.894 72.7639 291.498 69.5817 286.7 67.272C283.827 65.8947 281.073 64.6372 278.217 63.7133C279.936 62.8408 280.089 61.1385 278.456 59.7099Z" fill="#E51717"/>
<path opacity="0.8" d="M232.626 63.8845C233.113 63.0205 233.823 62.0196 234.593 61.0616C235.722 60.1291 236.962 59.2566 238.296 58.4353C248.644 54.9708 260.831 55.0307 272.068 58.0418C271.743 58.0932 271.427 58.1702 271.127 58.2728C269.075 58.9743 268.57 60.5996 269.836 62.0795C266.834 61.8486 263.815 61.9683 260.634 62.1565C255.314 62.473 250.038 63.7476 245.129 65.8691C241.212 67.5544 237.928 69.6758 235.303 72.1139C231.488 71.1301 230.992 67.0753 232.626 63.8845Z" fill="#E51717"/>
<path opacity="0.8" d="M274.428 64.2256C275.138 64.3197 275.856 64.3197 276.515 64.2256C284.152 68.8279 292.336 79.9743 294.996 91.1549C295.27 92.3269 293.645 94.5681 292.909 95.338C291.703 96.5955 290.01 97.5023 288.248 97.5622C286.307 97.6306 284.588 96.6383 283.203 95.3551C282.219 94.4312 279.688 91.8991 279.602 90.4791C278.944 79.3498 277.114 67.9382 274.428 64.2256Z" fill="#E51717"/>
<path opacity="0.8" d="M271.247 63.1748C271.828 63.517 272.487 63.7907 273.18 63.9704C268.963 66.5966 262.259 77.9483 257.256 88.8038C254.536 90.5746 251.397 91.738 248.302 89.9844C244.333 87.6233 244.128 83.8081 244.906 79.7875C251.74 71.0962 262.849 64.4751 271.247 63.1748Z" fill="#E51717"/>
<path opacity="0.8" d="M269.442 52.2928C272.35 54.3545 274.667 57.2116 274.522 58.0243C274.385 58.0072 274.257 57.9901 274.12 57.9815C273.975 57.9644 273.829 57.9473 273.684 57.9473C273.667 57.9388 273.658 57.9473 273.641 57.9473C273.598 57.9388 273.555 57.9388 273.504 57.9388C273.427 57.9388 273.342 57.9388 273.265 57.9388C273.23 57.9302 273.196 57.9302 273.171 57.9388C273.059 57.9388 272.94 57.9388 272.829 57.9473C272.794 57.9473 272.76 57.9473 272.726 57.9473C272.7 57.9473 272.683 57.9473 272.657 57.9473C269.322 55.381 261.788 53.0029 254.655 52.6778C259.462 51.9336 264.465 51.8224 269.442 52.2928Z" fill="#E51717"/>
<path opacity="0.8" d="M275.694 58.281C275.907 58.3409 276.113 58.4179 276.309 58.4863C276.54 58.5633 276.754 58.6574 276.968 58.7601C280.295 57.9388 286.743 57.1347 292.105 58.743C290.446 57.9046 288.744 57.1518 286.991 56.4675C286.957 56.4504 286.914 56.4333 286.88 56.4247C285.289 55.8002 283.656 55.2442 282.005 54.748C279.91 55.4495 276.532 56.8781 275.694 58.281Z" fill="#E51717"/>
</g>
<path opacity="0.7" d="M247.743 320.545L248.405 320.893L248.382 320.153L247.721 319.794L247.743 320.545Z" fill="#4F2E16"/>
<g opacity="0.7">
<g opacity="0.7">
<g opacity="0.7">
<g opacity="0.7">
<path opacity="0.7" d="M221.359 283.775L224.655 281.756L235.24 275.273L245.388 280.769L247.059 281.678L247.227 281.779L248.775 282.62L259.82 288.609L250.154 294.543L249.178 295.137L249.01 295.249L247.44 296.214L245.882 297.179L235.465 303.572L224.487 297.616L222.872 296.741L222.704 296.64L221.078 295.765L210.897 290.236L210.886 290.225L221.359 283.775Z" fill="#FFDDA8"/>
</g>
</g>
<g opacity="0.7">
<path opacity="0.7" d="M235.442 303.55L236.093 328.169L246.51 321.832L246.555 321.798L248.394 320.688L249.01 320.307L249.818 319.824L250.793 319.23L260.459 313.341L259.809 288.599L249.167 295.126L248.36 295.62L247.743 296.001L245.859 297.157L235.442 303.55Z" fill="#BC7C46"/>
</g>
<g opacity="0.7">
<g opacity="0.7">
<path opacity="0.7" d="M221.09 295.744L221.976 296.226L222.615 296.574L222.75 296.652L222.918 296.742L224.51 297.606L235.476 303.562L236.127 328.181L225.172 322.27L223.288 321.25L222.649 320.902L221.763 320.431L211.559 314.935L210.909 290.226L221.09 295.744Z" fill="#DDA866"/>
</g>
</g>
<g opacity="0.7">
<g opacity="0.7">
<g opacity="0.7">
<g opacity="0.7">
<g opacity="0.7">
<path opacity="0.7" d="M233.85 322.986L234.018 323.087L233.951 320.204L233.783 320.104L233.85 322.986Z" fill="#4F2E16"/>
</g>
</g>
<g opacity="0.7">
<g opacity="0.7">
<path opacity="0.7" d="M233.199 320.419L233.311 320.621L233.861 320.229L234.444 321.227L234.567 321.16L233.861 319.948L233.199 320.419Z" fill="#4F2E16"/>
</g>
</g>
</g>
<g opacity="0.7">
<g opacity="0.7">
<g opacity="0.7">
<path opacity="0.7" d="M232.17 322.079L232.338 322.169L232.271 319.286L232.103 319.196L232.17 322.079Z" fill="#4F2E16"/>
</g>
</g>
<g opacity="0.7">
<g opacity="0.7">
<path opacity="0.7" d="M231.508 319.499L231.643 319.701L232.181 319.319L232.764 320.318L232.887 320.25L232.17 319.039L231.508 319.499Z" fill="#4F2E16"/>
</g>
</g>
</g>
</g>
<g opacity="0.7">
<g opacity="0.7">
<path opacity="0.7" d="M231.53 321.821L234.67 323.526C234.715 323.549 234.748 323.526 234.748 323.47C234.748 323.425 234.715 323.347 234.67 323.324L231.53 321.619C231.485 321.586 231.452 321.608 231.452 321.664C231.452 321.743 231.485 321.799 231.53 321.821Z" fill="#4F2E16"/>
</g>
</g>
<g opacity="0.7">
<g opacity="0.7">
<g opacity="0.7">
<path opacity="0.7" d="M231.576 322.606L234.66 324.277C234.985 324.457 235.243 324.3 235.231 323.93L235.142 320.419C235.131 320.049 234.861 319.611 234.536 319.432L231.453 317.761C231.127 317.593 230.87 317.738 230.881 318.109L230.971 321.619C230.982 321.989 231.251 322.427 231.576 322.606ZM234.536 319.623C234.772 319.746 234.962 320.06 234.974 320.329L235.063 323.84C235.074 324.109 234.884 324.221 234.66 324.087L231.576 322.416C231.341 322.281 231.15 321.978 231.15 321.709L231.049 318.198C231.038 317.929 231.228 317.817 231.453 317.94L234.536 319.623Z" fill="#4F2E16"/>
</g>
</g>
</g>
</g>
<g opacity="0.7">
<g opacity="0.7">
<g opacity="0.7">
<g opacity="0.7">
<path opacity="0.7" d="M226.134 319.703L229.307 321.43C229.644 321.61 229.902 321.453 229.89 321.071L229.801 317.46C229.789 317.078 229.509 316.619 229.173 316.439L225.999 314.712C225.663 314.532 225.405 314.689 225.416 315.071L225.506 318.682C225.517 319.064 225.798 319.512 226.134 319.703ZM229.173 316.63C229.419 316.753 229.61 317.09 229.621 317.359L229.722 320.97C229.733 321.24 229.543 321.352 229.307 321.228L226.134 319.501C225.899 319.366 225.697 319.041 225.685 318.772L225.596 315.16C225.585 314.891 225.775 314.768 226.011 314.902L229.173 316.63Z" fill="#4F2E16"/>
</g>
</g>
</g>
<g opacity="0.7">
<g opacity="0.7">
<g opacity="0.7">
<path opacity="0.7" d="M227.694 319.577C227.739 319.6 227.784 319.577 227.784 319.521L227.717 316.941C227.717 316.885 227.672 316.818 227.627 316.796C227.582 316.773 227.548 316.796 227.548 316.852L227.616 319.443C227.605 319.488 227.649 319.544 227.694 319.577Z" fill="#4F2E16"/>
</g>
</g>
<g opacity="0.7">
<g opacity="0.7">
<path opacity="0.7" d="M227.301 319.365L228.086 319.791C228.131 319.814 228.176 319.791 228.176 319.747C228.176 319.691 228.131 319.623 228.086 319.601L227.301 319.175C227.256 319.152 227.211 319.175 227.222 319.231C227.211 319.264 227.256 319.332 227.301 319.365Z" fill="#4F2E16"/>
</g>
</g>
<g opacity="0.7">
<path opacity="0.7" d="M226.774 316.102L226.808 317.313C226.808 317.638 227.055 318.031 227.346 318.188L227.985 318.535C228.277 318.692 228.49 318.558 228.49 318.233L228.456 317.021L228.142 316.853L228.176 318.143C228.176 318.199 228.142 318.221 228.097 318.188C228.053 318.165 228.008 318.098 228.008 318.042L227.974 316.752L226.774 316.102Z" fill="#4F2E16"/>
</g>
</g>
</g>
<g opacity="0.7">
<g opacity="0.7">
<path opacity="0.7" d="M235.252 275.646L259.159 288.634L235.443 303.069L211.537 290.193L235.252 275.646Z" fill="#F9C98A"/>
</g>
</g>
<g opacity="0.7">
<path opacity="0.7" d="M210.897 290.462V290.653L235.465 303.989L235.454 303.798L210.897 290.462Z" fill="#BC7C46"/>
</g>
<g opacity="0.7">
<path opacity="0.7" d="M222.694 296.62L222.862 296.721L247.228 281.781L247.06 281.68L222.694 296.62Z" fill="#BC7C46"/>
</g>
<g opacity="0.7">
<path opacity="0.7" d="M222.727 296.641L222.738 297.044L222.906 297.033L222.895 296.73L222.727 296.641Z" fill="#BC7C46"/>
</g>
</g>
<path opacity="0.7" d="M221.078 295.722L221.729 320.42L225.138 322.259L224.487 297.572L221.078 295.722Z" fill="#9B7451"/>
<path opacity="0.7" d="M221.079 295.745L222.693 296.62L222.861 296.721L224.476 297.596L248.775 282.611L247.228 281.781L247.059 281.68L245.377 280.771L221.079 295.745Z" fill="#CAAF8F"/>
<path opacity="0.7" d="M245.859 297.136L246.521 321.834L246.554 321.8L249.817 319.826L249.167 295.117L245.859 297.136Z" fill="#9B7451"/>
<path opacity="0.7" d="M221.358 283.777L245.87 297.158L247.429 296.193L247.597 296.092L248.999 295.24L249.178 295.127L228.568 283.889L227.021 283.048L224.655 281.758L223.377 282.543L222.536 283.059L221.358 283.777Z" fill="#CAAF8F"/>
</g>
<g opacity="0.7">
<g opacity="0.7">
<path opacity="0.7" d="M212.444 299.783L219.542 303.63L219.385 297.619L212.287 293.771L212.444 299.783Z" fill="#E5E0DC"/>
</g>
<path opacity="0.7" d="M212.994 295.556L218.746 298.674L218.724 298.001L212.983 294.883L212.994 295.556Z" fill="#4F2E16"/>
<g opacity="0.7">
<path opacity="0.7" d="M213.028 296.764L218.78 299.882L218.769 299.579L213.028 296.461V296.764Z" fill="#B2AEAB"/>
</g>
<g opacity="0.7">
<path opacity="0.7" d="M213.05 297.55L218.802 300.669L218.791 300.377L213.039 297.259L213.05 297.55Z" fill="#B2AEAB"/>
</g>
<g opacity="0.7">
<path opacity="0.7" d="M213.073 298.404L218.825 301.522L218.814 301.23L213.061 298.112L213.073 298.404Z" fill="#B2AEAB"/>
</g>
<g opacity="0.7">
<path opacity="0.7" d="M213.095 299.188L218.847 302.317L218.836 302.015L213.084 298.896L213.095 299.188Z" fill="#B2AEAB"/>
</g>
</g>
<g opacity="0.7">
<path opacity="0.7" d="M222.535 283.061L228.568 283.891L235.195 284.811L235.274 284.194L227.021 283.05L223.376 282.545L222.535 283.061Z" fill="#4F2E16"/>
</g>
<path opacity="0.7" d="M235.358 283.53L236.728 284.273L235.734 286.107L234.364 285.364L235.358 283.53Z" fill="#939899"/>
<path opacity="0.7" d="M235.779 282.926C235.801 283.027 235.823 283.15 235.823 283.285C235.823 283.52 235.79 283.767 235.723 284.003V284.014C235.644 284.003 235.566 284.036 235.476 284.092C235.151 284.294 234.904 284.754 234.915 285.124C234.926 285.225 234.938 285.315 234.982 285.371C234.814 285.562 234.635 285.73 234.433 285.842C234.321 285.91 234.209 285.954 234.108 285.999C233.839 286.089 233.603 286.078 233.401 285.977C233.267 285.91 233.155 285.786 233.087 285.64C232.998 285.483 232.964 285.281 232.953 285.046C232.93 284.115 233.558 282.971 234.343 282.477C234.545 282.354 234.736 282.287 234.915 282.275C235.083 282.253 235.24 282.287 235.375 282.354C235.566 282.455 235.711 282.657 235.779 282.926Z" fill="#939899"/>
<path opacity="0.7" d="M236.485 282.948L235.386 282.354C235.251 282.287 235.094 282.253 234.926 282.275L233.098 285.64C233.177 285.786 233.289 285.91 233.412 285.977L234.522 286.571L235.105 285.483C235.061 285.461 235.016 285.427 234.993 285.36C234.948 285.304 234.926 285.214 234.926 285.113C234.926 284.743 235.173 284.283 235.487 284.081C235.576 284.025 235.655 284.003 235.733 284.003V283.992C235.789 283.992 235.845 283.992 235.902 284.025L236.485 282.948Z" fill="#939899"/>
<path opacity="0.7" d="M235.465 283.071C235.565 283.004 235.678 282.948 235.79 282.925C236.048 282.835 236.294 282.847 236.485 282.948C236.754 283.082 236.922 283.407 236.933 283.878C236.945 284.327 236.81 284.821 236.575 285.269C236.474 285.46 236.362 285.639 236.227 285.808C236.025 286.066 235.79 286.279 235.543 286.436C235.151 286.683 234.781 286.705 234.511 286.559C234.31 286.447 234.175 286.256 234.108 285.976C234.074 285.864 234.063 285.752 234.063 285.628C234.04 284.708 234.668 283.564 235.465 283.071ZM234.926 285.112C234.937 285.224 234.949 285.303 234.994 285.37C235.016 285.426 235.061 285.46 235.106 285.482C235.207 285.538 235.364 285.527 235.521 285.426C235.565 285.404 235.621 285.359 235.666 285.314C235.812 285.18 235.935 284.978 236.014 284.776C236.059 284.652 236.092 284.518 236.081 284.394C236.07 284.215 236.003 284.08 235.891 284.024C235.846 284.002 235.79 283.991 235.734 284.002L235.722 284.013C235.644 284.002 235.565 284.035 235.476 284.092C235.431 284.125 235.375 284.159 235.33 284.204L235.263 284.148L234.848 284.619L234.982 284.742C234.949 284.854 234.915 284.989 234.926 285.112Z" fill="#D1D1D1"/>
<g opacity="0.9">
<path opacity="0.7" d="M247.743 296.004L248.405 320.893L249.021 320.512L248.36 295.623L247.743 296.004Z" fill="#4F2E16"/>
</g>
<g opacity="0.9">
<path opacity="0.7" d="M234.859 284.608L234.994 284.732C235.072 284.53 235.195 284.339 235.341 284.205L235.274 284.148L234.859 284.608Z" fill="#D1D1D1"/>
<path opacity="0.7" d="M234.994 284.731L235.667 285.325L236.239 285.819L247.754 296.003L248.371 295.61L236.586 285.269L236.014 284.776L235.353 284.192C235.196 284.338 235.072 284.529 234.994 284.731Z" fill="#4F2E16"/>
</g>
<g opacity="0.9">
<path opacity="0.7" d="M235.072 284.552C235.027 284.619 234.993 284.709 234.982 284.776V284.765L235.139 284.619L235.072 284.552Z" fill="#4F2E16"/>
<path opacity="0.7" d="M194.683 240.271L233.704 283.06C233.615 283.172 233.525 283.296 233.447 283.419L194.705 240.932L194.683 240.271Z" fill="#4F2E16"/>
</g>
<g opacity="0.9">
<path opacity="0.7" d="M235.285 284.912L272.366 237.928L272.019 237.647L234.993 284.733L235.285 284.912Z" fill="#4F2E16"/>
</g>
<g opacity="0.9">
<path opacity="0.7" d="M235.352 284.821L248.393 251.745L247.99 251.588L234.994 284.732L235.352 284.821Z" fill="#4F2E16"/>
</g>
<g opacity="0.9">
<path opacity="0.7" d="M235.072 284.552C235.027 284.619 234.994 284.709 234.983 284.776V284.765L235.184 284.664L235.095 284.496C235.095 284.519 235.084 284.53 235.072 284.552Z" fill="#4F2E16"/>
<path opacity="0.7" d="M217.972 251.756L233.805 282.948C233.906 282.836 234.029 282.724 234.141 282.634L218.365 251.565L217.972 251.756Z" fill="#4F2E16"/>
</g>
<g opacity="0.9">
<path opacity="0.7" d="M202.88 207.576C218.746 196.057 244.951 195.361 261.412 206.028C277.873 216.694 278.344 234.674 262.477 246.204C246.611 257.723 220.406 258.419 203.945 247.752C187.484 237.085 187.002 219.095 202.88 207.576Z" fill="#A20F0F"/>
<path opacity="0.7" d="M189.491 224.344C190.467 217.962 194.436 211.703 201.411 206.634C204.517 204.391 207.993 202.529 211.705 201.071C216.066 199.354 220.776 198.188 225.575 197.582C227.672 197.324 229.78 197.156 231.899 197.1C232.135 197.089 232.37 197.089 232.617 197.089C234.4 197.055 236.183 197.1 237.954 197.235C239.614 197.358 241.273 197.537 242.911 197.784C242.944 197.784 242.989 197.795 243.023 197.807C244.817 198.087 246.6 198.435 248.338 198.872C248.338 198.872 248.338 198.872 248.349 198.872C253.585 200.196 258.508 202.237 262.803 205.019C264.328 206.006 265.718 207.049 266.974 208.148C257.656 203.168 246.017 201.239 234.804 202.304C234.602 202.237 234.389 202.17 234.164 202.125C234.12 202.114 234.086 202.102 234.041 202.102C233.817 202.046 233.593 202.013 233.357 201.979C233.155 201.957 232.942 201.923 232.729 201.912C232.617 201.901 232.494 201.901 232.381 201.901C232.135 201.901 231.877 201.912 231.63 201.923C231.484 201.934 231.339 201.945 231.182 201.957C231.036 201.979 230.901 201.99 230.767 202.024C230.756 202.024 230.744 202.024 230.733 202.035C230.61 202.058 230.498 202.069 230.374 202.102C230.341 202.102 230.307 202.114 230.285 202.125C230.173 202.147 230.072 202.181 229.959 202.203C229.926 202.203 229.892 202.215 229.87 202.226C229.32 202.383 228.816 202.607 228.367 202.876C228.098 203.045 227.863 203.224 227.672 203.404C226.753 204.29 226.674 205.378 227.425 206.264C227.683 206.555 228.031 206.836 228.468 207.071C229.332 207.531 230.419 207.789 231.529 207.834C231.944 207.856 232.37 207.834 232.785 207.8C233.48 207.733 234.153 207.587 234.759 207.352C235.106 207.217 235.443 207.071 235.745 206.881C235.925 206.768 236.093 206.645 236.25 206.522C238.706 206.746 243.998 207.34 248.405 208.855C251.096 209.774 254.684 211.199 259.226 214.137C269.239 220.632 273.612 229.717 272.255 238.555C270.259 241.639 267.467 244.556 263.89 247.147C263.083 247.73 262.264 248.279 261.412 248.807C257.039 251.532 252.072 253.562 246.802 254.874C233.099 258.318 217.457 256.927 205.593 250.59C204.528 250.029 203.497 249.412 202.499 248.773C192.508 242.268 188.135 233.194 189.491 224.344Z" fill="#D5EEFA"/>
<path opacity="0.7" d="M262.814 205.008C264.339 205.995 265.729 207.038 266.985 208.137C265.684 207.442 264.328 206.813 262.948 206.23C262.264 205.367 261.524 204.537 260.728 203.74C261.435 204.155 262.13 204.57 262.814 205.008Z" fill="#D5EEFA"/>
<path opacity="0.7" d="M264.372 228.001C262.825 228.561 260.784 230.176 258.676 229.189C257.084 228.191 255.514 227.709 254.942 225.645C253.989 228.797 253.114 235.067 248.394 234.147C247.351 234.169 245.736 232.139 245.175 230.58C243.774 236.861 236.026 239.149 229.757 238.275C226.607 237.31 222.413 236.39 221.292 233.295C220.181 230.715 218.051 228.696 217.972 226.094C217.995 227.137 217.524 228.707 216.47 228.214C215.427 228.236 216.414 226.127 215.864 225.107C210.74 228.371 201.433 230.692 198.652 223.996C197.531 220.901 196.903 216.751 199.415 213.565C200.424 212.5 200.906 210.918 201.915 209.853C200.895 210.402 200.323 208.855 200.312 208.339C200.121 208.182 199.953 208.025 199.796 207.868C200.312 207.453 200.839 207.038 201.388 206.634C204.494 204.391 207.97 202.529 211.682 201.071C216.044 199.354 220.753 198.188 225.553 197.582C227.649 197.324 229.757 197.156 231.877 197.1C232.112 197.089 232.348 197.089 232.594 197.089C234.377 197.055 236.16 197.1 237.932 197.235C239.591 197.358 241.251 197.537 242.888 197.784C242.922 197.784 242.966 197.795 243 197.807C244.794 198.087 246.577 198.435 248.315 198.872C248.315 198.872 248.315 198.872 248.326 198.872C252.733 199.983 256.916 201.609 260.694 203.762C261.49 204.559 262.231 205.389 262.915 206.252C254.381 202.697 244.424 201.396 234.792 202.316C234.59 202.248 234.377 202.181 234.153 202.136C234.108 202.125 234.074 202.114 234.03 202.114C233.805 202.058 233.581 202.024 233.346 201.99C233.144 201.968 232.931 201.934 232.718 201.923C232.606 201.912 232.482 201.912 232.37 201.912C232.123 201.912 231.865 201.923 231.619 201.934C231.473 201.945 231.327 201.957 231.17 201.968C231.025 201.99 230.89 202.002 230.755 202.035C230.744 202.035 230.733 202.035 230.722 202.046C230.598 202.069 230.486 202.08 230.363 202.114C230.329 202.114 230.296 202.125 230.273 202.136C230.161 202.159 230.06 202.192 229.948 202.215C229.914 202.215 229.881 202.226 229.858 202.237C229.309 202.394 228.804 202.618 228.356 202.888C228.087 203.056 227.851 203.235 227.661 203.415C226.741 204.301 226.663 205.389 227.414 206.275C227.672 206.566 228.019 206.847 228.457 207.082C229.32 207.542 230.408 207.8 231.518 207.845C231.933 207.868 232.359 207.845 232.774 207.811C233.469 207.744 234.142 207.598 234.747 207.363C235.095 207.228 235.431 207.082 235.734 206.892C235.913 206.78 236.082 206.656 236.239 206.533C238.694 206.757 243.987 207.352 248.394 208.866C251.085 209.786 254.673 211.21 259.214 214.149C260.885 215.237 262.399 216.392 263.755 217.614C263.677 217.614 263.61 217.614 263.531 217.626C266.749 219.6 268.992 225.264 264.372 228.001Z" fill="#EAF5F9"/>
<path opacity="0.7" d="M236.284 206.51C239.188 206.779 242.047 207.374 245.052 208.069C250.076 209.236 254.908 211.311 259.248 214.126C269.261 220.62 273.634 229.705 272.278 238.543C278.759 228.561 276.942 216.795 266.974 208.136C257.656 203.156 246.016 201.227 234.803 202.293C235.106 202.405 235.386 202.517 235.656 202.663C237.517 203.672 237.73 205.31 236.284 206.51Z" fill="#CC0E0E"/>
<path opacity="0.7" d="M228.031 206.734C225.149 207.16 222.323 207.901 219.352 208.764C214.396 210.189 209.686 212.51 205.492 215.561C195.838 222.571 191.947 231.881 193.764 240.629C186.767 231.006 187.955 219.15 197.453 209.987C206.502 204.524 218.017 201.99 229.264 202.461C228.973 202.584 228.692 202.719 228.434 202.876C226.652 203.964 226.517 205.601 228.031 206.734Z" fill="#CC0E0E"/>
<path opacity="0.7" d="M246.835 254.874C252.094 253.562 257.072 251.531 261.445 248.806C261.961 244.432 261.681 239.025 259.584 232.778C255.716 221.237 244.043 210.413 234.792 207.34C234.186 207.564 233.514 207.721 232.818 207.788C239.401 213.61 249.234 248.66 246.835 254.874Z" fill="#CC0E0E"/>
<path opacity="0.7" d="M220.07 255.581C214.743 254.549 209.675 252.788 205.167 250.298C204.416 245.958 204.416 240.552 206.177 234.192C209.428 222.46 220.518 211.042 229.59 207.486C230.206 207.688 230.89 207.8 231.585 207.834C225.329 213.992 217.356 249.502 220.07 255.581Z" fill="#CC0E0E"/>
<path opacity="0.7" d="M211.716 201.071C218.522 199.871 226.147 200.522 229.836 202.238C229.859 202.226 229.881 202.226 229.892 202.215C229.926 202.204 229.96 202.193 229.982 202.193C230.083 202.159 230.195 202.137 230.307 202.114C230.33 202.103 230.363 202.103 230.397 202.092C230.475 202.069 230.543 202.058 230.621 202.047C230.666 202.036 230.7 202.025 230.744 202.025C230.756 202.025 230.767 202.013 230.778 202.013C230.913 201.98 231.058 201.968 231.193 201.946C231.328 201.924 231.451 201.912 231.585 201.901C231.552 201.105 228.76 198.895 225.575 197.561C220.776 198.189 216.078 199.355 211.716 201.071Z" fill="#CC0E0E"/>
<path opacity="0.7" d="M232.752 201.912C232.965 201.924 233.178 201.946 233.38 201.98C233.615 202.013 233.839 202.047 234.064 202.103C237.035 200.623 242.956 198.492 248.36 198.873C246.622 198.435 244.851 198.077 243.045 197.807C243.012 197.807 242.967 197.796 242.933 197.785C241.296 197.527 239.636 197.348 237.977 197.235C236.138 198.346 233.256 200.41 232.752 201.912Z" fill="#CC0E0E"/>
<path opacity="0.7" d="M235.667 202.675C235.398 202.529 235.117 202.405 234.814 202.305C246.016 201.239 257.667 203.168 266.985 208.148C267.658 208.731 268.297 209.337 268.902 209.954C270.315 213.083 270.024 216.257 266.189 218.052C265.729 218.299 265.258 218.445 264.787 218.512C263.184 216.953 261.345 215.484 259.259 214.126C254.908 211.311 250.087 209.236 245.063 208.07C242.058 207.374 239.188 206.78 236.295 206.511C237.73 205.31 237.517 203.673 235.667 202.675Z" fill="#E51717"/>
<path opacity="0.7" d="M193.259 216.335C193.539 215.415 193.988 214.316 194.515 213.251C195.389 212.129 196.365 211.041 197.453 209.987C206.502 204.524 218.017 201.99 229.264 202.461C228.973 202.584 228.692 202.719 228.434 202.876C226.64 203.975 226.517 205.624 228.02 206.745C225.138 207.171 222.312 207.912 219.341 208.775C214.384 210.2 209.675 212.522 205.481 215.572C202.14 217.995 199.493 220.698 197.531 223.558C193.73 223.412 192.396 219.689 193.259 216.335Z" fill="#E51717"/>
<path opacity="0.7" d="M232.83 207.788C233.525 207.721 234.198 207.575 234.804 207.34C242.989 210.065 253.081 218.859 257.97 228.852C258.486 229.907 257.42 232.363 256.882 233.249C256.008 234.696 254.606 235.907 252.958 236.345C251.141 236.827 249.302 236.255 247.732 235.324C246.611 234.662 243.673 232.812 243.292 231.488C240.298 221.125 236.149 210.727 232.83 207.788Z" fill="#E51717"/>
<path opacity="0.7" d="M229.59 207.475C230.206 207.677 230.89 207.789 231.585 207.822C228.165 211.198 224.23 223.345 221.808 234.663C219.61 236.906 216.896 238.678 213.6 237.669C209.361 236.278 208.352 232.722 208.229 228.752C212.837 219.095 221.942 210.481 229.59 207.475Z" fill="#E51717"/>
<path opacity="0.7" d="M225.586 197.582C228.771 198.917 231.563 201.126 231.596 201.923C231.462 201.934 231.339 201.945 231.204 201.968C231.058 201.979 230.924 202.001 230.789 202.035C230.778 202.035 230.767 202.035 230.755 202.046C230.711 202.046 230.666 202.057 230.632 202.068C230.554 202.08 230.475 202.102 230.408 202.113C230.374 202.113 230.341 202.125 230.318 202.136C230.206 202.158 230.105 202.181 229.993 202.214C229.959 202.214 229.926 202.226 229.903 202.237C229.881 202.248 229.858 202.248 229.847 202.259C226.158 200.543 218.533 199.893 211.727 201.093C216.078 199.354 220.776 198.188 225.586 197.582Z" fill="#E51717"/>
<path opacity="0.7" d="M232.752 201.912C232.965 201.924 233.178 201.946 233.38 201.98C233.615 202.013 233.839 202.047 234.064 202.103C237.035 200.623 242.956 198.492 248.36 198.873C246.622 198.435 244.851 198.077 243.045 197.807C243.012 197.807 242.967 197.796 242.933 197.785C241.296 197.527 239.636 197.348 237.977 197.235C236.138 198.346 233.256 200.41 232.752 201.912Z" fill="#E51717"/>
</g>
</svg>
