<svg width="223" height="222" viewBox="0 0 223 222" fill="none" xmlns="http://www.w3.org/2000/svg">
<path d="M17.9903 177.853C18.5814 173.462 18.3217 168.999 17.2253 164.707C16.0496 160.026 13.684 156.768 10.8864 155.054C8.08873 153.34 2.99631 155.139 7.06175 160.613C11.1272 166.088 15.2564 173.058 15.6955 178.32L17.9903 177.853Z" fill="#37474F"/>
<path d="M17.2027 178.361C17.1562 178.361 17.1103 178.35 17.0677 178.332C17.0251 178.313 16.9866 178.286 16.9544 178.253C16.9221 178.219 16.8968 178.18 16.8799 178.136C16.863 178.093 16.8547 178.047 16.8557 178C17.054 168.318 12.514 158.58 8.35648 156.341C8.27289 156.297 8.21027 156.222 8.18238 156.131C8.15448 156.041 8.16361 155.943 8.20775 155.86C8.25189 155.776 8.32744 155.714 8.41776 155.686C8.50808 155.658 8.60578 155.667 8.68937 155.711C13.0594 158.048 17.7977 168.085 17.5923 178.014C17.5926 178.064 17.5825 178.113 17.5624 178.158C17.5424 178.203 17.513 178.243 17.4761 178.276C17.4392 178.309 17.3957 178.334 17.3486 178.348C17.3015 178.363 17.2517 178.367 17.2027 178.361Z" fill="white"/>
<path d="M18.3349 194.977C13.8728 197.57 8.80166 195.19 7.92341 190.211C7.61886 188.476 7.31431 186.67 5.70655 185.685C4.36085 184.849 2.5477 184.743 1.39322 183.624C-0.24995 182.023 0.684953 179.962 1.71902 178.34C2.68226 176.867 3.46136 175.146 2.55478 173.46C1.99868 172.576 1.55832 171.624 1.24448 170.627C1.0918 170.13 1.07092 169.602 1.18391 169.094C1.29689 168.586 1.53987 168.116 1.88901 167.731C2.73892 166.923 4.07754 166.959 5.21785 167.235C7.06674 167.729 8.76803 168.665 10.1757 169.962C11.1744 170.819 11.741 171.69 13.1787 171.952C14.2411 172.143 15.346 171.952 16.3943 172.2C17.055 172.379 17.6699 172.697 18.1976 173.133C18.7253 173.569 19.1537 174.113 19.454 174.728C20.4951 176.761 20.1622 179.127 19.9993 181.315C19.8364 183.504 19.631 185.48 19.3761 187.555C19.1636 189.311 18.9228 191.096 18.6678 192.817C18.6253 193.086 18.5757 194.85 18.3349 194.977Z" fill="#455A64"/>
<path d="M18.7607 192.528C18.676 192.527 18.5944 192.496 18.5307 192.44C18.4671 192.384 18.4255 192.307 18.4137 192.223C16.8626 181.103 7.49931 170.756 4.01464 168.978C3.97325 168.957 3.93648 168.927 3.90643 168.892C3.87638 168.856 3.85363 168.815 3.83949 168.77C3.82535 168.726 3.82009 168.679 3.82401 168.633C3.82794 168.586 3.84097 168.541 3.86236 168.5C3.88375 168.458 3.91309 168.422 3.9487 168.392C3.9843 168.362 4.02548 168.339 4.06987 168.325C4.11426 168.311 4.161 168.305 4.20742 168.309C4.25385 168.313 4.29905 168.326 4.34044 168.348C8.0305 170.232 17.5071 180.593 19.1148 192.131C19.1269 192.224 19.1016 192.318 19.0445 192.392C18.9875 192.467 18.9032 192.515 18.8103 192.528H18.7607Z" fill="white"/>
<path d="M4.91977 180.487C4.82585 180.506 4.72831 180.487 4.64862 180.433C4.56892 180.38 4.51359 180.298 4.49481 180.204C4.47602 180.11 4.49532 180.012 4.54845 179.933C4.60158 179.853 4.6842 179.798 4.77812 179.779C7.58704 178.69 10.6115 178.273 13.6102 178.561C13.6565 178.564 13.7016 178.577 13.7428 178.598C13.7841 178.619 13.8207 178.649 13.8504 178.684C13.8801 178.72 13.9024 178.761 13.9158 178.806C13.9293 178.85 13.9338 178.897 13.9289 178.943C13.9245 178.99 13.9109 179.035 13.8888 179.076C13.8668 179.118 13.8368 179.154 13.8006 179.184C13.7644 179.213 13.7226 179.235 13.6778 179.249C13.6329 179.262 13.5859 179.267 13.5394 179.262C10.6504 179.013 7.74281 179.429 5.04017 180.48C5.00047 180.487 4.96004 180.49 4.91977 180.487Z" fill="white"/>
<path d="M19.326 197.599C18.6963 197.175 18.1758 196.608 17.8065 195.944C17.4373 195.281 17.2299 194.54 17.2012 193.781V86.7484C17.2417 85.9662 17.4669 85.2048 17.8584 84.5264C18.2498 83.8481 18.7965 83.2722 19.4535 82.8458L145.942 9.82374C146.612 9.46926 147.355 9.27632 148.113 9.26033C148.871 9.24434 149.621 9.40575 150.305 9.73167C150.935 10.1504 151.457 10.7131 151.826 11.3733C152.196 12.0334 152.403 12.772 152.43 13.528V120.596C152.39 121.378 152.164 122.14 151.773 122.818C151.381 123.497 150.835 124.073 150.178 124.499L23.6889 197.521C23.0186 197.875 22.2745 198.066 21.5167 198.08C20.7589 198.093 20.0085 197.929 19.326 197.599Z" fill="#F1463B"/>
<path d="M29.8942 91.4439L17.8537 84.5029C17.4468 85.1753 17.2199 85.9412 17.195 86.7268V193.781C17.1735 194.547 17.3594 195.304 17.7329 195.973C18.1065 196.642 18.6539 197.197 19.3172 197.58C19.9806 197.963 20.7351 198.16 21.5011 198.15C22.2671 198.139 23.016 197.922 23.6686 197.521L29.873 193.937L29.8942 91.4439Z" fill="#F1463B"/>
<path opacity="0.2" d="M29.8942 91.4439L17.8537 84.5029C17.4468 85.1753 17.2199 85.9412 17.195 86.7268V193.781C17.1735 194.547 17.3594 195.304 17.7329 195.973C18.1065 196.642 18.6539 197.197 19.3172 197.58C19.9806 197.963 20.7351 198.16 21.5011 198.15C22.2671 198.139 23.016 197.922 23.6686 197.521L29.873 193.937L29.8942 91.4439Z" fill="black"/>
<path d="M23.69 85.2902L150.165 12.2327C151.411 11.5244 152.417 12.0981 152.417 13.5288V120.597C152.377 121.379 152.151 122.141 151.76 122.819C151.368 123.497 150.822 124.073 150.165 124.5L23.69 197.522C22.4506 198.23 21.4448 197.656 21.4448 196.219V89.1927C21.4845 88.4112 21.7087 87.6502 22.0989 86.9719C22.4891 86.2936 23.0344 85.7173 23.69 85.2902Z" fill="#F1463B"/>
<g opacity="0.5">
<path opacity="0.5" d="M23.689 85.2887L150.164 12.2312C151.41 11.523 152.416 12.0967 152.416 13.5274V120.596C152.376 121.378 152.15 122.139 151.759 122.818C151.367 123.496 150.821 124.072 150.164 124.498L23.689 197.52C22.4496 198.229 21.4438 197.655 21.4438 196.217V89.1913C21.4836 88.4098 21.7077 87.6487 22.0979 86.9705C22.4881 86.2922 23.0334 85.7159 23.689 85.2887Z" fill="white"/>
</g>
<path opacity="0.4" d="M34.1147 171.981C34.2437 164.261 34.7851 156.553 35.7367 148.891C36.7212 140.569 38.7397 126.524 46.7714 121.892C54.8032 117.26 57.8133 125.632 58.9678 129.761C60.4764 135.109 68.3239 131.723 69.4217 122.898C70.5195 114.073 71.2207 85.9904 80.6265 80.5581C90.0322 75.1257 93.0778 88.2002 94.1473 91.8478C96.272 99.0154 102.434 97.0394 104.452 92.2869C106.471 87.5345 111.96 86.38 114.035 93.0589C116.111 99.7379 117.4 107.408 124.128 103.47C130.028 100.014 127.315 93.7176 133.073 90.7216C134.752 89.8576 138.095 90.3392 138.846 95.2687C139.532 100.481 139.833 105.736 139.745 110.992L34.1147 171.981Z" fill="white"/>
<path d="M34.1152 172.505C33.9774 172.503 33.8459 172.447 33.7491 172.349C33.6524 172.251 33.5981 172.118 33.5981 171.981C33.7278 164.235 34.2692 156.501 35.2201 148.813C36.0133 142.106 37.8761 126.404 46.5098 121.418C49.0667 119.944 51.3756 119.611 53.38 120.426C56.0501 121.51 58.0404 124.513 59.4711 129.633C59.896 131.135 60.8876 131.914 62.2545 131.808C65.0026 131.595 68.2394 128.189 68.9051 122.848C69.0822 121.432 69.2522 119.491 69.4434 117.246C70.4916 105.113 72.2765 84.8074 80.3719 80.1187C82.858 78.7021 85.1386 78.3763 87.1642 79.1979C91.6192 81.004 93.5386 87.7679 94.4522 91.0188C94.5231 91.2809 94.5868 91.5146 94.6506 91.7271C95.4367 94.4114 96.8887 95.9767 98.7373 96.0546C100.77 96.1892 102.951 94.5177 103.971 92.1096C105.105 89.4394 107.314 87.7892 109.524 87.9025C111.734 88.0158 113.575 89.8431 114.532 92.9382C114.758 93.6465 114.978 94.4044 115.19 95.141C116.373 99.1568 117.478 102.932 119.759 103.853C120.856 104.285 122.202 104.023 123.866 103.052C126.643 101.423 127.408 99.1781 128.159 96.7983C128.909 94.4185 129.766 91.89 132.833 90.2964C133.395 90.0204 134.014 89.8804 134.641 89.8878C135.267 89.8952 135.883 90.0497 136.438 90.3389C137.515 90.8843 138.896 92.1804 139.356 95.2259C140.046 100.468 140.349 105.755 140.263 111.041C140.264 111.11 140.251 111.179 140.224 111.242C140.197 111.305 140.158 111.363 140.108 111.41C140.058 111.457 139.999 111.494 139.934 111.517C139.869 111.54 139.8 111.549 139.732 111.544C139.594 111.541 139.463 111.483 139.368 111.383C139.272 111.284 139.22 111.151 139.222 111.013C139.312 105.788 139.014 100.563 138.329 95.3818C137.933 92.7683 136.828 91.6988 135.971 91.2667C135.562 91.0527 135.109 90.9374 134.648 90.9301C134.187 90.9227 133.73 91.0234 133.315 91.2243C130.623 92.6408 129.908 94.8081 129.15 97.1241C128.343 99.5818 127.507 102.124 124.391 103.952C122.429 105.092 120.793 105.368 119.376 104.816C116.628 103.725 115.445 99.6951 114.192 95.4313C113.979 94.7231 113.767 93.9652 113.54 93.2428C112.718 90.5939 111.231 89.0286 109.475 88.9366C107.718 88.8445 105.877 90.2893 104.927 92.5204C103.723 95.3534 101.16 97.2374 98.6735 97.0958C97.3278 97.0179 94.8914 96.2529 93.6519 92.0246C93.5882 91.8192 93.5244 91.5784 93.4465 91.3163C92.5753 88.2283 90.7551 81.7902 86.7676 80.1753C85.0606 79.4671 83.0846 79.7716 80.889 81.0323C73.2397 85.4519 71.4478 106.204 70.4846 117.352C70.2863 119.604 70.1163 121.552 69.9392 123.018C69.2309 128.89 65.4984 132.644 62.3324 132.884C60.4697 133.026 59.0249 131.928 58.4724 129.952C57.1338 125.2 55.3419 122.423 52.9834 121.453C51.2977 120.745 49.2933 121.078 47.0268 122.381C38.8464 127.105 37.0261 142.446 36.2541 148.997C35.3084 156.639 34.7693 164.325 34.6393 172.023C34.6286 172.155 34.5687 172.277 34.4715 172.367C34.3744 172.456 34.2471 172.505 34.1152 172.505Z" fill="#F5F5F5"/>
<path d="M49.0874 121.793C48.9991 121.793 48.9144 121.758 48.852 121.696C48.7896 121.633 48.7545 121.549 48.7545 121.46V120.809C48.7476 120.762 48.7509 120.713 48.7642 120.667C48.7776 120.622 48.8007 120.579 48.8319 120.543C48.8632 120.507 48.9019 120.478 48.9453 120.458C48.9888 120.438 49.0361 120.428 49.0839 120.428C49.1317 120.428 49.1789 120.438 49.2224 120.458C49.2659 120.478 49.3045 120.507 49.3358 120.543C49.367 120.579 49.3901 120.622 49.4035 120.667C49.4168 120.713 49.4202 120.762 49.4132 120.809V121.46C49.4132 121.548 49.3791 121.631 49.3182 121.693C49.2573 121.756 49.1745 121.791 49.0874 121.793Z" fill="#F5F5F5"/>
<path d="M49.0874 161.095C49.0437 161.095 49.0004 161.086 48.96 161.069C48.9196 161.053 48.8829 161.028 48.852 160.997C48.8211 160.966 48.7966 160.93 48.7799 160.889C48.7631 160.849 48.7545 160.805 48.7545 160.762V159.437C48.7661 159.358 48.8058 159.286 48.8663 159.234C48.9267 159.182 49.004 159.153 49.0839 159.153C49.1638 159.153 49.241 159.182 49.3015 159.234C49.3619 159.286 49.4016 159.358 49.4132 159.437V160.748C49.4151 160.792 49.4081 160.836 49.3927 160.878C49.3773 160.919 49.3537 160.957 49.3233 160.99C49.293 161.022 49.2565 161.048 49.216 161.066C49.1754 161.084 49.1317 161.094 49.0874 161.095ZM49.0874 158.474C48.9991 158.474 48.9144 158.439 48.852 158.377C48.7896 158.314 48.7545 158.229 48.7545 158.141V156.831C48.7661 156.752 48.8058 156.68 48.8663 156.627C48.9267 156.575 49.004 156.546 49.0839 156.546C49.1638 156.546 49.241 156.575 49.3015 156.627C49.3619 156.68 49.4016 156.752 49.4132 156.831V158.141C49.4132 158.228 49.3791 158.312 49.3182 158.374C49.2573 158.436 49.1745 158.472 49.0874 158.474ZM49.0874 155.853C49.0437 155.853 49.0004 155.845 48.96 155.828C48.9196 155.811 48.8829 155.787 48.852 155.756C48.8211 155.725 48.7966 155.688 48.7799 155.648C48.7631 155.608 48.7545 155.564 48.7545 155.521V154.217C48.7476 154.17 48.7509 154.122 48.7642 154.076C48.7776 154.03 48.8007 153.988 48.8319 153.951C48.8632 153.915 48.9019 153.886 48.9453 153.866C48.9888 153.846 49.0361 153.836 49.0839 153.836C49.1317 153.836 49.1789 153.846 49.2224 153.866C49.2659 153.886 49.3045 153.915 49.3358 153.951C49.367 153.988 49.3901 154.03 49.4035 154.076C49.4168 154.122 49.4202 154.17 49.4132 154.217V155.521C49.4132 155.608 49.3791 155.691 49.3182 155.754C49.2573 155.816 49.1745 155.852 49.0874 155.853ZM49.0874 153.233C49.0003 153.233 48.9167 153.199 48.8545 153.138C48.7923 153.077 48.7564 152.994 48.7545 152.907V151.597C48.7476 151.55 48.7509 151.501 48.7642 151.455C48.7776 151.409 48.8007 151.367 48.8319 151.331C48.8632 151.295 48.9019 151.266 48.9453 151.246C48.9888 151.226 49.0361 151.216 49.0839 151.216C49.1317 151.216 49.1789 151.226 49.2224 151.246C49.2659 151.266 49.3045 151.295 49.3358 151.331C49.367 151.367 49.3901 151.409 49.4035 151.455C49.4168 151.501 49.4202 151.55 49.4132 151.597V152.907C49.4114 152.993 49.3765 153.075 49.3158 153.135C49.2551 153.196 49.1732 153.231 49.0874 153.233ZM49.0874 150.612C49.0003 150.612 48.9167 150.578 48.8545 150.517C48.7923 150.456 48.7564 150.374 48.7545 150.287V148.976C48.7476 148.929 48.7509 148.881 48.7642 148.835C48.7776 148.789 48.8007 148.746 48.8319 148.71C48.8632 148.674 48.9019 148.645 48.9453 148.625C48.9888 148.605 49.0361 148.595 49.0839 148.595C49.1317 148.595 49.1789 148.605 49.2224 148.625C49.2659 148.645 49.3045 148.674 49.3358 148.71C49.367 148.746 49.3901 148.789 49.4035 148.835C49.4168 148.881 49.4202 148.929 49.4132 148.976V150.287C49.4114 150.372 49.3765 150.454 49.3158 150.515C49.2551 150.576 49.1732 150.611 49.0874 150.612ZM49.0874 147.992C49.0003 147.992 48.9167 147.958 48.8545 147.897C48.7923 147.836 48.7564 147.753 48.7545 147.666V146.356C48.7476 146.308 48.7509 146.26 48.7642 146.214C48.7776 146.168 48.8007 146.126 48.8319 146.09C48.8632 146.053 48.9019 146.024 48.9453 146.005C48.9888 145.985 49.0361 145.974 49.0839 145.974C49.1317 145.974 49.1789 145.985 49.2224 146.005C49.2659 146.024 49.3045 146.053 49.3358 146.09C49.367 146.126 49.3901 146.168 49.4035 146.214C49.4168 146.26 49.4202 146.308 49.4132 146.356V147.666C49.4114 147.752 49.3765 147.834 49.3158 147.894C49.2551 147.955 49.1732 147.99 49.0874 147.992ZM49.0874 145.371C49.0003 145.371 48.9167 145.337 48.8545 145.276C48.7923 145.215 48.7564 145.132 48.7545 145.045V143.735C48.7476 143.688 48.7509 143.64 48.7642 143.594C48.7776 143.548 48.8007 143.505 48.8319 143.469C48.8632 143.433 48.9019 143.404 48.9453 143.384C48.9888 143.364 49.0361 143.354 49.0839 143.354C49.1317 143.354 49.1789 143.364 49.2224 143.384C49.2659 143.404 49.3045 143.433 49.3358 143.469C49.367 143.505 49.3901 143.548 49.4035 143.594C49.4168 143.64 49.4202 143.688 49.4132 143.735V145.045C49.4114 145.131 49.3765 145.213 49.3158 145.274C49.2551 145.334 49.1732 145.369 49.0874 145.371ZM49.0874 142.751C49.044 142.752 49.0009 142.744 48.9605 142.728C48.9202 142.712 48.8834 142.688 48.8524 142.658C48.8214 142.627 48.7968 142.591 48.78 142.551C48.7632 142.511 48.7545 142.468 48.7545 142.425V141.115C48.7476 141.067 48.7509 141.019 48.7642 140.973C48.7776 140.927 48.8007 140.885 48.8319 140.848C48.8632 140.812 48.9019 140.783 48.9453 140.763C48.9888 140.743 49.0361 140.733 49.0839 140.733C49.1317 140.733 49.1789 140.743 49.2224 140.763C49.2659 140.783 49.3045 140.812 49.3358 140.848C49.367 140.885 49.3901 140.927 49.4035 140.973C49.4168 141.019 49.4202 141.067 49.4132 141.115V142.439C49.4095 142.523 49.3736 142.602 49.3129 142.66C49.2522 142.718 49.1714 142.751 49.0874 142.751ZM49.0874 140.13C49.044 140.131 49.0009 140.123 48.9605 140.107C48.9202 140.091 48.8834 140.067 48.8524 140.037C48.8214 140.007 48.7968 139.971 48.78 139.931C48.7632 139.891 48.7545 139.848 48.7545 139.804V138.494C48.7476 138.447 48.7509 138.398 48.7642 138.352C48.7776 138.307 48.8007 138.264 48.8319 138.228C48.8632 138.192 48.9019 138.163 48.9453 138.143C48.9888 138.123 49.0361 138.113 49.0839 138.113C49.1317 138.113 49.1789 138.123 49.2224 138.143C49.2659 138.163 49.3045 138.192 49.3358 138.228C49.367 138.264 49.3901 138.307 49.4035 138.352C49.4168 138.398 49.4202 138.447 49.4132 138.494V139.804C49.4132 139.847 49.4048 139.889 49.3884 139.929C49.372 139.968 49.348 140.004 49.3178 140.035C49.2875 140.065 49.2516 140.089 49.2121 140.105C49.1725 140.122 49.1302 140.13 49.0874 140.13ZM49.0874 137.509C49.044 137.51 49.0009 137.503 48.9605 137.487C48.9202 137.471 48.8834 137.447 48.8524 137.417C48.8214 137.386 48.7968 137.35 48.78 137.31C48.7632 137.27 48.7545 137.227 48.7545 137.184V135.873C48.7661 135.794 48.8058 135.722 48.8663 135.67C48.9267 135.618 49.004 135.589 49.0839 135.589C49.1638 135.589 49.241 135.618 49.3015 135.67C49.3619 135.722 49.4016 135.794 49.4132 135.873V137.184C49.4061 137.265 49.3687 137.341 49.3083 137.396C49.248 137.451 49.1691 137.481 49.0874 137.481V137.509ZM49.0874 134.896C48.9991 134.896 48.9144 134.861 48.852 134.798C48.7896 134.736 48.7545 134.651 48.7545 134.563V133.232C48.7661 133.152 48.8058 133.08 48.8663 133.028C48.9267 132.976 49.004 132.947 49.0839 132.947C49.1638 132.947 49.241 132.976 49.3015 133.028C49.3619 133.08 49.4016 133.152 49.4132 133.232V134.542C49.4161 134.587 49.4098 134.632 49.3948 134.674C49.3799 134.716 49.3564 134.755 49.326 134.788C49.2955 134.822 49.2587 134.848 49.2177 134.867C49.1767 134.885 49.1324 134.895 49.0874 134.896ZM49.0874 132.275C48.9991 132.275 48.9144 132.24 48.852 132.178C48.7896 132.115 48.7545 132.031 48.7545 131.942V130.632C48.7661 130.553 48.8058 130.481 48.8663 130.429C48.9267 130.376 49.004 130.348 49.0839 130.348C49.1638 130.348 49.241 130.376 49.3015 130.429C49.3619 130.481 49.4016 130.553 49.4132 130.632V131.942C49.4132 132.03 49.3791 132.113 49.3182 132.175C49.2573 132.238 49.1745 132.273 49.0874 132.275ZM49.0874 129.655C48.9991 129.655 48.9144 129.62 48.852 129.557C48.7896 129.495 48.7545 129.41 48.7545 129.322V128.012C48.7661 127.933 48.8058 127.86 48.8663 127.808C48.9267 127.756 49.004 127.727 49.0839 127.727C49.1638 127.727 49.241 127.756 49.3015 127.808C49.3619 127.86 49.4016 127.933 49.4132 128.012V129.322C49.4181 129.368 49.4134 129.414 49.3994 129.458C49.3853 129.503 49.3622 129.543 49.3315 129.578C49.3009 129.613 49.2633 129.64 49.2213 129.66C49.1793 129.679 49.1337 129.689 49.0874 129.69V129.655ZM49.0874 127.034C48.9991 127.034 48.9144 126.999 48.852 126.937C48.7896 126.874 48.7545 126.79 48.7545 126.701V125.391C48.7661 125.312 48.8058 125.24 48.8663 125.188C48.9267 125.135 49.004 125.107 49.0839 125.107C49.1638 125.107 49.241 125.135 49.3015 125.188C49.3619 125.24 49.4016 125.312 49.4132 125.391V126.701C49.4132 126.788 49.3791 126.872 49.3182 126.934C49.2573 126.996 49.1745 127.032 49.0874 127.034ZM49.0874 124.414C48.9991 124.414 48.9144 124.379 48.852 124.316C48.7896 124.254 48.7545 124.169 48.7545 124.081V122.77C48.7661 122.691 48.8058 122.619 48.8663 122.567C48.9267 122.515 49.004 122.486 49.0839 122.486C49.1638 122.486 49.241 122.515 49.3015 122.567C49.3619 122.619 49.4016 122.691 49.4132 122.77V124.081C49.4132 124.168 49.3791 124.251 49.3182 124.314C49.2573 124.376 49.1745 124.412 49.0874 124.414Z" fill="#F5F5F5"/>
<path d="M49.0883 163.064C49.0445 163.064 49.0012 163.056 48.9609 163.039C48.9205 163.022 48.8838 162.998 48.8529 162.967C48.822 162.936 48.7974 162.899 48.7807 162.859C48.764 162.819 48.7554 162.775 48.7554 162.732V162.073C48.767 161.994 48.8067 161.922 48.8671 161.869C48.9276 161.817 49.0048 161.788 49.0847 161.788C49.1646 161.788 49.2418 161.817 49.3023 161.869C49.3628 161.922 49.4024 161.994 49.4141 162.073V162.732C49.4141 162.819 49.38 162.902 49.3191 162.964C49.2582 163.027 49.1753 163.063 49.0883 163.064Z" fill="#F5F5F5"/>
<path d="M83.0706 80.6581C82.9847 80.6563 82.9029 80.6214 82.8422 80.5607C82.7815 80.5 82.7466 80.4182 82.7448 80.3323V79.6736C82.7378 79.6263 82.7411 79.5781 82.7545 79.5322C82.7678 79.4863 82.7909 79.4438 82.8222 79.4076C82.8534 79.3714 82.8921 79.3424 82.9356 79.3225C82.979 79.3026 83.0263 79.2923 83.0741 79.2923C83.1219 79.2923 83.1691 79.3026 83.2126 79.3225C83.2561 79.3424 83.2948 79.3714 83.326 79.4076C83.3573 79.4438 83.3804 79.4863 83.3937 79.5322C83.4071 79.5781 83.4104 79.6263 83.4034 79.6736V80.3323C83.4016 80.4194 83.3657 80.5022 83.3035 80.5631C83.2412 80.624 83.1576 80.6581 83.0706 80.6581Z" fill="#F5F5F5"/>
<path d="M83.0706 142.091C82.9835 142.089 82.9006 142.053 82.8397 141.991C82.7788 141.929 82.7447 141.845 82.7448 141.758V140.427C82.7378 140.379 82.7411 140.331 82.7545 140.285C82.7678 140.239 82.7909 140.197 82.8222 140.161C82.8534 140.125 82.8921 140.096 82.9356 140.076C82.979 140.056 83.0263 140.045 83.0741 140.045C83.1219 140.045 83.1691 140.056 83.2126 140.076C83.2561 140.096 83.2948 140.125 83.326 140.161C83.3573 140.197 83.3804 140.239 83.3937 140.285C83.4071 140.331 83.4104 140.379 83.4034 140.427V141.73C83.4074 141.776 83.4017 141.822 83.3867 141.866C83.3718 141.91 83.3479 141.95 83.3166 141.984C83.2852 142.018 83.2472 142.045 83.2048 142.063C83.1625 142.082 83.1168 142.091 83.0706 142.091ZM83.0706 139.421C82.9835 139.419 82.9006 139.383 82.8397 139.321C82.7788 139.259 82.7447 139.175 82.7448 139.088V137.75C82.7564 137.67 82.796 137.598 82.8565 137.546C82.917 137.494 82.9942 137.465 83.0741 137.465C83.154 137.465 83.2312 137.494 83.2917 137.546C83.3521 137.598 83.3918 137.67 83.4034 137.75V139.088C83.4034 139.132 83.3948 139.175 83.3781 139.216C83.3614 139.256 83.3369 139.293 83.3059 139.324C83.275 139.354 83.2383 139.379 83.1979 139.396C83.1576 139.412 83.1143 139.421 83.0706 139.421ZM83.0706 136.744C82.9842 136.744 82.9013 136.709 82.8402 136.648C82.7791 136.587 82.7448 136.504 82.7448 136.418V135.079C82.7564 135 82.796 134.928 82.8565 134.876C82.917 134.824 82.9942 134.795 83.0741 134.795C83.154 134.795 83.2312 134.824 83.2917 134.876C83.3521 134.928 83.3918 135 83.4034 135.079V136.418C83.4074 136.464 83.4017 136.51 83.3867 136.553C83.3717 136.596 83.3477 136.636 83.3163 136.67C83.2849 136.703 83.2467 136.729 83.2044 136.747C83.162 136.765 83.1164 136.773 83.0706 136.772V136.744ZM83.0706 134.074C82.9847 134.072 82.9029 134.037 82.8422 133.976C82.7815 133.915 82.7466 133.834 82.7448 133.748V132.409C82.7564 132.33 82.796 132.258 82.8565 132.206C82.917 132.153 82.9942 132.125 83.0741 132.125C83.154 132.125 83.2312 132.153 83.2917 132.206C83.3521 132.258 83.3918 132.33 83.4034 132.409V133.748C83.4016 133.835 83.3657 133.918 83.3035 133.979C83.2412 134.04 83.1576 134.074 83.0706 134.074ZM83.0706 131.403C82.9847 131.402 82.9029 131.367 82.8422 131.306C82.7815 131.245 82.7466 131.164 82.7448 131.078V129.739C82.7564 129.66 82.796 129.588 82.8565 129.536C82.917 129.483 82.9942 129.455 83.0741 129.455C83.154 129.455 83.2312 129.483 83.2917 129.536C83.3521 129.588 83.3918 129.66 83.4034 129.739V131.106C83.3947 131.188 83.3558 131.264 83.2943 131.319C83.2328 131.374 83.153 131.404 83.0706 131.403ZM83.0706 128.733C82.9847 128.731 82.9029 128.697 82.8422 128.636C82.7815 128.575 82.7466 128.493 82.7448 128.408V127.069C82.7564 126.99 82.796 126.918 82.8565 126.865C82.917 126.813 82.9942 126.784 83.0741 126.784C83.154 126.784 83.2312 126.813 83.2917 126.865C83.3521 126.918 83.3918 126.99 83.4034 127.069V128.408C83.4016 128.495 83.3657 128.577 83.3035 128.638C83.2412 128.699 83.1576 128.733 83.0706 128.733ZM83.0706 126.063C82.9835 126.061 82.9006 126.025 82.8397 125.963C82.7788 125.901 82.7447 125.817 82.7448 125.73V124.399C82.7378 124.351 82.7411 124.303 82.7545 124.257C82.7678 124.211 82.7909 124.169 82.8222 124.133C82.8534 124.097 82.8921 124.068 82.9356 124.048C82.979 124.028 83.0263 124.017 83.0741 124.017C83.1219 124.017 83.1691 124.028 83.2126 124.048C83.2561 124.068 83.2948 124.097 83.326 124.133C83.3573 124.169 83.3804 124.211 83.3937 124.257C83.4071 124.303 83.4104 124.351 83.4034 124.399V125.73C83.4034 125.774 83.3948 125.817 83.3781 125.858C83.3614 125.898 83.3369 125.935 83.3059 125.966C83.275 125.997 83.2383 126.021 83.1979 126.038C83.1576 126.055 83.1143 126.063 83.0706 126.063ZM83.0706 123.393C82.9835 123.391 82.9006 123.355 82.8397 123.293C82.7788 123.231 82.7447 123.147 82.7448 123.06V121.729C82.7378 121.681 82.7411 121.633 82.7545 121.587C82.7678 121.541 82.7909 121.499 82.8222 121.463C82.8534 121.426 82.8921 121.397 82.9356 121.377C82.979 121.358 83.0263 121.347 83.0741 121.347C83.1219 121.347 83.1691 121.358 83.2126 121.377C83.2561 121.397 83.2948 121.426 83.326 121.463C83.3573 121.499 83.3804 121.541 83.3937 121.587C83.4071 121.633 83.4104 121.681 83.4034 121.729V123.06C83.4034 123.104 83.3948 123.147 83.3781 123.187C83.3614 123.228 83.3369 123.265 83.3059 123.295C83.275 123.326 83.2383 123.351 83.1979 123.368C83.1576 123.384 83.1143 123.393 83.0706 123.393ZM83.0706 120.723C82.9835 120.721 82.9006 120.685 82.8397 120.623C82.7788 120.561 82.7447 120.477 82.7448 120.39V119.065C82.7378 119.018 82.7411 118.97 82.7545 118.924C82.7678 118.878 82.7909 118.836 82.8222 118.799C82.8534 118.763 82.8921 118.734 82.9356 118.714C82.979 118.694 83.0263 118.684 83.0741 118.684C83.1219 118.684 83.1691 118.694 83.2126 118.714C83.2561 118.734 83.2948 118.763 83.326 118.799C83.3573 118.836 83.3804 118.878 83.3937 118.924C83.4071 118.97 83.4104 119.018 83.4034 119.065V120.397C83.4016 120.484 83.3657 120.567 83.3035 120.628C83.2412 120.689 83.1576 120.723 83.0706 120.723ZM83.0706 118.053C82.9835 118.051 82.9006 118.015 82.8397 117.953C82.7788 117.89 82.7447 117.807 82.7448 117.72V116.388C82.7378 116.341 82.7411 116.293 82.7545 116.247C82.7678 116.201 82.7909 116.158 82.8222 116.122C82.8534 116.086 82.8921 116.057 82.9356 116.037C82.979 116.017 83.0263 116.007 83.0741 116.007C83.1219 116.007 83.1691 116.017 83.2126 116.037C83.2561 116.057 83.2948 116.086 83.326 116.122C83.3573 116.158 83.3804 116.201 83.3937 116.247C83.4071 116.293 83.4104 116.341 83.4034 116.388V117.72C83.4034 117.764 83.3948 117.807 83.3781 117.847C83.3614 117.888 83.3369 117.924 83.3059 117.955C83.275 117.986 83.2383 118.011 83.1979 118.027C83.1576 118.044 83.1143 118.053 83.0706 118.053ZM83.0706 115.383C82.9835 115.381 82.9006 115.345 82.8397 115.283C82.7788 115.22 82.7447 115.137 82.7448 115.05V113.718C82.7378 113.671 82.7411 113.623 82.7545 113.577C82.7678 113.531 82.7909 113.488 82.8222 113.452C82.8534 113.416 82.8921 113.387 82.9356 113.367C82.979 113.347 83.0263 113.337 83.0741 113.337C83.1219 113.337 83.1691 113.347 83.2126 113.367C83.2561 113.387 83.2948 113.416 83.326 113.452C83.3573 113.488 83.3804 113.531 83.3937 113.577C83.4071 113.623 83.4104 113.671 83.4034 113.718V115.05C83.4034 115.093 83.3948 115.137 83.3781 115.177C83.3614 115.217 83.3369 115.254 83.3059 115.285C83.275 115.316 83.2383 115.34 83.1979 115.357C83.1576 115.374 83.1143 115.383 83.0706 115.383ZM83.0706 112.705C82.9842 112.705 82.9013 112.671 82.8402 112.61C82.7791 112.549 82.7448 112.466 82.7448 112.379V111.041C82.7564 110.962 82.796 110.89 82.8565 110.837C82.917 110.785 82.9942 110.756 83.0741 110.756C83.154 110.756 83.2312 110.785 83.2917 110.837C83.3521 110.89 83.3918 110.962 83.4034 111.041V112.379C83.3997 112.465 83.3628 112.545 83.3006 112.603C83.2384 112.662 83.1558 112.693 83.0706 112.691V112.705ZM83.0706 110.035C82.9842 110.035 82.9013 110.001 82.8402 109.94C82.7791 109.879 82.7448 109.796 82.7448 109.709V108.371C82.7564 108.292 82.796 108.219 82.8565 108.167C82.917 108.115 82.9942 108.086 83.0741 108.086C83.154 108.086 83.2312 108.115 83.2917 108.167C83.3521 108.219 83.3918 108.292 83.4034 108.371V109.709C83.4034 109.753 83.3948 109.796 83.378 109.836C83.3612 109.876 83.3365 109.912 83.3055 109.942C83.2745 109.973 83.2377 109.996 83.1974 110.012C83.1571 110.028 83.1139 110.036 83.0706 110.035ZM83.0706 107.365C82.9847 107.363 82.9029 107.328 82.8422 107.268C82.7815 107.207 82.7466 107.125 82.7448 107.039V105.701C82.7564 105.622 82.796 105.549 82.8565 105.497C82.917 105.445 82.9942 105.416 83.0741 105.416C83.154 105.416 83.2312 105.445 83.2917 105.497C83.3521 105.549 83.3918 105.622 83.4034 105.701V107.025C83.4044 107.069 83.3965 107.113 83.3802 107.155C83.3639 107.196 83.3395 107.233 83.3085 107.265C83.2775 107.297 83.2405 107.322 83.1996 107.339C83.1587 107.356 83.1149 107.365 83.0706 107.365ZM83.0706 104.695C82.9847 104.693 82.9029 104.658 82.8422 104.597C82.7815 104.537 82.7466 104.455 82.7448 104.369V103.03C82.7564 102.951 82.796 102.879 82.8565 102.827C82.917 102.775 82.9942 102.746 83.0741 102.746C83.154 102.746 83.2312 102.775 83.2917 102.827C83.3521 102.879 83.3918 102.951 83.4034 103.03V104.369C83.4016 104.456 83.3657 104.539 83.3035 104.6C83.2412 104.661 83.1576 104.695 83.0706 104.695ZM83.0706 102.025C82.9847 102.023 82.9029 101.988 82.8422 101.927C82.7815 101.867 82.7466 101.785 82.7448 101.699V100.36C82.7564 100.281 82.796 100.209 82.8565 100.157C82.917 100.105 82.9942 100.076 83.0741 100.076C83.154 100.076 83.2312 100.105 83.2917 100.157C83.3521 100.209 83.3918 100.281 83.4034 100.36V101.699C83.4016 101.786 83.3657 101.869 83.3035 101.93C83.2412 101.991 83.1576 102.025 83.0706 102.025ZM83.0706 99.3545C82.9835 99.3526 82.9006 99.3168 82.8397 99.2545C82.7788 99.1923 82.7447 99.1087 82.7448 99.0216V97.6901C82.7378 97.6428 82.7411 97.5945 82.7545 97.5486C82.7678 97.5027 82.7909 97.4602 82.8222 97.4241C82.8534 97.3879 82.8921 97.3588 82.9356 97.339C82.979 97.3191 83.0263 97.3088 83.0741 97.3088C83.1219 97.3088 83.1691 97.3191 83.2126 97.339C83.2561 97.3588 83.2948 97.3879 83.326 97.4241C83.3573 97.4602 83.3804 97.5027 83.3937 97.5486C83.4071 97.5945 83.4104 97.6428 83.4034 97.6901V99.0216C83.4034 99.0653 83.3948 99.1086 83.3781 99.149C83.3614 99.1894 83.3369 99.2261 83.3059 99.257C83.275 99.2879 83.2383 99.3124 83.1979 99.3292C83.1576 99.3459 83.1143 99.3545 83.0706 99.3545ZM83.0706 96.6843C82.9835 96.6825 82.9006 96.6466 82.8397 96.5844C82.7788 96.5221 82.7447 96.4385 82.7448 96.3514V95.0199C82.7378 94.9726 82.7411 94.9244 82.7545 94.8785C82.7678 94.8326 82.7909 94.7901 82.8222 94.7539C82.8534 94.7177 82.8921 94.6887 82.9356 94.6688C82.979 94.6489 83.0263 94.6386 83.0741 94.6386C83.1219 94.6386 83.1691 94.6489 83.2126 94.6688C83.2561 94.6887 83.2948 94.7177 83.326 94.7539C83.3573 94.7901 83.3804 94.8326 83.3937 94.8785C83.4071 94.9244 83.4104 94.9726 83.4034 95.0199V96.3514C83.4034 96.3952 83.3948 96.4385 83.3781 96.4788C83.3614 96.5192 83.3369 96.5559 83.3059 96.5868C83.275 96.6178 83.2383 96.6423 83.1979 96.659C83.1576 96.6757 83.1143 96.6843 83.0706 96.6843ZM83.0706 94.0142C82.9835 94.0123 82.9006 93.9764 82.8397 93.9142C82.7788 93.852 82.7447 93.7684 82.7448 93.6813V92.3498C82.7378 92.3025 82.7411 92.2542 82.7545 92.2083C82.7678 92.1624 82.7909 92.1199 82.8222 92.0837C82.8534 92.0476 82.8921 92.0185 82.9356 91.9986C82.979 91.9787 83.0263 91.9684 83.0741 91.9684C83.1219 91.9684 83.1691 91.9787 83.2126 91.9986C83.2561 92.0185 83.2948 92.0476 83.326 92.0837C83.3573 92.1199 83.3804 92.1624 83.3937 92.2083C83.4071 92.2542 83.4104 92.3025 83.4034 92.3498V93.6813C83.4034 93.725 83.3948 93.7683 83.3781 93.8087C83.3614 93.8491 83.3369 93.8858 83.3059 93.9167C83.275 93.9476 83.2383 93.9721 83.1979 93.9888C83.1576 94.0056 83.1143 94.0142 83.0706 94.0142ZM83.0706 91.344C82.9835 91.3422 82.9006 91.3063 82.8397 91.2441C82.7788 91.1818 82.7447 91.0982 82.7448 91.0111V89.6796C82.7378 89.6323 82.7411 89.5841 82.7545 89.5382C82.7678 89.4923 82.7909 89.4498 82.8222 89.4136C82.8534 89.3774 82.8921 89.3484 82.9356 89.3285C82.979 89.3086 83.0263 89.2983 83.0741 89.2983C83.1219 89.2983 83.1691 89.3086 83.2126 89.3285C83.2561 89.3484 83.2948 89.3774 83.326 89.4136C83.3573 89.4498 83.3804 89.4923 83.3937 89.5382C83.4071 89.5841 83.4104 89.6323 83.4034 89.6796V91.0111C83.4034 91.0549 83.3948 91.0981 83.3781 91.1385C83.3614 91.1789 83.3369 91.2156 83.3059 91.2465C83.275 91.2774 83.2383 91.302 83.1979 91.3187C83.1576 91.3354 83.1143 91.344 83.0706 91.344ZM83.0706 88.6739C82.9835 88.672 82.9006 88.6361 82.8397 88.5739C82.7788 88.5117 82.7447 88.4281 82.7448 88.341V87.0024C82.7564 86.9233 82.796 86.8511 82.8565 86.7989C82.917 86.7466 82.9942 86.7179 83.0741 86.7179C83.154 86.7179 83.2312 86.7466 83.2917 86.7989C83.3521 86.8511 83.3918 86.9233 83.4034 87.0024V88.341C83.4034 88.3847 83.3948 88.428 83.3781 88.4684C83.3614 88.5088 83.3369 88.5455 83.3059 88.5764C83.275 88.6073 83.2383 88.6318 83.1979 88.6485C83.1576 88.6653 83.1143 88.6739 83.0706 88.6739ZM83.0706 85.9966C82.9842 85.9966 82.9013 85.9623 82.8402 85.9012C82.7791 85.8401 82.7448 85.7572 82.7448 85.6708V84.3605C82.7564 84.2815 82.796 84.2093 82.8565 84.157C82.917 84.1048 82.9942 84.0761 83.0741 84.0761C83.154 84.0761 83.2312 84.1048 83.2917 84.157C83.3521 84.2093 83.3918 84.2815 83.4034 84.3605V85.6992C83.3962 85.7818 83.3578 85.8586 83.296 85.9139C83.2341 85.9691 83.1535 85.9987 83.0706 85.9966ZM83.0706 83.3265C82.9842 83.3265 82.9013 83.2921 82.8402 83.231C82.7791 83.1699 82.7448 83.0871 82.7448 83.0007V81.6621C82.7564 81.583 82.796 81.5108 82.8565 81.4586C82.917 81.4063 82.9942 81.3776 83.0741 81.3776C83.154 81.3776 83.2312 81.4063 83.2917 81.4586C83.3521 81.5108 83.3918 81.583 83.4034 81.6621V83.0007C83.4034 83.0441 83.3948 83.087 83.378 83.127C83.3612 83.167 83.3365 83.2032 83.3055 83.2336C83.2745 83.2639 83.2377 83.2878 83.1974 83.3037C83.1571 83.3197 83.1139 83.3274 83.0706 83.3265Z" fill="#F5F5F5"/>
<path d="M83.0706 144.083C82.9847 144.081 82.9029 144.046 82.8422 143.985C82.7815 143.925 82.7466 143.843 82.7448 143.757V143.098C82.7378 143.051 82.7411 143.003 82.7545 142.957C82.7678 142.911 82.7909 142.869 82.8222 142.832C82.8534 142.796 82.8921 142.767 82.9356 142.747C82.979 142.727 83.0263 142.717 83.0741 142.717C83.1219 142.717 83.1691 142.727 83.2126 142.747C83.2561 142.767 83.2948 142.796 83.326 142.832C83.3573 142.869 83.3804 142.911 83.3937 142.957C83.4071 143.003 83.4104 143.051 83.4034 143.098V143.757C83.4016 143.844 83.3657 143.927 83.3035 143.988C83.2412 144.049 83.1576 144.083 83.0706 144.083Z" fill="#F5F5F5"/>
<path d="M109.043 89.6161C108.956 89.6143 108.873 89.5784 108.812 89.5162C108.751 89.4539 108.717 89.3703 108.717 89.2832V88.6104C108.728 88.5313 108.768 88.4591 108.829 88.4069C108.889 88.3547 108.966 88.3259 109.046 88.3259C109.126 88.3259 109.203 88.3547 109.264 88.4069C109.324 88.4591 109.364 88.5313 109.375 88.6104V89.3187C109.367 89.4007 109.328 89.4765 109.266 89.5315C109.205 89.5864 109.125 89.6166 109.043 89.6161Z" fill="#F5F5F5"/>
<path d="M109.043 127.196C108.957 127.195 108.875 127.16 108.814 127.099C108.754 127.038 108.719 126.956 108.717 126.871V125.525C108.729 125.446 108.768 125.374 108.829 125.321C108.889 125.269 108.966 125.24 109.046 125.24C109.126 125.24 109.203 125.269 109.264 125.321C109.324 125.374 109.364 125.446 109.376 125.525V126.856C109.377 126.901 109.369 126.945 109.352 126.986C109.336 127.027 109.312 127.065 109.281 127.096C109.25 127.128 109.213 127.153 109.172 127.17C109.131 127.188 109.087 127.196 109.043 127.196ZM109.043 124.512C108.957 124.51 108.875 124.475 108.814 124.415C108.754 124.354 108.719 124.272 108.717 124.186V122.841C108.729 122.762 108.768 122.689 108.829 122.637C108.889 122.585 108.966 122.556 109.046 122.556C109.126 122.556 109.203 122.585 109.264 122.637C109.324 122.689 109.364 122.762 109.376 122.841V124.186C109.374 124.273 109.338 124.356 109.276 124.417C109.213 124.478 109.13 124.512 109.043 124.512ZM109.043 121.828C108.957 121.826 108.875 121.791 108.814 121.73C108.754 121.67 108.719 121.588 108.717 121.502V120.156C108.729 120.077 108.768 120.005 108.829 119.953C108.889 119.901 108.966 119.872 109.046 119.872C109.126 119.872 109.203 119.901 109.264 119.953C109.324 120.005 109.364 120.077 109.376 120.156V121.502C109.374 121.589 109.338 121.672 109.276 121.733C109.213 121.794 109.13 121.828 109.043 121.828ZM109.043 119.143C108.957 119.142 108.875 119.107 108.814 119.046C108.754 118.985 108.719 118.904 108.717 118.818V117.472C108.729 117.393 108.768 117.321 108.829 117.268C108.889 117.216 108.966 117.188 109.046 117.188C109.126 117.188 109.203 117.216 109.264 117.268C109.324 117.321 109.364 117.393 109.376 117.472V118.818C109.374 118.905 109.338 118.988 109.276 119.048C109.213 119.109 109.13 119.144 109.043 119.143ZM109.043 116.459C108.957 116.457 108.875 116.422 108.814 116.362C108.754 116.301 108.719 116.219 108.717 116.133V114.816C108.729 114.737 108.768 114.665 108.829 114.612C108.889 114.56 108.966 114.532 109.046 114.532C109.126 114.532 109.203 114.56 109.264 114.612C109.324 114.665 109.364 114.737 109.376 114.816V116.162C109.367 116.244 109.328 116.32 109.266 116.375C109.205 116.429 109.125 116.46 109.043 116.459ZM109.043 113.775C108.957 113.773 108.875 113.738 108.814 113.677C108.754 113.617 108.719 113.535 108.717 113.449V112.103C108.729 112.024 108.768 111.952 108.829 111.9C108.889 111.848 108.966 111.819 109.046 111.819C109.126 111.819 109.203 111.848 109.264 111.9C109.324 111.952 109.364 112.024 109.376 112.103V113.449C109.374 113.536 109.338 113.619 109.276 113.68C109.213 113.741 109.13 113.775 109.043 113.775ZM109.043 111.091C108.957 111.089 108.875 111.054 108.814 110.993C108.754 110.932 108.719 110.851 108.717 110.765V109.419C108.729 109.34 108.768 109.268 108.829 109.216C108.889 109.163 108.966 109.135 109.046 109.135C109.126 109.135 109.203 109.163 109.264 109.216C109.324 109.268 109.364 109.34 109.376 109.419V110.765C109.374 110.852 109.338 110.935 109.276 110.996C109.213 111.056 109.13 111.091 109.043 111.091ZM109.043 108.406C108.957 108.404 108.875 108.369 108.814 108.309C108.754 108.248 108.719 108.166 108.717 108.08V106.735C108.729 106.656 108.768 106.583 108.829 106.531C108.889 106.479 108.966 106.45 109.046 106.45C109.126 106.45 109.203 106.479 109.264 106.531C109.324 106.583 109.364 106.656 109.376 106.735V108.08C109.38 108.126 109.374 108.173 109.359 108.216C109.344 108.26 109.32 108.3 109.289 108.334C109.257 108.368 109.219 108.395 109.177 108.414C109.135 108.432 109.089 108.442 109.043 108.442V108.406ZM109.043 105.722C108.957 105.72 108.875 105.685 108.814 105.624C108.754 105.564 108.719 105.482 108.717 105.396V104.05C108.729 103.971 108.768 103.899 108.829 103.847C108.889 103.795 108.966 103.766 109.046 103.766C109.126 103.766 109.203 103.795 109.264 103.847C109.324 103.899 109.364 103.971 109.376 104.05V105.396C109.374 105.483 109.338 105.566 109.276 105.627C109.213 105.688 109.13 105.722 109.043 105.722ZM109.043 103.038C108.957 103.036 108.875 103.001 108.814 102.94C108.754 102.879 108.719 102.798 108.717 102.712V101.359C108.729 101.28 108.768 101.208 108.829 101.155C108.889 101.103 108.966 101.074 109.046 101.074C109.126 101.074 109.203 101.103 109.264 101.155C109.324 101.208 109.364 101.28 109.376 101.359V102.705C109.376 102.748 109.367 102.792 109.35 102.832C109.334 102.872 109.309 102.909 109.278 102.94C109.247 102.971 109.211 102.995 109.17 103.012C109.13 103.029 109.086 103.038 109.043 103.038ZM109.043 100.353C108.957 100.351 108.875 100.317 108.814 100.256C108.754 100.195 108.719 100.113 108.717 100.027V98.6817C108.729 98.6027 108.768 98.5304 108.829 98.4782C108.889 98.426 108.966 98.3973 109.046 98.3973C109.126 98.3973 109.203 98.426 109.264 98.4782C109.324 98.5304 109.364 98.6027 109.376 98.6817V100.027C109.374 100.114 109.338 100.197 109.276 100.258C109.213 100.319 109.13 100.353 109.043 100.353ZM109.043 97.6689C108.956 97.667 108.873 97.6312 108.812 97.5689C108.751 97.5067 108.717 97.4231 108.717 97.336V95.9974C108.71 95.9501 108.713 95.9018 108.727 95.8559C108.74 95.81 108.763 95.7676 108.794 95.7314C108.826 95.6952 108.864 95.6662 108.908 95.6463C108.951 95.6264 108.998 95.6161 109.046 95.6161C109.094 95.6161 109.141 95.6264 109.185 95.6463C109.228 95.6662 109.267 95.6952 109.298 95.7314C109.329 95.7676 109.353 95.81 109.366 95.8559C109.379 95.9018 109.383 95.9501 109.376 95.9974V97.336C109.376 97.4243 109.341 97.509 109.278 97.5714C109.216 97.6338 109.131 97.6689 109.043 97.6689ZM109.043 94.9846C108.956 94.9827 108.873 94.9468 108.812 94.8846C108.751 94.8224 108.717 94.7388 108.717 94.6517V93.3131C108.71 93.2658 108.713 93.2175 108.727 93.1716C108.74 93.1257 108.763 93.0832 108.794 93.047C108.826 93.0109 108.864 92.9818 108.908 92.962C108.951 92.9421 108.998 92.9318 109.046 92.9318C109.094 92.9318 109.141 92.9421 109.185 92.962C109.228 92.9818 109.267 93.0109 109.298 93.047C109.329 93.0832 109.353 93.1257 109.366 93.1716C109.379 93.2175 109.383 93.2658 109.376 93.3131V94.6517C109.376 94.74 109.341 94.8246 109.278 94.8871C109.216 94.9495 109.131 94.9846 109.043 94.9846ZM109.043 92.3003C108.956 92.2984 108.873 92.2625 108.812 92.2003C108.751 92.138 108.717 92.0544 108.717 91.9674V90.6287C108.71 90.5814 108.713 90.5332 108.727 90.4873C108.74 90.4414 108.763 90.3989 108.794 90.3627C108.826 90.3265 108.864 90.2975 108.908 90.2776C108.951 90.2577 108.998 90.2474 109.046 90.2474C109.094 90.2474 109.141 90.2577 109.185 90.2776C109.228 90.2975 109.267 90.3265 109.298 90.3627C109.329 90.3989 109.353 90.4414 109.366 90.4873C109.379 90.5332 109.383 90.5814 109.376 90.6287V91.9674C109.376 92.0557 109.341 92.1403 109.278 92.2028C109.216 92.2652 109.131 92.3003 109.043 92.3003Z" fill="#F5F5F5"/>
<path d="M109.043 129.201C108.956 129.199 108.873 129.164 108.812 129.101C108.751 129.039 108.717 128.956 108.717 128.868V128.21C108.728 128.131 108.768 128.058 108.829 128.006C108.889 127.954 108.966 127.925 109.046 127.925C109.126 127.925 109.203 127.954 109.264 128.006C109.324 128.058 109.364 128.131 109.375 128.21V128.868C109.375 128.912 109.367 128.955 109.35 128.996C109.333 129.036 109.309 129.073 109.278 129.104C109.247 129.135 109.21 129.159 109.17 129.176C109.13 129.193 109.086 129.201 109.043 129.201Z" fill="#F5F5F5"/>
<path d="M134.632 91.3723C134.543 91.3723 134.459 91.3372 134.396 91.2748C134.334 91.2124 134.299 91.1277 134.299 91.0394V90.3807C134.31 90.3017 134.35 90.2294 134.411 90.1772C134.471 90.125 134.548 90.0963 134.628 90.0963C134.708 90.0963 134.785 90.125 134.846 90.1772C134.906 90.2294 134.946 90.3017 134.958 90.3807V91.0394C134.958 91.1265 134.923 91.2101 134.863 91.2723C134.802 91.3345 134.719 91.3704 134.632 91.3723Z" fill="#F5F5F5"/>
<path d="M134.632 112.402C134.544 112.402 134.459 112.367 134.396 112.304C134.334 112.242 134.299 112.157 134.299 112.069V110.759C134.292 110.711 134.295 110.663 134.309 110.617C134.322 110.571 134.345 110.529 134.376 110.493C134.408 110.456 134.446 110.427 134.49 110.407C134.533 110.388 134.58 110.377 134.628 110.377C134.676 110.377 134.723 110.388 134.767 110.407C134.81 110.427 134.849 110.456 134.88 110.493C134.911 110.529 134.935 110.571 134.948 110.617C134.961 110.663 134.965 110.711 134.958 110.759V112.069C134.958 112.156 134.924 112.24 134.863 112.302C134.802 112.364 134.719 112.4 134.632 112.402ZM134.632 109.774C134.544 109.774 134.459 109.739 134.396 109.677C134.334 109.614 134.299 109.529 134.299 109.441V108.131C134.292 108.084 134.295 108.035 134.309 107.989C134.322 107.944 134.345 107.901 134.376 107.865C134.408 107.829 134.446 107.8 134.49 107.78C134.533 107.76 134.58 107.75 134.628 107.75C134.676 107.75 134.723 107.76 134.767 107.78C134.81 107.8 134.849 107.829 134.88 107.865C134.911 107.901 134.935 107.944 134.948 107.989C134.961 108.035 134.965 108.084 134.958 108.131V109.441C134.958 109.528 134.924 109.612 134.863 109.674C134.802 109.736 134.719 109.772 134.632 109.774ZM134.632 107.146C134.544 107.146 134.459 107.111 134.396 107.049C134.334 106.986 134.299 106.902 134.299 106.814V105.503C134.292 105.456 134.295 105.408 134.309 105.362C134.322 105.316 134.345 105.273 134.376 105.237C134.408 105.201 134.446 105.172 134.49 105.152C134.533 105.132 134.58 105.122 134.628 105.122C134.676 105.122 134.723 105.132 134.767 105.152C134.81 105.172 134.849 105.201 134.88 105.237C134.911 105.273 134.935 105.316 134.948 105.362C134.961 105.408 134.965 105.456 134.958 105.503V106.814C134.958 106.901 134.924 106.984 134.863 107.046C134.802 107.109 134.719 107.145 134.632 107.146ZM134.632 104.519C134.544 104.519 134.459 104.484 134.396 104.421C134.334 104.359 134.299 104.274 134.299 104.186V102.868C134.311 102.789 134.35 102.717 134.411 102.665C134.471 102.613 134.548 102.584 134.628 102.584C134.708 102.584 134.785 102.613 134.846 102.665C134.906 102.717 134.946 102.789 134.958 102.868V104.193C134.956 104.279 134.921 104.361 134.86 104.421C134.8 104.482 134.718 104.517 134.632 104.519ZM134.632 101.884C134.588 101.885 134.545 101.877 134.505 101.861C134.465 101.845 134.428 101.821 134.397 101.791C134.366 101.761 134.341 101.725 134.324 101.685C134.308 101.645 134.299 101.602 134.299 101.558V100.241C134.311 100.162 134.35 100.09 134.411 100.037C134.471 99.9851 134.548 99.9564 134.628 99.9564C134.708 99.9564 134.785 99.9851 134.846 100.037C134.906 100.09 134.946 100.162 134.958 100.241V101.558C134.958 101.645 134.923 101.727 134.862 101.789C134.801 101.85 134.718 101.884 134.632 101.884ZM134.632 99.2563C134.545 99.2563 134.461 99.2222 134.399 99.1613C134.337 99.1004 134.301 99.0176 134.299 98.9305V97.6132C134.311 97.5341 134.35 97.4619 134.411 97.4097C134.471 97.3574 134.548 97.3287 134.628 97.3287C134.708 97.3287 134.785 97.3574 134.846 97.4097C134.906 97.4619 134.946 97.5341 134.958 97.6132V98.9305C134.951 99.0126 134.913 99.0892 134.853 99.1454C134.793 99.2017 134.714 99.2336 134.632 99.2351V99.2563ZM134.632 96.6287C134.545 96.6287 134.461 96.5946 134.399 96.5337C134.337 96.4728 134.301 96.3899 134.299 96.3029V94.9855C134.311 94.9064 134.35 94.8342 134.411 94.782C134.471 94.7298 134.548 94.701 134.628 94.701C134.708 94.701 134.785 94.7298 134.846 94.782C134.906 94.8342 134.946 94.9064 134.958 94.9855V96.3029C134.956 96.3887 134.921 96.4705 134.86 96.5312C134.8 96.592 134.718 96.6269 134.632 96.6287ZM134.632 94.001C134.545 94.001 134.461 93.9669 134.399 93.906C134.337 93.8451 134.301 93.7622 134.299 93.6752V92.3578C134.311 92.2788 134.35 92.2066 134.411 92.1543C134.471 92.1021 134.548 92.0734 134.628 92.0734C134.708 92.0734 134.785 92.1021 134.846 92.1543C134.906 92.2066 134.946 92.2788 134.958 92.3578V93.6752C134.956 93.761 134.921 93.8429 134.86 93.9036C134.8 93.9643 134.718 93.9992 134.632 94.001Z" fill="#F5F5F5"/>
<path d="M134.632 114.371C134.588 114.372 134.545 114.364 134.505 114.348C134.465 114.332 134.428 114.308 134.397 114.278C134.366 114.247 134.341 114.211 134.324 114.171C134.308 114.131 134.299 114.088 134.299 114.045V113.4C134.292 113.353 134.295 113.305 134.309 113.259C134.322 113.213 134.345 113.171 134.376 113.134C134.408 113.098 134.446 113.069 134.49 113.049C134.533 113.029 134.58 113.019 134.628 113.019C134.676 113.019 134.723 113.029 134.767 113.049C134.81 113.069 134.849 113.098 134.88 113.134C134.911 113.171 134.935 113.213 134.948 113.259C134.961 113.305 134.965 113.353 134.958 113.4V114.059C134.954 114.143 134.918 114.222 134.857 114.28C134.797 114.338 134.716 114.371 134.632 114.371Z" fill="#F5F5F5"/>
<path d="M114.391 68.2492C114.391 67.6047 113.937 67.3426 113.378 67.6684L104.05 73.03C103.755 73.2239 103.509 73.4846 103.333 73.7909C103.157 74.0973 103.056 74.4408 103.037 74.7936V82.3436C103.037 82.9882 103.49 83.2502 104.05 82.9244L107.513 80.9271L108.965 83.4485C108.987 83.4846 109.018 83.5137 109.056 83.5325C109.093 83.5512 109.135 83.5588 109.177 83.5543C109.219 83.5499 109.259 83.5335 109.291 83.5072C109.324 83.481 109.349 83.4458 109.362 83.406L110.899 78.9723L113.378 77.5558C113.674 77.3642 113.92 77.1051 114.096 76.7997C114.272 76.4943 114.373 76.1514 114.391 75.7993V68.2492Z" fill="#F5F5F5"/>
<path d="M106.275 76.1595C106.181 76.1668 106.088 76.1528 106 76.1184C105.913 76.084 105.835 76.0302 105.772 75.9611C105.636 75.7858 105.57 75.5661 105.588 75.345C105.588 75.0564 105.651 74.7713 105.772 74.5092C105.896 74.2218 106.066 73.9563 106.275 73.723C106.476 73.4865 106.715 73.2854 106.983 73.1281C107.196 72.9951 107.44 72.9195 107.691 72.9085C107.785 72.9031 107.879 72.9187 107.966 72.9543C108.053 72.9898 108.131 73.0444 108.194 73.1139C108.332 73.2883 108.401 73.5081 108.385 73.7301C108.381 74.0167 108.315 74.2991 108.194 74.5588C108.066 74.8461 107.896 75.1133 107.691 75.352C107.488 75.5828 107.249 75.7789 106.983 75.9328C106.771 76.0701 106.527 76.1483 106.275 76.1595ZM106.048 79.977C106.05 79.9323 106.062 79.8887 106.083 79.8495L110.135 71.6124L110.241 71.4283C110.285 71.3816 110.335 71.3411 110.39 71.3078L111.218 70.8333C111.234 70.8267 111.251 70.8233 111.268 70.8233C111.285 70.8233 111.302 70.8267 111.318 70.8333C111.331 70.8367 111.343 70.8451 111.351 70.8569C111.359 70.8687 111.362 70.883 111.36 70.8971C111.359 70.9451 111.344 70.9918 111.318 71.0316L107.231 79.2758C107.231 79.3467 107.16 79.3962 107.139 79.4316C107.101 79.473 107.055 79.5067 107.004 79.5308L106.168 80.0195C106.098 80.1116 106.048 80.062 106.048 79.977ZM107.465 74.75C107.592 74.5663 107.663 74.3499 107.67 74.1267C107.682 74.0464 107.669 73.9643 107.632 73.892C107.595 73.8196 107.537 73.7605 107.465 73.723C107.378 73.6973 107.287 73.6922 107.199 73.7082C107.11 73.7242 107.026 73.7608 106.955 73.8151C106.747 73.9365 106.572 74.1066 106.445 74.3109C106.317 74.4993 106.245 74.7206 106.239 74.9483C106.228 75.0266 106.242 75.1064 106.279 75.1764C106.316 75.2463 106.374 75.3028 106.445 75.3379C106.531 75.3635 106.621 75.3692 106.71 75.3544C106.798 75.3397 106.882 75.305 106.955 75.2529C107.173 75.1325 107.358 74.9597 107.493 74.75H107.465ZM109.717 77.923C109.622 77.9301 109.526 77.9152 109.438 77.8796C109.35 77.844 109.271 77.7886 109.207 77.7176C109.068 77.5461 109 77.3284 109.016 77.1085C109.02 76.8242 109.086 76.5441 109.207 76.2869C109.334 75.9975 109.507 75.7299 109.717 75.4937C109.918 75.2589 110.157 75.0601 110.425 74.9058C110.637 74.7685 110.881 74.6903 111.133 74.6792C111.228 74.6742 111.322 74.6893 111.41 74.7235C111.498 74.7577 111.577 74.8102 111.643 74.8775C111.783 75.0512 111.851 75.2715 111.835 75.4937C111.831 75.7804 111.765 76.0629 111.643 76.3224C111.512 76.6099 111.341 76.8771 111.133 77.1156C110.931 77.3484 110.691 77.5469 110.425 77.7035C110.22 77.8311 109.986 77.9065 109.745 77.923H109.717ZM110.928 76.5065C111.058 76.3218 111.13 76.1021 111.133 75.8762C111.133 75.6708 111.07 75.5433 110.928 75.4866C110.842 75.4603 110.751 75.4549 110.662 75.4709C110.573 75.4869 110.49 75.5239 110.418 75.5787C110.209 75.6979 110.033 75.8685 109.908 76.0745C109.782 76.2587 109.711 76.4748 109.703 76.6977C109.703 76.9102 109.774 77.0448 109.908 77.0944C109.995 77.117 110.085 77.1204 110.173 77.1045C110.261 77.0886 110.345 77.0537 110.418 77.0023C110.633 76.8866 110.818 76.7215 110.956 76.5207L110.928 76.5065Z" fill="#F1463B"/>
<path opacity="0.4" d="M106.275 76.1595C106.181 76.1668 106.088 76.1528 106 76.1184C105.913 76.084 105.835 76.0302 105.772 75.9611C105.636 75.7858 105.57 75.5661 105.588 75.345C105.588 75.0564 105.651 74.7713 105.772 74.5092C105.896 74.2218 106.066 73.9563 106.275 73.723C106.476 73.4865 106.715 73.2854 106.983 73.1281C107.196 72.9951 107.44 72.9195 107.691 72.9085C107.785 72.9031 107.879 72.9187 107.966 72.9543C108.053 72.9898 108.131 73.0444 108.194 73.1139C108.332 73.2883 108.401 73.5081 108.385 73.7301C108.381 74.0167 108.315 74.2991 108.194 74.5588C108.066 74.8461 107.896 75.1133 107.691 75.352C107.488 75.5828 107.249 75.7789 106.983 75.9328C106.771 76.0701 106.527 76.1483 106.275 76.1595ZM106.048 79.977C106.05 79.9323 106.062 79.8887 106.083 79.8495L110.135 71.6124L110.241 71.4283C110.285 71.3816 110.335 71.3411 110.39 71.3078L111.218 70.8333C111.234 70.8267 111.251 70.8233 111.268 70.8233C111.285 70.8233 111.302 70.8267 111.318 70.8333C111.331 70.8367 111.343 70.8451 111.351 70.8569C111.359 70.8687 111.362 70.883 111.36 70.8971C111.359 70.9451 111.344 70.9918 111.318 71.0316L107.231 79.2758C107.231 79.3467 107.16 79.3962 107.139 79.4316C107.101 79.473 107.055 79.5067 107.004 79.5308L106.168 80.0195C106.098 80.1116 106.048 80.062 106.048 79.977ZM107.465 74.75C107.592 74.5663 107.663 74.3499 107.67 74.1267C107.682 74.0464 107.669 73.9643 107.632 73.892C107.595 73.8196 107.537 73.7605 107.465 73.723C107.378 73.6973 107.287 73.6922 107.199 73.7082C107.11 73.7242 107.026 73.7608 106.955 73.8151C106.747 73.9365 106.572 74.1066 106.445 74.3109C106.317 74.4993 106.245 74.7206 106.239 74.9483C106.228 75.0266 106.242 75.1064 106.279 75.1764C106.316 75.2463 106.374 75.3028 106.445 75.3379C106.531 75.3635 106.621 75.3692 106.71 75.3544C106.798 75.3397 106.882 75.305 106.955 75.2529C107.173 75.1325 107.358 74.9597 107.493 74.75H107.465ZM109.717 77.923C109.622 77.9301 109.526 77.9152 109.438 77.8796C109.35 77.844 109.271 77.7886 109.207 77.7176C109.068 77.5461 109 77.3284 109.016 77.1085C109.02 76.8242 109.086 76.5441 109.207 76.2869C109.334 75.9975 109.507 75.7299 109.717 75.4937C109.918 75.2589 110.157 75.0601 110.425 74.9058C110.637 74.7685 110.881 74.6903 111.133 74.6792C111.228 74.6742 111.322 74.6893 111.41 74.7235C111.498 74.7577 111.577 74.8102 111.643 74.8775C111.783 75.0512 111.851 75.2715 111.835 75.4937C111.831 75.7804 111.765 76.0629 111.643 76.3224C111.512 76.6099 111.341 76.8771 111.133 77.1156C110.931 77.3484 110.691 77.5469 110.425 77.7035C110.22 77.8311 109.986 77.9065 109.745 77.923H109.717ZM110.928 76.5065C111.058 76.3218 111.13 76.1021 111.133 75.8762C111.133 75.6708 111.07 75.5433 110.928 75.4866C110.842 75.4603 110.751 75.4549 110.662 75.4709C110.573 75.4869 110.49 75.5239 110.418 75.5787C110.209 75.6979 110.033 75.8685 109.908 76.0745C109.782 76.2587 109.711 76.4748 109.703 76.6977C109.703 76.9102 109.774 77.0448 109.908 77.0944C109.995 77.117 110.085 77.1204 110.173 77.1045C110.261 77.0886 110.345 77.0537 110.418 77.0023C110.633 76.8866 110.818 76.7215 110.956 76.5207L110.928 76.5065Z" fill="black"/>
<path d="M139.577 69.5456C139.577 68.9011 139.123 68.639 138.564 68.9578L129.236 74.3547C128.942 74.548 128.697 74.8075 128.521 75.1126C128.345 75.4176 128.243 75.7597 128.223 76.1112V83.6543C128.223 84.3059 128.676 84.5679 129.236 84.2421L132.728 82.2377L134.187 84.7592C134.203 84.7971 134.23 84.8293 134.265 84.852C134.3 84.8746 134.34 84.8867 134.381 84.8867C134.423 84.8867 134.463 84.8746 134.498 84.852C134.533 84.8293 134.56 84.7971 134.576 84.7592L136.113 80.3183L138.599 78.9018C138.894 78.7086 139.139 78.449 139.314 78.144C139.49 77.8389 139.592 77.4969 139.612 77.1453L139.577 69.5456Z" fill="#F5F5F5"/>
<path d="M131.46 77.4556C131.366 77.4616 131.27 77.4462 131.182 77.4107C131.094 77.3751 131.015 77.3203 130.951 77.2502C130.816 77.0767 130.751 76.8598 130.766 76.6411C130.77 76.3529 130.833 76.0685 130.951 75.8053C131.077 75.5154 131.249 75.2476 131.46 75.0121C131.663 74.7793 131.903 74.5807 132.169 74.4242C132.381 74.2894 132.626 74.2136 132.877 74.2046C132.972 74.1976 133.067 74.2125 133.156 74.2481C133.244 74.2837 133.323 74.3391 133.387 74.41C133.527 74.5834 133.596 74.8039 133.578 75.0262C133.573 75.3106 133.508 75.5906 133.387 75.8478C133.259 76.1372 133.087 76.4049 132.877 76.6411C132.676 76.8758 132.437 77.0746 132.169 77.2289C131.957 77.3662 131.713 77.4444 131.46 77.4556ZM131.227 81.2731C131.229 81.2253 131.243 81.1788 131.269 81.1385L135.321 72.9014C135.348 72.8358 135.384 72.7739 135.427 72.7173C135.466 72.6684 135.514 72.6276 135.568 72.5969L136.404 72.1153C136.447 72.1153 136.475 72.0798 136.503 72.1153C136.532 72.1507 136.539 72.1153 136.539 72.179C136.54 72.2263 136.527 72.2729 136.503 72.3136L132.431 80.5932C132.405 80.6481 132.375 80.7003 132.339 80.749C132.303 80.79 132.26 80.8237 132.211 80.8482L131.368 81.3369C131.312 81.3652 131.227 81.351 131.227 81.2731ZM132.643 76.0461C132.769 75.8619 132.84 75.6458 132.849 75.4229C132.861 75.3425 132.848 75.2605 132.811 75.1881C132.774 75.1157 132.715 75.0566 132.643 75.0191C132.557 74.9934 132.466 74.9883 132.377 75.0043C132.289 75.0203 132.205 75.0569 132.133 75.1112C131.928 75.2328 131.755 75.4031 131.63 75.607C131.499 75.7939 131.428 76.0161 131.425 76.2444C131.413 76.3228 131.426 76.4031 131.463 76.4733C131.5 76.5435 131.559 76.5998 131.63 76.634C131.716 76.6597 131.806 76.6647 131.893 76.6487C131.98 76.6327 132.063 76.5961 132.133 76.5419C132.353 76.4267 132.539 76.2557 132.672 76.0461H132.643ZM134.896 79.2192C134.801 79.2246 134.706 79.2091 134.618 79.1735C134.529 79.138 134.45 79.0835 134.386 79.0137C134.254 78.8391 134.189 78.6231 134.201 78.4046C134.206 78.1188 134.269 77.837 134.386 77.576C134.517 77.2884 134.688 77.0212 134.896 76.7827C135.099 76.552 135.338 76.3558 135.604 76.2019C135.817 76.0668 136.06 75.9887 136.312 75.9753C136.406 75.9689 136.501 75.9834 136.589 76.0177C136.677 76.0519 136.757 76.1052 136.822 76.1736C136.961 76.3448 137.03 76.5627 137.013 76.7827C137.01 77.0718 136.945 77.3568 136.822 77.6185C136.693 77.9047 136.521 78.1698 136.312 78.4046C136.11 78.6386 135.871 78.8373 135.604 78.9925C135.399 79.1218 135.166 79.1996 134.924 79.2192H134.896ZM136.114 77.8026C136.242 77.6142 136.313 77.3929 136.319 77.1652C136.329 77.087 136.315 77.0076 136.278 76.9379C136.241 76.8681 136.184 76.8115 136.114 76.7756C136.026 76.7529 135.934 76.7501 135.844 76.7672C135.755 76.7844 135.67 76.8211 135.597 76.8748C135.391 76.993 135.218 77.161 135.094 77.3635C134.963 77.5482 134.889 77.7674 134.881 77.9938C134.881 78.2063 134.952 78.3338 135.094 78.3905C135.179 78.413 135.269 78.4164 135.356 78.4005C135.442 78.3846 135.525 78.3497 135.597 78.2984C135.814 78.1829 136.001 78.0179 136.142 77.8168L136.114 77.8026Z" fill="#F1463B"/>
<path opacity="0.4" d="M131.46 77.4556C131.366 77.4616 131.27 77.4462 131.182 77.4107C131.094 77.3751 131.015 77.3203 130.951 77.2502C130.816 77.0767 130.751 76.8598 130.766 76.6411C130.77 76.3529 130.833 76.0685 130.951 75.8053C131.077 75.5154 131.249 75.2476 131.46 75.0121C131.663 74.7793 131.903 74.5807 132.169 74.4242C132.381 74.2894 132.626 74.2136 132.877 74.2046C132.972 74.1976 133.067 74.2125 133.156 74.2481C133.244 74.2837 133.323 74.3391 133.387 74.41C133.527 74.5834 133.596 74.8039 133.578 75.0262C133.573 75.3106 133.508 75.5906 133.387 75.8478C133.259 76.1372 133.087 76.4049 132.877 76.6411C132.676 76.8758 132.437 77.0746 132.169 77.2289C131.957 77.3662 131.713 77.4444 131.46 77.4556ZM131.227 81.2731C131.229 81.2253 131.243 81.1788 131.269 81.1385L135.321 72.9014C135.348 72.8358 135.384 72.7739 135.427 72.7173C135.466 72.6684 135.514 72.6276 135.568 72.5969L136.404 72.1153C136.447 72.1153 136.475 72.0798 136.503 72.1153C136.532 72.1507 136.539 72.1153 136.539 72.179C136.54 72.2263 136.527 72.2729 136.503 72.3136L132.431 80.5932C132.405 80.6481 132.375 80.7003 132.339 80.749C132.303 80.79 132.26 80.8237 132.211 80.8482L131.368 81.3369C131.312 81.3652 131.227 81.351 131.227 81.2731ZM132.643 76.0461C132.769 75.8619 132.84 75.6458 132.849 75.4229C132.861 75.3425 132.848 75.2605 132.811 75.1881C132.774 75.1157 132.715 75.0566 132.643 75.0191C132.557 74.9934 132.466 74.9883 132.377 75.0043C132.289 75.0203 132.205 75.0569 132.133 75.1112C131.928 75.2328 131.755 75.4031 131.63 75.607C131.499 75.7939 131.428 76.0161 131.425 76.2444C131.413 76.3228 131.426 76.4031 131.463 76.4733C131.5 76.5435 131.559 76.5998 131.63 76.634C131.716 76.6597 131.806 76.6647 131.893 76.6487C131.98 76.6327 132.063 76.5961 132.133 76.5419C132.353 76.4267 132.539 76.2557 132.672 76.0461H132.643ZM134.896 79.2192C134.801 79.2246 134.706 79.2091 134.618 79.1735C134.529 79.138 134.45 79.0835 134.386 79.0137C134.254 78.8391 134.189 78.6231 134.201 78.4046C134.206 78.1188 134.269 77.837 134.386 77.576C134.517 77.2884 134.688 77.0212 134.896 76.7827C135.099 76.552 135.338 76.3558 135.604 76.2019C135.817 76.0668 136.06 75.9887 136.312 75.9753C136.406 75.9689 136.501 75.9834 136.589 76.0177C136.677 76.0519 136.757 76.1052 136.822 76.1736C136.961 76.3448 137.03 76.5627 137.013 76.7827C137.01 77.0718 136.945 77.3568 136.822 77.6185C136.693 77.9047 136.521 78.1698 136.312 78.4046C136.11 78.6386 135.871 78.8373 135.604 78.9925C135.399 79.1218 135.166 79.1996 134.924 79.2192H134.896ZM136.114 77.8026C136.242 77.6142 136.313 77.3929 136.319 77.1652C136.329 77.087 136.315 77.0076 136.278 76.9379C136.241 76.8681 136.184 76.8115 136.114 76.7756C136.026 76.7529 135.934 76.7501 135.844 76.7672C135.755 76.7844 135.67 76.8211 135.597 76.8748C135.391 76.993 135.218 77.161 135.094 77.3635C134.963 77.5482 134.889 77.7674 134.881 77.9938C134.881 78.2063 134.952 78.3338 135.094 78.3905C135.179 78.413 135.269 78.4164 135.356 78.4005C135.442 78.3846 135.525 78.3497 135.597 78.2984C135.814 78.1829 136.001 78.0179 136.142 77.8168L136.114 77.8026Z" fill="black"/>
<path d="M87.9091 59.4721C87.9091 58.8275 87.4559 58.5655 86.8963 58.8913L77.5685 64.2812C77.2732 64.4751 77.0276 64.7358 76.8517 65.0421C76.6757 65.3485 76.5743 65.692 76.5557 66.0448V73.5949C76.5557 74.2394 77.0089 74.5014 77.5685 74.1756L81.0248 72.1783L82.4838 74.6927C82.5004 74.7306 82.5276 74.7628 82.5622 74.7855C82.5968 74.8082 82.6372 74.8202 82.6786 74.8202C82.72 74.8202 82.7604 74.8082 82.795 74.7855C82.8296 74.7628 82.8568 74.7306 82.8734 74.6927L84.4103 70.2589L86.8963 68.8424C87.1923 68.6508 87.4385 68.3917 87.6146 68.0863C87.7907 67.7809 87.8916 67.438 87.9091 67.0859V59.4721Z" fill="#F5F5F5"/>
<path d="M79.7822 67.3627C79.6889 67.369 79.5954 67.3545 79.5084 67.3202C79.4214 67.2859 79.3431 67.2326 79.2793 67.1644C79.1464 66.9875 79.0811 66.769 79.0951 66.5482C79.0992 66.26 79.1618 65.9756 79.2793 65.7124C79.4061 65.4264 79.5757 65.1613 79.7822 64.9262C79.9849 64.6914 80.2241 64.4905 80.4904 64.3313C80.7041 64.1992 80.9478 64.1237 81.1987 64.1117C81.2937 64.1047 81.3891 64.1196 81.4775 64.1552C81.5659 64.1908 81.645 64.2462 81.7086 64.3171C81.847 64.4915 81.9152 64.7113 81.8999 64.9333C81.895 65.2199 81.8299 65.5023 81.7086 65.762C81.5777 66.0496 81.4059 66.3167 81.1987 66.5553C80.9957 66.786 80.7564 66.9821 80.4904 67.136C80.2787 67.2733 80.0342 67.3516 79.7822 67.3627ZM79.5555 71.1802C79.5565 71.1344 79.5713 71.09 79.598 71.0527L83.6493 62.8085C83.6784 62.7438 83.714 62.6821 83.7555 62.6244C83.7946 62.5756 83.8427 62.5347 83.8972 62.504L84.7329 62.0294C84.7485 62.0224 84.7654 62.0188 84.7825 62.0188C84.7996 62.0188 84.8165 62.0224 84.8321 62.0294C84.8321 62.0294 84.8675 62.0294 84.8675 62.0932C84.8692 62.1406 84.8569 62.1874 84.8321 62.2278L80.7596 70.5074C80.7342 70.5623 80.7033 70.6145 80.6675 70.6632C80.6338 70.7062 80.59 70.7403 80.54 70.7624L79.6972 71.2511C79.6051 71.3006 79.5555 71.2865 79.5555 71.2015V71.1802ZM80.972 65.9532C81.099 65.7695 81.1703 65.5531 81.1774 65.33C81.1896 65.2497 81.1763 65.1676 81.1394 65.0952C81.1026 65.0228 81.0441 64.9637 80.972 64.9262C80.8858 64.9005 80.7947 64.8954 80.7061 64.9114C80.6175 64.9274 80.5339 64.964 80.4621 65.0183C80.2566 65.1401 80.0839 65.3103 79.9592 65.5141C79.8281 65.701 79.7565 65.9232 79.7538 66.1515C79.7538 66.3569 79.8176 66.4844 79.9592 66.5411C80.0443 66.5668 80.1343 66.5719 80.2218 66.5558C80.3092 66.5398 80.3916 66.5032 80.4621 66.449C80.6905 66.3349 80.8838 66.1611 81.0216 65.9461L80.972 65.9532ZM83.2243 69.1263C83.1293 69.1333 83.0339 69.1184 82.9455 69.0828C82.8571 69.0472 82.778 68.9918 82.7144 68.9209C82.5814 68.7467 82.516 68.5304 82.5302 68.3118C82.5362 68.0283 82.5988 67.749 82.7144 67.4902C82.8419 67.2008 83.014 66.9331 83.2243 66.6969C83.4253 66.4621 83.6648 66.2633 83.9326 66.109C84.1443 65.9718 84.3888 65.8935 84.6408 65.8824C84.735 65.8775 84.8292 65.8926 84.9171 65.9268C85.0051 65.9609 85.0847 66.0134 85.1508 66.0807C85.2879 66.2554 85.3537 66.4756 85.3349 66.6969C85.3337 66.9831 85.2708 67.2657 85.1508 67.5256C85.0198 67.8131 84.8481 68.0803 84.6408 68.3188C84.4376 68.5513 84.1985 68.7497 83.9326 68.9067C83.7293 69.0418 83.4957 69.1245 83.2526 69.1475L83.2243 69.1263ZM84.4425 67.7097C84.5697 67.5235 84.641 67.3048 84.6479 67.0794C84.6591 67.0011 84.6452 66.9213 84.6084 66.8513C84.5715 66.7814 84.5134 66.7248 84.4425 66.6898C84.3552 66.6635 84.2628 66.6581 84.173 66.6741C84.0832 66.6901 83.9984 66.727 83.9255 66.7819C83.7187 66.9021 83.5457 67.0726 83.4226 67.2777C83.2917 67.4598 83.2177 67.6767 83.2102 67.901C83.2102 68.1134 83.281 68.248 83.4226 68.2976C83.5081 68.3201 83.5974 68.3235 83.6843 68.3076C83.7712 68.2917 83.8536 68.2568 83.9255 68.2055C84.1403 68.0961 84.327 67.9385 84.4709 67.7451L84.4425 67.7097Z" fill="#F1463B"/>
<path opacity="0.4" d="M79.7822 67.3627C79.6889 67.369 79.5954 67.3545 79.5084 67.3202C79.4214 67.2859 79.3431 67.2326 79.2793 67.1644C79.1464 66.9875 79.0811 66.769 79.0951 66.5482C79.0992 66.26 79.1618 65.9756 79.2793 65.7124C79.4061 65.4264 79.5757 65.1613 79.7822 64.9262C79.9849 64.6914 80.2241 64.4905 80.4904 64.3313C80.7041 64.1992 80.9478 64.1237 81.1987 64.1117C81.2937 64.1047 81.3891 64.1196 81.4775 64.1552C81.5659 64.1908 81.645 64.2462 81.7086 64.3171C81.847 64.4915 81.9152 64.7113 81.8999 64.9333C81.895 65.2199 81.8299 65.5023 81.7086 65.762C81.5777 66.0496 81.4059 66.3167 81.1987 66.5553C80.9957 66.786 80.7564 66.9821 80.4904 67.136C80.2787 67.2733 80.0342 67.3516 79.7822 67.3627ZM79.5555 71.1802C79.5565 71.1344 79.5713 71.09 79.598 71.0527L83.6493 62.8085C83.6784 62.7438 83.714 62.6821 83.7555 62.6244C83.7946 62.5756 83.8427 62.5347 83.8972 62.504L84.7329 62.0294C84.7485 62.0224 84.7654 62.0188 84.7825 62.0188C84.7996 62.0188 84.8165 62.0224 84.8321 62.0294C84.8321 62.0294 84.8675 62.0294 84.8675 62.0932C84.8692 62.1406 84.8569 62.1874 84.8321 62.2278L80.7596 70.5074C80.7342 70.5623 80.7033 70.6145 80.6675 70.6632C80.6338 70.7062 80.59 70.7403 80.54 70.7624L79.6972 71.2511C79.6051 71.3006 79.5555 71.2865 79.5555 71.2015V71.1802ZM80.972 65.9532C81.099 65.7695 81.1703 65.5531 81.1774 65.33C81.1896 65.2497 81.1763 65.1676 81.1394 65.0952C81.1026 65.0228 81.0441 64.9637 80.972 64.9262C80.8858 64.9005 80.7947 64.8954 80.7061 64.9114C80.6175 64.9274 80.5339 64.964 80.4621 65.0183C80.2566 65.1401 80.0839 65.3103 79.9592 65.5141C79.8281 65.701 79.7565 65.9232 79.7538 66.1515C79.7538 66.3569 79.8176 66.4844 79.9592 66.5411C80.0443 66.5668 80.1343 66.5719 80.2218 66.5558C80.3092 66.5398 80.3916 66.5032 80.4621 66.449C80.6905 66.3349 80.8838 66.1611 81.0216 65.9461L80.972 65.9532ZM83.2243 69.1263C83.1293 69.1333 83.0339 69.1184 82.9455 69.0828C82.8571 69.0472 82.778 68.9918 82.7144 68.9209C82.5814 68.7467 82.516 68.5304 82.5302 68.3118C82.5362 68.0283 82.5988 67.749 82.7144 67.4902C82.8419 67.2008 83.014 66.9331 83.2243 66.6969C83.4253 66.4621 83.6648 66.2633 83.9326 66.109C84.1443 65.9718 84.3888 65.8935 84.6408 65.8824C84.735 65.8775 84.8292 65.8926 84.9171 65.9268C85.0051 65.9609 85.0847 66.0134 85.1508 66.0807C85.2879 66.2554 85.3537 66.4756 85.3349 66.6969C85.3337 66.9831 85.2708 67.2657 85.1508 67.5256C85.0198 67.8131 84.8481 68.0803 84.6408 68.3188C84.4376 68.5513 84.1985 68.7497 83.9326 68.9067C83.7293 69.0418 83.4957 69.1245 83.2526 69.1475L83.2243 69.1263ZM84.4425 67.7097C84.5697 67.5235 84.641 67.3048 84.6479 67.0794C84.6591 67.0011 84.6452 66.9213 84.6084 66.8513C84.5715 66.7814 84.5134 66.7248 84.4425 66.6898C84.3552 66.6635 84.2628 66.6581 84.173 66.6741C84.0832 66.6901 83.9984 66.727 83.9255 66.7819C83.7187 66.9021 83.5457 67.0726 83.4226 67.2777C83.2917 67.4598 83.2177 67.6767 83.2102 67.901C83.2102 68.1134 83.281 68.248 83.4226 68.2976C83.5081 68.3201 83.5974 68.3235 83.6843 68.3076C83.7712 68.2917 83.8536 68.2568 83.9255 68.2055C84.1403 68.0961 84.327 67.9385 84.4709 67.7451L84.4425 67.7097Z" fill="black"/>
<path d="M54.0454 99.6744C54.0454 99.0299 53.5921 98.7678 53.0326 99.0866L43.7047 104.484C43.4094 104.677 43.1639 104.938 42.9879 105.244C42.812 105.551 42.7106 105.894 42.6919 106.247V113.79C42.6919 114.442 43.1452 114.704 43.7047 114.378L47.1681 112.381L48.6201 114.895C48.641 114.931 48.6719 114.961 48.709 114.98C48.7461 114.999 48.788 115.008 48.8297 115.004C48.8713 115 48.9111 114.985 48.9442 114.959C48.9774 114.933 49.0025 114.899 49.0167 114.86L50.5536 110.419L53.0326 109.002C53.3277 108.81 53.5733 108.551 53.7493 108.245C53.9253 107.94 54.0267 107.598 54.0454 107.246V99.6744Z" fill="#F5F5F5"/>
<path d="M45.928 107.586C45.834 107.594 45.7395 107.579 45.6521 107.543C45.5648 107.508 45.487 107.452 45.4252 107.381C45.2879 107.209 45.222 106.991 45.241 106.771C45.2415 106.483 45.3043 106.198 45.4252 105.936C45.551 105.647 45.7206 105.379 45.928 105.142C46.1298 104.908 46.3691 104.71 46.6363 104.555C46.8487 104.42 47.0932 104.344 47.3446 104.335C47.4396 104.328 47.535 104.343 47.6234 104.378C47.7118 104.414 47.7909 104.469 47.8545 104.54C47.9941 104.714 48.0625 104.934 48.0458 105.157C48.041 105.441 47.9758 105.721 47.8545 105.978C47.7253 106.269 47.5535 106.539 47.3446 106.779C47.1415 107.009 46.9023 107.205 46.6363 107.359C46.4236 107.494 46.1797 107.573 45.928 107.586ZM45.7014 111.404C45.704 111.357 45.716 111.311 45.7368 111.269L49.7881 103.032C49.8156 102.966 49.8513 102.904 49.8943 102.848C49.935 102.8 49.9828 102.76 50.036 102.727L50.8717 102.246C50.9038 102.234 50.9388 102.234 50.9709 102.246C50.9847 102.249 50.9967 102.257 51.0045 102.269C51.0124 102.281 51.0156 102.295 51.0134 102.309C51.0114 102.357 50.9968 102.404 50.9709 102.444L46.9054 110.724C46.87 110.794 46.8346 110.844 46.8134 110.879C46.7734 110.919 46.7281 110.952 46.6788 110.979L45.836 111.467C45.7439 111.496 45.7014 111.489 45.7014 111.404ZM47.1179 106.177C47.242 105.992 47.3108 105.776 47.3162 105.553C47.3162 105.341 47.2525 105.206 47.1179 105.15C47.0317 105.124 46.9405 105.119 46.852 105.135C46.7634 105.151 46.6798 105.187 46.608 105.242C46.3986 105.361 46.2231 105.531 46.098 105.737C45.9699 105.926 45.8986 106.147 45.8926 106.375C45.8815 106.453 45.8953 106.533 45.9322 106.603C45.9691 106.673 46.0271 106.729 46.098 106.764C46.1843 106.79 46.2754 106.795 46.364 106.779C46.4526 106.763 46.5362 106.727 46.608 106.672C46.8261 106.555 47.0111 106.384 47.1463 106.177H47.1179ZM49.3702 109.35C49.2753 109.355 49.1804 109.339 49.0922 109.304C49.0041 109.268 48.9248 109.214 48.8603 109.144C48.723 108.972 48.6548 108.755 48.669 108.535C48.6738 108.251 48.739 107.971 48.8603 107.713C48.9894 107.423 49.1613 107.153 49.3702 106.913C49.5745 106.684 49.8135 106.488 50.0785 106.332C50.2912 106.197 50.5351 106.119 50.7867 106.106C50.8811 106.099 50.9757 106.114 51.0638 106.148C51.1519 106.182 51.2314 106.236 51.2967 106.304C51.4369 106.477 51.5054 106.698 51.4879 106.92C51.484 107.207 51.4188 107.489 51.2967 107.749C51.1673 108.035 50.9954 108.3 50.7867 108.535C50.587 108.771 50.3472 108.97 50.0785 109.123C49.875 109.255 49.6409 109.334 49.3985 109.35H49.3702ZM50.5813 107.933C50.7094 107.745 50.7807 107.523 50.7867 107.296C50.7968 107.217 50.7825 107.138 50.7457 107.068C50.709 106.999 50.6515 106.942 50.5813 106.906C50.4932 106.883 50.4011 106.88 50.3117 106.898C50.2223 106.915 50.1378 106.952 50.0643 107.005C49.8605 107.126 49.6881 107.294 49.5614 107.494C49.4332 107.68 49.3618 107.899 49.356 108.124C49.356 108.337 49.4198 108.464 49.5614 108.521C49.6469 108.543 49.7362 108.547 49.8231 108.531C49.91 108.515 49.9924 108.48 50.0643 108.429C50.2814 108.313 50.4682 108.148 50.6097 107.947L50.5813 107.933Z" fill="#F1463B"/>
<path opacity="0.4" d="M45.928 107.586C45.834 107.594 45.7395 107.579 45.6521 107.543C45.5648 107.508 45.487 107.452 45.4252 107.381C45.2879 107.209 45.222 106.991 45.241 106.771C45.2415 106.483 45.3043 106.198 45.4252 105.936C45.551 105.647 45.7206 105.379 45.928 105.142C46.1298 104.908 46.3691 104.71 46.6363 104.555C46.8487 104.42 47.0932 104.344 47.3446 104.335C47.4396 104.328 47.535 104.343 47.6234 104.378C47.7118 104.414 47.7909 104.469 47.8545 104.54C47.9941 104.714 48.0625 104.934 48.0458 105.157C48.041 105.441 47.9758 105.721 47.8545 105.978C47.7253 106.269 47.5535 106.539 47.3446 106.779C47.1415 107.009 46.9023 107.205 46.6363 107.359C46.4236 107.494 46.1797 107.573 45.928 107.586ZM45.7014 111.404C45.704 111.357 45.716 111.311 45.7368 111.269L49.7881 103.032C49.8156 102.966 49.8513 102.904 49.8943 102.848C49.935 102.8 49.9828 102.76 50.036 102.727L50.8717 102.246C50.9038 102.234 50.9388 102.234 50.9709 102.246C50.9847 102.249 50.9967 102.257 51.0045 102.269C51.0124 102.281 51.0156 102.295 51.0134 102.309C51.0114 102.357 50.9968 102.404 50.9709 102.444L46.9054 110.724C46.87 110.794 46.8346 110.844 46.8134 110.879C46.7734 110.919 46.7281 110.952 46.6788 110.979L45.836 111.467C45.7439 111.496 45.7014 111.489 45.7014 111.404ZM47.1179 106.177C47.242 105.992 47.3108 105.776 47.3162 105.553C47.3162 105.341 47.2525 105.206 47.1179 105.15C47.0317 105.124 46.9405 105.119 46.852 105.135C46.7634 105.151 46.6798 105.187 46.608 105.242C46.3986 105.361 46.2231 105.531 46.098 105.737C45.9699 105.926 45.8986 106.147 45.8926 106.375C45.8815 106.453 45.8953 106.533 45.9322 106.603C45.9691 106.673 46.0271 106.729 46.098 106.764C46.1843 106.79 46.2754 106.795 46.364 106.779C46.4526 106.763 46.5362 106.727 46.608 106.672C46.8261 106.555 47.0111 106.384 47.1463 106.177H47.1179ZM49.3702 109.35C49.2753 109.355 49.1804 109.339 49.0922 109.304C49.0041 109.268 48.9248 109.214 48.8603 109.144C48.723 108.972 48.6548 108.755 48.669 108.535C48.6738 108.251 48.739 107.971 48.8603 107.713C48.9894 107.423 49.1613 107.153 49.3702 106.913C49.5745 106.684 49.8135 106.488 50.0785 106.332C50.2912 106.197 50.5351 106.119 50.7867 106.106C50.8811 106.099 50.9757 106.114 51.0638 106.148C51.1519 106.182 51.2314 106.236 51.2967 106.304C51.4369 106.477 51.5054 106.698 51.4879 106.92C51.484 107.207 51.4188 107.489 51.2967 107.749C51.1673 108.035 50.9954 108.3 50.7867 108.535C50.587 108.771 50.3472 108.97 50.0785 109.123C49.875 109.255 49.6409 109.334 49.3985 109.35H49.3702ZM50.5813 107.933C50.7094 107.745 50.7807 107.523 50.7867 107.296C50.7968 107.217 50.7825 107.138 50.7457 107.068C50.709 106.999 50.6515 106.942 50.5813 106.906C50.4932 106.883 50.4011 106.88 50.3117 106.898C50.2223 106.915 50.1378 106.952 50.0643 107.005C49.8605 107.126 49.6881 107.294 49.5614 107.494C49.4332 107.68 49.3618 107.899 49.356 108.124C49.356 108.337 49.4198 108.464 49.5614 108.521C49.6469 108.543 49.7362 108.547 49.8231 108.531C49.91 108.515 49.9924 108.48 50.0643 108.429C50.2814 108.313 50.4682 108.148 50.6097 107.947L50.5813 107.933Z" fill="black"/>
<path d="M45.6677 170.189L52.5024 166.244C53.5011 165.671 54.3014 165.919 54.3014 166.797C54.2275 167.345 54.0263 167.868 53.7139 168.324C53.4015 168.781 52.9866 169.157 52.5024 169.424L45.6747 173.369C44.6761 173.943 43.8687 173.695 43.8687 172.817C43.9457 172.27 44.1482 171.748 44.4603 171.292C44.7723 170.837 45.1856 170.459 45.6677 170.189Z" fill="#F5F5F5"/>
<path d="M79.6579 150.563L86.4926 146.618C87.4842 146.044 88.2916 146.292 88.2916 147.17C88.2146 147.717 88.0121 148.239 87.7 148.695C87.388 149.151 86.9747 149.528 86.4926 149.798L79.6579 153.771C78.6663 154.345 77.8589 154.097 77.8589 153.219C77.9329 152.667 78.1338 152.14 78.446 151.679C78.7582 151.219 79.173 150.836 79.6579 150.563Z" fill="#F5F5F5"/>
<path d="M105.63 135.59L112.465 131.645C113.456 131.071 114.264 131.319 114.264 132.197C114.187 132.744 113.984 133.266 113.672 133.722C113.36 134.178 112.947 134.555 112.465 134.825L105.63 138.77C104.638 139.344 103.831 139.103 103.831 138.224C103.908 137.676 104.11 137.153 104.422 136.696C104.734 136.239 105.147 135.861 105.63 135.59Z" fill="#F5F5F5"/>
<path d="M131.212 120.801L138.047 116.856C139.045 116.283 139.853 116.524 139.846 117.402C139.773 117.951 139.572 118.476 139.26 118.933C138.947 119.391 138.532 119.769 138.047 120.037L131.219 123.982C130.22 124.555 129.413 124.307 129.413 123.429C129.49 122.882 129.693 122.36 130.005 121.905C130.317 121.449 130.73 121.071 131.212 120.801Z" fill="#F5F5F5"/>
<path d="M202.053 113.831C190.756 120.354 181.605 136.212 181.605 149.244C181.605 162.276 190.756 167.567 202.053 161.051C213.35 154.535 222.501 138.67 222.501 125.638C222.501 112.606 213.343 107.308 202.053 113.831ZM200.325 150.923C198.932 151.802 197.337 152.311 195.693 152.403C191.727 152.403 191.295 147.722 191.295 145.71C191.295 137.848 197.046 127.897 203.852 123.966C205.242 123.086 206.834 122.576 208.477 122.486C212.45 122.486 212.875 127.168 212.875 129.179C212.84 137.034 207.096 146.992 200.325 150.923Z" fill="#455A64"/>
<path d="M209.006 122.528C208.818 122.503 208.629 122.488 208.439 122.486C207.444 122.52 206.464 122.738 205.549 123.13C205.64 123.766 205.685 124.407 205.684 125.05C205.684 132.904 199.933 142.862 193.126 146.786C192.57 147.109 191.99 147.389 191.391 147.622C191.521 148.805 191.94 149.938 192.609 150.922C192.957 151.399 193.417 151.784 193.948 152.042C194.479 152.3 195.065 152.424 195.655 152.403C197.3 152.314 198.895 151.804 200.287 150.922C207.093 146.992 212.837 137.033 212.837 129.179C212.837 127.266 212.448 122.953 209.006 122.528Z" fill="#263238"/>
<path d="M216.478 112.387L206.336 106.53C202.618 104.355 197.49 104.653 191.824 107.896C180.491 114.42 171.376 130.278 171.376 143.31C171.376 149.755 173.614 154.295 177.24 156.462L177.34 156.533H177.396L187.397 162.305H187.447C185.706 161.221 184.311 159.664 183.424 157.815C182.646 156.224 182.127 154.519 181.887 152.765C181.702 151.575 181.607 150.372 181.603 149.167C181.603 136.128 190.754 120.27 202.051 113.754C203.096 113.155 204.185 112.636 205.309 112.203C206.949 111.535 208.684 111.131 210.451 111.006C212.547 110.841 214.645 111.294 216.485 112.309L216.478 112.387Z" fill="#37474F"/>
<path d="M200.039 63.055L190.499 57.5447L176.128 65.8385L142.776 184.282L152.323 189.792L166.496 181.604L200.039 63.055Z" fill="#37474F"/>
<path d="M166.495 181.605L152.323 189.793L185.725 71.3214L200.039 63.0559L166.495 181.605Z" fill="#455A64"/>
<path d="M152.323 189.793L185.725 71.3211L176.128 65.8392L142.776 184.282L152.323 189.793Z" fill="#263238"/>
<path d="M146.495 94.7422C135.205 101.265 126.047 117.123 126.047 130.155C126.047 143.187 135.219 148.485 146.495 141.969C157.771 135.453 166.943 119.588 166.943 106.556C166.943 93.524 157.827 88.2262 146.495 94.7422ZM144.753 131.834C143.36 132.714 141.765 133.223 140.121 133.314C136.147 133.314 135.722 128.633 135.722 126.621C135.722 118.767 141.466 108.808 148.273 104.877C149.665 103.996 151.259 103.486 152.905 103.397C156.871 103.397 157.303 108.079 157.303 110.09C157.303 117.945 151.552 127.903 144.753 131.834Z" fill="#455A64"/>
<path d="M153.471 103.441C153.283 103.415 153.094 103.401 152.904 103.398C151.906 103.432 150.924 103.653 150.008 104.05C150.098 104.683 150.143 105.322 150.142 105.962C150.142 113.817 144.398 123.775 137.592 127.699C137.039 128.019 136.464 128.299 135.871 128.534C136 129.721 136.421 130.858 137.096 131.842C137.445 132.318 137.905 132.7 138.436 132.957C138.966 133.214 139.552 133.337 140.141 133.315C141.786 133.224 143.381 132.715 144.773 131.835C151.573 127.904 157.324 117.946 157.324 110.091C157.303 108.179 156.906 103.866 153.471 103.441Z" fill="#263238"/>
<path d="M160.944 93.2993L150.801 87.4419C147.097 85.2817 141.969 85.5792 136.303 88.8584C124.971 95.3745 115.849 111.233 115.849 124.272C115.849 130.717 118.094 135.257 121.713 137.424L121.812 137.495H121.869L131.855 143.31H131.912C130.17 142.229 128.772 140.674 127.882 138.827C127.105 137.233 126.587 135.526 126.345 133.77C126.16 132.579 126.065 131.376 126.062 130.172C126.062 117.132 135.22 101.274 146.509 94.7583C147.556 94.162 148.645 93.6436 149.767 93.2072C151.41 92.539 153.148 92.135 154.917 92.0102C157.01 91.8459 159.105 92.299 160.944 93.3134V93.2993Z" fill="#37474F"/>
<path d="M108.153 196.827L114.846 209.47C120.175 208.626 125.311 206.844 130.017 204.207L113.834 200.574C112.183 201.516 110.229 196.466 108.153 196.827Z" fill="#F1463B"/>
<path opacity="0.2" d="M108.153 196.827L114.846 209.47C120.175 208.626 125.311 206.844 130.017 204.207L113.834 200.574C112.183 201.516 110.229 196.466 108.153 196.827Z" fill="black"/>
<path d="M94.4361 189.356C97.6729 187.486 102.107 186.756 106.3 187.139L109.876 166.599L106.3 160.225L87.8421 162.647L68.0107 191.686L68.6269 192.571L90.484 194.158C90.8381 192.401 92.113 190.709 94.4361 189.356Z" fill="#F1463B"/>
<path opacity="0.7" d="M94.4361 189.356C97.6729 187.486 102.107 186.756 106.3 187.139L109.876 166.599L106.3 160.225L87.8421 162.647L68.0107 191.686L68.6269 192.571L90.484 194.158C90.8381 192.401 92.113 190.709 94.4361 189.356Z" fill="black"/>
<path d="M109.876 152.638V149.012L106.299 162.03L106.306 165.656L109.876 152.638Z" fill="#F1463B"/>
<path opacity="0.7" d="M109.876 152.638V149.012L106.299 162.03L106.306 165.656L109.876 152.638Z" fill="black"/>
<path d="M94.4337 164.247C97.6705 162.385 102.104 161.648 106.297 162.031L109.874 149.013C89.915 147.192 71.1743 155.047 68.0155 166.571C67.9234 166.896 67.8242 167.343 67.7676 167.668L90.4887 169.049C90.8358 167.293 92.1106 165.593 94.4337 164.247Z" fill="#F1463B"/>
<path opacity="0.6" d="M94.4337 164.247C97.6705 162.385 102.104 161.648 106.297 162.031L109.874 149.013C89.915 147.192 71.1743 155.047 68.0155 166.571C67.9234 166.896 67.8242 167.343 67.7676 167.668L90.4887 169.049C90.8358 167.293 92.1106 165.593 94.4337 164.247Z" fill="black"/>
<path d="M90.4887 183.858V169.049L67.7676 167.668V182.477L90.4887 183.858Z" fill="#F1463B"/>
<path opacity="0.8" d="M90.4887 183.858V169.049L67.7676 167.668V182.477L90.4887 183.858Z" fill="black"/>
<path d="M113.857 167.873C116.605 169.467 117.936 171.556 117.858 173.639L140.728 173.872C141.054 163.213 128.114 154.31 109.876 152.624L106.299 165.642C108.948 165.844 111.523 166.604 113.857 167.873Z" fill="#F1463B"/>
<path opacity="0.8" d="M113.857 167.873C116.605 169.467 117.936 171.556 117.858 173.639L140.728 173.872C141.054 163.213 128.114 154.31 109.876 152.624L106.299 165.642C108.948 165.844 111.523 166.604 113.857 167.873Z" fill="white"/>
<path d="M117.856 173.639V189.412L140.726 189.646V173.873L117.856 173.639Z" fill="#F1463B"/>
<path opacity="0.6" d="M117.856 173.639V189.412L140.726 189.646V173.873L117.856 173.639Z" fill="white"/>
<path d="M117.866 173.639V189.292C117.866 187.266 116.534 185.233 113.857 183.682C111.732 182.45 109.069 187.429 106.307 187.174V165.657C112.554 166.188 117.979 169.34 117.866 173.639Z" fill="#F1463B"/>
<path opacity="0.6" d="M117.866 173.639V189.292C117.866 187.266 116.534 185.233 113.857 183.682C111.732 182.45 109.069 187.429 106.307 187.174V165.657C112.554 166.188 117.979 169.34 117.866 173.639Z" fill="white"/>
<path d="M117.872 180.664H90.4194V199.122H117.872V180.664Z" fill="#E0E0E0"/>
<path d="M94.4362 186.366C89.0746 183.271 89.0746 178.249 94.4362 175.154C99.7978 172.059 108.495 172.059 113.857 175.154C119.218 178.249 119.211 183.271 113.857 186.366C108.502 189.461 99.7978 189.461 94.4362 186.366Z" fill="#FAFAFA"/>
<path d="M117.858 189.412C117.787 191.388 116.442 199.059 113.856 200.56L130.04 204.193C137.123 200.114 140.579 195.404 140.749 189.632L117.858 189.412Z" fill="#37474F"/>
<path d="M140.726 177.328V189.645L130.017 204.207V191.897L140.726 177.328Z" fill="#37474F"/>
<path d="M117.858 177.094C117.787 179.07 116.442 181.032 113.856 182.54L130.04 191.882C137.123 187.803 140.579 183.093 140.749 177.321L117.858 177.094Z" fill="#455A64"/>
<path d="M130.019 191.898V204.208L113.835 194.866L113.856 182.542L130.019 191.898Z" fill="#263238"/>
<path d="M130.018 195.787L114.847 201.049V209.471L130.018 204.208V195.787Z" fill="#F1463B"/>
<path opacity="0.2" d="M130.018 195.787L114.847 201.049V209.471L130.018 204.208V195.787Z" fill="black"/>
<path d="M108.153 188.407L114.846 201.049C120.175 200.205 125.311 198.423 130.017 195.787L113.834 186.459C112.066 187.428 110.144 188.087 108.153 188.407Z" fill="#F1463B"/>
<path d="M108.148 188.406V192.245L114.848 209.47V201.049L108.148 188.406Z" fill="#F1463B"/>
<path opacity="0.4" d="M108.148 188.406V192.245L114.848 209.47V201.049L108.148 188.406Z" fill="black"/>
<path d="M97.6718 199.208C94.6404 197.451 90.0863 196.467 90.49 194.179L67.5635 183.18C67.5635 183.18 67.5635 188.633 67.5635 189.391C67.6131 200.015 81.5659 209.173 100.328 210.306C105.182 210.64 110.06 210.369 114.847 209.499V203.33C110.151 204.123 101.383 201.332 97.6718 199.208Z" fill="#F1463B"/>
<path opacity="0.5" d="M97.6718 199.208C94.6404 197.451 90.0863 196.467 90.49 194.179L67.5635 183.18C67.5635 183.18 67.5635 188.633 67.5635 189.391C67.6131 200.015 81.5659 209.173 100.328 210.306C105.182 210.64 110.06 210.369 114.847 209.499V203.33C110.151 204.123 101.383 201.332 97.6718 199.208Z" fill="black"/>
<path d="M94.4352 188.683C91.4038 186.933 90.0865 184.561 90.4902 182.273L67.769 180.892C65.6442 192.493 80.2345 202.891 100.349 204.109C105.204 204.439 110.081 204.168 114.869 203.301L108.176 190.659C103.458 191.48 98.1465 190.829 94.4352 188.683Z" fill="#F1463B"/>
<path opacity="0.3" d="M94.4352 188.683C91.4038 186.933 90.0865 184.561 90.4902 182.273L67.769 180.892C65.6442 192.493 80.2345 202.891 100.349 204.109C105.204 204.439 110.081 204.168 114.869 203.301L108.176 190.659C103.458 191.48 98.1465 190.829 94.4352 188.683Z" fill="black"/>
</svg>
