<svg width="633" height="480" viewBox="0 0 633 480" fill="none" xmlns="http://www.w3.org/2000/svg">
<path d="M89.938 435.431C202.972 494.477 386.223 494.477 499.258 435.431C612.292 376.384 612.279 280.644 499.258 221.597C386.237 162.551 202.972 162.551 89.938 221.597C-23.0964 280.644 -23.0829 376.425 89.938 435.431Z" fill="#8D9AA8"/>
<path d="M525.986 332.972C509.002 341.066 481.468 341.066 464.457 332.972C447.446 324.878 447.459 311.738 464.457 303.644C481.455 295.55 508.975 295.55 525.986 303.644C542.997 311.738 542.984 324.864 525.986 332.972Z" fill="#E0E0E0"/>
<path d="M164.189 182.68C142.672 195.105 125.242 225.309 125.242 250.131C125.242 274.953 142.672 285.031 164.189 272.62C185.706 260.209 203.135 229.991 203.135 205.169C203.135 180.347 185.692 170.256 164.189 182.68ZM160.897 253.329C158.243 255.002 155.207 255.972 152.074 256.148C144.52 256.148 143.697 247.231 143.697 243.4C143.697 228.426 154.651 209.472 167.615 201.985C170.262 200.308 173.295 199.337 176.424 199.165C183.992 199.165 184.802 208.082 184.802 211.914C184.734 226.874 173.794 245.842 160.897 253.329Z" fill="#455A64"/>
<path d="M177.437 199.245C177.079 199.197 176.719 199.17 176.358 199.165C174.463 199.229 172.596 199.645 170.854 200.392C171.026 201.603 171.111 202.825 171.11 204.048C171.11 219.009 160.156 237.976 147.192 245.449C146.133 246.065 145.028 246.597 143.887 247.041C144.135 249.295 144.931 251.453 146.207 253.328C146.87 254.236 147.745 254.968 148.757 255.459C149.768 255.951 150.884 256.187 152.008 256.147C155.142 255.978 158.179 255.007 160.83 253.328C173.795 245.841 184.735 226.873 184.735 211.913C184.735 208.27 183.993 200.055 177.437 199.245Z" fill="#263238"/>
<path d="M191.668 179.929L172.35 168.772C165.268 164.631 155.501 165.197 144.708 171.376C123.124 183.8 105.762 214.005 105.762 238.827C105.762 251.103 110.025 259.75 116.932 263.878L117.121 264.013H117.229L136.277 275.008H136.372C133.057 272.942 130.399 269.976 128.709 266.455C127.228 263.425 126.24 260.178 125.782 256.836C125.43 254.569 125.25 252.278 125.242 249.983C125.242 225.148 142.671 194.943 164.188 182.532C166.179 181.391 168.253 180.403 170.394 179.578C173.517 178.305 176.823 177.536 180.188 177.298C184.179 176.984 188.175 177.847 191.681 179.78L191.668 179.929Z" fill="#37474F"/>
<path d="M160.357 85.9678L142.186 75.4724L114.814 91.2694L51.2891 316.866L69.4739 327.362L96.4678 311.767L160.357 85.9678Z" fill="#37474F"/>
<path d="M96.4675 311.768L69.4736 327.362L133.093 101.712L160.357 85.9685L96.4675 311.768Z" fill="#455A64"/>
<path d="M69.4739 327.363L133.094 101.712L114.814 91.2704L51.2891 316.867L69.4739 327.363Z" fill="#263238"/>
<path d="M58.374 146.322C36.8706 158.746 19.4277 188.951 19.4277 213.773C19.4277 238.595 36.8976 248.686 58.374 236.275C79.8504 223.864 97.3202 193.646 97.3202 168.824C97.3202 144.002 79.9583 133.911 58.374 146.322ZM55.0554 216.97C52.4025 218.646 49.3657 219.616 46.2328 219.79C38.6648 219.79 37.8554 210.873 37.8554 207.041C37.8554 192.081 48.7959 173.113 61.76 165.626C64.4111 163.947 67.4489 162.976 70.5826 162.807C78.1371 162.807 78.96 171.724 78.96 175.555C78.96 190.516 68.006 209.483 55.0554 216.97Z" fill="#455A64"/>
<path d="M71.6589 162.89C71.3011 162.842 70.9407 162.815 70.5797 162.809C68.679 162.873 66.8074 163.294 65.0622 164.05C65.2341 165.257 65.3198 166.474 65.3185 167.693C65.3185 182.653 54.378 201.62 41.4139 209.094C40.362 209.705 39.2663 210.237 38.1357 210.686C38.3817 212.946 39.1835 215.111 40.4696 216.986C41.1339 217.891 42.01 218.621 43.0211 219.11C44.0323 219.599 45.1478 219.833 46.2703 219.792C49.4033 219.618 52.4401 218.648 55.0929 216.972C68.0435 209.485 78.9976 190.518 78.9976 175.557C78.9571 171.915 78.2017 163.699 71.6589 162.89Z" fill="#263238"/>
<path d="M85.8922 143.572L66.5742 132.416C59.5188 128.301 49.7519 128.868 38.9597 135.114C17.3754 147.525 0 177.729 0 202.565C0 214.841 4.27639 223.488 11.1699 227.616L11.3588 227.751H11.4667L30.4879 238.827H30.5958C27.2776 236.767 24.615 233.805 22.9199 230.287C21.4405 227.252 20.4524 224.001 19.9925 220.655C19.6402 218.388 19.4599 216.097 19.4529 213.802C19.4529 188.967 36.8957 158.762 58.3991 146.351C60.3923 145.215 62.4664 144.228 64.6046 143.397C67.7329 142.124 71.043 141.355 74.412 141.117C78.3991 140.804 82.3905 141.667 85.8922 143.599V143.572Z" fill="#37474F"/>
<path d="M362.511 397.527L375.26 421.607C385.408 419.999 395.191 416.606 404.156 411.584L373.33 404.664C370.187 406.458 366.464 396.839 362.511 397.527Z" fill="#F1463B"/>
<path opacity="0.2" d="M362.511 397.527L375.26 421.607C385.408 419.999 395.191 416.606 404.156 411.584L373.33 404.664C370.187 406.458 366.464 396.839 362.511 397.527Z" fill="black"/>
<path d="M336.382 383.296C342.547 379.734 350.992 378.345 358.978 379.073L365.791 339.951L358.978 327.81L323.822 332.424L286.05 387.734L287.224 389.42L328.854 392.442C329.529 389.096 331.957 385.872 336.382 383.296Z" fill="#F1463B"/>
<path opacity="0.7" d="M336.382 383.296C342.547 379.734 350.992 378.345 358.978 379.073L365.791 339.951L358.978 327.81L323.822 332.424L286.05 387.734L287.224 389.42L328.854 392.442C329.529 389.096 331.957 385.872 336.382 383.296Z" fill="black"/>
<path d="M365.791 313.36V306.453L358.979 331.248L358.992 338.155L365.791 313.36Z" fill="#F1463B"/>
<path opacity="0.7" d="M365.791 313.36V306.453L358.979 331.248L358.992 338.155L365.791 313.36Z" fill="black"/>
<path d="M336.381 335.471C342.546 331.924 350.991 330.521 358.977 331.249L365.79 306.454C327.774 302.987 292.079 317.948 286.062 339.896C285.887 340.517 285.698 341.367 285.59 341.987L328.867 344.618C329.528 341.272 331.956 338.035 336.381 335.471Z" fill="#F1463B"/>
<path opacity="0.6" d="M336.381 335.471C342.546 331.924 350.991 330.521 358.977 331.249L365.79 306.454C327.774 302.987 292.079 317.948 286.062 339.896C285.887 340.517 285.698 341.367 285.59 341.987L328.867 344.618C329.528 341.272 331.956 338.035 336.381 335.471Z" fill="black"/>
<path d="M328.867 372.824V344.616L285.59 341.986V370.194L328.867 372.824Z" fill="#F1463B"/>
<path opacity="0.8" d="M328.867 372.824V344.616L285.59 341.986V370.194L328.867 372.824Z" fill="black"/>
<path d="M373.373 342.378C378.607 345.413 381.143 349.393 380.995 353.359L424.555 353.804C425.175 333.501 400.529 316.544 365.791 313.333L358.979 338.128C364.023 338.512 368.929 339.961 373.373 342.378Z" fill="#F1463B"/>
<path opacity="0.8" d="M373.373 342.378C378.607 345.413 381.143 349.393 380.995 353.359L424.555 353.804C425.175 333.501 400.529 316.544 365.791 313.333L358.979 338.128C364.023 338.512 368.929 339.961 373.373 342.378Z" fill="white"/>
<path d="M380.992 353.359V383.402L424.552 383.847V353.805L380.992 353.359Z" fill="#F1463B"/>
<path opacity="0.6" d="M380.992 353.359V383.402L424.552 383.847V353.805L380.992 353.359Z" fill="white"/>
<path d="M381.008 353.361V383.174C381.008 379.316 378.472 375.444 373.373 372.49C369.326 370.142 364.254 379.626 358.992 379.14V338.157C370.891 339.169 381.224 345.172 381.008 353.361Z" fill="#F1463B"/>
<path opacity="0.6" d="M381.008 353.361V383.174C381.008 379.316 378.472 375.444 373.373 372.49C369.326 370.142 364.254 379.626 358.992 379.14V338.157C370.891 339.169 381.224 345.172 381.008 353.361Z" fill="white"/>
<path d="M381.022 366.741H328.734V401.896H381.022V366.741Z" fill="#E0E0E0"/>
<path d="M336.382 377.602C326.17 371.707 326.17 362.142 336.382 356.247C346.594 350.352 363.16 350.352 373.372 356.247C383.584 362.142 383.571 371.707 373.372 377.602C363.174 383.497 346.594 383.497 336.382 377.602Z" fill="#FAFAFA"/>
<path d="M380.995 383.403C380.86 387.166 378.297 401.776 373.373 404.636L404.198 411.557C417.688 403.786 424.271 394.815 424.595 383.821L380.995 383.403Z" fill="#37474F"/>
<path d="M424.555 360.386V383.846L404.158 411.582V388.136L424.555 360.386Z" fill="#37474F"/>
<path d="M380.995 359.94C380.86 363.704 378.297 367.441 373.373 370.314L404.198 388.108C417.688 380.338 424.271 371.367 424.595 360.372L380.995 359.94Z" fill="#455A64"/>
<path d="M404.157 388.138V411.584L373.331 393.79L373.372 370.317L404.157 388.138Z" fill="#263238"/>
<path d="M404.157 395.543L375.261 405.566V421.606L404.157 411.583V395.543Z" fill="#F1463B"/>
<path opacity="0.2" d="M404.157 395.543L375.261 405.566V421.606L404.157 411.583V395.543Z" fill="black"/>
<path d="M362.511 381.486L375.26 405.566C385.408 403.959 395.191 400.565 404.156 395.543L373.33 377.777C369.963 379.623 366.303 380.878 362.511 381.486Z" fill="#F1463B"/>
<path d="M362.498 381.487V388.798L375.259 421.606V405.567L362.498 381.487Z" fill="#F1463B"/>
<path opacity="0.4" d="M362.498 381.487V388.798L375.259 421.606V405.567L362.498 381.487Z" fill="black"/>
<path d="M342.547 402.058C336.773 398.713 328.099 396.838 328.868 392.48L285.2 371.53C285.2 371.53 285.2 381.918 285.2 383.361C285.294 403.596 311.87 421.039 347.605 423.198C356.852 423.834 366.141 423.317 375.26 421.66V409.91C366.316 411.421 349.615 406.105 342.547 402.058Z" fill="#F1463B"/>
<path opacity="0.5" d="M342.547 402.058C336.773 398.713 328.099 396.838 328.868 392.48L285.2 371.53C285.2 371.53 285.2 381.918 285.2 383.361C285.294 403.596 311.87 421.039 347.605 423.198C356.852 423.834 366.141 423.317 375.26 421.66V409.91C366.316 411.421 349.615 406.105 342.547 402.058Z" fill="black"/>
<path d="M336.382 382.012C330.608 378.68 328.099 374.16 328.868 369.803L285.591 367.172C281.544 389.269 309.334 409.073 347.646 411.393C356.893 412.023 366.181 411.506 375.301 409.855L362.553 385.775C353.568 387.34 343.451 386.099 336.382 382.012Z" fill="#F1463B"/>
<path opacity="0.3" d="M336.382 382.012C330.608 378.68 328.099 374.16 328.868 369.803L285.591 367.172C281.544 389.269 309.334 409.073 347.646 411.393C356.893 412.023 366.181 411.506 375.301 409.855L362.553 385.775C353.568 387.34 343.451 386.099 336.382 382.012Z" fill="black"/>
<path d="M178.437 321.117C179.563 312.755 179.068 304.254 176.98 296.079C174.741 287.162 170.235 280.957 164.906 277.692C159.578 274.427 149.878 277.854 157.622 288.282C165.365 298.71 173.23 311.984 174.066 322.007L178.437 321.117Z" fill="#37474F"/>
<path d="M176.94 322.087C176.851 322.085 176.764 322.066 176.683 322.03C176.602 321.995 176.528 321.944 176.467 321.88C176.405 321.816 176.357 321.74 176.325 321.658C176.293 321.575 176.277 321.487 176.279 321.399C176.657 302.958 168.009 284.409 160.091 280.146C159.931 280.062 159.812 279.918 159.759 279.746C159.706 279.574 159.723 279.388 159.807 279.228C159.891 279.069 160.035 278.95 160.207 278.897C160.379 278.844 160.565 278.861 160.725 278.945C169.048 283.397 178.073 302.512 177.682 321.426C177.683 321.52 177.663 321.613 177.625 321.699C177.587 321.785 177.531 321.862 177.461 321.924C177.39 321.987 177.308 322.034 177.218 322.062C177.128 322.09 177.033 322.098 176.94 322.087Z" fill="white"/>
<path d="M179.097 353.736C170.598 358.673 160.939 354.141 159.266 344.657C158.686 341.352 158.106 337.912 155.044 336.037C152.48 334.445 149.027 334.242 146.828 332.111C143.698 329.062 145.479 325.137 147.449 322.047C149.283 319.241 150.767 315.963 149.04 312.753C147.981 311.068 147.142 309.254 146.545 307.356C146.254 306.409 146.214 305.403 146.429 304.435C146.645 303.468 147.107 302.574 147.772 301.839C149.391 300.301 151.941 300.369 154.113 300.895C157.634 301.836 160.875 303.619 163.556 306.088C165.458 307.721 166.537 309.38 169.276 309.879C171.299 310.243 173.404 309.879 175.4 310.351C176.659 310.692 177.83 311.298 178.835 312.129C179.84 312.96 180.656 313.996 181.228 315.167C183.211 319.039 182.577 323.545 182.267 327.713C181.957 331.882 181.565 335.645 181.08 339.598C180.675 342.944 180.216 346.343 179.731 349.621C179.65 350.134 179.555 353.493 179.097 353.736Z" fill="#455A64"/>
<path d="M179.905 349.068C179.744 349.066 179.589 349.007 179.467 348.901C179.346 348.794 179.267 348.648 179.244 348.488C176.29 327.308 158.456 307.599 151.819 304.213C151.74 304.172 151.67 304.116 151.613 304.049C151.556 303.981 151.512 303.902 151.485 303.818C151.458 303.733 151.448 303.644 151.456 303.556C151.463 303.467 151.488 303.381 151.529 303.303C151.57 303.224 151.625 303.154 151.693 303.096C151.761 303.039 151.839 302.996 151.924 302.969C152.009 302.942 152.098 302.932 152.186 302.939C152.274 302.947 152.361 302.972 152.439 303.012C159.468 306.601 177.518 326.337 180.58 348.313C180.603 348.49 180.555 348.669 180.446 348.81C180.337 348.952 180.177 349.045 180 349.068H179.905Z" fill="white"/>
<path d="M153.547 326.136C153.368 326.172 153.182 326.135 153.03 326.034C152.878 325.933 152.773 325.775 152.737 325.596C152.701 325.418 152.738 325.232 152.839 325.08C152.941 324.928 153.098 324.823 153.277 324.787C158.627 322.714 164.388 321.919 170.099 322.467C170.187 322.473 170.273 322.498 170.352 322.538C170.43 322.579 170.5 322.635 170.557 322.703C170.613 322.771 170.656 322.849 170.681 322.934C170.707 323.018 170.715 323.107 170.706 323.195C170.698 323.284 170.672 323.37 170.63 323.449C170.588 323.527 170.531 323.597 170.462 323.653C170.393 323.71 170.313 323.752 170.228 323.778C170.143 323.803 170.053 323.812 169.964 323.802C164.462 323.328 158.924 324.121 153.776 326.123C153.7 326.136 153.623 326.141 153.547 326.136Z" fill="white"/>
<path d="M180.986 358.728C179.787 357.92 178.795 356.84 178.092 355.577C177.389 354.313 176.993 352.901 176.939 351.456V147.592C177.016 146.103 177.445 144.652 178.19 143.36C178.936 142.068 179.977 140.971 181.229 140.159L422.15 1.07519C423.426 0.40001 424.842 0.032511 426.284 0.00206042C427.727 -0.0283901 429.157 0.279045 430.46 0.899809C431.66 1.69744 432.653 2.76922 433.357 4.02655C434.061 5.28388 434.455 6.69064 434.507 8.13056V212.062C434.43 213.552 434.001 215.002 433.256 216.294C432.51 217.586 431.469 218.683 430.217 219.495L189.296 358.579C188.019 359.253 186.602 359.618 185.158 359.644C183.715 359.669 182.286 359.356 180.986 358.728Z" fill="#F1463B"/>
<path d="M201.113 156.537L178.18 143.316C177.405 144.597 176.972 146.056 176.925 147.552V351.457C176.884 352.915 177.238 354.358 177.95 355.631C178.661 356.905 179.704 357.963 180.967 358.693C182.231 359.423 183.668 359.798 185.127 359.778C186.586 359.758 188.012 359.344 189.255 358.579L201.073 351.753L201.113 156.537Z" fill="#F1463B"/>
<path opacity="0.2" d="M201.113 156.537L178.18 143.316C177.405 144.597 176.972 146.056 176.925 147.552V351.457C176.884 352.915 177.238 354.358 177.95 355.631C178.661 356.905 179.704 357.963 180.967 358.693C182.231 359.423 183.668 359.798 185.127 359.778C186.586 359.758 188.012 359.344 189.255 358.579L201.073 351.753L201.113 156.537Z" fill="black"/>
<path d="M189.296 144.815L430.191 5.66328C432.565 4.31426 434.481 5.40696 434.481 8.13198V212.063C434.404 213.553 433.975 215.004 433.229 216.296C432.484 217.588 431.442 218.685 430.191 219.497L189.296 358.581C186.936 359.93 185.02 358.837 185.02 356.098V152.248C185.096 150.759 185.523 149.31 186.266 148.018C187.009 146.726 188.048 145.628 189.296 144.815Z" fill="#F1463B"/>
<g opacity="0.5">
<path opacity="0.5" d="M189.296 144.812L430.191 5.66072C432.565 4.3117 434.481 5.4044 434.481 8.12942V212.061C434.404 213.551 433.975 215.001 433.229 216.293C432.484 217.585 431.442 218.682 430.191 219.494L189.296 358.578C186.936 359.927 185.02 358.834 185.02 356.096V152.245C185.096 150.757 185.523 149.307 186.266 148.015C187.009 146.723 188.048 145.626 189.296 144.812Z" fill="white"/>
</g>
<path opacity="0.4" d="M209.152 309.933C209.397 295.229 210.428 280.549 212.241 265.955C214.116 250.104 217.961 223.353 233.259 214.53C248.557 205.708 254.29 221.653 256.489 229.518C259.362 239.703 274.309 233.255 276.4 216.446C278.491 199.637 279.827 146.148 297.742 135.801C315.657 125.454 321.458 150.357 323.495 157.305C327.542 170.957 339.278 167.193 343.123 158.141C346.968 149.089 357.422 146.89 361.375 159.612C365.328 172.333 367.783 186.943 380.599 179.442C391.836 172.859 386.669 160.866 397.637 155.16C400.834 153.514 407.201 154.431 408.631 163.82C409.938 173.748 410.511 183.757 410.345 193.769L209.152 309.933Z" fill="white"/>
<path d="M209.154 310.932C208.892 310.928 208.641 310.821 208.457 310.635C208.272 310.448 208.169 310.196 208.169 309.933C208.416 295.18 209.447 280.451 211.258 265.807C212.769 253.032 216.317 223.124 232.762 213.627C237.632 210.821 242.03 210.187 245.847 211.738C250.933 213.802 254.724 219.522 257.449 229.275C258.258 232.135 260.147 233.619 262.751 233.417C267.985 233.012 274.15 226.523 275.418 216.352C275.755 213.654 276.079 209.957 276.443 205.681C278.44 182.572 281.839 143.896 297.259 134.965C301.994 132.267 306.337 131.647 310.196 133.212C318.681 136.652 322.337 149.535 324.077 155.727C324.212 156.226 324.333 156.671 324.455 157.076C325.952 162.189 328.718 165.17 332.239 165.318C336.11 165.575 340.265 162.391 342.208 157.804C344.366 152.718 348.575 149.575 352.784 149.791C356.993 150.007 360.501 153.487 362.322 159.383C362.753 160.732 363.172 162.175 363.576 163.578C365.829 171.227 367.934 178.417 372.278 180.171C374.369 180.994 376.932 180.495 380.102 178.647C385.39 175.544 386.847 171.267 388.277 166.735C389.707 162.202 391.339 157.386 397.18 154.351C398.251 153.825 399.431 153.558 400.623 153.573C401.816 153.587 402.989 153.881 404.047 154.432C406.098 155.47 408.728 157.939 409.605 163.74C410.918 173.725 411.495 183.794 411.332 193.864C411.334 193.995 411.309 194.125 411.258 194.245C411.207 194.366 411.132 194.475 411.037 194.565C410.942 194.655 410.829 194.725 410.705 194.769C410.582 194.813 410.451 194.831 410.32 194.821C410.058 194.814 409.809 194.704 409.627 194.515C409.445 194.325 409.345 194.072 409.349 193.81C409.521 183.857 408.953 173.905 407.649 164.037C406.893 159.059 404.789 157.022 403.157 156.199C402.378 155.791 401.515 155.572 400.637 155.558C399.758 155.544 398.889 155.735 398.098 156.118C392.972 158.816 391.609 162.944 390.166 167.355C388.628 172.036 387.036 176.879 381.1 180.36C377.363 182.532 374.247 183.058 371.549 182.006C366.315 179.928 364.062 172.252 361.674 164.131C361.27 162.782 360.865 161.339 360.433 159.963C358.868 154.917 356.035 151.936 352.69 151.761C349.344 151.585 345.837 154.337 344.029 158.587C341.736 163.983 336.852 167.571 332.117 167.301C329.554 167.153 324.913 165.696 322.553 157.642C322.431 157.251 322.31 156.793 322.161 156.293C320.502 150.412 317.035 138.149 309.44 135.073C306.189 133.724 302.425 134.304 298.243 136.706C283.674 145.123 280.261 184.65 278.426 205.883C278.048 210.173 277.725 213.883 277.387 216.676C276.038 227.859 268.929 235.009 262.899 235.467C259.351 235.737 256.599 233.646 255.547 229.882C252.997 220.831 249.584 215.542 245.092 213.694C241.881 212.345 238.063 212.979 233.747 215.461C218.165 224.459 214.698 253.679 213.228 266.158C211.427 280.712 210.4 295.351 210.152 310.014C210.132 310.265 210.018 310.498 209.833 310.668C209.648 310.838 209.405 310.932 209.154 310.932Z" fill="#F5F5F5"/>
<path d="M237.67 214.342C237.502 214.342 237.341 214.276 237.222 214.157C237.103 214.038 237.036 213.877 237.036 213.708V212.467C237.023 212.377 237.029 212.285 237.055 212.198C237.08 212.11 237.124 212.029 237.183 211.961C237.243 211.892 237.317 211.836 237.399 211.798C237.482 211.761 237.572 211.741 237.663 211.741C237.754 211.741 237.844 211.761 237.927 211.798C238.01 211.836 238.084 211.892 238.143 211.961C238.203 212.029 238.247 212.11 238.272 212.198C238.298 212.285 238.304 212.377 238.291 212.467V213.708C238.291 213.874 238.226 214.033 238.11 214.152C237.994 214.27 237.836 214.339 237.67 214.342Z" fill="#F5F5F5"/>
<path d="M237.67 289.198C237.587 289.198 237.504 289.182 237.427 289.15C237.351 289.118 237.281 289.072 237.222 289.013C237.163 288.954 237.116 288.884 237.084 288.807C237.052 288.73 237.036 288.648 237.036 288.564V286.042C237.058 285.891 237.134 285.754 237.249 285.654C237.364 285.555 237.511 285.5 237.663 285.5C237.816 285.5 237.963 285.555 238.078 285.654C238.193 285.754 238.268 285.891 238.291 286.042V288.537C238.294 288.622 238.281 288.706 238.252 288.785C238.222 288.864 238.177 288.937 238.119 288.998C238.062 289.06 237.992 289.109 237.915 289.144C237.838 289.178 237.755 289.197 237.67 289.198ZM237.67 284.207C237.502 284.207 237.341 284.14 237.222 284.021C237.103 283.902 237.036 283.741 237.036 283.573V281.077C237.058 280.927 237.134 280.789 237.249 280.69C237.364 280.59 237.511 280.536 237.663 280.536C237.816 280.536 237.963 280.59 238.078 280.69C238.193 280.789 238.268 280.927 238.291 281.077V283.573C238.291 283.739 238.226 283.898 238.11 284.017C237.994 284.135 237.836 284.204 237.67 284.207ZM237.67 279.216C237.587 279.216 237.504 279.199 237.427 279.167C237.351 279.136 237.281 279.089 237.222 279.03C237.163 278.971 237.116 278.901 237.084 278.824C237.052 278.747 237.036 278.665 237.036 278.582V276.099C237.023 276.009 237.029 275.917 237.055 275.83C237.08 275.743 237.124 275.662 237.183 275.593C237.243 275.524 237.317 275.469 237.399 275.431C237.482 275.393 237.572 275.373 237.663 275.373C237.754 275.373 237.844 275.393 237.927 275.431C238.01 275.469 238.084 275.524 238.143 275.593C238.203 275.662 238.247 275.743 238.272 275.83C238.298 275.917 238.304 276.009 238.291 276.099V278.582C238.291 278.748 238.226 278.907 238.11 279.025C237.994 279.144 237.836 279.212 237.67 279.216ZM237.67 274.224C237.504 274.224 237.345 274.159 237.226 274.043C237.108 273.927 237.04 273.77 237.036 273.604V271.108C237.023 271.018 237.029 270.926 237.055 270.839C237.08 270.751 237.124 270.67 237.183 270.601C237.243 270.533 237.317 270.477 237.399 270.439C237.482 270.401 237.572 270.382 237.663 270.382C237.754 270.382 237.844 270.401 237.927 270.439C238.01 270.477 238.084 270.533 238.143 270.601C238.203 270.67 238.247 270.751 238.272 270.839C238.298 270.926 238.304 271.018 238.291 271.108V273.604C238.287 273.767 238.221 273.923 238.105 274.039C237.989 274.154 237.834 274.221 237.67 274.224ZM237.67 269.233C237.504 269.233 237.345 269.168 237.226 269.052C237.108 268.936 237.04 268.778 237.036 268.612V266.117C237.023 266.027 237.029 265.935 237.055 265.847C237.08 265.76 237.124 265.679 237.183 265.61C237.243 265.541 237.317 265.486 237.399 265.448C237.482 265.41 237.572 265.39 237.663 265.39C237.754 265.39 237.844 265.41 237.927 265.448C238.01 265.486 238.084 265.541 238.143 265.61C238.203 265.679 238.247 265.76 238.272 265.847C238.298 265.935 238.304 266.027 238.291 266.117V268.612C238.287 268.776 238.221 268.932 238.105 269.047C237.989 269.163 237.834 269.23 237.67 269.233ZM237.67 264.242C237.504 264.242 237.345 264.177 237.226 264.061C237.108 263.945 237.04 263.787 237.036 263.621V261.125C237.023 261.035 237.029 260.943 237.055 260.856C237.08 260.768 237.124 260.688 237.183 260.619C237.243 260.55 237.317 260.494 237.399 260.457C237.482 260.419 237.572 260.399 237.663 260.399C237.754 260.399 237.844 260.419 237.927 260.457C238.01 260.494 238.084 260.55 238.143 260.619C238.203 260.688 238.247 260.768 238.272 260.856C238.298 260.943 238.304 261.035 238.291 261.125V263.621C238.287 263.785 238.221 263.94 238.105 264.056C237.989 264.172 237.834 264.238 237.67 264.242ZM237.67 259.25C237.504 259.25 237.345 259.185 237.226 259.069C237.108 258.953 237.04 258.795 237.036 258.63V256.134C237.023 256.044 237.029 255.952 237.055 255.865C237.08 255.777 237.124 255.696 237.183 255.627C237.243 255.558 237.317 255.503 237.399 255.465C237.482 255.427 237.572 255.408 237.663 255.408C237.754 255.408 237.844 255.427 237.927 255.465C238.01 255.503 238.084 255.558 238.143 255.627C238.203 255.696 238.247 255.777 238.272 255.865C238.298 255.952 238.304 256.044 238.291 256.134V258.63C238.287 258.793 238.221 258.949 238.105 259.065C237.989 259.18 237.834 259.247 237.67 259.25ZM237.67 254.259C237.587 254.261 237.505 254.246 237.428 254.216C237.352 254.185 237.282 254.14 237.223 254.082C237.163 254.024 237.117 253.955 237.085 253.879C237.053 253.803 237.036 253.721 237.036 253.638V251.143C237.023 251.052 237.029 250.961 237.055 250.873C237.08 250.786 237.124 250.705 237.183 250.636C237.243 250.567 237.317 250.512 237.399 250.474C237.482 250.436 237.572 250.416 237.663 250.416C237.754 250.416 237.844 250.436 237.927 250.474C238.01 250.512 238.084 250.567 238.143 250.636C238.203 250.705 238.247 250.786 238.272 250.873C238.298 250.961 238.304 251.052 238.291 251.143V253.665C238.284 253.825 238.215 253.976 238.1 254.087C237.984 254.197 237.83 254.259 237.67 254.259ZM237.67 249.267C237.587 249.269 237.505 249.255 237.428 249.224C237.352 249.194 237.282 249.148 237.223 249.091C237.163 249.033 237.117 248.964 237.085 248.888C237.053 248.811 237.036 248.73 237.036 248.647V246.151C237.023 246.061 237.029 245.969 237.055 245.882C237.08 245.794 237.124 245.713 237.183 245.645C237.243 245.576 237.317 245.52 237.399 245.482C237.482 245.445 237.572 245.425 237.663 245.425C237.754 245.425 237.844 245.445 237.927 245.482C238.01 245.52 238.084 245.576 238.143 245.645C238.203 245.713 238.247 245.794 238.272 245.882C238.298 245.969 238.304 246.061 238.291 246.151V248.647C238.291 248.728 238.275 248.809 238.243 248.884C238.212 248.96 238.167 249.028 238.109 249.086C238.051 249.143 237.983 249.189 237.908 249.22C237.832 249.251 237.752 249.267 237.67 249.267ZM237.67 244.276C237.587 244.278 237.505 244.263 237.428 244.233C237.352 244.202 237.282 244.157 237.223 244.099C237.163 244.041 237.117 243.972 237.085 243.896C237.053 243.82 237.036 243.738 237.036 243.656V241.16C237.058 241.009 237.134 240.872 237.249 240.772C237.364 240.673 237.511 240.618 237.663 240.618C237.816 240.618 237.963 240.673 238.078 240.772C238.193 240.872 238.268 241.009 238.291 241.16V243.656C238.277 243.811 238.206 243.955 238.091 244.06C237.976 244.165 237.826 244.223 237.67 244.222V244.276ZM237.67 239.298C237.502 239.298 237.341 239.231 237.222 239.112C237.103 238.994 237.036 238.832 237.036 238.664V236.128C237.058 235.977 237.134 235.84 237.249 235.74C237.364 235.641 237.511 235.586 237.663 235.586C237.816 235.586 237.963 235.641 238.078 235.74C238.193 235.84 238.268 235.977 238.291 236.128V238.624C238.296 238.709 238.284 238.795 238.256 238.876C238.227 238.956 238.183 239.03 238.125 239.094C238.067 239.157 237.996 239.207 237.918 239.242C237.84 239.278 237.756 239.297 237.67 239.298ZM237.67 234.307C237.502 234.307 237.341 234.24 237.222 234.121C237.103 234.002 237.036 233.841 237.036 233.673V231.177C237.058 231.027 237.134 230.889 237.249 230.789C237.364 230.69 237.511 230.635 237.663 230.635C237.816 230.635 237.963 230.69 238.078 230.789C238.193 230.889 238.268 231.027 238.291 231.177V233.673C238.291 233.839 238.226 233.998 238.11 234.116C237.994 234.235 237.836 234.303 237.67 234.307ZM237.67 229.315C237.502 229.315 237.341 229.249 237.222 229.13C237.103 229.011 237.036 228.85 237.036 228.681V226.186C237.058 226.035 237.134 225.898 237.249 225.798C237.364 225.699 237.511 225.644 237.663 225.644C237.816 225.644 237.963 225.699 238.078 225.798C238.193 225.898 238.268 226.035 238.291 226.186V228.681C238.3 228.769 238.291 228.858 238.264 228.942C238.237 229.026 238.193 229.103 238.135 229.169C238.077 229.235 238.005 229.288 237.925 229.325C237.845 229.362 237.758 229.382 237.67 229.383V229.315ZM237.67 224.324C237.502 224.324 237.341 224.257 237.222 224.138C237.103 224.019 237.036 223.858 237.036 223.69V221.194C237.058 221.044 237.134 220.906 237.249 220.807C237.364 220.707 237.511 220.653 237.663 220.653C237.816 220.653 237.963 220.707 238.078 220.807C238.193 220.906 238.268 221.044 238.291 221.194V223.69C238.291 223.856 238.226 224.015 238.11 224.134C237.994 224.252 237.836 224.321 237.67 224.324ZM237.67 219.333C237.502 219.333 237.341 219.266 237.222 219.147C237.103 219.028 237.036 218.867 237.036 218.699V216.203C237.058 216.052 237.134 215.915 237.249 215.815C237.364 215.716 237.511 215.661 237.663 215.661C237.816 215.661 237.963 215.716 238.078 215.815C238.193 215.915 238.268 216.052 238.291 216.203V218.699C238.291 218.864 238.226 219.024 238.11 219.142C237.994 219.261 237.836 219.329 237.67 219.333Z" fill="#F5F5F5"/>
<path d="M237.672 292.95C237.589 292.95 237.506 292.934 237.429 292.902C237.352 292.87 237.282 292.823 237.224 292.765C237.165 292.706 237.118 292.636 237.086 292.559C237.054 292.482 237.038 292.399 237.038 292.316V291.062C237.06 290.911 237.136 290.773 237.251 290.674C237.366 290.575 237.513 290.52 237.665 290.52C237.817 290.52 237.964 290.575 238.08 290.674C238.195 290.773 238.27 290.911 238.292 291.062V292.316C238.292 292.482 238.228 292.641 238.112 292.76C237.996 292.878 237.838 292.947 237.672 292.95Z" fill="#F5F5F5"/>
<path d="M302.396 135.992C302.233 135.989 302.077 135.922 301.961 135.807C301.845 135.691 301.779 135.535 301.776 135.372V134.117C301.762 134.027 301.769 133.935 301.794 133.848C301.82 133.76 301.863 133.679 301.923 133.61C301.983 133.542 302.056 133.486 302.139 133.448C302.222 133.41 302.312 133.391 302.403 133.391C302.494 133.391 302.584 133.41 302.667 133.448C302.749 133.486 302.823 133.542 302.883 133.61C302.942 133.679 302.986 133.76 303.012 133.848C303.037 133.935 303.043 134.027 303.03 134.117V135.372C303.027 135.538 302.958 135.695 302.84 135.811C302.721 135.927 302.562 135.992 302.396 135.992Z" fill="#F5F5F5"/>
<path d="M302.396 253.004C302.23 253 302.072 252.932 301.956 252.814C301.84 252.695 301.776 252.536 301.776 252.37V249.834C301.762 249.744 301.769 249.652 301.794 249.564C301.82 249.477 301.863 249.396 301.923 249.327C301.983 249.258 302.056 249.203 302.139 249.165C302.222 249.127 302.312 249.108 302.403 249.108C302.494 249.108 302.584 249.127 302.667 249.165C302.749 249.203 302.823 249.258 302.883 249.327C302.942 249.396 302.986 249.477 303.012 249.564C303.037 249.652 303.043 249.744 303.03 249.834V252.316C303.038 252.404 303.027 252.492 302.998 252.575C302.97 252.659 302.924 252.735 302.865 252.8C302.805 252.864 302.733 252.916 302.652 252.951C302.571 252.986 302.484 253.004 302.396 253.004ZM302.396 247.918C302.23 247.915 302.072 247.846 301.956 247.728C301.84 247.609 301.776 247.45 301.776 247.284V244.735C301.798 244.584 301.873 244.446 301.988 244.347C302.104 244.247 302.251 244.193 302.403 244.193C302.555 244.193 302.702 244.247 302.817 244.347C302.932 244.446 303.008 244.584 303.03 244.735V247.284C303.03 247.367 303.014 247.45 302.982 247.527C302.95 247.604 302.903 247.674 302.844 247.733C302.786 247.791 302.716 247.838 302.639 247.87C302.562 247.902 302.479 247.918 302.396 247.918ZM302.396 242.819C302.232 242.819 302.074 242.754 301.957 242.637C301.841 242.521 301.776 242.363 301.776 242.198V239.649C301.798 239.498 301.873 239.361 301.988 239.261C302.104 239.162 302.251 239.107 302.403 239.107C302.555 239.107 302.702 239.162 302.817 239.261C302.932 239.361 303.008 239.498 303.03 239.649V242.198C303.038 242.285 303.027 242.373 302.998 242.456C302.97 242.538 302.924 242.614 302.864 242.678C302.804 242.741 302.732 242.792 302.651 242.825C302.57 242.859 302.483 242.875 302.396 242.873V242.819ZM302.396 237.733C302.233 237.73 302.077 237.663 301.961 237.548C301.845 237.432 301.779 237.276 301.776 237.113V234.563C301.798 234.412 301.873 234.275 301.988 234.175C302.104 234.076 302.251 234.021 302.403 234.021C302.555 234.021 302.702 234.076 302.817 234.175C302.932 234.275 303.008 234.412 303.03 234.563V237.113C303.027 237.278 302.958 237.436 302.84 237.552C302.721 237.668 302.562 237.733 302.396 237.733ZM302.396 232.647C302.233 232.644 302.077 232.577 301.961 232.462C301.845 232.346 301.779 232.19 301.776 232.027V229.477C301.798 229.327 301.873 229.189 301.988 229.09C302.104 228.99 302.251 228.935 302.403 228.935C302.555 228.935 302.702 228.99 302.817 229.09C302.932 229.189 303.008 229.327 303.03 229.477V232.081C303.013 232.237 302.939 232.381 302.822 232.486C302.705 232.591 302.553 232.648 302.396 232.647ZM302.396 227.561C302.233 227.558 302.077 227.492 301.961 227.376C301.845 227.26 301.779 227.104 301.776 226.941V224.391C301.798 224.241 301.873 224.103 301.988 224.004C302.104 223.904 302.251 223.849 302.403 223.849C302.555 223.849 302.702 223.904 302.817 224.004C302.932 224.103 303.008 224.241 303.03 224.391V226.941C303.027 227.107 302.958 227.265 302.84 227.381C302.721 227.497 302.562 227.562 302.396 227.561ZM302.396 222.476C302.23 222.472 302.072 222.404 301.956 222.285C301.84 222.167 301.776 222.007 301.776 221.842V219.305C301.762 219.215 301.769 219.123 301.794 219.036C301.82 218.949 301.863 218.868 301.923 218.799C301.983 218.73 302.056 218.675 302.139 218.637C302.222 218.599 302.312 218.579 302.403 218.579C302.494 218.579 302.584 218.599 302.667 218.637C302.749 218.675 302.823 218.73 302.883 218.799C302.942 218.868 302.986 218.949 303.012 219.036C303.037 219.123 303.043 219.215 303.03 219.305V221.842C303.03 221.925 303.014 222.007 302.982 222.084C302.95 222.161 302.903 222.231 302.844 222.29C302.786 222.349 302.716 222.396 302.639 222.427C302.562 222.459 302.479 222.476 302.396 222.476ZM302.396 217.39C302.23 217.386 302.072 217.318 301.956 217.199C301.84 217.081 301.776 216.922 301.776 216.756V214.22C301.762 214.13 301.769 214.038 301.794 213.95C301.82 213.863 301.863 213.782 301.923 213.713C301.983 213.644 302.056 213.589 302.139 213.551C302.222 213.513 302.312 213.493 302.403 213.493C302.494 213.493 302.584 213.513 302.667 213.551C302.749 213.589 302.823 213.644 302.883 213.713C302.942 213.782 302.986 213.863 303.012 213.95C303.037 214.038 303.043 214.13 303.03 214.22V216.756C303.03 216.839 303.014 216.922 302.982 216.998C302.95 217.075 302.903 217.145 302.844 217.204C302.786 217.263 302.716 217.31 302.639 217.342C302.562 217.373 302.479 217.39 302.396 217.39ZM302.396 212.304C302.23 212.301 302.072 212.232 301.956 212.114C301.84 211.995 301.776 211.836 301.776 211.67V209.147C301.762 209.057 301.769 208.965 301.794 208.878C301.82 208.791 301.863 208.71 301.923 208.641C301.983 208.572 302.056 208.516 302.139 208.479C302.222 208.441 302.312 208.421 302.403 208.421C302.494 208.421 302.584 208.441 302.667 208.479C302.749 208.516 302.823 208.572 302.883 208.641C302.942 208.71 302.986 208.791 303.012 208.878C303.037 208.965 303.043 209.057 303.03 209.147V211.684C303.027 211.849 302.958 212.007 302.84 212.123C302.721 212.239 302.562 212.304 302.396 212.304ZM302.396 207.218C302.23 207.215 302.072 207.146 301.956 207.028C301.84 206.909 301.776 206.75 301.776 206.584V204.048C301.762 203.958 301.769 203.866 301.794 203.779C301.82 203.691 301.863 203.61 301.923 203.541C301.983 203.472 302.056 203.417 302.139 203.379C302.222 203.341 302.312 203.322 302.403 203.322C302.494 203.322 302.584 203.341 302.667 203.379C302.749 203.417 302.823 203.472 302.883 203.541C302.942 203.61 302.986 203.691 303.012 203.779C303.037 203.866 303.043 203.958 303.03 204.048V206.584C303.03 206.667 303.014 206.75 302.982 206.827C302.95 206.904 302.903 206.974 302.844 207.033C302.786 207.091 302.716 207.138 302.639 207.17C302.562 207.202 302.479 207.218 302.396 207.218ZM302.396 202.132C302.23 202.129 302.072 202.061 301.956 201.942C301.84 201.824 301.776 201.664 301.776 201.498V198.962C301.762 198.872 301.769 198.78 301.794 198.693C301.82 198.605 301.863 198.524 301.923 198.456C301.983 198.387 302.056 198.331 302.139 198.293C302.222 198.256 302.312 198.236 302.403 198.236C302.494 198.236 302.584 198.256 302.667 198.293C302.749 198.331 302.823 198.387 302.883 198.456C302.942 198.524 302.986 198.605 303.012 198.693C303.037 198.78 303.043 198.872 303.03 198.962V201.498C303.03 201.582 303.014 201.664 302.982 201.741C302.95 201.818 302.903 201.888 302.844 201.947C302.786 202.006 302.716 202.052 302.639 202.084C302.562 202.116 302.479 202.132 302.396 202.132ZM302.396 197.033C302.232 197.033 302.074 196.968 301.957 196.851C301.841 196.735 301.776 196.577 301.776 196.413V193.863C301.798 193.712 301.873 193.575 301.988 193.475C302.104 193.376 302.251 193.321 302.403 193.321C302.555 193.321 302.702 193.376 302.817 193.475C302.932 193.575 303.008 193.712 303.03 193.863V196.413C303.023 196.575 302.953 196.728 302.834 196.839C302.716 196.95 302.558 197.01 302.396 197.006V197.033ZM302.396 191.947C302.232 191.947 302.074 191.882 301.957 191.766C301.841 191.649 301.776 191.491 301.776 191.327V188.777C301.798 188.627 301.873 188.489 301.988 188.39C302.104 188.29 302.251 188.235 302.403 188.235C302.555 188.235 302.702 188.29 302.817 188.39C302.932 188.489 303.008 188.627 303.03 188.777V191.327C303.03 191.409 303.014 191.491 302.982 191.567C302.95 191.644 302.903 191.713 302.844 191.77C302.785 191.828 302.715 191.874 302.638 191.904C302.561 191.934 302.479 191.949 302.396 191.947ZM302.396 186.862C302.233 186.858 302.077 186.792 301.961 186.676C301.845 186.56 301.779 186.404 301.776 186.241V183.691C301.798 183.541 301.873 183.403 301.988 183.304C302.104 183.204 302.251 183.15 302.403 183.15C302.555 183.15 302.702 183.204 302.817 183.304C302.932 183.403 303.008 183.541 303.03 183.691V186.214C303.032 186.298 303.017 186.382 302.986 186.461C302.955 186.539 302.908 186.611 302.849 186.671C302.79 186.731 302.72 186.779 302.642 186.812C302.564 186.845 302.481 186.862 302.396 186.862ZM302.396 181.776C302.233 181.772 302.077 181.706 301.961 181.59C301.845 181.475 301.779 181.319 301.776 181.155V178.606C301.798 178.455 301.873 178.317 301.988 178.218C302.104 178.118 302.251 178.064 302.403 178.064C302.555 178.064 302.702 178.118 302.817 178.218C302.932 178.317 303.008 178.455 303.03 178.606V181.155C303.027 181.321 302.958 181.479 302.84 181.595C302.721 181.711 302.562 181.776 302.396 181.776ZM302.396 176.69C302.233 176.686 302.077 176.62 301.961 176.504C301.845 176.389 301.779 176.233 301.776 176.069V173.52C301.798 173.369 301.873 173.232 301.988 173.132C302.104 173.033 302.251 172.978 302.403 172.978C302.555 172.978 302.702 173.033 302.817 173.132C302.932 173.232 303.008 173.369 303.03 173.52V176.069C303.027 176.235 302.958 176.393 302.84 176.509C302.721 176.625 302.562 176.69 302.396 176.69ZM302.396 171.604C302.23 171.601 302.072 171.532 301.956 171.414C301.84 171.295 301.776 171.136 301.776 170.97V168.434C301.762 168.344 301.769 168.252 301.794 168.165C301.82 168.077 301.863 167.996 301.923 167.927C301.983 167.858 302.056 167.803 302.139 167.765C302.222 167.727 302.312 167.708 302.403 167.708C302.494 167.708 302.584 167.727 302.667 167.765C302.749 167.803 302.823 167.858 302.883 167.927C302.942 167.996 302.986 168.077 303.012 168.165C303.037 168.252 303.043 168.344 303.03 168.434V170.97C303.03 171.053 303.014 171.136 302.982 171.213C302.95 171.29 302.903 171.36 302.844 171.418C302.786 171.477 302.716 171.524 302.639 171.556C302.562 171.588 302.479 171.604 302.396 171.604ZM302.396 166.518C302.23 166.515 302.072 166.446 301.956 166.328C301.84 166.209 301.776 166.05 301.776 165.884V163.348C301.762 163.258 301.769 163.166 301.794 163.079C301.82 162.991 301.863 162.91 301.923 162.841C301.983 162.773 302.056 162.717 302.139 162.679C302.222 162.641 302.312 162.622 302.403 162.622C302.494 162.622 302.584 162.641 302.667 162.679C302.749 162.717 302.823 162.773 302.883 162.841C302.942 162.91 302.986 162.991 303.012 163.079C303.037 163.166 303.043 163.258 303.03 163.348V165.884C303.03 165.968 303.014 166.05 302.982 166.127C302.95 166.204 302.903 166.274 302.844 166.333C302.786 166.391 302.716 166.438 302.639 166.47C302.562 166.502 302.479 166.518 302.396 166.518ZM302.396 161.432C302.23 161.429 302.072 161.361 301.956 161.242C301.84 161.124 301.776 160.964 301.776 160.798V158.262C301.762 158.172 301.769 158.08 301.794 157.993C301.82 157.905 301.863 157.825 301.923 157.756C301.983 157.687 302.056 157.631 302.139 157.594C302.222 157.556 302.312 157.536 302.403 157.536C302.494 157.536 302.584 157.556 302.667 157.594C302.749 157.631 302.823 157.687 302.883 157.756C302.942 157.825 302.986 157.905 303.012 157.993C303.037 158.08 303.043 158.172 303.03 158.262V160.798C303.03 160.882 303.014 160.964 302.982 161.041C302.95 161.118 302.903 161.188 302.844 161.247C302.786 161.306 302.716 161.352 302.639 161.384C302.562 161.416 302.479 161.432 302.396 161.432ZM302.396 156.347C302.23 156.343 302.072 156.275 301.956 156.156C301.84 156.038 301.776 155.878 301.776 155.713V153.176C301.762 153.086 301.769 152.994 301.794 152.907C301.82 152.82 301.863 152.739 301.923 152.67C301.983 152.601 302.056 152.546 302.139 152.508C302.222 152.47 302.312 152.45 302.403 152.45C302.494 152.45 302.584 152.47 302.667 152.508C302.749 152.546 302.823 152.601 302.883 152.67C302.942 152.739 302.986 152.82 303.012 152.907C303.037 152.994 303.043 153.086 303.03 153.176V155.713C303.03 155.796 303.014 155.878 302.982 155.955C302.95 156.032 302.903 156.102 302.844 156.161C302.786 156.22 302.716 156.267 302.639 156.298C302.562 156.33 302.479 156.347 302.396 156.347ZM302.396 151.261C302.23 151.257 302.072 151.189 301.956 151.07C301.84 150.952 301.776 150.793 301.776 150.627V148.077C301.798 147.927 301.873 147.789 301.988 147.69C302.104 147.59 302.251 147.535 302.403 147.535C302.555 147.535 302.702 147.59 302.817 147.69C302.932 147.789 303.008 147.927 303.03 148.077V150.627C303.03 150.71 303.014 150.793 302.982 150.869C302.95 150.946 302.903 151.016 302.844 151.075C302.786 151.134 302.716 151.181 302.639 151.213C302.562 151.244 302.479 151.261 302.396 151.261ZM302.396 146.162C302.232 146.162 302.074 146.096 301.957 145.98C301.841 145.863 301.776 145.706 301.776 145.541V143.045C301.798 142.895 301.873 142.757 301.988 142.658C302.104 142.558 302.251 142.504 302.403 142.504C302.555 142.504 302.702 142.558 302.817 142.658C302.932 142.757 303.008 142.895 303.03 143.045V145.595C303.016 145.752 302.943 145.899 302.825 146.004C302.708 146.109 302.554 146.166 302.396 146.162ZM302.396 141.076C302.232 141.076 302.074 141.01 301.957 140.894C301.841 140.778 301.776 140.62 301.776 140.455V137.906C301.798 137.755 301.873 137.617 301.988 137.518C302.104 137.418 302.251 137.364 302.403 137.364C302.555 137.364 302.702 137.418 302.817 137.518C302.932 137.617 303.008 137.755 303.03 137.906V140.455C303.03 140.538 303.014 140.62 302.982 140.696C302.95 140.772 302.903 140.841 302.844 140.899C302.785 140.957 302.715 141.002 302.638 141.032C302.561 141.063 302.479 141.078 302.396 141.076Z" fill="#F5F5F5"/>
<path d="M302.396 256.797C302.233 256.793 302.077 256.727 301.961 256.611C301.845 256.496 301.779 256.34 301.776 256.176V254.922C301.762 254.831 301.769 254.74 301.794 254.652C301.82 254.565 301.863 254.484 301.923 254.415C301.983 254.346 302.056 254.291 302.139 254.253C302.222 254.215 302.312 254.195 302.403 254.195C302.494 254.195 302.584 254.215 302.667 254.253C302.749 254.291 302.823 254.346 302.883 254.415C302.942 254.484 302.986 254.565 303.012 254.652C303.037 254.74 303.043 254.831 303.03 254.922V256.176C303.027 256.342 302.958 256.5 302.84 256.616C302.721 256.732 302.562 256.797 302.396 256.797Z" fill="#F5F5F5"/>
<path d="M351.865 153.056C351.699 153.052 351.541 152.984 351.425 152.865C351.309 152.747 351.244 152.587 351.244 152.422V151.14C351.267 150.989 351.342 150.852 351.457 150.752C351.572 150.653 351.719 150.598 351.872 150.598C352.024 150.598 352.171 150.653 352.286 150.752C352.401 150.852 352.477 150.989 352.499 151.14V152.489C352.482 152.645 352.408 152.79 352.291 152.894C352.174 152.999 352.022 153.056 351.865 153.056Z" fill="#F5F5F5"/>
<path d="M351.866 224.635C351.703 224.631 351.547 224.565 351.431 224.449C351.315 224.333 351.249 224.177 351.246 224.014V221.451C351.268 221.3 351.343 221.163 351.458 221.063C351.574 220.964 351.721 220.909 351.873 220.909C352.025 220.909 352.172 220.964 352.287 221.063C352.402 221.163 352.478 221.3 352.5 221.451V223.987C352.502 224.071 352.487 224.155 352.456 224.234C352.425 224.312 352.378 224.384 352.319 224.444C352.26 224.504 352.19 224.552 352.112 224.585C352.034 224.618 351.95 224.635 351.866 224.635ZM351.866 219.522C351.703 219.518 351.547 219.452 351.431 219.336C351.315 219.221 351.249 219.065 351.246 218.901V216.338C351.268 216.187 351.343 216.05 351.458 215.95C351.574 215.851 351.721 215.796 351.873 215.796C352.025 215.796 352.172 215.851 352.287 215.95C352.402 216.05 352.478 216.187 352.5 216.338V218.901C352.497 219.067 352.428 219.225 352.31 219.341C352.191 219.457 352.032 219.522 351.866 219.522ZM351.866 214.409C351.703 214.405 351.547 214.339 351.431 214.223C351.315 214.108 351.249 213.952 351.246 213.788V211.225C351.268 211.075 351.343 210.937 351.458 210.838C351.574 210.738 351.721 210.683 351.873 210.683C352.025 210.683 352.172 210.738 352.287 210.838C352.402 210.937 352.478 211.075 352.5 211.225V213.788C352.497 213.954 352.428 214.112 352.31 214.228C352.191 214.344 352.032 214.409 351.866 214.409ZM351.866 209.296C351.703 209.293 351.547 209.226 351.431 209.111C351.315 208.995 351.249 208.839 351.246 208.676V206.112C351.268 205.962 351.343 205.824 351.458 205.725C351.574 205.625 351.721 205.571 351.873 205.571C352.025 205.571 352.172 205.625 352.287 205.725C352.402 205.824 352.478 205.962 352.5 206.112V208.676C352.497 208.841 352.428 208.999 352.31 209.115C352.191 209.231 352.032 209.296 351.866 209.296ZM351.866 204.183C351.703 204.18 351.547 204.113 351.431 203.998C351.315 203.882 351.249 203.726 351.246 203.563V201.054C351.268 200.903 351.343 200.765 351.458 200.666C351.574 200.567 351.721 200.512 351.873 200.512C352.025 200.512 352.172 200.567 352.287 200.666C352.402 200.765 352.478 200.903 352.5 201.054V203.617C352.483 203.773 352.409 203.917 352.292 204.022C352.175 204.127 352.023 204.184 351.866 204.183ZM351.866 199.071C351.703 199.067 351.547 199.001 351.431 198.885C351.315 198.769 351.249 198.614 351.246 198.45V195.887C351.268 195.736 351.343 195.599 351.458 195.499C351.574 195.4 351.721 195.345 351.873 195.345C352.025 195.345 352.172 195.4 352.287 195.499C352.402 195.599 352.478 195.736 352.5 195.887V198.45C352.497 198.616 352.428 198.774 352.31 198.89C352.191 199.006 352.032 199.071 351.866 199.071ZM351.866 193.958C351.703 193.954 351.547 193.888 351.431 193.772C351.315 193.657 351.249 193.501 351.246 193.337V190.774C351.268 190.624 351.343 190.486 351.458 190.386C351.574 190.287 351.721 190.232 351.873 190.232C352.025 190.232 352.172 190.287 352.287 190.386C352.402 190.486 352.478 190.624 352.5 190.774V193.337C352.497 193.503 352.428 193.661 352.31 193.777C352.191 193.893 352.032 193.958 351.866 193.958ZM351.866 188.845C351.703 188.842 351.547 188.775 351.431 188.659C351.315 188.544 351.249 188.388 351.246 188.224V185.661C351.268 185.511 351.343 185.373 351.458 185.274C351.574 185.174 351.721 185.119 351.873 185.119C352.025 185.119 352.172 185.174 352.287 185.274C352.402 185.373 352.478 185.511 352.5 185.661V188.224C352.508 188.312 352.497 188.4 352.468 188.484C352.44 188.567 352.394 188.643 352.335 188.708C352.275 188.773 352.203 188.824 352.122 188.86C352.041 188.895 351.954 188.913 351.866 188.912V188.845ZM351.866 183.732C351.703 183.729 351.547 183.662 351.431 183.547C351.315 183.431 351.249 183.275 351.246 183.112V180.549C351.268 180.398 351.343 180.26 351.458 180.161C351.574 180.061 351.721 180.007 351.873 180.007C352.025 180.007 352.172 180.061 352.287 180.161C352.402 180.26 352.478 180.398 352.5 180.549V183.112C352.497 183.277 352.428 183.435 352.31 183.551C352.191 183.667 352.032 183.732 351.866 183.732ZM351.866 178.619C351.703 178.616 351.547 178.549 351.431 178.434C351.315 178.318 351.249 178.162 351.246 177.999V175.422C351.268 175.272 351.343 175.134 351.458 175.035C351.574 174.935 351.721 174.88 351.873 174.88C352.025 174.88 352.172 174.935 352.287 175.035C352.402 175.134 352.478 175.272 352.5 175.422V177.985C352.5 178.069 352.484 178.151 352.452 178.228C352.42 178.305 352.373 178.375 352.314 178.434C352.256 178.493 352.186 178.539 352.109 178.571C352.032 178.603 351.949 178.619 351.866 178.619ZM351.866 173.507C351.703 173.503 351.547 173.437 351.431 173.321C351.315 173.205 351.249 173.05 351.246 172.886V170.323C351.268 170.172 351.343 170.035 351.458 169.935C351.574 169.836 351.721 169.781 351.873 169.781C352.025 169.781 352.172 169.836 352.287 169.935C352.402 170.035 352.478 170.172 352.5 170.323V172.886C352.497 173.052 352.428 173.21 352.31 173.326C352.191 173.442 352.032 173.507 351.866 173.507ZM351.866 168.394C351.7 168.39 351.542 168.322 351.426 168.203C351.31 168.085 351.245 167.926 351.246 167.76V165.21C351.232 165.12 351.239 165.028 351.264 164.941C351.289 164.853 351.333 164.772 351.393 164.703C351.453 164.635 351.526 164.579 351.609 164.541C351.692 164.503 351.782 164.484 351.873 164.484C351.964 164.484 352.054 164.503 352.137 164.541C352.219 164.579 352.293 164.635 352.353 164.703C352.412 164.772 352.456 164.853 352.482 164.941C352.507 165.028 352.513 165.12 352.5 165.21V167.76C352.5 167.928 352.433 168.089 352.314 168.208C352.195 168.327 352.034 168.394 351.866 168.394ZM351.866 163.281C351.7 163.278 351.542 163.209 351.426 163.091C351.31 162.972 351.245 162.813 351.246 162.647V160.097C351.232 160.007 351.239 159.915 351.264 159.828C351.289 159.741 351.333 159.66 351.393 159.591C351.453 159.522 351.526 159.466 351.609 159.429C351.692 159.391 351.782 159.371 351.873 159.371C351.964 159.371 352.054 159.391 352.137 159.429C352.219 159.466 352.293 159.522 352.353 159.591C352.412 159.66 352.456 159.741 352.482 159.828C352.507 159.915 352.513 160.007 352.5 160.097V162.647C352.5 162.815 352.433 162.976 352.314 163.095C352.195 163.214 352.034 163.281 351.866 163.281ZM351.866 158.168C351.7 158.165 351.542 158.096 351.426 157.978C351.31 157.859 351.245 157.7 351.246 157.534V154.985C351.232 154.894 351.239 154.803 351.264 154.715C351.289 154.628 351.333 154.547 351.393 154.478C351.453 154.409 351.526 154.354 351.609 154.316C351.692 154.278 351.782 154.258 351.873 154.258C351.964 154.258 352.054 154.278 352.137 154.316C352.219 154.354 352.293 154.409 352.353 154.478C352.412 154.547 352.456 154.628 352.482 154.715C352.507 154.803 352.513 154.894 352.5 154.985V157.534C352.5 157.702 352.433 157.864 352.314 157.983C352.195 158.101 352.034 158.168 351.866 158.168Z" fill="#F5F5F5"/>
<path d="M351.865 228.452C351.699 228.448 351.541 228.38 351.425 228.262C351.309 228.143 351.244 227.984 351.244 227.818V226.563C351.267 226.413 351.342 226.275 351.457 226.176C351.572 226.076 351.719 226.021 351.872 226.021C352.024 226.021 352.171 226.076 352.286 226.176C352.401 226.275 352.477 226.413 352.499 226.563V227.818C352.499 227.901 352.483 227.984 352.451 228.061C352.419 228.137 352.372 228.207 352.313 228.266C352.254 228.325 352.184 228.372 352.108 228.404C352.031 228.436 351.948 228.452 351.865 228.452Z" fill="#F5F5F5"/>
<path d="M400.607 156.401C400.439 156.401 400.277 156.334 400.158 156.215C400.039 156.096 399.973 155.935 399.973 155.767V154.512C399.995 154.362 400.07 154.224 400.185 154.125C400.301 154.025 400.448 153.97 400.6 153.97C400.752 153.97 400.899 154.025 401.014 154.125C401.13 154.224 401.205 154.362 401.227 154.512V155.767C401.227 155.933 401.162 156.092 401.046 156.21C400.93 156.329 400.773 156.397 400.607 156.401Z" fill="#F5F5F5"/>
<path d="M400.605 196.455C400.437 196.455 400.276 196.388 400.157 196.269C400.038 196.15 399.971 195.989 399.971 195.821V193.325C399.958 193.235 399.964 193.143 399.99 193.056C400.015 192.968 400.059 192.887 400.119 192.818C400.178 192.749 400.252 192.694 400.335 192.656C400.417 192.618 400.507 192.599 400.598 192.599C400.689 192.599 400.779 192.618 400.862 192.656C400.945 192.694 401.019 192.749 401.078 192.818C401.138 192.887 401.182 192.968 401.207 193.056C401.233 193.143 401.239 193.235 401.226 193.325V195.821C401.226 195.986 401.161 196.146 401.045 196.264C400.929 196.383 400.771 196.451 400.605 196.455ZM400.605 191.45C400.437 191.45 400.276 191.383 400.157 191.264C400.038 191.145 399.971 190.984 399.971 190.816V188.32C399.958 188.23 399.964 188.138 399.99 188.051C400.015 187.963 400.059 187.882 400.119 187.813C400.178 187.744 400.252 187.689 400.335 187.651C400.417 187.613 400.507 187.594 400.598 187.594C400.689 187.594 400.779 187.613 400.862 187.651C400.945 187.689 401.019 187.744 401.078 187.813C401.138 187.882 401.182 187.963 401.207 188.051C401.233 188.138 401.239 188.23 401.226 188.32V190.816C401.226 190.982 401.161 191.141 401.045 191.259C400.929 191.378 400.771 191.446 400.605 191.45ZM400.605 186.445C400.437 186.445 400.276 186.378 400.157 186.259C400.038 186.14 399.971 185.979 399.971 185.811V183.315C399.958 183.225 399.964 183.133 399.99 183.046C400.015 182.958 400.059 182.877 400.119 182.809C400.178 182.74 400.252 182.684 400.335 182.646C400.417 182.609 400.507 182.589 400.598 182.589C400.689 182.589 400.779 182.609 400.862 182.646C400.945 182.684 401.019 182.74 401.078 182.809C401.138 182.877 401.182 182.958 401.207 183.046C401.233 183.133 401.239 183.225 401.226 183.315V185.811C401.226 185.977 401.161 186.136 401.045 186.255C400.929 186.373 400.771 186.441 400.605 186.445ZM400.605 181.44C400.437 181.44 400.276 181.373 400.157 181.254C400.038 181.135 399.971 180.974 399.971 180.806V178.297C399.993 178.146 400.069 178.009 400.184 177.909C400.299 177.81 400.446 177.755 400.598 177.755C400.751 177.755 400.898 177.81 401.013 177.909C401.128 178.009 401.204 178.146 401.226 178.297V180.82C401.222 180.983 401.156 181.139 401.04 181.255C400.924 181.37 400.769 181.437 400.605 181.44ZM400.605 176.422C400.523 176.424 400.44 176.409 400.364 176.378C400.287 176.348 400.217 176.303 400.158 176.245C400.099 176.187 400.052 176.118 400.02 176.042C399.988 175.966 399.971 175.884 399.971 175.801V173.292C399.993 173.141 400.069 173.004 400.184 172.904C400.299 172.805 400.446 172.75 400.598 172.75C400.751 172.75 400.898 172.805 401.013 172.904C401.128 173.004 401.204 173.141 401.226 173.292V175.801C401.226 175.966 401.16 176.124 401.044 176.24C400.928 176.356 400.77 176.422 400.605 176.422ZM400.605 171.417C400.439 171.417 400.28 171.352 400.162 171.236C400.043 171.12 399.975 170.962 399.971 170.796V168.287C399.993 168.137 400.069 167.999 400.184 167.9C400.299 167.8 400.446 167.745 400.598 167.745C400.751 167.745 400.898 167.8 401.013 167.9C401.128 167.999 401.204 168.137 401.226 168.287V170.796C401.212 170.953 401.142 171.099 401.027 171.206C400.912 171.313 400.762 171.374 400.605 171.376V171.417ZM400.605 166.412C400.439 166.412 400.28 166.347 400.162 166.231C400.043 166.115 399.975 165.957 399.971 165.791V163.282C399.993 163.132 400.069 162.994 400.184 162.895C400.299 162.795 400.446 162.74 400.598 162.74C400.751 162.74 400.898 162.795 401.013 162.895C401.128 162.994 401.204 163.132 401.226 163.282V165.791C401.222 165.955 401.156 166.111 401.04 166.226C400.924 166.342 400.769 166.409 400.605 166.412ZM400.605 161.407C400.439 161.407 400.28 161.342 400.162 161.226C400.043 161.11 399.975 160.952 399.971 160.787V158.277C399.993 158.127 400.069 157.989 400.184 157.89C400.299 157.79 400.446 157.736 400.598 157.736C400.751 157.736 400.898 157.79 401.013 157.89C401.128 157.989 401.204 158.127 401.226 158.277V160.787C401.222 160.95 401.156 161.106 401.04 161.222C400.924 161.337 400.769 161.404 400.605 161.407Z" fill="#F5F5F5"/>
<path d="M400.605 200.204C400.523 200.205 400.44 200.191 400.364 200.16C400.287 200.13 400.217 200.084 400.158 200.027C400.099 199.969 400.052 199.9 400.02 199.824C399.988 199.747 399.971 199.666 399.971 199.583V198.355C399.958 198.265 399.964 198.173 399.99 198.086C400.015 197.999 400.059 197.918 400.119 197.849C400.178 197.78 400.252 197.725 400.335 197.687C400.417 197.649 400.507 197.629 400.598 197.629C400.689 197.629 400.779 197.649 400.862 197.687C400.945 197.725 401.019 197.78 401.078 197.849C401.138 197.918 401.182 197.999 401.207 198.086C401.233 198.173 401.239 198.265 401.226 198.355V199.61C401.219 199.77 401.15 199.921 401.035 200.031C400.919 200.142 400.765 200.204 400.605 200.204Z" fill="#F5F5F5"/>
<path d="M362.052 112.357C362.052 111.13 361.189 110.63 360.123 111.251L342.356 121.463C341.794 121.832 341.326 122.329 340.991 122.912C340.656 123.496 340.463 124.15 340.427 124.822V139.203C340.427 140.43 341.291 140.929 342.356 140.309L348.953 136.505L351.719 141.307C351.76 141.376 351.819 141.431 351.891 141.467C351.962 141.503 352.043 141.517 352.122 141.509C352.202 141.5 352.277 141.469 352.339 141.419C352.402 141.369 352.449 141.302 352.474 141.226L355.401 132.781L360.123 130.083C360.687 129.718 361.156 129.225 361.491 128.643C361.826 128.061 362.019 127.408 362.052 126.738V112.357Z" fill="#F5F5F5"/>
<path d="M346.592 127.424C346.414 127.438 346.235 127.412 346.069 127.346C345.903 127.281 345.754 127.178 345.634 127.047C345.375 126.713 345.25 126.294 345.283 125.873C345.284 125.323 345.404 124.78 345.634 124.281C345.87 123.734 346.194 123.228 346.592 122.784C346.975 122.333 347.431 121.95 347.941 121.651C348.347 121.397 348.811 121.253 349.29 121.232C349.468 121.222 349.647 121.252 349.813 121.32C349.979 121.387 350.127 121.491 350.247 121.624C350.511 121.956 350.641 122.374 350.612 122.797C350.603 123.343 350.478 123.881 350.247 124.376C350.003 124.923 349.68 125.432 349.29 125.887C348.903 126.326 348.447 126.7 347.941 126.993C347.537 127.254 347.072 127.403 346.592 127.424ZM346.16 134.696C346.163 134.611 346.186 134.528 346.227 134.453L353.944 118.764L354.146 118.413C354.23 118.324 354.325 118.247 354.429 118.184L356.008 117.28C356.038 117.267 356.07 117.261 356.102 117.261C356.135 117.261 356.167 117.267 356.197 117.28C356.223 117.286 356.246 117.302 356.261 117.325C356.276 117.347 356.282 117.375 356.278 117.401C356.276 117.493 356.248 117.582 356.197 117.658L348.413 133.36C348.413 133.495 348.278 133.59 348.237 133.657C348.165 133.736 348.078 133.8 347.981 133.846L346.389 134.777C346.254 134.952 346.16 134.858 346.16 134.696ZM348.858 124.74C349.1 124.39 349.236 123.978 349.249 123.553C349.272 123.4 349.247 123.243 349.177 123.106C349.107 122.968 348.995 122.855 348.858 122.784C348.694 122.735 348.52 122.725 348.351 122.756C348.183 122.786 348.023 122.856 347.887 122.959C347.491 123.19 347.158 123.515 346.915 123.904C346.671 124.262 346.536 124.684 346.524 125.118C346.503 125.267 346.529 125.419 346.6 125.552C346.67 125.685 346.78 125.793 346.915 125.86C347.079 125.908 347.251 125.919 347.42 125.891C347.588 125.863 347.748 125.797 347.887 125.698C348.303 125.469 348.655 125.139 348.912 124.74H348.858ZM353.148 130.784C352.967 130.797 352.785 130.769 352.617 130.701C352.448 130.633 352.298 130.527 352.177 130.392C351.913 130.066 351.783 129.651 351.812 129.232C351.821 128.691 351.946 128.157 352.177 127.667C352.42 127.116 352.747 126.606 353.148 126.156C353.531 125.709 353.987 125.331 354.497 125.037C354.9 124.775 355.366 124.626 355.846 124.605C356.025 124.596 356.205 124.624 356.372 124.69C356.54 124.755 356.691 124.855 356.817 124.983C357.083 125.314 357.213 125.733 357.181 126.156C357.174 126.702 357.05 127.241 356.817 127.735C356.568 128.282 356.241 128.791 355.846 129.246C355.459 129.689 355.004 130.067 354.497 130.365C354.106 130.608 353.661 130.752 353.202 130.784H353.148ZM355.455 128.086C355.703 127.734 355.839 127.315 355.846 126.885C355.846 126.494 355.724 126.251 355.455 126.143C355.29 126.093 355.117 126.083 354.948 126.113C354.779 126.144 354.62 126.214 354.483 126.318C354.085 126.545 353.75 126.87 353.512 127.263C353.272 127.614 353.137 128.025 353.121 128.45C353.121 128.854 353.256 129.111 353.512 129.205C353.677 129.248 353.849 129.255 354.017 129.225C354.185 129.194 354.344 129.128 354.483 129.03C354.893 128.809 355.244 128.495 355.509 128.112L355.455 128.086Z" fill="#F1463B"/>
<path opacity="0.4" d="M346.592 127.424C346.414 127.438 346.235 127.412 346.069 127.346C345.903 127.281 345.754 127.178 345.634 127.047C345.375 126.713 345.25 126.294 345.283 125.873C345.284 125.323 345.404 124.78 345.634 124.281C345.87 123.734 346.194 123.228 346.592 122.784C346.975 122.333 347.431 121.95 347.941 121.651C348.347 121.397 348.811 121.253 349.29 121.232C349.468 121.222 349.647 121.252 349.813 121.32C349.979 121.387 350.127 121.491 350.247 121.624C350.511 121.956 350.641 122.374 350.612 122.797C350.603 123.343 350.478 123.881 350.247 124.376C350.003 124.923 349.68 125.432 349.29 125.887C348.903 126.326 348.447 126.7 347.941 126.993C347.537 127.254 347.072 127.403 346.592 127.424ZM346.16 134.696C346.163 134.611 346.186 134.528 346.227 134.453L353.944 118.764L354.146 118.413C354.23 118.324 354.325 118.247 354.429 118.184L356.008 117.28C356.038 117.267 356.07 117.261 356.102 117.261C356.135 117.261 356.167 117.267 356.197 117.28C356.223 117.286 356.246 117.302 356.261 117.325C356.276 117.347 356.282 117.375 356.278 117.401C356.276 117.493 356.248 117.582 356.197 117.658L348.413 133.36C348.413 133.495 348.278 133.59 348.237 133.657C348.165 133.736 348.078 133.8 347.981 133.846L346.389 134.777C346.254 134.952 346.16 134.858 346.16 134.696ZM348.858 124.74C349.1 124.39 349.236 123.978 349.249 123.553C349.272 123.4 349.247 123.243 349.177 123.106C349.107 122.968 348.995 122.855 348.858 122.784C348.694 122.735 348.52 122.725 348.351 122.756C348.183 122.786 348.023 122.856 347.887 122.959C347.491 123.19 347.158 123.515 346.915 123.904C346.671 124.262 346.536 124.684 346.524 125.118C346.503 125.267 346.529 125.419 346.6 125.552C346.67 125.685 346.78 125.793 346.915 125.86C347.079 125.908 347.251 125.919 347.42 125.891C347.588 125.863 347.748 125.797 347.887 125.698C348.303 125.469 348.655 125.139 348.912 124.74H348.858ZM353.148 130.784C352.967 130.797 352.785 130.769 352.617 130.701C352.448 130.633 352.298 130.527 352.177 130.392C351.913 130.066 351.783 129.651 351.812 129.232C351.821 128.691 351.946 128.157 352.177 127.667C352.42 127.116 352.747 126.606 353.148 126.156C353.531 125.709 353.987 125.331 354.497 125.037C354.9 124.775 355.366 124.626 355.846 124.605C356.025 124.596 356.205 124.624 356.372 124.69C356.54 124.755 356.691 124.855 356.817 124.983C357.083 125.314 357.213 125.733 357.181 126.156C357.174 126.702 357.05 127.241 356.817 127.735C356.568 128.282 356.241 128.791 355.846 129.246C355.459 129.689 355.004 130.067 354.497 130.365C354.106 130.608 353.661 130.752 353.202 130.784H353.148ZM355.455 128.086C355.703 127.734 355.839 127.315 355.846 126.885C355.846 126.494 355.724 126.251 355.455 126.143C355.29 126.093 355.117 126.083 354.948 126.113C354.779 126.144 354.62 126.214 354.483 126.318C354.085 126.545 353.75 126.87 353.512 127.263C353.272 127.614 353.137 128.025 353.121 128.45C353.121 128.854 353.256 129.111 353.512 129.205C353.677 129.248 353.849 129.255 354.017 129.225C354.185 129.194 354.344 129.128 354.483 129.03C354.893 128.809 355.244 128.495 355.509 128.112L355.455 128.086Z" fill="black"/>
<path d="M410.022 114.826C410.022 113.598 409.158 113.099 408.093 113.706L390.326 123.986C389.765 124.354 389.299 124.848 388.964 125.429C388.629 126.01 388.435 126.662 388.397 127.332V141.699C388.397 142.94 389.26 143.439 390.326 142.818L396.977 139.001L399.756 143.803C399.787 143.875 399.839 143.937 399.905 143.98C399.971 144.023 400.048 144.046 400.127 144.046C400.205 144.046 400.283 144.023 400.348 143.98C400.414 143.937 400.466 143.875 400.498 143.803L403.425 135.345L408.16 132.647C408.721 132.279 409.187 131.784 409.522 131.203C409.857 130.622 410.052 129.971 410.089 129.301L410.022 114.826Z" fill="#F5F5F5"/>
<path d="M394.563 129.893C394.382 129.905 394.201 129.875 394.033 129.808C393.865 129.74 393.714 129.635 393.592 129.502C393.336 129.171 393.211 128.758 393.241 128.342C393.249 127.793 393.368 127.251 393.592 126.75C393.833 126.198 394.161 125.688 394.563 125.239C394.949 124.796 395.405 124.417 395.912 124.119C396.316 123.863 396.782 123.718 397.261 123.701C397.442 123.688 397.624 123.716 397.792 123.784C397.96 123.852 398.111 123.957 398.232 124.092C398.499 124.423 398.63 124.843 398.596 125.266C398.587 125.808 398.463 126.341 398.232 126.831C397.989 127.382 397.662 127.892 397.261 128.342C396.878 128.789 396.422 129.168 395.912 129.461C395.509 129.723 395.043 129.872 394.563 129.893ZM394.118 137.164C394.121 137.073 394.149 136.985 394.199 136.908L401.915 121.219C401.967 121.094 402.035 120.976 402.117 120.868C402.192 120.775 402.283 120.697 402.387 120.639L403.979 119.722C404.06 119.722 404.114 119.654 404.168 119.722C404.222 119.789 404.235 119.722 404.235 119.843C404.237 119.933 404.214 120.022 404.168 120.099L396.411 135.869C396.363 135.974 396.304 136.073 396.236 136.166C396.168 136.244 396.085 136.308 395.993 136.355L394.387 137.286C394.28 137.34 394.118 137.313 394.118 137.164ZM396.816 127.209C397.056 126.858 397.191 126.446 397.207 126.021C397.23 125.868 397.205 125.712 397.135 125.574C397.064 125.436 396.953 125.324 396.816 125.252C396.651 125.203 396.478 125.194 396.309 125.224C396.14 125.255 395.981 125.324 395.844 125.428C395.453 125.659 395.124 125.984 394.887 126.372C394.637 126.728 394.501 127.151 394.495 127.586C394.472 127.736 394.497 127.888 394.568 128.022C394.638 128.156 394.75 128.263 394.887 128.328C395.049 128.377 395.22 128.387 395.387 128.356C395.553 128.326 395.71 128.256 395.844 128.153C396.263 127.933 396.617 127.608 396.87 127.209H396.816ZM401.106 133.252C400.925 133.263 400.744 133.233 400.576 133.165C400.408 133.098 400.257 132.994 400.134 132.861C399.883 132.528 399.759 132.117 399.784 131.701C399.793 131.156 399.912 130.62 400.134 130.122C400.384 129.575 400.711 129.066 401.106 128.612C401.492 128.172 401.948 127.798 402.455 127.505C402.86 127.248 403.324 127.099 403.804 127.074C403.983 127.062 404.164 127.089 404.331 127.154C404.499 127.22 404.651 127.321 404.775 127.451C405.04 127.777 405.17 128.193 405.139 128.612C405.133 129.162 405.009 129.705 404.775 130.203C404.529 130.749 404.201 131.253 403.804 131.701C403.419 132.146 402.963 132.525 402.455 132.82C402.064 133.067 401.62 133.215 401.16 133.252H401.106ZM403.426 130.554C403.67 130.195 403.806 129.774 403.817 129.34C403.836 129.191 403.809 129.04 403.739 128.907C403.669 128.774 403.56 128.666 403.426 128.598C403.258 128.555 403.083 128.549 402.912 128.582C402.742 128.615 402.581 128.685 402.441 128.787C402.049 129.012 401.72 129.332 401.483 129.718C401.234 130.07 401.093 130.487 401.079 130.918C401.079 131.323 401.214 131.566 401.483 131.674C401.646 131.717 401.816 131.723 401.982 131.693C402.147 131.663 402.304 131.596 402.441 131.498C402.855 131.279 403.211 130.964 403.48 130.581L403.426 130.554Z" fill="#F1463B"/>
<path opacity="0.4" d="M394.563 129.893C394.382 129.905 394.201 129.875 394.033 129.808C393.865 129.74 393.714 129.635 393.592 129.502C393.336 129.171 393.211 128.758 393.241 128.342C393.249 127.793 393.368 127.251 393.592 126.75C393.833 126.198 394.161 125.688 394.563 125.239C394.949 124.796 395.405 124.417 395.912 124.119C396.316 123.863 396.782 123.718 397.261 123.701C397.442 123.688 397.624 123.716 397.792 123.784C397.96 123.852 398.111 123.957 398.232 124.092C398.499 124.423 398.63 124.843 398.596 125.266C398.587 125.808 398.463 126.341 398.232 126.831C397.989 127.382 397.662 127.892 397.261 128.342C396.878 128.789 396.422 129.168 395.912 129.461C395.509 129.723 395.043 129.872 394.563 129.893ZM394.118 137.164C394.121 137.073 394.149 136.985 394.199 136.908L401.915 121.219C401.967 121.094 402.035 120.976 402.117 120.868C402.192 120.775 402.283 120.697 402.387 120.639L403.979 119.722C404.06 119.722 404.114 119.654 404.168 119.722C404.222 119.789 404.235 119.722 404.235 119.843C404.237 119.933 404.214 120.022 404.168 120.099L396.411 135.869C396.363 135.974 396.304 136.073 396.236 136.166C396.168 136.244 396.085 136.308 395.993 136.355L394.387 137.286C394.28 137.34 394.118 137.313 394.118 137.164ZM396.816 127.209C397.056 126.858 397.191 126.446 397.207 126.021C397.23 125.868 397.205 125.712 397.135 125.574C397.064 125.436 396.953 125.324 396.816 125.252C396.651 125.203 396.478 125.194 396.309 125.224C396.14 125.255 395.981 125.324 395.844 125.428C395.453 125.659 395.124 125.984 394.887 126.372C394.637 126.728 394.501 127.151 394.495 127.586C394.472 127.736 394.497 127.888 394.568 128.022C394.638 128.156 394.75 128.263 394.887 128.328C395.049 128.377 395.22 128.387 395.387 128.356C395.553 128.326 395.71 128.256 395.844 128.153C396.263 127.933 396.617 127.608 396.87 127.209H396.816ZM401.106 133.252C400.925 133.263 400.744 133.233 400.576 133.165C400.408 133.098 400.257 132.994 400.134 132.861C399.883 132.528 399.759 132.117 399.784 131.701C399.793 131.156 399.912 130.62 400.134 130.122C400.384 129.575 400.711 129.066 401.106 128.612C401.492 128.172 401.948 127.798 402.455 127.505C402.86 127.248 403.324 127.099 403.804 127.074C403.983 127.062 404.164 127.089 404.331 127.154C404.499 127.22 404.651 127.321 404.775 127.451C405.04 127.777 405.17 128.193 405.139 128.612C405.133 129.162 405.009 129.705 404.775 130.203C404.529 130.749 404.201 131.253 403.804 131.701C403.419 132.146 402.963 132.525 402.455 132.82C402.064 133.067 401.62 133.215 401.16 133.252H401.106ZM403.426 130.554C403.67 130.195 403.806 129.774 403.817 129.34C403.836 129.191 403.809 129.04 403.739 128.907C403.669 128.774 403.56 128.666 403.426 128.598C403.258 128.555 403.083 128.549 402.912 128.582C402.742 128.615 402.581 128.685 402.441 128.787C402.049 129.012 401.72 129.332 401.483 129.718C401.234 130.07 401.093 130.487 401.079 130.918C401.079 131.323 401.214 131.566 401.483 131.674C401.646 131.717 401.816 131.723 401.982 131.693C402.147 131.663 402.304 131.596 402.441 131.498C402.855 131.279 403.211 130.964 403.48 130.581L403.426 130.554Z" fill="black"/>
<path d="M311.61 95.6402C311.61 94.4126 310.747 93.9135 309.681 94.534L291.914 104.8C291.352 105.169 290.884 105.666 290.549 106.249C290.214 106.833 290.021 107.487 289.985 108.159V122.54C289.985 123.767 290.848 124.266 291.914 123.646L298.497 119.842L301.276 124.631C301.308 124.703 301.36 124.764 301.426 124.807C301.492 124.851 301.569 124.874 301.647 124.874C301.726 124.874 301.803 124.851 301.869 124.807C301.935 124.764 301.987 124.703 302.018 124.631L304.946 116.186L309.681 113.488C310.245 113.123 310.713 112.629 311.049 112.048C311.384 111.466 311.577 110.813 311.61 110.142V95.6402Z" fill="#F5F5F5"/>
<path d="M296.137 110.669C295.959 110.681 295.781 110.654 295.615 110.588C295.45 110.523 295.301 110.422 295.179 110.292C294.926 109.955 294.802 109.538 294.828 109.118C294.836 108.569 294.955 108.027 295.179 107.526C295.421 106.981 295.744 106.476 296.137 106.029C296.523 105.581 296.979 105.199 297.486 104.895C297.893 104.644 298.357 104.5 298.835 104.477C299.016 104.464 299.198 104.492 299.366 104.56C299.534 104.628 299.685 104.733 299.806 104.869C300.07 105.201 300.2 105.619 300.17 106.042C300.161 106.588 300.037 107.126 299.806 107.621C299.557 108.168 299.23 108.677 298.835 109.131C298.448 109.571 297.993 109.944 297.486 110.238C297.083 110.499 296.617 110.648 296.137 110.669ZM295.705 117.941C295.707 117.853 295.735 117.769 295.786 117.698L303.502 101.995C303.558 101.872 303.626 101.754 303.705 101.644C303.779 101.551 303.871 101.473 303.975 101.415L305.566 100.511C305.596 100.498 305.628 100.491 305.661 100.491C305.693 100.491 305.726 100.498 305.755 100.511C305.755 100.511 305.823 100.511 305.823 100.633C305.826 100.723 305.803 100.812 305.755 100.889L297.998 116.659C297.95 116.764 297.891 116.863 297.823 116.956C297.759 117.038 297.676 117.103 297.58 117.145L295.975 118.075C295.8 118.17 295.705 118.143 295.705 117.981V117.941ZM298.403 107.985C298.645 107.635 298.781 107.223 298.794 106.798C298.817 106.645 298.792 106.488 298.722 106.35C298.652 106.213 298.54 106.1 298.403 106.029C298.239 105.98 298.065 105.97 297.897 106C297.728 106.031 297.569 106.101 297.432 106.204C297.04 106.436 296.712 106.76 296.474 107.148C296.224 107.504 296.088 107.928 296.083 108.362C296.083 108.754 296.204 108.997 296.474 109.104C296.636 109.153 296.808 109.163 296.974 109.133C297.141 109.102 297.298 109.032 297.432 108.929C297.867 108.712 298.235 108.381 298.498 107.971L298.403 107.985ZM302.693 114.028C302.512 114.042 302.33 114.013 302.162 113.946C301.994 113.878 301.843 113.772 301.722 113.637C301.469 113.306 301.344 112.893 301.371 112.477C301.382 111.937 301.502 111.405 301.722 110.912C301.965 110.361 302.292 109.851 302.693 109.401C303.076 108.954 303.532 108.575 304.042 108.282C304.445 108.02 304.911 107.871 305.391 107.85C305.571 107.84 305.75 107.869 305.917 107.934C306.085 107.999 306.236 108.099 306.362 108.228C306.623 108.56 306.749 108.98 306.713 109.401C306.711 109.946 306.591 110.485 306.362 110.98C306.113 111.527 305.786 112.036 305.391 112.49C305.004 112.933 304.549 113.311 304.042 113.61C303.655 113.867 303.21 114.025 302.747 114.069L302.693 114.028ZM305.013 111.33C305.256 110.976 305.391 110.559 305.405 110.13C305.426 109.981 305.399 109.829 305.329 109.695C305.259 109.562 305.148 109.454 305.013 109.388C304.847 109.338 304.671 109.327 304.5 109.358C304.329 109.388 304.167 109.459 304.029 109.563C303.635 109.792 303.305 110.117 303.071 110.507C302.821 110.854 302.681 111.268 302.666 111.695C302.666 112.099 302.801 112.356 303.071 112.45C303.234 112.493 303.404 112.499 303.569 112.469C303.735 112.439 303.892 112.372 304.029 112.275C304.438 112.066 304.793 111.766 305.067 111.398L305.013 111.33Z" fill="#F1463B"/>
<path opacity="0.4" d="M296.137 110.669C295.959 110.681 295.781 110.654 295.615 110.588C295.45 110.523 295.301 110.422 295.179 110.292C294.926 109.955 294.802 109.538 294.828 109.118C294.836 108.569 294.955 108.027 295.179 107.526C295.421 106.981 295.744 106.476 296.137 106.029C296.523 105.581 296.979 105.199 297.486 104.895C297.893 104.644 298.357 104.5 298.835 104.477C299.016 104.464 299.198 104.492 299.366 104.56C299.534 104.628 299.685 104.733 299.806 104.869C300.07 105.201 300.2 105.619 300.17 106.042C300.161 106.588 300.037 107.126 299.806 107.621C299.557 108.168 299.23 108.677 298.835 109.131C298.448 109.571 297.993 109.944 297.486 110.238C297.083 110.499 296.617 110.648 296.137 110.669ZM295.705 117.941C295.707 117.853 295.735 117.769 295.786 117.698L303.502 101.995C303.558 101.872 303.626 101.754 303.705 101.644C303.779 101.551 303.871 101.473 303.975 101.415L305.566 100.511C305.596 100.498 305.628 100.491 305.661 100.491C305.693 100.491 305.726 100.498 305.755 100.511C305.755 100.511 305.823 100.511 305.823 100.633C305.826 100.723 305.803 100.812 305.755 100.889L297.998 116.659C297.95 116.764 297.891 116.863 297.823 116.956C297.759 117.038 297.676 117.103 297.58 117.145L295.975 118.075C295.8 118.17 295.705 118.143 295.705 117.981V117.941ZM298.403 107.985C298.645 107.635 298.781 107.223 298.794 106.798C298.817 106.645 298.792 106.488 298.722 106.35C298.652 106.213 298.54 106.1 298.403 106.029C298.239 105.98 298.065 105.97 297.897 106C297.728 106.031 297.569 106.101 297.432 106.204C297.04 106.436 296.712 106.76 296.474 107.148C296.224 107.504 296.088 107.928 296.083 108.362C296.083 108.754 296.204 108.997 296.474 109.104C296.636 109.153 296.808 109.163 296.974 109.133C297.141 109.102 297.298 109.032 297.432 108.929C297.867 108.712 298.235 108.381 298.498 107.971L298.403 107.985ZM302.693 114.028C302.512 114.042 302.33 114.013 302.162 113.946C301.994 113.878 301.843 113.772 301.722 113.637C301.469 113.306 301.344 112.893 301.371 112.477C301.382 111.937 301.502 111.405 301.722 110.912C301.965 110.361 302.292 109.851 302.693 109.401C303.076 108.954 303.532 108.575 304.042 108.282C304.445 108.02 304.911 107.871 305.391 107.85C305.571 107.84 305.75 107.869 305.917 107.934C306.085 107.999 306.236 108.099 306.362 108.228C306.623 108.56 306.749 108.98 306.713 109.401C306.711 109.946 306.591 110.485 306.362 110.98C306.113 111.527 305.786 112.036 305.391 112.49C305.004 112.933 304.549 113.311 304.042 113.61C303.655 113.867 303.21 114.025 302.747 114.069L302.693 114.028ZM305.013 111.33C305.256 110.976 305.391 110.559 305.405 110.13C305.426 109.981 305.399 109.829 305.329 109.695C305.259 109.562 305.148 109.454 305.013 109.388C304.847 109.338 304.671 109.327 304.5 109.358C304.329 109.388 304.167 109.459 304.029 109.563C303.635 109.792 303.305 110.117 303.071 110.507C302.821 110.854 302.681 111.268 302.666 111.695C302.666 112.099 302.801 112.356 303.071 112.45C303.234 112.493 303.404 112.499 303.569 112.469C303.735 112.439 303.892 112.372 304.029 112.275C304.438 112.066 304.793 111.766 305.067 111.398L305.013 111.33Z" fill="black"/>
<path d="M247.115 172.212C247.115 170.984 246.251 170.485 245.185 171.092L227.419 181.372C226.856 181.741 226.389 182.237 226.054 182.821C225.718 183.404 225.525 184.059 225.49 184.731V199.098C225.49 200.339 226.353 200.838 227.419 200.217L234.016 196.413L236.781 201.202C236.821 201.271 236.88 201.327 236.95 201.364C237.021 201.401 237.101 201.416 237.18 201.409C237.26 201.402 237.335 201.373 237.398 201.324C237.462 201.275 237.509 201.21 237.536 201.135L240.464 192.676L245.185 189.978C245.748 189.612 246.215 189.118 246.551 188.537C246.886 187.955 247.079 187.303 247.115 186.633V172.212Z" fill="#F5F5F5"/>
<path d="M231.655 187.282C231.476 187.296 231.296 187.268 231.13 187.2C230.963 187.132 230.815 187.026 230.697 186.891C230.436 186.563 230.31 186.148 230.346 185.73C230.347 185.181 230.467 184.638 230.697 184.139C230.937 183.589 231.26 183.079 231.655 182.628C232.039 182.182 232.495 181.804 233.004 181.508C233.409 181.251 233.874 181.107 234.353 181.09C234.534 181.076 234.716 181.105 234.884 181.173C235.053 181.24 235.203 181.346 235.324 181.481C235.59 181.812 235.72 182.231 235.689 182.655C235.68 183.196 235.555 183.73 235.324 184.22C235.078 184.773 234.751 185.287 234.353 185.744C233.966 186.183 233.511 186.557 233.004 186.85C232.599 187.108 232.134 187.256 231.655 187.282ZM231.223 194.553C231.228 194.464 231.251 194.377 231.291 194.297L239.007 178.608C239.06 178.483 239.128 178.365 239.21 178.257C239.287 178.167 239.378 178.09 239.479 178.028L241.071 177.11C241.132 177.089 241.199 177.089 241.26 177.11C241.286 177.117 241.309 177.133 241.324 177.155C241.339 177.178 241.345 177.205 241.341 177.232C241.337 177.323 241.309 177.411 241.26 177.488L233.517 193.258C233.449 193.393 233.382 193.487 233.341 193.555C233.265 193.629 233.179 193.693 233.085 193.744L231.48 194.674C231.304 194.728 231.223 194.715 231.223 194.553ZM233.921 184.597C234.158 184.246 234.289 183.834 234.299 183.41C234.299 183.005 234.178 182.749 233.921 182.641C233.757 182.592 233.584 182.582 233.415 182.613C233.246 182.643 233.087 182.713 232.95 182.817C232.551 183.044 232.217 183.369 231.979 183.761C231.735 184.12 231.599 184.541 231.588 184.975C231.566 185.124 231.593 185.276 231.663 185.409C231.733 185.543 231.844 185.65 231.979 185.717C232.143 185.766 232.317 185.776 232.485 185.745C232.654 185.715 232.813 185.645 232.95 185.542C233.365 185.318 233.718 184.993 233.975 184.597H233.921ZM238.211 190.641C238.031 190.651 237.85 190.622 237.682 190.554C237.514 190.486 237.363 190.382 237.24 190.25C236.979 189.922 236.849 189.508 236.876 189.09C236.885 188.548 237.009 188.015 237.24 187.525C237.486 186.971 237.813 186.457 238.211 186C238.6 185.563 239.056 185.19 239.56 184.894C239.965 184.637 240.43 184.488 240.909 184.462C241.089 184.45 241.269 184.478 241.437 184.543C241.605 184.608 241.756 184.71 241.881 184.84C242.148 185.17 242.278 185.59 242.245 186.014C242.237 186.56 242.113 187.098 241.881 187.592C241.634 188.137 241.307 188.642 240.909 189.09C240.529 189.539 240.072 189.918 239.56 190.209C239.173 190.462 238.727 190.61 238.265 190.641H238.211ZM240.518 187.943C240.762 187.584 240.898 187.163 240.909 186.729C240.929 186.58 240.901 186.429 240.831 186.296C240.761 186.163 240.652 186.055 240.518 185.987C240.35 185.944 240.175 185.938 240.005 185.971C239.834 186.003 239.673 186.073 239.533 186.176C239.145 186.406 238.817 186.725 238.576 187.106C238.331 187.46 238.195 187.877 238.184 188.307C238.184 188.712 238.306 188.955 238.576 189.063C238.738 189.105 238.908 189.112 239.074 189.082C239.239 189.051 239.396 188.985 239.533 188.887C239.947 188.667 240.303 188.353 240.572 187.97L240.518 187.943Z" fill="#F1463B"/>
<path opacity="0.4" d="M231.655 187.282C231.476 187.296 231.296 187.268 231.13 187.2C230.963 187.132 230.815 187.026 230.697 186.891C230.436 186.563 230.31 186.148 230.346 185.73C230.347 185.181 230.467 184.638 230.697 184.139C230.937 183.589 231.26 183.079 231.655 182.628C232.039 182.182 232.495 181.804 233.004 181.508C233.409 181.251 233.874 181.107 234.353 181.09C234.534 181.076 234.716 181.105 234.884 181.173C235.053 181.24 235.203 181.346 235.324 181.481C235.59 181.812 235.72 182.231 235.689 182.655C235.68 183.196 235.555 183.73 235.324 184.22C235.078 184.773 234.751 185.287 234.353 185.744C233.966 186.183 233.511 186.557 233.004 186.85C232.599 187.108 232.134 187.256 231.655 187.282ZM231.223 194.553C231.228 194.464 231.251 194.377 231.291 194.297L239.007 178.608C239.06 178.483 239.128 178.365 239.21 178.257C239.287 178.167 239.378 178.09 239.479 178.028L241.071 177.11C241.132 177.089 241.199 177.089 241.26 177.11C241.286 177.117 241.309 177.133 241.324 177.155C241.339 177.178 241.345 177.205 241.341 177.232C241.337 177.323 241.309 177.411 241.26 177.488L233.517 193.258C233.449 193.393 233.382 193.487 233.341 193.555C233.265 193.629 233.179 193.693 233.085 193.744L231.48 194.674C231.304 194.728 231.223 194.715 231.223 194.553ZM233.921 184.597C234.158 184.246 234.289 183.834 234.299 183.41C234.299 183.005 234.178 182.749 233.921 182.641C233.757 182.592 233.584 182.582 233.415 182.613C233.246 182.643 233.087 182.713 232.95 182.817C232.551 183.044 232.217 183.369 231.979 183.761C231.735 184.12 231.599 184.541 231.588 184.975C231.566 185.124 231.593 185.276 231.663 185.409C231.733 185.543 231.844 185.65 231.979 185.717C232.143 185.766 232.317 185.776 232.485 185.745C232.654 185.715 232.813 185.645 232.95 185.542C233.365 185.318 233.718 184.993 233.975 184.597H233.921ZM238.211 190.641C238.031 190.651 237.85 190.622 237.682 190.554C237.514 190.486 237.363 190.382 237.24 190.25C236.979 189.922 236.849 189.508 236.876 189.09C236.885 188.548 237.009 188.015 237.24 187.525C237.486 186.971 237.813 186.457 238.211 186C238.6 185.563 239.056 185.19 239.56 184.894C239.965 184.637 240.43 184.488 240.909 184.462C241.089 184.45 241.269 184.478 241.437 184.543C241.605 184.608 241.756 184.71 241.881 184.84C242.148 185.17 242.278 185.59 242.245 186.014C242.237 186.56 242.113 187.098 241.881 187.592C241.634 188.137 241.307 188.642 240.909 189.09C240.529 189.539 240.072 189.918 239.56 190.209C239.173 190.462 238.727 190.61 238.265 190.641H238.211ZM240.518 187.943C240.762 187.584 240.898 187.163 240.909 186.729C240.929 186.58 240.901 186.429 240.831 186.296C240.761 186.163 240.652 186.055 240.518 185.987C240.35 185.944 240.175 185.938 240.005 185.971C239.834 186.003 239.673 186.073 239.533 186.176C239.145 186.406 238.817 186.725 238.576 187.106C238.331 187.46 238.195 187.877 238.184 188.307C238.184 188.712 238.306 188.955 238.576 189.063C238.738 189.105 238.908 189.112 239.074 189.082C239.239 189.051 239.396 188.985 239.533 188.887C239.947 188.667 240.303 188.353 240.572 187.97L240.518 187.943Z" fill="black"/>
<path d="M231.156 306.522L244.174 299.007C246.076 297.915 247.6 298.387 247.6 300.06C247.46 301.104 247.076 302.1 246.481 302.969C245.886 303.838 245.096 304.556 244.174 305.065L231.169 312.579C229.267 313.671 227.729 313.199 227.729 311.526C227.876 310.485 228.262 309.491 228.856 308.623C229.45 307.754 230.238 307.035 231.156 306.522Z" fill="#F5F5F5"/>
<path d="M295.895 269.14L308.913 261.626C310.802 260.533 312.34 261.005 312.34 262.678C312.193 263.72 311.807 264.714 311.213 265.582C310.619 266.45 309.832 267.169 308.913 267.683L295.895 275.251C294.007 276.343 292.469 275.871 292.469 274.199C292.61 273.148 292.992 272.144 293.587 271.266C294.182 270.388 294.972 269.66 295.895 269.14Z" fill="#F5F5F5"/>
<path d="M345.365 240.62L358.384 233.106C360.272 232.013 361.81 232.485 361.81 234.158C361.663 235.2 361.278 236.194 360.683 237.062C360.089 237.93 359.302 238.649 358.384 239.163L345.365 246.677C343.477 247.77 341.939 247.311 341.939 245.638C342.085 244.594 342.47 243.598 343.064 242.728C343.659 241.857 344.446 241.136 345.365 240.62Z" fill="#F5F5F5"/>
<path d="M394.091 212.453L407.109 204.939C409.011 203.846 410.549 204.305 410.535 205.977C410.397 207.024 410.014 208.023 409.419 208.894C408.824 209.766 408.033 210.486 407.109 210.996L394.104 218.51C392.202 219.602 390.664 219.13 390.664 217.458C390.811 216.416 391.197 215.422 391.791 214.554C392.386 213.685 393.173 212.966 394.091 212.453Z" fill="#F5F5F5"/>
<path d="M499.381 172.441C499.381 172.441 493.444 174.384 486.19 167.475C478.936 160.567 464.429 145.066 458.492 142.756C452.555 140.446 446.942 132.534 441.998 130.558C437.054 128.583 437.972 131.552 437.972 131.552C437.972 131.552 431.754 129.155 432.769 133.862C432.769 133.862 429.584 135.178 432.661 137.812C435.737 140.446 446.283 148.693 449.932 149.351C449.932 149.351 463.792 167.162 471.046 175.744C478.299 184.325 484.333 185.944 484.28 204.748C484.226 223.552 499.381 172.441 499.381 172.441Z" fill="#F1463B"/>
<path opacity="0.2" d="M493.995 172.204C495.739 172.77 497.604 172.852 499.392 172.441C499.392 172.441 484.226 223.553 484.28 204.749C484.28 190.349 480.782 186.02 475.871 180.925C484.582 187.467 491.825 176.144 493.995 172.204Z" fill="black"/>
<path opacity="0.4" d="M432.769 133.851C431.754 129.145 437.972 131.541 437.972 131.541C437.972 131.541 437.054 128.573 441.998 130.548C446.942 132.523 452.555 140.447 458.492 142.746C460.331 143.612 462.045 144.723 463.587 146.049C463.004 150.086 460.856 155.256 453.559 154.015L449.91 149.341C446.283 148.683 435.737 140.447 432.639 137.802C429.541 135.157 432.769 133.851 432.769 133.851Z" fill="white"/>
<path d="M432.65 134.93C432.65 134.93 430.491 133.667 429.498 134.747C430.545 134.837 431.518 135.323 432.218 136.107L432.65 134.93Z" fill="#F1463B"/>
<path d="M435.338 131.692C434.821 130.882 434.039 130.277 433.126 129.979C432.212 129.682 431.223 129.711 430.329 130.062C431.156 130.118 431.94 130.446 432.561 130.995C433.182 131.544 433.604 132.282 433.762 133.095L435.338 131.692Z" fill="#F1463B"/>
<path d="M440.109 130.515C440.109 130.515 438.803 127.277 436.298 128.076C436.957 128.27 437.536 128.669 437.954 129.214C438.371 129.759 438.604 130.423 438.619 131.109L440.109 130.515Z" fill="#F1463B"/>
<g opacity="0.6">
<path opacity="0.6" d="M432.65 134.93C432.65 134.93 430.491 133.667 429.498 134.747C430.545 134.837 431.518 135.323 432.218 136.107L432.65 134.93Z" fill="white"/>
<path opacity="0.6" d="M435.338 131.692C434.821 130.882 434.039 130.277 433.126 129.979C432.212 129.682 431.224 129.711 430.329 130.062C431.156 130.118 431.941 130.446 432.562 130.995C433.182 131.544 433.604 132.282 433.762 133.095L435.338 131.692Z" fill="white"/>
<path opacity="0.6" d="M440.109 130.515C440.109 130.515 438.803 127.277 436.299 128.076C436.957 128.27 437.537 128.669 437.954 129.214C438.371 129.759 438.604 130.423 438.619 131.109L440.109 130.515Z" fill="white"/>
</g>
<path opacity="0.2" d="M436.298 134.758C436.298 134.758 440.616 135.211 442.624 137.996C442.57 137.996 442.214 132.955 436.298 134.758Z" fill="black"/>
<path d="M555.069 284.325C555.069 284.325 553.439 309.713 576.377 311.063C599.315 312.412 617.04 319.158 619.555 296.22C622.448 269.871 634.127 285.286 631.699 302.632C629.27 319.979 620.364 325.635 598.236 326.445C576.107 327.254 552.252 323.206 550.287 308.494L555.069 284.325Z" fill="#F1463B"/>
<path opacity="0.3" d="M619.987 293.057C622.934 274.437 631.073 282.49 631.947 295.562C630.24 294.33 628.293 293.471 626.233 293.04C624.172 292.608 622.045 292.614 619.987 293.057Z" fill="white"/>
<path opacity="0.3" d="M619.49 296.695C622.955 296.976 628.191 298.099 631.764 302.093C631.764 302.287 631.764 302.47 631.699 302.654C631.413 304.804 630.965 306.929 630.36 309.012C628.644 305.957 625.233 302.406 618.486 301.65C618.956 300.029 619.292 298.372 619.49 296.695Z" fill="white"/>
<g opacity="0.3">
<path opacity="0.3" d="M610.52 311.483C612.317 310.741 613.92 309.596 615.205 308.137C618.26 310.22 622.459 314.301 622.167 320.864C620.256 322.127 618.183 323.126 616.004 323.832C615.859 319.157 613.891 314.725 610.52 311.483Z" fill="white"/>
<path opacity="0.3" d="M594.231 326.541C594.987 323.368 595.926 317.776 594.836 312.746C597.232 312.94 599.499 313.048 601.615 313.016C603.295 317.2 603.672 321.794 602.694 326.196C601.258 326.304 599.78 326.39 598.225 326.444C596.93 326.498 595.57 326.531 594.231 326.541Z" fill="white"/>
<path opacity="0.3" d="M562.485 305.482C564.328 307.23 566.5 308.595 568.875 309.497C567.213 312.919 564.557 316.751 560.887 316.643C555.685 316.535 560.229 310.814 562.485 305.482Z" fill="white"/>
<path opacity="0.3" d="M580.047 323.314C576.636 323.206 577.748 316.254 578.245 311.192C580.717 311.365 583.113 311.591 585.444 311.829C584.926 316.039 583.523 323.422 580.047 323.314Z" fill="white"/>
</g>
<path opacity="0.1" d="M559.992 320.594C554.594 317.776 551 313.847 550.277 308.504L555.059 284.335C554.902 289.242 555.808 294.125 557.714 298.649C557.598 302.861 556.971 307.044 555.847 311.106C554.638 315.38 557.12 318.5 559.992 320.594Z" fill="black"/>
<path d="M537.464 253.302C537.464 253.302 508.319 243.587 495.009 257.986C481.7 272.386 503.343 311.645 493.584 313.211C483.826 314.776 455.102 308.04 450.806 314.29C449.662 315.93 448.811 317.756 448.291 319.687C448.105 320.44 448.094 321.225 448.258 321.983C448.422 322.741 448.756 323.452 449.236 324.061C449.716 324.67 450.329 325.161 451.027 325.497C451.726 325.834 452.492 326.006 453.267 326.002H511.654C511.654 326.002 515.173 326.002 512.831 321.317C512.874 321.317 564.007 306.777 537.464 253.302Z" fill="#F1463B"/>
<path opacity="0.2" d="M537.464 253.302C537.464 253.302 508.319 243.587 495.009 257.986C481.7 272.386 503.343 311.645 493.584 313.211C483.826 314.776 455.102 308.04 450.806 314.29C449.662 315.93 448.811 317.756 448.291 319.687C448.105 320.44 448.094 321.225 448.258 321.983C448.422 322.741 448.756 323.452 449.236 324.061C449.716 324.67 450.329 325.161 451.027 325.497C451.726 325.834 452.492 326.006 453.267 326.002H511.654C511.654 326.002 515.173 326.002 512.831 321.317C512.874 321.317 564.007 306.777 537.464 253.302Z" fill="black"/>
<path d="M523.852 143.565C523.852 143.565 522.049 132.588 520.074 131.508C518.099 130.429 517.915 140.327 516.447 141.763L523.852 143.565Z" fill="#F1463B"/>
<path opacity="0.2" d="M523.852 143.565C523.852 143.565 522.049 132.588 520.074 131.508C518.099 130.429 517.915 140.327 516.447 141.763L523.852 143.565Z" fill="black"/>
<path d="M499.09 144.418C499.253 144.023 499.316 143.592 499.273 143.166C499.122 141.914 497.902 141.374 496.812 141.094C496.413 140.997 496.585 140.371 496.985 140.468C497.649 140.55 498.276 140.822 498.791 141.251C499.306 141.679 499.687 142.247 499.888 142.886C500 143.514 499.918 144.162 499.651 144.742C499.467 145.12 498.917 144.742 499.09 144.418Z" fill="#F1463B"/>
<path d="M497.427 146.286C496.963 144.224 494.502 143.685 492.721 143.771C492.311 143.771 492.311 143.145 492.721 143.123C494.793 143.026 497.524 143.771 498.053 146.113C498.139 146.523 497.513 146.696 497.427 146.286Z" fill="#F1463B"/>
<path d="M496.304 147.786C495.603 146.61 493.8 147.052 492.807 147.452C492.418 147.603 492.257 146.977 492.634 146.826C493.94 146.308 495.991 146.016 496.866 147.452C496.91 147.526 496.923 147.615 496.902 147.699C496.881 147.783 496.827 147.855 496.752 147.9C496.678 147.944 496.589 147.957 496.505 147.936C496.421 147.915 496.349 147.861 496.304 147.786Z" fill="#F1463B"/>
<g opacity="0.5">
<path opacity="0.5" d="M499.09 144.418C499.253 144.023 499.316 143.592 499.273 143.166C499.122 141.914 497.902 141.374 496.812 141.094C496.413 140.997 496.585 140.371 496.985 140.468C497.649 140.55 498.276 140.822 498.791 141.251C499.306 141.679 499.687 142.247 499.888 142.886C500 143.514 499.918 144.162 499.651 144.742C499.467 145.12 498.917 144.742 499.09 144.418Z" fill="white"/>
<path opacity="0.5" d="M497.427 146.286C496.963 144.224 494.502 143.685 492.721 143.771C492.311 143.771 492.311 143.145 492.721 143.123C494.793 143.026 497.524 143.771 498.053 146.113C498.139 146.523 497.513 146.696 497.427 146.286Z" fill="white"/>
<path opacity="0.5" d="M496.305 147.786C495.603 146.61 493.8 147.052 492.807 147.452C492.419 147.603 492.257 146.977 492.634 146.826C493.941 146.308 495.992 146.016 496.866 147.452C496.91 147.526 496.923 147.615 496.902 147.699C496.881 147.783 496.827 147.855 496.753 147.9C496.678 147.944 496.589 147.957 496.505 147.936C496.421 147.915 496.349 147.861 496.305 147.786Z" fill="white"/>
</g>
<path d="M498.323 163.697C501.961 169.094 494.005 173.412 486.579 191.104C479.152 208.796 489.677 233.904 490.551 264.128C491.425 294.353 504.756 298.908 504.756 298.908L518.455 323.12C518.455 323.12 552.273 326.714 555.512 302.61C558.75 278.506 550.115 255.115 543.638 237.488C537.161 219.86 524.564 205.817 528.526 195.39C531.095 188.059 532.787 180.45 533.567 172.721C533.567 172.721 541.123 166.957 542.558 155.083C542.558 155.083 548.679 139.971 545.797 136.733C542.915 133.495 530.685 146.448 530.685 146.448C530.685 146.448 520.214 139.615 516.447 139.971C512.68 140.327 508.016 146.815 500.46 143.577C500.46 143.566 489.342 150.366 498.323 163.697Z" fill="#F1463B"/>
<path opacity="0.2" d="M490.551 264.129C489.677 233.904 479.12 208.775 486.579 191.105C494.038 173.434 501.939 169.106 498.323 163.698C489.342 150.367 500.482 143.577 500.482 143.577C500.925 143.76 501.356 143.912 501.777 144.041C503.127 144.959 504.314 146.081 504.217 147.171C504.023 149.633 502.652 151.727 507.121 157.653C513.187 165.695 504.562 178.4 498.021 186.884C491.48 195.368 488.921 193.631 488.306 208.192C487.561 225.107 499.554 245.778 503.418 259.196C506.656 270.519 511.428 292.594 509.161 306.507L504.843 298.951C504.843 298.951 491.426 294.353 490.551 264.129Z" fill="white"/>
<path opacity="0.6" d="M500.46 144.699C500.46 144.699 502.911 145.304 502.306 146.178C501.702 147.052 496.542 148.337 500.46 144.699Z" fill="#263238"/>
<path opacity="0.2" d="M536.978 152.925L532.39 148.607C532.39 148.607 541.706 136.733 544.534 138.352C547.362 139.971 538.467 141.731 536.978 152.925Z" fill="black"/>
<path opacity="0.2" d="M517.289 144.742C516.976 143.663 519.739 141.914 521.801 144.343C523.863 146.771 517.602 145.832 517.289 144.742Z" fill="white"/>
<path opacity="0.2" d="M514.342 142.994C514.925 143.318 516.501 141.547 515.486 140.554C514.472 139.561 513.748 142.659 514.342 142.994Z" fill="white"/>
<g opacity="0.6">
<path opacity="0.6" d="M505.631 151.122C508.632 150.765 511.428 152.784 513.111 155.051C513.36 155.396 512.798 155.709 512.55 155.385C510.996 153.28 508.394 151.435 505.631 151.769C505.221 151.769 505.221 151.165 505.631 151.122Z" fill="white"/>
<path opacity="0.6" d="M505.264 152.978C508.632 153.949 510.51 157.587 511.071 160.771C511.147 161.171 510.521 161.354 510.445 160.944C509.927 157.986 508.286 154.467 505.102 153.604C505.023 153.579 504.957 153.524 504.917 153.452C504.877 153.379 504.866 153.294 504.887 153.214C504.908 153.134 504.958 153.065 505.028 153.021C505.098 152.977 505.183 152.961 505.264 152.978Z" fill="white"/>
<path opacity="0.6" d="M503.429 154.241C504.195 155.148 504.772 156.198 505.128 157.331C505.484 158.463 505.611 159.655 505.501 160.837C505.501 161.247 504.843 161.247 504.854 160.837C504.962 159.736 504.852 158.625 504.529 157.568C504.207 156.51 503.679 155.526 502.976 154.673C502.684 154.382 503.138 153.917 503.429 154.22V154.241Z" fill="white"/>
</g>
<path opacity="0.2" d="M534.819 267.907L537.561 273.099L533.426 278.669L521.013 288.027C521.013 288.027 513.511 296.728 506.279 301.509L504.8 298.897C504.8 298.897 498.323 296.684 494.124 285.156C500.601 260.145 534.819 267.907 534.819 267.907Z" fill="black"/>
<path opacity="0.1" d="M486.33 228.593L505.674 219.126L512.874 211.203L513.953 216.601C513.953 216.601 514.104 242.119 497.762 244.666C493.984 245.27 491.145 244.396 488.737 244.018C487.982 238.664 487.118 233.515 486.33 228.593Z" fill="black"/>
<g opacity="0.3">
<path opacity="0.3" d="M532.326 181.238C523.776 181.001 510.618 171.037 520.074 172.721C524.498 173.528 529.008 173.76 533.491 173.412C533.362 174.686 533.006 177.59 532.326 181.238Z" fill="white"/>
<path opacity="0.3" d="M516.792 192.821C520.833 193.885 525.046 194.135 529.184 193.555C528.979 194.17 528.753 194.785 528.526 195.39C527.634 197.989 527.525 200.793 528.213 203.453C517.494 201.953 508.308 190.662 516.792 192.821Z" fill="white"/>
<path opacity="0.3" d="M528.234 252.233C538.014 252.999 544.005 249.135 546.909 246.512C548.053 249.75 549.197 253.204 550.277 256.734C530.21 262.304 514.558 251.175 528.234 252.233Z" fill="white"/>
<path opacity="0.3" d="M520.074 224.124C525.448 224.145 530.694 222.484 535.078 219.375C536.708 222.462 538.435 225.711 540.054 229.09C525.244 235.221 509.236 224.362 520.074 224.124Z" fill="white"/>
</g>
<path d="M512.453 147.247C511.946 148.218 512.064 149.287 512.744 149.589C513.424 149.891 514.277 149.405 514.785 148.412C515.292 147.419 515.162 146.361 514.482 146.059C513.802 145.757 512.95 146.243 512.453 147.247Z" fill="#263238"/>
<path d="M518.077 149.589C517.976 149.562 517.884 149.509 517.81 149.435C517.736 149.361 517.683 149.269 517.656 149.168C517.418 148.374 517.003 147.645 516.442 147.035C515.881 146.426 515.189 145.952 514.417 145.649C514.34 145.612 514.27 145.56 514.212 145.496C514.155 145.432 514.111 145.357 514.083 145.275C514.054 145.194 514.043 145.108 514.048 145.022C514.054 144.936 514.077 144.852 514.115 144.775C514.178 144.655 514.275 144.556 514.394 144.493C514.514 144.429 514.65 144.403 514.784 144.419C515.754 144.771 516.627 145.345 517.335 146.095C518.044 146.844 518.567 147.749 518.865 148.736C518.893 148.816 518.906 148.9 518.901 148.984C518.896 149.068 518.875 149.151 518.837 149.226C518.8 149.302 518.748 149.369 518.684 149.424C518.62 149.479 518.546 149.52 518.465 149.546C518.346 149.608 518.207 149.624 518.077 149.589Z" fill="#263238"/>
<path opacity="0.2" d="M484.549 216.18C487.367 212.38 490.249 196.75 490.249 196.75L491.544 193.879L494.513 200.085L492.084 215.888L485.381 222.462C485.067 220.325 484.776 218.231 484.549 216.18Z" fill="black"/>
<path d="M505.944 192.875C505.944 192.875 495.149 184.239 491.188 192.875C487.226 201.51 490.216 223.174 478.645 224.254C467.073 225.333 451.367 229.921 451.367 229.921C451.367 229.921 436.255 233.041 439.742 237.866C439.742 237.866 434.949 243.112 440.001 245.044C440.001 245.044 441.221 250.085 447.687 245.702C447.687 245.702 448.766 250.074 458.017 242.345C458.017 242.345 471.801 235.566 492.559 240.856C513.316 246.145 521.445 204.479 505.944 192.875Z" fill="#F1463B"/>
<path opacity="0.4" d="M439.742 237.822C436.212 232.997 451.367 229.878 451.367 229.878C458.233 227.93 465.193 226.338 472.222 225.106C474.478 225.635 477.004 226.715 477.932 228.949C479.465 232.684 473.863 236.214 473.032 238.923C463.608 239.56 458.017 242.302 458.017 242.302C448.777 250.031 447.687 245.659 447.687 245.659C441.21 250.041 440.001 245.001 440.001 245.001C434.949 243.068 439.742 237.822 439.742 237.822Z" fill="white"/>
<g opacity="0.2">
<path opacity="0.2" d="M446.888 240.37C446.888 240.37 442.441 241.449 441.081 243.953C441.124 243.953 441.372 239.344 446.888 240.37Z" fill="black"/>
<path opacity="0.2" d="M448.129 236.095C448.129 236.095 443.52 235.383 441.123 237.293C441.123 237.293 444.027 233.019 448.129 236.095Z" fill="black"/>
</g>
<path d="M546.639 270.573C546.639 270.573 518.573 260.858 505.264 275.258C491.954 289.657 506.041 312.725 496.283 314.29C486.525 315.855 464.278 308.04 459.981 314.29C458.837 315.93 457.986 317.756 457.466 319.687C457.281 320.44 457.269 321.225 457.433 321.983C457.597 322.741 457.932 323.452 458.411 324.061C458.891 324.67 459.504 325.161 460.203 325.498C460.901 325.834 461.667 326.007 462.443 326.002H520.873C520.873 326.002 524.392 326.002 522.049 321.317C522.049 321.317 573.182 324.048 546.639 270.573Z" fill="#F1463B"/>
<path opacity="0.3" d="M525.147 278.366C539.061 278.366 544.696 275.516 548.625 274.782C550.631 274.327 552.53 273.488 554.216 272.31C554.964 276.14 555.512 280.006 555.857 283.893C551.885 285.404 552.155 284.173 552.155 284.173C541.533 288.588 511.233 278.366 525.147 278.366Z" fill="white"/>
<g opacity="0.1">
<path opacity="0.1" d="M524.143 316.675C530.08 316.373 545.106 317.247 552.392 306.766C545.495 322.558 522.049 321.317 522.049 321.317C522.049 321.317 518.206 316.988 524.143 316.675Z" fill="black"/>
</g>
</svg>
