<svg fill="none" height="348" viewBox="0 0 375 348" width="375" xmlns="http://www.w3.org/2000/svg"><path d="m334.404 280.204c22.577 0 40.88-10.565 40.88-23.597 0-13.033-18.303-23.598-40.88-23.598s-40.88 10.565-40.88 23.598c0 13.032 18.303 23.597 40.88 23.597z" fill="#284059"/><path d="m285.632 297.925c-16.324-1.507-30.213-.469-41.249 1.816-1.457-10.417-9.978-20.614-25.623-28.577-34.464-17.571-90.351-17.571-124.8145 0-34.4638 17.571-34.4638 46.058 0 63.63 34.4635 17.571 90.3505 17.561 124.8145 0 3.611-1.825 7.069-3.941 10.337-6.326 11.29 2.561 22.849 3.744 34.424 3.522l1.187.389c9.378 3.018 19.155 4.616 29.006 4.739 7.613 0 13.969-1.207 17.561-3.652.376-.253.736-.529 1.078-.828 4.709.14 9.828.33 15.216-.748 7.813-1.577 11.644-4.989 11.425-9.1-.549-10.287-30.523-22.77-53.362-24.865zm-21.662 30.752c-6.706-2.465-10.278-5.827-9.879-9.359.529-4.65 7.394-8.841 15.636-9.529 1.137-.09 2.305-.14 3.462-.14 6.356 0 12.872 1.357 16.963 3.343-1.839.025-3.663.331-5.408.908-2.465.848-3.602 2.823-2.994 5.158.479 1.756 1.996 3.682 4.311 5.528-5.718 2.544-13.52 3.822-22.091 4.091zm26.82-12.442c1.207.002 2.412.102 3.602.299.039.086.069.177.09.269.489 1.736-1.337 3.912-5.069 6.097-2.564-1.716-4.101-3.443-4.44-4.7-.11-.389-.229-.838.878-1.217 1.588-.518 3.25-.771 4.919-.748zm-17.84 15.036c5.468-.57 10.807-2.029 15.805-4.32l.509-.26c5.359 2.944 11.244 4.809 17.321 5.488-7.224 2.575-20.524 2.195-33.635-.908zm38.026-1.995c-6.366-.273-12.612-1.831-18.36-4.58 3.552-2.385 5.299-4.879 5.219-7.444 3.486.948 6.767 2.531 9.678 4.67 2.645 1.996 4.081 4.171 3.992 5.897-.045.539-.234 1.057-.549 1.497zm15.964-.629c-4.43.898-8.601.709-12.452.729.126-.433.206-.878.239-1.328.2-2.873-1.656-5.986-5.228-8.71-3.9-2.857-8.373-4.835-13.111-5.797-4.38-5.448-17.731-7.803-26.94-7.045-9.899.838-17.901 6.166-18.609 12.413-.27 2.364.359 6.206 5.677 9.718-8.093-.284-16.149-1.236-24.087-2.844 8.122-6.984 12.183-14.966 12.193-22.829 10.767-2.275 24.466-3.323 40.72-1.826 23.898 2.195 50.03 14.668 50.409 21.792.06 2.165-3.103 4.62-8.831 5.767z" fill="#284059"/><g fill="#ecf8fb" opacity=".4"><path d="m128.102 6.20806-11.435 6.59544c.062-.4999.096-1.003.1-1.5067v-3.31267c0-5.89696-4.141-8.281686-9.25-5.33819-2.208 1.35774-4.094 3.1792-5.528 5.33819-.828-7.413606-6.6449-10.1775-13.7093-6.09652-7.6331 4.41025-13.8294 15.12659-13.8294 23.94709v4.9889c-.0476 1.977.355 3.9389 1.1774 5.7374l-9.499 5.4778c-1.4922.9736-2.734 2.2849-3.625 3.8277s-1.4062 3.2738-1.5037 5.0527c0 3.2728 2.2949 4.5998 5.1287 2.9934l61.9533-35.7709c1.491-.9741 2.733-2.2856 3.624-3.8283.891-1.5426 1.406-3.2733 1.504-5.05209.02-3.36257-2.285-4.68963-5.108-3.05325z"/><path d="m174.549 25.9446-7.294 4.2107c.041-.331.061-.6643.06-.9978v-2.0854c0-3.7517-2.634-5.2783-5.887-3.3925-1.401.8573-2.599 2.0078-3.512 3.3726-.539-4.7296-4.241-6.4857-8.741-3.8815-4.869 2.8039-8.821 9.6387-8.821 15.2663v3.163c-.032 1.2585.224 2.5076.749 3.6519l-6.057 3.5023c-.952.6188-1.745 1.4537-2.314 2.4368-.568.9831-.897 2.0866-.959 3.2207 0 2.0854 1.467 2.9335 3.273 1.8858l39.503-22.7996c.952-.621 1.745-1.4577 2.314-2.4425.568-.9847.897-2.0895.959-3.225 0-2.0853-1.467-2.8836-3.273-1.8858z"/></g><g fill="#d9f1f8" fill-opacity=".5" opacity=".4"><path d="m325.102 140.208-11.435 6.595c.062-.499.096-1.002.1-1.506v-3.313c0-5.897-4.141-8.282-9.25-5.338-2.208 1.358-4.094 3.179-5.528 5.338-.828-7.413-6.645-10.177-13.709-6.096-7.633 4.41-13.83 15.126-13.83 23.947v4.989c-.047 1.977.355 3.939 1.178 5.737l-9.499 5.478c-1.492.973-2.734 2.285-3.625 3.827-.891 1.543-1.406 3.274-1.504 5.053 0 3.273 2.295 4.6 5.129 2.994l61.953-35.771c1.491-.974 2.733-2.286 3.624-3.829.891-1.542 1.406-3.273 1.504-5.052.02-3.362-2.285-4.689-5.108-3.053z"/><path d="m371.549 159.945-7.294 4.21c.041-.331.061-.664.06-.997v-2.086c0-3.752-2.634-5.278-5.887-3.392-1.401.857-2.599 2.007-3.512 3.372-.539-4.729-4.241-6.485-8.741-3.881-4.869 2.804-8.821 9.638-8.821 15.266v3.163c-.032 1.258.224 2.508.749 3.652l-6.057 3.502c-.952.619-1.745 1.454-2.314 2.437-.568.983-.897 2.087-.959 3.221 0 2.085 1.467 2.933 3.273 1.886l39.503-22.8c.952-.621 1.745-1.458 2.314-2.443.568-.984.897-2.089.959-3.225 0-2.085-1.467-2.883-3.273-1.885z"/></g><g fill="#ecf8fb" opacity=".4"><path d="m.101657 126.208-11.434757 6.595c.0625-.499.0958-1.002.0998-1.506v-3.313c0-5.897-4.1408-8.282-9.2495-5.338-2.2077 1.358-4.0939 3.179-5.5278 5.338-.8282-7.413-6.6453-10.177-13.7097-6.096-7.6331 4.41-13.8294 15.126-13.8294 23.947v4.989c-.0476 1.977.355 3.939 1.1774 5.737l-9.499 5.478c-1.4922.973-2.734 2.285-3.625 3.827-.891 1.543-1.4062 3.274-1.5037 5.053 0 3.273 2.2949 4.6 5.1287 2.994l61.9529965-35.771c1.4915635-.974 2.7330035-2.286 3.6239435-3.829.89095-1.542 1.40641-3.273 1.50472-5.052.01995-3.362-2.28495-4.689-5.108703-3.053z"/><path d="m46.5489 145.945-7.2939 4.21c.0408-.331.0608-.664.0599-.997v-2.086c0-3.752-2.6342-5.278-5.887-3.392-1.4007.857-2.5989 2.007-3.5123 3.372-.5388-4.729-4.2406-6.485-8.7406-3.881-4.8693 2.804-8.8205 9.638-8.8205 15.266v3.163c-.0324 1.258.2236 2.508.7483 3.652l-6.0566 3.502c-.95235.619-1.74513 1.454-2.31384 2.437-.5687.983-.89726 2.087-.95892 3.221 0 2.085 1.46675 2.933 3.27276 1.886l39.5027-22.8c.9525-.621 1.7453-1.458 2.3139-2.443.5686-.984.8971-2.089.9588-3.225 0-2.085-1.4667-2.883-3.2727-1.885z"/></g><path d="m292.617 332.22c-9.852-.127-19.629-1.728-29.006-4.749l-1.187-.39c-16.414.469-35.302-2.664-49.092-7.802l1.138-3.054c11.344 4.221 26.691 7.075 40.909 7.534-5.328-3.512-5.987-7.354-5.677-9.709.708-6.256 8.7-11.584 18.608-12.422 9.2-.759 22.551 1.596 26.941 7.054 4.738.955 9.212 2.93 13.111 5.787 3.572 2.744 5.428 5.837 5.228 8.711-.033.45-.113.894-.239 1.327 3.851 0 7.982.17 12.452-.728 5.728-1.148 8.931-3.602 8.821-5.728-.379-7.124-26.511-19.596-50.409-21.791-31.829-2.934-53.881 3.881-63.17 10.606l-1.916-2.634c9.699-7.054 32.658-14.229 65.386-11.215 22.829 2.095 52.813 14.528 53.362 24.865.219 4.081-3.622 7.523-11.425 9.1-5.398 1.077-10.517.888-15.226.748-.337.301-.693.577-1.068.828-3.582 2.455-9.938 3.662-17.541 3.662zm-20.784-5.837c13.131 3.103 26.431 3.472 33.635.898-6.077-.678-11.962-2.542-17.321-5.488l-.509.26c-4.999 2.29-10.337 3.752-15.805 4.33zm19.666-6.536c5.75 2.744 11.995 4.299 18.36 4.57.284-.436.456-.937.499-1.456.119-1.717-1.328-3.872-3.992-5.897-2.913-2.136-6.194-3.718-9.678-4.67.11 2.564-1.637 5.099-5.189 7.453zm-19.427-15.096c-1.167 0-2.325 0-3.462.14-8.242.688-15.117 4.879-15.636 9.528-.399 3.533 3.173 6.895 9.869 9.36 8.591-.27 16.393-1.547 22.161-4.091-2.335-1.846-3.822-3.772-4.301-5.528-.629-2.335.509-4.31 2.993-5.159 1.746-.577 3.57-.883 5.409-.908-4.181-1.985-10.677-3.342-17.033-3.342zm17.601 6.585c-1.676-.026-3.345.227-4.939.749-1.107.379-.998.828-.878 1.217.339 1.257 1.866 2.993 4.44 4.7 3.732-2.186 5.558-4.361 5.069-6.097-.021-.093-.051-.183-.09-.269-1.191-.192-2.395-.292-3.602-.3z" fill="#f8a19b"/><g fill="#b6b7b8"><path d="m302.006 328.199c2.233.513 4.491.912 6.765 1.198.486-.246.956-.523 1.407-.829.375-.25.731-.527 1.067-.828 0 0-3.193-.159-5.777-.459-1.13.39-2.287.697-3.462.918z"/><path d="m285.742 322.911c.649-.27 1.287-.559 1.896-.858l.509-.26c-1.109-.605-2.161-1.309-3.143-2.105-.769.339-1.587.649-2.425.948.934.912 2.001 1.679 3.163 2.275z"/><path d="m293.365 311.905c.15.608.064 1.249-.239 1.796 1.1.14 2.18.415 3.213.818.267-.676.396-1.398.379-2.125-1.117-.375-2.271-.63-3.442-.758.038.086.069.177.089.269z"/><path d="m251.458 323.569c1.507 1.384 3.184 2.57 4.989 3.533 1.996.039 3.991.039 5.987 0-2.412-.923-4.747-2.034-6.985-3.323-1.347-.06-2.664-.12-3.991-.21z"/><path d="m219.149 304.242 1.916 2.634c3.652-2.654 9.31-5.318 16.773-7.393.365-1.166.645-2.357.838-3.563-8.76 2.255-15.366 5.299-19.527 8.322z"/><path d="m224.308 319.299c-3.493-.918-6.815-1.936-9.838-3.064l-1.138 3.054c2.455.918 5.079 1.756 7.813 2.534 1.087-.788 2.145-1.636 3.163-2.524z"/></g><path d="m161.198 181.164h-.07c-12.393-.469-24.127-9.678-35.472-18.579-9.698-7.613-18.868-14.807-26.7005-14.807-.4313 0-.845-.171-1.15-.476s-.4764-.719-.4764-1.15c0-.432.1714-.845.4764-1.15s.7187-.477 1.15-.477c8.9805 0 18.5585 7.524 28.7165 15.496 10.976 8.581 22.241 17.452 33.586 17.881.41.038.791.231 1.066.539.275.307.423.707.416 1.12-.008.412-.171.807-.457 1.104s-.673.476-1.085.499z" fill="#f8a19b"/><path d="m80.6466 252.686c-8.8205-3.272-16.3638-15.336-13.0811-28.766 3.9912-16.184 21.722-27.649 31.4705-37.038 18.12-17.452 29.215-31.401 23.438-56.505-5.059-21.952-25.4037-29.296-37.4969-28.847-14.967.569-24.4261 6.815-23.5979 11.675.3692 2.155 4.4502 3.113 7.6731 4.3 9.9779 3.652 13.091 5.887 16.284 10.188 4.8592 6.545 5.6774 15.096 4.6297 15.685s-2.4346-4.33-9.0699-7.164c-6.6354-2.834-9.8782-.788-9.8183.688.0598 1.477 6.1663 2.874 7.9823 11.655 1.5366 7.303 1.1674 16.713-9.8183 31.749-6.765 9.26-22.141 26.592-18.7884 48.713s20.1953 30.203 27.13 30.602z" fill="#f1463b"/><path d="m80.6466 252.686c-8.8205-3.272-16.3638-15.336-13.0811-28.766 3.9912-16.184 21.722-27.649 31.4705-37.038 18.12-17.452 29.215-31.401 23.438-56.505-5.059-21.952-25.4037-29.296-37.4969-28.847-14.967.569-24.4261 6.815-23.5979 11.675.3692 2.155 4.4502 3.113 7.6731 4.3 9.9779 3.652 13.091 5.887 16.284 10.188 4.8592 6.545 5.6774 15.096 4.6297 15.685s-2.4346-4.33-9.0699-7.164c-6.6354-2.834-9.8782-.788-9.8183.688.0598 1.477 6.1663 2.874 7.9823 11.655 1.5366 7.303 1.1674 16.713-9.8183 31.749-6.765 9.26-22.141 26.592-18.7884 48.713s20.1953 30.203 27.13 30.602z" fill="#000" opacity=".05"/><path d="m77.5834 259.621 3.0632-6.925c-2.5497-.99-4.8519-2.526-6.7451-4.5-1.3601 3.066-2.3935 6.267-3.0831 9.549 2.1276 1.017 4.4175 1.652 6.765 1.876z" fill="#000" opacity=".15"/><path d="m106.32 127.313c1.347-.888.868-2.993.199-4.41-1.72-3.807-4.159-7.246-7.1836-10.128 2.2016.464 4.3676 1.077 6.4856 1.836 3.073.998 5.059 2.305 5.518 1.168.159-.866.118-1.757-.12-2.604-.539-2.116-1.058-2.884-1.786-3.453-7.013-5.405-15.642-8.291-24.4958-8.192-14.9669.569-24.426 6.815-23.5978 11.674.3692 2.156 4.4501 3.114 7.673 4.301 9.978 3.652 13.0911 5.887 16.284 10.187 0 .06 3.612 1.787 5.2384 2.824.7071.513 1.5234.854 2.3848.998.3955.041.7933-.054 1.1275-.269 1.1175-.739.878-2.415.4689-3.682-.8105-2.485-1.8113-4.903-2.9933-7.234 3.8807.89 7.4676 2.763 10.4173 5.438 1.247 1.147 2.953 2.444 4.38 1.546z" fill="#92140c"/><path d="m154.882 246.869c1.267 17.342 6.984 28.138 18.778 38.155 11.794 10.018 28.627 15.965 36.061 19.238 7.433 3.273 12.971 7.184 18.319 2.634s4.909-14.398 14.438-22.221c9.529-7.822 12.872-9.978 13.121-15.685.319-7.493-6.895-7.304-9.1-6.176 0 0-1.866-3.193-7.184-1.996-2.737.667-5.105 2.379-6.595 4.769 0 0-3.313-.199-6.815 3.074-3.103 2.893-9.14 10.666-9.14 10.666s6.446-10.128 3.632-20.954c-2.544-9.798-8.811-12.472-8.811-12.472s2.695-1.377 9.899-.09c0 0-2.994-8.361-16.145-11.604s-21.841 6.166-21.841 6.166z" fill="#f1463b"/><path d="m235.034 262.903c-.924.754-1.719 1.654-2.354 2.664 1.995 0 6.176.21 7.643 5.299.04 0 1.696-5.738-5.289-7.963z" fill="#000" opacity=".15"/><path d="m247.746 268.781s2.704-1.527 1.138-6.536c-.824.039-1.633.231-2.385.569.665.825 1.124 1.796 1.341 2.833s.185 2.111-.094 3.134z" fill="#000" opacity=".15"/><path d="m239.285 278.449c-3.34.799-6.436 2.396-9.022 4.656-2.587 2.259-4.585 5.113-5.825 8.315-2.994 7.114-1.926 11.874.997 12.602 2.924.729 4.291.32 6.815-3.522 2.096-4.779 4.071-10.706 10.268-15.795l4.829-3.941c-.339-2.096-3.073-3.542-8.062-2.315z" fill="#f28f8f"/><path d="m237.768 271.664c-1.996-.788-3.991 3.831-1.736 4.709 1.866.729 4.34-3.652 1.736-4.709z" fill="#ffa8a7"/><path d="m245.412 270.097c-1.946-.788-3.991 3.832-1.736 4.71 1.866.778 4.33-3.652 1.736-4.71z" fill="#f28f8f"/><path d="m251.687 269.938c-1.945-.798-3.991 3.822-1.736 4.7 1.876.728 4.351-3.642 1.736-4.7z" fill="#f28f8f"/><path d="m134.328 202.327c-.998 5.538-21.842 10.806-36.1499 21.593-14.3083 10.786-26.9404 25.493-24.6954 50.987 2.4646 27.938 27.6493 38.245 40.9093 38.245 13.261 0 58.541-3.512 81.72-36.489 23.178-32.977-8.043-76.401-61.784-74.336z" fill="#f1463b"/><path d="m101.72 266.915s7.214-12.722 27.02-9.21 18.03 34.194 18.03 34.194.22 17.152-12.442 15.356-32.608-40.34-32.608-40.34z" fill="#000" opacity=".15"/><path d="m134.328 202.327c-.15.643-.467 1.235-.918 1.717-.848 10.217 2.305 23.388 13.969 27.01 12.682 3.991 27.001 1.676 36.609-1.706 3.163-1.128 6.241-2.482 9.21-4.051-11.794-14.159-32.648-23.977-58.87-22.97z" fill="#000" opacity=".15"/><path d="m142.32 274.777h-.349c-43.9029-9.429-60.0672-37.138-65.8544-52.823-7.4834-20.395-8.132-42.736-1.6164-55.587.1932-.39.5335-.688.9461-.827.4126-.14.8637-.11 1.254.084.3903.193.688.533.8274.946.1394.412.1091.863-.084 1.254-6.1265 12.093-5.4181 33.386 1.776 52.992 5.5178 15.047 21.1033 41.648 63.4393 50.748.4.078.756.302.998.629.243.327.353.733.311 1.138-.043.405-.236.779-.541 1.049-.305.269-.7.415-1.107.407z" fill="#f8a19b"/><path d="m239.555 263.861c5.049 29.235-13.969 56.934-42.496 61.863s-55.747-14.767-60.806-44.003c-4.25-24.605 9.08-45.11 30.423-53.88 6.272-2.564 12.923-4.078 19.687-4.481 25.793-1.586 48.542 13.63 53.192 40.501z" fill="#f8a19b"/><path d="m260.799 264.429c-11.167 3.674-22.908 5.463-34.706 5.286 2.373-.915 4.686-1.971 6.923-3.163 5.084-2.621 11.436-5.557 12.822-11.359.272-1.083-1.105-.874-1.64-.445-3.969 3.154-8.744 7.164-13.928 10.223-5.831 3.364-12.782 4.435-19.41 2.988-1.368-.289-2.718-.612-4.114-.97 4.705-.892 9.231-2.509 13.403-4.788 9.65-5.304 14.607-12.748 16.311-23.12.199-1.171-1.043-1.555-1.813-.795-1.486 1.424-1.758 2.936-2.437 4.875-2.184 6.117-5.22 9.664-10.63 13.491-3.816 2.669-8.12 4.62-12.686 5.75-2.32.559-4.721.655-7.068 1.005-2.41.426-4.895.196-7.177-.665-1.778-.799-3.501-1.71-5.156-2.726 10.158-.576 21.503-9.235 28.028-15.098 6.905-6.213 11.898-13.98 10.783-23.207-.19-1.652-2.166-.656-2.401.463-.906 4.307-1.314 7.138-3.398 11.245-2.105 3.978-5.049 7.487-8.645 10.302-7.503 6.265-17.834 13.01-28.028 13.91-1.423-1.014-2.836-2.071-4.177-3.198 7.639-2.752 14.163-8.248 19.5-14.19 3.206-3.45 5.697-7.46 7.34-11.813 1.024-2.779 3.308-7.366 2.103-10.276-.571-1.363-2.32-.069-2.42.874-.716 7.086-4.929 13.98-9.614 19.406-2.229-5.976-3.779-11.227-3.353-17.833.251-3.123.702-6.228 1.35-9.297.199-.987.535-1.957 0-2.875-.734-1.319-2.456.734-2.202 1.696-.063-.245-.906 1.022-.988 1.109-.77 1.293-.697 3.233-.906 4.684-.442 2.431-.699 4.889-.77 7.357-.163 6.5 1.704 12.093 4.304 17.955-2.457 2.25-5.107 4.295-7.92 6.117-1.712-1.223-2.908-4.369-3.869-6.055-1.561-2.435-2.93-4.979-4.096-7.611-2.51-6.3-1.912-13.744-4.648-19.721-.318-.699-1.65.105-1.677.656-.235 8.196 1.169 16.654 4.893 24.115 1.45 2.919 3.553 7.987 6.271 10.809-.687.496-1.436.907-2.229 1.223-.835.38-1.729.625-2.646.725-2.157.14-3.362-1.747-4.649-3.119-1.499-1.617-2.905-3.312-4.213-5.076-3.215-4.275-5.713-9.011-7.404-14.033-1.323-4.185-1.015-9.009-3.099-12.958-1.006-1.905-3.434.061-2.881 1.704 1.459 4.369.67 9.148 2.075 13.613 2.001 5.942 4.995 11.528 8.862 16.54 6.164 7.978 14.164 14.469 23.37 18.961 12.686 5.994 28.934 9.463 44.058 8.039-16.435 3.007-33.42 1.396-48.933-4.64-17.67-6.877-35.341-22.29-39.944-40.682-.19-.699-1.486-.315-1.54.297-.907 9.096 6.343 18.724 12.532 24.937 7.086 7.077 14.607 13.762 24.113 17.772 10.339 4.369 20.706 7.279 32.078 7.48 4.584.131 9.172.038 13.747-.28-5.682 1.843-11.608 2.897-17.598 3.128-7.766.096-15.477-1.232-23.017-2.901-12.251-2.717-22.491-7.567-31.761-15.85-3.708-3.461-7.025-7.292-9.895-11.429-2.809-3.87-6.941-8.318-7.992-12.993-.236-1.057-2.057.105-1.985.874.29 3.854 2.184 7.515 4.241 10.765 1.151 1.835 2.474 3.539 3.77 5.243 1.316 1.53 2.13 3.404 2.338 5.382.072 1.678-.562 3.076-.816 4.683-.254 1.608-.553 2.945-.816 4.421-.514 3.06-.772 6.154-.77 9.254-.09 9.978 4.848 18.619 10.43 26.676.58.873 2.075-.498 1.812-1.267-3.062-9.288-8.952-16.646-8.4-26.869.281-5.085 1.813-9.777 3.018-14.626.1.105.208.227.308.314 1.758 1.748 3.625 3.495 5.528 5.077 1.54 1.275 3.28 2.717 3.053 4.875-.298 1.452-.726 2.875-1.277 4.256-.425 1.59-.727 3.208-.907 4.84-.362 2.805-.48 5.636-.697 8.45-.68 9.157 1.812 20.891 8.681 27.733.175.138.394.214.62.214.227 0 .446-.076.621-.214.957 2.102 2.288 4.027 3.933 5.688.136.13.315.211.507.229.191.018.383-.028.542-.131.16-.103.279-.256.335-.433s.048-.367-.025-.539c-2.685-6.699-3.826-13.882-3.344-21.049 6.57 2.849 15.904 2.386 22.174.507 4.835-1.34 9.422-3.404 13.593-6.116 4.626-2.914 8.597-6.693 11.68-11.115 8.011-.637 14.68-3.032 21.694-7.068.289-.216.516-.5.66-.824.145-.324.201-.678.164-1.029 1.74-.495 3.436-1.12 5.075-1.87.41-.281.71-.688.85-1.154.14-.467.112-.965-.08-1.414 5.983-1.312 11.656-3.702 16.719-7.043.942-.559 1.287-2.831-.417-2.289zm-88.242 24.387c.371-.796.77-1.599 1.196-2.377.848-1.596 1.798-3.14 2.845-4.622.061-.092.112-.188.154-.289 1.698.583 3.432 1.125 5.202 1.626 3.624.961 7.385 1.799 11.218 2.455-.317 0-1.432 1.005-1.694 1.188-.599.411-1.215.821-1.813 1.197-1.202.749-2.466 1.4-3.779 1.949-2.495 1.104-5.201 1.699-7.947 1.747-1.356-.067-2.697-.308-3.987-.716-1.06-.297-1.894-1.031-1.395-2.158zm-7.938 12.643c-.444 3.672-.444 7.381 0 11.053-2.465-6.457-4.169-12.984-3.715-20.053.371-5.797 1.417-11.536 3.117-17.108 0 .279 3.697 2.141 4.077 2.35.997.533 3.58 1.25 3.979 2.386.072.218.072.454 0 .672-.166.51-.421.988-.753 1.416-4.059 5.845-5.935 12.294-6.705 19.284zm39.427-7.488c-3.606 2.528-7.603 4.492-11.844 5.819-6.551 2.123-16.256 3.093-22.998 0 .306-1.904.741-3.787 1.305-5.636 3.325 1.538 8.364 1.381 11.363.874 5.437-.97 12.768-3.914 15.786-8.694 4.851.644 9.748.901 14.643.769-2.498 2.558-5.265 4.859-8.255 6.868z" fill="#f1463b" opacity=".15"/><g fill="#000" opacity=".15"><path d="m146.561 284.386c-4.421-12.492-10.817-11.604-10.817-11.604s2.625-1.517 9.879-.609c0 0-1.996-5.448-9.28-8.691-1.135 6.025-1.165 12.205-.09 18.24 1.284 7.458 4.1 14.57 8.272 20.884 1.976-4.071 4.51-11.225 2.036-18.22z" opacity=".15"/><path d="m161.937 319.209c1.561-3.542 3.845-6.72 6.705-9.329 9.1-8.312 12.322-10.676 12.263-16.354-.07-7.503-7.264-6.984-9.41-5.697 0 0-1.995-3.093-7.274-1.627-2.699.809-4.973 2.643-6.336 5.109 0 0-3.562-.369-7.263 3.602-2.165 2.509-4.165 5.155-5.987 7.923 4.469 6.684 10.381 12.279 17.302 16.373z" opacity=".15"/></g><path d="m237.649 241.76c-.18-4.43-2.864-10.387-6.336-15.296-5.787-8.182-14.119-13.251-22.52-15.965l-21.652 13.47c23.089-.778 31.041 11.375 33.176 18.16 1.477 4.69 2.724 8.302 5.458 8.302.702.064 1.403-.142 1.959-.575.556-.434.926-1.063 1.035-1.76 1.885 1.796 4.709.728 4.829-1.577.474.244 1.015.324 1.539.231.525-.094 1.004-.357 1.365-.749.47-.591.815-1.273 1.013-2.002.197-.729.243-1.491.134-2.239z" fill="#f1463b"/><path d="m208.793 210.459-21.652 13.51c2.724-.104 5.452-.004 8.162.299 6.204-3.26 11.814-7.544 16.593-12.672-1.018-.419-2.052-.798-3.103-1.137z" fill="#000" opacity=".15"/><path d="m236.511 246c.005-.016.005-.033 0-.05-.223.078-.46.108-.695.089s-.464-.087-.672-.2c-.207-.112-.389-.267-.534-.454-.144-.187-.247-.402-.304-.632-.738-1.766-.998-2.594-1.357-2.993.465 1.542.674 3.15.619 4.759.478.253 1.028.34 1.561.246s1.019-.363 1.382-.765z" fill="#000" opacity=".15"/><path d="m231.951 248.804c-.574-.053-1.115-.294-1.539-.685s-.707-.912-.806-1.48c-.558-1.856-.888-2.435-1.287-2.834.396 1.394.551 2.845.459 4.291.405.411.919.697 1.482.822.563.126 1.15.086 1.691-.114z" fill="#000" opacity=".15"/><path d="m73.4824 274.907c2.1752 17.251 8.4214 27.728 20.7641 37.118 12.3425 9.389 29.4345 14.448 37.0185 17.311 7.583 2.864 13.32 6.486 18.439 1.667 5.119-4.82 4.141-14.638 13.251-22.95 9.109-8.311 12.322-10.676 12.272-16.354-.079-7.503-7.263-6.934-9.419-5.697 0 0-1.995-3.093-7.274-1.626-2.697.812-4.97 2.645-6.336 5.108 0 0-3.562-.369-7.264 3.602-2.893 3.104-7.982 10.976-7.982 10.976s7.603-10.976 3.882-21.482c-4.421-12.493-10.817-11.605-10.817-11.605s2.625-1.516 9.889-.608c0 0-3.363-8.98-16.733-10.737-3.902-.491-7.865-.088-11.588 1.177s-7.11 3.36-9.905 6.127z" fill="#f1463b"/><path d="m154.413 286.701c-.89.796-1.639 1.737-2.215 2.784 2.864-.05 6.336.199 8.112 5.358 0 0 2.235-5.817-5.897-8.142z" fill="#000" opacity=".15"/><path d="m167.364 291.899s2.624-1.666.798-6.585c-.821.081-1.619.314-2.354.688.709.789 1.22 1.735 1.491 2.761.27 1.025.293 2.101.065 3.136z" fill="#000" opacity=".15"/><path d="m159.433 301.997c-3.288.972-6.291 2.726-8.753 5.112-2.463 2.386-4.31 5.332-5.386 8.588-2.614 7.273-1.307 11.973 1.616 12.542 2.924.569 4.301.1 6.626-3.872 1.836-4.889 3.502-10.915 9.419-16.314 1.746-1.596 3.283-2.993 4.61-4.2-.379-2.046-3.213-3.323-8.132-1.856z" fill="#f28f8f"/><path d="m157.068 295.801c-1.996-.689-3.782 3.991-1.487 4.789 1.906.629 4.151-3.871 1.487-4.789z" fill="#f28f8f"/><path d="m165.11 293.336c-1.996-.688-3.782 3.991-1.487 4.799 1.906.629 4.151-3.881 1.487-4.799z" fill="#f28f8f"/><path d="m171.376 292.847c-1.996-.688-3.792 3.991-1.487 4.79 1.906.628 4.141-3.872 1.487-4.79z" fill="#f28f8f"/><path d="m143.887 331.003c-11.844-2.554-10.258-8.98-15.556-12.752s-17.102-2.365-36.0304-17.851c-18.9282-15.485-19.8062-49.091-7.713-63.729-7.6331 9.39-12.5821 21.493-11.1054 38.246.2337 2.667.7046 5.309 1.4069 7.892 2.9934 12.732 8.9801 21.363 19.3572 29.226 12.3527 9.379 29.4347 14.478 37.0177 17.312 7.584 2.833 13.321 6.485 18.44 1.666.409-.392.783-.82 1.117-1.277-1.007.674-2.143 1.135-3.336 1.353-1.192.218-2.417.188-3.598-.086z" fill="#000" opacity=".05"/><path d="m188.538 248.056c-6.176-8.491-11.036-12.462-18.529-16.653v-4.859c-1.128.389-2.245.808-3.333 1.257-10.373 4.126-19.106 11.543-24.855 21.113 22.81-1.716 33.077 9.919 35.622 16.614 1.786 4.699 3.272 8.311 6.066 8.152.715.013 1.409-.243 1.943-.718.535-.476.871-1.135.941-1.847 1.995 1.717 4.859.469 4.839-1.885.499.218 1.056.267 1.586.139s1.003-.426 1.348-.848c.443-.632.753-1.349.909-2.106s.156-1.538-.001-2.294c-.449-4.5-2.944-11.096-6.536-16.065z" fill="#000" opacity=".15"/><path d="m196.021 260.778c-.439-4.51-2.913-11.105-6.525-16.064-6.186-8.491-11.036-12.463-18.539-16.653v-5.907s-27.03 5.538-27.529 23.498c23.538-2.165 32.378 9.778 34.923 16.583 1.786 4.7 3.272 8.312 6.066 8.152.715.014 1.409-.243 1.943-.718.535-.475.871-1.134.941-1.846 1.995 1.716 4.859.469 4.839-1.886.499.219 1.056.268 1.586.14s1.003-.426 1.348-.848c1.047-1.268 1.107-2.854.947-4.451z" fill="#f1463b"/><path d="m195.124 265.178v-.049c-.224.092-.464.137-.706.131-.243-.006-.481-.062-.7-.166-.219-.103-.413-.251-.572-.434-.158-.183-.276-.397-.347-.629-.858-1.756-1.138-2.594-1.567-2.993.573 1.547.883 3.179.918 4.829.502.231 1.067.288 1.605.163.538-.124 1.019-.424 1.369-.852z" fill="#000" opacity=".15"/><path d="m190.623 268.312c-.59-.022-1.156-.237-1.612-.612-.457-.375-.777-.889-.912-1.464-.678-1.866-1.058-2.434-1.487-2.814.487 1.399.733 2.87.729 4.351.437.395.98.656 1.562.752.582.095 1.179.021 1.72-.213z" fill="#000" opacity=".15"/><path d="m150.442 231.872c8.841 2.046 18.19 1.377 26.053-.389-1.706-1.187-3.522-2.295-5.538-3.422v-5.907s-12.353 2.544-20.515 9.718z" fill="#000" opacity=".15"/><path d="m176.784 163.064c2.724-8.631 14.638-19.517 24.676-16.354 5.647 1.776 3.382 22.62 3.382 22.62s-18.349 1.407-28.058-6.266z" fill="#f1463b"/><path d="m176.784 163.064c2.724-8.631 14.638-19.517 24.676-16.354 5.647 1.776 3.382 22.62 3.382 22.62s-18.349 1.407-28.058-6.266z" fill="#000" opacity=".15"/><path d="m185.314 167.295c9.24 2.824 19.527 1.996 19.527 1.996s2.265-20.844-3.382-22.62c-3.662-.499-12.543 5.078-16.145 20.624z" fill="#ffa8a7"/><path d="m197.179 159.622c-.858-2.315.798-5.298.798-5.298-3.382 0-7.793 3.472-8.202 9.07 0 0 6.895 8.301 13.97 3.901.269-1.187.771-2.31 1.476-3.303.06-1.436.1-3.053.07-4.719-2.7-.434-5.46-.316-8.112.349z" fill="#f28f8f"/><path d="m153.385 171.286c-7.513-4.989-23.618-6.096-29.485 2.644-3.303 4.919 11.515 19.797 11.515 19.797s15.176-10.387 17.97-22.441z" fill="#f1463b"/><path d="m153.385 171.286c-7.513-4.989-23.618-6.096-29.485 2.644-3.303 4.919 11.515 19.797 11.515 19.797s15.176-10.387 17.97-22.441z" fill="#000" opacity=".15"/><path d="m149.364 179.917c-5.458 7.982-13.969 13.809-13.969 13.809s-14.817-14.877-11.514-19.796c2.544-2.714 12.961-3.901 25.483 5.987z" fill="#ffa8a7"/><path d="m131.784 177.422s3.163 1.297 3.941 3.642c0 0-4.59 1.996-6.855 5.189.848 1.097 1.716 2.135 2.525 3.083 1.462.27 2.834.901 3.991 1.836 8.271-.998 7.982-11.195 7.982-11.195-2.913-4.171-8.94-4.67-11.584-2.555z" fill="#f28f8f"/><path d="m185.035 224.768c-9.608 3.382-23.947 5.657-36.609 1.716-15.116-4.709-15.964-25.464-12.273-35.022 3.692-9.559 11.226-19.298 28.517-25.394 17.292-6.097 29.286-3.233 38.136 1.915 8.85 5.149 21.213 21.842 12.383 34.983-7.414 11.016-20.545 18.419-30.154 21.802z" fill="#f1463b"/><path d="m184.956 222.603c19.148-6.756 18.15-17.961 13.311-22.471-4.84-4.51-12.862-5.488-22.022-2.265s-14.787 9.04-15.745 15.566c-.958 6.525 5.298 15.915 24.456 9.17z" fill="#f0f0f0"/><path d="m179.717 214.58s.778 3.243 3.193 2.435c2.414-.808.998-3.872.998-3.872l-2.994-2.175z" fill="#f28f8f"/><path d="m179.598 207.426-4.5-.499c-.164-.018-.314-.101-.417-.231-.103-.129-.151-.293-.132-.457.018-.164.101-.314.23-.417.13-.103.294-.151.458-.132l3.922.439 2.843-2.764c.058-.058.126-.104.202-.135.075-.032.156-.048.237-.048.082 0 .163.016.238.048.076.031.144.077.201.135.115.117.179.275.179.439s-.064.322-.179.439z" fill="#575757"/><path d="m176.345 216.715c-1.055-.001-2.084-.328-2.945-.938-.861-.609-1.512-1.47-1.864-2.464-.055-.156-.045-.327.027-.476s.201-.263.357-.317.327-.045.476.028c.149.072.263.2.317.356.34.964 1.049 1.754 1.972 2.196.922.442 1.982.499 2.947.159s1.755-1.05 2.196-1.972c.442-.923.499-1.983.159-2.947l-1.188-3.373c-.028-.077-.041-.159-.038-.241.003-.083.023-.163.058-.238.035-.074.084-.141.145-.196s.133-.098.211-.125c.077-.027.159-.039.242-.034.082.005.162.027.236.063.074.037.139.087.193.149.054.063.095.135.121.213l1.187 3.372c.223.631.319 1.3.283 1.968s-.203 1.323-.492 1.926-.695 1.144-1.193 1.59c-.498.447-1.08.791-1.711 1.012-.544.194-1.118.292-1.696.289z" fill="#575757"/><path d="m184.786 213.723c-.759-.003-1.509-.173-2.195-.499-.605-.287-1.146-.692-1.594-1.191-.447-.498-.79-1.08-1.01-1.713l-1.187-3.372c-.029-.078-.042-.16-.039-.242.004-.082.023-.163.058-.237.035-.075.085-.141.146-.197.061-.055.132-.097.21-.124.077-.028.16-.039.242-.034s.162.026.236.063c.074.036.14.087.194.149.053.062.094.134.12.212l1.187 3.373c.171.48.435.922.777 1.299.343.376.757.681 1.219.896.688.329 1.458.446 2.213.337.755-.108 1.46-.438 2.028-.947s.972-1.174 1.162-1.913c.19-.738.157-1.517-.095-2.236-.054-.155-.044-.325.027-.473s.198-.261.353-.316c.076-.028.158-.04.239-.037.082.004.161.025.235.06s.139.085.193.146c.054.062.095.133.121.211.447 1.274.37 2.673-.213 3.891-.584 1.218-1.627 2.154-2.9 2.604-.554.198-1.139.296-1.727.29z" fill="#575757"/><path d="m198.176 187.859c.294.834.333 1.737.114 2.593-.22.857-.688 1.629-1.347 2.22-.658.59-1.477.972-2.352 1.096-.876.125-1.768-.012-2.566-.395-.797-.382-1.463-.993-1.913-1.754s-.665-1.638-.616-2.521.358-1.732.889-2.439 1.259-1.241 2.094-1.534c1.118-.392 2.346-.325 3.414.188 1.069.513 1.89 1.429 2.283 2.546z" fill="#262525"/><path d="m152.877 203.814c.294.831.828 1.556 1.535 2.084.706.527 1.553.833 2.434.88.88.046 1.754-.169 2.512-.62.758-.45 1.366-1.115 1.746-1.91.381-.796.517-1.686.391-2.559-.125-.872-.507-1.688-1.096-2.344-.588-.657-1.359-1.123-2.213-1.342s-1.754-.179-2.586.113c-1.115.396-2.029 1.218-2.54 2.286-.51 1.068-.576 2.295-.183 3.412z" fill="#262525"/><path d="m139.856 204.573c-.122 0-.243-.023-.356-.069-.113-.047-.216-.115-.303-.201-3.412-3.482-9.17-7.054-17.202-4.25-.233.082-.489.068-.711-.039-.223-.107-.394-.297-.476-.53s-.068-.489.038-.712c.107-.222.298-.393.531-.476 8.98-3.113 15.356.839 19.147 4.7.087.086.156.189.203.302s.071.234.071.357c0 .122-.024.243-.071.356s-.116.216-.203.302c-.087.087-.192.155-.307.2-.115.044-.238.065-.361.06z" fill="#92140c"/><path d="m137.79 206.887c-.173.004-.344-.045-.489-.139-3.083-1.896-8.691-1.906-11.634-.639-.112.05-.233.077-.355.079-.123.003-.245-.018-.359-.063-.114-.044-.218-.111-.306-.196s-.159-.187-.208-.299c-.082-.229-.077-.48.013-.706s.259-.411.476-.521c3.373-1.447 9.689-1.497 13.351.768.209.13.358.337.414.577.056.239.015.491-.115.7-.082.136-.197.248-.336.325-.138.077-.294.116-.452.114z" fill="#92140c"/><path d="m123.402 214.72c-.19-.003-.375-.064-.529-.174-.155-.11-.272-.265-.337-.443s-.074-.372-.026-.556c.047-.184.149-.349.293-.473 5.518-4.65 12.662-5.508 16.962-4.341.223.078.408.236.517.445.11.208.136.45.074.677s-.208.422-.408.545c-.201.124-.441.166-.672.119-3.851-.997-10.267-.239-15.276 3.992-.168.139-.38.214-.598.209z" fill="#92140c"/><path d="m207.556 180.725h-.09c-.243-.023-.467-.14-.624-.327-.156-.187-.233-.428-.214-.671.529-5.388 2.993-12.472 11.973-15.655.232-.081.485-.068.706.037.222.105.392.294.475.524.083.231.072.484-.032.706-.103.222-.29.394-.52.479-7.982 2.864-10.267 9.24-10.746 14.089-.025.228-.134.438-.306.589-.171.151-.393.233-.622.229z" fill="#92140c"/><path d="m210.609 181.234c-.104-.002-.209-.019-.309-.05-.115-.04-.222-.103-.313-.184-.09-.082-.164-.181-.216-.292-.052-.11-.082-.23-.087-.352s.015-.244.057-.359c1.427-4.051 6.376-7.982 9.918-8.98.118-.033.242-.043.363-.028.122.014.24.053.346.113.107.06.201.141.276.238s.131.207.163.325c.033.118.043.24.028.361s-.054.238-.114.344-.141.199-.238.273c-.096.074-.207.129-.325.16-3.093.868-7.463 4.38-8.671 7.793-.06.185-.178.346-.335.461-.158.114-.348.177-.543.177z" fill="#92140c"/><path d="m211.556 185.176c-.194 0-.383-.064-.538-.18-.099-.071-.183-.162-.248-.265-.064-.104-.107-.22-.126-.34-.02-.121-.015-.244.013-.363.028-.118.08-.23.151-.329 2.624-3.602 8.711-7.384 15.965-7.234.246 0 .482.098.656.272s.272.41.272.656-.098.482-.272.656-.41.272-.656.272c-6.566-.15-12.044 3.252-14.388 6.475-.094.129-.22.232-.365.299-.145.066-.305.094-.464.081z" fill="#92140c"/><path d="m191.451 163.523c.798-3.652 4.251-7.164 7.633-7.164 0 0-1.666 2.993-.808 5.298 0 0 8.631-2.265 11.744 1.736 0 0-3.911.719-5.178 5.937-7.075 4.4-13.391-5.807-13.391-5.807z" fill="#f1463b"/><path d="m142.24 180.795c-2.903-2.355-7.792-2.943-10.437-.828 0 0 3.164 1.297 3.942 3.642 0 0-8.152 3.612-8.092 8.691 0 0 3.532-1.866 7.782 1.417 8.252-.948 6.805-12.922 6.805-12.922z" fill="#f1463b"/><path d="m172.514 163.832c-1.178.27-1.268-1.915-.729-4.629.489-2.455 2.465-7.354-.998-7.294-3.462.06-7.184 3.173-8.641 9.1-.968-1.269-1.692-2.707-2.135-4.241-.549-2.235-3.342-2.435-4.57 1.996-.938 3.382.689 6.765 1.587 8.181.499.789.289 2.096-1.377 2.994 0 0 7.194 2.464 12.043 0 4.85-2.465 4.82-6.107 4.82-6.107z" fill="#f1463b"/><path d="m163.982 182.791c.288-.022.568-.1.825-.231s.484-.312.67-.532c.186-.221.326-.476.412-.751s.116-.564.089-.851c-.545-4.664-2.458-9.063-5.498-12.642-1.427.608-2.794 1.247-4.071 1.905 3.113 3.652 4.889 7.384 5.239 11.146.045.543.292 1.05.693 1.42.401.369.926.575 1.472.575z" fill="#92140c"/><path d="m177.163 175.357c.099.494.365.939.755 1.259.389.32.876.496 1.38.497.14.015.28.015.419 0 .281-.055.548-.164.786-.322.238-.159.442-.362.602-.599.159-.238.27-.504.327-.784.056-.28.057-.569.001-.849-.919-4.226-2.991-8.115-5.986-11.235-1.637.269-3.313.618-5.069 1.067 3.702 3.433 5.987 7.095 6.785 10.966z" fill="#92140c"/><path d="m163.313 166.587c2.285 2.524 5.937 7.363 6.805 13.24.075.516.333.988.727 1.328.394.341.898.529 1.419.528h.329c.57-.086 1.083-.395 1.425-.859.343-.464.487-1.045.401-1.615-.929-5.217-3.234-10.091-6.675-14.119-.998.299-1.996.628-3.074.998z" fill="#92140c"/><path d="m84.6769 307.136h-.1596c-.213-.02-.42-.082-.6091-.182s-.3566-.237-.4929-.402c-.1362-.165-.2386-.355-.3012-.56-.0626-.204-.0842-.419-.0636-.632.6586-6.865 7.4037-18.809 23.3185-23.578 15.426-4.63 31.58.589 38.285 8.301.156.16.277.349.357.557s.116.43.107.653-.063.441-.159.642c-.097.201-.233.38-.401.526s-.364.256-.577.324c-.212.068-.436.092-.657.07-.222-.022-.437-.088-.632-.196s-.366-.254-.502-.43c-4.939-5.688-19.447-11.974-34.923-7.324-14.3682 4.31-20.4348 14.777-21.0135 20.764-.0409.394-.2232.76-.513 1.029-.2899.27-.6678.425-1.0636.438z" fill="#f8a19b"/><path d="m100.652 319.608c-.431 0-.8438-.17-1.1501-.472-.3063-.303-.481-.714-.4863-1.144 0-3.343 2.4644-14.738 10.7764-21.892 4.397-3.801 9.813-6.23 15.576-6.988 5.763-.757 11.622.191 16.852 2.727.358.221.618.57.725.977.107.406.054.838-.149 1.206s-.539.645-.94.771c-.401.127-.835.095-1.212-.09-4.638-2.242-9.832-3.075-14.938-2.394-5.107.681-9.901 2.846-13.789 6.226-7.344 6.316-9.659 16.563-9.639 19.387.003.432-.165.848-.468 1.156-.303.309-.716.485-1.148.49z" fill="#f8a19b"/><path d="m79.758 154.792c-4.8193 11.355-.4091 35.492 9.4791 50.369 10.6764 16.064 32.3289 36.29 56.6149 45.27.355.137.651.393.837.724.187.332.252.718.185 1.092-.068.374-.263.714-.554.959-.29.246-.657.383-1.037.388-.19 0-.38-.034-.559-.1-24.944-9.24-47.2351-30.024-58.2009-46.527-11.1354-16.693-15.4259-43.544-8.9003-55.238.4685-.849 1.0129-1.654 1.6264-2.405.3432 1.803.5136 3.633.5088 5.468z" fill="#f8a19b"/></svg>
