<svg width="381" height="380" viewBox="0 0 381 380" fill="none" xmlns="http://www.w3.org/2000/svg">
<g clip-path="url(#clip0_1220_56284)">
<path d="M323.979 362.895H55.9561C46.6439 362.895 39.0938 355.345 39.0938 346.033V149.009C39.0938 139.697 46.6439 132.146 55.9561 132.146H323.979C333.292 132.146 340.842 139.697 340.842 149.009V346.033C340.842 355.345 333.292 362.895 323.979 362.895Z" fill="#22A7F0"/>
<path opacity="0.5" d="M52.4066 345.144V149.898C52.4066 140.097 60.353 132.146 70.1585 132.146H56.8456C47.0444 132.146 39.0938 140.093 39.0938 149.898V345.148C39.0938 354.949 47.0401 362.9 56.8456 362.9H70.1585C60.353 362.896 52.4066 354.949 52.4066 345.144Z" fill="#B2E4FF"/>
<path d="M196.073 259.095L38.7969 131.352H349.72L196.073 259.095Z" fill="#6AC5F8"/>
<path d="M113.271 34.9414C102.755 34.9414 94.2305 43.4198 94.2305 53.8791V148.568C94.2305 159.031 102.755 167.505 113.271 167.505H265.6C276.12 167.505 284.641 159.031 284.641 148.568V53.8791C284.641 43.4198 276.12 34.9414 265.6 34.9414H113.271Z" fill="#F49C0B"/>
<path d="M-4241.6 1647.24V1531.8C-4241.6 1313.97 -4188.04 1118.32 -4080.9 944.838C-3976.05 772.662 -3826.74 625.268 -3632.99 502.658C-3439.24 381.352 -3210.15 288.089 -2945.74 222.871C-2681.32 158.957 -2389.55 127 -2070.43 127C-1749.03 127 -1454.98 158.957 -1188.29 222.871C-923.872 288.089 -693.648 381.352 -497.616 502.658C-303.863 625.268 -153.419 772.662 -46.2856 944.838C58.5689 1118.32 110.996 1313.97 110.996 1531.8V1647.24C110.996 1865.07 58.5689 2060.72 -46.2856 2234.21C-153.419 2407.69 -302.723 2555.08 -494.196 2676.39C-687.949 2799 -917.033 2892.26 -1181.45 2956.17C-1448.14 3021.39 -1742.19 3054 -2063.59 3054C-2382.72 3054 -2674.48 3021.39 -2938.9 2956.17C-3205.6 2892.26 -3435.82 2799 -3629.57 2676.39C-3823.32 2555.08 -3973.77 2407.69 -4080.9 2234.21C-4188.04 2060.72 -4241.6 1865.07 -4241.6 1647.24ZM-3024.38 1531.8V1651.15C-3024.38 1792.02 -3002.72 1915.94 -2959.42 2022.9C-2918.39 2131.16 -2856.84 2221.81 -2774.78 2294.86C-2692.72 2367.9 -2591.29 2422.69 -2470.47 2459.21C-2351.94 2497.04 -2216.32 2515.95 -2063.59 2515.95C-1904.03 2515.95 -1764.99 2497.04 -1646.46 2459.21C-1527.92 2422.69 -1428.77 2367.9 -1348.99 2294.86C-1269.21 2221.81 -1208.8 2131.16 -1167.77 2022.9C-1129.02 1915.94 -1109.65 1792.02 -1109.65 1651.15V1531.8C-1109.65 1392.24 -1129.02 1268.32 -1167.77 1160.06C-1208.8 1053.1 -1269.21 962.447 -1348.99 888.098C-1431.05 813.749 -1531.34 757.662 -1649.87 719.835C-1770.69 682.008 -1910.87 663.095 -2070.43 663.095C-2223.15 663.095 -2358.78 682.008 -2477.31 719.835C-2595.84 757.662 -2695 813.749 -2774.78 888.098C-2856.84 962.447 -2918.39 1053.1 -2959.42 1160.06C-3002.72 1268.32 -3024.38 1392.24 -3024.38 1531.8Z" fill="white"/>
<path d="M-7199.18 3014.87V166.131H-5999.05V3014.87H-7199.18ZM-8696.78 3014.87V2484.64H-4535.65V3014.87H-8696.78Z" fill="white"/>
<path d="M-11411.6 1132.67H-10173.9V1662.89H-11411.6C-11580.3 1662.89 -11717 1679.2 -11821.9 1711.81C-11926.7 1744.42 -12003.1 1789.42 -12051 1846.81C-12101.1 1905.5 -12126.2 1971.38 -12126.2 2044.42C-12126.2 2122.68 -12101.1 2195.07 -12051 2261.6C-12003.1 2328.12 -11926.7 2381.6 -11821.9 2422.03C-11717 2463.77 -11580.3 2484.64 -11411.6 2484.64H-10625.2V166.131H-9425.06V3014.87H-11411.6C-11810.5 3014.87 -12153.6 2973.13 -12440.8 2889.65C-12730.3 2806.17 -12952.5 2691.39 -13107.5 2545.3C-13262.5 2400.51 -13340 2234.86 -13340 2048.33C-13340 1864.42 -13262.5 1703.98 -13107.5 1567.02C-12952.5 1430.06 -12730.3 1323.1 -12440.8 1246.15C-12153.6 1170.49 -11810.5 1132.67 -11411.6 1132.67Z" fill="white"/>
</g>
<defs>
<clipPath id="clip0_1220_56284">
<rect width="380" height="380" fill="white" transform="translate(0.5)"/>
</clipPath>
</defs>
</svg>
