<svg width="381" height="380" viewBox="0 0 381 380" fill="none" xmlns="http://www.w3.org/2000/svg">
<rect x="74.6016" y="39.9004" width="231.8" height="323" rx="10" fill="#AEC1B3"/>
<rect x="74.6016" y="19" width="231.8" height="323" rx="10" fill="#BADDC2"/>
<path d="M101.199 93.0996V112.1H279.799V93.0996H101.199Z" fill="#7F8C8D"/>
<path d="M101.199 131.1V150.1H279.799V131.1H101.199ZM101.199 169.1V188.1H279.799V169.1H101.199ZM101.199 207.1V226.1H279.799V207.1H101.199Z" fill="#7F8C8D"/>
<path fill-rule="evenodd" clip-rule="evenodd" d="M249.401 326.8C269.338 326.8 285.501 310.637 285.501 290.7C285.501 270.762 269.338 254.6 249.401 254.6C229.463 254.6 213.301 270.762 213.301 290.7C213.301 310.637 229.463 326.8 249.401 326.8ZM249.401 321.642C266.49 321.642 280.344 307.789 280.344 290.7C280.344 273.61 266.49 259.757 249.401 259.757C232.312 259.757 218.458 273.61 218.458 290.7C218.458 307.789 232.312 321.642 249.401 321.642Z" fill="#F7BF75"/>
<circle cx="131.5" cy="153" r="12" fill="#F7BF75"/>
</svg>
