<svg width="56" height="18" viewBox="0 0 56 18" fill="none" xmlns="http://www.w3.org/2000/svg">
<path d="M36.1008 0.0277176C32.1684 0.0277176 28.6542 2.06597 28.6542 5.83178C28.6542 10.1505 34.8867 10.4488 34.8867 12.6183C34.8867 13.5319 33.8398 14.3496 32.0518 14.3496C29.5142 14.3496 27.6176 13.207 27.6176 13.207L26.8061 17.0071C26.8061 17.0071 28.9909 17.9723 31.8916 17.9723C36.191 17.9723 39.5741 15.834 39.5741 12.0037C39.5741 7.44028 33.3156 7.15085 33.3156 5.13711C33.3156 4.4215 34.175 3.63741 35.958 3.63741C37.9696 3.63741 39.6109 4.46841 39.6109 4.46841L40.4051 0.798131C40.4051 0.798131 38.6193 0.0277176 36.1008 0.0277176ZM0.12293 0.30472L0.02771 0.858725C0.02771 0.858725 1.68209 1.1615 3.17212 1.76547C5.09066 2.45805 5.22733 2.86124 5.55045 4.1135L9.0714 17.6866H13.7913L21.0626 0.30472H16.3535L11.6813 12.1228L9.77473 2.10524C9.59988 0.958737 8.71422 0.30472 7.63013 0.30472H0.12293ZM22.9562 0.30472L19.2621 17.6866H23.7525L27.4336 0.30472H22.9562ZM48.0011 0.30472C46.9182 0.30472 46.3445 0.884439 45.9235 1.89748L39.3447 17.6866H44.0538L44.9649 15.0551H50.7018L51.2558 17.6866H55.4109L51.786 0.30472H48.0011ZM48.6135 5.00078L50.0093 11.5233H46.2698L48.6135 5.00078Z" fill="#1434CB"/>
</svg>
