<svg width="678" height="477" viewBox="0 0 678 477" fill="none" xmlns="http://www.w3.org/2000/svg">
<path d="M178.55 348.922C178.768 346.237 179.794 343.681 181.492 341.591C183.09 339.491 185.304 337.944 187.824 337.166C189.974 336.554 192.267 336.67 194.345 337.496C196.423 338.323 198.17 339.813 199.314 341.736C200.283 339.805 201.841 338.231 203.762 337.244C205.682 336.256 207.867 335.905 210 336.242C212.594 336.721 214.974 338.001 216.807 339.9C218.744 341.765 220.061 344.182 220.58 346.822C221.201 350.194 220.72 353.678 219.208 356.755C217.411 359.885 214.897 362.543 211.873 364.509C206.966 367.877 200.515 372.104 200.515 372.104C200.515 372.104 194.605 368.207 189.354 365.499C186.112 363.914 183.298 361.572 181.149 358.67C179.256 355.786 178.345 352.367 178.55 348.922Z" fill="#657684"/>
<path d="M546.224 203.029C546.435 200.343 547.461 197.784 549.166 195.699C550.757 193.597 552.967 192.049 555.485 191.274C557.635 190.661 559.928 190.777 562.006 191.604C564.084 192.43 565.831 193.921 566.975 195.844C567.945 193.912 569.502 192.339 571.423 191.351C573.343 190.363 575.528 190.012 577.661 190.349C580.255 190.829 582.635 192.108 584.468 194.008C586.405 195.875 587.726 198.29 588.254 200.929C588.86 204.311 588.365 207.797 586.843 210.876C585.05 214.009 582.535 216.667 579.508 218.629C574.613 221.997 568.149 226.224 568.149 226.224C568.149 226.224 562.252 222.262 556.989 219.62C553.747 218.035 550.933 215.693 548.783 212.791C546.901 209.898 546.004 206.474 546.224 203.029Z" fill="#657684"/>
<path d="M214.259 316.125C214.389 314.4 215.048 312.758 216.146 311.423C217.17 310.071 218.59 309.073 220.209 308.569C221.071 308.334 221.973 308.274 222.859 308.394C223.745 308.515 224.598 308.812 225.367 309.27C226.275 309.828 227.038 310.593 227.596 311.502C228.218 310.262 229.218 309.253 230.452 308.621C231.686 307.989 233.088 307.768 234.456 307.988C236.122 308.284 237.652 309.103 238.823 310.326C240.068 311.526 240.916 313.08 241.25 314.778C241.648 316.946 241.333 319.184 240.353 321.158C239.203 323.17 237.588 324.878 235.643 326.137C232.491 328.304 228.348 331.025 228.348 331.025C228.348 331.025 224.549 328.515 221.172 326.745C219.088 325.726 217.279 324.223 215.895 322.36C214.696 320.511 214.122 318.325 214.259 316.125Z" fill="#657684"/>
<path d="M523.654 235.367C523.792 233.644 524.45 232.004 525.541 230.664C526.567 229.317 527.987 228.324 529.604 227.824C530.986 227.443 532.455 227.522 533.788 228.051C535.121 228.581 536.246 229.53 536.992 230.757C537.428 229.892 538.05 229.135 538.812 228.538C539.518 227.986 540.33 227.585 541.196 227.358C542.062 227.131 542.966 227.083 543.851 227.217C545.517 227.523 547.044 228.346 548.218 229.568C549.466 230.766 550.314 232.32 550.645 234.019C551.042 236.187 550.727 238.425 549.748 240.399C548.602 242.414 546.986 244.123 545.039 245.379C541.886 247.532 537.743 250.253 537.743 250.253C537.743 250.253 533.957 247.757 530.567 245.973C528.481 244.959 526.67 243.454 525.29 241.588C524.092 239.744 523.519 237.562 523.654 235.367Z" fill="#657684"/>
<path d="M590.34 302.138C590.47 300.413 591.129 298.77 592.227 297.435C593.251 296.083 594.671 295.086 596.29 294.582C597.152 294.346 598.054 294.287 598.94 294.407C599.826 294.527 600.679 294.825 601.448 295.282C602.356 295.841 603.119 296.606 603.677 297.514C604.296 296.272 605.296 295.26 606.53 294.628C607.765 293.996 609.169 293.776 610.537 294.001C612.199 294.309 613.725 295.126 614.904 296.339C616.15 297.538 616.997 299.092 617.331 300.79C617.722 302.958 617.407 305.194 616.434 307.17C615.282 309.186 613.662 310.894 611.711 312.15C608.572 314.316 604.416 317.037 604.416 317.037C604.416 317.037 600.63 314.528 597.253 312.758C595.169 311.739 593.36 310.235 591.976 308.372C590.777 306.523 590.203 304.338 590.34 302.138Z" fill="#657684"/>
<path d="M223.031 370.862C223.12 369.727 223.558 368.647 224.285 367.771C224.948 366.883 225.87 366.224 226.923 365.882C227.492 365.726 228.087 365.687 228.672 365.766C229.256 365.846 229.819 366.042 230.326 366.344C230.921 366.719 231.422 367.225 231.791 367.824C232.081 367.254 232.491 366.754 232.991 366.358C233.458 365.996 233.994 365.734 234.565 365.586C235.137 365.439 235.732 365.409 236.316 365.499C237.413 365.697 238.42 366.238 239.192 367.045C240.025 367.827 240.6 368.845 240.841 369.964C241.098 371.396 240.89 372.873 240.247 374.177C239.489 375.509 238.421 376.637 237.134 377.466C235.062 378.893 232.319 380.676 232.319 380.676C232.319 380.676 229.825 379.025 227.596 377.863C226.228 377.185 225.04 376.194 224.126 374.97C223.33 373.754 222.946 372.313 223.031 370.862Z" fill="#657684"/>
<path d="M151.649 51.2594C151.649 51.2594 145.567 56.543 158.773 68.7084C165.452 75.0698 172.548 80.9785 180.012 86.3951C180.012 86.3951 182.65 89.3804 179.933 91.0051C177.215 92.6298 170.395 93.9771 170.395 98.0586C170.395 102.14 174.353 104.808 181.041 105.865C187.729 106.922 202.148 109.828 203.375 110.039C204.602 110.25 206.304 111.532 204.615 112.945C202.927 114.358 188.956 121.24 192.624 127.673C196.291 134.106 215.209 134.027 217.28 134.066C219.351 134.106 220.063 134.7 220.287 135.757C220.512 136.814 215.591 138.676 211.699 140.79C207.808 142.903 203.665 146.073 206.08 149.6C208.494 153.127 221.409 157.684 246.276 151.172L257.608 147.407L260.246 135.678C264.283 110.264 258.505 97.8473 254.745 95.7867C250.986 93.7261 248.268 98.1511 246.54 102.233C244.812 106.314 243.44 111.4 242.371 111.294C241.303 111.188 240.63 110.515 240.392 108.454C240.155 106.393 238.4 87.5311 231.633 84.5195C224.865 81.5078 219.404 96.0905 218.164 97.9133C216.924 99.7362 215.525 98.2039 215.156 96.9623C214.786 95.7206 210.525 81.6003 208.824 75.1015C207.122 68.6027 204.233 64.8778 200.024 65.2741C195.816 65.6703 195.302 72.605 193.943 75.4846C192.584 78.3641 189.365 76.0261 189.365 76.0261C183.238 69.1106 176.653 62.6148 169.656 56.5826C156.24 44.6946 151.53 51.3783 151.53 51.3783" fill="#657684"/>
<path d="M259.125 149.825C249.31 141.001 232.12 125.032 217.293 111.4C202.465 97.7684 189.035 85.4312 179.26 76.5681L167.677 66.0802C166.358 64.8385 165.25 63.8875 164.524 63.2138L163.706 62.4741L163.442 62.21C163.544 62.2782 163.641 62.3533 163.733 62.4345C163.93 62.6194 164.221 62.8572 164.577 63.161L167.756 65.9613C170.527 68.4049 174.511 71.9582 179.418 76.3699C189.246 85.1935 202.702 97.5042 217.53 111.123C232.358 124.741 249.547 140.763 259.309 149.627" fill="#657684"/>
<path d="M180.011 96.5386C180.322 96.5015 180.636 96.5015 180.947 96.5386H183.296C185.274 96.5386 188.018 96.5386 191.039 96.7236L198.77 97.0672L201.118 97.1597C201.403 97.1332 201.69 97.1332 201.976 97.1597C201.694 97.2191 201.406 97.2457 201.118 97.239C200.551 97.239 199.799 97.239 198.757 97.239C196.778 97.239 194.047 97.1201 191.026 97.0011L183.282 96.6972L180.947 96.6179C180.633 96.6326 180.318 96.6059 180.011 96.5386Z" fill="#657684"/>
<path d="M202.413 96.1447C202.307 96.1447 202.188 90.4781 202.149 83.5038C202.109 76.5294 202.149 70.8496 202.268 70.8496C202.387 70.8496 202.479 76.5162 202.519 83.4906C202.558 90.4649 202.505 96.1447 202.413 96.1447Z" fill="#657684"/>
<path d="M224.233 118.096C224.272 117.805 224.338 117.517 224.431 117.238C224.616 116.63 224.827 115.917 225.091 114.939C225.645 112.985 226.41 110.29 227.109 107.291C227.808 104.293 228.428 101.559 228.785 99.5643C228.983 98.6396 229.128 97.8471 229.26 97.2131C229.295 96.9194 229.366 96.6311 229.471 96.3545C229.482 96.651 229.46 96.9479 229.405 97.2395C229.326 97.8075 229.22 98.5604 229.049 99.6171C228.719 101.612 228.204 104.372 227.479 107.384C226.753 110.396 225.962 113.077 225.342 115.019C225.025 115.983 224.774 116.749 224.576 117.291C224.495 117.572 224.38 117.843 224.233 118.096Z" fill="#657684"/>
<path d="M204.062 122.958C204.303 122.831 204.561 122.737 204.828 122.681L206.965 122.087C208.772 121.585 211.265 120.938 214.036 120.237C216.806 119.537 219.313 118.917 221.133 118.494L223.283 118.005C223.548 117.939 223.817 117.895 224.088 117.873C223.845 117.997 223.588 118.09 223.323 118.15L221.199 118.745C219.392 119.247 216.885 119.894 214.128 120.594C211.371 121.294 208.851 121.915 207.031 122.338L204.867 122.826C204.603 122.893 204.334 122.937 204.062 122.958Z" fill="#657684"/>
<path d="M220.868 144.778C221.186 144.635 221.518 144.524 221.858 144.448L224.588 143.669C226.897 143.021 230.089 142.163 233.625 141.225C237.16 140.287 240.366 139.468 242.701 138.887L245.458 138.226C245.791 138.132 246.13 138.066 246.474 138.028C246.161 138.175 245.834 138.29 245.498 138.372L242.767 139.151C240.458 139.785 237.253 140.657 233.717 141.582C230.182 142.506 226.976 143.338 224.654 143.919L221.897 144.58C221.562 144.684 221.217 144.75 220.868 144.778Z" fill="#657684"/>
<path d="M245.827 138.016C245.867 137.644 245.942 137.277 246.051 136.92C246.236 136.167 246.474 135.163 246.777 133.974C247.384 131.478 248.215 128.03 249.02 124.2C249.824 120.369 250.484 116.869 250.933 114.346C251.157 113.131 251.341 112.127 251.473 111.347C251.524 110.976 251.603 110.61 251.711 110.251C251.711 110.627 251.68 111.003 251.618 111.374C251.526 112.087 251.394 113.117 251.196 114.385C250.814 116.935 250.207 120.435 249.389 124.266C248.571 128.096 247.7 131.557 247.028 134.04C246.685 135.282 246.394 136.273 246.183 136.959C246.087 137.319 245.968 137.672 245.827 138.016Z" fill="#657684"/>
<path d="M524.313 124.78C506.794 109.418 505.079 84.2553 508.219 62.1964C508.747 58.4979 508.76 54.5484 510.857 51.4839C512.955 48.4195 517.308 46.6495 520.461 48.5648C523.1 50.1631 523.917 53.4917 525.171 56.3052C526.839 60.0626 529.538 63.2689 532.954 65.5515C535.183 67.0309 538.02 68.0876 540.487 67.0573C543.864 65.6439 544.708 61.2718 545.091 57.5733C545.786 50.7046 546.48 43.8316 547.175 36.9541C547.348 33.2471 548.123 29.5931 549.471 26.136C550.988 22.7545 553.864 19.7825 557.478 19.1749C561.093 18.5673 565.196 21.0638 565.539 24.7491C565.523 26.2886 565.395 27.8249 565.156 29.3458C565.033 30.1184 565.146 30.91 565.481 31.6171C565.815 32.3242 566.355 32.9137 567.029 33.3085C568.454 33.9029 570.037 33.0179 571.251 31.9876C575.446 28.6721 578.546 24.1547 581.475 19.6504C584.403 15.1462 587.266 10.457 591.224 6.71888C595.181 2.98076 600.221 0.338968 605.524 0.603147C610.827 0.867325 616.077 4.73754 616.869 10.0607C617.661 15.3839 614.046 20.3505 610.273 24.1943C604.714 29.9198 598.361 34.8134 591.408 38.7241C590.076 39.2845 588.958 40.2564 588.216 41.498C587.147 43.8624 589.218 46.557 591.553 47.6269C594.192 48.829 597.2 48.8686 600.036 49.5158C602.872 50.1631 605.84 51.7745 606.632 54.6013C607.74 58.5639 604.165 62.1436 600.788 64.3891C594.032 68.9062 586.547 72.2218 578.665 74.1901C575.855 74.8902 572.913 75.511 570.525 77.1225C568.137 78.734 566.422 82.0098 567.478 84.6516C568.533 87.2934 571.818 88.6143 574.707 88.3765C577.596 88.1387 580.314 86.8839 583.124 86.1574C588.4 84.8365 594.878 85.8404 597.635 90.5692C598.463 92.1818 598.906 93.9647 598.929 95.7778C598.951 97.5908 598.554 99.3844 597.767 101.017C596.16 104.267 593.917 107.16 591.171 109.524C582.113 118.3 570.892 124.513 558.652 127.528C546.489 130.328 535.5 130.262 524.287 124.741" fill="#657684"/>
<path d="M531.541 111.478C536.526 99.7834 542.172 88.3833 548.453 77.3327C550.115 74.3871 551.738 71.4811 553.348 68.6148C554.957 65.7485 556.566 62.9217 558.295 60.2403C561.643 55.1113 565.267 50.1682 569.152 45.4331C572.832 40.8893 576.486 36.7152 579.93 32.8318C583.373 28.9484 586.684 25.4084 589.824 22.2647C594.736 17.3411 600.029 12.814 605.654 8.72552C607.646 7.27254 609.229 6.20261 610.311 5.48933L611.551 4.68359C611.687 4.58423 611.833 4.50008 611.986 4.43262C611.863 4.54854 611.731 4.65454 611.591 4.74963L610.39 5.60821C609.335 6.34791 607.752 7.45746 605.813 8.93686C600.249 13.0988 595.002 17.6684 590.114 22.6081C587.014 25.7386 583.742 29.2918 580.312 33.1752C576.882 37.0587 573.254 41.2591 569.6 45.803C565.734 50.5192 562.135 55.4495 558.822 60.5706C557.094 63.2123 555.511 66.0391 553.902 68.9054L549.007 77.6233C542.736 88.6496 537.086 100.018 532.082 111.676" fill="#657684"/>
<path d="M558.494 60.2419C558.383 59.7117 558.321 59.1722 558.31 58.6304C558.217 57.5869 558.151 56.0811 558.085 54.2187C557.967 50.4937 557.967 45.3423 557.993 39.6888C558.019 34.0354 557.993 28.8707 557.769 25.159C557.676 23.2966 557.597 21.7907 557.518 20.7604C557.452 20.2209 557.452 19.6753 557.518 19.1357C557.666 19.658 557.763 20.1932 557.808 20.734C557.967 21.7643 558.125 23.2701 558.27 25.1194C558.573 28.8443 558.719 33.9958 558.692 39.6492C558.666 45.3026 558.626 50.322 558.6 54.179V58.5908C558.633 59.1434 558.598 59.6981 558.494 60.2419Z" fill="#657684"/>
<path d="M606.777 56.4902C606.14 56.5437 605.5 56.5437 604.864 56.4902C603.637 56.4902 601.856 56.4902 599.666 56.4902C595.286 56.4902 589.231 56.7015 582.516 57.2299C575.802 57.7582 569.826 58.5508 565.485 59.1848C563.309 59.5018 561.528 59.8056 560.354 60.0038C559.729 60.1451 559.094 60.2335 558.454 60.2679C559.05 60.0292 559.669 59.8521 560.301 59.7396C561.501 59.4622 563.243 59.0791 565.406 58.6961C569.747 57.9167 575.775 57.0846 582.464 56.543C588.168 56.0732 593.891 55.8925 599.613 56.0015C601.803 56.0015 603.571 56.16 604.811 56.2656C605.472 56.2748 606.131 56.35 606.777 56.4902Z" fill="#657684"/>
<path d="M532.215 110.66C532.099 110.471 532.01 110.266 531.951 110.052L531.331 108.256C530.791 106.684 530.012 104.399 529.234 101.559C527.532 95.8793 525.435 87.9671 523.231 79.2096C521.028 70.4521 519.01 62.5267 517.427 56.8205L515.54 50.0707C515.343 49.3442 515.171 48.7498 515.039 48.2347C514.964 48.0219 514.92 47.7995 514.907 47.5742C515.011 47.7741 515.099 47.9816 515.171 48.195C515.329 48.6838 515.54 49.2782 515.791 49.9915C516.332 51.5633 517.044 53.8485 517.889 56.6884C519.59 62.355 521.688 70.2672 523.891 79.0379C526.094 87.8086 528.113 95.7208 529.696 101.493L531.582 108.243C531.78 108.969 531.951 109.564 532.083 110.079C532.151 110.266 532.195 110.462 532.215 110.66Z" fill="#657684"/>
<path d="M597.279 97.1604C597.076 97.2601 596.858 97.3227 596.633 97.3454L594.746 97.768L587.768 99.221C581.884 100.463 573.784 102.246 564.827 104.254C555.869 106.261 547.677 107.965 541.82 109.075C538.865 109.643 536.464 110.066 534.802 110.396L532.889 110.673C532.666 110.711 532.438 110.711 532.216 110.673C532.426 110.595 532.642 110.533 532.862 110.488L534.762 110.079L541.727 108.613C547.611 107.384 555.724 105.588 564.682 103.593C573.639 101.599 581.765 99.8683 587.675 98.7587C590.63 98.2039 593.031 97.7812 594.694 97.5171L596.606 97.2265C596.827 97.1757 597.053 97.1535 597.279 97.1604Z" fill="#657684"/>
<path d="M78.2462 154.174L64.9337 161.859C65.0081 161.255 65.0446 160.647 65.0429 160.038V156.232C65.0429 149.384 60.2351 146.598 54.2982 150.04C51.7418 151.604 49.5548 153.704 47.8878 156.195C46.9043 147.563 40.1479 144.358 31.9345 149.111C23.0474 154.228 15.8356 166.703 15.8356 176.975V182.748C15.7765 185.044 16.2437 187.324 17.2015 189.413L6.14717 195.805C4.40898 196.935 2.96201 198.458 1.92403 200.253C0.886044 202.047 0.286377 204.061 0.173828 206.131C0.173828 209.937 2.85091 211.485 6.14717 209.573L78.2462 167.96C79.9848 166.826 81.4317 165.299 82.4695 163.502C83.5074 161.705 84.1069 159.688 84.2195 157.616C84.2195 153.81 81.5425 152.353 78.2462 154.174Z" fill="#284059"/>
<ellipse cx="335.5" cy="447.5" rx="241.5" ry="29.5" fill="#284059"/>
<g clip-path="url(#clip0_41_547)">
<path d="M428.503 348.115C426.574 361.447 429.951 375.257 436.711 386.923C443.471 398.588 453.475 408.181 464.743 415.635C473.986 421.749 484.403 426.743 491.121 435.536C494.948 440.547 497.357 446.631 497.996 452.897C498.197 454.855 498.24 456.879 499 458.697C499.767 460.515 501.489 462.108 503.467 461.999C505.438 461.89 507.05 459.375 505.858 457.812C506.418 459.072 505.76 461.363 507.543 461.593C509.947 461.284 511.76 458.642 511.188 456.297C511.529 457.273 510.598 459.521 512.216 459.218C516.427 457.867 518.082 452.909 519.031 448.601C526.485 414.847 527.367 379.669 521.611 345.588C520.029 336.237 517.912 326.832 513.427 318.47C508.943 310.101 501.824 302.793 492.788 299.805C482.979 296.563 471.966 298.781 462.918 303.756C447.518 312.216 431.083 330.262 428.503 348.115Z" fill="#B41809"/>
<path d="M141.566 407.975C142.461 413.823 144.395 419.586 147.827 424.41C148.722 425.664 149.829 426.925 151.338 427.258C152.847 427.591 154.715 426.458 154.539 424.931C155.165 426.209 156.772 426.925 158.141 426.531C160.204 425.785 158.774 424.561 158.834 423.525C158.628 425.125 161.323 425.646 162.321 424.379C163.319 423.113 163.009 421.283 162.54 419.744C160.922 414.447 157.983 408.884 159.905 403.685C161.147 400.315 164.219 397.958 167.377 396.231C172.829 393.249 179.011 391.601 185.23 391.468C192.209 391.316 199.474 392.995 206.003 390.535C214.637 387.286 219.365 376.954 217.54 367.943C215.714 358.932 208.352 351.648 199.73 348.363C192.483 345.594 179.541 343.77 172.458 347.903C166.714 351.254 159.991 357.853 155.561 362.95C144.949 375.167 139.09 391.819 141.566 407.975Z" fill="#B41809"/>
<path d="M151.43 292.418C152.914 311.343 154.484 330.62 161.658 348.212C172.209 374.063 194.899 394.461 221.471 403.309C236.384 408.272 252.205 409.756 267.873 411.09C326.59 416.089 386.038 419.422 444.189 409.932C457.478 407.763 471.26 404.648 481.549 395.988C491.498 387.613 496.871 375.154 501.398 362.986C505.627 351.605 509.448 339.897 510.166 327.784C511.212 310.198 505.651 292.794 497.887 276.965C494.017 269.075 489.527 261.361 483.375 255.07C467.214 238.527 442.419 234.2 419.303 232.54C386.391 230.176 353.223 231.449 320.475 227.437C308.567 225.977 296.568 223.765 285.811 218.48C276.032 213.675 267.623 206.494 258.016 201.355C234.279 188.659 205.754 189.562 178.951 192.241C167.487 193.386 149.55 197.598 146.118 210.669C144.42 217.147 146.13 224.971 146.641 231.491C147.396 241.108 148.15 250.731 148.911 260.349C149.75 271.038 150.59 281.728 151.43 292.418Z" fill="#F03226"/>
<path d="M421.475 320.403C412.238 330.238 407.066 343.491 405.91 356.908C404.754 370.325 407.443 383.899 412.408 396.431C416.479 406.709 422.15 416.744 422.606 427.785C422.868 434.082 421.347 440.438 418.274 445.941C417.313 447.662 416.187 449.34 415.767 451.268C415.353 453.195 415.852 455.485 417.532 456.521C419.217 457.558 421.98 456.412 421.894 454.449C421.633 455.8 419.68 457.63 421.109 458.509C423.257 459.624 426.263 458.497 427.139 456.243C426.859 457.237 425.15 458.388 426.306 459.218C430.541 460.509 434.739 457.388 437.995 454.394C463.496 430.961 484.433 402.612 499.292 371.379C503.369 362.811 507.032 353.89 508.163 344.473C509.295 335.056 507.658 325.003 501.963 317.403C495.781 309.156 485.473 304.702 475.196 303.623C457.697 301.793 433.845 307.229 421.475 320.403Z" fill="#F03226"/>
<path d="M234.224 455.867C235.252 457.37 236.426 458.988 238.197 459.437C239.968 459.885 242.219 458.267 241.592 456.558C242.329 458.243 244.197 459.364 246.034 459.218C248.079 458.194 247.829 457.207 247.519 455.686C247.421 457.643 250.823 457.843 251.754 456.116C252.685 454.395 251.912 452.28 251.097 450.498C246.935 441.354 241.897 432.058 242.158 422.016C242.304 416.556 244.026 411.272 244.768 405.861C246.387 394.074 243.107 381.7 235.86 372.24C228.614 362.781 217.491 356.369 205.65 354.812C191.886 353.006 173.212 361.544 181.907 377.421C191.436 394.826 204.062 411.163 215.124 427.64C221.458 437.075 227.823 446.487 234.224 455.867Z" fill="#F03226"/>
<path d="M491.911 255.21C497.606 254.459 503.314 253.005 508.163 249.938C522.103 241.121 524.915 222.456 532.885 208.052C543.242 189.333 563.431 177.322 584.49 173.232C605.549 169.141 627.442 172.195 648.1 177.97C656.91 180.437 665.982 183.643 672.152 190.381C678.316 197.114 680.421 208.361 674.458 215.275C667.954 222.82 656.143 221.766 646.305 220.063C637.914 218.608 629.523 217.154 621.138 215.706C611.196 213.985 600.645 212.312 591.268 216.027C576.044 222.05 569.601 239.412 561.368 253.52C547.805 276.76 525.182 294.594 499.365 302.405C488.619 305.659 476.973 307.205 466.185 304.09C455.397 300.975 445.704 292.449 443.678 281.444C437.678 248.951 474.533 257.513 491.911 255.21Z" fill="#F03226"/>
<path d="M285.19 217.893C260.936 245.508 223.643 261.245 186.854 259.397C194.533 262.524 202.888 263.621 211.175 264.039C233.183 265.16 255.393 261.651 276.05 254.004C291.013 248.465 307.478 240.175 316.222 226.873C304.648 224.043 294.724 222.844 285.603 217.45L285.19 217.893Z" fill="#B41809"/>
<path d="M145.077 212.476C144.073 200.544 143.349 188.06 148.107 177.061C154.076 163.263 167.737 154.227 181.78 148.737C193.305 144.228 205.559 141.568 217.923 140.883C224.051 140.544 230.227 140.689 236.269 141.762C250.257 144.253 263.175 151.816 272.674 162.342C282.172 172.868 288.299 186.248 290.727 200.192C292.504 210.403 292.175 221.547 286.583 230.292C282.981 235.928 277.517 240.091 272.016 243.915C264.855 248.89 257.395 253.526 249.302 256.786C231.961 263.773 212.611 264.1 194.01 262.149C179.492 260.622 163.8 256.998 154.861 245.502C147.633 236.231 146.033 223.844 145.077 212.476Z" fill="#F03226"/>
<path d="M150.991 143.453C151.198 142.49 151.496 141.417 152.366 140.956C152.956 140.641 153.668 140.702 154.325 140.793C161.475 141.811 167.56 146.325 173.298 150.689C176.273 152.955 179.346 155.324 181.068 158.639C188.363 172.698 165.004 203.053 152.281 201.95C136.083 200.55 148.91 153.258 150.991 143.453Z" fill="#F03226"/>
<path d="M255.131 131.363C255.825 130.666 256.664 129.921 257.644 130.006C258.307 130.06 258.879 130.49 259.378 130.927C264.836 135.635 280.948 169.298 280.595 173.013C279.093 188.763 247.13 177.479 237.035 169.692C224.172 159.784 248.048 138.484 255.131 131.363Z" fill="#F03226"/>
<path d="M206.264 184.909C206.471 185.812 206.581 186.751 206.581 187.715C206.581 194.672 200.922 200.307 193.937 200.307C189.276 200.307 185.205 197.793 183.015 194.06C184.292 199.665 189.324 203.847 195.342 203.847C202.321 203.847 207.986 198.211 207.986 191.254C207.98 188.933 207.353 186.77 206.264 184.909Z" fill="#E9F1F4"/>
<path d="M208.139 191.66C208.139 198.611 202.48 204.253 195.495 204.253C188.515 204.253 182.851 198.617 182.851 191.66C182.851 184.703 188.509 179.067 195.495 179.067C202.48 179.067 208.139 184.709 208.139 191.66Z" fill="white"/>
<path d="M195.494 204.665C188.296 204.665 182.437 198.829 182.437 191.66C182.437 184.491 188.296 178.655 195.494 178.655C202.693 178.655 208.552 184.491 208.552 191.66C208.552 198.829 202.693 204.665 195.494 204.665ZM195.494 179.485C188.752 179.485 183.264 184.952 183.264 191.666C183.264 198.38 188.752 203.846 195.494 203.846C202.236 203.846 207.725 198.38 207.725 191.666C207.725 184.945 202.236 179.485 195.494 179.485Z" fill="#B41809"/>
<path d="M204.548 192.162C204.548 196.713 200.843 200.404 196.273 200.404C191.704 200.404 187.998 196.713 187.998 192.162C187.998 187.611 191.704 183.921 196.273 183.921C200.843 183.921 204.548 187.611 204.548 192.162Z" fill="#593E39"/>
<path d="M196.45 199.501C197.387 197.059 198.184 194.538 198.427 191.938C198.665 189.339 198.318 186.63 197.071 184.327C197.113 184.327 196.261 185.157 196.207 185.23C195.829 185.727 195.726 186.606 195.58 187.206C195.257 188.557 195.075 189.945 195.032 191.339C194.99 192.726 195.087 194.126 195.324 195.496C195.446 196.205 195.604 196.914 195.805 197.604C195.896 197.926 196.553 199.222 196.45 199.501Z" fill="#30211F"/>
<path d="M189.398 192.617C189.446 192.89 189.507 193.163 189.653 193.399C189.799 193.636 190.037 193.829 190.31 193.854C190.718 193.896 191.089 193.575 191.254 193.193C191.418 192.817 191.424 192.393 191.46 191.987C191.564 190.896 191.917 189.83 192.495 188.897C193.462 187.321 191.095 187.666 190.463 188.539C189.617 189.715 189.154 191.193 189.398 192.617Z" fill="white"/>
<path d="M193.547 187.303C193.869 187.351 194.204 187.212 194.448 187C194.697 186.788 194.867 186.503 195.026 186.218C195.105 186.067 195.178 185.867 195.056 185.739C195.013 185.697 194.953 185.673 194.898 185.655C194.368 185.497 193.437 185.691 193.078 186.151C192.738 186.594 192.975 187.212 193.547 187.303Z" fill="white"/>
<path d="M267.715 171.389C267.921 172.292 268.031 173.231 268.031 174.194C268.031 181.151 262.372 186.787 255.387 186.787C250.726 186.787 246.655 184.272 244.465 180.539C245.743 186.145 250.775 190.326 256.792 190.326C263.778 190.326 269.437 184.69 269.437 177.733C269.437 175.419 268.81 173.249 267.715 171.389Z" fill="#E9F1F4"/>
<path d="M269.588 178.139C269.588 185.096 263.929 190.732 256.944 190.732C249.959 190.732 244.3 185.096 244.3 178.139C244.3 171.189 249.959 165.547 256.944 165.547C263.929 165.553 269.588 171.189 269.588 178.139Z" fill="white"/>
<path d="M256.95 191.144C249.752 191.144 243.893 185.308 243.893 178.139C243.893 170.97 249.752 165.135 256.95 165.135C264.149 165.135 270.008 170.97 270.008 178.139C270.002 185.314 264.149 191.144 256.95 191.144ZM256.95 165.965C250.209 165.965 244.72 171.431 244.72 178.145C244.72 184.86 250.202 190.326 256.95 190.326C263.692 190.326 269.181 184.86 269.181 178.145C269.175 171.425 263.692 165.965 256.95 165.965Z" fill="#B41809"/>
<path d="M265.999 178.642C265.999 183.193 262.293 186.883 257.723 186.883C253.154 186.883 249.448 183.193 249.448 178.642C249.448 174.091 253.154 170.4 257.723 170.4C262.293 170.4 265.999 174.091 265.999 178.642Z" fill="#593E39"/>
<path d="M257.899 185.981C258.836 183.539 259.633 181.018 259.877 178.418C260.114 175.818 259.767 173.109 258.52 170.807C258.562 170.807 257.711 171.637 257.656 171.704C257.279 172.2 257.175 173.079 257.029 173.679C256.707 175.03 256.524 176.418 256.481 177.812C256.439 179.2 256.536 180.6 256.773 181.969C256.895 182.678 257.053 183.387 257.254 184.078C257.345 184.411 258.009 185.702 257.899 185.981Z" fill="#30211F"/>
<path d="M250.854 179.097C250.902 179.37 250.963 179.642 251.109 179.879C251.255 180.115 251.492 180.309 251.766 180.333C252.174 180.376 252.545 180.048 252.709 179.673C252.874 179.297 252.88 178.873 252.916 178.467C253.02 177.376 253.373 176.309 253.951 175.376C254.918 173.801 252.551 174.146 251.918 175.019C251.067 176.194 250.604 177.673 250.854 179.097Z" fill="white"/>
<path d="M255.003 173.782C255.326 173.831 255.66 173.691 255.904 173.479C256.153 173.267 256.323 172.982 256.482 172.698C256.561 172.546 256.634 172.346 256.512 172.219C256.469 172.176 256.409 172.152 256.354 172.134C255.824 171.976 254.893 172.17 254.534 172.631C254.194 173.073 254.431 173.698 255.003 173.782Z" fill="white"/>
<path d="M155.299 150.67C155.402 150.324 155.518 149.961 155.773 149.706C156.041 149.446 156.418 149.33 156.79 149.288C158.195 149.118 159.564 149.767 160.787 150.488C163.495 152.076 165.965 154.075 168.077 156.39C165.6 158.469 163.166 160.59 160.775 162.765C157.069 166.129 153.717 169.746 152.816 174.813C151.143 171.807 152.305 166.692 152.682 163.444C153.181 159.117 154.058 154.839 155.299 150.67Z" fill="#E5CAC6"/>
<path d="M254.218 139.284C254.723 138.781 255.259 138.278 255.916 138.017C257.005 137.581 258.283 137.878 259.262 138.514C260.248 139.15 260.99 140.09 261.678 141.035C266.424 147.507 269.613 155.1 270.921 163.008C262.804 158.439 256.518 150.901 247.957 147.228C250.239 144.738 251.772 141.72 254.218 139.284Z" fill="#E5CAC6"/>
<path d="M228.595 191.599C227.774 191.914 226.989 192.477 226.709 193.308C226.496 193.932 226.599 194.629 226.812 195.253C227.476 197.204 229.1 198.677 230.81 199.834C232.52 200.992 234.388 201.949 235.909 203.343C237.765 201.658 239.456 199.798 240.953 197.792C241.586 196.944 242.194 196.047 242.493 195.035C242.791 194.017 242.876 192.574 242.261 191.714C241.586 190.763 238.678 189.023 236.189 190.611C235.355 191.144 234.564 191.599 234.12 192.453C232.672 191.205 230.354 190.926 228.595 191.599Z" fill="#E5CAC6"/>
<path d="M249.423 214.257C249.326 214.021 249.07 213.942 248.839 214.021C246.363 214.845 243.503 214.936 241.112 213.772C238.501 212.5 237.09 209.755 236.524 207.022C236.481 206.816 236.445 206.616 236.408 206.41C236.414 206.301 236.42 206.192 236.432 206.088C236.554 203.986 236.463 201.877 236.159 199.798C236.073 199.235 235.197 199.344 235.276 199.913C235.325 200.229 235.361 200.544 235.398 200.865C235.222 200.944 235.13 201.125 235.136 201.325C235.185 203.022 235.252 204.749 235.526 206.428C235.428 207.822 235.234 209.209 234.936 210.573C234.765 211.361 234.534 212.154 234.12 212.851C233.725 213.524 233.171 214.1 232.593 214.621C231.4 215.7 230.037 216.584 228.559 217.227C226.898 217.954 225.121 218.378 223.308 218.475C223.07 218.487 222.894 218.748 222.924 218.972C222.955 219.22 223.18 219.366 223.423 219.354C226.806 219.166 230.123 217.863 232.715 215.687C233.366 215.142 233.998 214.542 234.51 213.851C235.027 213.154 235.368 212.379 235.605 211.549C235.842 210.7 236.019 209.834 236.152 208.955C236.414 209.731 236.749 210.488 237.181 211.209C237.96 212.518 239.031 213.615 240.363 214.36C241.58 215.045 242.986 215.403 244.379 215.487C246.01 215.584 247.64 215.342 249.186 214.827C249.411 214.76 249.508 214.463 249.423 214.257Z" fill="#E5CAC6"/>
<path d="M298.734 342.013C301.8 340.85 304.198 338.42 306.309 335.917C322.415 316.816 326.815 290.813 330.618 266.161C332.206 255.871 333.8 245.424 332.565 235.086C332.309 232.922 331.932 230.734 331.865 228.571C328.366 228.262 324.868 227.904 321.381 227.486C321.801 228.498 322.318 229.498 322.555 230.425C326.839 246.999 322.215 267.755 315.29 283.02C308.128 298.8 296.701 312.404 289.862 328.33C288.207 332.19 286.96 337.044 289.667 340.262C291.785 342.759 295.667 343.177 298.734 342.013Z" fill="#C62319"/>
<path d="M454.497 238.315C456.225 242.763 456.188 247.896 453.845 252.029C446.118 265.664 438.159 280.147 438.451 295.8C438.622 305.023 441.682 313.931 443.246 323.021C444.682 331.354 444.852 339.904 443.763 348.291C443.325 351.679 442.686 355.175 443.641 358.454C444.597 361.732 447.785 364.683 451.15 364.035C453.888 363.514 455.713 360.902 456.687 358.302C458.938 352.285 458.16 345.625 457.636 339.226C455.756 316.307 457.606 293.085 463.088 270.748C464.171 266.337 465.412 261.913 467.579 257.919C469.556 254.277 472.252 251.084 474.643 247.69C468.546 243.551 461.707 240.533 454.497 238.315Z" fill="#C62319"/>
<path d="M365.928 283.631C367.412 278.505 370.576 273.948 371.793 268.748C372.809 264.385 372.396 259.84 372.237 255.362C371.945 247.096 372.56 238.8 374.057 230.668C364.924 230.419 355.79 230.128 346.676 229.619C347.387 242.151 340.962 254.641 342.386 267.227C343.207 274.505 346.596 281.207 348.915 288.158C353.332 301.435 353.807 315.985 350.259 329.523C346.7 343.098 339.185 355.854 338.875 369.883C338.796 373.476 344.004 375.124 347.071 373.228C350.138 371.331 351.422 367.598 352.486 364.162C355.273 355.163 358.06 346.164 360.847 337.165C363.421 328.851 366.019 320.385 366.098 311.683C366.171 302.284 363.317 292.667 365.928 283.631Z" fill="#C62319"/>
<path d="M419.382 232.486C413.315 232.049 407.243 231.74 401.164 231.498C401.049 232.262 400.878 233.025 400.702 233.777C398.481 243.285 395.718 252.665 392.42 261.858C389.39 270.318 385.849 279.22 387.674 288.019C389.189 295.333 394.295 301.696 394.86 309.144C395.365 315.786 392.189 322.779 394.757 328.93C395.335 330.318 396.515 331.754 398.012 331.59C398.876 331.493 399.588 330.881 400.172 330.245C404.803 325.179 404.876 317.495 403.823 310.726C402.771 303.957 400.854 297.036 402.442 290.37C404.359 282.299 410.973 276.305 415.226 269.179C418.907 263.01 420.848 255.823 420.757 248.648C420.69 243.363 419.814 237.376 421.426 232.643C420.745 232.583 420.063 232.534 419.382 232.486Z" fill="#C62319"/>
<path d="M611.683 171.546C607.667 171.322 603.645 171.286 599.635 171.462C600.128 175.861 599.106 180.491 598.212 184.909C596.252 194.623 595.06 204.767 596.666 214.463C601.4 213.554 606.322 213.669 611.245 214.214C611.245 210.197 609.973 206.227 609.298 202.234C607.594 192.235 609.59 182.018 611.573 172.074C611.61 171.898 611.647 171.722 611.683 171.546Z" fill="#C62319"/>
<path d="M648.105 177.964C644.814 177.043 641.485 176.188 638.139 175.425C637.536 178.473 636.265 181.454 634.987 184.315C631.16 192.89 627.119 201.434 624.722 210.512C624.235 212.348 623.821 214.239 623.688 216.129C629.255 217.093 634.823 218.057 640.39 219.02C641.412 215.002 641.12 210.742 641.887 206.664C643.761 196.719 651.458 189.302 657.543 181.03C654.458 179.836 651.263 178.849 648.105 177.964Z" fill="#C62319"/>
<path d="M672.153 190.375C671.131 189.26 670.023 188.254 668.861 187.314C666.987 192.69 664.815 197.962 662.35 203.095C659.576 208.882 656.369 215.002 655.286 221.183C662.612 221.638 669.859 220.602 674.459 215.269C680.422 208.355 678.323 197.107 672.153 190.375Z" fill="#C62319"/>
<path d="M553.422 265.209C549.576 258.852 543.242 253.889 537.029 249.526C531.176 245.417 524.994 241.272 520.369 235.939C518.727 238.988 516.871 241.842 514.638 244.363C515.867 245.902 517.321 247.284 518.867 248.429C523.771 252.077 529.649 254.319 534.328 258.246C539.317 262.44 542.567 268.221 545.87 273.875C548.542 271.123 551.061 268.227 553.422 265.209Z" fill="#C62319"/>
<path d="M584.077 213.226C579.203 204.851 575.254 195.949 572.321 186.72C571.36 183.702 570.538 180.484 570.197 177.297C565.111 179.23 560.212 181.648 555.637 184.539C556.659 187.381 557.48 190.411 558.545 193.107C562.926 204.227 573.654 211.966 577.931 223.128C578.174 223.771 578.442 224.449 578.734 225.116C581.101 222.456 583.736 220.122 586.754 218.28C586.006 216.535 585.02 214.838 584.077 213.226Z" fill="#C62319"/>
<path d="M569.619 238.46C569.163 238.285 568.7 238.109 568.244 237.939C553.172 232.231 540.029 220.275 534.419 205.458C533.89 206.306 533.372 207.167 532.886 208.046C530.701 211.991 528.906 216.257 527.166 220.547C532.241 225.335 537.042 230.401 541.544 235.727C546.54 241.636 551.827 248.278 559.427 249.774C560.662 250.017 561.946 250.12 563.23 250.205C565.366 246.35 567.429 242.345 569.619 238.46Z" fill="#C62319"/>
<path d="M200.837 166.159C201.269 166.643 201.798 167.116 202.45 167.171C203.32 167.237 204.086 166.468 204.281 165.625C204.476 164.783 204.245 163.892 203.94 163.08C201.659 156.96 195.61 152.53 194.363 146.118C194.278 145.67 194.223 145.197 194.229 144.725C190.523 145.718 186.86 146.9 183.271 148.251C184.098 148.676 185.059 148.936 185.82 149.197C188.017 149.954 189.982 151.154 191.68 152.73C193.578 154.493 195.111 156.62 196.383 158.862C197.789 161.347 198.926 164.032 200.837 166.159Z" fill="#C62319"/>
<path d="M216.183 174.722C216.907 175.946 218.203 177.109 219.596 176.788C221.117 176.437 221.708 174.619 221.915 173.08C222.906 165.771 221.282 158.136 217.4 151.852C215.434 148.676 212.891 145.78 211.735 142.228C211.65 141.968 211.577 141.701 211.51 141.435C208.084 141.822 204.683 142.362 201.306 143.047C201.336 143.071 201.373 143.095 201.403 143.119C204.293 145.355 207.232 147.646 209.277 150.664C212.903 156.015 213.232 162.82 214.388 169.171C214.741 171.098 215.191 173.043 216.183 174.722Z" fill="#C62319"/>
<path d="M220.107 140.786C221.896 142.265 223.545 143.895 224.799 145.834C226.466 148.397 227.379 151.379 228.949 154.003C229.721 155.288 230.719 156.536 232.113 157.087C233.512 157.639 235.368 157.251 236.049 155.918C236.573 154.888 236.274 153.615 235.69 152.621C235.106 151.627 234.26 150.809 233.585 149.87C232.033 147.7 231.486 144.986 230.245 142.628C229.928 142.022 229.563 141.447 229.161 140.895C226.162 140.695 223.132 140.677 220.107 140.786Z" fill="#C62319"/>
</g>
<g opacity="0.4">
<path d="M578.718 121.271L558.488 132.939C558.598 132.055 558.657 131.165 558.664 130.274V124.413C558.664 113.98 551.338 109.761 542.3 114.968C538.394 117.371 535.057 120.593 532.52 124.413C531.054 111.296 520.763 106.407 508.264 113.627C494.759 121.429 483.797 140.389 483.797 155.995V164.821C483.712 168.319 484.425 171.79 485.88 174.972L469.074 184.664C466.434 186.386 464.237 188.706 462.66 191.435C461.084 194.165 460.173 197.228 460 200.375C460 206.165 464.06 208.513 469.074 205.671L578.683 142.384C581.322 140.66 583.518 138.34 585.095 135.611C586.671 132.882 587.583 129.82 587.757 126.673C587.792 120.723 583.714 118.375 578.718 121.271Z" fill="#D9F1F8" fill-opacity="0.5"/>
<path d="M660.893 156.188L647.989 163.638C648.061 163.053 648.096 162.463 648.095 161.873V158.183C648.095 151.546 643.434 148.845 637.679 152.181C635.201 153.698 633.081 155.733 631.465 158.148C630.512 149.78 623.963 146.673 616.001 151.281C607.386 156.241 600.396 168.334 600.396 178.29V183.886C600.338 186.113 600.791 188.323 601.72 190.348L591.004 196.544C589.319 197.639 587.917 199.116 586.91 200.855C585.904 202.595 585.323 204.547 585.214 206.553C585.214 210.243 587.809 211.743 591.004 209.89L660.893 169.552C662.579 168.453 663.981 166.973 664.987 165.231C665.993 163.489 666.575 161.534 666.684 159.525C666.684 155.835 664.089 154.423 660.893 156.188Z" fill="#D9F1F8" fill-opacity="0.5"/>
</g>
<g clip-path="url(#clip1_41_547)">
<path d="M425.401 348.513C423.533 361.483 426.803 374.92 433.349 386.269C439.895 397.618 449.582 406.951 460.494 414.202C469.444 420.151 479.531 425.009 486.036 433.564C489.742 438.44 492.076 444.359 492.694 450.455C492.889 452.359 492.93 454.328 493.667 456.097C494.409 457.866 496.076 459.416 497.991 459.31C499.9 459.204 501.462 456.757 500.307 455.236C500.849 456.463 500.213 458.691 501.939 458.915C504.266 458.615 506.022 456.044 505.468 453.762C505.798 454.712 504.897 456.899 506.464 456.604C510.541 455.289 512.144 450.467 513.063 446.275C520.281 413.436 521.135 379.212 515.562 346.054C514.03 336.957 511.979 327.807 507.637 319.671C503.294 311.529 496.4 304.419 487.651 301.513C478.153 298.359 467.488 300.516 458.727 305.357C443.814 313.587 427.899 331.144 425.401 348.513Z" fill="#B41809"/>
<path d="M147.548 406.751C148.414 412.44 150.288 418.047 153.611 422.74C154.477 423.96 155.55 425.186 157.011 425.511C158.472 425.835 160.281 424.732 160.11 423.247C160.717 424.491 162.273 425.186 163.598 424.803C165.596 424.078 164.211 422.887 164.27 421.879C164.07 423.435 166.68 423.942 167.646 422.71C168.612 421.478 168.312 419.697 167.858 418.2C166.291 413.047 163.445 407.635 165.307 402.576C166.509 399.298 169.484 397.005 172.542 395.325C177.822 392.424 183.808 390.821 189.83 390.691C196.588 390.543 203.623 392.177 209.945 389.783C218.306 386.623 222.884 376.571 221.117 367.804C219.349 359.037 212.22 351.95 203.871 348.755C196.853 346.061 184.321 344.286 177.462 348.307C171.9 351.567 165.389 357.988 161.1 362.946C150.824 374.831 145.15 391.033 147.548 406.751Z" fill="#B41809"/>
<path d="M157.1 294.325C158.537 312.737 160.057 331.492 167.004 348.607C177.221 373.758 199.193 393.602 224.923 402.21C239.365 407.039 254.684 408.483 269.856 409.78C326.715 414.644 384.281 417.887 440.591 408.654C453.46 406.543 466.805 403.513 476.769 395.088C486.402 386.94 491.605 374.819 495.989 362.98C500.084 351.908 503.784 340.518 504.479 328.732C505.493 311.623 500.107 294.691 492.589 279.291C488.842 271.615 484.493 264.11 478.536 257.99C462.887 241.895 438.877 237.686 416.493 236.07C384.622 233.771 352.505 235.009 320.793 231.106C309.263 229.685 297.643 227.533 287.226 222.392C277.758 217.717 269.615 210.731 260.311 205.731C237.326 193.38 209.704 194.258 183.75 196.864C172.649 197.978 155.279 202.076 151.956 214.793C150.312 221.095 151.968 228.707 152.463 235.05C153.193 244.407 153.924 253.769 154.66 263.125C155.473 273.525 156.287 283.925 157.1 294.325Z" fill="#F03226"/>
<path d="M418.596 321.552C409.652 331.121 404.644 344.015 403.524 357.068C402.405 370.121 405.009 383.327 409.817 395.519C413.759 405.518 419.25 415.281 419.692 426.023C419.946 432.149 418.473 438.333 415.497 443.687C414.566 445.361 413.476 446.994 413.07 448.869C412.669 450.744 413.152 452.972 414.778 453.981C416.41 454.989 419.085 453.874 419.003 451.964C418.75 453.279 416.858 455.059 418.243 455.914C420.323 456.999 423.233 455.903 424.082 453.709C423.811 454.676 422.155 455.796 423.275 456.604C427.376 457.86 431.441 454.824 434.593 451.911C459.287 429.113 479.562 401.533 493.95 371.146C497.898 362.81 501.445 354.132 502.541 344.97C503.637 335.808 502.052 326.027 496.537 318.634C490.551 310.61 480.569 306.276 470.618 305.227C453.672 303.447 430.575 308.735 418.596 321.552Z" fill="#F03226"/>
<path d="M237.272 453.344C238.268 454.806 239.405 456.38 241.12 456.817C242.835 457.253 245.015 455.679 244.408 454.016C245.121 455.655 246.93 456.746 248.709 456.604C250.689 455.608 250.447 454.647 250.147 453.167C250.052 455.071 253.346 455.266 254.248 453.586C255.149 451.911 254.401 449.854 253.611 448.12C249.581 439.224 244.702 430.18 244.956 420.411C245.097 415.099 246.765 409.958 247.483 404.693C249.051 393.226 245.875 381.187 238.857 371.984C231.84 362.781 221.069 356.543 209.603 355.028C196.275 353.271 178.193 361.578 186.612 377.025C195.839 393.957 208.065 409.852 218.777 425.882C224.911 435.062 231.074 444.218 237.272 453.344Z" fill="#F03226"/>
<path d="M486.803 258.127C492.318 257.396 497.845 255.981 502.541 252.997C516.039 244.419 518.762 226.261 526.48 212.247C536.508 194.035 556.058 182.35 576.451 178.37C596.843 174.391 618.043 177.362 638.047 182.981C646.579 185.38 655.364 188.499 661.338 195.055C667.307 201.605 669.346 212.547 663.571 219.274C657.273 226.614 645.836 225.589 636.309 223.932C628.183 222.517 620.058 221.102 611.939 219.693C602.311 218.018 592.094 216.391 583.015 220.005C568.273 225.866 562.033 242.757 554.061 256.482C540.928 279.092 519.021 296.443 494.021 304.042C483.615 307.208 472.338 308.712 461.891 305.681C451.444 302.651 442.058 294.356 440.096 283.649C434.287 252.036 469.975 260.367 486.803 258.127Z" fill="#F03226"/>
<path d="M286.625 221.821C263.139 248.688 227.027 263.999 191.403 262.2C198.839 265.243 206.929 266.31 214.954 266.717C236.266 267.807 257.772 264.394 277.775 256.953C292.264 251.565 308.208 243.499 316.675 230.558C305.468 227.805 295.858 226.638 287.026 221.391L286.625 221.821Z" fill="#B41809"/>
<path d="M150.948 216.55C149.976 204.941 149.275 192.796 153.883 182.096C159.663 168.671 172.89 159.881 186.489 154.539C197.649 150.153 209.516 147.565 221.488 146.898C227.422 146.568 233.402 146.71 239.253 147.753C252.799 150.176 265.308 157.534 274.505 167.775C283.703 178.016 289.636 191.033 291.987 204.599C293.708 214.534 293.389 225.376 287.975 233.883C284.487 239.366 279.195 243.416 273.869 247.137C266.934 251.977 259.71 256.487 251.874 259.659C235.081 266.457 216.345 266.775 198.333 264.877C184.274 263.391 169.078 259.865 160.423 248.681C153.423 239.661 151.873 227.61 150.948 216.55Z" fill="#F03226"/>
<path d="M156.675 149.398C156.875 148.461 157.164 147.418 158.006 146.969C158.578 146.663 159.267 146.722 159.904 146.81C166.827 147.801 172.719 152.193 178.275 156.438C181.156 158.643 184.132 160.948 185.799 164.173C192.864 177.851 170.244 207.382 157.924 206.309C142.239 204.947 154.66 158.938 156.675 149.398Z" fill="#F03226"/>
<path d="M257.518 137.637C258.19 136.959 259.003 136.233 259.951 136.316C260.594 136.369 261.147 136.788 261.631 137.212C266.916 141.793 282.518 174.544 282.176 178.158C280.721 193.48 249.77 182.503 239.995 174.927C227.539 165.287 250.659 144.564 257.518 137.637Z" fill="#F03226"/>
<path d="M210.198 189.73C210.399 190.609 210.505 191.523 210.505 192.46C210.505 199.228 205.025 204.711 198.261 204.711C193.748 204.711 189.806 202.265 187.685 198.633C188.922 204.086 193.795 208.154 199.622 208.154C206.38 208.154 211.866 202.671 211.866 195.903C211.86 193.645 211.253 191.54 210.198 189.73Z" fill="#E9F1F4"/>
<path d="M212.013 196.299C212.013 203.061 206.533 208.55 199.769 208.55C193.011 208.55 187.525 203.067 187.525 196.299C187.525 189.531 193.005 184.048 199.769 184.048C206.533 184.048 212.013 189.537 212.013 196.299Z" fill="white"/>
<path d="M199.769 208.951C192.799 208.951 187.125 203.273 187.125 196.299C187.125 189.324 192.799 183.646 199.769 183.646C206.74 183.646 212.414 189.324 212.414 196.299C212.414 203.273 206.74 208.951 199.769 208.951ZM199.769 184.454C193.241 184.454 187.926 189.772 187.926 196.304C187.926 202.837 193.241 208.155 199.769 208.155C206.298 208.155 211.612 202.837 211.612 196.304C211.612 189.766 206.298 184.454 199.769 184.454Z" fill="#B41809"/>
<path d="M208.537 196.788C208.537 201.215 204.949 204.806 200.524 204.806C196.099 204.806 192.511 201.215 192.511 196.788C192.511 192.36 196.099 188.77 200.524 188.77C204.949 188.77 208.537 192.36 208.537 196.788Z" fill="#593E39"/>
<path d="M200.695 203.928C201.602 201.552 202.374 199.099 202.61 196.57C202.839 194.041 202.504 191.405 201.296 189.165C201.337 189.165 200.512 189.973 200.459 190.043C200.094 190.527 199.994 191.382 199.852 191.965C199.54 193.28 199.363 194.63 199.322 195.986C199.281 197.336 199.375 198.698 199.605 200.031C199.723 200.721 199.876 201.41 200.07 202.082C200.159 202.395 200.795 203.657 200.695 203.928Z" fill="#30211F"/>
<path d="M193.865 197.23C193.913 197.495 193.971 197.761 194.113 197.991C194.254 198.221 194.484 198.409 194.749 198.433C195.144 198.474 195.503 198.162 195.662 197.79C195.822 197.425 195.827 197.012 195.863 196.617C195.963 195.556 196.305 194.518 196.864 193.61C197.801 192.077 195.509 192.413 194.897 193.262C194.078 194.406 193.63 195.845 193.865 197.23Z" fill="white"/>
<path d="M197.884 192.059C198.196 192.107 198.52 191.971 198.756 191.765C198.997 191.558 199.162 191.281 199.315 191.004C199.392 190.857 199.463 190.662 199.345 190.538C199.304 190.497 199.245 190.474 199.192 190.456C198.679 190.303 197.778 190.491 197.43 190.939C197.1 191.37 197.33 191.971 197.884 192.059Z" fill="white"/>
<path d="M269.703 176.577C269.903 177.456 270.01 178.369 270.01 179.307C270.01 186.075 264.53 191.558 257.766 191.558C253.252 191.558 249.311 189.111 247.189 185.48C248.427 190.933 253.3 195.001 259.127 195.001C265.891 195.001 271.371 189.518 271.371 182.75C271.371 180.498 270.764 178.387 269.703 176.577Z" fill="#E9F1F4"/>
<path d="M271.518 183.146C271.518 189.914 266.038 195.397 259.274 195.397C252.51 195.397 247.03 189.914 247.03 183.146C247.03 176.383 252.51 170.895 259.274 170.895C266.038 170.9 271.518 176.383 271.518 183.146Z" fill="white"/>
<path d="M259.28 195.797C252.31 195.797 246.636 190.12 246.636 183.145C246.636 176.171 252.31 170.493 259.28 170.493C266.25 170.493 271.925 176.171 271.925 183.145C271.919 190.126 266.25 195.797 259.28 195.797ZM259.28 171.301C252.752 171.301 247.437 176.619 247.437 183.151C247.437 189.684 252.746 195.001 259.28 195.001C265.809 195.001 271.123 189.684 271.123 183.151C271.117 176.613 265.809 171.301 259.28 171.301Z" fill="#B41809"/>
<path d="M268.042 183.634C268.042 188.062 264.454 191.652 260.029 191.652C255.604 191.652 252.016 188.062 252.016 183.634C252.016 179.207 255.604 175.616 260.029 175.616C264.454 175.616 268.042 179.207 268.042 183.634Z" fill="#593E39"/>
<path d="M260.2 190.774C261.107 188.399 261.879 185.946 262.115 183.417C262.344 180.887 262.009 178.252 260.801 176.012C260.842 176.012 260.017 176.819 259.964 176.884C259.599 177.368 259.498 178.223 259.357 178.806C259.045 180.121 258.868 181.471 258.827 182.827C258.786 184.177 258.88 185.539 259.11 186.872C259.227 187.561 259.381 188.251 259.575 188.923C259.663 189.247 260.306 190.503 260.2 190.774Z" fill="#30211F"/>
<path d="M253.376 184.077C253.423 184.342 253.482 184.607 253.623 184.837C253.765 185.067 253.994 185.256 254.26 185.279C254.654 185.321 255.014 185.002 255.173 184.637C255.332 184.271 255.338 183.859 255.373 183.464C255.473 182.402 255.815 181.365 256.375 180.457C257.312 178.924 255.02 179.26 254.407 180.109C253.582 181.253 253.134 182.691 253.376 184.077Z" fill="white"/>
<path d="M257.394 178.906C257.707 178.953 258.031 178.818 258.266 178.611C258.508 178.405 258.673 178.128 258.826 177.851C258.903 177.703 258.973 177.509 258.856 177.385C258.814 177.344 258.755 177.32 258.702 177.303C258.19 177.149 257.288 177.338 256.941 177.786C256.611 178.216 256.84 178.824 257.394 178.906Z" fill="white"/>
<path d="M160.847 156.421C160.947 156.085 161.059 155.731 161.306 155.483C161.566 155.23 161.931 155.118 162.29 155.076C163.651 154.911 164.977 155.542 166.161 156.244C168.783 157.788 171.176 159.734 173.22 161.986C170.822 164.008 168.465 166.072 166.15 168.188C162.561 171.46 159.315 174.98 158.443 179.909C156.822 176.985 157.948 172.009 158.313 168.849C158.796 164.639 159.645 160.477 160.847 156.421Z" fill="#E5CAC6"/>
<path d="M256.634 145.342C257.123 144.853 257.642 144.364 258.278 144.11C259.333 143.686 260.57 143.975 261.519 144.594C262.473 145.213 263.192 146.126 263.858 147.046C268.454 153.343 271.541 160.73 272.808 168.424C264.948 163.979 258.861 156.644 250.571 153.072C252.781 150.648 254.266 147.712 256.634 145.342Z" fill="#E5CAC6"/>
<path d="M231.823 196.239C231.027 196.546 230.267 197.094 229.996 197.902C229.79 198.509 229.89 199.187 230.096 199.794C230.739 201.693 232.312 203.125 233.967 204.251C235.623 205.377 237.432 206.309 238.905 207.665C240.702 206.026 242.34 204.216 243.79 202.265C244.402 201.439 244.992 200.567 245.28 199.582C245.569 198.592 245.651 197.188 245.056 196.351C244.402 195.426 241.586 193.734 239.176 195.278C238.369 195.797 237.603 196.239 237.173 197.07C235.77 195.856 233.526 195.585 231.823 196.239Z" fill="#E5CAC6"/>
<path d="M251.991 218.283C251.897 218.053 251.65 217.976 251.426 218.053C249.028 218.855 246.258 218.943 243.943 217.811C241.415 216.573 240.048 213.903 239.5 211.244C239.459 211.043 239.424 210.849 239.388 210.648C239.394 210.542 239.4 210.436 239.412 210.336C239.53 208.29 239.441 206.238 239.147 204.216C239.064 203.668 238.216 203.774 238.292 204.328C238.34 204.635 238.375 204.941 238.41 205.254C238.239 205.33 238.151 205.507 238.157 205.702C238.204 207.352 238.269 209.033 238.534 210.666C238.44 212.022 238.251 213.372 237.962 214.698C237.797 215.465 237.574 216.237 237.173 216.915C236.79 217.57 236.254 218.13 235.694 218.637C234.539 219.686 233.219 220.547 231.787 221.172C230.179 221.879 228.458 222.292 226.703 222.386C226.473 222.398 226.302 222.652 226.331 222.87C226.361 223.112 226.579 223.253 226.815 223.241C230.091 223.058 233.302 221.791 235.812 219.674C236.442 219.144 237.055 218.56 237.55 217.888C238.051 217.21 238.381 216.455 238.611 215.648C238.84 214.822 239.011 213.979 239.141 213.124C239.394 213.879 239.718 214.616 240.137 215.317C240.891 216.591 241.928 217.658 243.218 218.383C244.397 219.049 245.758 219.397 247.107 219.48C248.686 219.574 250.265 219.338 251.762 218.837C251.98 218.772 252.074 218.483 251.991 218.283Z" fill="#E5CAC6"/>
<path d="M299.74 342.576C302.71 341.444 305.031 339.079 307.076 336.645C322.672 318.061 326.932 292.763 330.615 268.779C332.153 258.769 333.696 248.605 332.5 238.546C332.253 236.442 331.888 234.313 331.823 232.209C328.435 231.908 325.047 231.56 321.671 231.153C322.077 232.138 322.578 233.111 322.808 234.013C326.956 250.137 322.478 270.33 315.773 285.181C308.838 300.534 297.772 313.769 291.15 329.263C289.547 333.019 288.339 337.741 290.961 340.872C293.012 343.301 296.771 343.708 299.74 342.576Z" fill="#C62319"/>
<path d="M450.572 241.688C452.246 246.016 452.21 251.01 449.942 255.03C442.459 268.296 434.752 282.386 435.035 297.615C435.2 306.588 438.164 315.255 439.678 324.098C441.068 332.205 441.233 340.523 440.179 348.683C439.754 351.979 439.136 355.381 440.061 358.57C440.986 361.76 444.073 364.631 447.332 364C449.983 363.493 451.751 360.952 452.693 358.423C454.874 352.568 454.119 346.089 453.613 339.863C451.792 317.566 453.583 294.974 458.892 273.242C459.941 268.95 461.143 264.646 463.24 260.761C465.155 257.218 467.765 254.111 470.081 250.809C464.177 246.782 457.554 243.846 450.572 241.688Z" fill="#C62319"/>
<path d="M364.806 285.777C366.244 280.789 369.308 276.355 370.486 271.297C371.47 267.052 371.07 262.63 370.917 258.273C370.634 250.232 371.229 242.16 372.678 234.248C363.834 234.007 354.99 233.724 346.164 233.229C346.853 245.421 340.631 257.572 342.01 269.817C342.805 276.898 346.087 283.418 348.332 290.181C352.61 303.098 353.069 317.254 349.634 330.424C346.187 343.631 338.911 356.041 338.61 369.69C338.534 373.186 343.577 374.789 346.547 372.944C349.516 371.099 350.76 367.467 351.791 364.124C354.489 355.369 357.188 346.614 359.887 337.859C362.379 329.77 364.895 321.534 364.971 313.068C365.042 303.923 362.279 294.567 364.806 285.777Z" fill="#C62319"/>
<path d="M416.568 236.018C410.694 235.593 404.814 235.292 398.927 235.057C398.815 235.799 398.65 236.542 398.48 237.273C396.329 246.524 393.654 255.65 390.46 264.594C387.526 272.824 384.097 281.485 385.865 290.046C387.332 297.162 392.275 303.352 392.823 310.598C393.312 317.059 390.237 323.863 392.723 329.847C393.283 331.197 394.426 332.595 395.875 332.435C396.712 332.341 397.401 331.746 397.967 331.127C402.451 326.198 402.522 318.722 401.502 312.137C400.483 305.551 398.627 298.818 400.165 292.333C402.021 284.48 408.425 278.649 412.544 271.716C416.109 265.714 417.988 258.722 417.9 251.741C417.835 246.6 416.987 240.775 418.548 236.171C417.888 236.112 417.228 236.065 416.568 236.018Z" fill="#C62319"/>
<path d="M602.783 176.731C598.894 176.512 594.999 176.477 591.116 176.648C591.594 180.928 590.604 185.433 589.738 189.731C587.84 199.181 586.685 209.051 588.241 218.484C592.825 217.599 597.592 217.711 602.358 218.242C602.358 214.333 601.127 210.471 600.473 206.586C598.823 196.858 600.756 186.918 602.676 177.243C602.712 177.073 602.747 176.902 602.783 176.731Z" fill="#C62319"/>
<path d="M638.052 182.974C634.865 182.078 631.642 181.247 628.401 180.504C627.818 183.469 626.586 186.37 625.349 189.153C621.643 197.495 617.73 205.808 615.409 214.64C614.937 216.426 614.537 218.266 614.407 220.105C619.798 221.043 625.19 221.98 630.581 222.917C631.571 219.009 631.288 214.864 632.03 210.896C633.845 201.221 641.299 194.005 647.191 185.957C644.204 184.796 641.11 183.835 638.052 182.974Z" fill="#C62319"/>
<path d="M661.338 195.049C660.348 193.964 659.276 192.985 658.15 192.071C656.335 197.301 654.232 202.43 651.846 207.424C649.159 213.054 646.054 219.009 645.005 225.022C652.099 225.464 659.116 224.456 663.571 219.268C669.345 212.541 667.312 201.599 661.338 195.049Z" fill="#C62319"/>
<path d="M546.366 267.854C542.642 261.669 536.508 256.841 530.492 252.596C524.824 248.599 518.838 244.566 514.36 239.378C512.769 242.343 510.972 245.12 508.81 247.573C510 249.07 511.408 250.415 512.905 251.529C517.654 255.078 523.345 257.259 527.876 261.08C532.708 265.16 535.854 270.784 539.054 276.285C541.64 273.608 544.08 270.79 546.366 267.854Z" fill="#C62319"/>
<path d="M576.05 217.281C571.331 209.133 567.507 200.472 564.667 191.493C563.736 188.557 562.94 185.426 562.611 182.325C557.685 184.206 552.942 186.558 548.511 189.371C549.501 192.136 550.296 195.083 551.327 197.707C555.569 208.526 565.957 216.054 570.099 226.914C570.335 227.539 570.594 228.199 570.877 228.848C573.169 226.26 575.72 223.99 578.643 222.198C577.918 220.5 576.964 218.849 576.05 217.281Z" fill="#C62319"/>
<path d="M562.05 241.83C561.609 241.659 561.161 241.489 560.719 241.323C546.124 235.77 533.397 224.138 527.965 209.723C527.452 210.548 526.951 211.385 526.48 212.24C524.365 216.078 522.627 220.229 520.941 224.403C525.855 229.06 530.504 233.989 534.864 239.172C539.702 244.92 544.822 251.381 552.181 252.838C553.377 253.073 554.621 253.174 555.864 253.256C557.932 249.507 559.929 245.61 562.05 241.83Z" fill="#C62319"/>
<path d="M204.943 171.49C205.361 171.961 205.874 172.421 206.504 172.474C207.347 172.539 208.089 171.79 208.278 170.971C208.467 170.151 208.243 169.285 207.948 168.495C205.739 162.54 199.882 158.23 198.674 151.993C198.591 151.556 198.538 151.097 198.544 150.637C194.956 151.604 191.409 152.753 187.933 154.068C188.734 154.481 189.665 154.734 190.401 154.988C192.528 155.725 194.432 156.892 196.075 158.425C197.914 160.141 199.399 162.21 200.63 164.391C201.991 166.809 203.093 169.42 204.943 171.49Z" fill="#C62319"/>
<path d="M219.803 179.82C220.504 181.011 221.759 182.143 223.108 181.831C224.581 181.489 225.153 179.72 225.353 178.223C226.313 171.113 224.74 163.684 220.981 157.57C219.078 154.481 216.615 151.663 215.496 148.208C215.413 147.954 215.342 147.695 215.278 147.436C211.96 147.813 208.667 148.338 205.396 149.004C205.426 149.027 205.461 149.051 205.491 149.075C208.289 151.25 211.135 153.479 213.115 156.415C216.627 161.621 216.945 168.241 218.064 174.42C218.406 176.295 218.842 178.187 219.803 179.82Z" fill="#C62319"/>
<path d="M223.604 146.805C225.336 148.243 226.933 149.829 228.146 151.716C229.761 154.21 230.645 157.11 232.165 159.663C232.913 160.913 233.879 162.128 235.229 162.664C236.584 163.201 238.381 162.823 239.041 161.526C239.548 160.524 239.259 159.286 238.693 158.319C238.128 157.352 237.309 156.556 236.654 155.642C235.152 153.532 234.622 150.89 233.42 148.597C233.113 148.007 232.76 147.447 232.371 146.911C229.466 146.716 226.532 146.699 223.604 146.805Z" fill="#C62319"/>
</g>
<defs>
<clipPath id="clip0_41_547">
<rect width="537" height="332" fill="white" transform="translate(141 130)"/>
</clipPath>
<clipPath id="clip1_41_547">
<rect width="520" height="323" fill="white" transform="translate(147 136.311)"/>
</clipPath>
</defs>
</svg>
