<svg width="494" height="473" viewBox="0 0 494 473" fill="none" xmlns="http://www.w3.org/2000/svg">
<path d="M66.1311 415.975V424.549H130.323V415.975H66.1311Z" fill="#383838"/>
<path d="M74.8873 416.317C75.1039 416.317 75.2863 418.118 75.2863 420.342C75.2863 422.565 75.1039 424.355 74.8873 424.355C74.6706 424.355 74.4768 422.554 74.4768 420.342C74.4768 418.13 74.6592 416.317 74.8873 416.317Z" fill="#517194"/>
<path d="M73.4852 416.146C73.7133 416.146 73.8843 417.948 73.8843 420.159C73.8843 422.371 73.7133 424.184 73.4852 424.184C73.2572 424.184 73.0862 422.383 73.0862 420.159C73.0862 417.936 73.2572 416.146 73.4852 416.146Z" fill="#517194"/>
<path d="M125.363 416.317C125.591 416.317 125.774 418.118 125.774 420.342C125.774 422.565 125.591 424.355 125.363 424.355C125.135 424.355 124.964 422.554 124.964 420.342C124.964 418.13 125.147 416.317 125.363 416.317Z" fill="#517194"/>
<path d="M123.972 416.146C124.189 416.146 124.372 417.948 124.372 420.159C124.372 422.371 124.189 424.184 123.972 424.184C123.756 424.184 123.562 422.383 123.562 420.159C123.562 417.936 123.744 416.146 123.972 416.146Z" fill="#517194"/>
<path d="M115.58 420.513C115.58 420.741 108.226 420.912 99.1618 420.912C90.0973 420.912 82.7432 420.741 82.7432 420.513C82.7432 420.285 90.0973 420.114 99.1618 420.114C108.226 420.114 115.58 420.285 115.58 420.513Z" fill="#517194"/>
<path d="M65.8572 454.581V471.73H130.049V454.581H65.8572Z" fill="#383838"/>
<path d="M130.871 466.907C130.871 466.907 130.768 466.987 130.529 467.101C130.289 467.215 129.936 467.386 129.457 467.591C128.062 468.183 126.599 468.6 125.101 468.834C122.702 469.269 120.227 468.917 118.044 467.831C116.693 467.112 115.542 466.07 114.692 464.798C113.716 463.349 113.309 461.591 113.551 459.861C113.692 458.922 114.086 458.038 114.692 457.307C115.016 456.907 115.429 456.587 115.898 456.373C116.367 456.16 116.879 456.058 117.394 456.076C117.924 456.119 118.439 456.271 118.908 456.522C119.377 456.773 119.789 457.118 120.119 457.535C120.821 458.363 121.254 459.385 121.362 460.465C121.449 461.577 121.297 462.695 120.915 463.744C120.534 464.792 119.932 465.747 119.15 466.542C117.525 468.26 115.334 469.333 112.981 469.564C110.558 469.797 108.114 469.493 105.821 468.675C103.371 467.908 101.196 466.446 99.5614 464.467C98.7182 463.404 98.2102 462.114 98.102 460.762C98.0338 460.058 98.1209 459.348 98.3574 458.683C98.5938 458.017 98.9737 457.411 99.4702 456.908C100.014 456.386 100.725 456.075 101.477 456.03C102.22 456.01 102.952 456.217 103.575 456.623C104.778 457.411 105.625 458.639 105.935 460.043C106.203 461.415 106.111 462.832 105.668 464.157C105.224 465.482 104.444 466.67 103.404 467.603C101.366 469.323 98.8351 470.353 96.1751 470.544C93.6538 470.834 91.0997 470.582 88.6841 469.803C86.3129 469.057 84.2894 467.483 82.9832 465.368C82.3336 464.364 81.9309 463.221 81.808 462.032C81.6852 460.843 81.8456 459.642 82.2762 458.527C82.4895 457.968 82.8407 457.472 83.2973 457.085C83.7538 456.698 84.3008 456.433 84.8873 456.315C85.4513 456.214 86.0302 456.23 86.5875 456.364C87.1448 456.497 87.6684 456.744 88.1254 457.09C88.9256 457.793 89.4983 458.718 89.7705 459.748C90.0426 460.777 90.0018 461.865 89.6532 462.871C89.0291 464.668 87.9059 466.25 86.4151 467.432C83.9457 469.523 80.8468 470.728 77.6129 470.852C75.6445 470.922 73.6835 470.578 71.8568 469.841C70.0301 469.104 68.3786 467.992 67.0092 466.577C66.735 466.294 66.4762 465.997 66.2339 465.687C66.1483 465.584 66.072 465.473 66.0059 465.357C67.3612 466.852 68.9807 468.085 70.7832 468.994C72.907 470.037 75.261 470.523 77.6243 470.408C80.7442 470.23 83.7182 469.028 86.0844 466.987C87.4733 465.862 88.5167 464.368 89.0945 462.677C89.3965 461.796 89.431 460.845 89.1936 459.944C88.9563 459.043 88.4576 458.233 87.7605 457.615C87.3775 457.33 86.9401 457.126 86.4754 457.016C86.0107 456.906 85.5284 456.893 85.0583 456.976C84.5815 457.075 84.1381 457.295 83.7707 457.614C83.4033 457.933 83.1243 458.342 82.9604 458.801C82.5855 459.808 82.4531 460.889 82.574 461.956C82.6948 463.024 83.0654 464.048 83.6559 464.946C84.88 466.9 86.7658 468.349 88.9691 469.028C91.2804 469.761 93.7212 469.994 96.1294 469.712C98.6188 469.527 100.987 468.566 102.902 466.964C103.841 466.118 104.545 465.044 104.945 463.844C105.344 462.645 105.426 461.363 105.182 460.123C104.925 458.917 104.21 457.858 103.187 457.17C102.726 456.829 102.159 456.66 101.586 456.693C101.013 456.727 100.47 456.96 100.052 457.353C99.6371 457.772 99.32 458.277 99.1229 458.833C98.9259 459.389 98.8537 459.981 98.9115 460.568C99.0075 461.766 99.4558 462.908 100.2 463.852C101.737 465.707 103.775 467.08 106.072 467.808C108.261 468.596 110.596 468.895 112.913 468.686C115.082 468.477 117.104 467.498 118.614 465.927C119.333 465.206 119.89 464.34 120.246 463.386C120.602 462.432 120.749 461.413 120.678 460.397C120.639 459.474 120.289 458.592 119.684 457.894C119.079 457.196 118.256 456.724 117.348 456.554C116.926 456.541 116.506 456.624 116.12 456.798C115.735 456.972 115.394 457.232 115.125 457.558C114.569 458.206 114.202 458.995 114.064 459.838C113.831 461.434 114.201 463.06 115.102 464.399C115.893 465.617 116.969 466.623 118.238 467.329C120.344 468.41 122.741 468.79 125.079 468.412C126.558 468.21 128.011 467.847 129.411 467.329C130.369 467.09 130.859 466.873 130.871 466.907Z" fill="#517194"/>
<path d="M71.5925 424.789V454.548H130.05V424.789H71.5925Z" fill="#3E5F84"/>
<path d="M81.307 425.814C81.5236 425.814 81.706 432.256 81.706 440.215C81.706 448.173 81.5236 454.615 81.307 454.615C81.0903 454.615 80.8965 448.173 80.8965 440.215C80.8965 432.256 81.0789 425.814 81.307 425.814Z" fill="#383838"/>
<path d="M85.742 425.438C85.9586 425.438 86.1411 431.812 86.1411 439.657C86.1411 447.501 85.9586 453.875 85.742 453.875C85.5254 453.875 85.3315 447.512 85.3315 439.657C85.3315 431.801 85.514 425.438 85.742 425.438Z" fill="#383838"/>
<path d="M123.448 424.526C123.665 424.526 123.847 431.231 123.847 439.508C123.847 447.786 123.665 454.479 123.448 454.479C123.232 454.479 123.038 447.775 123.038 439.508C123.038 431.242 123.22 424.526 123.448 424.526Z" fill="#383838"/>
<path d="M118.237 424.891C118.454 424.891 118.636 431.413 118.636 439.474C118.636 447.535 118.454 454.057 118.237 454.057C118.02 454.057 117.827 447.535 117.827 439.474C117.827 431.413 118.009 424.891 118.237 424.891Z" fill="#383838"/>
<path d="M432.915 359.832C438.981 356.697 446.107 356.298 452.846 357.404C456.46 358.008 460.223 359.08 462.685 361.805C465.148 364.53 465.604 369.296 462.788 371.622C461.101 373.013 458.763 373.23 456.574 373.195C451.306 373.138 445.469 372.215 441.261 375.385C438.856 377.186 437.259 380.196 434.42 381.085C431.581 381.975 428.446 380.299 426.964 377.767C425.593 375.127 425.291 372.061 426.12 369.205C426.456 367.225 427.243 365.35 428.422 363.724C429.601 362.099 431.138 360.767 432.915 359.832Z" fill="#0D233C"/>
<path d="M419.028 333.026C422.734 338.317 429.94 336.561 433.281 333.334C436.621 330.108 438.035 325.421 439.312 320.952C442.254 310.759 445.207 300.052 443.029 289.665C442.507 286.515 441.122 283.57 439.027 281.16C437.968 279.971 436.616 279.08 435.106 278.576C433.595 278.072 431.98 277.972 430.419 278.286C426.793 279.255 424.536 282.847 422.905 286.188C418.101 296.18 415.581 307.117 415.528 318.204C415.528 323.358 416.121 328.762 419.028 333.026Z" fill="#1F3F62"/>
<path d="M408.892 340.621C412.917 335.843 413.681 328.877 411.891 322.902C410.101 316.928 406.053 311.82 401.39 307.67C395.903 302.785 389.517 299.017 382.588 296.576C379.908 295.496 377.026 295.006 374.14 295.139C372.697 295.222 371.296 295.658 370.06 296.407C368.824 297.156 367.789 298.197 367.048 299.437C365.064 303.211 366.968 307.784 369.02 311.523C372.637 318.098 376.762 324.381 381.357 330.313C385.063 335.091 389.338 339.8 394.937 341.955C400.535 344.11 406.441 343.847 409.428 339.937" fill="#0D233C"/>
<path d="M418.777 412.862C418.973 412.074 419.088 411.268 419.119 410.456C419.29 408.712 419.496 406.511 419.758 403.9C420.085 400.666 420.576 397.45 421.229 394.265C422.087 390.377 423.257 386.564 424.729 382.864C426.174 379.188 428.127 375.734 430.533 372.602C432.493 370.049 434.997 367.966 437.864 366.502C439.812 365.545 441.897 364.895 444.044 364.575C444.852 364.55 445.655 364.436 446.438 364.233C445.627 364.144 444.809 364.144 443.998 364.233C441.768 364.403 439.586 364.97 437.556 365.909C434.541 367.335 431.895 369.438 429.826 372.055C427.311 375.234 425.282 378.769 423.806 382.544C422.333 386.288 421.188 390.153 420.385 394.094C419.764 397.316 419.334 400.571 419.097 403.843C418.891 406.625 418.812 408.883 418.777 410.445C418.692 411.248 418.692 412.058 418.777 412.862Z" fill="#383838"/>
<path d="M419.234 407.812C419.302 407.436 419.325 407.053 419.302 406.671C419.302 405.839 419.302 404.779 419.302 403.479C419.302 400.72 419.302 396.706 419.439 391.758C419.69 381.861 420.579 371.235 422.187 356.184C423.749 342.069 425.835 325.627 428.047 314.944C428.515 312.515 428.994 310.326 429.45 308.411C429.906 306.495 430.236 304.842 430.59 303.508C430.943 302.174 431.137 301.227 431.331 300.407C431.434 300.033 431.502 299.652 431.536 299.266C431.362 299.598 431.232 299.95 431.148 300.315C430.898 301.113 430.59 302.128 430.214 303.371C429.837 304.614 429.381 306.335 428.902 308.251C428.423 310.166 427.876 312.344 427.363 314.773C424.624 327.408 422.565 340.181 421.195 353.037C419.553 368.088 418.812 381.793 418.743 391.712C418.686 396.672 418.743 400.685 418.914 403.456C418.994 404.756 419.063 405.816 419.108 406.649C419.102 407.04 419.144 407.431 419.234 407.812Z" fill="#383838"/>
<path d="M419.302 381.382C419.389 380.274 419.389 379.16 419.302 378.052C419.176 375.909 418.88 372.808 418.276 369.022C417.549 364.584 416.57 360.191 415.345 355.864C413.907 350.541 412.066 345.334 409.838 340.29C406.023 330.991 400.549 322.465 393.682 315.126C392.485 313.872 391.213 312.692 389.874 311.591C389.292 311.101 388.734 310.611 388.255 310.223L386.784 309.208C385.896 308.531 384.955 307.928 383.968 307.407C383.808 307.623 387.947 310.052 393.169 315.616C399.811 323.019 405.14 331.502 408.926 340.7C411.104 345.71 412.944 350.86 414.433 356.115C415.881 360.95 416.839 365.396 417.569 369.136C418.298 372.876 418.652 375.977 418.891 378.087C418.939 379.194 419.077 380.296 419.302 381.382Z" fill="#383838"/>
<path d="M391.983 423.99L394.64 460.271H441.239L443.896 423.99H391.983Z" fill="#0D233C"/>
<path d="M449.448 409.692H387.479V423.99H449.448V409.692Z" fill="#0D233C"/>
<path d="M387.479 458.88V462.848H390.398H448.434V458.88H387.479Z" fill="#383838"/>
<path d="M393.249 469.381L390.398 462.415H446.21L442.881 469.381H393.249Z" fill="#383838"/>
<path d="M443.029 435.849C442.972 435.968 442.899 436.079 442.812 436.179C442.618 436.43 442.39 436.726 442.117 437.103L439.392 440.58L439.278 440.74L439.164 440.569C437.453 438.209 435.173 435.062 432.494 431.345H432.836L426.268 440.649L426.063 440.934L425.835 440.66L418.082 431.368H418.526L418.105 431.903L411.172 440.66L410.933 440.957L410.728 440.649C408.356 437.308 406.167 434.172 404.149 431.356H404.536L396.441 440.58L396.304 440.74L396.19 440.557L393.659 436.305C393.385 435.837 393.18 435.461 393.009 435.164C392.925 435.04 392.856 434.906 392.804 434.765C392.909 434.872 393.001 434.99 393.078 435.119L393.796 436.259L396.453 440.443H396.202L404.183 431.105L404.377 430.877L404.559 431.128L411.195 440.386H410.739L417.694 431.641L418.116 431.094L418.344 430.82L418.572 431.094L426.337 440.375H425.903L432.539 431.117L432.733 430.843L432.916 431.117L439.449 440.443H439.209C440.406 439.007 441.341 437.878 442.037 437.023L442.789 436.145C442.926 435.928 443.018 435.837 443.029 435.849Z" fill="#253B54"/>
<path d="M444.546 423.751C444.546 423.91 432.859 424.036 418.458 424.036C404.058 424.036 392.371 423.91 392.371 423.751C392.371 423.591 404.046 423.466 418.458 423.466C432.87 423.466 444.546 423.591 444.546 423.751Z" fill="#253B54"/>
<path d="M178.815 45.8036C178.815 45.8036 178.712 45.8036 178.541 45.7238L177.789 45.4274L174.915 44.2302L164.369 39.6695L129.707 24.5735L128.499 24.0376H128.75L94.7835 38.6205L84.5219 42.9304L81.7171 44.0706C81.3974 44.2173 81.0655 44.3356 80.7251 44.424C81.0278 44.2436 81.3442 44.0873 81.6714 43.9566L84.4307 42.7024L94.6923 38.1986L128.578 23.5017H128.704H128.829L130.038 24.0262L164.631 39.3046L175.086 43.9908L177.914 45.302L178.644 45.6554C178.706 45.698 178.764 45.7477 178.815 45.8036Z" fill="#383838"/>
<path d="M232.882 40.8326H10.2166V207.561H232.882V40.8326Z" fill="#021224"/>
<path d="M225.939 48.5857H18.0042V200.709H225.939V48.5857Z" fill="#536171"/>
<path d="M63.9302 115.047C63.9302 115.047 64.1468 140.576 65.4466 148.374L97.4743 146.858C97.4743 146.858 94.6695 121.774 95.7526 115.047H63.9302Z" fill="#383838"/>
<path d="M79.7107 118.65H80.1782C80.624 118.633 81.0704 118.656 81.5122 118.718C82.2139 118.822 82.8973 119.026 83.5417 119.323C84.3948 119.745 85.1486 120.343 85.7537 121.078C86.4973 121.972 87.0241 123.026 87.2929 124.157C87.5434 125.481 87.4291 126.849 86.9623 128.113C86.7236 128.801 86.4221 129.465 86.0615 130.097C85.6788 130.741 85.3361 131.407 85.0353 132.093C84.3968 133.547 83.9595 135.081 83.7355 136.653V136.756H83.6329H80.4746H77.1567H77.0313V136.642C76.8891 135.077 76.3601 133.573 75.492 132.264C75.1044 131.602 74.6825 130.998 74.3518 130.371C73.9379 129.781 73.5573 129.168 73.2117 128.535C72.6268 127.324 72.4508 125.956 72.71 124.636C72.8961 123.496 73.3195 122.409 73.9528 121.443C74.4935 120.667 75.203 120.024 76.0279 119.562C77.0463 119.022 78.1631 118.692 79.3116 118.593H79.7677C79.7677 118.593 79.7677 118.593 79.6537 118.593H79.3116C78.8765 118.644 78.4458 118.728 78.0232 118.844C77.349 119.02 76.7011 119.284 76.0963 119.63C75.2895 120.086 74.5989 120.722 74.0782 121.489C73.4893 122.446 73.1013 123.513 72.938 124.624C72.6892 125.903 72.8654 127.229 73.4397 128.398C73.7888 129.022 74.1694 129.627 74.5799 130.211C74.979 130.816 75.4008 131.443 75.7885 132.104C76.6885 133.443 77.2338 134.989 77.3733 136.596L77.2479 136.471H80.5658H83.7355L83.6101 136.585C83.8381 134.992 84.2831 133.439 84.9327 131.967C85.2457 131.276 85.5958 130.602 85.9817 129.949C86.3358 129.331 86.6335 128.682 86.871 128.011C87.3326 126.785 87.4547 125.458 87.2245 124.168C86.9646 123.064 86.4621 122.032 85.7537 121.147C85.1655 120.421 84.4313 119.826 83.5987 119.402C82.9677 119.097 82.2955 118.886 81.6034 118.775C81.1693 118.709 80.7313 118.671 80.2922 118.661H79.9387C79.7563 118.661 79.7107 118.661 79.7107 118.65Z" fill="#37424E"/>
<path d="M81.3523 136.448C81.35 136.414 81.35 136.38 81.3523 136.345V136.049C81.3523 135.787 81.2497 135.399 81.1813 134.909C81.0331 133.905 80.8164 132.469 80.6796 130.679C80.6796 130.234 80.6112 129.767 80.5998 129.276C80.5711 128.764 80.5711 128.25 80.5998 127.737C80.6121 127.187 80.7322 126.645 80.9532 126.141C81.1997 125.596 81.6381 125.162 82.1846 124.921C82.4757 124.798 82.7964 124.765 83.1067 124.823C83.4169 124.882 83.7029 125.031 83.9291 125.251C84.0495 125.363 84.1444 125.499 84.2074 125.651C84.2704 125.802 84.2999 125.965 84.294 126.129C84.2874 126.46 84.1756 126.779 83.9747 127.041C83.7686 127.308 83.5031 127.523 83.1994 127.669C82.898 127.81 82.5801 127.914 82.253 127.976C80.9173 128.25 79.5451 128.296 78.194 128.113C77.8598 128.068 77.5335 127.976 77.2248 127.84C76.9237 127.704 76.6525 127.51 76.4267 127.269C76.1954 127.028 76.0338 126.729 75.9592 126.403C75.8875 126.084 75.9278 125.75 76.0733 125.457C76.2053 125.161 76.4463 124.929 76.746 124.807C76.8882 124.746 77.0415 124.714 77.1963 124.714C77.3512 124.714 77.5044 124.746 77.6467 124.807C77.922 124.932 78.1584 125.129 78.3308 125.377C78.4914 125.62 78.6073 125.891 78.6729 126.175C78.7695 126.717 78.8229 127.266 78.8325 127.817L78.9921 130.747C79.0719 132.537 79.1517 133.985 79.1974 135C79.1974 135.49 79.1974 135.878 79.1974 136.14V136.539C79.1998 136.505 79.1998 136.471 79.1974 136.437C79.1974 136.368 79.1974 136.266 79.1974 136.14C79.1974 136.015 79.1974 135.479 79.1289 135C79.1289 133.985 78.9807 132.537 78.8781 130.747C78.8781 129.858 78.7755 128.877 78.7185 127.817C78.7112 127.273 78.6539 126.731 78.5475 126.198C78.4917 125.925 78.3833 125.665 78.2282 125.434C78.059 125.202 77.836 125.014 77.5783 124.887C77.4467 124.83 77.3052 124.801 77.1621 124.801C77.0191 124.801 76.8775 124.83 76.746 124.887C76.4685 125.002 76.2446 125.218 76.1189 125.491C75.9876 125.768 75.9515 126.081 76.0163 126.38C76.0931 126.683 76.2461 126.962 76.4609 127.19C76.9237 127.646 77.5256 127.935 78.1712 128.011C78.8401 128.098 79.5152 128.129 80.1893 128.102C80.8636 128.084 81.535 128.008 82.196 127.874C82.5162 127.813 82.8268 127.709 83.1196 127.566C83.4085 127.427 83.6619 127.224 83.8607 126.973C84.049 126.727 84.1565 126.428 84.1685 126.118C84.1679 125.967 84.1374 125.818 84.0787 125.679C84.0199 125.54 83.9342 125.414 83.8265 125.308C83.612 125.104 83.3433 124.965 83.0523 124.908C82.7613 124.852 82.4602 124.88 82.1846 124.989C81.6784 125.218 81.273 125.623 81.0445 126.129C80.8276 126.627 80.7077 127.161 80.691 127.703C80.691 128.227 80.691 128.729 80.691 129.219C80.691 129.709 80.691 130.177 80.7708 130.633C80.9076 132.423 81.1129 133.86 81.2383 134.852C81.3067 135.353 81.3637 135.73 81.3979 135.992V136.288C81.389 136.343 81.3737 136.397 81.3523 136.448Z" fill="#37424E"/>
<path d="M77.0996 136.619C77.1516 136.971 77.182 137.325 77.1908 137.68C77.1908 138.44 77.2364 139.364 77.3276 140.451V140.382L79.494 142.902H79.38L81.877 142.765H81.7743L83.0057 141.26L83.6329 140.496V140.599C83.6329 139.128 83.5644 137.748 83.5416 136.494L83.6784 136.619H79.0151H77.0996C77.2471 136.598 77.3968 136.598 77.5443 136.619L78.8555 136.551L83.5986 136.369H83.7355V136.505C83.7355 137.771 83.8153 139.151 83.8609 140.61V140.622C83.6557 140.872 83.4504 141.135 83.2338 141.385L81.991 142.902H81.9226L79.4256 143.027H79.38L77.2592 140.507C77.2592 139.367 77.2592 138.455 77.2592 137.657C77.1856 137.315 77.1323 136.968 77.0996 136.619Z" fill="#37424E"/>
<path d="M83.576 140.222C83.576 140.222 83.4847 140.222 83.3365 140.119C83.1244 140.024 82.9075 139.941 82.6866 139.869C81.9546 139.613 81.1811 139.497 80.4062 139.526C79.623 139.544 78.8498 139.706 78.1259 140.005L77.4988 140.302L77.2708 140.416C77.3295 140.354 77.3991 140.304 77.476 140.268C77.6781 140.145 77.8875 140.034 78.1031 139.937C78.8221 139.618 79.597 139.443 80.3834 139.424C81.1611 139.395 81.9366 139.523 82.6638 139.8C82.8836 139.879 83.0971 139.974 83.3023 140.085L83.576 140.222Z" fill="#37424E"/>
<path d="M83.5645 139.23L83.3365 139.127L82.6866 138.865C81.9529 138.616 81.1807 138.501 80.4062 138.523C79.6243 138.551 78.853 138.713 78.1259 139.002C77.8522 139.116 77.647 139.219 77.4988 139.298L77.2708 139.412L77.476 139.264C77.6763 139.141 77.8859 139.035 78.1031 138.945C78.8212 138.622 79.5962 138.443 80.3834 138.421C81.1603 138.403 81.9337 138.531 82.6638 138.797C82.9374 138.911 83.1541 139.013 83.3023 139.093C83.4505 139.173 83.5759 139.219 83.5645 139.23Z" fill="#37424E"/>
<path d="M83.5072 138.273L83.2791 138.181C83.1195 138.113 82.9029 138.01 82.6292 137.919C81.8954 137.671 81.1233 137.555 80.3489 137.577C79.5655 137.593 78.792 137.755 78.0685 138.056C77.7949 138.17 77.5896 138.273 77.4414 138.352L77.2134 138.467L77.4186 138.318C77.6194 138.193 77.829 138.083 78.0457 137.988C78.7666 137.674 79.5404 137.5 80.3261 137.475C81.1029 137.458 81.8761 137.586 82.6064 137.851C82.8259 137.935 83.0392 138.034 83.2449 138.147C83.3398 138.171 83.4289 138.214 83.5072 138.273Z" fill="#37424E"/>
<path d="M28.2656 73.3507C28.2656 73.3507 28.4823 98.8908 29.7821 106.678L61.8097 105.162C61.8097 105.162 58.9935 80.0778 60.0767 73.3507H28.2656Z" fill="#0D233C"/>
<path d="M55.2538 84.0225C51.6989 84.5488 48.1166 84.8685 44.5247 84.9803C40.9433 85.3105 37.345 85.4209 33.75 85.3109C37.3057 84.7915 40.8876 84.4717 44.4791 84.3532C48.0614 84.0367 51.6589 83.9263 55.2538 84.0225Z" fill="#37424E"/>
<path d="M55.2534 89.4271C51.6994 89.9624 48.1167 90.286 44.5243 90.3963C40.9458 90.7128 37.3521 90.8232 33.761 90.7269C37.3158 90.1999 40.8982 89.8801 44.4901 89.7692C48.0682 89.4459 51.662 89.3317 55.2534 89.4271Z" fill="#37424E"/>
<path d="M49.8151 94.7404C47.8062 95.1736 45.7587 95.4028 43.7038 95.4245C41.6643 95.632 39.609 95.632 37.5696 95.4245C39.5747 94.9917 41.6184 94.7625 43.6695 94.7404C45.7128 94.5327 47.7719 94.5327 49.8151 94.7404Z" fill="#37424E"/>
<path d="M26.749 148.432C26.749 148.432 26.9657 173.96 28.2655 181.759L60.2931 180.243C60.2931 180.243 57.4769 155.159 58.5601 148.432H26.749Z" fill="#0D233C"/>
<path d="M53.737 159.149C50.1828 159.683 46.6002 160.006 43.0079 160.118C39.4295 160.435 35.8358 160.545 32.2446 160.449C35.7955 159.921 39.3742 159.602 42.9623 159.491C46.5442 159.168 50.1419 159.054 53.737 159.149Z" fill="#37424E"/>
<path d="M53.737 164.565C50.1823 165.093 46.5999 165.412 43.0079 165.523C39.4295 165.839 35.8358 165.95 32.2446 165.853C35.7994 165.326 39.3818 165.006 42.9737 164.896C46.5522 164.579 50.1459 164.469 53.737 164.565Z" fill="#37424E"/>
<path d="M48.2988 169.878C46.2938 170.31 44.2498 170.536 42.1988 170.551C40.1575 170.778 38.0984 170.797 36.0532 170.608C38.0583 170.175 40.102 169.946 42.1532 169.924C44.1947 169.697 46.2541 169.682 48.2988 169.878Z" fill="#37424E"/>
<path d="M114.281 80.0663L117.45 153.722L209.395 154.828L205.267 81.0354L114.281 80.0663Z" fill="#0D233C"/>
<path d="M204.549 79.5419H113.209V148.511H204.549V79.5419Z" fill="#253B54"/>
<path d="M204.549 148.511C204.549 148.511 204.549 148.067 204.549 147.223C204.549 146.379 204.549 145.148 204.549 143.552C204.549 140.313 204.549 135.57 204.481 129.596C204.481 117.567 204.401 100.361 204.344 79.5418L204.606 79.7926H113.277L113.597 79.4847C113.597 104.284 113.597 127.771 113.597 148.454L113.312 148.169L179.191 148.306L197.936 148.386H202.919H204.207H204.652H202.976L197.959 148.603L179.294 148.682L113.163 148.819H112.878V148.546C112.878 127.863 112.878 104.375 112.878 79.576V79.2567H113.198H204.526H204.8V79.519C204.8 100.396 204.697 117.669 204.663 129.687C204.663 135.673 204.663 140.359 204.595 143.586C204.595 145.159 204.595 146.368 204.595 147.211C204.572 148.101 204.549 148.511 204.549 148.511Z" fill="#3A5470"/>
<path d="M161.256 94.1472H124.235V140.746H161.256V94.1472Z" fill="#253B54"/>
<path d="M161.257 140.747C161.244 140.667 161.244 140.586 161.257 140.507V139.846C161.257 139.23 161.257 138.386 161.257 137.303C161.257 135.023 161.257 131.819 161.188 127.737C161.188 119.539 161.097 107.932 161.04 94.1474L161.325 94.4325H124.303C124.223 94.4325 124.896 93.8396 124.611 94.1246V106.792C124.611 110.931 124.611 114.967 124.611 118.878C124.611 126.711 124.611 134.042 124.611 140.701L124.36 140.439L151.166 140.576L158.68 140.644H160.675H161.382C161.166 140.66 160.948 140.66 160.732 140.644H158.794L151.326 140.712L124.36 140.849H124.098V140.587C124.098 133.928 124.098 126.597 124.098 118.764C124.098 114.853 124.098 110.783 124.098 106.678V94.1702C123.813 94.4439 124.474 93.7712 124.417 93.851H161.439H161.724V94.136C161.667 107.989 161.61 119.665 161.576 127.908L161.507 137.406C161.507 138.47 161.507 139.302 161.507 139.903C161.507 140.154 161.507 140.359 161.507 140.53C161.433 140.612 161.348 140.685 161.257 140.747Z" fill="#383838"/>
<path d="M196.602 83.4868H125.649V90.2025H196.602V83.4868Z" fill="#253B54"/>
<path d="M196.602 90.2025C196.602 90.2025 196.602 90.0315 196.602 89.7464C196.602 89.4614 196.602 88.9825 196.602 88.4352C196.602 87.295 196.602 85.619 196.522 83.4868L196.648 83.6123C184.687 83.7263 157.414 83.8061 125.694 83.8061C126.321 83.1676 125.865 83.6237 126.013 83.4868V90.1797L125.706 89.8604L175.999 89.9973L191.095 90.0885H195.2H196.283C196.408 90.0791 196.534 90.0791 196.659 90.0885H196.328H195.291H191.255L176.227 90.1911L125.706 90.3165H125.398V90.0087C125.398 88.9369 125.398 87.8309 125.398 86.7135V83.293L125.717 82.9738C157.437 82.9738 184.71 83.0536 196.67 83.1676H196.807V83.293C196.807 85.4479 196.807 87.1354 196.739 88.3212C196.739 88.8571 196.739 89.2675 196.739 89.5868C196.73 89.7984 196.683 90.0068 196.602 90.2025Z" fill="#383838"/>
<path d="M196.602 94.1472H165.783V122.23H196.602V94.1472Z" fill="#253B54"/>
<path d="M196.602 122.23C196.602 122.23 196.602 122.036 196.602 121.694V120.166C196.602 118.798 196.602 116.871 196.534 114.465C196.534 109.517 196.454 102.551 196.397 94.1702L196.659 94.4438H165.874L166.182 94.136V101.673C166.182 104.135 166.182 106.553 166.182 108.913C166.182 113.622 166.182 118.034 166.182 122.207L165.897 121.934L188.131 122.07L194.436 122.15H196.123C196.321 122.134 196.519 122.134 196.716 122.15C196.538 122.167 196.359 122.167 196.18 122.15H194.55L188.313 122.219L165.897 122.355H165.623V122.07C165.623 117.954 165.623 113.485 165.623 108.776C165.623 106.416 165.623 103.999 165.623 101.536V93.9992C165.338 94.2728 166 93.6115 165.943 93.6799H196.728H197.001V93.9422C196.944 102.391 196.899 109.426 196.864 114.465C196.864 116.86 196.807 118.764 196.796 120.166C196.796 120.767 196.796 121.257 196.796 121.637C196.759 121.843 196.694 122.042 196.602 122.23Z" fill="#383838"/>
<path d="M196.602 126.631H165.783V140.747H196.602V126.631Z" fill="#253B54"/>
<path d="M196.602 140.747C196.602 140.747 196.602 140.382 196.602 139.72L196.545 136.893C196.545 134.396 196.476 130.918 196.419 126.631L196.647 126.859L165.862 126.95C165.577 127.235 166.239 126.563 166.17 126.643V133.906C166.17 136.266 166.17 138.557 166.17 140.747L165.862 140.45L187.902 140.587L194.333 140.678H196.066H196.682C196.5 140.695 196.316 140.695 196.134 140.678H194.458L188.107 140.769L165.862 140.906H165.566V140.61C165.566 138.421 165.566 136.129 165.566 133.769V126.506C165.498 126.506 166.159 125.901 165.885 126.187L196.67 126.266H196.818V126.494C196.818 130.838 196.727 134.373 196.704 136.893C196.704 138.033 196.704 138.979 196.704 139.675C196.705 140.035 196.67 140.394 196.602 140.747Z" fill="#383838"/>
<path d="M160.333 94.2272C148.863 110.064 135.682 124.909 124.223 140.747L160.333 94.2272Z" fill="#37424E"/>
<path d="M124.235 140.747C124.235 140.747 124.314 140.553 124.531 140.222L125.5 138.808C126.344 137.577 127.61 135.832 129.206 133.7C132.387 129.413 136.936 123.621 142.044 117.293C147.152 110.965 151.747 105.218 155.008 101.011L158.873 96.0286L159.934 94.6718C160.185 94.3754 160.321 94.2157 160.344 94.2271C160.262 94.4129 160.158 94.5889 160.036 94.7516L159.067 96.1654C158.223 97.3968 156.958 99.1413 155.362 101.285C152.18 105.561 147.631 111.353 142.523 117.681C137.415 124.009 132.832 129.755 129.559 133.962L125.694 138.956L124.634 140.302C124.518 140.465 124.385 140.614 124.235 140.747Z" fill="#383838"/>
<path d="M161.257 140.747C161.12 140.849 152.717 130.485 142.501 117.647C132.285 104.808 124.098 94.2614 124.258 94.1474C124.417 94.0334 132.786 104.409 143.014 117.259C153.241 130.109 161.393 140.621 161.257 140.747Z" fill="#383838"/>
<path d="M117.451 94.2503C117.451 95.3958 117.111 96.5157 116.475 97.4682C115.838 98.4207 114.933 99.1631 113.875 99.6015C112.817 100.04 111.652 100.155 110.529 99.9311C109.405 99.7076 108.373 99.1559 107.563 98.3459C106.753 97.5359 106.201 96.5038 105.978 95.3802C105.754 94.2567 105.869 93.0921 106.307 92.0337C106.746 90.9753 107.488 90.0707 108.441 89.4343C109.393 88.7978 110.513 88.4581 111.659 88.4581C113.194 88.4611 114.665 89.0723 115.751 90.1579C116.836 91.2435 117.448 92.715 117.451 94.2503Z" fill="#383838"/>
<path d="M212.188 80.1917C212.188 81.3372 211.849 82.4571 211.212 83.4096C210.576 84.3621 209.671 85.1045 208.613 85.5429C207.554 85.9813 206.39 86.096 205.266 85.8725C204.143 85.649 203.111 85.0973 202.3 84.2873C201.49 83.4773 200.939 82.4452 200.715 81.3216C200.492 80.1981 200.607 79.0335 201.045 77.9751C201.483 76.9167 202.226 76.0121 203.178 75.3757C204.131 74.7392 205.251 74.3995 206.396 74.3995C207.931 74.4025 209.403 75.0138 210.488 76.0993C211.574 77.1849 212.185 78.6564 212.188 80.1917Z" fill="#383838"/>
<path d="M438.765 120.531H372.019V217.287H438.765V120.531Z" fill="#383838"/>
<path d="M435.424 120.531H368.678V217.287H435.424V120.531Z" fill="#253B54"/>
<path d="M427.135 131.01H376.967V206.809H427.135V131.01Z" fill="#37424E"/>
<path d="M427.135 206.809C427.135 206.809 427.135 206.672 427.135 206.432C427.135 206.193 427.135 205.828 427.135 205.361C427.135 204.403 427.135 203.012 427.135 201.199C427.135 197.573 427.135 192.271 427.135 185.59C427.135 172.227 427.135 153.3 427.055 131.009L427.226 131.18H376.967L377.15 130.998C377.15 159.594 377.15 185.955 377.15 206.797L377.001 206.649L413.487 206.729H423.578H426.223H427.147H426.257H423.635H413.578L376.979 206.797H376.83V206.66C376.83 185.818 376.83 159.457 376.83 130.861V130.679H376.967H427.135H427.295V130.838C427.295 153.174 427.238 172.136 427.215 185.567C427.215 192.237 427.215 197.516 427.215 201.142C427.215 202.932 427.215 204.312 427.215 205.258C427.215 205.725 427.215 206.067 427.215 206.318L427.135 206.809Z" fill="#383838"/>
<path d="M435.607 120.531C435.285 121.145 434.903 121.726 434.466 122.264C433.691 123.302 432.585 124.704 431.331 126.232C430.077 127.76 428.902 129.105 428.036 130.075C427.593 130.617 427.101 131.117 426.565 131.568C426.945 130.98 427.372 130.423 427.842 129.904L431.057 126.004L434.261 122.105C434.671 121.548 435.12 121.022 435.607 120.531Z" fill="#383838"/>
<path d="M427.386 206.558C429.876 210.527 432.81 214.199 436.131 217.504L427.386 206.558Z" fill="#37424E"/>
<path d="M436.131 217.504C435.576 217.098 435.067 216.631 434.614 216.113C433.449 214.932 432.345 213.691 431.308 212.396C430.272 211.1 429.301 209.753 428.4 208.36C427.999 207.797 427.659 207.193 427.386 206.558C427.834 207.08 428.246 207.632 428.617 208.211C429.347 209.249 430.384 210.651 431.593 212.168C432.802 213.684 433.953 214.995 434.797 215.942C435.282 216.427 435.728 216.949 436.131 217.504Z" fill="#383838"/>
<path d="M368.667 217.207L377.412 206.421L368.667 217.207Z" fill="#37424E"/>
<path d="M377.411 206.421C377.48 206.421 375.587 208.952 373.181 211.928C371.755 213.767 370.233 215.529 368.621 217.207C371.345 213.461 374.264 209.861 377.366 206.421H377.411Z" fill="#383838"/>
<path d="M368.678 120.531C370.176 122.15 371.592 123.844 372.92 125.605C374.335 127.298 375.656 129.068 376.876 130.907C375.373 129.28 373.958 127.575 372.635 125.799C371.216 124.12 369.895 122.362 368.678 120.531Z" fill="#383838"/>
<path d="M411.504 146.402H394.709V194.096H411.504V146.402Z" fill="#383838"/>
<path d="M423.382 17.7232L413.828 17.7749L414.085 65.3197L423.64 65.268L423.382 17.7232Z" fill="#383838"/>
<path d="M355.794 17.8499L331.052 17.9838L331.194 44.2303L355.936 44.0965L355.794 17.8499Z" fill="#0D233C"/>
<path d="M380.41 17.728L355.668 17.8618L355.81 44.1084L380.552 43.9745L380.41 17.728Z" fill="#253B54"/>
<path d="M331.086 25.2578C347.528 25.3946 364.015 25.2578 380.456 25.0297C380.526 25.0297 380.593 25.0021 380.642 24.9529C380.691 24.9037 380.719 24.837 380.719 24.7675C380.719 24.6979 380.691 24.6312 380.642 24.5821C380.593 24.5329 380.526 24.5052 380.456 24.5052C364 24.414 347.543 24.5128 331.086 24.8017C331.026 24.8017 330.968 24.8257 330.925 24.8685C330.882 24.9113 330.858 24.9693 330.858 25.0297C330.858 25.0902 330.882 25.1482 330.925 25.191C330.968 25.2337 331.026 25.2578 331.086 25.2578Z" fill="#383838"/>
<path d="M360.575 43.6716L315.618 43.9148L315.734 65.3043L360.69 65.061L360.575 43.6716Z" fill="#0D233C"/>
<path d="M405.324 43.4294L360.368 43.6726L360.483 65.0621L405.44 64.8188L405.324 43.4294Z" fill="#253B54"/>
<path d="M315.648 49.8741C345.521 50.2161 375.485 49.8741 405.347 49.4294C405.416 49.4294 405.483 49.4018 405.532 49.3526C405.581 49.3034 405.609 49.2367 405.609 49.1672C405.609 49.0976 405.581 49.0309 405.532 48.9817C405.483 48.9325 405.416 48.9049 405.347 48.9049C375.474 48.7453 345.51 48.7681 315.648 49.418C315.588 49.418 315.53 49.442 315.487 49.4848C315.444 49.5275 315.42 49.5855 315.42 49.646C315.42 49.7065 315.444 49.7645 315.487 49.8073C315.53 49.85 315.588 49.8741 315.648 49.8741Z" fill="#383838"/>
<path d="M473.016 65.3124H298.842V72.9744H473.016V65.3124Z" fill="#8D9AA8"/>
<path d="M334.427 68.9952H327.358V95.1396H334.427V68.9952Z" fill="#383838"/>
<path d="M439.974 68.9952H432.905V95.1396H439.974V68.9952Z" fill="#383838"/>
<path d="M432.704 6.20447e-05L423.149 0.0517578L423.503 65.4402L433.058 65.3885L432.704 6.20447e-05Z" fill="#0D233C"/>
<path d="M447.638 12.1761L432.793 12.2565L433.079 65.2513L447.924 65.171L447.638 12.1761Z" fill="#253B54"/>
<path d="M447.533 22.3958C442.598 22.7444 437.645 22.7444 432.71 22.3958C437.646 22.0624 442.598 22.0624 447.533 22.3958Z" fill="#383838"/>
<path d="M447.533 20.1726C442.598 20.5211 437.645 20.5211 432.71 20.1726C437.646 19.8391 442.598 19.8391 447.533 20.1726Z" fill="#383838"/>
<path d="M447.533 57.2058C442.598 57.5543 437.645 57.5543 432.71 57.2058C437.646 56.8723 442.598 56.8723 447.533 57.2058Z" fill="#383838"/>
<path d="M447.533 54.9824C442.598 55.3309 437.645 55.3309 432.71 54.9824C437.646 54.6489 442.598 54.6489 447.533 54.9824Z" fill="#383838"/>
<path d="M440.35 50.1251C440.202 50.1251 440.088 44.7777 440.088 38.1875C440.088 31.5972 440.202 26.2498 440.35 26.2498C440.498 26.2498 440.601 31.5972 440.601 38.1875C440.601 44.7777 440.487 50.1251 440.35 50.1251Z" fill="#383838"/>
<path d="M463.849 25.2006H447.692V65.1981H463.849V25.2006Z" fill="#0D233C"/>
<path d="M456.232 54.8341C455.751 54.8622 455.27 54.7883 454.819 54.6173C454.369 54.4463 453.96 54.182 453.618 53.8419C453.277 53.5017 453.012 53.0933 452.839 52.6434C452.667 52.1935 452.591 51.7122 452.618 51.2312C452.592 50.7068 452.698 50.1844 452.928 49.7121C453.157 49.2398 453.501 48.8329 453.929 48.5289L454.294 49.042C453.951 49.2921 453.676 49.6225 453.491 50.0043C453.306 50.386 453.218 50.8073 453.234 51.2312C453.234 52.0265 453.55 52.7892 454.112 53.3515C454.674 53.9139 455.437 54.2298 456.232 54.2298C457.028 54.2298 457.79 53.9139 458.353 53.3515C458.915 52.7892 459.231 52.0265 459.231 51.2312C459.248 50.806 459.159 50.3833 458.972 50.0012C458.785 49.619 458.505 49.2894 458.159 49.042L458.536 48.5289C458.958 48.8371 459.298 49.2451 459.525 49.7166C459.752 50.1881 459.859 50.7084 459.835 51.2312C459.862 51.7112 459.787 52.1915 459.615 52.6405C459.443 53.0896 459.179 53.4974 458.839 53.8374C458.499 54.1774 458.091 54.4419 457.642 54.6136C457.193 54.7854 456.712 54.8605 456.232 54.8341Z" fill="#517194"/>
<path d="M458.923 47.5369L458.387 47.229C458.947 46.4917 459.248 45.5897 459.242 44.6636C459.242 43.17 458.706 42.5657 457.908 42.5657C455.833 42.5657 457.361 47.286 454.567 47.286C453.496 47.286 452.618 46.3853 452.618 44.5838C452.604 43.7197 452.846 42.8707 453.313 42.1438L453.861 42.4631C453.431 43.09 453.208 43.8354 453.222 44.5952C453.222 45.9862 453.792 46.6019 454.556 46.6019C456.688 46.6019 455.183 41.8816 457.897 41.8816C459.037 41.8816 459.835 42.885 459.835 44.6978C459.87 45.7214 459.547 46.7251 458.923 47.5369Z" fill="#517194"/>
<path d="M458.923 41.0265L458.387 40.7187C458.947 39.9813 459.248 39.0793 459.242 38.1533C459.242 36.6596 458.706 36.0553 457.908 36.0553C455.833 36.0553 457.361 40.7643 454.567 40.7643C453.496 40.7643 452.618 39.8749 452.618 38.0734C452.604 37.2093 452.846 36.3603 453.313 35.6335L453.861 35.9413C453.432 36.573 453.209 37.3216 453.222 38.0848C453.222 39.4759 453.792 40.0916 454.556 40.0916C456.688 40.0916 455.183 35.3712 457.897 35.3712C459.037 35.3712 459.835 36.3632 459.835 38.1761C459.871 39.2033 459.549 40.2112 458.923 41.0265Z" fill="#517194"/>
<path d="M427.785 13.9357C429.302 13.9357 430.533 12.7055 430.533 11.1879C430.533 9.67031 429.302 8.44006 427.785 8.44006C426.267 8.44006 425.037 9.67031 425.037 11.1879C425.037 12.7055 426.267 13.9357 427.785 13.9357Z" fill="#383838"/>
<path d="M428.629 18.736H426.93V57.6389H428.629V18.736Z" fill="#383838"/>
<path d="M493.049 471.273C493.049 471.433 382.919 471.57 247.101 471.57C111.283 471.57 1.12964 471.456 1.12964 471.273C1.12964 471.091 111.237 470.977 247.101 470.977C382.965 470.977 493.049 471.136 493.049 471.273Z" fill="#263238"/>
<path d="M134.314 79.3251C116.014 108.103 117.211 148.01 137.21 175.636C150.539 194.062 170.526 206.421 186.398 222.68C202.269 238.939 214.332 262.94 205.952 284.079C197.423 305.594 172.442 314.339 153.743 327.976C133.112 343.002 119.106 365.438 114.667 390.573C110.227 415.707 115.7 441.583 129.936 462.768H324.245C324.245 462.768 358.382 397.721 314.497 348.134C270.611 298.548 247.044 297.75 248.663 265.232C250.282 232.714 273.04 222.167 286.049 209.967C299.059 197.767 362.441 169.342 325.055 79.3137L134.314 79.3251Z" fill="#F0F7FF" fill-opacity="0.57"/>
<path d="M134.314 79.325H137.655H147.506H185.428L325.055 79.2224H325.203V79.3592C328.065 86.176 330.502 93.1634 332.5 100.282C334.598 107.734 335.98 115.37 336.628 123.085C337.3 131.15 336.886 139.268 335.396 147.223C333.76 155.468 330.795 163.393 326.617 170.688C324.452 174.408 322.005 177.957 319.297 181.303C316.533 184.693 313.543 187.893 310.347 190.88C307.11 193.922 303.719 196.795 300.188 199.489C296.653 202.225 292.959 204.802 289.356 207.538C287.554 208.895 285.935 210.423 284.179 211.951C282.423 213.479 280.679 214.904 278.878 216.341C275.286 219.214 271.66 222.041 268.24 225.223C261.1 231.41 255.615 239.279 252.277 248.117C250.673 252.651 249.662 257.372 249.267 262.164C249.164 263.305 249.005 264.559 248.959 265.767C248.914 266.976 248.868 268.185 248.959 269.393C248.985 271.82 249.229 274.239 249.689 276.622C250.593 281.45 252.564 286.016 255.458 289.985C258.436 293.953 261.81 297.609 265.526 300.896C272.903 307.635 280.736 314.077 288.227 321.032C295.718 327.987 303.049 335.239 310.118 342.912C313.725 346.71 317.099 350.723 320.221 354.93C323.361 359.188 326.091 363.735 328.373 368.509C332.987 378.185 335.822 388.613 336.742 399.294C337.672 410.123 337.034 421.029 334.849 431.675C333.787 437.054 332.393 442.362 330.676 447.569C328.988 452.82 326.931 457.945 324.519 462.905L324.439 463.064H129.776L129.696 462.939C120.584 449.219 114.996 433.464 113.426 417.069C111.846 401.321 114.156 385.426 120.153 370.778C125.852 356.777 134.628 344.237 145.83 334.087C151.266 329.288 157.136 325.006 163.366 321.294C169.432 317.532 175.554 314.043 181.335 310.234C187.121 306.618 192.437 302.298 197.161 297.373C201.672 292.537 205.018 286.734 206.944 280.407C208.631 274.234 208.896 267.759 207.719 261.469C206.594 255.399 204.569 249.53 201.71 244.058C198.976 238.789 195.697 233.822 191.927 229.236C188.289 224.837 184.333 220.71 180.092 216.888C171.872 209.317 163.446 202.693 155.875 195.886C152.078 192.465 148.486 189.045 145.168 185.544C141.953 182.117 138.988 178.463 136.298 174.61C131.434 167.543 127.685 159.772 125.181 151.567C122.988 144.481 121.715 137.143 121.396 129.732C121.236 128.045 121.305 126.38 121.305 124.75C121.305 123.119 121.305 121.535 121.453 119.995C121.601 118.456 121.681 116.951 121.795 115.435C121.909 113.918 122.217 112.561 122.41 111.182C123.67 102.783 126.24 94.6342 130.027 87.0326C130.54 85.8567 131.126 84.7143 131.783 83.6121L133.185 81.2291C133.926 79.9635 134.325 79.325 134.325 79.325L133.185 81.2633L131.828 83.6121C131.188 84.7192 130.609 85.8611 130.095 87.0326C126.343 94.6527 123.804 102.812 122.57 111.216C122.376 112.584 122.148 113.998 121.977 115.446C121.806 116.894 121.749 118.41 121.635 119.95C121.521 121.489 121.521 123.074 121.51 124.693C121.498 126.312 121.453 127.977 121.612 129.664C121.942 137.05 123.226 144.362 125.432 151.419C127.933 159.594 131.679 167.336 136.537 174.371C139.221 178.208 142.182 181.843 145.397 185.248C148.703 188.76 152.295 192.18 156.091 195.509C163.662 202.351 172.054 208.907 180.332 216.489C184.605 220.339 188.591 224.496 192.258 228.928C196.049 233.547 199.346 238.549 202.098 243.853C204.984 249.359 207.028 255.266 208.163 261.378C209.358 267.735 209.093 274.281 207.388 280.521C205.454 286.922 202.076 292.793 197.514 297.681C192.767 302.634 187.429 306.984 181.62 310.634C175.817 314.453 169.694 317.942 163.639 321.705C157.436 325.406 151.589 329.674 146.172 334.452C135.039 344.55 126.315 357.018 120.643 370.938C114.683 385.511 112.392 401.324 113.973 416.99C115.543 433.291 121.104 448.955 130.164 462.597L129.936 462.471H324.245L323.983 462.631C326.391 457.684 328.441 452.57 330.117 447.33C331.826 442.145 333.212 436.86 334.268 431.504C336.443 420.91 337.077 410.058 336.149 399.283C335.247 388.66 332.431 378.289 327.837 368.669C325.571 363.929 322.864 359.413 319.753 355.18C316.639 350.996 313.281 346.998 309.697 343.208C302.665 335.554 295.38 328.272 287.839 321.363C280.36 314.419 272.55 307.988 265.15 301.216C261.404 297.901 258.001 294.219 254.991 290.224C252.04 286.207 250.019 281.584 249.073 276.69C248.617 274.272 248.369 271.82 248.332 269.359C248.275 268.139 248.332 266.919 248.332 265.699C248.332 264.479 248.537 263.27 248.629 262.062C249.047 257.241 250.082 252.493 251.707 247.935C255.073 239.019 260.611 231.083 267.818 224.846C271.238 221.677 274.898 218.803 278.49 215.941C280.291 214.505 282.059 213.057 283.78 211.575C285.502 210.092 287.201 208.496 288.98 207.128C292.605 204.391 296.288 201.815 299.811 199.09C303.332 196.408 306.715 193.55 309.947 190.527C313.122 187.553 316.097 184.373 318.852 181.006C321.539 177.672 323.974 174.143 326.138 170.448C330.292 163.204 333.242 155.333 334.872 147.143C336.355 139.253 336.773 131.2 336.115 123.199C335.477 115.485 334.107 107.85 332.021 100.396C330.051 93.2578 327.645 86.2477 324.815 79.4048L325.009 79.5303L185.462 79.4276H147.517H137.643L134.314 79.325Z" fill="#263238"/>
<path d="M317.302 132.104C345.92 136.813 300.803 187.506 275.252 207.504C260.429 219.077 244.581 231.642 237.557 249.064C229.576 268.835 235.494 291.045 231.64 310.93C231.516 311.616 231.137 312.229 230.579 312.647C230.021 313.065 229.326 313.256 228.633 313.182C227.94 313.109 227.301 312.776 226.843 312.25C226.386 311.724 226.144 311.045 226.167 310.349C226.349 297.294 226.007 284.25 223.886 271.4C220.819 253.157 213.819 235.154 201.083 221.802C190.65 210.891 176.979 203.651 165.863 193.457C149.626 178.578 132.946 159.389 131.315 137.429C131.315 137.429 162.488 112.345 179.796 115.48C200.022 119.186 219.93 150.393 251.262 146.824C273.062 144.327 284.111 126.654 317.302 132.104Z" fill="#F1463B"/>
<path d="M319.845 403.41C319.126 396.25 317.211 388.154 310.86 384.779C307.018 382.727 302.331 382.955 298.113 384.061C293.894 385.167 289.938 387.094 285.765 388.337C277.469 390.776 268.609 390.492 260.487 387.527C252.722 384.677 246.063 379.546 238.823 375.464C231.583 371.382 223.18 368.395 215.153 370.39C201.311 373.811 194.105 390.503 180.423 394.528C174.335 396.307 167.801 395.303 161.622 393.912C155.442 392.521 149.228 390.708 142.9 390.948C137.929 391.13 132.764 392.852 129.286 396.25L129.195 396.352C128.616 396.919 128.089 397.537 127.621 398.199C123.38 403.9 122.696 411.46 124.007 418.369C125.467 426.111 129.081 433.26 132.958 440.112C137.518 448.185 142.717 456.212 150.265 461.593C159.592 468.241 171.302 463.657 182.715 464.558C209.315 466.656 237.934 468.081 264.546 466.029C278.604 464.888 291.773 466.462 302.924 457.831C310.769 451.765 315.877 442.621 318.34 433.02C320.802 423.42 320.837 413.272 319.845 403.41Z" fill="#F1463B"/>
<g opacity="0.24">
<path opacity="0.24" d="M269.631 389.705C268.137 391.986 267.487 395.087 268.936 397.413C270.384 399.739 272.356 401.871 272.972 404.55C273.964 408.746 271.433 412.851 269.551 416.739C266.069 423.691 264.754 431.527 265.777 439.235C266.856 446.967 270.849 453.995 276.94 458.88C279.642 460.967 283.154 462.586 286.414 461.56C289.482 460.602 291.454 457.489 292.115 454.331C292.777 451.172 292.218 447.923 291.819 444.742C289.962 429.916 290.346 414.895 292.959 400.184C293.392 397.732 293.803 394.927 292.252 392.978C291.134 391.842 289.713 391.051 288.159 390.697C282.23 388.725 275.834 390.914 269.688 389.751" fill="black"/>
</g>
<path d="M115.672 471.593C115.672 471.593 115.136 462.677 126.766 457.705H331.144C331.144 457.705 341.804 463.11 343.116 471.387L115.672 471.593Z" fill="#263238"/>
<path d="M326.8 80.4083L326.469 80.5565L134.292 79.3251C134.292 79.3251 133.608 78.8919 132.593 78.0823C131.395 77.1438 130.521 75.8537 130.093 74.3931C129.666 72.9325 129.707 71.3747 130.21 69.9384C130.713 68.5021 131.653 67.2594 132.898 66.3848C134.144 65.5101 135.632 65.0473 137.154 65.0615L323.687 66.5665C331.361 66.6349 333.778 77.1246 326.8 80.4083Z" fill="#263238"/>
<g opacity="0.24">
<path opacity="0.24" d="M296.015 153.722C296.402 154.463 294.954 156.002 292.206 158.511C289.459 161.019 285.365 164.314 280.28 168.453C274.175 173.498 267.695 178.072 260.897 182.135C256.674 184.581 252.231 186.623 247.625 188.235C245.13 189.098 242.582 189.803 239.998 190.345C237.283 190.921 234.526 191.28 231.754 191.416C226.137 191.722 220.513 190.948 215.187 189.136C210.479 187.424 206.004 185.125 201.87 182.295C198.039 179.764 194.744 177.255 191.608 174.85C188.473 172.444 185.679 170.129 183.148 167.94C173.058 159.195 167.744 152.764 168.77 151.522C169.797 150.279 176.98 154.326 188.154 161.167L197.275 166.754C200.547 168.738 204.048 170.939 207.628 172.968C211.18 175.054 214.945 176.755 218.859 178.042C222.863 179.241 227.045 179.735 231.218 179.502C239.975 179.046 248.469 175.967 255.823 172.41C263.177 168.852 269.836 164.702 275.605 161.464C280.171 158.77 284.945 156.444 289.88 154.509C293.495 153.243 295.684 153.004 296.015 153.722Z" fill="black"/>
</g>
<path d="M226.304 334.748C227.111 334.427 228.013 334.436 228.814 334.775C229.615 335.114 230.25 335.754 230.582 336.558C230.914 337.362 230.916 338.263 230.588 339.069C230.259 339.874 229.627 340.517 228.828 340.86C228.029 341.202 227.127 341.216 226.318 340.898C225.509 340.581 224.857 339.957 224.504 339.163C224.151 338.368 224.125 337.467 224.432 336.653C224.739 335.84 225.354 335.18 226.144 334.817" fill="#F1463B"/>
<path d="M157.574 185.521C157.324 185.316 157.095 185.087 156.89 184.837L155.031 182.808C154.244 181.907 153.207 180.858 152.146 179.524L148.521 174.963C147.278 173.207 145.875 171.315 144.462 169.262L142.375 165.944C142.022 165.374 141.645 164.804 141.303 164.2L140.3 162.353C137.265 156.975 134.888 151.252 133.219 145.307C131.542 139.367 130.638 133.236 130.529 127.064C130.529 125.639 130.608 124.259 130.631 122.903C130.631 122.23 130.631 121.569 130.722 120.919C130.814 120.269 130.859 119.63 130.928 119.003C131.076 117.749 131.167 116.529 131.338 115.366C131.509 114.203 131.749 113.086 131.942 112.048C132.262 109.916 132.832 108.057 133.231 106.347C133.447 105.526 133.618 104.751 133.835 104.067L134.462 102.163L135.34 99.5517C135.424 99.2409 135.539 98.9392 135.682 98.651C135.635 98.969 135.559 99.282 135.454 99.5859C135.26 100.247 135.009 101.125 134.679 102.231L134.109 104.135C133.915 104.831 133.755 105.606 133.55 106.416C133.185 108.069 132.649 109.939 132.41 112.117C132.227 113.165 132.045 114.271 131.851 115.423C131.657 116.575 131.612 117.783 131.475 119.037C131.475 119.665 131.349 120.292 131.281 120.942C131.213 121.591 131.281 122.253 131.213 122.914C131.213 124.259 131.121 125.628 131.133 127.041C131.244 133.177 132.137 139.272 133.789 145.182C135.449 151.083 137.795 156.77 140.779 162.125C141.109 162.741 141.44 163.356 141.759 163.972C142.079 164.588 142.478 165.112 142.82 165.705L144.872 169.023C146.263 171.121 147.643 173.014 148.851 174.724L152.409 179.285C153.435 180.641 154.45 181.702 155.202 182.637L156.981 184.746C157.194 184.992 157.393 185.251 157.574 185.521Z" fill="#263238"/>
<path d="M146.753 354.907C146.81 354.775 146.879 354.649 146.959 354.531L147.643 353.459C147.951 352.98 148.327 352.41 148.783 351.726L149.501 350.586C149.786 350.209 150.117 349.833 150.448 349.445L152.728 346.709C153.606 345.763 154.609 344.782 155.67 343.71C158.128 341.343 160.741 339.141 163.491 337.12C169.546 332.559 177.356 327.999 185.816 322.651C190.265 319.91 194.541 316.898 198.62 313.632C202.997 310.146 206.862 306.063 210.102 301.501C216.032 292.389 219.255 281.781 219.394 270.91C219.539 262.049 218.055 253.238 215.016 244.914C213.003 239.296 210.477 233.876 207.468 228.723C206.408 226.887 205.541 225.496 204.948 224.55L204.276 223.478C204.127 223.239 204.059 223.102 204.059 223.102C204.161 223.204 204.249 223.319 204.321 223.444L205.051 224.493C205.678 225.405 206.579 226.773 207.662 228.609C210.764 233.735 213.36 239.149 215.415 244.777C218.536 253.136 220.082 262 219.976 270.921C219.928 273.493 219.718 276.06 219.349 278.606C218.979 281.269 218.419 283.902 217.673 286.485C216.115 291.953 213.694 297.138 210.501 301.843C207.228 306.454 203.32 310.58 198.894 314.1C194.79 317.368 190.491 320.384 186.021 323.13C177.527 328.432 169.705 332.947 163.651 337.474C160.901 339.468 158.281 341.635 155.806 343.961C154.746 345.022 153.731 345.979 152.842 346.914L150.562 349.594C150.22 350.004 149.889 350.38 149.604 350.734L148.863 351.817L147.723 353.516L146.993 354.554C146.923 354.678 146.843 354.796 146.753 354.907Z" fill="#263238"/>
<path d="M136.15 375.054C136.081 375.239 135.997 375.418 135.899 375.59L135.078 377.038C134.713 377.653 134.28 378.429 133.835 379.318C133.39 380.207 132.82 381.256 132.341 382.454C132.091 383.046 131.817 383.662 131.543 384.301C131.27 384.939 131.042 385.646 130.768 386.353C130.221 387.767 129.787 389.317 129.286 390.914C127.303 398.061 126.619 405.507 127.268 412.896C127.461 414.584 127.598 416.203 127.895 417.685C128.02 418.426 128.123 419.156 128.271 419.84C128.419 420.524 128.579 421.186 128.727 421.813C128.978 423.078 129.354 424.184 129.628 425.165C129.901 426.145 130.175 426.989 130.426 427.673L130.962 429.247C131.039 429.424 131.089 429.613 131.11 429.805C131 429.647 130.912 429.474 130.848 429.292C130.677 428.87 130.472 428.369 130.209 427.753C129.865 426.941 129.564 426.111 129.309 425.267C129.001 424.287 128.602 423.181 128.317 421.915C128.157 421.288 127.997 420.627 127.826 419.943C127.655 419.259 127.553 418.517 127.404 417.776C127.085 416.271 126.926 414.652 126.72 412.953C126.007 405.518 126.695 398.015 128.75 390.834C129.263 389.192 129.719 387.63 130.301 386.216C130.586 385.509 130.814 384.814 131.11 384.164L131.954 382.305C132.455 381.165 133.094 380.105 133.539 379.193C133.94 378.408 134.386 377.647 134.873 376.912L135.785 375.51C136.013 375.202 136.127 375.042 136.15 375.054Z" fill="#263238"/>
<path d="M277.11 402.464L276.882 402.623L276.175 403.068L273.405 404.733L271.398 405.873C270.646 406.295 269.813 406.682 268.924 407.127C267.122 407.994 265.138 409.1 262.79 409.989L259.141 411.483C257.876 411.984 256.496 412.383 255.105 412.862C252.334 413.877 249.256 414.607 246.052 415.439C231.984 418.734 217.392 419.122 203.17 416.579C199.909 415.918 196.807 415.348 193.98 414.481C192.566 414.071 191.175 413.752 189.875 413.341L186.158 411.984C183.775 411.22 181.723 410.228 179.887 409.453C178.975 409.054 178.12 408.701 177.356 408.313L175.281 407.23L172.43 405.713L171.701 405.303L171.461 405.155C171.461 405.155 171.564 405.155 171.735 405.257L172.487 405.611L175.383 407.024L177.47 408.051C178.245 408.415 179.112 408.746 180.024 409.134C181.86 409.864 183.912 410.833 186.306 411.562L189.978 412.896C191.278 413.33 192.669 413.637 194.082 414.037C196.899 414.88 199.989 415.416 203.204 416.066C217.361 418.518 231.864 418.13 245.869 414.926C249.062 414.105 252.129 413.409 254.9 412.418C256.291 411.95 257.659 411.574 258.924 411.072L262.573 409.624C264.922 408.758 266.917 407.686 268.719 406.853C269.608 406.42 270.452 406.044 271.204 405.713L273.234 404.573L276.05 403L276.791 402.612C277.019 402.487 277.11 402.452 277.11 402.464Z" fill="#263238"/>
<path d="M289.003 161.145C288.933 161.227 288.852 161.3 288.763 161.361L288.011 161.977C287.315 162.536 286.346 163.323 285.103 164.257C282.572 166.264 278.901 169.172 274.26 172.638C268.86 176.772 263.196 180.55 257.306 183.948C253.802 185.909 250.15 187.59 246.383 188.977C242.319 190.455 238.08 191.398 233.772 191.781C225.398 192.251 217.047 190.514 209.555 186.742C206.315 185.096 203.188 183.237 200.194 181.178C197.412 179.217 194.869 177.313 192.623 175.477C188.062 171.851 184.573 168.784 182.111 166.686L179.294 164.246L178.576 163.608L178.337 163.368C178.337 163.368 178.439 163.368 178.61 163.551L179.374 164.155L182.259 166.504C184.767 168.556 188.347 171.566 192.885 175.146C195.166 176.936 197.686 178.818 200.479 180.756C203.462 182.78 206.574 184.608 209.794 186.229C217.211 189.926 225.464 191.627 233.738 191.166C237.994 190.788 242.183 189.861 246.2 188.407C249.942 187.039 253.571 185.38 257.055 183.447C262.937 180.11 268.607 176.413 274.032 172.376C278.684 168.955 282.39 166.105 284.978 164.155L287.954 161.874L288.74 161.304C288.819 161.238 288.908 161.185 289.003 161.145Z" fill="#263238"/>
<g opacity="0.24">
<path opacity="0.24" d="M186.17 412.042C191.574 407.869 199.168 408.872 205.849 410.286C212.531 411.7 219.258 413.969 226.019 413.022C231.116 412.304 235.79 409.807 240.841 408.712C245.892 407.618 251.97 408.427 254.763 412.749C232.436 419.943 208.377 419.695 186.204 412.042" fill="black"/>
</g>
<path d="M33.1572 441.458C33.2071 441.291 33.2759 441.131 33.3624 440.979L34.0009 439.6C34.7872 437.816 35.4241 435.97 35.905 434.081C37.1592 429.178 37.5925 421.687 35.734 412.794C34.7341 407.943 33.4163 403.163 31.7889 398.485C30.1129 393.411 28.1746 388.029 26.5897 382.203C24.8003 376.126 23.9355 369.815 24.0243 363.481C24.2638 356.857 26.2249 350.244 28.3798 343.665C30.5347 337.086 32.7581 330.633 33.4194 324.156C34.1667 317.925 32.9172 311.617 29.8506 306.142C26.9888 300.874 23.4086 296.382 20.7292 291.718C18.2178 287.4 16.3655 282.731 15.2335 277.865C13.6185 270.811 13.5019 263.497 14.8915 256.395C15.4026 253.8 16.1664 251.26 17.1718 248.813C17.1451 248.988 17.1031 249.159 17.0464 249.326L16.5903 250.774C13.9076 259.531 13.6202 268.846 15.758 277.751C16.9006 282.561 18.7568 287.173 21.2651 291.433C23.9445 295.994 27.5475 300.555 30.4549 305.834C33.569 311.417 34.8419 317.841 34.0921 324.191C33.4194 330.781 31.1733 337.268 29.0297 343.847C26.8862 350.426 24.9365 356.959 24.697 363.47C24.5978 369.74 25.4395 375.989 27.194 382.009C28.7561 387.801 30.683 393.183 32.3248 398.28C33.9384 402.984 35.2373 407.791 36.2128 412.669C38.0257 421.63 37.5013 429.201 36.2128 434.115C35.7103 436.011 35.0308 437.854 34.1833 439.622C33.8869 440.193 33.6474 440.637 33.4764 440.979C33.3857 441.149 33.2787 441.309 33.1572 441.458Z" fill="#263238"/>
<path d="M24.3664 296.313C24.3664 296.313 18.9049 278.868 28.699 268.652C28.7749 268.57 28.8721 268.511 28.9798 268.48C29.0875 268.45 29.2015 268.451 29.3091 268.481C29.4166 268.512 29.5135 268.572 29.589 268.655C29.6645 268.737 29.7156 268.839 29.7366 268.949C30.2611 271.833 30.911 280.613 24.3664 296.313Z" fill="#F1463B"/>
<path d="M27.6384 274.467C27.6201 275.549 27.4941 276.626 27.2621 277.683C26.9087 279.963 26.4868 282.506 26.0193 285.379C25.5519 288.252 25.1528 290.863 24.7994 293.075C24.7071 294.155 24.5124 295.224 24.2179 296.268C24.1257 295.184 24.1601 294.094 24.3205 293.018C24.5029 291.023 24.8564 288.286 25.3466 285.276C25.8369 282.266 26.3614 279.575 26.7947 277.603C26.9546 276.529 27.2377 275.477 27.6384 274.467Z" fill="#263238"/>
<path d="M30.7744 337.474C30.7744 337.474 34.1151 319.493 47.5465 315.069C47.6523 315.032 47.7664 315.026 47.8759 315.05C47.9854 315.074 48.086 315.128 48.1664 315.206C48.2469 315.284 48.304 315.383 48.3315 315.492C48.3589 315.601 48.3556 315.715 48.3218 315.822C47.4553 318.581 43.9093 326.654 30.7744 337.474Z" fill="#F1463B"/>
<path d="M43.886 319.687C43.3645 320.636 42.7496 321.529 42.0504 322.355C40.7049 324.157 39.1087 326.255 37.3528 328.581L32.6325 334.817C32.0432 335.725 31.3714 336.576 30.6257 337.36C31.0497 336.358 31.5892 335.409 32.2334 334.532C33.3736 332.856 34.9128 330.599 36.7941 328.17C38.6754 325.742 40.3743 323.609 41.6627 322.059C42.3098 321.185 43.0559 320.389 43.886 319.687Z" fill="#263238"/>
<path d="M27.1485 382.568C27.1485 382.568 25.119 364.393 36.6804 356.23C36.7715 356.164 36.879 356.125 36.991 356.117C37.103 356.109 37.2149 356.132 37.3144 356.184C37.4138 356.237 37.4968 356.315 37.554 356.412C37.6112 356.509 37.6403 356.619 37.6382 356.731C37.604 359.65 36.5664 368.395 27.1485 382.568Z" fill="#F1463B"/>
<path d="M34.5251 361.737C34.3082 362.799 33.9795 363.834 33.5445 364.827C32.7692 366.936 31.8685 369.387 30.8537 372.147L28.1971 379.467C27.9145 380.508 27.5327 381.52 27.0569 382.488C27.1776 381.408 27.4185 380.345 27.7752 379.318C28.3339 377.392 29.2004 374.758 30.2608 371.907C31.3212 369.057 32.3587 366.491 33.1454 364.656C33.4934 363.634 33.9562 362.654 34.5251 361.737Z" fill="#263238"/>
<path d="M37.2616 427.947C37.2616 427.947 35.882 409.704 47.7285 401.973C47.8211 401.91 47.9296 401.873 48.0419 401.868C48.1542 401.862 48.2658 401.888 48.3641 401.943C48.4624 401.997 48.5436 402.078 48.5985 402.176C48.6534 402.274 48.6798 402.386 48.6749 402.498C48.5266 405.405 47.1812 414.105 37.2616 427.947Z" fill="#F1463B"/>
<path d="M45.3799 407.424C45.1063 408.479 44.7242 409.503 44.2397 410.48C43.3845 412.555 42.3926 415.04 41.2866 417.685L38.3563 424.914C38.0576 425.92 37.6683 426.897 37.1934 427.833C37.3466 426.759 37.626 425.706 38.0257 424.698C38.6414 422.793 39.6105 420.205 40.7735 417.389C41.9365 414.573 43.0539 412.042 43.909 410.24C44.2943 409.25 44.7876 408.306 45.3799 407.424Z" fill="#263238"/>
<path d="M16.5218 280.989C16.5218 280.989 0.319842 272.529 0.000591187 258.379C-0.00437933 258.267 0.0220717 258.156 0.0769718 258.057C0.131872 257.959 0.213043 257.879 0.311363 257.824C0.409683 257.77 0.521253 257.744 0.633531 257.749C0.74581 257.754 0.854346 257.791 0.946939 257.855C3.35272 259.52 10.0228 265.255 16.5218 280.989Z" fill="#F1463B"/>
<path d="M3.36426 263.237C4.1216 264.009 4.79783 264.857 5.38237 265.768L9.9431 272.084L14.5038 278.39C15.1986 279.217 15.8168 280.107 16.3509 281.046C15.4935 280.36 14.7272 279.566 14.0706 278.686C12.7822 277.158 11.0833 274.969 9.3046 272.495C7.52592 270.021 5.97527 267.729 4.8921 266.041C4.27749 265.168 3.76488 264.227 3.36426 263.237Z" fill="#263238"/>
<path d="M33.9208 318.49C33.9208 318.49 17.24 311.033 16.0542 296.929C16.0447 296.818 16.066 296.707 16.1158 296.607C16.1655 296.508 16.2417 296.424 16.336 296.365C16.4303 296.306 16.5391 296.274 16.6503 296.273C16.7615 296.272 16.8709 296.302 16.9663 296.359C19.4747 297.83 26.4868 303.154 33.9208 318.49Z" fill="#F1463B"/>
<path d="M19.7144 301.547C20.5149 302.274 21.2407 303.08 21.8807 303.952L26.8291 309.984L31.7889 315.993C32.5291 316.759 33.1935 317.595 33.7728 318.49C32.9033 317.82 32.1117 317.055 31.4126 316.209C30.033 314.75 28.2087 312.675 26.2818 310.315C24.3549 307.954 22.6674 305.754 21.493 304.146C20.8038 303.35 20.2071 302.478 19.7144 301.547Z" fill="#263238"/>
<path d="M24.3204 360.266C24.3204 360.266 12.8616 346.014 18.2432 332.902C18.2842 332.798 18.3529 332.708 18.442 332.641C18.531 332.574 18.6368 332.533 18.7477 332.522C18.8586 332.511 18.9703 332.532 19.0704 332.581C19.1705 332.629 19.2552 332.705 19.315 332.799C20.8543 335.319 24.6511 343.243 24.3204 360.266Z" fill="#F1463B"/>
<path d="M19.3722 338.728C19.7558 339.738 20.0347 340.785 20.2046 341.852C20.6834 344.053 21.2421 346.629 21.8692 349.48C22.4963 352.33 23.0094 354.896 23.5453 357.085C23.8503 358.124 24.0602 359.189 24.1724 360.266C23.6661 359.299 23.283 358.273 23.0322 357.21C22.4621 355.283 21.7894 352.65 21.1509 349.617C20.5124 346.584 20.0107 343.916 19.6915 341.955C19.4674 340.894 19.3603 339.812 19.3722 338.728Z" fill="#263238"/>
<path d="M35.6769 409.454C35.6769 409.454 19.1101 401.723 18.1751 387.585C18.1679 387.475 18.1909 387.365 18.2415 387.268C18.2922 387.17 18.3686 387.088 18.4625 387.03C18.5564 386.973 18.6642 386.942 18.7743 386.941C18.8844 386.94 18.9926 386.97 19.0873 387.026C21.5729 388.588 28.4938 394.027 35.6769 409.454Z" fill="#F1463B"/>
<path d="M21.7437 392.293C22.5353 393.032 23.2497 393.85 23.8758 394.733C25.2668 396.501 26.9087 398.564 28.7216 400.845L33.5787 406.945C34.309 407.743 34.9654 408.605 35.5398 409.522C34.6916 408.855 33.926 408.09 33.2595 407.241C31.9141 405.77 30.124 403.661 28.2427 401.267C26.3614 398.872 24.6511 396.66 23.5109 395.03C22.8256 394.184 22.2331 393.266 21.7437 392.293Z" fill="#263238"/>
<path d="M68.6623 337.565C68.6783 337.701 68.6783 337.839 68.6623 337.975C68.6623 338.295 68.6623 338.671 68.6623 339.116C68.6623 340.256 68.5483 341.704 68.4685 343.551C68.2518 347.45 67.9554 352.878 67.6019 359.388C66.4618 366.001 63.0412 373.332 58.4805 380.447C55.1626 385.692 51.6394 390.469 48.6863 394.905C45.9562 398.777 43.4989 402.834 41.3322 407.048C39.9155 409.906 38.7703 412.891 37.9116 415.964C37.6152 417.047 37.3985 417.902 37.2731 418.484C37.2228 418.783 37.1426 419.078 37.0337 419.362C37.0374 419.059 37.0717 418.757 37.1363 418.461C37.2161 417.868 37.3986 417.001 37.6494 415.895C38.4231 412.752 39.5158 409.696 40.9103 406.774C43.0295 402.509 45.4569 398.405 48.1733 394.494C51.1491 390.025 54.6153 385.247 57.9218 380.037C62.4825 372.945 65.7663 365.727 67.0433 359.217C67.4993 352.729 67.8756 347.302 68.1834 343.403C68.3317 341.556 68.4571 340.073 68.5369 338.979C68.5369 338.523 68.6281 338.135 68.6623 337.839C68.6525 337.748 68.6525 337.656 68.6623 337.565Z" fill="#263238"/>
<path d="M58.8565 379.148C58.8565 379.148 65.8686 362.262 57.0436 351.202C56.9752 351.113 56.8835 351.045 56.7787 351.006C56.6739 350.966 56.5601 350.956 56.4501 350.978C56.3401 350.999 56.2382 351.05 56.1558 351.126C56.0733 351.202 56.0136 351.299 55.9832 351.407C55.1509 354.235 53.7029 362.957 58.8565 379.148Z" fill="#F1463B"/>
<path d="M57.5227 357.096C57.8251 358.136 58.0124 359.207 58.0814 360.288C58.3322 362.272 58.6059 365.02 58.8225 368.065C59.0391 371.109 59.1418 373.868 59.1418 375.863C59.212 376.947 59.1469 378.034 58.9479 379.101C58.7498 378.041 58.6543 376.965 58.6629 375.886C58.5147 373.606 58.3322 371.018 58.1384 368.11C57.9446 365.203 57.7507 362.569 57.6025 360.334C57.4695 359.26 57.4428 358.175 57.5227 357.096Z" fill="#263238"/>
<g opacity="0.3">
<path opacity="0.3" d="M58.857 379.148C58.857 379.148 65.8691 362.261 57.0441 351.202C56.9757 351.113 56.884 351.045 56.7792 351.005C56.6744 350.966 56.5606 350.956 56.4506 350.977C56.3406 350.999 56.2387 351.05 56.1562 351.126C56.0738 351.202 56.0141 351.299 55.9837 351.407C55.1514 354.235 53.7034 362.957 58.857 379.148Z" fill="black"/>
</g>
<path d="M37.0794 419.829C37.0794 419.829 42.7005 402.441 33.0089 392.134C32.9338 392.052 32.8375 391.992 32.7306 391.961C32.6236 391.931 32.5103 391.93 32.403 391.959C32.2957 391.989 32.1986 392.047 32.1224 392.128C32.0463 392.21 31.994 392.31 31.9714 392.419C31.4127 395.292 30.683 404.06 37.0794 419.829Z" fill="#F1463B"/>
<path d="M34.0122 397.949C34.3996 398.964 34.6712 400.02 34.8217 401.096C35.2322 403.045 35.7339 405.759 36.2014 408.78C36.6688 411.802 36.9881 414.538 37.1477 416.534C37.3026 417.61 37.3256 418.701 37.2161 419.783C36.9384 418.738 36.7553 417.669 36.6688 416.591C36.3382 414.31 35.9505 411.768 35.5286 408.883C35.1068 405.998 34.6963 403.399 34.3885 401.175C34.1573 400.115 34.0312 399.034 34.0122 397.949Z" fill="#263238"/>
<g opacity="0.3">
<path opacity="0.3" d="M37.0794 419.829C37.0794 419.829 42.7005 402.441 33.0089 392.134C32.9338 392.052 32.8375 391.992 32.7306 391.961C32.6236 391.93 32.5103 391.93 32.403 391.959C32.2957 391.989 32.1986 392.047 32.1224 392.128C32.0463 392.209 31.994 392.31 31.9714 392.419C31.4127 395.292 30.683 404.06 37.0794 419.829Z" fill="black"/>
</g>
<path d="M67.7273 358.522C67.7273 358.522 82.7093 348.032 81.1928 333.962C81.1831 333.851 81.1425 333.744 81.0756 333.654C81.0088 333.564 80.9182 333.495 80.8142 333.453C80.7101 333.412 80.5966 333.4 80.4863 333.42C80.376 333.439 80.2732 333.489 80.1895 333.563C78.0231 335.593 72.1398 342.08 67.7273 358.522Z" fill="#F1463B"/>
<g opacity="0.3">
<path opacity="0.3" d="M67.7273 358.522C67.7273 358.522 82.7093 348.032 81.1928 333.962C81.1831 333.851 81.1425 333.744 81.0756 333.654C81.0088 333.564 80.9182 333.495 80.8142 333.453C80.7101 333.412 80.5966 333.4 80.4863 333.42C80.376 333.439 80.2732 333.489 80.1895 333.563C78.0231 335.593 72.1398 342.08 67.7273 358.522Z" fill="black"/>
</g>
<path d="M78.4908 339.218C78.1882 340.257 77.7714 341.259 77.248 342.206C76.3929 344.018 75.1501 346.481 73.702 349.172C72.254 351.863 70.863 354.246 69.7798 355.933C69.262 356.887 68.6219 357.768 67.8757 358.556C68.287 357.555 68.7869 356.594 69.3694 355.682L73.0978 348.841L76.8147 342C77.2762 341.018 77.8379 340.085 78.4908 339.218Z" fill="#263238"/>
<path d="M43.1111 402.589C43.1111 402.589 61.1373 399.773 66.0173 386.479C66.0576 386.374 66.068 386.26 66.0471 386.149C66.0263 386.039 65.9751 385.937 65.8993 385.854C65.8235 385.771 65.7261 385.711 65.6181 385.68C65.51 385.649 65.3956 385.65 65.2876 385.68C62.4714 386.479 54.2963 389.774 43.1111 402.589Z" fill="#F1463B"/>
<g opacity="0.3">
<path opacity="0.3" d="M43.1108 402.589C43.1108 402.589 61.1371 399.773 66.0171 386.479C66.0574 386.374 66.0677 386.26 66.0469 386.149C66.026 386.039 65.9749 385.937 65.8991 385.854C65.8233 385.771 65.7259 385.711 65.6179 385.68C65.5098 385.649 65.3954 385.65 65.2874 385.68C62.4711 386.479 54.296 389.774 43.1108 402.589Z" fill="black"/>
</g>
<path d="M61.2743 390.002C60.546 390.796 59.7358 391.511 58.8571 392.134C57.2951 393.389 55.0945 395.053 52.6089 396.82C50.1233 398.588 47.8202 400.127 46.1213 401.176C45.2282 401.795 44.2634 402.305 43.248 402.692C44.0544 401.973 44.9245 401.328 45.8477 400.766L52.2213 396.273L58.5721 391.712C59.4111 391.05 60.3167 390.477 61.2743 390.002Z" fill="#263238"/>
<path d="M25.8826 435.837L20.615 471.297H53.4522L49.1879 435.837H25.8826Z" fill="#455A64"/>
<path d="M50.5103 446.818C50.5103 447.011 44.5814 447.16 37.2614 447.16C29.9415 447.16 24.0239 447.011 24.0239 446.818C28.4278 446.48 32.846 446.366 37.2614 446.476C41.6807 446.366 46.1026 446.48 50.5103 446.818Z" fill="#263238"/>
<path d="M51.1607 449.611C51.1607 449.793 45.038 449.953 37.4786 449.953C29.9192 449.953 23.7964 449.793 23.7964 449.611C23.7964 449.428 29.9192 449.269 37.4786 449.269C45.038 449.269 51.1607 449.451 51.1607 449.611Z" fill="#263238"/>
<path d="M347.333 309.844C347.333 309.844 341.062 311.897 333.4 304.599C325.738 297.302 310.414 280.929 304.143 278.489C297.872 276.049 291.944 267.692 286.721 265.605C281.499 263.519 282.469 266.654 282.469 266.654C282.469 266.654 275.901 264.123 276.973 269.094C276.973 269.094 273.609 270.485 276.859 273.267C280.108 276.049 291.248 284.76 295.102 285.456C295.102 285.456 309.742 304.269 317.404 313.333C325.066 322.398 331.439 324.108 331.382 343.97C331.325 363.832 347.333 309.844 347.333 309.844Z" fill="#F1463B"/>
<path opacity="0.2" d="M341.644 309.594C343.487 310.192 345.457 310.279 347.345 309.845C347.345 309.845 331.326 363.832 331.383 343.97C331.383 328.76 327.689 324.188 322.501 318.806C331.702 325.716 339.353 313.755 341.644 309.594Z" fill="black"/>
<path opacity="0.4" d="M276.973 269.083C275.901 264.112 282.468 266.643 282.468 266.643C282.468 266.643 281.499 263.508 286.721 265.594C291.943 267.681 297.872 276.05 304.143 278.478C306.086 279.394 307.896 280.567 309.525 281.967C308.909 286.232 306.64 291.693 298.933 290.382L295.079 285.445C291.248 284.749 280.108 276.05 276.836 273.256C273.564 270.463 276.973 269.083 276.973 269.083Z" fill="white"/>
<path d="M276.847 270.223C276.847 270.223 274.567 268.889 273.518 270.029C274.624 270.125 275.652 270.638 276.391 271.466L276.847 270.223Z" fill="#F1463B"/>
<path d="M279.686 266.803C279.141 265.947 278.315 265.308 277.35 264.994C276.385 264.68 275.341 264.711 274.396 265.081C275.269 265.141 276.098 265.487 276.754 266.067C277.409 266.646 277.855 267.426 278.022 268.285L279.686 266.803Z" fill="#F1463B"/>
<path d="M284.726 265.56C284.726 265.56 283.346 262.139 280.701 262.983C281.396 263.188 282.009 263.609 282.449 264.185C282.89 264.761 283.136 265.462 283.152 266.187L284.726 265.56Z" fill="#F1463B"/>
<g opacity="0.6">
<path opacity="0.6" d="M276.847 270.223C276.847 270.223 274.567 268.889 273.518 270.029C274.624 270.125 275.651 270.638 276.391 271.466L276.847 270.223Z" fill="white"/>
<path opacity="0.6" d="M279.687 266.803C279.141 265.947 278.315 265.308 277.35 264.994C276.385 264.68 275.341 264.711 274.396 265.081C275.269 265.141 276.098 265.487 276.754 266.067C277.41 266.646 277.855 267.426 278.022 268.285L279.687 266.803Z" fill="white"/>
<path opacity="0.6" d="M284.726 265.56C284.726 265.56 283.346 262.139 280.701 262.983C281.397 263.188 282.009 263.609 282.45 264.185C282.89 264.761 283.136 265.462 283.153 266.187L284.726 265.56Z" fill="white"/>
</g>
<path opacity="0.2" d="M280.701 270.041C280.701 270.041 285.262 270.52 287.382 273.461C287.325 273.461 286.949 268.137 280.701 270.041Z" fill="black"/>
<path d="M406.155 428.024C406.155 428.024 404.434 454.841 428.663 456.267C452.891 457.692 471.613 464.818 474.27 440.589C477.325 412.757 489.662 429.039 487.097 447.362C484.531 465.685 475.125 471.659 451.751 472.514C428.377 473.369 403.179 469.094 401.104 453.553L406.155 428.024Z" fill="#F1463B"/>
<path opacity="0.3" d="M474.726 437.248C477.838 417.58 486.435 426.086 487.359 439.893C485.556 438.593 483.499 437.685 481.323 437.229C479.147 436.774 476.899 436.78 474.726 437.248Z" fill="white"/>
<path opacity="0.3" d="M474.201 441.091C477.861 441.387 483.391 442.573 487.165 446.792C487.165 446.997 487.165 447.191 487.097 447.385C486.795 449.655 486.322 451.9 485.683 454.1C483.87 450.874 480.267 447.122 473.141 446.324C473.638 444.612 473.992 442.861 474.201 441.091Z" fill="white"/>
<g opacity="0.3">
<path opacity="0.3" d="M464.726 456.711C466.625 455.928 468.318 454.718 469.675 453.177C472.901 455.377 477.337 459.687 477.029 466.619C475.01 467.954 472.82 469.009 470.518 469.755C470.366 464.817 468.287 460.135 464.726 456.711Z" fill="white"/>
<path opacity="0.3" d="M447.521 472.617C448.319 469.265 449.311 463.359 448.16 458.045C450.691 458.251 453.085 458.365 455.32 458.33C457.095 462.75 457.493 467.603 456.46 472.252C454.944 472.366 453.382 472.457 451.74 472.514C450.372 472.571 448.935 472.606 447.521 472.617Z" fill="white"/>
<path opacity="0.3" d="M413.988 450.372C415.935 452.219 418.229 453.661 420.738 454.613C418.982 458.228 416.177 462.275 412.301 462.161C406.805 462.047 411.605 456.004 413.988 450.372Z" fill="white"/>
<path opacity="0.3" d="M432.539 469.208C428.936 469.094 430.111 461.751 430.635 456.404C433.246 456.586 435.777 456.825 438.24 457.076C437.693 461.523 436.21 469.322 432.539 469.208Z" fill="white"/>
</g>
<path opacity="0.1" d="M411.354 466.334C405.653 463.358 401.857 459.208 401.093 453.564L406.144 428.036C405.979 433.218 406.935 438.376 408.948 443.154C408.826 447.604 408.163 452.022 406.976 456.312C405.699 460.827 408.321 464.122 411.354 466.334Z" fill="black"/>
<path d="M387.559 395.256C387.559 395.256 356.774 384.994 342.716 400.204C328.657 415.414 351.518 456.882 341.211 458.536C330.903 460.189 300.563 453.074 296.025 459.676C294.816 461.408 293.917 463.337 293.369 465.377C293.173 466.172 293.161 467.001 293.334 467.802C293.507 468.602 293.86 469.353 294.367 469.996C294.874 470.64 295.521 471.159 296.259 471.514C296.997 471.869 297.806 472.052 298.625 472.047H360.297C360.297 472.047 364.014 472.047 361.54 467.098C361.586 467.098 415.596 451.74 387.559 395.256Z" fill="#F1463B"/>
<path opacity="0.2" d="M387.559 395.256C387.559 395.256 356.774 384.994 342.716 400.204C328.657 415.414 351.518 456.882 341.211 458.536C330.903 460.189 300.563 453.074 296.025 459.676C294.816 461.408 293.917 463.337 293.369 465.377C293.173 466.172 293.161 467.001 293.334 467.802C293.507 468.602 293.86 469.353 294.367 469.996C294.874 470.64 295.521 471.159 296.259 471.514C296.997 471.869 297.806 472.052 298.625 472.047H360.297C360.297 472.047 364.014 472.047 361.54 467.098C361.586 467.098 415.596 451.74 387.559 395.256Z" fill="black"/>
<path d="M373.181 279.344C373.181 279.344 371.277 267.749 369.191 266.609C367.104 265.468 366.91 275.924 365.36 277.44L373.181 279.344Z" fill="#F1463B"/>
<path opacity="0.2" d="M373.181 279.344C373.181 279.344 371.277 267.749 369.191 266.609C367.104 265.468 366.91 275.924 365.36 277.44L373.181 279.344Z" fill="black"/>
<path d="M347.026 280.245C347.198 279.827 347.265 279.373 347.219 278.923C347.06 277.6 345.771 277.03 344.62 276.734C344.198 276.631 344.38 275.97 344.802 276.072C345.504 276.16 346.167 276.447 346.71 276.899C347.254 277.352 347.656 277.952 347.869 278.626C347.988 279.29 347.9 279.975 347.619 280.587C347.425 280.986 346.843 280.587 347.026 280.245Z" fill="#F1463B"/>
<path d="M345.27 282.218C344.78 280.04 342.18 279.47 340.299 279.561C339.865 279.561 339.865 278.9 340.299 278.877C342.488 278.775 345.372 279.561 345.931 282.035C346.022 282.469 345.361 282.651 345.27 282.218Z" fill="#F1463B"/>
<path d="M344.084 283.803C343.343 282.56 341.439 283.028 340.39 283.45C339.979 283.609 339.808 282.948 340.207 282.788C341.587 282.241 343.753 281.933 344.677 283.45C344.724 283.528 344.737 283.622 344.715 283.711C344.693 283.8 344.636 283.876 344.557 283.923C344.479 283.97 344.385 283.983 344.296 283.961C344.207 283.939 344.131 283.882 344.084 283.803Z" fill="#F1463B"/>
<g opacity="0.5">
<path opacity="0.5" d="M347.026 280.245C347.198 279.827 347.265 279.373 347.219 278.923C347.06 277.6 345.771 277.03 344.62 276.734C344.198 276.631 344.38 275.97 344.802 276.072C345.504 276.16 346.167 276.447 346.71 276.899C347.254 277.352 347.656 277.952 347.869 278.626C347.988 279.29 347.9 279.975 347.619 280.587C347.425 280.986 346.843 280.587 347.026 280.245Z" fill="white"/>
<path opacity="0.5" d="M345.27 282.218C344.78 280.04 342.18 279.47 340.299 279.561C339.865 279.561 339.865 278.9 340.299 278.877C342.488 278.775 345.372 279.561 345.931 282.035C346.022 282.469 345.361 282.651 345.27 282.218Z" fill="white"/>
<path opacity="0.5" d="M344.084 283.802C343.343 282.56 341.439 283.027 340.39 283.449C339.979 283.609 339.808 282.947 340.207 282.788C341.587 282.24 343.753 281.933 344.677 283.449C344.724 283.528 344.737 283.622 344.715 283.71C344.693 283.799 344.636 283.875 344.557 283.922C344.479 283.969 344.385 283.983 344.296 283.96C344.207 283.938 344.131 283.881 344.084 283.802Z" fill="white"/>
</g>
<path d="M346.216 300.609C350.058 306.31 341.655 310.87 333.811 329.558C325.966 348.246 337.083 374.766 338.007 406.691C338.93 438.616 353.011 443.428 353.011 443.428L367.48 469.002C367.48 469.002 403.202 472.799 406.623 447.339C410.043 421.878 400.922 397.171 394.081 378.552C387.24 359.932 373.934 345.099 378.118 334.085C380.832 326.342 382.62 318.304 383.443 310.141C383.443 310.141 391.424 304.052 392.941 291.51C392.941 291.51 399.405 275.548 396.361 272.127C393.317 268.707 380.399 282.389 380.399 282.389C380.399 282.389 369.339 275.171 365.36 275.548C361.38 275.924 356.455 282.776 348.474 279.356C348.474 279.344 336.73 286.528 346.216 300.609Z" fill="#F1463B"/>
<path opacity="0.2" d="M338.006 406.692C337.083 374.767 325.932 348.223 333.811 329.558C341.689 310.894 350.035 306.321 346.216 300.609C336.729 286.528 348.496 279.356 348.496 279.356C348.964 279.55 349.42 279.71 349.864 279.846C351.29 280.816 352.544 282.001 352.441 283.153C352.236 285.753 350.788 287.965 355.508 294.224C361.916 302.719 352.806 316.138 345.897 325.1C338.987 334.062 336.285 332.226 335.635 347.607C334.848 365.474 347.516 387.309 351.597 401.481C355.018 413.441 360.058 436.758 357.663 451.455L353.102 443.474C353.102 443.474 338.93 438.617 338.006 406.692Z" fill="white"/>
<path opacity="0.6" d="M348.473 280.542C348.473 280.542 351.062 281.18 350.423 282.104C349.785 283.028 344.335 284.384 348.473 280.542Z" fill="#263238"/>
<path opacity="0.2" d="M387.046 289.23L382.2 284.669C382.2 284.669 392.04 272.127 395.027 273.838C398.014 275.548 388.619 277.407 387.046 289.23Z" fill="black"/>
<path opacity="0.2" d="M366.249 280.587C365.919 279.447 368.837 277.6 371.015 280.166C373.193 282.731 366.58 281.739 366.249 280.587Z" fill="white"/>
<path opacity="0.2" d="M363.136 278.741C363.752 279.083 365.416 277.213 364.345 276.164C363.273 275.115 362.509 278.387 363.136 278.741Z" fill="white"/>
<g opacity="0.6">
<path opacity="0.6" d="M353.935 287.326C357.105 286.949 360.058 289.081 361.836 291.476C362.099 291.841 361.506 292.171 361.243 291.829C359.602 289.606 356.854 287.656 353.935 288.01C353.502 288.01 353.502 287.371 353.935 287.326Z" fill="white"/>
<path opacity="0.6" d="M353.547 289.286C357.105 290.313 359.089 294.155 359.682 297.519C359.761 297.94 359.1 298.134 359.02 297.701C358.473 294.577 356.74 290.86 353.376 289.948C353.293 289.921 353.223 289.864 353.181 289.787C353.138 289.711 353.127 289.621 353.149 289.536C353.171 289.452 353.224 289.378 353.298 289.332C353.373 289.286 353.462 289.269 353.547 289.286Z" fill="white"/>
<path opacity="0.6" d="M351.609 290.621C352.418 291.579 353.028 292.688 353.403 293.884C353.779 295.08 353.913 296.339 353.798 297.587C353.798 298.021 353.103 298.021 353.114 297.587C353.228 296.425 353.112 295.252 352.771 294.134C352.431 293.017 351.873 291.978 351.13 291.077C350.822 290.769 351.301 290.279 351.609 290.598V290.621Z" fill="white"/>
</g>
<path opacity="0.2" d="M384.766 410.682L387.662 416.167L383.295 422.05L370.183 431.935C370.183 431.935 362.258 441.125 354.619 446.176L353.057 443.417C353.057 443.417 346.216 441.079 341.781 428.902C348.622 402.484 384.766 410.682 384.766 410.682Z" fill="black"/>
<path opacity="0.1" d="M333.548 369.157L353.98 359.157L361.585 350.789L362.726 356.489C362.726 356.489 362.885 383.443 345.623 386.134C341.632 386.773 338.634 385.849 336.091 385.45C335.293 379.795 334.381 374.356 333.548 369.157Z" fill="black"/>
<g opacity="0.3">
<path opacity="0.3" d="M382.132 319.137C373.102 318.886 359.203 308.362 369.191 310.141C373.864 310.993 378.627 311.238 383.363 310.871C383.226 312.216 382.85 315.283 382.132 319.137Z" fill="white"/>
<path opacity="0.3" d="M365.724 331.371C369.993 332.495 374.442 332.759 378.814 332.146C378.597 332.796 378.358 333.446 378.118 334.085C377.176 336.83 377.061 339.792 377.788 342.602C366.466 341.017 356.763 329.091 365.724 331.371Z" fill="white"/>
<path opacity="0.3" d="M377.81 394.127C388.14 394.936 394.468 390.854 397.535 388.084C398.744 391.504 399.953 395.153 401.093 398.881C379.897 404.765 363.364 393.009 377.81 394.127Z" fill="white"/>
<path opacity="0.3" d="M369.19 364.436C374.867 364.458 380.409 362.704 385.039 359.419C386.761 362.68 388.585 366.112 390.295 369.681C374.652 376.157 357.743 364.687 369.19 364.436Z" fill="white"/>
</g>
<path d="M361.141 283.232C360.605 284.259 360.73 285.387 361.449 285.707C362.167 286.026 363.068 285.513 363.604 284.464C364.14 283.415 364.003 282.297 363.285 281.978C362.566 281.659 361.665 282.172 361.141 283.232Z" fill="#263238"/>
<path d="M367.081 285.707C366.974 285.679 366.877 285.622 366.799 285.544C366.721 285.466 366.665 285.369 366.636 285.262C366.386 284.424 365.947 283.654 365.355 283.01C364.762 282.366 364.031 281.865 363.216 281.545C363.134 281.506 363.06 281.451 362.999 281.384C362.939 281.316 362.892 281.237 362.862 281.151C362.833 281.065 362.82 280.974 362.826 280.883C362.832 280.792 362.856 280.703 362.897 280.622C362.963 280.495 363.066 280.391 363.192 280.324C363.318 280.257 363.462 280.229 363.604 280.245C364.627 280.618 365.55 281.224 366.298 282.016C367.046 282.808 367.599 283.763 367.913 284.806C367.944 284.89 367.957 284.979 367.952 285.068C367.947 285.157 367.924 285.244 367.885 285.324C367.845 285.403 367.79 285.475 367.723 285.533C367.655 285.591 367.577 285.634 367.492 285.661C367.365 285.727 367.219 285.744 367.081 285.707Z" fill="#263238"/>
<path opacity="0.2" d="M331.668 356.045C334.643 352.032 337.688 335.522 337.688 335.522L339.056 332.489L342.191 339.045L339.626 355.737L332.545 362.681C332.215 360.423 331.907 358.211 331.668 356.045Z" fill="black"/>
<path d="M354.266 331.428C354.266 331.428 342.864 322.307 338.68 331.428C334.495 340.549 337.653 363.433 325.431 364.573C313.208 365.713 296.618 370.559 296.618 370.559C296.618 370.559 280.656 373.854 284.339 378.951C284.339 378.951 279.276 384.492 284.612 386.533C284.612 386.533 285.901 391.858 292.73 387.228C292.73 387.228 293.87 391.846 303.642 383.683C303.642 383.683 318.202 376.522 340.128 382.109C362.053 387.696 370.639 343.685 354.266 331.428Z" fill="#F1463B"/>
<path opacity="0.4" d="M284.339 378.905C280.61 373.809 296.618 370.513 296.618 370.513C303.87 368.456 311.222 366.774 318.647 365.474C321.03 366.033 323.698 367.173 324.678 369.533C326.297 373.478 320.38 377.206 319.502 380.068C309.548 380.741 303.642 383.637 303.642 383.637C293.882 391.801 292.73 387.183 292.73 387.183C285.889 391.812 284.612 386.487 284.612 386.487C279.276 384.446 284.339 378.905 284.339 378.905Z" fill="white"/>
<g opacity="0.2">
<path opacity="0.2" d="M291.886 381.596C291.886 381.596 287.189 382.736 285.752 385.381C285.798 385.381 286.06 380.513 291.886 381.596Z" fill="black"/>
<path opacity="0.2" d="M293.198 377.081C293.198 377.081 288.329 376.328 285.798 378.346C285.798 378.346 288.865 373.831 293.198 377.081Z" fill="black"/>
</g>
<path d="M397.251 413.498C397.251 413.498 367.606 403.237 353.548 418.447C339.489 433.657 354.369 458.022 344.061 459.676C333.754 461.329 310.255 453.074 305.717 459.676C304.508 461.408 303.609 463.337 303.06 465.377C302.864 466.172 302.852 467.001 303.025 467.802C303.198 468.602 303.552 469.353 304.059 469.996C304.566 470.639 305.213 471.158 305.951 471.514C306.688 471.869 307.498 472.051 308.317 472.047H370.035C370.035 472.047 373.752 472.047 371.277 467.098C371.277 467.098 425.288 469.983 397.251 413.498Z" fill="#F1463B"/>
<path opacity="0.3" d="M374.549 421.73C389.246 421.73 395.198 418.72 399.348 417.945C401.467 417.465 403.473 416.578 405.254 415.334C406.044 419.379 406.623 423.463 406.988 427.568C402.792 429.164 403.077 427.865 403.077 427.865C391.857 432.528 359.852 421.73 374.549 421.73Z" fill="white"/>
<g opacity="0.1">
<path opacity="0.1" d="M373.489 462.195C379.76 461.876 395.631 462.799 403.328 451.728C396.042 468.409 371.277 467.098 371.277 467.098C371.277 467.098 367.218 462.526 373.489 462.195Z" fill="black"/>
</g>
</svg>
