<svg width="375" height="339" viewBox="0 0 375 339" fill="none" xmlns="http://www.w3.org/2000/svg">
<g opacity="0.4">
<path d="M128.102 51.2081L116.667 57.8035C116.729 57.3036 116.763 56.8005 116.767 56.2968V52.9841C116.767 47.0872 112.626 44.7024 107.517 47.6459C105.309 49.0037 103.423 50.8251 101.989 52.9841C101.161 45.5705 95.3441 42.8066 88.2797 46.8876C80.6466 51.2979 74.4503 62.0142 74.4503 70.8347V75.8236C74.4027 77.8006 74.8053 79.7625 75.6277 81.561L66.1287 87.0388C64.6365 88.0124 63.3947 89.3237 62.5037 90.8665C61.6127 92.4093 61.0975 94.1403 61 95.9192C61 99.192 63.2949 100.519 66.1287 98.9126L128.082 63.1417C129.573 62.1676 130.815 60.8561 131.706 59.3134C132.597 57.7708 133.112 56.0401 133.21 54.2613C133.23 50.8987 130.925 49.5717 128.102 51.2081Z" fill="#ECF8FB"/>
<path d="M174.549 70.9444L167.255 75.1551C167.296 74.824 167.316 74.4908 167.315 74.1573V72.0719C167.315 68.3202 164.681 66.7936 161.428 68.6794C160.027 69.5366 158.829 70.6872 157.916 72.0519C157.377 67.3224 153.675 65.5663 149.175 68.1705C144.306 70.9743 140.355 77.8092 140.355 83.4368V86.5998C140.322 87.8582 140.578 89.1074 141.103 90.2517L135.046 93.7539C134.094 94.3728 133.301 95.2077 132.733 96.1908C132.164 97.1739 131.835 98.2774 131.774 99.4114C131.774 101.497 133.24 102.345 135.046 101.297L174.549 78.4977C175.502 77.8767 176.294 77.0399 176.863 76.0552C177.432 75.0705 177.76 73.9656 177.822 72.8302C177.822 70.7448 176.355 69.9466 174.549 70.9444Z" fill="#ECF8FB"/>
</g>
<g opacity="0.4">
<path d="M325.102 151.414L313.667 158.009C313.729 157.509 313.763 157.006 313.767 156.502V153.19C313.767 147.293 309.626 144.908 304.517 147.852C302.309 149.209 300.423 151.031 298.989 153.19C298.161 145.776 292.344 143.012 285.28 147.093C277.647 151.503 271.45 162.22 271.45 171.04V176.029C271.403 178.006 271.805 179.968 272.628 181.767L263.129 187.244C261.637 188.218 260.395 189.529 259.504 191.072C258.613 192.615 258.098 194.346 258 196.125C258 199.398 260.295 200.725 263.129 199.118L325.082 163.347C326.573 162.373 327.815 161.062 328.706 159.519C329.597 157.976 330.112 156.246 330.21 154.467C330.23 151.104 327.925 149.777 325.102 151.414Z" fill="#D9F1F8" fill-opacity="0.5"/>
<path d="M371.549 171.15L364.255 175.361C364.296 175.03 364.316 174.696 364.315 174.363V172.277C364.315 168.526 361.681 166.999 358.428 168.885C357.027 169.742 355.829 170.893 354.916 172.257C354.377 167.528 350.675 165.772 346.175 168.376C341.306 171.18 337.355 178.015 337.355 183.642V186.805C337.322 188.064 337.578 189.313 338.103 190.457L332.046 193.96C331.094 194.578 330.301 195.413 329.733 196.396C329.164 197.379 328.835 198.483 328.774 199.617C328.774 201.702 330.24 202.551 332.046 201.503L371.549 178.703C372.502 178.082 373.294 177.245 373.863 176.261C374.432 175.276 374.76 174.171 374.822 173.036C374.822 170.95 373.355 170.152 371.549 171.15Z" fill="#D9F1F8" fill-opacity="0.5"/>
</g>
<path d="M101.505 279.852C101.624 278.381 102.186 276.981 103.117 275.836C103.992 274.685 105.205 273.838 106.586 273.411C107.764 273.076 109.02 273.139 110.159 273.592C111.297 274.045 112.254 274.861 112.881 275.915C113.413 274.857 114.266 273.995 115.318 273.454C116.371 272.912 117.567 272.72 118.736 272.905C120.157 273.167 121.461 273.868 122.466 274.909C123.527 275.931 124.248 277.255 124.533 278.701C124.873 280.549 124.61 282.458 123.781 284.144C122.797 285.859 121.419 287.315 119.762 288.392C117.074 290.237 113.539 292.553 113.539 292.553C113.539 292.553 110.301 290.418 107.424 288.935C105.648 288.066 104.106 286.783 102.929 285.193C101.892 283.613 101.393 281.74 101.505 279.852Z" fill="#657684"/>
<path d="M302.952 199.919C303.067 198.447 303.629 197.045 304.563 195.902C305.435 194.75 306.646 193.902 308.025 193.478C309.204 193.142 310.46 193.206 311.598 193.658C312.737 194.111 313.694 194.928 314.321 195.982C314.852 194.923 315.705 194.061 316.758 193.52C317.81 192.979 319.007 192.787 320.176 192.971C321.597 193.234 322.901 193.935 323.905 194.976C324.966 195.999 325.69 197.322 325.98 198.768C326.311 200.621 326.04 202.531 325.206 204.218C324.224 205.934 322.846 207.391 321.187 208.466C318.506 210.311 314.964 212.627 314.964 212.627C314.964 212.627 311.733 210.456 308.849 209.008C307.073 208.14 305.531 206.857 304.354 205.267C303.323 203.682 302.831 201.806 302.952 199.919Z" fill="#657684"/>
<path d="M121.069 261.883C121.14 260.938 121.501 260.038 122.103 259.306C122.664 258.565 123.443 258.019 124.329 257.743C124.802 257.614 125.296 257.581 125.781 257.647C126.267 257.713 126.734 257.876 127.155 258.127C127.653 258.433 128.071 258.852 128.377 259.35C128.718 258.67 129.266 258.117 129.941 257.771C130.617 257.425 131.386 257.304 132.135 257.425C133.048 257.587 133.886 258.035 134.528 258.705C135.21 259.363 135.675 260.214 135.858 261.144C136.075 262.332 135.903 263.559 135.366 264.64C134.736 265.743 133.851 266.678 132.786 267.368C131.058 268.555 128.789 270.046 128.789 270.046C128.789 270.046 126.707 268.671 124.857 267.701C123.715 267.143 122.724 266.319 121.966 265.298C121.309 264.286 120.995 263.088 121.069 261.883Z" fill="#657684"/>
<path d="M290.585 217.635C290.661 216.691 291.021 215.793 291.619 215.059C292.181 214.321 292.959 213.777 293.845 213.503C294.602 213.294 295.407 213.337 296.138 213.627C296.868 213.917 297.484 214.438 297.893 215.11C298.132 214.636 298.472 214.221 298.89 213.894C299.277 213.592 299.721 213.372 300.196 213.247C300.671 213.123 301.166 213.097 301.651 213.17C302.564 213.338 303.4 213.789 304.043 214.458C304.727 215.115 305.192 215.966 305.373 216.897C305.591 218.085 305.418 219.311 304.882 220.393C304.254 221.497 303.368 222.433 302.302 223.121C300.574 224.301 298.305 225.791 298.305 225.791C298.305 225.791 296.23 224.424 294.373 223.447C293.229 222.891 292.238 222.067 291.481 221.044C290.825 220.033 290.511 218.838 290.585 217.635Z" fill="#657684"/>
<path d="M327.123 254.219C327.194 253.274 327.555 252.374 328.156 251.642C328.717 250.902 329.496 250.355 330.382 250.079C330.855 249.95 331.349 249.917 331.834 249.983C332.32 250.049 332.787 250.212 333.209 250.463C333.706 250.769 334.124 251.188 334.43 251.686C334.769 251.005 335.317 250.451 335.993 250.104C336.669 249.758 337.439 249.637 338.189 249.761C339.099 249.929 339.935 250.377 340.581 251.042C341.264 251.699 341.728 252.55 341.911 253.481C342.125 254.668 341.953 255.894 341.419 256.976C340.788 258.08 339.901 259.016 338.832 259.704C337.112 260.891 334.835 262.382 334.835 262.382C334.835 262.382 332.76 261.007 330.91 260.037C329.768 259.479 328.777 258.655 328.019 257.635C327.362 256.622 327.048 255.424 327.123 254.219Z" fill="#657684"/>
<path d="M125.876 291.873C125.925 291.251 126.165 290.659 126.563 290.18C126.926 289.693 127.431 289.332 128.008 289.145C128.32 289.059 128.646 289.038 128.966 289.081C129.287 289.125 129.595 289.233 129.873 289.398C130.199 289.603 130.473 289.881 130.675 290.209C130.834 289.897 131.059 289.623 131.333 289.405C131.589 289.207 131.882 289.064 132.196 288.983C132.509 288.902 132.835 288.886 133.155 288.935C133.756 289.043 134.308 289.34 134.73 289.782C135.187 290.21 135.502 290.768 135.634 291.381C135.775 292.166 135.661 292.975 135.308 293.69C134.893 294.419 134.308 295.037 133.603 295.492C132.468 296.273 130.964 297.25 130.964 297.25C130.964 297.25 129.598 296.346 128.377 295.709C127.628 295.337 126.976 294.794 126.476 294.124C126.04 293.458 125.829 292.668 125.876 291.873Z" fill="#657684"/>
<path d="M86.766 116.764C86.766 116.764 83.4339 119.659 90.669 126.325C94.3287 129.81 98.2163 133.047 102.306 136.015C102.306 136.015 103.751 137.651 102.263 138.541C100.774 139.431 97.0368 140.169 97.0368 142.405C97.0368 144.642 99.2052 146.104 102.87 146.683C106.534 147.261 114.434 148.854 115.106 148.969C115.779 149.085 116.711 149.787 115.786 150.562C114.861 151.336 107.206 155.107 109.216 158.631C111.225 162.155 121.59 162.112 122.725 162.134C123.859 162.155 124.25 162.481 124.373 163.06C124.496 163.639 121.8 164.659 119.667 165.817C117.535 166.975 115.266 168.712 116.588 170.645C117.911 172.577 124.987 175.074 138.612 171.506L144.82 169.443L146.266 163.017C148.478 149.092 145.312 142.29 143.252 141.161C141.192 140.032 139.703 142.456 138.756 144.692C137.809 146.929 137.058 149.715 136.472 149.657C135.887 149.599 135.518 149.23 135.388 148.101C135.258 146.972 134.297 136.637 130.589 134.987C126.881 133.337 123.888 141.327 123.209 142.326C122.53 143.325 121.763 142.485 121.561 141.805C121.359 141.124 119.024 133.388 118.092 129.827C117.159 126.267 115.576 124.226 113.271 124.443C110.965 124.66 110.683 128.459 109.939 130.037C109.194 131.615 107.43 130.334 107.43 130.334C104.073 126.545 100.466 122.986 96.632 119.681C89.2813 113.168 86.7009 116.829 86.7009 116.829" fill="#657684"/>
<path d="M145.652 170.768C140.274 165.933 130.856 157.184 122.732 149.715C114.608 142.246 107.25 135.487 101.894 130.631L95.5479 124.885C94.8251 124.204 94.218 123.683 93.8205 123.314L93.3723 122.909L93.2278 122.764C93.2835 122.802 93.3366 122.843 93.3868 122.887C93.4952 122.989 93.6542 123.119 93.8494 123.285L95.5913 124.819C97.1092 126.158 99.292 128.105 101.981 130.522C107.366 135.357 114.738 142.102 122.862 149.563C130.986 157.025 140.404 165.803 145.753 170.659" fill="#657684"/>
<path d="M102.305 141.572C102.475 141.552 102.648 141.552 102.818 141.572H104.105C105.189 141.572 106.692 141.572 108.347 141.674L112.583 141.862L113.87 141.913C114.026 141.898 114.183 141.898 114.339 141.913C114.185 141.945 114.027 141.96 113.87 141.956C113.559 141.956 113.147 141.956 112.576 141.956C111.492 141.956 109.995 141.891 108.34 141.826L104.097 141.659L102.818 141.616C102.646 141.624 102.473 141.609 102.305 141.572Z" fill="#657684"/>
<path d="M114.579 141.356C114.522 141.356 114.456 138.252 114.435 134.43C114.413 130.609 114.435 127.497 114.5 127.497C114.565 127.497 114.616 130.602 114.637 134.423C114.659 138.244 114.63 141.356 114.579 141.356Z" fill="#657684"/>
<path d="M126.535 153.384C126.556 153.224 126.592 153.067 126.643 152.914C126.744 152.581 126.86 152.19 127.004 151.654C127.308 150.583 127.727 149.107 128.11 147.464C128.493 145.821 128.833 144.323 129.028 143.23C129.137 142.724 129.216 142.289 129.288 141.942C129.308 141.781 129.347 141.623 129.404 141.472C129.41 141.634 129.398 141.797 129.368 141.957C129.325 142.268 129.267 142.68 129.173 143.259C128.992 144.352 128.71 145.865 128.313 147.515C127.915 149.165 127.482 150.634 127.142 151.698C126.968 152.226 126.831 152.646 126.723 152.942C126.678 153.097 126.615 153.245 126.535 153.384Z" fill="#657684"/>
<path d="M115.483 156.047C115.615 155.977 115.756 155.926 115.902 155.895L117.073 155.57C118.064 155.295 119.43 154.94 120.947 154.557C122.465 154.173 123.839 153.833 124.836 153.601L126.014 153.333C126.159 153.297 126.306 153.273 126.455 153.261C126.322 153.329 126.181 153.38 126.036 153.413L124.872 153.739C123.882 154.014 122.509 154.368 120.998 154.752C119.487 155.136 118.107 155.476 117.109 155.707L115.924 155.975C115.779 156.012 115.632 156.036 115.483 156.047Z" fill="#657684"/>
<path d="M124.691 168.003C124.865 167.924 125.046 167.864 125.233 167.822L126.729 167.395C127.994 167.04 129.743 166.57 131.68 166.056C133.617 165.542 135.373 165.093 136.653 164.775L138.163 164.413C138.346 164.361 138.532 164.325 138.72 164.305C138.548 164.385 138.369 164.448 138.185 164.493L136.689 164.92C135.424 165.267 133.668 165.745 131.731 166.251C129.794 166.758 128.037 167.214 126.765 167.532L125.254 167.894C125.071 167.951 124.882 167.987 124.691 168.003Z" fill="#657684"/>
<path d="M138.365 164.298C138.387 164.094 138.428 163.893 138.488 163.697C138.589 163.285 138.719 162.735 138.886 162.083C139.218 160.716 139.673 158.827 140.114 156.728C140.555 154.629 140.917 152.711 141.162 151.329C141.285 150.663 141.386 150.113 141.459 149.686C141.487 149.483 141.53 149.282 141.589 149.086C141.589 149.292 141.572 149.497 141.538 149.701C141.488 150.092 141.415 150.656 141.307 151.351C141.097 152.748 140.765 154.665 140.317 156.764C139.869 158.863 139.392 160.759 139.023 162.12C138.835 162.8 138.676 163.343 138.56 163.719C138.508 163.916 138.443 164.109 138.365 164.298Z" fill="#657684"/>
<path d="M290.947 157.046C281.348 148.629 280.408 134.843 282.129 122.757C282.418 120.73 282.425 118.566 283.574 116.887C284.723 115.208 287.109 114.238 288.836 115.288C290.282 116.164 290.73 117.987 291.416 119.529C292.331 121.587 293.809 123.344 295.681 124.595C296.902 125.405 298.456 125.984 299.808 125.42C301.658 124.645 302.121 122.25 302.331 120.224C302.711 116.46 303.092 112.695 303.473 108.926C303.567 106.895 303.992 104.893 304.73 102.999C305.561 101.147 307.137 99.5182 309.118 99.1853C311.098 98.8524 313.346 100.22 313.534 102.239C313.525 103.083 313.455 103.925 313.324 104.758C313.257 105.181 313.319 105.615 313.502 106.002C313.685 106.39 313.981 106.713 314.351 106.929C315.131 107.255 315.999 106.77 316.663 106.205C318.962 104.389 320.66 101.914 322.265 99.4459C323.87 96.978 325.438 94.4088 327.606 92.3607C329.775 90.3126 332.536 88.8652 335.442 89.01C338.347 89.1547 341.224 91.2752 341.658 94.1917C342.091 97.1083 340.111 99.8294 338.044 101.935C334.998 105.072 331.517 107.754 327.708 109.896C326.978 110.203 326.365 110.736 325.959 111.416C325.373 112.711 326.508 114.188 327.787 114.774C329.233 115.433 330.881 115.454 332.435 115.809C333.989 116.164 335.615 117.046 336.049 118.595C336.656 120.766 334.697 122.728 332.847 123.958C329.145 126.433 325.044 128.249 320.726 129.328C319.186 129.711 317.574 130.052 316.266 130.934C314.958 131.817 314.018 133.612 314.596 135.06C315.175 136.507 316.974 137.231 318.557 137.101C320.14 136.97 321.629 136.283 323.169 135.885C326.06 135.161 329.609 135.711 331.119 138.302C331.573 139.185 331.815 140.162 331.828 141.156C331.841 142.149 331.623 143.132 331.192 144.026C330.311 145.807 329.082 147.392 327.578 148.687C322.615 153.495 316.467 156.899 309.761 158.551C303.097 160.086 297.076 160.049 290.932 157.024" fill="#657684"/>
<path d="M294.907 149.758C297.638 143.351 300.732 137.105 304.173 131.05C305.084 129.436 305.973 127.844 306.855 126.274C307.736 124.703 308.618 123.155 309.565 121.685C311.4 118.875 313.385 116.167 315.514 113.573C317.53 111.083 319.532 108.796 321.419 106.668C323.305 104.541 325.12 102.601 326.84 100.879C329.531 98.1811 332.431 95.7007 335.513 93.4607C336.605 92.6646 337.472 92.0784 338.065 91.6876L338.744 91.2461C338.818 91.1917 338.898 91.1456 338.983 91.1086C338.915 91.1722 338.842 91.2302 338.766 91.2823L338.108 91.7527C337.53 92.158 336.662 92.7659 335.6 93.5765C332.552 95.8568 329.677 98.3605 326.999 101.067C325.3 102.782 323.508 104.729 321.628 106.857C319.749 108.984 317.762 111.286 315.759 113.775C313.641 116.359 311.67 119.061 309.854 121.866C308.907 123.314 308.04 124.862 307.158 126.433L304.477 131.209C301.041 137.251 297.945 143.479 295.203 149.867" fill="#657684"/>
<path d="M309.674 121.685C309.613 121.395 309.58 121.099 309.573 120.803C309.523 120.231 309.487 119.406 309.45 118.385C309.385 116.344 309.385 113.522 309.4 110.425C309.414 107.327 309.4 104.497 309.277 102.464C309.226 101.443 309.183 100.618 309.14 100.054C309.104 99.7581 309.104 99.4592 309.14 99.1636C309.22 99.4497 309.274 99.7429 309.299 100.039C309.385 100.604 309.472 101.429 309.552 102.442C309.718 104.483 309.797 107.305 309.783 110.403C309.768 113.5 309.747 116.25 309.732 118.364V120.781C309.751 121.084 309.731 121.387 309.674 121.685Z" fill="#657684"/>
<path d="M336.128 119.63C335.78 119.66 335.429 119.66 335.08 119.63C334.408 119.63 333.432 119.63 332.232 119.63C329.833 119.63 326.515 119.746 322.836 120.036C319.157 120.325 315.883 120.759 313.505 121.107C312.312 121.28 311.337 121.447 310.693 121.555C310.351 121.633 310.003 121.681 309.653 121.7C309.979 121.569 310.318 121.472 310.664 121.411C311.322 121.259 312.276 121.049 313.462 120.839C315.84 120.412 319.143 119.956 322.807 119.659C325.932 119.402 329.068 119.303 332.204 119.363C333.403 119.363 334.372 119.449 335.051 119.507C335.414 119.512 335.774 119.554 336.128 119.63Z" fill="#657684"/>
<path d="M295.276 149.31C295.213 149.206 295.164 149.094 295.132 148.977L294.792 147.992C294.496 147.131 294.069 145.879 293.643 144.323C292.711 141.211 291.561 136.876 290.354 132.078C289.147 127.28 288.041 122.938 287.174 119.811L286.14 116.113C286.032 115.715 285.938 115.389 285.866 115.107C285.825 114.99 285.8 114.869 285.793 114.745C285.85 114.855 285.899 114.968 285.938 115.085C286.025 115.353 286.14 115.679 286.278 116.07C286.574 116.931 286.964 118.183 287.427 119.739C288.359 122.843 289.509 127.178 290.716 131.984C291.923 136.789 293.029 141.124 293.896 144.287L294.93 147.985C295.038 148.383 295.132 148.709 295.204 148.991C295.241 149.094 295.265 149.201 295.276 149.31Z" fill="#657684"/>
<path d="M330.925 141.913C330.813 141.968 330.694 142.002 330.57 142.015L329.537 142.246L325.713 143.042C322.49 143.723 318.052 144.7 313.144 145.8C308.236 146.9 303.748 147.833 300.539 148.441C298.919 148.752 297.604 148.984 296.693 149.165L295.645 149.317C295.523 149.338 295.399 149.338 295.277 149.317C295.392 149.274 295.51 149.24 295.631 149.216L296.672 148.991L300.488 148.188C303.712 147.515 308.157 146.531 313.064 145.438C317.972 144.345 322.425 143.397 325.663 142.789C327.282 142.485 328.597 142.254 329.508 142.109L330.556 141.95C330.677 141.922 330.801 141.91 330.925 141.913Z" fill="#657684"/>
<g opacity="0.4">
<path d="M0.101654 153.414L-11.3331 160.009C-11.2706 159.509 -11.2373 159.006 -11.2333 158.502V155.19C-11.2333 149.293 -15.3741 146.908 -20.4828 149.852C-22.6905 151.209 -24.5767 153.031 -26.0106 155.19C-26.8388 147.776 -32.6559 145.012 -39.7203 149.093C-47.3534 153.503 -53.5497 164.22 -53.5497 173.04V178.029C-53.5973 180.006 -53.1947 181.968 -52.3723 183.767L-61.8713 189.244C-63.3635 190.218 -64.6053 191.529 -65.4963 193.072C-66.3873 194.615 -66.9025 196.346 -67 198.125C-67 201.398 -64.7051 202.725 -61.8713 201.118L0.0816956 165.347C1.57326 164.373 2.8147 163.062 3.70564 161.519C4.59659 159.976 5.11205 158.246 5.21036 156.467C5.23032 153.104 2.92542 151.777 0.101654 153.414Z" fill="#ECF8FB"/>
<path d="M46.5491 173.15L39.2552 177.361C39.296 177.03 39.316 176.696 39.3151 176.363V174.277C39.3151 170.526 36.6809 168.999 33.4281 170.885C32.0275 171.742 30.8292 172.893 29.9159 174.257C29.3771 169.528 25.6753 167.772 21.1752 170.376C16.306 173.18 12.3547 180.015 12.3547 185.642V188.805C12.3223 190.064 12.5783 191.313 13.103 192.457L7.04645 195.96C6.0941 196.578 5.30131 197.413 4.73261 198.396C4.1639 199.379 3.83535 200.483 3.77368 201.617C3.77368 203.702 5.24044 204.551 7.04645 203.503L46.5491 180.703C47.5017 180.082 48.2944 179.245 48.863 178.261C49.4317 177.276 49.7602 176.171 49.8219 175.036C49.8219 172.95 48.3551 172.152 46.5491 173.15Z" fill="#ECF8FB"/>
</g>
<g clip-path="url(#clip0_6903_7044)">
<path d="M263.791 289.76C262.063 303.095 260.338 316.663 262.757 329.884C262.975 331.073 263.226 332.302 262.926 333.479C262.625 334.655 261.596 335.765 260.322 335.771C259.048 335.774 257.98 334.201 258.791 333.267C259.119 334.923 258.321 336.736 256.844 337.685C255.905 336.871 255.389 335.636 255.487 334.428C255.945 335.341 255.248 336.588 254.192 336.748C249.716 334.619 248.347 329.285 247.496 324.599C243.948 305.076 240.872 285.468 238.79 265.748C238.244 260.556 237.845 254.982 240.571 250.435C247.202 239.377 267.067 241.829 272.682 252.395C275.552 257.8 272.568 261.622 269.986 266.492C266.112 273.801 264.832 281.728 263.791 289.76Z" fill="#CC190E"/>
<path d="M154.682 202.279C162.166 208.052 166.277 217.098 167.363 226.208C168.45 235.315 166.774 244.539 164.321 253.421C161.868 262.301 158.633 270.987 156.499 279.943C152.536 296.59 152.481 314.066 156.53 330.661C156.87 332.053 157.573 333.798 155.968 334.281C154.666 334.569 154.092 333.755 153.905 332.84C154.12 336.244 150.031 336.588 149.622 332.907C151.09 333.989 149.015 336.413 147.234 335.909C145.45 335.408 144.606 333.512 144.103 331.813C142.592 326.701 142.08 321.376 141.248 316.122C138.528 298.916 132.284 282.235 122.97 267.272C117.739 258.869 111.535 250.979 107.277 242.093C103.019 233.207 100.827 222.908 104.105 213.626C107.381 204.35 115.866 198.488 125.935 198.027C136.505 197.541 145.395 195.114 154.682 202.279Z" fill="#CC190E"/>
<path d="M330.963 206.406C322.742 205.889 314.337 207.721 307.024 211.62C306.171 212.074 305.314 212.572 304.679 213.294C303.77 214.323 303.405 215.697 303.147 217.024C302.051 222.668 302.41 228.426 303.5 234C304.043 236.78 304.774 239.521 305.594 242.231C306.238 244.36 306.806 248.662 308.393 250.256C313.91 255.815 324.277 229.935 325.796 225.845C326.377 224.288 331.463 206.436 330.963 206.406Z" fill="#F03B2F"/>
<path d="M244.589 225.538C231.914 214.523 227.671 200.734 217.065 189.396C212.945 184.993 207.95 181.389 202.722 178.215C188.018 169.283 170.888 163.504 153.389 163.443C135.891 163.381 118.077 169.379 105.739 181.199C99.3841 187.288 94.6043 194.724 90.8836 202.525C87.6633 209.272 85.1644 216.517 85.3517 223.907C85.5881 233.179 90.285 242.246 97.8737 248.066C105.459 253.885 131.446 285.649 135.879 277.359C144.597 261.056 154.234 241.315 164.361 238.39C181.264 233.508 197.623 244.625 206.673 259.993C215.26 274.578 229.142 277.417 250.453 277.261C258.158 277.205 269.79 274.33 276.494 270.701C283.564 266.876 287.181 258.104 284.712 250.776C282.533 244.305 276.408 239.656 269.836 236.968C263.263 234.279 256.104 233.186 249.188 231.419C244.586 230.242 240.073 228.764 235.693 226.991C234.548 226.527 233.439 224.825 234.643 224.518L244.589 225.538Z" fill="#F03B2F"/>
<path d="M232.653 291.075C230.925 304.41 229.2 317.978 231.619 331.199C231.837 332.388 232.089 333.617 231.788 334.794C231.487 335.97 230.458 337.08 229.184 337.086C227.91 337.092 226.842 335.516 227.653 334.582C227.981 336.238 227.183 338.051 225.706 339C224.764 338.186 224.251 336.951 224.349 335.743C224.807 336.656 224.11 337.903 223.054 338.063C218.578 335.934 217.209 330.6 216.359 325.914C212.81 306.391 207.6 267.859 198.995 249.829C194.802 241.048 203.545 242.981 206.274 238.437C212.908 227.375 235.932 243.147 241.547 253.713C244.417 259.118 241.433 262.94 238.852 267.81C234.974 275.116 233.694 283.046 232.653 291.075Z" fill="#F03B2F"/>
<path d="M139.197 204.651C146.141 211.002 149.438 220.346 149.718 229.511C149.997 238.676 147.514 247.737 144.287 256.395C141.061 265.054 137.07 273.457 134.157 282.214C128.738 298.495 127.145 315.913 129.711 332.775C129.926 334.188 130.473 335.986 128.83 336.339C127.507 336.524 127.007 335.666 126.902 334.741C126.816 338.152 122.712 338.17 122.632 334.471C123.998 335.666 121.717 337.915 119.986 337.273C118.255 336.631 117.579 334.677 117.229 332.944C116.173 327.727 116.136 322.378 115.771 317.075C114.58 299.709 109.834 282.582 101.874 266.928C97.404 258.138 91.9212 249.777 88.4645 240.581C85.0047 231.385 83.7307 220.945 87.8168 211.952C91.8966 202.964 100.867 197.793 110.939 198.134C121.509 198.488 130.58 196.773 139.197 204.651Z" fill="#F03B2F"/>
<path d="M239.392 260.463C237.986 259.689 236.604 258.86 235.416 257.809C234.164 256.7 233.157 255.372 232.227 254.008C224.927 243.282 222.468 228.86 228.914 217.596C230.139 215.454 231.677 213.442 233.67 211.902C236.767 209.506 240.792 208.39 244.773 208.126C252.42 207.622 259.96 210.053 266.803 213.3C275.11 217.242 282.932 222.61 287.89 230.058C291.055 234.811 292.9 240.464 292.786 246.118C292.667 252.118 289.876 256.534 286.812 261.573C284.654 265.121 283.116 267.367 278.597 268.068C272.467 269.02 265.824 268.553 259.754 267.515C252.605 266.286 245.673 263.917 239.392 260.463Z" fill="#CC190E"/>
<path d="M316.817 235.472C316.357 245.187 311.568 254.715 303.954 261.069C301.873 262.808 299.574 264.326 297.044 265.315C290.607 267.831 283.38 266.698 276.808 264.82C266.87 261.984 257.295 257.431 249.919 250.37C246.517 247.113 243.631 243.377 240.835 239.604C238.038 235.831 235.278 231.935 233.792 227.489C232.297 223.009 232.165 218.149 232.798 213.436C233.599 207.469 235.84 201.308 240.647 197.501C245.872 193.363 252.641 189.061 259.251 189.627C270.603 190.601 294.112 192.395 310.417 213.918C315.028 219.998 317.183 227.809 316.817 235.472Z" fill="#F03B2F"/>
<path d="M267.303 166.475C258.941 172.516 251.72 179.979 245.258 187.961C241.074 193.129 237.086 198.752 235.782 205.189C234.477 211.626 236.506 219.058 242.173 222.377C248.433 226.042 257.047 223.461 262.296 218.296C265.744 214.904 268.052 210.63 269.848 206.237C271.613 201.914 271.539 198.73 271.736 194.245C271.948 189.436 271.816 184.686 271.048 179.945C270.849 178.71 267.312 166.466 267.303 166.475Z" fill="#F03B2F"/>
<path d="M97.9167 165.252C98.6903 159.869 102.951 155.488 107.642 152.357C119.759 144.264 135.093 142.35 149.217 138.138C158.086 135.492 167.4 131.166 171.081 123.067C174.654 115.207 171.634 105.686 165.503 99.4484C159.373 93.2143 150.682 89.7854 141.957 87.6991C135.931 86.2581 129.598 85.3702 123.495 86.5439C119.255 87.3581 114.589 90.0527 114.626 94.1514C114.654 97.0181 117.045 99.3655 119.615 100.865C123.446 103.102 127.9 104.143 132.198 105.415C136.496 106.687 140.861 108.313 143.974 111.394C147.087 114.476 148.61 119.368 146.482 123.147C143.793 127.924 137.137 128.791 131.498 129.599C118.248 131.498 105.447 136.233 94.3218 143.352C85.1368 149.229 76.6363 157.556 75.2149 167.962C74.5457 172.854 75.5127 177.831 77.1704 182.498C79.5741 189.276 83.5005 195.643 89.0509 200.476C94.6012 205.309 101.84 208.526 109.383 208.842C113.613 209.02 117.975 208.258 121.582 206.138C125.193 204.018 127.958 200.442 128.425 196.448C128.879 192.592 126.939 188.662 123.774 186.281C120.127 183.537 115.869 183.982 111.519 183.672C103.151 183.076 96.8545 172.648 97.9167 165.252Z" fill="#F03B2F"/>
<path d="M265.483 174.495C257.209 178.944 250.508 185.989 246.689 194.248C250.422 192.601 254.373 191.406 258.419 190.705C260.998 190.26 263.856 190.063 266.032 191.433C266.069 190.444 266.778 189.372 266.818 188.084C266.867 186.511 266.849 184.938 266.757 183.365C266.711 182.545 265.342 174.571 265.483 174.495Z" fill="#E5CAC6"/>
<path d="M319.516 232.436C318.856 225.999 316.034 219.786 311.562 214.923C311.915 215.307 321.904 210.91 322.991 210.507C323.74 210.231 326.988 208.553 327.556 209.168C327.964 209.613 326.963 211.859 326.853 212.418C325.425 219.608 323.712 226.146 319.516 232.436Z" fill="#E5CAC6"/>
<path d="M307.706 233.09C307.472 233.653 307.168 234.2 306.794 234.719C304.092 238.473 298.702 239.454 294.754 236.906C292.12 235.207 290.794 232.365 291.009 229.548C289.554 233.041 290.772 237.137 294.174 239.328C298.122 241.875 303.512 240.895 306.214 237.14C307.11 235.892 307.598 234.494 307.706 233.09Z" fill="#E9F1F4"/>
<path d="M306.14 237.42C303.439 241.174 298.048 242.154 294.1 239.607C290.152 237.06 289.145 231.954 291.847 228.199C294.548 224.444 299.942 223.464 303.887 226.011C307.835 228.558 308.845 233.665 306.14 237.42Z" fill="white"/>
<path d="M293.94 239.831C289.87 237.208 288.826 231.92 291.613 228.048C294.401 224.177 299.979 223.163 304.05 225.787C308.12 228.411 309.164 233.699 306.377 237.57C303.589 241.445 298.011 242.458 293.94 239.831ZM303.727 226.236C299.914 223.778 294.693 224.727 292.08 228.353C289.471 231.978 290.447 236.928 294.26 239.389C298.072 241.847 303.294 240.898 305.907 237.272C308.516 233.643 307.54 228.694 303.727 226.236Z" fill="#E0BA99"/>
<path d="M303.918 236.381C302.149 238.839 298.622 239.478 296.037 237.813C293.455 236.148 292.795 232.805 294.564 230.347C296.332 227.889 299.859 227.25 302.444 228.915C305.026 230.58 305.686 233.923 303.918 236.381Z" fill="#6B8C96"/>
<path d="M296.485 237.392C297.965 236.418 299.396 235.346 300.541 234.027C301.689 232.709 302.542 231.121 302.729 229.425C302.751 229.44 301.95 229.578 301.891 229.597C301.486 229.726 301.084 230.165 300.771 230.436C300.062 231.05 299.42 231.732 298.855 232.467C298.29 233.201 297.802 233.991 297.403 234.817C297.198 235.244 297.013 235.683 296.854 236.132C296.783 236.341 296.651 237.281 296.485 237.392Z" fill="#30211F"/>
<path d="M295.178 231.102C295.098 231.265 295.027 231.437 295.018 231.619C295.009 231.797 295.067 231.987 295.211 232.104C295.426 232.276 295.761 232.236 296 232.092C296.24 231.947 296.406 231.723 296.587 231.514C297.069 230.964 297.683 230.519 298.37 230.224C299.531 229.726 298.057 229.047 297.36 229.29C296.427 229.615 295.592 230.245 295.178 231.102Z" fill="white"/>
<path d="M299.589 229.747C299.752 229.892 299.994 229.938 300.215 229.913C300.439 229.889 300.648 229.8 300.848 229.701C300.952 229.649 301.072 229.566 301.05 229.456C301.044 229.416 301.02 229.382 300.992 229.351C300.756 229.075 300.151 228.838 299.77 228.958C299.408 229.068 299.297 229.489 299.589 229.747Z" fill="white"/>
<path d="M272.375 207.595C272.141 208.157 271.838 208.704 271.463 209.223C268.761 212.978 263.371 213.958 259.423 211.411C256.789 209.712 255.463 206.87 255.678 204.052C254.223 207.546 255.441 211.641 258.843 213.832C262.791 216.379 268.181 215.399 270.883 211.644C271.779 210.397 272.267 208.999 272.375 207.595Z" fill="#E9F1F4"/>
<path d="M270.809 211.924C268.107 215.679 262.717 216.659 258.769 214.112C254.821 211.564 253.814 206.458 256.516 202.703C259.217 198.949 264.611 197.969 268.556 200.516C272.503 203.063 273.513 208.169 270.809 211.924Z" fill="white"/>
<path d="M258.609 214.336C254.539 211.712 253.495 206.424 256.282 202.553C259.07 198.681 264.648 197.667 268.718 200.291C272.789 202.915 273.833 208.203 271.045 212.074C268.258 215.949 262.68 216.963 258.609 214.336ZM268.396 200.737C264.583 198.279 259.361 199.228 256.749 202.854C254.14 206.479 255.116 211.429 258.929 213.89C262.741 216.348 267.963 215.399 270.576 211.773C273.185 208.148 272.209 203.198 268.396 200.737Z" fill="#E0BA99"/>
<path d="M268.587 210.885C266.818 213.343 263.291 213.983 260.706 212.317C258.124 210.652 257.464 207.309 259.233 204.851C261.001 202.393 264.528 201.754 267.113 203.419C269.695 205.085 270.355 208.427 268.587 210.885Z" fill="#6B8C96"/>
<path d="M261.154 211.896C262.634 210.919 264.065 209.85 265.21 208.532C266.358 207.214 267.211 205.625 267.401 203.929C267.423 203.945 266.622 204.083 266.563 204.101C266.158 204.23 265.756 204.67 265.443 204.94C264.734 205.555 264.092 206.237 263.527 206.971C262.962 207.705 262.474 208.495 262.075 209.321C261.87 209.749 261.685 210.188 261.526 210.636C261.455 210.845 261.323 211.786 261.154 211.896Z" fill="#30211F"/>
<path d="M259.846 205.607C259.767 205.77 259.696 205.942 259.687 206.123C259.678 206.301 259.736 206.492 259.88 206.609C260.095 206.781 260.43 206.741 260.669 206.596C260.909 206.452 261.074 206.228 261.255 206.019C261.737 205.469 262.354 205.023 263.042 204.728C264.203 204.23 262.729 203.551 262.032 203.794C261.096 204.117 260.261 204.75 259.846 205.607Z" fill="white"/>
<path d="M264.258 204.252C264.421 204.396 264.663 204.442 264.884 204.418C265.105 204.393 265.317 204.304 265.514 204.206C265.618 204.154 265.738 204.071 265.716 203.96C265.71 203.92 265.685 203.886 265.658 203.855C265.421 203.579 264.817 203.342 264.436 203.462C264.077 203.573 263.966 203.994 264.258 204.252Z" fill="white"/>
<path d="M277.811 227.833C278.207 228.221 278.511 228.743 278.45 229.281C278.401 229.689 278.149 230.049 277.851 230.347C276.921 231.272 275.558 231.674 274.232 231.88C272.906 232.089 271.543 232.138 270.262 232.528C269.639 231.103 269.16 229.622 268.835 228.11C268.697 227.471 268.589 226.81 268.694 226.165C268.801 225.52 269.151 224.687 269.75 224.361C270.413 224.002 272.602 223.784 273.624 225.317C273.965 225.83 274.305 226.294 274.33 226.887C275.521 226.555 276.961 227.001 277.811 227.833Z" fill="#593E39"/>
<path d="M259.291 235.143C259.413 235.038 259.585 235.06 259.699 235.161C260.927 236.264 262.585 237.06 264.31 237.023C266.198 236.983 267.788 235.813 268.878 234.424C268.958 234.319 269.038 234.215 269.114 234.11C269.139 234.049 269.167 233.984 269.191 233.923C269.704 232.712 270.342 231.554 271.097 230.463C271.303 230.168 271.788 230.46 271.586 230.755C271.472 230.921 271.358 231.087 271.251 231.256C271.334 231.345 271.337 231.471 271.279 231.582C270.778 232.522 270.262 233.474 269.636 234.344C269.308 235.152 269.038 235.982 268.832 236.823C268.715 237.309 268.629 237.816 268.678 238.314C268.728 238.793 268.89 239.26 269.084 239.702C269.486 240.618 270.045 241.466 270.732 242.21C271.509 243.048 272.433 243.746 273.474 244.274C273.612 244.345 273.642 244.532 273.563 244.652C273.474 244.784 273.302 244.809 273.163 244.738C271.229 243.758 269.639 242.163 268.718 240.274C268.485 239.798 268.279 239.297 268.172 238.781C268.061 238.258 268.077 237.73 268.169 237.204C268.261 236.667 268.399 236.135 268.565 235.607C268.196 235.975 267.788 236.31 267.337 236.605C266.517 237.137 265.584 237.475 264.592 237.549C263.684 237.619 262.76 237.453 261.919 237.14C260.933 236.771 260.043 236.212 259.275 235.524C259.156 235.429 259.18 235.238 259.291 235.143Z" fill="#593E39"/>
<path d="M111.71 184.625C110.985 183.156 110.767 181.494 110.872 179.871C110.951 178.645 111.209 177.447 111.618 176.292C123.394 167.72 138.51 163.387 153.395 163.44C162.074 163.47 170.66 164.908 178.906 167.44C179.664 169.087 181.571 170.282 183.06 171.259C186.378 173.447 190.185 175.032 192.982 177.868C196.902 181.844 198.139 187.59 198.222 193.043C198.259 195.483 198.09 197.972 197.166 200.254C196.263 202.482 194.664 204.43 192.727 205.96C187.956 209.733 181.034 210.867 175.225 208.845C170.547 207.217 166.826 203.809 163.532 200.27C160.238 196.73 157.178 192.92 153.199 190.081C149.22 187.242 144.048 185.448 139.21 186.637C135.219 187.617 131.94 190.478 127.931 191.387C124.118 192.251 120.05 191.215 116.683 189.335C114.629 188.192 112.717 186.671 111.71 184.625Z" fill="#E21B1B"/>
<path d="M220.26 293.475C221.316 291.155 222.643 288.847 222.762 286.328C222.965 282.054 219.692 278.321 219.1 274.084C218.839 272.222 219.115 270.296 219.892 268.566C220.528 267.146 221.593 265.791 223.128 265.284C225.961 264.347 228.924 266.756 229.906 269.435C230.888 272.114 230.621 275.061 231.183 277.848C231.591 279.866 232.847 281.16 233.949 282.619C233.375 285.547 232.954 288.516 232.568 291.499C231.186 302.139 229.814 312.927 230.541 323.567C229.593 323.127 228.749 322.424 228.196 321.579C226.907 319.597 226.808 317.139 226.775 314.807C226.741 312.475 226.707 310.026 225.513 307.992C223.914 305.27 220.481 303.721 219.327 300.802C218.397 298.446 219.204 295.794 220.26 293.475Z" fill="#E21B1B"/>
<path d="M88.0623 240.597C86.5796 236.655 85.502 232.485 85.0723 228.297C89.4161 225.925 94.0762 223.999 99.077 224.93C103.516 225.756 107.08 228.863 109.935 232.187C112.787 235.512 115.225 239.214 118.66 241.998C121.493 244.293 125.021 245.983 126.952 249.006C129.678 253.274 128.358 258.835 126.132 263.376C123.906 267.917 120.815 272.222 120.06 277.172C119.495 280.868 120.216 284.927 118.153 288.116C116.68 290.39 113.822 291.745 111.034 291.646C108.698 283.142 105.496 274.852 101.475 266.94C97.0018 258.153 91.519 249.793 88.0623 240.597Z" fill="#E21B1B"/>
<path d="M269.09 218.745C268.476 217.436 269.249 215.881 270.33 214.877C271.414 213.872 272.792 213.187 273.854 212.157C275.712 210.36 276.375 207.536 275.494 205.17C274.76 203.207 273.084 201.603 272.66 199.557C272.276 197.704 272.995 195.799 273.894 194.109C274.296 193.357 274.748 192.613 275.251 191.913C281.191 193.261 287.724 195.477 294.109 199.29C293.167 201.087 293.317 203.533 294.134 205.435C294.677 206.704 295.537 207.834 296.046 209.116C296.912 211.294 296.667 213.847 295.396 215.847C294.125 217.848 291.856 219.255 289.419 219.553C285.695 220.011 281.943 218.026 278.269 218.751C276.617 219.077 275.122 219.931 273.471 220.266C271.816 220.604 269.771 220.201 269.09 218.745Z" fill="#8D3030"/>
<path d="M148.266 185.608C152.158 186.551 155.756 189.012 157.313 192.524C158.467 195.129 158.448 198.076 159.385 200.758C161.085 205.625 165.908 209.733 165.273 214.837C164.766 218.908 160.699 221.922 156.481 222.816C152.26 223.71 147.879 222.957 143.621 222.294C139.363 221.63 134.909 221.071 130.789 222.321C125.963 223.787 121.843 227.658 116.784 227.557C111.989 227.462 108.017 223.575 106.592 219.236C105.168 214.898 105.769 210.206 106.598 205.72C107.347 201.677 108.268 197.661 109.364 193.688C110.218 190.588 111.424 187.205 114.374 185.642C117.733 183.859 121.88 185.156 125.509 186.336C129.315 187.574 132.247 187.789 135.986 186.496C139.903 185.147 144.131 184.609 148.266 185.608Z" fill="#8D3030"/>
<path d="M217.881 196.1C217.283 197.664 217.175 199.388 217.571 201.004C218.001 202.759 219.02 204.467 218.722 206.249C218.326 208.615 215.278 210.182 212.945 209.278C210.477 208.323 209.507 205.499 209.252 202.98C208.997 200.46 209.123 197.76 207.729 195.606C206.952 194.404 205.777 193.498 204.736 192.493C203.695 191.489 202.741 190.284 202.609 188.877C202.477 187.473 203.483 185.897 204.969 185.804C206.593 185.703 207.437 187.107 208.718 187.731C210.173 188.444 211.744 188.352 213.218 188.96C216.076 190.14 219.014 193.135 217.881 196.1Z" fill="#8D3030"/>
<path d="M143.946 111.394C140.834 108.313 136.471 106.687 132.17 105.415C127.873 104.143 123.418 103.102 119.587 100.865C117.017 99.3654 114.626 97.015 114.598 94.1514C114.558 90.0526 119.228 87.3581 123.467 86.5438C129.57 85.3732 135.903 86.2581 141.93 87.6991C149.647 89.5457 157.334 92.44 163.25 97.396C163.127 98.0289 162.835 98.6157 162.338 99.0705C161.073 100.226 159.087 100.127 157.414 100.631C154.421 101.532 152.432 104.761 153.079 107.667C153.405 109.13 154.289 110.417 154.875 111.806C155.458 113.195 155.71 114.875 154.823 116.12C154.313 116.833 153.497 117.3 152.653 117.619C150.973 118.252 149.181 118.372 147.379 118.215C147.093 115.711 145.804 113.232 143.946 111.394Z" fill="#8D3030"/>
<path d="M260.531 225.216C257.09 221.095 253.05 217.494 248.608 214.483C244.138 211.454 239.26 209.03 234.155 207.275C231.226 206.267 228.221 205.49 225.172 204.94C224.678 204.851 224.466 205.607 224.963 205.696C230.283 206.651 235.472 208.32 240.35 210.652C245.166 212.956 249.691 215.89 253.722 219.396C255.969 221.353 258.063 223.483 259.975 225.769C260.301 226.159 260.853 225.6 260.531 225.216Z" fill="#593E39"/>
<path d="M258.087 227.455C253.556 224.389 248.635 221.925 243.487 220.081C238.268 218.213 232.822 216.993 227.309 216.44C224.196 216.127 221.062 216.035 217.933 216.161C217.43 216.182 217.427 216.966 217.933 216.944C223.441 216.723 228.967 217.187 234.36 218.318C239.674 219.433 244.862 221.181 249.75 223.55C252.503 224.884 255.159 226.414 257.694 228.131C258.112 228.417 258.505 227.738 258.087 227.455Z" fill="#593E39"/>
<path d="M257.667 230.697C252.909 229.419 248.018 228.638 243.1 228.356C238.192 228.073 233.261 228.288 228.399 228.992C225.633 229.391 222.891 229.953 220.19 230.669C219.702 230.798 219.91 231.554 220.399 231.425C225.123 230.168 229.974 229.397 234.855 229.13C239.711 228.863 244.601 229.072 249.412 229.784C252.126 230.187 254.812 230.746 257.461 231.456C257.946 231.585 258.155 230.826 257.667 230.697Z" fill="#593E39"/>
<path d="M285.931 240.136C287.592 240.403 289.154 241.03 290.68 241.718C292.148 242.379 293.612 243.055 295.07 243.737C297.922 245.073 300.752 246.462 303.497 248.008C308.921 251.065 313.95 254.789 317.895 259.652C320.05 262.31 321.855 265.247 323.264 268.363C323.473 268.821 324.148 268.424 323.939 267.967C321.379 262.31 317.502 257.293 312.734 253.323C307.838 249.246 302.174 246.238 296.442 243.519C294.812 242.744 293.17 241.992 291.528 241.245C289.793 240.455 288.031 239.684 286.137 239.377C285.646 239.3 285.434 240.056 285.931 240.136Z" fill="#593E39"/>
<path d="M282.398 243.792C285.284 244.523 287.832 246.115 290.119 247.983C292.541 249.962 294.803 252.171 297.004 254.392C299.254 256.663 301.376 259.062 303.236 261.668C305.001 264.141 306.555 266.768 307.865 269.512C309.333 272.581 310.484 275.798 311.31 279.098C311.433 279.587 312.188 279.381 312.065 278.889C310.567 272.895 307.979 267.18 304.483 262.086C302.665 259.437 300.599 256.979 298.37 254.669C296.108 252.324 293.75 250.029 291.264 247.921C288.716 245.761 285.882 243.866 282.607 243.036C282.118 242.913 281.91 243.669 282.398 243.792Z" fill="#593E39"/>
<path d="M280.58 247.353C284.534 250.435 287.822 254.3 290.352 258.623C293.078 263.281 294.883 268.424 295.933 273.709C296.556 276.84 296.909 280.02 297.056 283.209C297.081 283.713 297.864 283.716 297.839 283.209C297.575 277.488 296.645 271.773 294.757 266.357C293.05 261.459 290.561 256.844 287.279 252.822C285.462 250.591 283.402 248.567 281.133 246.797C280.74 246.493 280.184 247.043 280.58 247.353Z" fill="#593E39"/>
</g>
<defs>
<clipPath id="clip0_6903_7044">
<rect width="256" height="253" fill="white" transform="translate(75 86)"/>
</clipPath>
</defs>
</svg>
