<svg width="540" height="523" viewBox="0 0 540 523" fill="none" xmlns="http://www.w3.org/2000/svg">
<path d="M86.5822 314.945C86.7794 312.518 87.7066 310.207 89.2417 308.318C90.6869 306.42 92.6884 305.021 94.9663 304.317C96.9104 303.764 98.9829 303.869 100.861 304.616C102.74 305.363 104.319 306.711 105.354 308.449C106.23 306.703 107.638 305.28 109.375 304.387C111.111 303.495 113.086 303.177 115.014 303.482C117.359 303.915 119.511 305.072 121.168 306.789C122.919 308.475 124.11 310.66 124.579 313.047C125.141 316.096 124.706 319.245 123.339 322.026C121.714 324.856 119.442 327.259 116.708 329.036C112.271 332.081 106.439 335.902 106.439 335.902C106.439 335.902 101.096 332.38 96.3497 329.932C93.4188 328.498 90.8747 326.381 88.9317 323.758C87.2211 321.15 86.3971 318.059 86.5822 314.945Z" fill="#34495C"/>
<path d="M418.974 183.054C419.164 180.625 420.092 178.312 421.633 176.426C423.072 174.526 425.07 173.126 427.346 172.426C429.29 171.872 431.363 171.977 433.241 172.724C435.12 173.471 436.699 174.819 437.734 176.558C438.61 174.811 440.018 173.389 441.754 172.496C443.491 171.603 445.466 171.286 447.394 171.59C449.739 172.024 451.891 173.18 453.548 174.898C455.299 176.585 456.493 178.769 456.971 181.155C457.518 184.212 457.071 187.364 455.694 190.147C454.074 192.979 451.8 195.382 449.063 197.156C444.639 200.201 438.795 204.023 438.795 204.023C438.795 204.023 433.464 200.44 428.706 198.052C425.775 196.619 423.231 194.501 421.288 191.878C419.586 189.263 418.775 186.168 418.974 183.054Z" fill="#34495C"/>
<path d="M118.864 285.294C118.981 283.735 119.576 282.25 120.569 281.043C121.495 279.821 122.779 278.919 124.242 278.464C125.022 278.25 125.837 278.197 126.638 278.305C127.439 278.414 128.21 278.683 128.905 279.097C129.726 279.602 130.416 280.293 130.921 281.115C131.483 279.994 132.387 279.082 133.503 278.511C134.618 277.939 135.886 277.739 137.123 277.938C138.629 278.206 140.011 278.946 141.07 280.052C142.196 281.136 142.962 282.541 143.264 284.076C143.624 286.036 143.339 288.06 142.453 289.844C141.413 291.663 139.954 293.207 138.196 294.346C135.346 296.304 131.601 298.764 131.601 298.764C131.601 298.764 128.166 296.495 125.113 294.895C123.229 293.974 121.593 292.615 120.342 290.931C119.259 289.259 118.74 287.283 118.864 285.294Z" fill="#34495C"/>
<path d="M398.568 212.285C398.693 210.728 399.288 209.245 400.274 208.034C401.201 206.816 402.486 205.919 403.947 205.467C405.197 205.122 406.525 205.194 407.73 205.672C408.935 206.151 409.952 207.009 410.626 208.118C411.021 207.336 411.583 206.651 412.272 206.112C412.91 205.613 413.643 205.251 414.427 205.045C415.21 204.84 416.027 204.796 416.827 204.918C418.333 205.195 419.714 205.938 420.775 207.043C421.903 208.126 422.669 209.532 422.969 211.067C423.328 213.027 423.043 215.05 422.158 216.835C421.122 218.657 419.661 220.201 417.901 221.337C415.05 223.283 411.306 225.743 411.306 225.743C411.306 225.743 407.883 223.486 404.818 221.874C402.932 220.957 401.295 219.597 400.047 217.91C398.964 216.242 398.446 214.27 398.568 212.285Z" fill="#34495C"/>
<path d="M458.855 272.649C458.972 271.09 459.568 269.605 460.56 268.398C461.486 267.176 462.77 266.274 464.234 265.819C465.013 265.606 465.828 265.552 466.629 265.66C467.431 265.769 468.202 266.038 468.897 266.452C469.717 266.957 470.408 267.648 470.912 268.47C471.471 267.346 472.375 266.432 473.491 265.86C474.607 265.289 475.877 265.09 477.114 265.293C478.616 265.572 479.996 266.31 481.061 267.407C482.187 268.491 482.954 269.896 483.256 271.431C483.609 273.391 483.325 275.413 482.445 277.199C481.403 279.021 479.939 280.566 478.175 281.701C475.337 283.659 471.58 286.119 471.58 286.119C471.58 286.119 468.157 283.85 465.104 282.25C463.22 281.329 461.585 279.97 460.334 278.286C459.25 276.614 458.731 274.638 458.855 272.649Z" fill="#34495C"/>
<path d="M126.797 334.779C126.877 333.753 127.273 332.776 127.93 331.985C128.529 331.182 129.363 330.586 130.315 330.277C130.83 330.136 131.367 330.101 131.896 330.172C132.425 330.244 132.933 330.422 133.392 330.695C133.929 331.034 134.382 331.491 134.716 332.032C134.978 331.518 135.348 331.066 135.801 330.707C136.223 330.38 136.707 330.143 137.224 330.01C137.741 329.876 138.279 329.849 138.806 329.931C139.799 330.11 140.709 330.599 141.406 331.328C142.16 332.035 142.68 332.956 142.897 333.967C143.13 335.261 142.941 336.597 142.36 337.776C141.675 338.98 140.709 340 139.546 340.75C137.673 342.039 135.193 343.651 135.193 343.651C135.193 343.651 132.939 342.159 130.923 341.108C129.687 340.495 128.612 339.599 127.787 338.493C127.067 337.394 126.719 336.091 126.797 334.779Z" fill="#34495C"/>
<path d="M62.2629 45.846C62.2629 45.846 56.765 50.6225 68.703 61.6205C74.7416 67.3715 81.1561 72.7131 87.9041 77.61C87.9041 77.61 90.2893 80.3087 87.8325 81.7775C85.3757 83.2463 79.2099 84.4643 79.2099 88.1542C79.2099 91.8441 82.7878 94.2562 88.8343 95.2115C94.8809 96.1668 107.916 98.7939 109.025 98.985C110.134 99.1761 111.673 100.334 110.146 101.612C108.62 102.89 95.99 109.111 99.3055 114.927C102.621 120.742 119.723 120.67 121.595 120.706C123.468 120.742 124.112 121.279 124.315 122.235C124.517 123.19 120.069 124.874 116.551 126.784C113.032 128.695 109.288 131.561 111.47 134.749C113.653 137.938 125.328 142.057 147.809 136.17L158.054 132.767L160.439 122.163C164.088 99.188 158.865 87.9631 155.466 86.1003C152.067 84.2374 149.61 88.2378 148.048 91.9277C146.485 95.6175 145.245 100.215 144.279 100.119C143.313 100.024 142.705 99.4149 142.49 97.552C142.275 95.6892 140.689 78.6369 134.571 75.9143C128.453 73.1917 123.516 86.3749 122.394 88.0228C121.273 89.6707 120.009 88.2856 119.675 87.1631C119.341 86.0406 115.489 73.2753 113.951 67.4001C112.412 61.525 109.8 58.1575 105.996 58.5158C102.192 58.874 101.726 65.1432 100.498 67.7464C99.2697 70.3496 96.3597 68.236 96.3597 68.236C90.8201 61.9841 84.8675 56.1117 78.5421 50.6584C66.4132 39.9112 62.1556 45.9535 62.1556 45.9535" fill="#34495C"/>
<path d="M159.425 134.953C150.552 126.976 135.012 112.539 121.607 100.216C108.202 87.8922 96.0615 76.739 87.2242 68.7263L76.7531 59.2449C75.5605 58.1224 74.5587 57.2626 73.9027 56.6536L73.1633 55.9849L72.9248 55.7461C73.0167 55.8078 73.1043 55.8756 73.1872 55.9491C73.3661 56.1163 73.6284 56.3312 73.9504 56.6059L76.8246 59.1374C79.3291 61.3466 82.9308 64.5588 87.3673 68.5472C96.2523 76.524 108.417 87.6534 121.822 99.9649C135.227 112.276 150.767 126.761 159.592 134.774" fill="#34495C"/>
<path d="M87.9023 86.781C88.1836 86.7475 88.4678 86.7475 88.7491 86.781H90.8719C92.6609 86.781 95.1415 86.781 97.8726 86.9483L104.861 87.2589L106.984 87.3426C107.242 87.3186 107.502 87.3186 107.759 87.3426C107.505 87.3962 107.244 87.4203 106.984 87.4142C106.471 87.4142 105.792 87.4142 104.849 87.4142C103.06 87.4142 100.592 87.3067 97.8607 87.1992L90.86 86.9244L88.7491 86.8527C88.4649 86.866 88.1803 86.8419 87.9023 86.781Z" fill="#34495C"/>
<path d="M108.156 86.4233C108.06 86.4233 107.953 81.3005 107.917 74.9955C107.881 68.6904 107.917 63.5557 108.024 63.5557C108.132 63.5557 108.215 68.6785 108.251 74.9835C108.287 81.2886 108.239 86.4233 108.156 86.4233Z" fill="#34495C"/>
<path d="M127.882 106.27C127.917 106.006 127.976 105.746 128.061 105.494C128.228 104.944 128.419 104.299 128.657 103.416C129.158 101.648 129.85 99.2124 130.482 96.5017C131.114 93.791 131.674 91.3191 131.996 89.516C132.175 88.6801 132.306 87.9636 132.426 87.3904C132.458 87.1249 132.522 86.8643 132.617 86.6143C132.627 86.8823 132.607 87.1507 132.557 87.4143C132.485 87.9278 132.39 88.6085 132.235 89.5638C131.937 91.3669 131.472 93.8627 130.816 96.5853C130.16 99.3079 129.444 101.732 128.884 103.487C128.597 104.359 128.371 105.052 128.192 105.541C128.118 105.796 128.014 106.04 127.882 106.27Z" fill="#34495C"/>
<path d="M109.646 110.665C109.863 110.549 110.096 110.465 110.337 110.414L112.269 109.877C113.903 109.423 116.157 108.838 118.662 108.205C121.166 107.572 123.432 107.011 125.078 106.629L127.022 106.187C127.261 106.127 127.504 106.087 127.749 106.067C127.53 106.179 127.298 106.263 127.058 106.318L125.138 106.856C123.504 107.309 121.238 107.894 118.745 108.527C116.253 109.16 113.975 109.721 112.329 110.104L110.373 110.545C110.134 110.606 109.891 110.646 109.646 110.665Z" fill="#34495C"/>
<path d="M124.84 130.391C125.127 130.262 125.427 130.162 125.734 130.093L128.203 129.388C130.29 128.803 133.176 128.027 136.372 127.179C139.569 126.331 142.467 125.591 144.578 125.065L147.07 124.468C147.371 124.383 147.678 124.323 147.988 124.289C147.705 124.421 147.41 124.525 147.106 124.6L144.637 125.304C142.55 125.877 139.652 126.665 136.456 127.501C133.26 128.337 130.362 129.089 128.263 129.615L125.77 130.212C125.468 130.306 125.156 130.366 124.84 130.391Z" fill="#34495C"/>
<path d="M147.403 124.278C147.44 123.942 147.508 123.611 147.606 123.287C147.773 122.607 147.988 121.699 148.262 120.624C148.811 118.367 149.562 115.251 150.289 111.788C151.017 108.325 151.613 105.16 152.019 102.88C152.221 101.781 152.388 100.873 152.508 100.169C152.554 99.8334 152.625 99.5021 152.722 99.1777C152.722 99.5178 152.694 99.8572 152.639 100.193C152.555 100.838 152.436 101.769 152.257 102.915C151.911 105.22 151.363 108.385 150.623 111.848C149.884 115.31 149.097 118.439 148.489 120.684C148.179 121.807 147.916 122.702 147.725 123.323C147.638 123.648 147.531 123.967 147.403 124.278Z" fill="#34495C"/>
<path d="M399.166 112.312C383.328 98.4244 381.778 75.6761 384.616 55.7341C385.093 52.3905 385.105 48.8201 387.001 46.0497C388.898 43.2793 392.833 41.6791 395.684 43.4106C398.069 44.8555 398.808 47.8648 399.941 50.4083C401.45 53.8051 403.889 56.7037 406.978 58.7672C408.993 60.1046 411.557 61.0599 413.788 60.1285C416.841 58.8508 417.604 54.8982 417.95 51.5546C418.578 45.3451 419.206 39.1316 419.834 32.9142C419.99 29.5629 420.691 26.2595 421.909 23.1342C423.281 20.0772 425.881 17.3904 429.148 16.8411C432.416 16.2918 436.125 18.5487 436.435 21.8804C436.421 23.2722 436.305 24.661 436.089 26.036C435.978 26.7344 436.081 27.4501 436.383 28.0893C436.685 28.7286 437.173 29.2615 437.783 29.6184C439.071 30.1557 440.502 29.3557 441.599 28.4242C445.392 25.427 448.194 21.343 450.842 17.271C453.49 13.199 456.078 8.95984 459.655 5.58044C463.233 2.20104 467.789 -0.18723 472.583 0.0515969C477.378 0.290424 482.124 3.78924 482.84 8.6016C483.555 13.414 480.288 17.9039 476.877 21.3788C471.852 26.5549 466.108 30.9789 459.822 34.5143C458.618 35.021 457.607 35.8996 456.936 37.022C455.97 39.1595 457.843 41.5955 459.954 42.5628C462.339 43.6495 465.058 43.6853 467.622 44.2704C470.186 44.8555 472.87 46.3124 473.585 48.8678C474.587 52.4502 471.355 55.6863 468.302 57.7164C462.194 61.8 455.428 64.7975 448.302 66.5768C445.761 67.2097 443.102 67.771 440.943 69.2278C438.785 70.6847 437.234 73.6461 438.188 76.0344C439.142 78.4227 442.112 79.6168 444.724 79.4018C447.336 79.1869 449.792 78.0525 452.333 77.3957C457.103 76.2016 462.959 77.1091 465.451 81.3841C466.2 82.8419 466.6 84.4538 466.621 86.0929C466.642 87.7319 466.282 89.3534 465.571 90.8297C464.118 93.7674 462.09 96.3826 459.608 98.52C451.419 106.454 441.275 112.07 430.21 114.796C419.214 117.328 409.279 117.268 399.142 112.276" fill="#34495C"/>
<path d="M405.7 100.286C410.206 89.7142 415.311 79.4081 420.989 69.418C422.492 66.755 423.959 64.1279 425.414 61.5367C426.869 58.9454 428.324 56.3899 429.886 53.9659C432.913 49.329 436.19 44.8603 439.702 40.5796C443.029 36.4718 446.333 32.6983 449.445 29.1876C452.558 25.6768 455.551 22.4765 458.39 19.6345C462.831 15.1834 467.616 11.0907 472.701 7.39461C474.502 6.08106 475.933 5.11381 476.911 4.46898L478.032 3.74056C478.155 3.65074 478.287 3.57466 478.426 3.51367C478.314 3.61847 478.195 3.71429 478.068 3.80026L476.983 4.57645C476.029 5.24517 474.597 6.24824 472.844 7.58567C467.815 11.3482 463.071 15.4793 458.652 19.945C455.85 22.7751 452.892 25.9873 449.791 29.498C446.69 33.0088 443.411 36.8061 440.107 40.914C436.612 45.1776 433.359 49.6348 430.363 54.2644C428.801 56.6527 427.37 59.2081 425.915 61.7994L421.49 69.6807C415.821 79.6489 410.713 89.9265 406.189 100.465" fill="#34495C"/>
<path d="M430.066 53.9671C429.965 53.4878 429.909 53 429.899 52.5103C429.815 51.5669 429.756 50.2056 429.696 48.5219C429.589 45.1544 429.589 40.4973 429.613 35.3864C429.636 30.2755 429.613 25.6064 429.41 22.2509C429.326 20.5672 429.255 19.2059 429.183 18.2744C429.124 17.7867 429.124 17.2934 429.183 16.8057C429.317 17.2778 429.405 17.7616 429.446 18.2506C429.589 19.182 429.732 20.5433 429.863 22.2151C430.137 25.5826 430.269 30.2397 430.245 35.3506C430.221 40.4615 430.185 44.9992 430.161 48.4861V52.4745C430.191 52.9741 430.159 53.4755 430.066 53.9671Z" fill="#34495C"/>
<path d="M473.715 50.5761C473.139 50.6244 472.561 50.6244 471.985 50.5761C470.876 50.5761 469.266 50.5761 467.287 50.5761C463.327 50.5761 457.853 50.7671 451.783 51.2448C445.712 51.7224 440.31 52.4389 436.386 53.0121C434.418 53.2987 432.808 53.5734 431.747 53.7525C431.182 53.8802 430.607 53.9601 430.029 53.9913C430.568 53.7755 431.128 53.6154 431.699 53.5136C432.784 53.2629 434.358 52.9166 436.314 52.5703C440.238 51.8657 445.688 51.1134 451.735 50.6238C456.891 50.1991 462.066 50.0357 467.239 50.1342C469.219 50.1342 470.817 50.2775 471.938 50.3731C472.535 50.3814 473.131 50.4494 473.715 50.5761Z" fill="#34495C"/>
<path d="M406.309 99.5475C406.204 99.3767 406.124 99.1917 406.071 98.9982L405.51 97.3742C405.021 95.9532 404.318 93.8873 403.614 91.3199C402.075 86.1851 400.179 79.0323 398.187 71.1151C396.196 63.198 394.371 56.0332 392.94 50.8746L391.235 44.7725C391.056 44.1158 390.901 43.5784 390.781 43.1127C390.714 42.9203 390.674 42.7193 390.662 42.5156C390.756 42.6963 390.836 42.8839 390.901 43.0769C391.044 43.5187 391.235 44.0561 391.461 44.7009C391.95 46.1219 392.594 48.1878 393.357 50.7552C394.896 55.878 396.792 63.0309 398.784 70.9599C400.775 78.889 402.6 86.0418 404.031 91.2602L405.737 97.3622C405.916 98.019 406.071 98.5564 406.19 99.0221C406.251 99.1917 406.291 99.3681 406.309 99.5475Z" fill="#34495C"/>
<path d="M465.129 87.3429C464.946 87.433 464.748 87.4896 464.545 87.5101L462.839 87.8922L456.531 89.2058C451.211 90.3283 443.889 91.9403 435.791 93.7554C427.693 95.5705 420.287 97.1109 414.992 98.114C412.32 98.6275 410.15 99.0096 408.647 99.3082L406.918 99.5589C406.717 99.5932 406.511 99.5932 406.31 99.5589C406.5 99.4879 406.695 99.432 406.894 99.3917L408.611 99.0216L414.908 97.6961C420.227 96.5855 427.562 94.9615 435.66 93.1584C443.758 91.3552 451.104 89.7909 456.447 88.7878C459.118 88.2863 461.289 87.9042 462.792 87.6653L464.521 87.4026C464.72 87.3567 464.925 87.3366 465.129 87.3429Z" fill="#34495C"/>
<path d="M540 502.126C540 502.305 420.739 502.449 273.618 502.449C126.497 502.449 7.21191 502.341 7.21191 502.126C7.21191 501.911 126.473 501.815 273.618 501.815C420.762 501.815 540 501.959 540 502.126Z" fill="#172A3F"/>
<path d="M351.961 212.716C352.613 201.658 353.273 190.6 353.941 179.543C354.024 178.205 354.227 176.665 355.372 175.96C355.93 175.74 356.53 175.647 357.128 175.688C357.726 175.73 358.308 175.904 358.83 176.199C378.413 184.092 392.784 205.969 394.501 227.021" fill="#F1463B"/>
<g opacity="0.3">
<path opacity="0.3" d="M358.614 187.423C363.201 190.433 367.031 194.464 369.803 199.202C372.576 203.94 374.216 209.255 374.595 214.733C374.813 216.057 374.532 217.414 373.808 218.543C373.437 218.947 372.985 219.27 372.482 219.49C371.979 219.71 371.435 219.822 370.886 219.82C369.787 219.808 368.695 219.639 367.643 219.319C365.007 218.638 362.228 217.898 360.272 215.987C358.484 214.09 357.461 211.597 357.398 208.989C357.351 206.404 357.615 203.822 358.185 201.299L361.524 207.007L357.947 188.522C357.89 188.36 357.87 188.187 357.886 188.016C357.903 187.845 357.956 187.679 358.042 187.531C358.245 187.268 358.817 187.364 358.781 187.698" fill="white"/>
</g>
<path d="M238.436 236.264C228.216 224.115 222.34 208.897 221.739 193.024L232.652 198.171L229.921 194.84C245.845 196.169 260.621 203.671 271.102 215.749" fill="#F1463B"/>
<g opacity="0.3">
<path opacity="0.3" d="M244.482 231.441C240.196 228.322 236.595 224.356 233.902 219.788C231.208 215.22 229.479 210.147 228.823 204.883C228.739 204.167 228.823 203.223 229.49 202.984C229.74 202.941 229.995 202.953 230.239 203.022C230.482 203.09 230.707 203.212 230.898 203.378L250.588 216.263C249.733 215.034 249.199 213.609 249.037 212.12L257.386 218.245C257.703 218.422 257.982 218.66 258.207 218.944C258.432 219.229 258.599 219.556 258.698 219.905C258.702 220.298 258.612 220.687 258.436 221.038C258.259 221.389 258.002 221.693 257.684 221.923C256.293 223.18 254.601 224.055 252.772 224.461C250.942 224.867 249.039 224.791 247.248 224.24L250.826 227.357C249.761 228.046 248.567 228.512 247.317 228.728C246.067 228.943 244.786 228.903 243.551 228.611C243.431 229.199 243.489 229.811 243.718 230.367C243.948 230.922 244.338 231.396 244.839 231.727" fill="white"/>
</g>
<path d="M460.847 340.476C460.847 340.476 476.113 356.275 483.054 354.961C483.054 354.961 458.939 329.275 448.802 305.572C443.96 294.363 438.192 283.578 431.557 273.33C436.124 265.449 440.191 256.529 442.052 247.513C436.925 253.467 431.08 258.762 424.652 263.276C424.127 262.535 423.59 261.807 423.042 261.066C428.436 256.18 432.031 249.619 433.25 242.438L409.148 241.399C409.902 240.311 410.584 239.174 411.187 237.996C399.347 227.806 386.089 219.395 371.831 213.026C344.102 197.228 282.385 192.01 252.331 217.696C225.414 233.41 218.198 253.52 196.994 258.499L184.423 257.126C184.423 257.126 179.534 283.397 195.598 295.135L183.672 292.365C183.672 292.365 185.867 302.825 197.602 314.361L190.279 313.465C190.279 313.465 193.452 329.92 203.589 333.873C203.589 333.873 187.751 335.855 183.314 329.92C183.314 329.92 178.043 354.519 202.026 363.798C202.026 363.798 130.16 372.228 150.362 460.32C155.133 480.895 183.457 495.702 216.075 502.855L451.02 501.935C465.332 497.254 482.41 449.776 483.042 430.681C483.674 411.587 474.181 374.7 474.181 374.7L483.078 386.558L460.847 340.476Z" fill="#F1463B"/>
<path d="M192.316 377.184C178.828 376.372 165.578 386.868 163.276 400.207C172.052 394.378 182.073 390.697 192.531 389.459C188.412 393.253 185.542 398.209 184.3 403.673C183.058 409.137 183.504 414.849 185.578 420.053C187.317 415.402 189.981 411.152 193.408 407.562C196.836 403.972 200.956 401.116 205.519 399.168C202.402 402.932 200.308 407.437 199.439 412.249C198.57 417.06 198.955 422.014 200.557 426.633" fill="#F1463B"/>
<path d="M200.557 426.657C200.477 426.5 200.413 426.336 200.366 426.167C200.259 425.845 200.068 425.367 199.877 424.734C199.352 422.855 199.025 420.926 198.9 418.978C198.716 415.9 199.026 412.812 199.818 409.831C200.854 405.889 202.738 402.22 205.34 399.084L205.614 399.454C201.095 401.408 197.017 404.254 193.621 407.822C190.226 411.39 187.584 415.607 185.852 420.22L185.59 420.937L185.304 420.232C183.862 416.598 183.195 412.703 183.345 408.796C183.495 404.889 184.459 401.056 186.174 397.544C187.685 394.442 189.774 391.657 192.328 389.34L192.567 389.877C182.159 391.107 172.18 394.745 163.419 400.505L162.895 400.851L163.014 400.23C163.544 397.348 164.551 394.576 165.995 392.027C167.275 389.717 168.882 387.606 170.766 385.757C173.776 382.707 177.414 380.352 181.428 378.855C183.995 377.893 186.693 377.329 189.43 377.184C190.384 377.184 191.112 377.184 191.589 377.184H192.149H192.328H192.149H191.589C191.1 377.184 190.396 377.184 189.442 377.184C186.732 377.392 184.068 377.999 181.535 378.987C177.59 380.506 174.022 382.865 171.076 385.901C169.241 387.733 167.678 389.82 166.437 392.098C165.038 394.608 164.063 397.331 163.55 400.159L163.133 399.884C171.953 394.055 182.012 390.375 192.507 389.137L193.473 389.029L192.746 389.674C190.269 391.943 188.246 394.662 186.783 397.687C185.094 401.126 184.144 404.881 183.992 408.711C183.84 412.54 184.49 416.359 185.9 419.922H185.351C187.24 414.921 190.186 410.387 193.986 406.631C197.294 403.354 201.196 400.74 205.483 398.929L206.389 398.547L205.757 399.299C203.175 402.376 201.291 405.978 200.235 409.855C199.429 412.797 199.087 415.847 199.222 418.895C199.314 420.825 199.602 422.742 200.08 424.615C200.235 425.259 200.402 425.749 200.486 426.071C200.529 426.264 200.553 426.46 200.557 426.657Z" fill="#172A3F"/>
<path d="M438.58 414.237C445.861 412.695 453.451 413.711 460.072 417.115C466.692 420.519 471.94 426.102 474.931 432.925" fill="#F1463B"/>
<path d="M474.931 432.927C474.812 432.987 473.893 430.658 471.568 427.422C468.537 423.203 464.549 419.765 459.931 417.392C455.313 415.019 450.199 413.779 445.008 413.773C441.025 413.773 438.592 414.37 438.58 414.239C439.124 414.04 439.688 413.9 440.262 413.821C441.835 413.524 443.431 413.364 445.032 413.343C450.315 413.224 455.545 414.426 460.247 416.84C464.949 419.255 468.975 422.806 471.961 427.171C472.869 428.48 473.667 429.862 474.347 431.303C474.602 431.82 474.799 432.365 474.931 432.927Z" fill="#172A3F"/>
<g opacity="0.3">
<path opacity="0.3" d="M355.741 434.085C347.082 435.47 336.063 442.026 332.044 449.8C331.185 451.46 331.972 451.687 332.044 453.549C332.045 454.488 332.309 455.408 332.807 456.204C333.304 457 334.015 457.64 334.858 458.051C335.285 458.225 335.744 458.307 336.205 458.292C336.666 458.277 337.119 458.165 337.534 457.963C337.948 457.762 338.316 457.475 338.614 457.122C338.911 456.769 339.131 456.357 339.259 455.914C338.225 462.276 339.612 468.796 343.147 474.184C345.583 472.809 347.545 470.727 348.776 468.213C348.549 472.879 349.279 477.541 350.92 481.913C352.561 486.285 355.078 490.275 358.317 493.636L354.095 477.145C352.58 471.175 351.113 466.1 351.519 459.974C351.948 453.43 355.836 447.913 358.854 442.492C354.703 444.295 349.897 452.463 345.806 457.442C345.561 453.109 346.302 448.776 347.974 444.771C349.645 440.767 352.203 437.194 355.455 434.324" fill="#172A3F"/>
</g>
<path d="M354.118 477.336C353.982 477.114 353.87 476.877 353.784 476.631C353.605 476.153 353.26 475.437 352.973 474.517C352.079 471.837 351.537 469.051 351.363 466.23C351.081 461.935 351.586 457.625 352.854 453.513C354.414 448.286 357.198 443.508 360.976 439.577L361.393 440.007C357.907 443.135 354.599 446.456 351.483 449.954C349.47 452.254 347.692 454.75 346.176 457.405L345.71 458.229L345.603 457.298C345.076 452.373 345.97 447.4 348.179 442.968C350.008 439.213 352.727 435.962 356.098 433.499L356.325 433.905C353.955 434.788 351.782 436.132 349.932 437.857C348.537 439.153 347.332 440.641 346.354 442.276C345.734 443.317 345.2 444.407 344.756 445.536C344.629 445.943 344.478 446.341 344.303 446.73C344.29 446.627 344.29 446.522 344.303 446.419C344.363 446.205 344.434 445.894 344.565 445.5C344.958 444.334 345.466 443.21 346.08 442.144C347.047 440.459 348.252 438.922 349.658 437.583C351.53 435.803 353.735 434.411 356.146 433.487L357.744 432.878L356.36 433.893C353.108 436.347 350.494 439.55 348.74 443.231C346.616 447.57 345.76 452.422 346.271 457.226L345.698 457.107C347.235 454.417 349.033 451.885 351.065 449.548C354.199 446.032 357.532 442.699 361.047 439.565L361.465 439.995C357.743 443.851 354.981 448.531 353.403 453.656C352.122 457.709 351.58 461.961 351.805 466.206C351.943 469.004 352.419 471.775 353.224 474.458C353.486 475.401 353.796 476.094 353.939 476.583C354.015 476.83 354.075 477.081 354.118 477.336Z" fill="#172A3F"/>
<path d="M212.613 476.071C217.298 481.275 223.462 484.918 230.276 486.508C230.646 486.656 231.049 486.705 231.444 486.651C231.839 486.597 232.213 486.44 232.53 486.197C233.222 485.433 232.649 484.227 232.077 483.379L224.504 472.178C229.895 476.445 236.288 479.257 243.073 480.346C244.206 480.525 245.601 480.525 246.173 479.546C246.337 479.115 246.397 478.652 246.349 478.194C246.302 477.736 246.148 477.295 245.899 476.907C244.707 474.352 243.514 471.832 242.107 469.372" fill="#F1463B"/>
<path d="M242.108 469.323C242.254 469.507 242.378 469.708 242.478 469.92L243.432 471.712C243.861 472.512 244.35 473.467 244.923 474.554C245.225 475.111 245.535 475.708 245.853 476.345C246.25 477.014 246.506 477.758 246.605 478.53C246.638 478.992 246.502 479.45 246.223 479.82C245.916 480.185 245.497 480.437 245.03 480.536C244.108 480.677 243.168 480.633 242.263 480.405C240.292 480.066 238.351 479.575 236.455 478.936C232.065 477.469 227.961 475.251 224.326 472.38L224.78 471.962L226.092 473.909L230.313 480.166L232.329 483.139C232.687 483.649 232.949 484.22 233.104 484.823C233.195 485.155 233.178 485.508 233.056 485.83C232.934 486.152 232.713 486.426 232.424 486.614C231.864 486.898 231.219 486.966 230.612 486.805C230.051 486.71 229.55 486.543 229.025 486.423C227.988 486.125 226.998 485.814 226.068 485.456C224.327 484.801 222.643 484.002 221.035 483.068C218.702 481.725 216.544 480.101 214.607 478.231C213.927 477.563 213.414 477.037 213.104 476.643C212.924 476.458 212.764 476.253 212.627 476.034C212.836 476.184 213.028 476.356 213.199 476.548C213.545 476.906 214.07 477.419 214.774 478.052C216.752 479.834 218.925 481.389 221.25 482.686C222.851 483.583 224.522 484.349 226.247 484.978C227.177 485.325 228.155 485.623 229.169 485.91C230.182 486.196 231.315 486.59 232.126 486.137C232.315 486.01 232.457 485.824 232.531 485.608C232.604 485.392 232.604 485.159 232.532 484.943C232.391 484.417 232.152 483.922 231.828 483.486C231.172 482.518 230.504 481.527 229.813 480.524C228.445 478.494 227.034 476.408 225.579 474.267L224.267 472.32L223.074 470.649L224.708 471.891C229.851 475.964 235.911 478.719 242.359 479.915C243.198 480.139 244.074 480.196 244.935 480.082C245.298 480.035 245.63 479.85 245.863 479.566C246.096 479.282 246.211 478.92 246.187 478.554C246.105 477.831 245.877 477.133 245.519 476.5C245.209 475.867 244.911 475.306 244.637 474.697L243.241 471.819L242.383 469.98C242.262 469.775 242.17 469.554 242.108 469.323Z" fill="#172A3F"/>
<g opacity="0.3">
<path opacity="0.3" d="M242.037 401.771C244.673 406.225 248.531 409.826 253.152 412.148C252.888 409.695 251.872 407.384 250.242 405.532C255.275 410.332 261.238 414.047 267.762 416.447C264.984 417.685 261.952 418.245 258.915 418.08C255.879 417.915 252.925 417.03 250.297 415.498C247.67 413.965 245.444 411.829 243.802 409.266C242.161 406.703 241.151 403.786 240.856 400.756" fill="#172A3F"/>
</g>
<g opacity="0.3">
<path opacity="0.3" d="M210.121 323.95C219.59 342.185 250.217 351.188 274.236 351.582C281.654 351.69 292.125 357.183 299.472 356.466C315.966 354.878 329.359 345.982 345.888 344.525C356.18 343.653 366.532 343.331 376.705 341.6C386.878 339.868 386.413 338.662 394.499 332.226C402.585 325.789 411.327 319.412 411.196 309.071C396.002 327.7 380.987 333.467 357.6 338.925C334.212 344.382 309.895 344.262 285.912 343.152C259.519 341.958 231.815 339.044 210.121 323.938" fill="#172A3F"/>
</g>
<path d="M291.601 184.093C291.708 184.093 291.803 185.442 292.161 187.58C292.634 190.361 293.393 193.087 294.427 195.712C295.485 198.332 296.808 200.836 298.375 203.187C299.088 204.123 299.753 205.096 300.366 206.101C300.366 206.101 300.092 205.898 299.675 205.444C299.081 204.811 298.527 204.141 298.017 203.438C296.32 201.127 294.922 198.612 293.855 195.951C292.785 193.269 292.071 190.459 291.732 187.592C291.62 186.732 291.556 185.867 291.541 185C291.517 184.696 291.537 184.391 291.601 184.093Z" fill="#F1463B"/>
<path d="M299.391 181.119C299.498 181.119 299.021 182.313 298.556 184.308C297.968 186.882 297.771 189.531 297.972 192.165C298.187 194.795 298.802 197.376 299.796 199.819C300.56 201.706 301.216 202.793 301.12 202.841C301.025 202.888 300.893 202.614 300.571 202.136C300.123 201.453 299.724 200.739 299.379 199.998C297.09 195.051 296.646 189.447 298.127 184.2C298.339 183.415 298.614 182.648 298.95 181.907C299.2 181.334 299.355 181.048 299.391 181.119Z" fill="#F1463B"/>
<path d="M153.428 379.584C153.57 379.412 153.729 379.256 153.905 379.118C154.227 378.832 154.692 378.378 155.348 377.924C157.18 376.466 159.118 375.145 161.144 373.972C167.875 370.153 175.201 367.496 182.814 366.114C190.404 364.731 198.094 363.964 205.807 363.822C208.765 363.75 211.15 363.726 212.796 363.726H214.704C214.926 363.707 215.15 363.707 215.372 363.726C215.154 363.781 214.929 363.809 214.704 363.81L212.808 363.905L205.819 364.204C198.143 364.449 190.495 365.247 182.933 366.592C175.384 367.973 168.102 370.544 161.359 374.211C159.334 375.351 157.379 376.611 155.503 377.984C154.179 379.047 153.464 379.62 153.428 379.584Z" fill="#F1463B"/>
<path d="M324.388 186.302C324.388 186.409 322.349 185.729 319.033 184.917C317.105 184.442 315.127 184.205 313.142 184.212C310.73 184.229 308.368 184.902 306.308 186.158C305.262 186.81 304.351 187.658 303.625 188.654C302.971 189.597 302.513 190.66 302.277 191.783C301.936 193.728 302.021 195.725 302.527 197.634C303.35 200.93 304.233 202.888 304.113 202.936C303.843 202.514 303.622 202.061 303.458 201.587C302.916 200.338 302.462 199.053 302.098 197.742C301.516 195.774 301.386 193.7 301.716 191.675C301.95 190.468 302.429 189.322 303.124 188.308C303.892 187.237 304.86 186.324 305.974 185.621C308.131 184.312 310.608 183.626 313.13 183.639C315.147 183.658 317.152 183.948 319.093 184.499C320.75 184.94 322.062 185.394 322.969 185.693C323.461 185.848 323.936 186.052 324.388 186.302Z" fill="#F1463B"/>
<path d="M503.314 485.551C502.026 476.977 497.828 468.535 490.66 463.651C483.492 458.767 473.176 458.194 466.355 463.555L438.042 501.887L498.317 502.138C501.68 499.021 503.993 490.089 503.314 485.551Z" fill="#F1463B"/>
<g opacity="0.3">
<path opacity="0.3" d="M463.231 501.339C468.324 499.213 472.08 494.64 474.394 489.624C476.708 484.609 477.721 479.116 478.735 473.683C479.57 469.181 480.357 464.321 478.401 460.165C477.934 460.14 477.469 460.237 477.051 460.446C476.633 460.655 476.276 460.97 476.016 461.359C475.493 462.151 475.109 463.028 474.883 463.95C470.22 478.686 463.028 491.416 451.281 501.387" fill="#172A3F"/>
</g>
<g opacity="0.3">
<path opacity="0.3" d="M284.195 201.91C290.158 219.118 290.91 237.734 290.266 255.873C289.944 264.925 289.264 274.072 286.437 282.681C283.611 291.291 278.423 299.399 270.719 304.176C263.444 308.678 254.452 309.86 245.96 308.737C237.469 307.615 229.407 304.355 221.762 300.51C213.032 296.115 204.624 290.861 197.85 283.792C191.076 276.723 185.519 266.847 184.397 257.139L196.968 258.512C196.968 258.512 206.64 257.485 221.679 242.917C238.113 227.011 241.106 225.064 253.414 216.777C262.959 210.457 273.313 205.456 284.195 201.91Z" fill="white"/>
</g>
<g opacity="0.3">
<path opacity="0.3" d="M336.148 307.971C338.526 306.629 341.276 306.102 343.981 306.471C346.685 306.839 349.195 308.084 351.127 310.013C353.04 307.509 355.629 305.606 358.587 304.527C361.546 303.448 364.751 303.238 367.824 303.923C364.097 305.391 360.627 307.442 357.544 310.001C354.598 312.712 352.475 316.605 352.845 320.593C349.159 316.619 344.922 313.197 340.263 310.431C338.331 309.237 335.79 308.27 333.978 309.607" fill="#172A3F"/>
</g>
<path d="M377.219 442.503C370.296 447.479 365.193 454.59 362.692 462.747C360.191 470.904 360.43 479.657 363.373 487.665" fill="#F1463B"/>
<path d="M363.375 487.665C363.277 487.522 363.201 487.365 363.148 487.2C363.029 486.877 362.826 486.423 362.624 485.802C362.043 484.077 361.6 482.308 361.3 480.512C360.259 474.555 360.64 468.435 362.412 462.653C364.184 456.871 367.297 451.591 371.497 447.244C372.752 445.94 374.112 444.742 375.563 443.661C376.064 443.267 376.494 442.993 376.756 442.802C377.018 442.611 377.197 442.527 377.209 442.551C376.728 443.012 376.222 443.446 375.695 443.852C374.321 445.015 373.023 446.264 371.807 447.59C367.748 451.954 364.731 457.183 362.983 462.884C361.235 468.584 360.802 474.608 361.717 480.5C361.983 482.282 362.361 484.045 362.85 485.779C363.067 486.395 363.243 487.025 363.375 487.665Z" fill="#172A3F"/>
<path d="M400.941 401.162C405.818 397.413 412.115 393.472 417.637 396.111C419.167 396.951 420.478 398.138 421.466 399.577C422.454 401.017 423.091 402.668 423.326 404.399C423.755 407.864 423.537 411.378 422.682 414.764C418.677 434.515 409.976 453.01 397.315 468.679C392.723 474.363 386.188 480.119 379.056 478.554C372.401 477.085 368.621 469.467 369.014 462.648C369.408 455.83 372.843 449.632 376.027 443.542C383.588 429.213 390.935 413.498 400.905 401.115" fill="#F1463B"/>
<path d="M400.942 401.161C400.847 401.318 400.743 401.47 400.632 401.615L399.677 402.893C398.831 404.015 397.602 405.699 396.1 407.908C391.944 414.205 388.137 420.727 384.698 427.444L377.543 441.344C375.014 446.359 371.83 451.542 370.172 457.608C369.281 460.688 369.114 463.933 369.683 467.089C370.283 470.374 371.907 473.384 374.323 475.687C375.574 476.816 377.073 477.634 378.699 478.075C380.365 478.507 382.107 478.552 383.792 478.207C387.241 477.316 390.388 475.514 392.903 472.988C395.477 470.495 397.82 467.773 399.904 464.856C402.051 462.038 403.983 459.125 405.867 456.235C412.546 445.557 417.599 433.941 420.858 421.772C421.574 419.065 422.186 416.43 422.695 413.867C423.235 411.437 423.479 408.951 423.422 406.463C423.279 401.77 420.823 397.507 417.328 396.086C415.722 395.406 413.957 395.195 412.236 395.477C410.785 395.722 409.373 396.16 408.038 396.779C406.189 397.656 404.421 398.695 402.754 399.883L401.443 400.815C401.156 401.018 400.989 401.113 400.989 401.113L401.407 400.767C401.693 400.528 402.11 400.206 402.683 399.788C404.324 398.546 406.081 397.466 407.93 396.564C409.277 395.906 410.711 395.444 412.188 395.191C414.102 394.837 416.078 395.097 417.836 395.933C419.594 396.77 421.044 398.139 421.979 399.848C423.133 401.858 423.775 404.122 423.852 406.439C423.933 408.961 423.705 411.484 423.172 413.95C422.659 416.53 422.063 419.181 421.359 421.903C418.124 434.13 413.079 445.802 406.392 456.533C404.531 459.447 402.587 462.361 400.429 465.203C398.323 468.152 395.956 470.906 393.357 473.43C390.76 476.034 387.509 477.886 383.947 478.792C382.17 479.153 380.333 479.1 378.58 478.637C376.856 478.161 375.27 477.281 373.953 476.069C371.455 473.675 369.784 470.546 369.182 467.137C368.595 463.893 368.771 460.557 369.695 457.393C371.401 451.207 374.621 446.025 377.149 441.033C379.677 436.042 382.182 431.409 384.4 427.169C387.878 420.458 391.749 413.959 395.992 407.705C397.519 405.508 398.783 403.848 399.654 402.749L400.667 401.555C400.753 401.42 400.844 401.288 400.942 401.161Z" fill="#172A3F"/>
<g opacity="0.3">
<path opacity="0.3" d="M401.538 418.192V418.251C402.73 414.884 405.271 413.917 408.002 412.926C410.733 411.934 414.036 412.042 416.231 413.952C418.759 416.15 419.081 420.019 418.401 423.303C418.241 424.463 417.767 425.557 417.03 426.467C416.649 426.909 416.137 427.218 415.569 427.349C415 427.48 414.405 427.426 413.869 427.195C412.677 426.539 412.307 424.807 411.043 424.282C409.779 423.756 408.109 424.939 406.582 425.321C405.538 425.523 404.456 425.357 403.519 424.852C402.583 424.348 401.849 423.534 401.442 422.55C401.168 421.854 401.036 421.11 401.052 420.361C401.069 419.613 401.234 418.875 401.538 418.192Z" fill="#172A3F"/>
</g>
<g opacity="0.3">
<path opacity="0.3" d="M406.738 401.376C407.351 401.649 407.862 402.109 408.198 402.69C408.534 403.271 408.678 403.944 408.61 404.612C408.551 406.111 408.224 407.587 407.644 408.97C407.227 410.165 406.523 411.49 405.259 411.538C404.904 411.528 404.558 411.428 404.253 411.246C403.948 411.064 403.695 410.807 403.518 410.499C403.176 409.875 402.984 409.18 402.957 408.469C402.838 406.841 403.091 405.208 403.697 403.692C403.958 402.903 404.448 402.208 405.104 401.698C405.435 401.447 405.839 401.312 406.255 401.312C406.67 401.312 407.074 401.447 407.406 401.698" fill="#172A3F"/>
</g>
<g opacity="0.3">
<path opacity="0.3" d="M421.023 404.314C421.636 404.588 422.147 405.048 422.483 405.629C422.819 406.21 422.964 406.882 422.896 407.55C422.835 409.049 422.508 410.525 421.93 411.909C421.512 413.103 420.797 414.429 419.545 414.476C419.19 414.468 418.843 414.368 418.538 414.186C418.233 414.004 417.98 413.746 417.803 413.438C417.45 412.818 417.258 412.12 417.243 411.408C417.126 409.781 417.375 408.149 417.97 406.631C418.236 405.84 418.73 405.146 419.39 404.637C419.72 404.384 420.124 404.247 420.54 404.247C420.956 404.247 421.361 404.384 421.691 404.637" fill="#172A3F"/>
</g>
<g opacity="0.3">
<path opacity="0.3" d="M414.99 398.847C415.601 399.126 416.109 399.589 416.444 400.171C416.78 400.753 416.926 401.426 416.863 402.095C416.798 403.589 416.471 405.06 415.897 406.441C415.467 407.636 414.764 408.973 413.511 409.009C413.156 409 412.81 408.9 412.505 408.718C412.2 408.536 411.947 408.278 411.77 407.97C411.427 407.352 411.238 406.659 411.222 405.952C411.093 404.325 411.341 402.69 411.949 401.175C412.209 400.381 412.704 399.686 413.368 399.181C413.698 398.931 414.1 398.796 414.513 398.796C414.927 398.796 415.329 398.931 415.658 399.181" fill="#172A3F"/>
</g>
<g opacity="0.3">
<path opacity="0.3" d="M410.362 447.66C409.411 454.885 407.447 461.94 404.53 468.617C401.589 475.321 397.092 481.225 391.412 485.837C388.788 487.891 385.711 489.658 382.384 489.741C377.673 489.861 373.379 486.481 371.256 482.266C369.134 478.051 368.871 473.155 369.086 468.45C371.364 472.259 373.928 476.319 378.054 478.003C379.878 478.615 381.812 478.825 383.724 478.619C385.637 478.413 387.482 477.796 389.134 476.809C392.425 474.812 395.304 472.202 397.613 469.119C402.723 462.873 406.923 455.934 410.088 448.508" fill="#172A3F"/>
</g>
<path d="M143.253 402.118C137.386 400.314 130.135 398.822 125.817 403.24C124.686 404.569 123.881 406.145 123.467 407.841C123.053 409.537 123.041 411.306 123.432 413.008C124.238 416.408 125.67 419.627 127.654 422.501C138.315 439.597 152.926 453.875 170.254 464.129C176.539 467.831 184.673 470.936 190.803 466.959C196.539 463.257 197.398 454.791 194.655 448.546C191.912 442.3 186.545 437.655 181.405 433.081C169.312 422.334 156.933 410.178 143.242 402.034" fill="#F1463B"/>
<path d="M143.253 402.116C143.253 402.116 143.42 402.188 143.742 402.367L145.113 403.179C146.306 403.907 148.083 405.018 150.289 406.534C156.45 410.908 162.348 415.641 167.952 420.709L179.604 431.146C183.718 434.931 188.548 438.657 192.305 443.851C194.281 446.489 195.616 449.551 196.205 452.795C196.817 456.208 196.337 459.727 194.834 462.85C194.017 464.441 192.841 465.819 191.399 466.874C189.916 467.928 188.21 468.623 186.414 468.904C182.746 469.317 179.036 468.722 175.68 467.185C172.352 465.731 169.159 463.985 166.139 461.966C163.134 460.056 160.284 458.002 157.529 455.936C152.301 451.89 147.396 447.442 142.859 442.633C138.732 438.278 134.922 433.633 131.458 428.733C129.848 426.429 128.357 424.148 126.986 421.915C125.619 419.793 124.518 417.511 123.706 415.12C122.968 412.923 122.78 410.577 123.157 408.29C123.436 406.362 124.314 404.571 125.667 403.171C127.02 401.771 128.779 400.834 130.695 400.492C132.169 400.219 133.673 400.146 135.167 400.277C137.216 400.483 139.24 400.883 141.214 401.471C141.893 401.662 142.406 401.818 142.74 401.937L143.253 402.128L142.728 401.997L141.178 401.591C139.2 401.064 137.181 400.709 135.143 400.528C133.675 400.42 132.199 400.508 130.754 400.791C129.04 401.138 127.46 401.966 126.199 403.179C123.42 405.746 122.621 410.595 124.123 415.037C124.94 417.386 126.037 419.627 127.391 421.712C128.775 423.933 130.269 426.19 131.875 428.483C139.19 438.734 147.989 447.838 157.982 455.494C160.725 457.56 163.563 459.602 166.557 461.465C169.531 463.465 172.681 465.192 175.966 466.623C179.201 468.114 182.778 468.7 186.318 468.319C188.036 468.057 189.669 467.399 191.089 466.396C192.457 465.403 193.569 464.097 194.333 462.587C195.787 459.585 196.254 456.199 195.668 452.915C195.103 449.757 193.809 446.776 191.888 444.209C188.215 439.099 183.42 435.361 179.306 431.552L167.714 421.055C162.143 415.958 156.294 411.174 150.194 406.725C148.023 405.173 146.282 404.039 145.102 403.274L143.754 402.415L143.253 402.116Z" fill="#172A3F"/>
<g opacity="0.3">
<path opacity="0.3" d="M148.668 418.262C146.366 415.528 143.659 415.504 140.749 415.54C137.839 415.575 134.786 416.841 133.402 419.385C131.804 422.346 132.854 426.072 134.595 428.938C135.142 429.97 135.969 430.827 136.98 431.41C137.489 431.695 138.075 431.808 138.653 431.733C139.231 431.658 139.77 431.398 140.188 430.992C141.083 429.953 140.832 428.221 141.81 427.266C142.788 426.311 144.804 426.848 146.354 426.681C147.403 426.503 148.358 425.969 149.06 425.169C149.761 424.368 150.166 423.351 150.206 422.286C150.238 420.795 149.686 419.351 148.668 418.262Z" fill="#172A3F"/>
</g>
<g opacity="0.3">
<path opacity="0.3" d="M137.899 404.338C137.421 404.812 137.104 405.424 136.992 406.089C136.881 406.753 136.981 407.435 137.279 408.04C137.847 409.417 138.654 410.682 139.664 411.777C140.463 412.721 141.608 413.748 142.777 413.354C143.106 413.22 143.395 413.004 143.617 412.726C143.838 412.447 143.984 412.117 144.041 411.765C144.148 411.064 144.087 410.348 143.862 409.676C143.395 408.105 142.579 406.66 141.477 405.448C140.956 404.795 140.248 404.316 139.449 404.075C139.05 403.965 138.625 403.988 138.24 404.141C137.855 404.294 137.53 404.569 137.314 404.923" fill="#172A3F"/>
</g>
<g opacity="0.3">
<path opacity="0.3" d="M125.554 412.111C125.077 412.584 124.76 413.194 124.649 413.856C124.538 414.518 124.637 415.199 124.933 415.801C125.501 417.179 126.309 418.444 127.319 419.539C128.13 420.482 129.263 421.509 130.443 421.115C130.772 420.98 131.06 420.763 131.281 420.485C131.502 420.207 131.649 419.878 131.707 419.527C131.811 418.825 131.746 418.109 131.517 417.437C131.054 415.864 130.238 414.419 129.131 413.21C128.61 412.557 127.903 412.078 127.104 411.837C126.704 411.727 126.28 411.75 125.895 411.903C125.51 412.056 125.185 412.33 124.969 412.685" fill="#172A3F"/>
</g>
<g opacity="0.3">
<path opacity="0.3" d="M129.301 404.877C128.824 405.349 128.507 405.96 128.396 406.622C128.285 407.284 128.384 407.965 128.68 408.567C129.248 409.945 130.056 411.21 131.066 412.305C131.877 413.248 133.01 414.275 134.19 413.881C134.519 413.747 134.808 413.53 135.029 413.252C135.251 412.974 135.397 412.644 135.455 412.293C135.558 411.591 135.493 410.874 135.264 410.203C134.801 408.63 133.985 407.184 132.878 405.976C132.357 405.323 131.65 404.844 130.851 404.602C130.452 404.493 130.027 404.516 129.642 404.669C129.257 404.822 128.932 405.096 128.716 405.45" fill="#172A3F"/>
</g>
<g opacity="0.3">
<path opacity="0.3" d="M150.766 448.963C154.173 455.383 158.465 461.292 163.515 466.517C168.591 471.775 174.852 475.739 181.774 478.076C184.946 479.091 188.44 479.664 191.589 478.577C196.049 477.037 198.876 472.368 199.388 467.675C199.901 462.982 198.47 458.289 196.586 453.966C195.787 458.337 194.809 463.042 191.517 466.027C190.036 467.242 188.309 468.12 186.456 468.603C184.604 469.085 182.668 469.16 180.784 468.821C177.001 468.11 173.39 466.679 170.146 464.606C163.18 460.543 156.821 455.518 151.255 449.679" fill="#172A3F"/>
</g>
<g opacity="0.3">
<path opacity="0.3" d="M146.33 442.48C145.984 442.957 145.639 443.447 145.305 443.937C146.778 441.558 148.717 439.503 151.005 437.895C153.294 436.288 155.884 435.162 158.619 434.585C161.354 434.008 164.178 433.993 166.919 434.539C169.661 435.086 172.263 436.183 174.569 437.765C176.875 439.347 178.837 441.38 180.336 443.743C181.835 446.105 182.84 448.747 183.291 451.509C183.741 454.271 183.628 457.096 182.957 459.814C182.287 462.531 181.073 465.084 179.39 467.318C165.982 461.829 153.844 453.639 143.73 443.256" fill="white"/>
</g>
<path d="M483.028 430.693C483.038 430.961 483.018 431.23 482.968 431.493C482.885 432.091 482.778 432.843 482.658 433.786C482.384 435.78 481.919 438.646 481.263 442.145C479.64 451.384 477.198 460.46 473.964 469.264C472.106 474.095 469.86 478.767 467.25 483.235C466.642 484.262 465.986 485.218 465.389 486.173L464.483 487.57L463.517 488.872L461.68 491.32C461.048 492.072 460.416 492.776 459.82 493.445C459.224 494.114 458.687 494.795 458.091 495.344L456.445 496.932L455.002 498.305L453.69 499.344L451.865 500.777C451.664 500.957 451.439 501.11 451.197 501.231C451.378 501.029 451.573 500.842 451.782 500.67L453.535 499.165L454.799 498.09L456.194 496.681L457.804 495.081C458.389 494.52 458.902 493.827 459.486 493.159L461.299 491.021L463.1 488.561L464.042 487.271C464.34 486.818 464.626 486.352 464.924 485.874C465.521 484.919 466.117 483.964 466.761 482.949C469.301 478.489 471.497 473.843 473.332 469.049C476.564 460.289 479.073 451.279 480.834 442.109C481.537 438.599 482.026 435.745 482.42 433.75C482.587 432.819 482.73 432.067 482.837 431.481C482.881 431.214 482.945 430.951 483.028 430.693Z" fill="#172A3F"/>
<path d="M208.656 358.257C208.812 358.042 208.997 357.849 209.205 357.684L210.863 356.132C211.59 355.451 212.485 354.639 213.558 353.743C214.631 352.848 215.824 351.761 217.207 350.663C219.938 348.406 223.29 345.886 227.118 343.139C230.946 340.393 235.275 337.658 239.95 334.936C244.625 332.213 249.217 329.873 253.439 327.867C257.661 325.86 261.573 324.284 264.888 323.006C266.534 322.35 268.048 321.812 269.372 321.358C270.696 320.905 271.853 320.511 272.795 320.224L274.977 319.555C275.224 319.464 275.48 319.4 275.741 319.364C275.507 319.487 275.264 319.591 275.013 319.675L272.867 320.451C271.936 320.773 270.803 321.179 269.491 321.645C268.18 322.111 266.677 322.684 265.043 323.365C261.763 324.666 257.887 326.35 253.689 328.344C249.491 330.338 244.983 332.774 240.213 335.449C235.442 338.124 231.244 340.942 227.392 343.593C223.54 346.244 220.237 348.776 217.434 350.985C216.039 352.06 214.822 353.099 213.737 353.994C212.652 354.89 211.721 355.654 210.982 356.311L209.241 357.78C209.065 357.961 208.869 358.121 208.656 358.257Z" fill="#172A3F"/>
<path d="M175.083 338.315C175.083 338.315 175.155 338.256 175.298 338.148L175.966 337.694L178.589 336.023C179.722 335.294 181.118 334.422 182.787 333.479C184.457 332.536 186.365 331.389 188.464 330.291L191.803 328.512C192.996 327.903 194.189 327.317 195.489 326.696C198.017 325.419 200.808 324.225 203.718 322.923C209.597 320.439 216.157 317.955 223.193 315.758C230.229 313.561 237.063 311.973 243.324 310.731C246.461 310.17 249.442 309.596 252.257 309.226C253.652 309.035 255.012 308.808 256.312 308.665L260.081 308.247C262.466 307.96 264.648 307.841 266.556 307.698C268.465 307.554 270.134 307.471 271.47 307.435L274.571 307.351H275.37C275.464 307.333 275.562 307.333 275.656 307.351H275.382L274.571 307.423L271.482 307.626C270.134 307.698 268.488 307.793 266.592 307.984C264.696 308.175 262.513 308.307 260.128 308.629L256.372 309.083C255.072 309.238 253.724 309.477 252.329 309.68C249.526 310.062 246.556 310.659 243.432 311.232C237.206 312.51 230.396 314.158 223.372 316.296C216.347 318.433 209.812 320.929 203.944 323.377C201.034 324.654 198.244 325.837 195.715 327.09C194.439 327.711 193.187 328.285 192.018 328.87L188.667 330.613C186.52 331.688 184.636 332.787 182.966 333.706C181.297 334.625 179.865 335.461 178.709 336.154L176.037 337.73L175.333 338.124C175.178 338.291 175.083 338.327 175.083 338.315Z" fill="#172A3F"/>
<path d="M317.206 298.957C317.278 299.136 314.201 300.438 310.802 302.719C307.403 304.999 305.006 307.328 304.839 307.185C308.096 303.337 312.37 300.486 317.17 298.957H317.206Z" fill="#172A3F"/>
<path d="M337.388 305.441C337.388 305.56 335.623 304.76 332.701 304.02C328.894 303.024 324.95 302.661 321.025 302.945C317.099 303.109 313.256 304.132 309.767 305.942C308.378 306.78 307.183 307.903 306.261 309.238C306.382 308.804 306.589 308.398 306.869 308.044C307.593 307.053 308.5 306.21 309.54 305.56C312.14 303.853 316.326 302.671 320.978 302.312C324.969 302.023 328.98 302.452 332.82 303.578C333.978 303.902 335.113 304.301 336.219 304.772C336.632 304.952 337.024 305.176 337.388 305.441Z" fill="#172A3F"/>
<path d="M298.197 315.398L299.592 318.742C300.005 319.607 300.286 320.529 300.427 321.477C300.494 321.953 300.459 322.438 300.323 322.899C300.187 323.361 299.954 323.788 299.64 324.151C299.103 324.606 298.432 324.871 297.73 324.908C297.028 324.945 296.333 324.75 295.752 324.354C294.623 323.517 293.787 322.342 293.367 320.999C292.866 319.685 292.532 318.3 291.924 317.034C292.697 316.328 293.281 315.439 293.62 314.447C293.96 313.456 294.045 312.395 293.868 311.362C293.868 311.362 295.072 315.184 298.197 315.398Z" fill="#F3F4F5"/>
<path d="M278.722 303.221C279.778 301.091 281.267 299.204 283.092 297.683C284.918 296.161 287.04 295.038 289.324 294.384C296.933 292.378 304.828 300.355 304.828 300.355C304.828 300.355 295.633 297.644 295.764 302.218C295.895 306.791 298.603 306.684 295.549 309.693C292.496 312.702 287.261 309.538 286.009 305.991L283.552 302.528L278.722 303.221Z" fill="#172A3F"/>
<path d="M310.231 307.696C310.231 307.696 310.231 307.852 310.291 308.126C310.331 308.543 310.331 308.963 310.291 309.38C310.072 310.91 309.455 312.356 308.502 313.571C307.806 314.494 306.93 315.266 305.928 315.841C304.925 316.416 303.817 316.781 302.67 316.915C301.254 317.023 299.832 316.795 298.52 316.249C297.208 315.704 296.044 314.856 295.121 313.774C294.207 312.724 293.564 311.465 293.248 310.108L293.833 309.941C294.191 311.065 294.289 312.256 294.117 313.424C293.946 314.591 293.51 315.703 292.843 316.676C291.941 317.941 290.664 318.891 289.194 319.39C287.724 319.889 286.134 319.913 284.65 319.459C284.337 319.363 284.033 319.24 283.743 319.088C283.552 318.981 283.457 318.921 283.457 318.897C283.457 318.873 283.898 319.064 284.709 319.256C285.855 319.517 287.046 319.517 288.192 319.256C289.91 318.868 291.415 317.839 292.402 316.378C293.004 315.468 293.393 314.434 293.542 313.353C293.691 312.272 293.594 311.171 293.26 310.132L293.845 309.977C294.149 311.232 294.75 312.395 295.598 313.368C296.457 314.377 297.539 315.172 298.758 315.69C299.978 316.209 301.3 316.436 302.622 316.354C303.702 316.236 304.749 315.905 305.7 315.381C306.652 314.856 307.491 314.148 308.168 313.297C309.115 312.152 309.762 310.79 310.052 309.332C310.207 308.329 310.172 307.696 310.231 307.696Z" fill="#172A3F"/>
<path d="M295.49 295.505C294.701 295.623 293.902 295.659 293.105 295.612C291.176 295.592 289.253 295.841 287.392 296.353C285.555 296.89 283.887 297.893 282.55 299.266C281.561 300.353 281.203 301.225 281.107 301.189C281.264 300.361 281.653 299.595 282.228 298.98C283.529 297.428 285.266 296.305 287.214 295.756C289.133 295.223 291.13 295.025 293.117 295.17C293.921 295.158 294.721 295.27 295.49 295.505Z" fill="white"/>
<path d="M297.779 325.18C296.629 323.244 295.761 321.153 295.203 318.971C294.458 316.847 294.024 314.627 293.915 312.379C294.094 312.379 294.726 315.269 295.799 318.791C296.873 322.314 297.946 325.108 297.779 325.18Z" fill="#172A3F"/>
<path d="M212.866 338.565C213.011 338.41 213.171 338.27 213.343 338.147L214.786 337.024C215.979 336.057 217.923 334.731 220.296 333.179C222.669 331.627 225.556 329.883 228.859 328.092C232.163 326.301 235.884 324.51 239.891 322.874C243.898 321.238 247.798 319.9 251.388 318.814C254.977 317.727 258.269 316.939 261.048 316.425C263.827 315.912 266.093 315.47 267.667 315.231L269.48 315.004C269.69 314.98 269.902 314.98 270.112 315.004C269.914 315.089 269.705 315.146 269.491 315.171L267.703 315.506C266.14 315.768 263.898 316.222 261.143 316.843C258.388 317.464 255.18 318.3 251.602 319.387C248.024 320.473 244.16 321.847 240.165 323.471C236.17 325.095 232.485 326.898 229.169 328.629C225.854 330.361 222.968 332.068 220.57 333.573C218.173 335.078 216.277 336.343 214.977 337.251L213.463 338.266C213.069 338.481 212.878 338.588 212.866 338.565Z" fill="#172A3F"/>
<path d="M272.624 285.961C276.068 271.494 267.149 256.971 252.701 253.522C238.253 250.073 223.748 259.004 220.303 273.471C216.859 287.937 225.779 302.46 240.227 305.909C254.674 309.358 269.179 300.427 272.624 285.961Z" fill="#F3F4F5"/>
<path d="M273.38 279.754C273.38 292.747 264.614 303.291 257.196 303.291C249.778 303.291 243.791 292.747 243.791 279.754C243.791 266.762 249.754 256.206 257.244 256.206C264.733 256.206 273.38 266.75 273.38 279.754Z" fill="#172A3F"/>
<path d="M263.158 271.049C265.701 271.049 267.762 268.985 267.762 266.439C267.762 263.894 265.701 261.83 263.158 261.83C260.616 261.83 258.555 263.894 258.555 266.439C258.555 268.985 260.616 271.049 263.158 271.049Z" fill="white"/>
<path d="M251.256 296.854C250.988 296.509 250.764 296.131 250.588 295.731C250.026 294.674 249.544 293.576 249.145 292.447C248.527 290.777 248.044 289.06 247.702 287.312C247.297 285.17 247.074 282.997 247.034 280.816C247.027 278.632 247.206 276.45 247.571 274.296C247.877 272.544 248.324 270.818 248.907 269.138C249.28 268.002 249.738 266.896 250.278 265.83C250.44 265.405 250.657 265.004 250.922 264.636C251.03 264.636 250.207 266.367 249.324 269.233C248.812 270.908 248.413 272.615 248.132 274.344C247.807 276.466 247.647 278.61 247.655 280.757C247.693 282.903 247.897 285.042 248.263 287.157C248.576 288.885 249.011 290.589 249.563 292.256C250.505 295.146 251.364 296.806 251.256 296.854Z" fill="white"/>
<path d="M239.652 245.459C239.58 246.331 238.578 247 237.267 247.621C235.955 248.241 234.178 248.815 232.425 249.615C230.671 250.415 229.133 251.107 227.821 251.704C226.509 252.302 225.436 252.66 224.661 252.194C223.885 251.728 223.79 250.427 224.661 248.695C225.837 246.51 227.752 244.817 230.063 243.919C232.276 242.942 234.747 242.716 237.1 243.274C238.781 243.728 239.723 244.623 239.652 245.459Z" fill="#172A3F"/>
<path d="M111.303 474.877L117.349 465.395C146.139 497.064 241.262 534.727 326.426 449.597C363.004 413.032 360.046 351.248 360.046 351.248L352.771 328.368H360.046C360.046 328.368 381.131 367.309 359.056 418.298C359.056 418.298 336.397 478.734 267.022 500.694C157.588 535.3 111.303 474.877 111.303 474.877Z" fill="#F1463B"/>
<g opacity="0.7">
<path opacity="0.7" d="M111.302 474.877L117.348 465.395C146.138 497.064 241.261 534.727 326.425 449.597C363.003 413.032 360.045 351.248 360.045 351.248L352.77 328.368H360.045C360.045 328.368 381.13 367.309 359.055 418.298C359.055 418.298 336.396 478.734 267.021 500.694C157.587 535.3 111.302 474.877 111.302 474.877Z" fill="white"/>
</g>
<path d="M109.769 486.43C129.977 466.232 129.977 433.485 109.769 413.287C89.5611 393.089 56.7976 393.089 36.5897 413.287C16.3818 433.485 16.3817 466.232 36.5897 486.43C56.7976 506.628 89.5611 506.628 109.769 486.43Z" fill="#F1463B"/>
<g opacity="0.7">
<path opacity="0.7" d="M109.769 486.428C129.977 466.23 129.977 433.483 109.769 413.285C89.5611 393.087 56.7976 393.087 36.5897 413.285C16.3818 433.483 16.3817 466.23 36.5897 486.428C56.7976 506.626 89.5611 506.626 109.769 486.428Z" fill="white"/>
</g>
<path d="M85.5067 399.538C85.479 399.87 85.419 400.197 85.3278 400.517C85.1847 401.21 84.97 402.141 84.7196 403.323C84.5765 403.932 84.4214 404.613 84.2545 405.342C84.0875 406.07 83.8251 406.858 83.5866 407.73C83.0738 409.426 82.5848 411.384 81.7977 413.474L80.6051 416.769C80.1996 417.964 79.6867 419.074 79.1978 420.292C78.2675 422.74 77.0272 425.26 75.775 427.923C72.9057 433.64 69.6295 439.143 65.9717 444.39C62.2387 449.586 58.1375 454.506 53.6997 459.113C51.5888 461.179 49.6329 463.174 47.6293 464.869C46.6514 465.729 45.7211 466.601 44.779 467.365L42.0479 469.55C40.3424 470.983 38.6609 472.094 37.2774 473.133C36.5499 473.646 35.894 474.136 35.2619 474.554L33.5088 475.664L31.1235 477.169C30.8516 477.363 30.5597 477.527 30.2529 477.658C30.5064 477.443 30.7733 477.243 31.052 477.061L33.4372 475.461L35.1546 474.267C35.7747 473.825 36.4187 473.324 37.1343 472.81C38.5416 471.747 40.1993 470.601 41.9048 469.156L44.6001 466.959C45.5422 466.183 46.4486 465.311 47.4146 464.439C49.3944 462.732 51.3383 460.726 53.3777 458.66C57.7496 454.066 61.7983 449.174 65.4947 444.02C69.1378 438.801 72.4134 433.334 75.2979 427.66C76.5621 425.009 77.8024 422.513 78.7565 420.089C79.2574 418.895 79.7822 417.701 80.1996 416.59C80.617 415.48 81.0106 414.357 81.3922 413.318C82.2032 411.241 82.7279 409.294 83.2646 407.622C83.515 406.775 83.7774 405.986 83.9802 405.234C84.1829 404.482 84.3379 403.837 84.493 403.228C84.8031 402.034 85.0416 401.138 85.2205 400.458C85.2899 400.144 85.3856 399.836 85.5067 399.538Z" fill="#F1463B"/>
<path d="M97.7305 404.815C97.6938 405.167 97.6259 405.515 97.5278 405.854C97.3608 406.583 97.1342 407.562 96.8361 408.804C96.681 409.449 96.5021 410.165 96.3113 410.941C96.1205 411.718 95.8462 412.541 95.5719 413.437C95.0114 415.216 94.4747 417.294 93.6041 419.479L92.328 422.954C91.8867 424.148 91.3023 425.343 90.7657 426.656C89.7281 429.224 88.3804 431.863 86.9851 434.645C83.8142 440.625 80.1857 446.35 76.1323 451.769C72.015 457.131 67.4979 462.172 62.62 466.851C60.3302 468.964 58.1596 470.994 55.9891 472.714C54.9157 473.586 53.9139 474.481 52.8763 475.234L49.9067 477.443C48.0582 478.888 46.2335 480.01 44.6831 481.025C43.1327 482.04 41.7612 482.912 40.6282 483.569L38.0045 485.097C37.7065 485.286 37.3957 485.454 37.0742 485.599C37.3485 485.374 37.6396 485.17 37.9448 484.99L40.497 483.366C41.6181 482.673 42.9777 481.825 44.4923 480.739C46.0069 479.652 47.8197 478.517 49.6563 477.061L52.5782 474.875C53.6038 474.111 54.5937 473.204 55.6551 472.332C57.8138 470.6 59.9485 468.57 62.2264 466.457C67.0506 461.762 71.5306 456.726 75.6314 451.387C79.6618 445.998 83.2817 440.314 86.4603 434.382C87.8676 431.612 89.2272 428.997 90.2886 426.441C90.8253 425.175 91.4812 423.981 91.8629 422.775C92.2445 421.569 92.7573 420.387 93.1747 419.336C94.0692 417.151 94.6297 415.109 95.226 413.365C95.5123 412.47 95.8104 411.646 96.0251 410.882C96.2398 410.117 96.4186 409.413 96.5856 408.768C96.9315 407.574 97.1938 406.571 97.3966 405.854C97.487 405.502 97.5986 405.155 97.7305 404.815Z" fill="#F1463B"/>
<path d="M109.025 414.119C108.965 414.468 108.877 414.811 108.762 415.146C108.548 415.875 108.25 416.842 107.88 418.084C107.689 418.717 107.462 419.421 107.236 420.185C107.009 420.95 106.663 421.774 106.341 422.669C105.673 424.425 104.994 426.466 103.956 428.64L102.489 432.067C101.976 433.261 101.356 434.455 100.748 435.721C99.5554 438.253 98.1004 440.856 96.5977 443.614C93.2049 449.509 89.4155 455.167 85.256 460.547C80.9959 465.872 76.3735 470.895 71.4216 475.581C69.0364 477.695 66.9136 479.725 64.7072 481.456C63.6219 482.328 62.6082 483.212 61.5587 483.988L58.5653 486.209C56.6809 487.654 54.8562 488.788 53.2939 489.791C52.5068 490.305 51.7793 490.806 51.0876 491.224L49.1913 492.347L46.5437 493.875C46.2411 494.063 45.9264 494.231 45.6016 494.377C45.879 494.151 46.1741 493.947 46.4841 493.768L49.0601 492.144L50.9325 490.95C51.6123 490.52 52.3279 490.006 53.1031 489.481C54.6416 488.394 56.4424 487.248 58.3029 485.779C59.257 485.063 60.2469 484.322 61.2725 483.534C62.2981 482.746 63.2999 481.862 64.3852 480.979C66.5558 479.247 68.7263 477.205 71.0281 475.104C75.9331 470.409 80.5227 465.394 84.767 460.093C88.9428 454.744 92.7596 449.123 96.1922 443.268C97.7068 440.521 99.1976 437.954 100.39 435.434C100.998 434.24 101.583 433.046 102.155 431.852C102.728 430.658 103.169 429.523 103.646 428.449C104.648 426.299 105.351 424.269 106.031 422.478C106.377 421.606 106.699 420.794 106.973 420.03C107.248 419.266 107.462 418.573 107.677 417.94C108.095 416.746 108.428 415.767 108.667 415.051C108.764 414.732 108.884 414.421 109.025 414.119Z" fill="#F1463B"/>
<path d="M122.585 463.234C122.168 463.129 121.767 462.968 121.392 462.756C120.677 462.422 119.639 461.896 118.375 461.239C115.847 459.926 112.412 458.015 108.655 455.77C104.899 453.525 101.631 451.364 99.2813 449.74C98.0887 448.928 97.1704 448.259 96.5264 447.77C96.1778 447.546 95.8575 447.282 95.5723 446.981C95.9625 447.131 96.3314 447.332 96.6695 447.579L99.5198 449.37C101.905 450.898 105.256 452.952 108.977 455.233C112.698 457.514 116.133 459.448 118.59 460.857L121.512 462.541C121.901 462.718 122.263 462.951 122.585 463.234Z" fill="#F1463B"/>
<path d="M124.769 452.033C123.566 451.356 122.411 450.598 121.31 449.764C119.199 448.319 116.265 446.361 112.962 444.331C109.658 442.301 106.546 440.605 104.303 439.363C103.063 438.749 101.867 438.046 100.726 437.262C101.093 437.346 101.446 437.483 101.775 437.668C102.431 437.954 103.361 438.396 104.506 438.969C106.796 440.163 109.933 441.776 113.284 443.806C116.635 445.836 119.533 447.866 121.632 449.406C122.658 450.182 123.481 450.815 124.017 451.281C124.554 451.747 124.804 452.009 124.769 452.033Z" fill="#F1463B"/>
<path d="M92.9108 496.61C92.7319 496.61 92.3264 487.129 92.0044 475.414C91.6824 463.7 91.5512 454.194 91.7182 454.194C91.8852 454.194 92.2906 463.676 92.6246 475.39C92.9585 487.105 93.0778 496.61 92.9108 496.61Z" fill="#F1463B"/>
<path d="M67.4272 502.545C67.1124 498.6 67.0087 494.642 67.1166 490.687C67.0085 486.732 67.1122 482.773 67.4272 478.829C67.7351 482.774 67.8388 486.732 67.7379 490.687C67.8385 494.642 67.7348 498.6 67.4272 502.545Z" fill="#F1463B"/>
<path d="M79.9486 501.148C79.7814 501.148 79.6858 493.386 79.7575 483.821C79.8292 474.256 80.0084 466.482 80.1876 466.482C80.3668 466.482 80.4385 474.244 80.3787 483.821C80.319 493.398 80.1159 501.148 79.9486 501.148Z" fill="#F1463B"/>
<path d="M53.521 459.102C53.4256 459.245 46.6754 454.886 38.4583 449.358C30.2412 443.829 23.6341 439.231 23.7295 439.052C23.8249 438.873 30.5751 443.267 38.8042 448.796C47.0332 454.325 53.6164 458.958 53.521 459.102Z" fill="#F1463B"/>
<path d="M44.516 466.518C44.1582 466.463 43.8118 466.35 43.4904 466.183C42.8583 465.933 41.94 465.527 40.8309 464.989C37.9648 463.587 35.1778 462.029 32.4826 460.32C29.3102 458.314 26.5195 456.32 24.5875 454.839C23.4915 454.09 22.4656 453.243 21.5225 452.308C22.6801 452.955 23.7918 453.681 24.8498 454.481C26.8654 455.878 29.6203 457.801 32.8165 459.795C36.0127 461.789 38.9227 463.437 41.0813 464.571C42.2634 465.152 43.4103 465.802 44.516 466.518Z" fill="#F1463B"/>
<path d="M75.5482 427.826C74.9646 428.108 74.3582 428.34 73.7354 428.519C73.0166 428.785 72.2841 429.012 71.541 429.2C70.6823 429.439 69.7044 429.713 68.6072 429.94C66.0339 430.496 63.4292 430.895 60.8075 431.134C57.5959 431.42 54.3705 431.52 51.1473 431.433C47.9249 431.317 44.7116 431.018 41.523 430.537C38.9216 430.135 36.3454 429.585 33.8067 428.889C32.7215 428.615 31.7554 428.304 30.9087 428.029C30.0619 427.755 29.3225 427.504 28.7501 427.265C28.1288 427.063 27.5263 426.807 26.9492 426.501C27.5869 426.629 28.2132 426.808 28.8216 427.038C29.4179 427.241 30.1454 427.468 31.0041 427.695C31.8628 427.922 32.8288 428.221 33.9141 428.471C36.0846 429.033 38.6845 429.51 41.6064 429.976C44.7705 430.416 47.955 430.695 51.1473 430.812C54.3298 430.894 57.5144 430.81 60.6882 430.561C63.3015 430.348 65.9012 429.994 68.476 429.498C69.5851 429.307 70.5631 429.056 71.4218 428.853C72.2804 428.65 73.0318 428.459 73.6281 428.28C74.2517 428.066 74.8948 427.914 75.5482 427.826Z" fill="#F1463B"/>
<path d="M81.2611 414.429C80.6995 414.746 80.1132 415.018 79.5079 415.241C78.9355 415.503 78.2199 415.766 77.3851 416.065C76.5503 416.363 75.5962 416.709 74.5348 417.02C72.0311 417.789 69.4869 418.419 66.914 418.907C63.7586 419.484 60.5733 419.883 57.3731 420.101C54.1717 420.291 50.9619 420.291 47.7606 420.101C45.1487 419.933 42.5509 419.589 39.9847 419.074C38.8756 418.883 37.8977 418.62 37.039 418.393C36.3044 418.213 35.5799 417.994 34.8684 417.736C34.2466 417.555 33.6404 417.323 33.0557 417.044C33.6973 417.138 34.3284 417.294 34.94 417.51C35.5244 417.689 36.2638 417.868 37.1225 418.047C37.9812 418.226 38.9591 418.477 40.0563 418.644C42.6173 419.087 45.2016 419.382 47.7964 419.528C50.9759 419.672 54.1608 419.644 57.3373 419.444C60.5117 419.205 63.6721 418.806 66.8066 418.25C69.6808 417.689 72.2688 417.127 74.3916 416.506C75.465 416.22 76.4191 415.909 77.2658 415.635C78.1126 415.36 78.8282 415.145 79.4125 414.918C80.0122 414.698 80.6311 414.534 81.2611 414.429Z" fill="#F1463B"/>
<path d="M84.7908 402.631C84.2931 402.91 83.7648 403.13 83.2166 403.288C82.1909 403.682 80.6763 404.195 78.8039 404.768C73.9014 406.28 68.8894 407.41 63.8128 408.148C58.7321 408.891 53.5958 409.183 48.4638 409.019C46.496 408.936 44.886 408.816 43.8126 408.685C43.241 408.653 42.6738 408.565 42.1191 408.422C42.6904 408.371 43.2652 408.371 43.8365 408.422C44.9218 408.482 46.508 408.53 48.4758 408.554C53.5705 408.597 58.6613 408.258 63.7054 407.539C68.756 406.789 73.7548 405.724 78.6727 404.35C80.5571 403.825 82.0836 403.383 83.1331 403.061C83.6727 402.871 84.2272 402.727 84.7908 402.631Z" fill="#F1463B"/>
<path d="M105.685 453.561C103.637 456.26 101.427 458.832 99.0663 461.263C96.8573 463.835 94.4956 466.271 91.9941 468.559C94.0435 465.857 96.2539 463.281 98.6131 460.845C100.82 458.275 103.182 455.842 105.685 453.561Z" fill="#F1463B"/>
<path d="M115.608 459.436C115.479 459.795 115.298 460.133 115.071 460.439C114.689 461.072 114.093 461.944 113.318 463.007C109.248 468.525 104.047 473.11 98.0644 476.453C96.8718 477.086 95.9773 477.563 95.3095 477.862C94.9763 478.046 94.619 478.183 94.248 478.268C94.248 478.184 95.6315 477.432 97.8259 476.071C100.704 474.308 103.433 472.311 105.983 470.1C108.505 467.851 110.835 465.394 112.948 462.756C114.606 460.702 115.524 459.353 115.608 459.436Z" fill="#F1463B"/>
<path d="M118.625 464.739C118.405 467.087 117.695 469.363 116.543 471.419C115.391 473.476 113.821 475.268 111.935 476.681C113.433 474.928 114.796 473.063 116.013 471.104C117.039 469.05 117.912 466.922 118.625 464.739Z" fill="#F1463B"/>
<path d="M128.63 475.712C128.269 477.635 127.391 479.423 126.09 480.883C124.947 482.471 123.387 483.711 121.582 484.465C123.008 483.226 124.355 481.898 125.613 480.488C126.71 478.956 127.718 477.361 128.63 475.712Z" fill="#F1463B"/>
<path d="M144.804 485.623C144.86 487.686 144.322 489.721 143.254 491.486C142.359 493.346 140.936 494.899 139.163 495.952C140.497 494.471 141.694 492.872 142.741 491.176C143.59 489.389 144.28 487.531 144.804 485.623Z" fill="#F1463B"/>
<path d="M163.325 494.532C163.767 496.471 163.561 498.501 162.74 500.312C162.108 502.192 160.887 503.817 159.258 504.945C161.745 502.031 163.178 498.363 163.325 494.532Z" fill="#F1463B"/>
<path d="M180.427 509.805C180.248 509.745 180.964 507.417 181.131 504.503C181.298 501.589 180.88 499.189 181.059 499.153C182.2 502.656 181.974 506.462 180.427 509.805Z" fill="#F1463B"/>
<path d="M194.44 510.832C194.273 510.76 195.132 508.683 195.359 505.972C195.585 503.261 195.12 501.076 195.359 501.04C195.949 502.635 196.177 504.341 196.026 506.034C195.875 507.728 195.35 509.367 194.488 510.832H194.44Z" fill="#F1463B"/>
<path d="M214.044 510.701C213.865 510.701 214.152 508.659 213.83 506.211C213.508 503.763 212.744 501.888 212.911 501.816C213.817 503.085 214.35 504.583 214.45 506.139C214.748 507.667 214.608 509.249 214.044 510.701Z" fill="#F1463B"/>
<path d="M227.595 509.506C227.405 509.506 227.405 507.584 226.761 505.351C226.117 503.118 225.151 501.458 225.306 501.362C226.26 502.469 226.96 503.772 227.356 505.179C227.752 506.586 227.833 508.064 227.595 509.506Z" fill="#F1463B"/>
<path d="M243.491 506.007C243.3 506.007 243.396 504.132 242.692 501.994C241.988 499.857 240.855 498.412 241.01 498.269C242.067 499.226 242.853 500.445 243.289 501.804C243.724 503.163 243.794 504.612 243.491 506.007Z" fill="#F1463B"/>
<path d="M263.062 502.018C262.871 502.018 262.848 499.929 261.977 497.552C261.106 495.176 259.794 493.552 259.938 493.433C261.116 494.501 262.017 495.842 262.561 497.338C263.106 498.834 263.278 500.441 263.062 502.018Z" fill="#F1463B"/>
<path d="M279.57 495.57C279.391 495.57 278.735 493.457 277.328 491.092C275.92 488.728 274.358 487.104 274.489 486.973C277.219 489.082 279.037 492.159 279.57 495.57Z" fill="#F1463B"/>
<path d="M298.019 485.886C297.84 485.886 297.28 483.641 295.777 481.228C294.275 478.816 292.51 477.288 292.629 477.145C294.117 478.112 295.372 479.398 296.304 480.909C297.236 482.42 297.822 484.12 298.019 485.886Z" fill="#F1463B"/>
<path d="M316.039 472.953C315.253 471.56 314.373 470.224 313.403 468.953C312.288 467.81 311.092 466.748 309.825 465.776C311.446 466.231 312.875 467.204 313.892 468.547C315.061 469.747 315.813 471.292 316.039 472.953Z" fill="#F1463B"/>
<path d="M331.469 459.759C331.314 459.866 329.883 457.944 327.712 455.985C325.542 454.027 323.514 452.749 323.61 452.582C325.314 453.217 326.857 454.22 328.13 455.52C329.538 456.673 330.677 458.119 331.469 459.759Z" fill="#F1463B"/>
<path d="M345.294 442.552C345.139 442.647 343.947 440.713 341.848 438.969C339.749 437.226 337.662 436.342 337.733 436.163C339.394 436.59 340.937 437.387 342.247 438.496C343.556 439.604 344.598 440.995 345.294 442.564V442.552Z" fill="#F1463B"/>
<path d="M357.614 422.072C356.221 420.957 354.768 419.921 353.261 418.967C351.654 418.203 350.005 417.53 348.323 416.949C350.173 416.938 351.988 417.452 353.559 418.43C355.231 419.23 356.639 420.494 357.614 422.072Z" fill="#F1463B"/>
<path d="M365.102 399.946C361.881 398.075 358.179 397.202 354.464 397.437C356.303 396.903 358.248 396.853 360.112 397.293C361.975 397.732 363.694 398.646 365.102 399.946Z" fill="#F1463B"/>
<path d="M368.43 376.182C368.37 376.361 366.426 375.68 363.934 375.417C361.441 375.154 359.402 375.417 359.378 375.178C362.411 374.321 365.658 374.681 368.43 376.182Z" fill="#F1463B"/>
<path d="M367.202 352.382C366.079 352.525 364.946 352.573 363.815 352.525C362.696 352.67 361.567 352.726 360.439 352.693C362.576 351.749 364.988 351.638 367.202 352.382Z" fill="#F1463B"/>
<path d="M362.334 336.035C361.158 335.79 359.957 335.682 358.756 335.713C357.591 335.94 356.455 336.297 355.369 336.776C355.369 336.716 355.584 336.37 356.156 335.988C356.918 335.495 357.783 335.188 358.685 335.091C359.585 334.99 360.497 335.105 361.344 335.426C362.036 335.677 362.37 335.964 362.334 336.035Z" fill="#F1463B"/>
<g opacity="0.3">
<path opacity="0.3" d="M281.452 416.363C287.237 427.361 300.725 433.009 313.057 431.505C325.388 430 336.372 422.322 344.065 412.53C349.73 405.293 353.928 395.92 351.59 387.035C345.472 399.769 334.77 409.714 321.633 414.875C308.495 420.036 293.894 420.03 280.761 414.858" fill="#172A3F"/>
</g>
<path d="M353.631 321.728C350.86 317.452 349.844 312.27 350.795 307.262C351.746 302.254 354.59 297.807 358.735 294.848C362.027 292.46 365.998 291.182 369.111 288.602C371.015 286.931 372.565 284.895 373.671 282.615C374.777 280.334 375.416 277.855 375.551 275.324C375.781 270.245 374.657 265.196 372.295 260.696L375.611 259.06L375.897 259.418C378.098 262.312 379.631 265.659 380.386 269.218C381.14 272.777 381.098 276.459 380.26 279.999C379.423 283.539 377.813 286.85 375.544 289.692C373.276 292.534 370.407 294.837 367.143 296.436C364.66 297.577 362.326 299.017 360.19 300.723C356.052 304.305 357.745 308.377 357.745 308.377" fill="#F1463B"/>
<g opacity="0.7">
<path opacity="0.7" d="M353.631 321.728C350.86 317.452 349.844 312.27 350.795 307.262C351.746 302.254 354.59 297.807 358.735 294.848C362.027 292.46 365.998 291.182 369.111 288.602C371.015 286.931 372.565 284.895 373.671 282.615C374.777 280.334 375.416 277.855 375.551 275.324C375.781 270.245 374.657 265.196 372.295 260.696L375.611 259.06L375.897 259.418C378.098 262.312 379.631 265.659 380.386 269.218C381.14 272.777 381.098 276.459 380.26 279.999C379.423 283.539 377.813 286.85 375.544 289.692C373.276 292.534 370.407 294.837 367.143 296.436C364.66 297.577 362.326 299.017 360.19 300.723C356.052 304.305 357.745 308.377 357.745 308.377" fill="white"/>
</g>
<path d="M358.281 308.594C356.931 308.326 355.555 308.206 354.179 308.235C352.814 308.456 351.478 308.828 350.195 309.347C351.279 308.359 352.654 307.752 354.113 307.616C355.571 307.48 357.034 307.823 358.281 308.594Z" fill="#F1463B"/>
<path d="M361.406 299.482C361.239 299.541 360.714 298.502 359.736 297.523C358.759 296.544 357.733 295.995 357.793 295.828C357.852 295.66 359.092 295.983 360.178 297.081C361.263 298.18 361.561 299.434 361.406 299.482Z" fill="#F1463B"/>
<path d="M373.104 292.556C372.937 292.616 372.508 291.458 371.566 290.323C370.624 289.189 369.61 288.52 369.693 288.365C369.777 288.209 371.029 288.675 372.079 289.941C373.128 291.207 373.271 292.532 373.104 292.556Z" fill="#F1463B"/>
<path d="M380.941 277.701C380.029 277.638 379.123 277.498 378.234 277.283C377.321 277.262 376.411 277.162 375.515 276.984C376.408 276.648 377.371 276.537 378.317 276.662C379.264 276.787 380.165 277.144 380.941 277.701Z" fill="#F1463B"/>
<path d="M378.281 263.347C378.281 263.526 377.267 263.467 376.158 263.801C375.049 264.136 374.226 264.673 374.107 264.542C373.987 264.41 374.703 263.562 375.979 263.204C377.255 262.845 378.328 263.192 378.281 263.347Z" fill="#F1463B"/>
<path d="M267.894 351.749C272.115 349.003 277.709 349.91 282.503 351.498C287.297 353.086 292.104 355.284 297.124 354.806C302.599 354.293 307.286 350.638 310.899 346.507C315.364 341.398 318.686 335.393 320.643 328.893C322.623 322.278 323.636 314.504 329.325 310.587C335.014 306.67 342.909 308.641 347.799 313.274C352.688 317.907 355.05 324.594 356.6 331.186C360.178 346.375 360.238 362.58 355.324 377.399C350.41 392.218 340.309 405.497 326.594 412.925C312.879 420.352 295.586 421.415 281.632 414.465" fill="#F1463B"/>
<path d="M281.632 414.429C281.852 414.504 282.067 414.592 282.276 414.691L284.137 415.503C284.972 415.826 286.009 416.208 287.238 416.697C288.466 417.187 289.921 417.521 291.579 417.891C295.597 418.761 299.707 419.126 303.815 418.978C306.378 418.875 308.929 418.579 311.448 418.095C314.273 417.578 317.047 416.811 319.736 415.802C325.933 413.484 331.644 410.029 336.576 405.616C342.253 400.586 346.976 394.57 350.518 387.859C354.427 380.446 356.987 372.395 358.079 364.084C359.255 355.159 359.062 346.106 357.507 337.24C356.79 332.741 355.668 328.317 354.155 324.021C352.734 319.84 350.3 316.078 347.071 313.07C343.884 310.251 339.742 308.756 335.491 308.891C333.456 308.979 331.479 309.596 329.754 310.682C328.089 311.782 326.701 313.254 325.7 314.981C323.648 318.372 322.766 322.241 321.764 325.895C320.885 329.499 319.621 332.999 317.995 336.332C316.466 339.442 314.598 342.374 312.426 345.073C310.463 347.606 308.15 349.845 305.556 351.724C303.19 353.456 300.433 354.576 297.53 354.984C294.937 355.221 292.322 354.941 289.838 354.161C285.198 352.787 281.406 351.02 278.055 350.483C275.517 349.919 272.88 349.984 270.374 350.674C269.732 350.875 269.109 351.135 268.514 351.45C268.108 351.677 267.894 351.772 267.894 351.772L268.478 351.402C269.064 351.057 269.683 350.773 270.326 350.554C272.852 349.801 275.525 349.695 278.102 350.244C281.489 350.757 285.33 352.501 289.933 353.826C292.375 354.577 294.94 354.837 297.482 354.59C300.315 354.177 303.003 353.07 305.306 351.366C307.858 349.502 310.131 347.282 312.056 344.775C314.187 342.091 316.023 339.184 317.53 336.105C319.135 332.798 320.379 329.327 321.239 325.752C322.229 322.11 323.1 318.193 325.211 314.682C326.252 312.875 327.702 311.338 329.444 310.192C331.232 309.048 333.288 308.393 335.407 308.294C337.571 308.193 339.733 308.53 341.764 309.285C343.841 310.032 345.761 311.158 347.429 312.605C350.731 315.678 353.222 319.522 354.68 323.794C356.212 328.132 357.346 332.6 358.067 337.144C359.643 346.069 359.832 355.184 358.628 364.167C357.522 372.549 354.929 380.666 350.971 388.134C347.39 394.911 342.61 400.98 336.862 406.046C331.87 410.46 326.098 413.903 319.844 416.196C317.133 417.195 314.339 417.955 311.495 418.465C308.956 418.934 306.384 419.214 303.803 419.301C299.667 419.424 295.531 419.023 291.495 418.106C289.838 417.748 288.406 417.271 287.154 416.912C285.902 416.554 284.888 416.064 284.065 415.718L282.229 414.846C281.835 414.548 281.632 414.429 281.632 414.429Z" fill="#172A3F"/>
<path d="M332.962 324.595C332.351 324.089 331.862 323.453 331.531 322.732C330.63 321.027 330.179 319.12 330.219 317.191C330.242 315.266 330.747 313.378 331.686 311.698C332.031 310.979 332.542 310.353 333.177 309.871C333.26 309.943 332.688 310.635 332.08 311.901C331.29 313.559 330.867 315.368 330.84 317.204C330.813 319.04 331.183 320.861 331.925 322.541C332.509 323.819 333.058 324.535 332.962 324.595Z" fill="#172A3F"/>
<path d="M340.201 323.542C339.655 322.979 339.225 322.314 338.937 321.584C338.137 319.856 337.668 317.992 337.553 316.091C337.434 314.192 337.676 312.287 338.269 310.479C338.462 309.717 338.806 309.002 339.282 308.377C338.391 310.833 338.013 313.446 338.171 316.055C338.329 318.664 339.02 321.212 340.201 323.542Z" fill="#172A3F"/>
<path d="M345.997 325.608C345.244 323.797 344.933 321.832 345.091 319.876C345.039 317.914 345.447 315.967 346.283 314.192C346.462 314.252 345.782 316.736 345.711 319.888C345.639 323.041 346.176 325.608 345.997 325.608Z" fill="#172A3F"/>
<path d="M445.568 340.536C434.656 347.199 420.142 345.934 408.836 339.951C397.53 333.968 388.967 323.95 381.823 313.441C379.796 310.456 377.744 307.291 374.596 305.488C368.406 301.906 359.855 305.369 356.301 311.459C352.747 317.549 353.415 325.359 356.158 331.879C356.158 331.879 363.433 367.177 401.358 389.125" fill="#F1463B"/>
<path d="M401.358 389.161C401.243 389.122 401.134 389.065 401.036 388.994L400.106 388.444C399.271 387.931 398.09 387.191 396.528 386.259C395.777 385.758 394.87 385.28 393.976 384.611L391.054 382.474C390.016 381.674 388.824 380.921 387.703 379.93L384.125 376.861C378.222 371.568 372.973 365.586 368.49 359.045C365.783 355.108 363.391 350.963 361.334 346.65C359.024 341.957 357.201 337.039 355.896 331.974V332.033C354.081 327.877 353.323 323.336 353.689 318.814C353.921 316.453 354.592 314.157 355.669 312.044C357.071 309.378 359.222 307.182 361.857 305.726C364.491 304.271 367.493 303.619 370.493 303.852C372.24 304.06 373.917 304.664 375.395 305.619C376.809 306.585 378.064 307.765 379.116 309.118C380.177 310.432 381.107 311.817 382.014 313.166C382.92 314.515 383.862 315.841 384.793 317.131C386.677 319.722 388.609 322.194 390.601 324.498C394.337 328.906 398.594 332.844 403.278 336.225C407.369 339.167 411.908 341.43 416.719 342.924C423.665 345.188 431.113 345.42 438.186 343.593C438.776 343.447 439.358 343.268 439.927 343.055C440.464 342.864 440.977 342.709 441.43 342.518C442.336 342.112 443.123 341.801 443.72 341.491L445.091 340.763C445.244 340.674 445.403 340.598 445.568 340.536C445.429 340.643 445.282 340.739 445.127 340.822L443.779 341.598C443.183 341.933 442.408 342.255 441.501 342.685C441.036 342.888 440.535 343.055 439.999 343.258C439.427 343.485 438.841 343.676 438.246 343.831C431.119 345.773 423.584 345.603 416.552 343.342C411.691 341.863 407.103 339.6 402.968 336.643C398.236 333.254 393.935 329.3 390.159 324.869C388.144 322.552 386.2 320.092 384.304 317.489C383.362 316.187 382.431 314.85 381.513 313.5C380.595 312.151 379.676 310.778 378.639 309.5C377.623 308.203 376.417 307.068 375.061 306.133C373.662 305.231 372.075 304.663 370.422 304.473C366.993 304.16 363.568 305.106 360.785 307.136C358.916 308.502 357.368 310.26 356.247 312.288C355.127 314.315 354.461 316.563 354.298 318.874C353.944 323.292 354.681 327.729 356.444 331.795V331.854C357.731 336.885 359.529 341.771 361.811 346.435C363.872 350.731 366.264 354.859 368.967 358.782C373.411 365.308 378.616 371.281 384.471 376.575L388.048 379.667C389.158 380.671 390.338 381.423 391.352 382.235L394.25 384.408C395.133 385.089 396.027 385.602 396.778 386.08L400.273 388.349L401.167 388.946C401.237 389.012 401.301 389.084 401.358 389.161Z" fill="#172A3F"/>
<path d="M366.414 325.478C365.511 322.592 364.24 319.835 362.633 317.274C359.843 313.095 356.289 310.898 356.432 310.73C357.263 311.077 358.033 311.557 358.71 312.151C362.157 314.877 364.68 318.601 365.937 322.815C366.249 323.668 366.41 324.569 366.414 325.478Z" fill="#172A3F"/>
<path d="M373.786 320.69C373.317 317.66 372.45 314.705 371.21 311.901C369.779 309.191 368.003 306.678 365.927 304.426C366.711 304.901 367.415 305.498 368.014 306.193C369.539 307.803 370.807 309.64 371.771 311.638C372.73 313.634 373.381 315.764 373.703 317.955C373.887 318.855 373.915 319.78 373.786 320.69Z" fill="#172A3F"/>
<g opacity="0.3">
<path opacity="0.3" d="M349.135 390.774C352.104 386.224 339.868 385.149 334.478 385.782C326.583 386.691 319.306 390.504 314.061 396.481C308.816 402.459 305.976 410.175 306.093 418.131C306.093 418.131 329.659 420.651 349.135 390.774Z" fill="white"/>
</g>
<g opacity="0.3">
<path opacity="0.3" d="M369.231 370.461C375.431 379.956 384.625 387.102 395.349 390.761C396.474 391.25 397.711 391.423 398.927 391.262C399.527 391.174 400.076 390.878 400.481 390.427C400.886 389.976 401.121 389.397 401.145 388.791C388.396 381.846 377.469 371.981 369.255 360C368.629 363.675 369.154 367.454 370.758 370.819" fill="#172A3F"/>
</g>
<path d="M352.82 289.879C363.323 279.363 363.323 262.313 352.82 251.797C342.318 241.281 325.29 241.281 314.787 251.797C304.285 262.313 304.284 279.363 314.787 289.879C325.29 300.395 342.318 300.395 352.82 289.879Z" fill="#F3F4F5"/>
<path d="M360.667 271.969C360.667 284.973 353.845 295.852 346.248 295.852C338.651 295.852 332.485 285.308 332.485 272.316C332.485 259.323 338.651 248.779 346.248 248.779C353.845 248.779 360.667 258.977 360.667 271.969Z" fill="#172A3F"/>
<path d="M339.556 283.133C339.332 282.867 339.147 282.569 339.008 282.249C338.576 281.405 338.206 280.531 337.899 279.634C335.822 273.641 335.995 267.095 338.388 261.221C338.741 260.34 339.163 259.49 339.652 258.677C339.803 258.363 340 258.073 340.236 257.817C340.332 257.817 339.616 259.155 338.805 261.4C337.759 264.299 337.179 267.346 337.088 270.427C337.008 273.504 337.411 276.575 338.28 279.527C339.008 281.76 339.664 283.085 339.556 283.133Z" fill="white"/>
<path d="M349.682 261.831C352.224 261.831 354.285 259.767 354.285 257.222C354.285 254.676 352.224 252.612 349.682 252.612C347.139 252.612 345.078 254.676 345.078 257.222C345.078 259.767 347.139 261.831 349.682 261.831Z" fill="white"/>
<path d="M351.218 237.601C350.706 238.306 349.406 238.294 347.772 238.031C346.138 237.768 344.087 237.291 341.868 236.932C339.65 236.574 337.646 236.359 336.036 236.132C334.426 235.905 333.186 235.583 332.864 234.771C332.542 233.959 333.317 232.801 335.13 231.833C336.196 231.288 337.344 230.921 338.529 230.747C339.975 230.521 341.448 230.521 342.894 230.747C345.501 231.143 347.928 232.316 349.859 234.114C351.29 235.595 351.707 236.92 351.218 237.601Z" fill="#172A3F"/>
<path d="M339.031 304.462C336.955 300.191 336.498 295.311 337.745 290.728C338.992 286.145 341.858 282.171 345.81 279.544C349.763 276.918 354.533 275.817 359.235 276.446C363.937 277.076 368.251 279.393 371.375 282.967" fill="#F1463B"/>
<path d="M371.399 282.967C371.399 282.967 370.827 282.429 369.765 281.51C368.249 280.221 366.543 279.174 364.709 278.405C361.998 277.257 359.076 276.696 356.134 276.757C352.516 276.724 348.971 277.773 345.954 279.771C342.936 281.769 340.584 284.624 339.199 287.97C338.001 290.661 337.383 293.574 337.386 296.52C337.385 298.509 337.687 300.486 338.28 302.383C338.71 303.721 339.043 304.437 338.984 304.461C338.873 304.31 338.781 304.145 338.71 303.971C338.459 303.484 338.24 302.982 338.054 302.467C337.351 300.554 336.98 298.534 336.956 296.496C336.877 293.476 337.463 290.475 338.674 287.707C340.073 284.252 342.482 281.3 345.584 279.238C348.687 277.175 352.338 276.098 356.062 276.148C359.078 276.113 362.065 276.736 364.816 277.975C366.668 278.79 368.37 279.913 369.849 281.295C370.254 281.666 370.632 282.065 370.982 282.489C371.14 282.63 371.28 282.791 371.399 282.967Z" fill="#172A3F"/>
<path d="M285.627 202.494C285.437 202.594 285.232 202.663 285.019 202.697L283.242 203.175C282.467 203.366 281.525 203.641 280.44 203.975L278.71 204.488L276.778 205.145C269.768 207.598 263.043 210.801 256.719 214.698C250.386 218.609 244.33 222.95 238.591 227.69C236.384 229.505 234.607 230.986 233.403 232.037L231.984 233.231C231.662 233.506 231.483 233.637 231.459 233.613C231.589 233.442 231.737 233.286 231.9 233.148L233.236 231.87C234.429 230.771 236.134 229.243 238.305 227.368C243.989 222.531 250.038 218.139 256.397 214.232C262.756 210.28 269.562 207.097 276.671 204.751L278.615 204.118L280.38 203.652C281.477 203.342 282.419 203.103 283.206 202.948L285.019 202.59C285.217 202.533 285.422 202.501 285.627 202.494Z" fill="#172A3F"/>
</svg>
