<svg fill="none" height="285" viewBox="0 0 279 285" width="279" xmlns="http://www.w3.org/2000/svg"><g fill="#f3f4f5"><path d="m35.7699 188.976-9.7416.184-4.9298.079c-1.6477 0-3.2822 0-4.9561 0h-.2889v-.296-8.29-.302h.3282l9.8138.046c3.2822 0 6.5644.072 9.8466.105h.1773v.177c0 1.405-.0591 2.803-.0854 4.188zm0 0-.0985-4.181c0-1.379-.0722-2.751-.0853-4.11l.1838.178c-3.2822.039-6.5644.105-9.8466.111l-9.7809.033.3282-.328-.0329 8.291-.2953-.289c1.6214 0 3.2362 0 4.8576.033l4.8774.078z"/><path d="m24.8464 199.433-9.735.184-4.9364.079c-1.6477 0-3.28223 0-4.95615 0h-.28884v-.296l-.03939-8.291v-.328h.32823l9.78095.072c3.2822 0 6.5644.079 9.8138.112h.1772v.177c0 1.405-.0525 2.803-.0853 4.188zm0 0-.0919-4.181c0-1.379-.0722-2.751-.0853-4.11l.1772.178c-3.2822.039-6.5644.105-9.8138.111l-9.81375.04.32822-.329-.03283 8.291-.29539-.289c1.6214 0 3.23625 0 4.85765.033l4.8839.079z"/><path d="m24.8463 19.9894-9.7613.1904-4.9364.0722c-1.64766 0-3.2822 0-4.95612.0394h-.28884v-.2954l-.03938-8.2908v-.3282h.32822l9.80722.0328c3.2822 0 6.5644.0787 9.8138.1116h.1772v.1772c0 1.4048-.0525 2.803-.0853 4.1881zm0 0-.0919-4.1815c0-1.3785-.0722-2.7505-.0853-4.1093l.1772.1772c-3.2822 0-6.5644.1051-9.8138.1116l-9.81377.0394.32822-.3282-.03282 8.2908-.2954-.2888h4.85767l4.8839.0788z"/><path d="m272.942 19.989-9.742.1903-4.93.0722c-1.647 0-3.282 0-4.956.0394h-.289v-.2954-8.2908-.3282h.329l9.813.0394c3.283 0 6.565.0787 9.814.1115h.177v.1773c0 1.4048-.059 2.803-.085 4.1881zm0 0-.099-4.1816c0-1.3785-.072-2.7504-.085-4.1093l.184.1773c-3.282 0-6.565.105-9.814.1116l-9.84.0393.328-.3282-.033 8.2909-.295-.2889h4.858l4.877.0788z"/><path d="m261.992 30.4459-9.735.1838-4.937.0722c-1.647 0-3.282 0-4.956.0394h-.288v-.2954l-.04-8.2974v-.3282h.328l9.814.0394c3.282 0 6.565.0788 9.814.1116h.184v.1772c0 1.4048-.053 2.803-.086 4.1881zm0 0-.092-4.1815c-.033-1.3851-.072-2.7505-.085-4.1093l.177.1772c-3.282 0-6.564.1051-9.814.1116l-9.814.0394.329-.3282-.033 8.2908-.296-.2888h4.858l4.884.0788z"/><path d="m211.729 127.468-9.735.184-4.937.072c-1.648 0-3.282 0-4.949 0h-.296v-.296l-.033-8.297v-.328h.335l9.807.046c3.283 0 6.565.072 9.814.105h.197v.177c0 1.405-.053 2.803-.085 4.188zm0 0-.092-4.188c-.033-1.379-.073-2.744-.086-4.11l.178.184c-3.283 0-6.565.105-9.814.105l-9.807.04.321-.329-.033 8.298-.288-.296c1.614 0 3.229 0 4.851.04l4.884.072z"/><path d="m200.772 137.925-9.735.183-4.929.073c-1.648.032-3.283 0-4.957.032h-.295v-.295l-.033-8.297v-.329h.328l9.814.046c3.282 0 6.565.073 9.807.105h.184v.178c0 1.404-.059 2.803-.085 4.188zm0 0-.091-4.188c0-1.379-.073-2.744-.086-4.11l.177.184c-3.282.033-6.564.105-9.807.105l-9.814.039.329-.328-.04 8.298-.289-.296c1.615 0 3.237 0 4.858.04l4.877.072z"/><path d="m189.876 127.468-9.735.184-4.93.072c-1.654 0-3.282 0-4.956 0h-.296v-.295l-.039-8.258v-.329h.335l9.807.046c3.282 0 6.564.072 9.814.105h.183v.178c0 1.404-.059 2.802-.091 4.188zm0 0-.092-4.188c0-1.379-.072-2.744-.086-4.109l.178.183c-3.283 0-6.565.105-9.814.105l-9.807.04.328-.328-.007 8.297-.288-.295c1.614 0 3.229 0 4.857.039l4.878.072z"/><path d="m272.942 199.433-9.742.184-4.93.079c-1.647 0-3.282 0-4.956 0h-.289v-.296-8.291-.328h.329l9.781.072c3.282 0 6.564.079 9.813.112h.178v.177c0 1.405-.06 2.803-.086 4.188zm0 0-.099-4.181c0-1.379-.072-2.751-.085-4.11l.184.178c-3.282.039-6.565.105-9.814.111l-9.814.04.328-.329-.032 8.291-.296-.289c1.622 0 3.236 0 4.858.033l4.877.079z"/><path d="m106.199 44.6513-9.7414.1838-4.9298.0722c-1.6477 0-3.2822 0-4.9561.0394h-.2889v-.2954l-.0328-8.2909v-.3282h.3282l9.8138.0394c3.2822 0 6.564.0722 9.847.1116h.177v.1772c0 1.4048-.059 2.803-.085 4.1816zm0 0-.098-4.1815c0-1.3851-.072-2.7505-.086-4.1094l.184.1773c-3.282 0-6.5642.105-9.8464.105l-9.8006.046.3282-.3283-.0328 8.2909-.2954-.2889h4.8576l4.8774.0723z"/></g><path d="m3.42676 244.898 33.91164-.164 33.9117-.053 67.8169-.111 67.817.105 33.911.059 33.912.164-33.912.158-33.911.059-67.817.105-67.8169-.105-33.9117-.059z" fill="#0b1f35"/><path d="m92.4068 285c41.7282 0 75.5562-5.349 75.5562-11.947 0-6.599-33.828-11.948-75.5562-11.948-41.7285 0-75.5562 5.349-75.5562 11.948 0 6.598 33.8277 11.947 75.5562 11.947z" fill="#f3f4f5"/><path d="m252.985 244.898h-99.831c0-13.51-5.094-82.114 49.889-82.114 54.984 0 49.942 68.604 49.942 82.114z" fill="#858f9a"/><path d="m221.929 166.119c-1.641-.145-3.354-.223-5.126-.223-52.916 0-48.019 66.005-48.019 79.002h-15.636c0-13.509-5.088-82.114 49.889-82.114 6.453-.106 12.866 1.026 18.892 3.335z" fill="#b6bcc3"/><path d="m115.008 40.1155c6.125-3.3479 11.593-2.1794 15.308-2.2319 3.716-.0525 11.258-5.1925 15.591-4.4179 4.332.7746 25.575 11.002 28.936 15.597 3.361 4.5951 8.954 16.2338 9.479 18.5839.525 2.35-.854 15.6232-.21 18.6626.643 3.0393-1.444 7.9888-2.744 10.1157s-4.431 10.0891-5.206 11.5401c-.774 1.451-20.684 17.186-27.656 18.177-6.971.991-9.682-.985-10.444-1.418-.761-.433 1.537-5.389-2.08-6.564s-4.97-1.766-4.97-1.766-1.024-3.04-2.927-3.755c-1.904-.716-4.595 1.313-4.595 1.313s-.814.453-2.397-.276c-1.582-.729-3.8.25-3.8.25-.539-.984-1.423-1.732-2.482-2.101-1.844-.656-4.004 3.243-4.004 3.243s-12.0587-10.083-12.7217-12.558-.6565-5.7635-1.582-8.829c-.9256-3.0656-2.8096-4.5032-2.8424-9.6497s1.0634-16.0171 2.4157-18.5969c1.3522-2.5799 2.5338-6.2034 3.3806-7.339.8468-1.1357 9.2168-14.5205 15.5508-17.9799z" fill="#ff5c5c" fill-opacity=".95"/><path d="m115.008 40.1155c6.125-3.3479 11.593-2.1794 15.308-2.2319 3.716-.0525 11.258-5.1925 15.591-4.4179 4.332.7746 25.575 11.002 28.936 15.597 3.361 4.5951 8.954 16.2338 9.479 18.5839.525 2.35-.854 15.6232-.21 18.6626.643 3.0393-1.444 7.9888-2.744 10.1157s-4.431 10.0891-5.206 11.5401c-.774 1.451-20.684 17.186-27.656 18.177-6.971.991-9.682-.985-10.444-1.418-.761-.433 1.537-5.389-2.08-6.564s-4.97-1.766-4.97-1.766-1.024-3.04-2.927-3.755c-1.904-.716-4.595 1.313-4.595 1.313s-.814.453-2.397-.276c-1.582-.729-3.8.25-3.8.25-.539-.984-1.423-1.732-2.482-2.101-1.844-.656-4.004 3.243-4.004 3.243s-12.0587-10.083-12.7217-12.558-.6565-5.7635-1.582-8.829c-.9256-3.0656-2.8096-4.5032-2.8424-9.6497s1.0634-16.0171 2.4157-18.5969c1.3522-2.5799 2.5338-6.2034 3.3806-7.339.8468-1.1357 9.2168-14.5205 15.5508-17.9799z" fill="#fff" opacity=".09"/><path d="m156.134 106.586c1.011-1.234 3.591-1.437 3.893-.111s-.388 2.855-2.14 2.816c-1.753-.04-2.147-2.206-1.753-2.705z" fill="#ff5c5c" fill-opacity=".95"/><path d="m157.69 109.271c-1.569-.197-1.93-2.206-1.536-2.685.307-.331.682-.594 1.098-.769.417-.175.866-.26 1.317-.249-.453.165-1.542.723-1.706 1.399s-.217 1.831.827 2.304z" fill="#172a3f" opacity=".1"/><path d="m100.993 79.9943c1.733-3.3938 7.425-1.6018 7.93 1.4572.506 3.0591-2.54 5.2516-4.726 5.094-2.186-.1575-5.0877-2.8358-3.204-6.5512z" fill="#ff5c5c" fill-opacity=".95"/><path d="m164.084 84.2873c-2.724-.8534-9.571.8993-10.962 6.7876-.795 3.361 3.518 10.3721 7.936 10.7521 4.418.381 7.687-4.2074 8.671-7.9688.985-3.7614-1.47-8.2646-5.645-9.5709z" fill="#ff5c5c" fill-opacity=".95"/><path d="m162.115 101.821c-.352.036-.706.036-1.057 0-4.418-.381-8.731-7.3915-7.936-10.7524 1.385-5.908 8.238-7.6476 10.962-6.7876.507.1682.995.3882 1.457.6564-3.531.6564-8.382 4.1947-8.783 6.7154-.426 2.7045 1.451 9.5512 5.357 10.1682z" fill="#172a3f" opacity=".1"/><path d="m143.005 39.951c-.223 2.2516-2.626 3.7811-4.595 5.3106s-5.908.8731-8.659-.4332c-2.75-1.3063-4.365-6.6957-4.293-7.0961 1.812 0 3.44.1706 4.825.151 2.554 0 6.932-2.488 10.825-3.7549.807 1.5164 2.068 4.2472 1.897 5.8226z" fill="#ff5c5c" fill-opacity=".95"/><path d="m136.9 45.9642c-2.087.512-4.962-.1182-7.122-1.1357-2.764-1.3128-4.365-6.6956-4.293-7.0961 1.444 0 2.77.1116 3.938.1444.342 1.4048 1.267 4.8446 2.298 5.7636 1.333 1.1684 3.794 2.2713 5.179 2.3238z" fill="#172a3f" opacity=".1"/><path d="m165.213 59.0864c1.831-1.3129 5.166 0 5.389 2.5732.224 2.5733-3.131 4.0503-5.389 2.3041-.386-.2785-.701-.6449-.918-1.0689s-.33-.8935-.33-1.3697c0-.4763.113-.9458.33-1.3698s.532-.7904.918-1.0689z" fill="#ff5c5c" fill-opacity=".95"/><path d="m165.797 60.8326c-.381 1.4179-.21 2.4157 1.123 3.8533-.623-.0866-1.211-.3357-1.707-.7221-.386-.2786-.701-.6449-.918-1.0689s-.33-.8935-.33-1.3698.113-.9458.33-1.3697c.217-.424.532-.7904.918-1.069.488-.3047 1.045-.4802 1.619-.5101.574-.0298 1.147.087 1.663.3395-.131-.0591-2.317.4989-2.698 1.9168z" fill="#172a3f" opacity=".1"/><path d="m137.471 119.105c-.407-.441-.92-.771-1.49-.959-3.623-1.188-4.969-1.766-4.969-1.766s-1.024-3.039-2.928-3.754c-1.903-.716-4.595 1.312-4.595 1.312.44-3.735 2.035-5.251 4.727-6.669 2.691-1.418 7.424-.775 8.881 2.869 1.037 2.547.657 6.669.374 8.967z" fill="#ff5c5c" fill-opacity=".95"/><path d="m133.428 106.915c-1.099.054-2.175.341-3.155.842-.98.502-1.842 1.206-2.53 2.066-.466.822-.758 1.732-.86 2.671-1.221.221-2.372.727-3.361 1.477.44-3.735 2.035-5.251 4.727-6.669 1.616-.778 3.466-.916 5.179-.387z" fill="#172a3f" opacity=".1"/><path d="m118.231 56.4018c-4.759 2.6257-7.982 9.9319-7.805 12.3673s1.799 6.3346 3.899 8.1924c4.727 4.1815 14.048 2.2647 16.313 0 2.264-2.2648 4.811-9.223 4.004-12.6365-1.346-5.7045-11.547-10.595-16.411-7.9232z" fill="#ff5c5c" fill-opacity=".95"/><path d="m124.802 79.2198c-3.538.5317-7.765.1444-10.503-2.2582-2.1-1.8577-3.728-5.7504-3.899-8.1858s3.046-9.7612 7.805-12.3739c1.497-.8205 3.492-.9255 5.58-.512-2.455 1.8052-6.505 5.1399-7.392 8.0611-1.313 4.2603-.531 8.7044 1.313 11.2842 1.221 1.6477 4.727 3.1312 7.096 3.9846z" fill="#172a3f" opacity=".1"/><path d="m107.886 87.0507c-.897.6074-1.962.9195-3.046.8928-2.553-.1707-5.9403-3.2822-3.741-7.641.402-.7536 1.029-1.3629 1.794-1.743s1.629-.512 2.473-.3773c2.304.2035 4.641 1.7658 4.989 3.8205.139.9917-.021 2.0024-.461 2.9021s-1.139 1.6471-2.008 2.1459z" fill="#ff5c5c" fill-opacity=".95"/><path d="m107.886 87.0507c-.897.6074-1.962.9195-3.046.8928-2.553-.1707-5.9403-3.2822-3.741-7.641.402-.7536 1.029-1.3629 1.794-1.743s1.629-.512 2.473-.3773c-.992.7549-2.554 2.291-2.554 4.4441 0 3.1575 1.969 3.9386 3.184 4.3653.616.1691 1.264.1894 1.89.0591z" fill="#172a3f" opacity=".1"/><path d="m161.13 67.3182c-.23.1617-.51.2373-.79.2135-.28-.0239-.542-.1457-.741-.344s-.322-.4604-.347-.7403.049-.5596.21-.79c.1-.1853.254-.3353.442-.4294.188-.094.401-.1275.608-.0957.278.0083.545.1043.765.2741.219.1698.379.4048.456.6711.036.2435-.003.492-.111.7133-.107.2212-.279.4049-.492.5274z" fill="#ff5c5c" fill-opacity=".95"/><path d="m161.13 67.3182c-.23.1617-.51.2373-.79.2135-.28-.0239-.542-.1457-.741-.344s-.322-.4604-.347-.7403.049-.5596.21-.79c.1-.1853.254-.3353.442-.4294.188-.094.401-.1275.608-.0957-.185.1204-.341.2819-.455.4719s-.182.4036-.201.6243c-.021.2433.047.486.19.6836.144.1977.353.3371.591.393.161.0451.33.0497.493.0131z" fill="#172a3f" opacity=".1"/><path d="m108.11 93.2016c1.628-.7615 4.358.2757 4.017 1.7724s-1.772 2.7242-3.545 1.838c-1.772-.8862-1.135-3.2953-.472-3.6104z" fill="#ff5c5c" fill-opacity=".95"/><path d="m111.418 96.3264c-.347.3917-.819.6513-1.336.7351-.517.0837-1.047-.0137-1.5-.2756-1.766-.8862-1.142-3.2822-.473-3.6104.498-.2175 1.043-.3013 1.582-.2429-.456.4334-.751 1.0103-.833 1.6345.013 1.0175 1.326 2.0416 2.56 1.7593z" fill="#172a3f" opacity=".1"/><path d="m139.552 185.786c-1.621-.092-9.472-.919-10.844-2.18-3.742-3.439-5.908-5.671-6.23-7.792-.302-1.884 1.182-5.448 1.214-7.385.033-1.936 3.322-.879 4.451-.997 2.337-.237 2.856 1.116 4.083 1.555.854.309 3.762-1.253 5.816.217 2.055 1.471 1.641 3.972 1.641 3.972s4.786 2.192 4.871 4.805c.092 2.954-3.177 7.91-5.002 7.805z" fill="#f04539" fill-opacity=".95"/><path d="m139.552 185.786c-1.621-.092-9.472-.919-10.844-2.18-3.742-3.439-5.908-5.671-6.23-7.792-.302-1.884 1.182-5.448 1.214-7.385.033-1.936 3.322-.879 4.451-.997 2.337-.237 2.856 1.116 4.083 1.555.854.309 3.762-1.253 5.816.217 2.055 1.471 1.641 3.972 1.641 3.972s4.786 2.192 4.871 4.805c.092 2.954-3.177 7.91-5.002 7.805z" fill="#fff" opacity=".3"/><path d="m47.3749 247.379c-2.3829 2.784-12.1179 4.701-17.8355.217-5.7176-4.483-9.1114-19.385-8.9604-24.406.151-5.022 14.829-66.472 19.0039-81.11 4.175-14.639-2.6257-21.919-7.4112-25.378-4.7854-3.46-14.9077.308-16.9558 2.494s-2.9737 7.983-2.9737 7.983 1.6936-5.252 4.7854-6.991c3.0919-1.74 9.886-2.974 13.4439-.965 3.5579 2.008 8.7701 10.956 5.8489 18.774-2.9211 7.818-20.6647 78.74-21.1045 85.37-.5055 7.962 3.978 21.991 10.7721 28.05 6.7942 6.058 18.4591 5.487 19.6932 5.907 1.2341.421 1.418 2.219 1.418 2.219z" fill="#f04539" fill-opacity=".95"/><path d="m47.3749 247.379c-2.3829 2.784-12.1179 4.701-17.8355.217-5.7176-4.483-9.1114-19.385-8.9604-24.406.151-5.022 14.829-66.472 19.0039-81.11 4.175-14.639-2.6257-21.919-7.4112-25.378-4.7854-3.46-14.9077.308-16.9558 2.494s-2.9737 7.983-2.9737 7.983 1.6936-5.252 4.7854-6.991c3.0919-1.74 9.886-2.974 13.4439-.965 3.5579 2.008 8.7701 10.956 5.8489 18.774-2.9211 7.818-20.6647 78.74-21.1045 85.37-.5055 7.962 3.978 21.991 10.7721 28.05 6.7942 6.058 18.4591 5.487 19.6932 5.907 1.2341.421 1.418 2.219 1.418 2.219z" fill="#172a3f" opacity=".1"/><g fill="#172a3f" opacity=".2"><path d="m43.7649 250.235c-.3779 2.269-.4441 4.579-.197 6.866h-.2625c-.1606-1.111-.2265-2.233-.197-3.354.0303-1.19.1665-2.374.407-3.539.0525-.243.105-.485.1641-.728l.2429-.079c-.0394.262-.1116.532-.1575.834z" opacity=".2"/><path d="m35.2439 250.011-.0788.453c-.1941 1.16-.3191 2.331-.3742 3.506 0-.591-.0459-1.182 0-1.773.046-.591.0657-1.181.151-1.772l.0591-.46z" opacity=".2"/><path d="m36.5645 256.221v.368c0-.125-.0394-.25-.0526-.374-.0722-.46-.1378-.919-.1772-1.386 0-.59-.0788-1.181-.0591-1.778.0037-.959.0827-1.916.2363-2.863h.3217c-.1654.942-.2685 1.894-.3085 2.849-.0503 1.062-.0371 2.125.0394 3.184z" opacity=".2"/><path d="m39.1174 254.882v1.792l-.302-.046c0-.59 0-1.175 0-1.759.0547-1.184.2531-2.356.5908-3.492-.1941 1.158-.2907 2.331-.2888 3.505z" opacity=".2"/><path d="m32.5271 249.276c-.1182.552-.2232 1.11-.2954 1.668-.1749 1.16-.2649 2.331-.2691 3.505v.466l-.2298-.085c0-.125 0-.256 0-.381-.0395-1.187.0264-2.376.197-3.551.084-.584.1979-1.162.3413-1.733z" opacity=".2"/><path d="m25.877 242.902c-.0831.171-.1619.341-.2363.512-.8303 1.827-1.4407 3.747-1.8183 5.718l-.0919-.112c0-.217.0525-.433.0853-.656.105-.578.1969-1.169.3545-1.74.2937-1.151.6846-2.276 1.1684-3.361.1116-.243.2298-.486.348-.722z" opacity=".2"/><path d="m26.8155 244.504c-.2035.505-.3807 1.017-.5383 1.536-.3434 1.114-.6023 2.253-.7746 3.407-.0787.433-.1444.86-.1903 1.313-.0603-.059-.1172-.12-.1707-.184.0174-.385.0546-.768.1116-1.149.1544-1.18.4113-2.344.768-3.479.1904-.591.4005-1.175.6565-1.746.0197.092.0853.197.1378.302z" opacity=".2"/><path d="m28.5681 248.121c-.3485 1.125-.6011 2.278-.7549 3.446-.0525.387-.0984.775-.1312 1.162l-.2758-.171c.0394-.335.092-.656.1576-1.011.1967-1.178.5338-2.328 1.0043-3.426z" opacity=".2"/><path d="m24.6687 240.434c-.4255.576-.82 1.174-1.1816 1.792-.6038 1.005-1.1496 2.044-1.6346 3.111.197-.551.3873-1.116.6565-1.66.2691-.545.4923-1.077.7877-1.589.3721-.686.7933-1.344 1.2604-1.969.0131.098.0591.21.1116.315z" opacity=".2"/><path d="m21.6363 231.073c-.2429.217-.4858.433-.7221.656-.8544.808-1.6652 1.66-2.4288 2.554.3479-.473.6564-.965 1.0634-1.418s.768-.906 1.1947-1.313c.2626-.276.5383-.538.8206-.781 0 .125.0525.197.0722.302z" opacity=".2"/><path d="m22.0768 232.865c-.5844.557-1.1347 1.149-1.6476 1.772-.7576.9-1.4633 1.843-2.1138 2.823.2889-.519.5646-1.044.8862-1.536.3217-.492.6565-.991 1.0306-1.451.5342-.699 1.1201-1.357 1.7527-1.969.0328.125.0591.243.0919.361z" opacity=".2"/><path d="m22.9488 235.852c-.558.563-1.084 1.157-1.5755 1.779-.7308.912-1.3892 1.88-1.9693 2.895-.1116.184-.2166.367-.3217.551l-.1575-.367c.0591-.119.1313-.237.1969-.355.5998-1.022 1.2873-1.991 2.0547-2.895.5341-.621 1.1134-1.203 1.733-1.739z" opacity=".2"/><path d="m20.8026 226.511c-1.1375.045-2.2698.177-3.3873.394-.7024.124-1.4047.275-2.094.466 0-.099 0-.197 0-.296.6564-.196 1.3654-.354 2.0612-.492 1.1258-.211 2.2682-.321 3.4135-.328-.0131.085-.0066.171.0066.256z" opacity=".2"/><path d="m21.4722 217.846c0 .105-.0459.21-.0656.315-.8331-.046-1.668-.046-2.5011 0-.9496.032-1.8965.119-2.8358.262-.0031-.024-.0031-.048 0-.072.3479-.085.6893-.164 1.0437-.223.5843-.085 1.1751-.184 1.7659-.223.8619-.079 1.7283-.099 2.5929-.059z" opacity=".2"/><path d="m21.1708 219.388-.059.309c-.3217 0-.6565 0-.965 0-1.1726.016-2.3422.121-3.4988.315-.3151.046-.6237.098-.9322.158 0-.073 0-.145.046-.217.2757-.072.5579-.138.8402-.19 1.1659-.233 2.3497-.365 3.5382-.394.3414 0 .6893.006 1.0306.019z" opacity=".2"/><path d="m18.8991 222.526c-1.1749.033-2.3451.163-3.4988.388l-.1444.032c0-.078 0-.17 0-.262h.0656c1.1819-.196 2.3831-.249 3.5776-.158z" opacity=".2"/><path d="m22.011 215.22c0 .079-.0329.151-.046.223-.2035 0-.4136-.046-.617-.059-1.1691-.085-2.3429-.085-3.512 0-.3873 0-.768.053-1.1553.099 0-.112.0525-.217.0722-.322.3544-.039.7089-.072 1.0634-.099 1.1864-.074 2.377-.043 3.5579.092z" opacity=".2"/><path d="m23.79 207.015c0 .105-.0459.216-.0722.321-1.1044-.247-2.2256-.411-3.3544-.492-.5711-.053-1.1487-.079-1.7198-.079l.0393-.164c.5646 0 1.1291-.046 1.7002 0 1.1452.042 2.2849.181 3.4069.414z" opacity=".2"/><path d="m23.4544 208.531c0 .098-.0459.197-.0656.288-.6511-.125-1.3085-.214-1.9693-.269-1.0462-.115-2.0992-.154-3.1509-.118 0-.092.0459-.184.0656-.276 1.0396-.053 2.0817-.031 3.1181.066.6723.068 1.3407.171 2.0021.309z" opacity=".2"/><path d="m19.8315 211.203c-.7265-.069-1.4564-.096-2.186-.079.0122-.062.0276-.124.046-.184.7193.028 1.4351.116 2.14.263z" opacity=".2"/><path d="m25.7529 198.349c0 .079 0 .151-.0525.23-1.0634-.216-2.1466-.328-3.2297-.446.5908 0 1.1816 0 1.7724.046s1.0109.085 1.5098.17z" opacity=".2"/><path d="m25.4039 199.866c0 .105-.046.204-.0722.302-.6565-.118-1.3129-.197-2.0153-.249-1.0127-.09-2.0297-.121-3.0459-.092.0029-.018.0029-.036 0-.053.4201-.046.8468-.092 1.2735-.111.5908 0 1.1816-.04 1.779 0 .6969.027 1.3917.095 2.0809.203z" opacity=".2"/><path d="m24.8982 202.892-.1772-.039c-1.081-.229-2.1786-.372-3.2822-.427-.5777 0-1.1553-.046-1.7396-.039 0-.099.046-.197.0722-.296.5646 0 1.1291.033 1.6871.086 1.1149.097 2.2157.317 3.2822.656z" opacity=".2"/><path d="m26.4086 195.52c0 .105-.0525.21-.0722.309-.2494-.059-.4989-.105-.7483-.145-1.1507-.216-2.3157-.348-3.4857-.393-.2429 0-.4923 0-.7352 0 0-.073 0-.151.0525-.224h.6564c1.1865.006 2.3703.113 3.5383.322.2888.02.5448.059.7942.131z" opacity=".2"/><path d="m28.9227 184.774c0 .066 0 .132-.0459.197-.8009-.144-1.6214-.243-2.4354-.341.5711 0 1.1422 0 1.7199.059z" opacity=".2"/><path d="m27.9647 188.838c0 .092-.046.184-.0657.269l-.5842-.125c-1.1512-.237-2.315-.408-3.4857-.512.5842 0 1.1816 0 1.7724.046s1.1816.105 1.7593.217z" opacity=".2"/><path d="m30.754 177.022c0 .105-.0525.203-.0722.302-.8779-.286-1.7723-.518-2.6783-.696-.6564-.145-1.3129-.25-1.9693-.328l.0394-.145h.2297c.5908.059 1.1816.105 1.7658.21.9103.151 1.8079.37 2.6849.657z" opacity=".2"/><path d="m30.0583 179.982c0 .099-.0459.197-.0722.296-.4595-.138-.9321-.256-1.4047-.355-1.0934-.253-2.2034-.429-3.3216-.525l.059-.256c1.1225.064 2.2379.22 3.3348.466.4726.085.9387.23 1.4047.374z" opacity=".2"/><path d="m32.7239 165.377c-1.1035-.406-2.2386-.72-3.3938-.939l-.2822-.053c0-.085.0459-.17.0656-.256l.2691.059c1.1557.267 2.2768.666 3.3413 1.189z" opacity=".2"/><path d="m31.4112 174.442-.0591.23-.2889-.099c-1.1122-.374-2.2511-.663-3.4069-.866-.3019-.059-.6105-.112-.919-.151l.0788-.302.8993.131c1.1704.215 2.3194.533 3.4332.952z" opacity=".2"/><path d="m40.2598 139.303c.0027.028.0027.057 0 .085-.8305-.398-1.6856-.742-2.5601-1.031-.4464-.151-.9059-.288-1.3589-.413.0387-.092.0716-.186.0985-.282.4529.137.9059.288 1.3129.459.8673.323 1.7061.719 2.5076 1.182z" opacity=".2"/><path d="m38.7109 141.692c-1.0664-.408-2.164-.728-3.2822-.958 0-.079.0525-.151.0722-.23 1.1116.273 2.1885.672 3.21 1.188z" opacity=".2"/><path d="m39.072 124.835c-.8861.124-1.7723.308-2.6257.492.5645-.171 1.1291-.361 1.7067-.499l.86-.19c0 .065.0328.131.059.197z" opacity=".2"/><path d="m39.7543 126.522c-.3807 0-.7614.059-1.1356.105-.8599.088-1.7144.222-2.5601.4.0027-.028.0027-.057 0-.085.2691-.085.5448-.164.814-.23.5776-.125 1.1553-.262 1.7461-.335.3545-.059.7155-.105 1.07-.131.0275.091.0494.183.0656.276z" opacity=".2"/><path d="m40.8499 134.681v.203c-.8074-.19-1.628-.334-2.4485-.479.5842.046 1.1816.079 1.7658.164z" opacity=".2"/><path d="m39.3608 129.508c-.8502.01-1.6989.076-2.5404.197 0-.072 0-.131-.046-.197.8602-.082 1.7262-.082 2.5864 0z" opacity=".2"/><path d="m36.7932 121.093c-.6565.309-1.2735.657-1.8774 1.018-.348.197-.6565.407-1.011.656l-.105-.158c.3217-.242.6564-.479.9847-.689.5805-.387 1.1857-.736 1.8117-1.044z" opacity=".2"/><path d="m33.2756 118.526c-.6073.443-1.1882.921-1.7396 1.431l-.1444-.124c.5896-.489 1.2199-.926 1.884-1.307z" opacity=".2"/><path d="m25.8839 115.362c-.3741.703-.7023 1.418-1.0043 2.147-.0985.236-.1904.473-.2823.715h-.3151c.1182-.282.2363-.558.3611-.833.3215-.699.6876-1.377 1.0962-2.029z" opacity=".2"/><path d="m23.3691 116.222c-.3645.719-.6824 1.46-.9518 2.219l-.2298.039c.3227-.788.7183-1.544 1.1816-2.258z" opacity=".2"/><path d="m20.9935 116.281c-.0657.657-.105 1.313-.1444 2.016 0-.591-.0591-1.182-.0394-1.773 0-.066 0-.125 0-.19z" opacity=".2"/><path d="m19.1881 119.242-.2494.059c-.1042-.74-.1655-1.485-.1838-2.232l.3151-.131c-.0044.769.0351 1.538.1181 2.304z" opacity=".2"/><path d="m17.5798 118.284c-.0525.545-.0788 1.096-.0788 1.641l-.1641.079c.0413-.579.1225-1.153.2429-1.72z" opacity=".2"/><path d="m32.8618 117.22c-.6833.463-1.3407.962-1.9693 1.497l-.512.446c-.0863-.052-.1762-.098-.2692-.138.2035-.17.407-.341.6171-.505.6414-.504 1.317-.962 2.0218-1.372z" opacity=".2"/><path d="m35.7036 119.813c-.6564.42-1.2538.879-1.8774 1.313.4398-.388.873-.795 1.3129-1.162l.4069-.309z" opacity=".2"/><path d="m33.0384 167.68-.0787.315-.197-.072c-1.1033-.403-2.2356-.721-3.3872-.952-.3085-.072-.617-.131-.9321-.183 0-.066 0-.125.0459-.191.3151.033.6565.072.9387.131 1.1704.194 2.3214.491 3.4398.887z" opacity=".2"/><path d="m34.9495 159.941c-.003.046-.003.092 0 .138l-1.4573-.42c.4595.092.9584.17 1.4573.282z" opacity=".2"/><path d="m34.214 162.882-.0591.269-.6564-.184c-1.1405-.281-2.2953-.5-3.4594-.656.5842.039 1.1816.066 1.7658.138s1.175.164 1.7527.308c.2035.014.4332.066.6564.125z" opacity=".2"/><path d="m38.0087 147.909-.0788.295c-.3676-.105-.7352-.197-1.1028-.276-1.0791-.261-2.1762-.441-3.2822-.538 0-.092.046-.177.0722-.263 1.1049.075 2.2022.235 3.2822.48.3742.092.7418.19 1.1094.302z" opacity=".2"/><path d="m35.6783 157.02-.0788.302c-.664-.211-1.3389-.386-2.0218-.525-.8055-.186-1.6207-.326-2.442-.42.003-.033.003-.066 0-.099.2364 0 .4661 0 .7024.033.5843.066 1.1751.118 1.7593.236.7029.114 1.3979.272 2.0809.473z" opacity=".2"/><path d="m37.3186 150.534c.002.029.002.057 0 .086l-.8665-.256z" opacity=".2"/><path d="m38.0677 143.951c-1.082-.375-2.1929-.661-3.3216-.854 0-.079.0394-.157.0656-.236 1.1236.237 2.2161.602 3.256 1.09z" opacity=".2"/><path d="m27.3143 191.601c-.007.045-.018.089-.0328.132-.7105-.202-1.4314-.364-2.1597-.486-.8924-.163-1.7931-.277-2.698-.342 0-.098.046-.203.0722-.301.8987.068 1.7915.2 2.6717.393.7275.156 1.4445.358 2.1466.604z" opacity=".2"/></g><path d="m70.1407 275.534c1.8999-.26 3.8244-.286 5.7307-.079 2.147.197 4.2425.77 6.1903 1.694.5711.276 1.07-.571.4989-.847-3.9586-1.834-8.3782-2.434-12.6825-1.72-.6236.099-.3544 1.051.2626.952z" fill="#0b1f35"/><path d="m68.256 275.751c2.0699.201 4.0616.895 5.8095 2.022 1.8607 1.103 3.492 2.554 4.8051 4.273.3611.512 1.2144 0 .8468-.499-1.395-1.861-3.1496-3.424-5.1596-4.595-1.8968-1.215-4.0583-1.956-6.3018-2.16-.6564-.033-.6564.952 0 .985z" fill="#0b1f35"/><path d="m111.759 265.031c1.897-.259 3.82-.286 5.724-.078 2.148.2 4.245.773 6.197 1.693.564.276 1.063-.571.492-.847-3.959-1.824-8.376-2.417-12.676-1.7-.623.105-.361 1.051.263.952z" fill="#0b1f35"/><path d="m109.842 265.241c2.071.201 4.063.896 5.809 2.028 1.862 1.099 3.494 2.548 4.806 4.267.361.512 1.214 0 .846-.499-1.396-1.86-3.151-3.422-5.159-4.595-1.898-1.212-4.059-1.953-6.302-2.159-.657-.033-.657.951 0 .984z" fill="#0b1f35"/><path d="m85.0746 143.531s-15.3344-.289-26.3757-9.315c-9.1311-7.477-12.4724-11.16-14.4811-9.321-2.0087 1.838.9387 31.968 24.9447 38.729 8.1727 2.291 15.9121-12.472 15.9121-12.472z" fill="#f04539" fill-opacity=".95"/><path d="m85.0746 143.531s-15.3344-.289-26.3757-9.315c-9.1311-7.477-12.4724-11.16-14.4811-9.321-2.0087 1.838.9387 31.968 24.9447 38.729 8.1727 2.291 15.9121-12.472 15.9121-12.472z" fill="#172a3f" opacity=".1"/><path d="m85.0751 143.531v7.601s-7.7132 14.777-15.9122 12.472c-5.9482-1.659-11.2723-5.042-15.3016-9.721 5.7373-3.749 14.3826-9.368 19.2403-12.387 3.8955 1.154 7.9153 1.837 11.9735 2.035z" fill="#172a3f" opacity=".1"/><path d="m67.7379 195.54s-9.3608-17.605-8.7175-26.205c.6433-8.599 9.8072-23.119 17.4219-26.769s43.1087 1.562 54.8327 13.654c2.54 2.625.124 7.253-1.182 9.623-1.693 3.066-7.615 9.971-12.748 11.974 0 0 .919 10.115-9.847 15.603 0 0 3.657 17.199 6.992 26.553 3.334 9.354 11.395 24.945 6.446 36.236-4.95 11.29-17.402 10.43-25.6013 11.612-8.199 1.182-21.912 9.138-34.0561 7.418-12.1442-1.72-16.969-15.203-13.549-29.901 3.768-16.116 10.1158-35.71 20.0083-49.798z" fill="#f04539" fill-opacity=".95"/><path d="m70.2128 158.156s-4.5951-.433-13.4767-4.018c-8.8816-3.584-23.5662-13.023-37.8438-5.448-16.48974 8.744-21.99727 48.386 9.4593 60.642 27.1373 10.569 46.4497-29.54 46.4497-29.54z" fill="#f04539" fill-opacity=".95"/><path d="m74.7952 179.806s-19.3059 40.095-46.4431 29.539c-7.0896-2.757-12.3017-6.912-15.9318-11.815-3.31408-5.647-5.31322-11.967-5.84889-18.492-.54484-7.779.65644-19.037 10.74589-25.267 10.0895-6.229 23.0083-.335 33.1306 5.134 10.1223 5.468 19.1417 5.908 21.4327 7.05 4.9758 4.89 2.9146 13.851 2.9146 13.851z" fill="#172a3f" opacity=".1"/><path d="m50.4473 151.323 4.8839 1.917c1.6345.623 3.2822 1.266 4.897 1.864 1.6149.597 3.2822 1.188 4.9364 1.72.8272.282 1.6608.512 2.5077.742.4201.105.8402.223 1.2669.321.4267.099.8534.171 1.3129.269-1.7584-.094-3.5015-.378-5.199-.847-1.7042-.436-3.3829-.966-5.0284-1.588-1.6476-.617-3.2822-1.313-4.8642-2.022s-3.21-1.503-4.7132-2.376z" fill="#0b1f35"/><path d="m65.5459 194.168 1.1816-1.792 1.1947-1.772 2.3698-3.552c.7877-1.188 1.5492-2.382 2.3172-3.584.3742-.604.7615-1.201 1.1094-1.825.3479-.623.7155-1.227 1.0962-1.844-.4921 1.354-1.0823 2.67-1.7658 3.938-.6564 1.267-1.431 2.488-2.2122 3.69-.7812 1.201-1.6214 2.363-2.5076 3.485-.8709 1.133-1.7999 2.22-2.7833 3.256z" fill="#0b1f35"/><path d="m66.2344 157.375c.2348-.158.4944-.276.768-.348.8119-.245 1.6806-.227 2.4814.052-.2823.033-.5515.033-.8206.059l-.8074.06c-.5383.013-1.07.078-1.6214.177z" fill="#0b1f35"/><path d="m72.8057 183.633c.3723-.449.7759-.87 1.2078-1.261.4201-.394.8206-.755 1.2538-1.188-.1227.604-.4467 1.147-.919 1.543-.4334.422-.9627.733-1.5426.906z" fill="#0b1f35"/><path d="m72.8057 172.092-4.7395-.171c-1.582-.052-3.164-.105-4.7395-.124-3.1574-.046-6.3215-.099-9.4593.138-3.1377.236-6.0917 1.345-8.9735 2.579-1.4442.617-2.8621 1.313-4.2537 2.055-1.3917.742-2.7833 1.503-4.1422 2.311 2.5828-1.844 5.3219-3.458 8.1859-4.825 2.862-1.447 5.9541-2.384 9.1376-2.77 3.1706-.168 6.3478-.168 9.5184 0 3.164.17 6.3215.42 9.4658.807z" fill="#0b1f35"/><path d="m70.2132 173.241c-1.9299.374-3.8533.755-5.7635 1.182-1.9103.426-3.8074.899-5.6585 1.496-.9218.29-1.8231.641-2.698 1.051-.8687.42-1.7047.905-2.501 1.451-.8029.549-1.5622 1.159-2.2713 1.824-.7126.66-1.3711 1.376-1.9693 2.14 1.0339-1.686 2.3689-3.168 3.9386-4.371.7925-.609 1.6383-1.146 2.5273-1.602.8963-.436 1.8219-.809 2.7702-1.116 1.8864-.591 3.8124-1.047 5.7635-1.366 1.9393-.341 3.8965-.571 5.862-.689z" fill="#0b1f35"/><path d="m122.794 182.024c-.146-2.878.68-5.721 2.344-8.074.38-.512-.48-1.004-.847-.499-.915 1.269-1.583 2.699-1.97 4.215-.383 1.42-.555 2.888-.512 4.358.04.657 1.024.657.985 0z" fill="#0b1f35"/><path d="m123.594 182.714c.337-1.366 1.014-2.624 1.97-3.657 1.09-1.262 2.432-2.284 3.938-3 .571-.262.073-1.109-.499-.853-.469.227-.921.488-1.352.781-1.056.693-2.015 1.525-2.849 2.475-1.037 1.13-1.775 2.502-2.146 3.991-.118.624.827.886.945.263z" fill="#0b1f35"/><path d="m123.969 183.56c.596-1.047 1.438-1.932 2.455-2.579 1.27-.911 2.778-1.433 4.339-1.504.13 0 .256-.052.348-.144s.144-.217.144-.348-.052-.256-.144-.348-.218-.144-.348-.144c-1.738.066-3.418.637-4.838 1.641-1.161.733-2.125 1.738-2.81 2.927-.282.565.565 1.064.854.499z" fill="#0b1f35"/><path d="m93.7265 198.389s16.7455 2.777 27.8795-16.7c0 0 2.409-1.378 2.993 1.248 0 0 1.267 19.214-10.09 27.865-11.527 8.777-24.9968 6.072-24.9968 6.072s-8.5338-11.645 4.2143-18.485z" fill="#f04539" fill-opacity=".95"/><path d="m107.873 195.541c-1.48 1.15-3.184 1.977-5.003 2.428-.902.236-1.822.4-2.75.493-.9281.085-1.8619.085-2.7899 0l2.7109-.525c.893-.178 1.779-.394 2.626-.624s1.746-.499 2.626-.788c.879-.289 1.733-.597 2.58-.984z" fill="#0b1f35"/><path d="m89.5117 216.875c1.0886.142 2.1845.224 3.2822.243 1.1028 0 2.1925 0 3.2822-.059 2.1819-.133 4.3479-.458 6.4729-.972 2.127-.496 4.2-1.2 6.19-2.101 2.003-.901 3.928-1.966 5.757-3.183-.433.341-.867.656-1.313 1.017-.42.348-.858.672-1.313.972l-1.418.873c-.466.302-.985.518-1.47.781-.992.5-2.013.939-3.059 1.313-.519.197-1.057.335-1.589.505l-.794.25-.814.19c-2.163.526-4.3783.806-6.6039.834-2.223.07-4.4457-.153-6.6104-.663z" fill="#0b1f35"/><path d="m91.1465 217.892c.3166-.008.6323-.036.9453-.085.3151-.046.6564-.079.9255-.131.6171-.086 1.2079-.191 1.8578-.342-.4781.464-1.0972.755-1.7593.828-.3292.039-.662.039-.9912 0-.3435-.007-.6798-.099-.9781-.27z" fill="#0b1f35"/><path d="m103.802 166.742c-.111-.072-.098.296 0 .388 2.541 2.271 5.003 5.29 3.355 8.238-.015.022-.02.048-.016.074.005.026.02.049.042.064s.049.02.075.015c.025-.005.048-.02.063-.042 2.619-3.006-.689-6.984-3.519-8.737z" fill="#0b1f35"/><path d="m99.3388 166.854c-4.5622 3.82 2.3302 11.376 6.5642 7.831s-2.737-11.035-6.5642-7.831z" fill="#0b1f35"/><path d="m89.4329 170.779c-.5913-.831-.9965-1.781-1.1882-2.783-.2146-1.018-.2324-2.067-.0525-3.092.1853-1.042.62-2.024 1.2669-2.862.6262-.824 1.463-1.463 2.4223-1.851-.5908.752-1.1115 1.556-1.5558 2.402-.4057.805-.6889 1.666-.8402 2.554-.1579.904-.2326 1.82-.2232 2.737.0131.939.0722 1.891.1707 2.895z" fill="#0b1f35"/><path d="m88.9413 170.845c-.748-.694-1.3389-1.54-1.733-2.482-.4214-.95-.6554-1.973-.6893-3.013-.0341-1.06.1912-2.112.6564-3.065.4365-.934 1.1169-1.732 1.9694-2.311-.4233.85-.7641 1.738-1.0175 2.652-.2289.871-.3284 1.772-.2954 2.672.0291.917.1456 1.829.3479 2.724.2035.939.4661 1.858.7615 2.823z" fill="#0b1f35"/><path d="m115.048 263.305c-5.908 3.866-13.871 3.676-19.6935 4.516-5.8227.841-14.317 5.042-23.1264 6.834-.1313-7.096.5251-22.319 7.2208-36.761 8.6781-18.708 21.0061-24.478 25.0171-9.551 3.092 11.54 3.44 21.899 10.582 34.962z" fill="#fff" opacity=".5"/><path d="m107.512 193.42c-1.833.819-3.778 1.359-5.77 1.602-2.0023.263-4.0318.236-6.0263-.079-.9981-.153-1.9849-.373-2.954-.656-.9584-.316-1.8911-.704-2.7899-1.162-.4505-.214-.8888-.453-1.3129-.716l-1.2603-.827c-.4165-.281-.8115-.592-1.1816-.932-.3808-.322-.7549-.656-1.1291-.978 1.5885 1.18 3.301 2.184 5.1071 2.993.8982.401 1.8213.743 2.7636 1.024.9418.268 1.9.474 2.8686.617 1.9427.307 3.9146.384 5.8748.23l1.471-.157c.486-.079.978-.145 1.464-.243.972-.178 1.933-.417 2.875-.716z" fill="#0b1f35"/><path d="m132.312 160.211s-6.499.413-6.499-1.55c0-.906 4.963-3.938 6.755-3.938s-.256 5.488-.256 5.488z" fill="#0b1f35"/><path d="m102.011 185.785c2.595 0 4.7-2.104 4.7-4.7 0-2.595-2.105-4.7-4.7-4.7-2.5961 0-4.7005 2.105-4.7005 4.7 0 2.596 2.1044 4.7 4.7005 4.7z" fill="#f04539" fill-opacity=".95"/><path d="m142.717 266.692c0-.919 1.707-2.075 2.179-2.363.473-.289 2.626-.434 2.77-.801.145-.368 2.219-.801 2.981-.762.761.04 1.785 1.379 1.93 2.436.071.511-.045 1.032-.326 1.466-.28.434-.708.752-1.204.897-.945.184-2.672 1.057-3.394 1.129s-4.936-.978-4.936-2.002z" fill="#f04539" fill-opacity=".95"/><path d="m142.717 266.692c0-.919 1.707-2.075 2.179-2.363.473-.289 2.626-.434 2.77-.801.145-.368 2.219-.801 2.981-.762.761.04 1.785 1.379 1.93 2.436.071.511-.045 1.032-.326 1.466-.28.434-.708.752-1.204.897-.945.184-2.672 1.057-3.394 1.129s-4.936-.978-4.936-2.002z" fill="#fff" opacity=".3"/><path d="m135.339 263.548c-.472-.657.598-1.162 1.129-1.93.532-.768 2.318-.46 2.659-.217.445.622.646 1.386.564 2.147-.5.712-1.258 1.201-2.113 1.365-.598 0-1.943-.972-2.239-1.365z" fill="#f04539" fill-opacity=".95"/><path d="m135.339 263.548c-.472-.657.598-1.162 1.129-1.93.532-.768 2.318-.46 2.659-.217.445.622.646 1.386.564 2.147-.5.712-1.258 1.201-2.113 1.365-.598 0-1.943-.972-2.239-1.365z" fill="#fff" opacity=".3"/><path d="m143.727 262.274c.125-1.044 2.16-.742 2.482-.177.321.564-.854 1.667-1.385 1.208-.532-.46-1.162-.644-1.097-1.031z" fill="#f04539" fill-opacity=".95"/><path d="m143.727 262.274c.125-1.044 2.16-.742 2.482-.177.321.564-.854 1.667-1.385 1.208-.532-.46-1.162-.644-1.097-1.031z" fill="#fff" opacity=".3"/><path d="m136.442 268.385c.328-.407 1.313-.498 1.464-.262s.473.709.236.899c-.236.191-.899.617-1.201.381s-.656-.801-.499-1.018z" fill="#f04539" fill-opacity=".95"/><path d="m136.442 268.385c.328-.407 1.313-.498 1.464-.262s.473.709.236.899c-.236.191-.899.617-1.201.381s-.656-.801-.499-1.018z" fill="#fff" opacity=".3"/><path d="m129.779 265.182c.19-.656 1.135-1.09 1.739-1.162s1.727.427 1.661.854c-.066.426-.919.8-1.063 1.109-.145.308-.591.971-1.038.794-.446-.177-1.516-.866-1.299-1.595z" fill="#f04539" fill-opacity=".95"/><path d="m129.779 265.182c.19-.656 1.135-1.09 1.739-1.162s1.727.427 1.661.854c-.066.426-.919.8-1.063 1.109-.145.308-.591.971-1.038.794-.446-.177-1.516-.866-1.299-1.595z" fill="#fff" opacity=".3"/></svg>