<svg width="375" height="305" viewBox="0 0 375 305" fill="none" xmlns="http://www.w3.org/2000/svg">
<g opacity="0.4">
<path d="M128.102 6.20806L116.667 12.8035C116.729 12.3036 116.763 11.8005 116.767 11.2968V7.98413C116.767 2.08717 112.626 -0.297556 107.517 2.64594C105.309 4.00368 103.423 5.82514 101.989 7.98413C101.161 0.570524 95.3441 -2.19337 88.2797 1.88761C80.6466 6.29786 74.4503 17.0142 74.4503 25.8347V30.8236C74.4027 32.8006 74.8053 34.7625 75.6277 36.561L66.1287 42.0388C64.6365 43.0124 63.3947 44.3237 62.5037 45.8665C61.6127 47.4093 61.0975 49.1403 61 50.9192C61 54.192 63.2949 55.519 66.1287 53.9126L128.082 18.1417C129.573 17.1676 130.815 15.8561 131.706 14.3134C132.597 12.7708 133.112 11.0401 133.21 9.26131C133.23 5.89874 130.925 4.57168 128.102 6.20806Z" fill="#ECF8FB"/>
<path d="M174.549 25.9446L167.255 30.1553C167.296 29.8243 167.316 29.491 167.315 29.1575V27.0721C167.315 23.3204 164.681 21.7938 161.428 23.6796C160.027 24.5369 158.829 25.6874 157.916 27.0522C157.377 22.3226 153.675 20.5665 149.175 23.1707C144.306 25.9746 140.354 32.8094 140.354 38.437V41.6C140.322 42.8585 140.578 44.1076 141.103 45.2519L135.046 48.7542C134.094 49.373 133.301 50.2079 132.732 51.191C132.164 52.1741 131.835 53.2776 131.773 54.4117C131.773 56.4971 133.24 57.3452 135.046 56.2975L174.549 33.4979C175.501 32.8769 176.294 32.0402 176.863 31.0554C177.431 30.0707 177.76 28.9659 177.822 27.8304C177.822 25.7451 176.355 24.9468 174.549 25.9446Z" fill="#ECF8FB"/>
</g>
<g opacity="0.4">
<path d="M325.102 106.414L313.667 113.009C313.729 112.509 313.763 112.006 313.767 111.502V108.19C313.767 102.293 309.626 99.908 304.517 102.852C302.309 104.209 300.423 106.031 298.989 108.19C298.161 100.776 292.344 98.0122 285.28 102.093C277.647 106.503 271.45 117.22 271.45 126.04V131.029C271.403 133.006 271.805 134.968 272.628 136.767L263.129 142.244C261.637 143.218 260.395 144.529 259.504 146.072C258.613 147.615 258.098 149.346 258 151.125C258 154.398 260.295 155.725 263.129 154.118L325.082 118.347C326.573 117.373 327.815 116.062 328.706 114.519C329.597 112.976 330.112 111.246 330.21 109.467C330.23 106.104 327.925 104.777 325.102 106.414Z" fill="#D9F1F8" fill-opacity="0.5"/>
<path d="M371.549 126.15L364.255 130.361C364.296 130.03 364.316 129.697 364.315 129.363V127.278C364.315 123.526 361.681 121.999 358.428 123.885C357.027 124.742 355.829 125.893 354.916 127.258C354.377 122.528 350.675 120.772 346.175 123.376C341.306 126.18 337.354 133.015 337.354 138.643V141.806C337.322 143.064 337.578 144.313 338.103 145.457L332.046 148.96C331.094 149.579 330.301 150.414 329.732 151.397C329.164 152.38 328.835 153.483 328.773 154.617C328.773 156.703 330.24 157.551 332.046 156.503L371.549 133.703C372.501 133.083 373.294 132.246 373.863 131.261C374.431 130.276 374.76 129.171 374.822 128.036C374.822 125.951 373.355 125.152 371.549 126.15Z" fill="#D9F1F8" fill-opacity="0.5"/>
</g>
<path d="M101.506 234.852C101.625 233.381 102.187 231.981 103.118 230.836C103.993 229.685 105.206 228.838 106.587 228.411C107.765 228.076 109.021 228.139 110.16 228.592C111.298 229.045 112.255 229.861 112.882 230.915C113.414 229.857 114.267 228.995 115.319 228.454C116.372 227.912 117.568 227.72 118.737 227.905C120.158 228.167 121.462 228.868 122.467 229.909C123.528 230.931 124.249 232.255 124.534 233.701C124.874 235.549 124.611 237.458 123.782 239.144C122.798 240.859 121.42 242.315 119.763 243.392C117.075 245.237 113.54 247.553 113.54 247.553C113.54 247.553 110.302 245.418 107.425 243.935C105.649 243.066 104.107 241.783 102.93 240.193C101.893 238.613 101.394 236.74 101.506 234.852Z" fill="#F5F6F7"/>
<path d="M302.952 154.919C303.067 153.446 303.629 152.045 304.563 150.902C305.435 149.75 306.646 148.902 308.025 148.478C309.204 148.142 310.46 148.206 311.598 148.658C312.737 149.111 313.694 149.928 314.321 150.982C314.852 149.923 315.705 149.061 316.758 148.52C317.81 147.979 319.007 147.787 320.176 147.971C321.597 148.234 322.901 148.935 323.905 149.976C324.966 150.999 325.69 152.322 325.98 153.768C326.311 155.62 326.04 157.531 325.206 159.217C324.224 160.934 322.846 162.39 321.187 163.466C318.506 165.311 314.964 167.627 314.964 167.627C314.964 167.627 311.733 165.456 308.849 164.008C307.073 163.14 305.531 161.857 304.354 160.267C303.323 158.682 302.831 156.806 302.952 154.919Z" fill="#F5F6F7"/>
<path d="M121.069 216.882C121.14 215.937 121.501 215.038 122.103 214.306C122.664 213.565 123.443 213.019 124.329 212.743C124.802 212.614 125.296 212.581 125.781 212.647C126.267 212.713 126.734 212.876 127.155 213.126C127.653 213.433 128.071 213.852 128.377 214.349C128.718 213.67 129.266 213.117 129.941 212.771C130.617 212.425 131.386 212.304 132.135 212.424C133.048 212.587 133.886 213.035 134.528 213.705C135.21 214.363 135.675 215.214 135.858 216.144C136.075 217.332 135.903 218.558 135.366 219.64C134.736 220.742 133.851 221.678 132.786 222.368C131.058 223.555 128.789 225.046 128.789 225.046C128.789 225.046 126.707 223.671 124.857 222.701C123.715 222.143 122.724 221.319 121.966 220.298C121.309 219.285 120.995 218.088 121.069 216.882Z" fill="#F3F4F5"/>
<path d="M290.585 172.635C290.66 171.691 291.021 170.793 291.619 170.059C292.181 169.321 292.959 168.777 293.845 168.503C294.602 168.294 295.407 168.337 296.137 168.627C296.868 168.917 297.484 169.438 297.892 170.11C298.132 169.636 298.472 169.221 298.89 168.894C299.277 168.592 299.721 168.372 300.196 168.247C300.671 168.123 301.166 168.097 301.651 168.17C302.563 168.338 303.4 168.789 304.043 169.458C304.727 170.115 305.191 170.966 305.373 171.897C305.59 173.085 305.418 174.311 304.882 175.393C304.253 176.497 303.368 177.433 302.301 178.121C300.574 179.301 298.304 180.791 298.304 180.791C298.304 180.791 296.23 179.424 294.372 178.447C293.229 177.891 292.237 177.067 291.481 176.044C290.825 175.033 290.511 173.838 290.585 172.635Z" fill="#F3F4F5"/>
<path d="M327.122 209.219C327.193 208.274 327.554 207.374 328.156 206.643C328.717 205.902 329.495 205.355 330.382 205.079C330.855 204.95 331.348 204.917 331.834 204.983C332.32 205.049 332.787 205.212 333.208 205.463C333.705 205.769 334.124 206.188 334.43 206.686C334.769 206.005 335.316 205.451 335.993 205.105C336.669 204.758 337.438 204.638 338.188 204.761C339.099 204.93 339.935 205.377 340.581 206.042C341.263 206.699 341.727 207.55 341.91 208.481C342.125 209.669 341.952 210.894 341.419 211.976C340.788 213.081 339.9 214.017 338.831 214.705C337.111 215.892 334.834 217.382 334.834 217.382C334.834 217.382 332.76 216.007 330.91 215.038C329.768 214.479 328.777 213.656 328.018 212.635C327.362 211.622 327.047 210.424 327.122 209.219Z" fill="#F5F6F7"/>
<path d="M125.876 246.873C125.924 246.251 126.164 245.659 126.562 245.179C126.926 244.693 127.431 244.332 128.008 244.144C128.32 244.059 128.646 244.038 128.966 244.081C129.286 244.125 129.595 244.232 129.873 244.398C130.198 244.603 130.473 244.88 130.675 245.208C130.834 244.896 131.058 244.622 131.333 244.405C131.589 244.207 131.882 244.063 132.195 243.982C132.508 243.902 132.834 243.885 133.154 243.935C133.755 244.043 134.307 244.339 134.73 244.781C135.186 245.21 135.501 245.768 135.633 246.381C135.774 247.165 135.66 247.974 135.308 248.689C134.892 249.419 134.307 250.037 133.602 250.491C132.467 251.273 130.964 252.25 130.964 252.25C130.964 252.25 129.598 251.345 128.376 250.709C127.627 250.337 126.976 249.794 126.475 249.124C126.039 248.457 125.829 247.668 125.876 246.873Z" fill="#F3F4F5"/>
<path d="M86.766 71.7645C86.766 71.7645 83.4339 74.6593 90.669 81.3247C94.3287 84.8101 98.2163 88.0474 102.306 91.0152C102.306 91.0152 103.751 92.6507 102.263 93.5409C100.774 94.4311 97.0368 95.1693 97.0368 97.4055C97.0368 99.6418 99.2052 101.104 102.87 101.683C106.534 102.262 114.434 103.854 115.106 103.97C115.779 104.085 116.711 104.787 115.786 105.562C114.861 106.336 107.206 110.107 109.216 113.631C111.225 117.156 121.59 117.112 122.725 117.134C123.859 117.156 124.25 117.481 124.373 118.06C124.496 118.639 121.8 119.66 119.667 120.818C117.535 121.975 115.266 123.712 116.588 125.645C117.911 127.577 124.987 130.074 138.612 126.506L144.82 124.443L146.266 118.017C148.478 104.093 145.312 97.2897 143.252 96.1607C141.192 95.0317 139.703 97.4562 138.756 99.6924C137.809 101.929 137.058 104.715 136.472 104.657C135.887 104.599 135.518 104.23 135.388 103.101C135.258 101.972 134.297 91.6375 130.589 89.9875C126.881 88.3374 123.888 96.3272 123.209 97.3259C122.53 98.3246 121.763 97.4851 121.561 96.8048C121.359 96.1245 119.024 88.3881 118.092 84.8274C117.159 81.2668 115.576 79.2259 113.271 79.443C110.965 79.6601 110.683 83.4596 109.939 85.0373C109.194 86.615 107.43 85.334 107.43 85.334C104.073 81.545 100.466 77.986 96.632 74.681C89.2813 68.1676 86.7009 71.8296 86.7009 71.8296" fill="#F5F6F7"/>
<path d="M145.652 125.768C140.275 120.933 130.857 112.184 122.733 104.715C114.609 97.2464 107.251 90.487 101.895 85.6309L95.5487 79.8846C94.8259 79.2043 94.2187 78.6833 93.8212 78.3142L93.3731 77.9089L93.2285 77.7642C93.2842 77.8016 93.3373 77.8427 93.3875 77.8872C93.4959 77.9885 93.655 78.1188 93.8501 78.2852L95.592 79.8195C97.1099 81.1584 99.2927 83.1051 101.981 85.5223C107.366 90.3567 114.739 97.1017 122.863 104.563C130.987 112.025 140.405 120.803 145.754 125.659" fill="#F3F4F5"/>
<path d="M102.305 96.5724C102.475 96.552 102.647 96.552 102.818 96.5724H104.104C105.189 96.5724 106.692 96.5724 108.347 96.6738L112.583 96.862L113.869 96.9127C114.026 96.8982 114.183 96.8982 114.339 96.9127C114.185 96.9452 114.027 96.9598 113.869 96.9561C113.558 96.9561 113.147 96.9561 112.576 96.9561C111.491 96.9561 109.995 96.891 108.34 96.8258L104.097 96.6593L102.818 96.6158C102.646 96.6239 102.473 96.6093 102.305 96.5724Z" fill="#F3F4F5"/>
<path d="M114.579 96.3566C114.521 96.3566 114.456 93.2519 114.434 89.4307C114.412 85.6095 114.434 82.4976 114.499 82.4976C114.564 82.4976 114.615 85.6023 114.637 89.4235C114.658 93.2447 114.629 96.3566 114.579 96.3566Z" fill="#F3F4F5"/>
<path d="M126.535 108.384C126.556 108.224 126.593 108.067 126.644 107.914C126.745 107.581 126.86 107.19 127.005 106.654C127.309 105.583 127.728 104.107 128.111 102.464C128.494 100.821 128.834 99.3231 129.029 98.2303C129.137 97.7237 129.217 97.2895 129.289 96.9421C129.308 96.7812 129.347 96.6232 129.405 96.4717C129.411 96.6342 129.399 96.7968 129.368 96.9566C129.325 97.2678 129.267 97.6803 129.173 98.2592C128.993 99.352 128.711 100.865 128.313 102.515C127.916 104.165 127.482 105.634 127.142 106.698C126.969 107.226 126.832 107.646 126.723 107.942C126.679 108.097 126.615 108.245 126.535 108.384Z" fill="#F3F4F5"/>
<path d="M115.482 111.048C115.614 110.978 115.756 110.926 115.902 110.896L117.073 110.57C118.063 110.295 119.429 109.94 120.947 109.557C122.465 109.173 123.838 108.833 124.835 108.601L126.013 108.334C126.158 108.298 126.306 108.273 126.454 108.261C126.321 108.329 126.181 108.38 126.035 108.413L124.871 108.739C123.881 109.014 122.508 109.369 120.997 109.752C119.487 110.136 118.106 110.476 117.109 110.707L115.923 110.975C115.779 111.012 115.631 111.036 115.482 111.048Z" fill="#F3F4F5"/>
<path d="M124.691 123.003C124.866 122.924 125.047 122.864 125.233 122.822L126.73 122.395C127.995 122.04 129.744 121.57 131.681 121.056C133.618 120.542 135.374 120.094 136.654 119.775L138.164 119.413C138.346 119.361 138.532 119.325 138.721 119.305C138.549 119.385 138.37 119.448 138.186 119.493L136.69 119.92C135.425 120.267 133.668 120.745 131.731 121.251C129.794 121.758 128.038 122.214 126.766 122.532L125.255 122.894C125.072 122.951 124.883 122.987 124.691 123.003Z" fill="#F3F4F5"/>
<path d="M138.365 119.298C138.387 119.094 138.428 118.893 138.488 118.697C138.589 118.285 138.719 117.735 138.886 117.083C139.218 115.715 139.673 113.827 140.114 111.728C140.555 109.629 140.917 107.711 141.162 106.329C141.285 105.663 141.386 105.113 141.459 104.686C141.487 104.483 141.53 104.282 141.589 104.085C141.589 104.292 141.572 104.497 141.538 104.701C141.488 105.091 141.415 105.656 141.307 106.351C141.097 107.747 140.765 109.665 140.317 111.764C139.869 113.863 139.392 115.759 139.023 117.119C138.835 117.8 138.676 118.343 138.56 118.719C138.508 118.916 138.443 119.109 138.365 119.298Z" fill="#F3F4F5"/>
<path d="M290.947 112.046C281.349 103.629 280.409 89.8425 282.129 77.7566C282.419 75.7302 282.426 73.5663 283.575 71.8873C284.724 70.2083 287.109 69.2385 288.837 70.2879C290.282 71.1636 290.731 72.9873 291.417 74.5288C292.331 76.5875 293.81 78.3442 295.682 79.5948C296.903 80.4053 298.457 80.9843 299.809 80.4198C301.659 79.6455 302.122 77.25 302.331 75.2236C302.712 71.4603 303.093 67.6946 303.473 63.9265C303.568 61.8954 303.993 59.8934 304.731 57.9993C305.562 56.1466 307.138 54.5182 309.118 54.1853C311.099 53.8524 313.347 55.2202 313.535 57.2394C313.526 58.0829 313.456 58.9246 313.325 59.7579C313.258 60.1812 313.32 60.6149 313.503 61.0024C313.686 61.3898 313.982 61.7127 314.351 61.929C315.132 62.2547 315.999 61.7698 316.664 61.2053C318.963 59.3888 320.661 56.9137 322.266 54.4459C323.87 51.978 325.439 49.4088 327.607 47.3607C329.776 45.3126 332.537 43.8652 335.442 44.01C338.348 44.1547 341.225 46.2752 341.658 49.1917C342.092 52.1083 340.111 54.8294 338.044 56.9354C334.999 60.0724 331.518 62.7536 327.708 64.8962C326.979 65.2033 326.366 65.7358 325.959 66.416C325.374 67.7115 326.509 69.1878 327.788 69.774C329.234 70.4326 330.881 70.4543 332.435 70.809C333.989 71.1636 335.616 72.0465 336.049 73.5952C336.657 75.7664 334.698 77.7276 332.847 78.9579C329.146 81.4328 325.045 83.2495 320.726 84.3279C319.187 84.7114 317.575 85.0516 316.267 85.9345C314.958 86.8174 314.019 88.6122 314.597 90.0596C315.175 91.5071 316.975 92.2308 318.558 92.1005C320.141 91.9702 321.63 91.2827 323.169 90.8847C326.06 90.161 329.609 90.711 331.12 93.3019C331.574 94.1854 331.816 95.1623 331.829 96.1556C331.841 97.149 331.623 98.1317 331.192 99.0264C330.312 100.807 329.083 102.392 327.578 103.687C322.616 108.495 316.467 111.899 309.762 113.551C303.097 115.086 297.077 115.049 290.933 112.024" fill="#F3F4F5"/>
<path d="M294.906 104.758C297.637 98.3506 300.731 92.1045 304.172 86.05C305.083 84.4361 305.972 82.8439 306.854 81.2735C307.736 79.703 308.618 78.1543 309.564 76.6851C311.399 73.8749 313.385 71.1667 315.513 68.5724C317.529 66.0828 319.532 63.7959 321.418 61.6682C323.305 59.5405 325.119 57.6009 326.839 55.8785C329.53 53.1809 332.431 50.7005 335.512 48.4605C336.604 47.6644 337.471 47.0782 338.064 46.6874L338.743 46.2459C338.818 46.1915 338.898 46.1454 338.982 46.1084C338.914 46.1719 338.842 46.23 338.765 46.2821L338.107 46.7525C337.529 47.1578 336.662 47.7657 335.599 48.5762C332.551 50.8565 329.676 53.3602 326.998 56.0666C325.299 57.7818 323.507 59.7286 321.628 61.8563C319.748 63.984 317.761 66.2854 315.759 68.775C313.64 71.359 311.669 74.0603 309.854 76.8661C308.907 78.3135 308.039 79.8622 307.157 81.4327L304.476 86.2092C301.04 92.2504 297.944 98.4792 295.203 104.866" fill="#F3F4F5"/>
<path d="M309.675 76.6854C309.614 76.3949 309.58 76.0993 309.574 75.8025C309.523 75.2308 309.487 74.4057 309.451 73.3853C309.386 71.3444 309.386 68.522 309.401 65.4245C309.415 62.327 309.401 59.4973 309.278 57.4637C309.227 56.4433 309.184 55.6182 309.14 55.0537C309.104 54.7581 309.104 54.4592 309.14 54.1636C309.221 54.4497 309.274 54.7429 309.299 55.0393C309.386 55.6038 309.473 56.4288 309.552 57.442C309.719 59.4828 309.798 62.3053 309.784 65.4028C309.769 68.5003 309.747 71.2504 309.733 73.3636V75.7808C309.751 76.0836 309.732 76.3875 309.675 76.6854Z" fill="#F3F4F5"/>
<path d="M336.128 74.6303C335.779 74.6596 335.429 74.6596 335.08 74.6303C334.408 74.6303 333.432 74.6303 332.232 74.6303C329.833 74.6303 326.515 74.7461 322.836 75.0356C319.157 75.3251 315.883 75.7593 313.505 76.1067C312.312 76.2804 311.336 76.4468 310.693 76.5554C310.351 76.6328 310.003 76.6813 309.652 76.7001C309.979 76.5693 310.318 76.4723 310.664 76.4107C311.322 76.2587 312.276 76.0488 313.461 75.8389C315.839 75.4119 319.143 74.956 322.807 74.6593C325.932 74.4019 329.068 74.3028 332.203 74.3626C333.403 74.3626 334.372 74.4494 335.051 74.5073C335.413 74.5123 335.774 74.5535 336.128 74.6303Z" fill="#F3F4F5"/>
<path d="M295.276 104.31C295.212 104.206 295.164 104.094 295.131 103.977L294.792 102.992C294.495 102.131 294.069 100.879 293.642 99.3232C292.71 96.2112 291.561 91.8762 290.354 87.078C289.147 82.2798 288.041 77.9375 287.173 74.8111L286.14 71.1129C286.031 70.7149 285.938 70.3892 285.865 70.107C285.824 69.9904 285.8 69.8685 285.793 69.7451C285.85 69.8546 285.898 69.9683 285.938 70.0853C286.024 70.353 286.14 70.6787 286.277 71.0695C286.574 71.9307 286.964 73.1827 287.426 74.7387C288.359 77.8434 289.508 82.1785 290.715 86.9839C291.922 91.7893 293.028 96.1244 293.895 99.287L294.929 102.985C295.037 103.383 295.131 103.709 295.204 103.991C295.241 104.094 295.265 104.201 295.276 104.31Z" fill="#F3F4F5"/>
<path d="M330.925 96.9133C330.814 96.9679 330.694 97.0022 330.571 97.0146L329.538 97.2462L325.714 98.0423C322.49 98.7226 318.052 99.6996 313.145 100.8C308.237 101.9 303.748 102.833 300.539 103.441C298.92 103.752 297.605 103.984 296.694 104.165L295.646 104.317C295.524 104.338 295.399 104.338 295.277 104.317C295.393 104.274 295.511 104.24 295.632 104.216L296.672 103.991L300.489 103.188C303.712 102.515 308.157 101.531 313.065 100.438C317.973 99.3449 322.425 98.3969 325.663 97.789C327.282 97.485 328.598 97.2534 329.509 97.1087L330.557 96.9495C330.677 96.9216 330.801 96.9095 330.925 96.9133Z" fill="#F3F4F5"/>
<g opacity="0.4">
<path d="M0.101654 108.414L-11.3331 115.009C-11.2706 114.509 -11.2373 114.006 -11.2333 113.502V110.19C-11.2333 104.293 -15.3741 101.908 -20.4828 104.852C-22.6905 106.209 -24.5767 108.031 -26.0106 110.19C-26.8388 102.776 -32.6559 100.012 -39.7203 104.093C-47.3534 108.503 -53.5497 119.22 -53.5497 128.04V133.029C-53.5973 135.006 -53.1947 136.968 -52.3723 138.767L-61.8713 144.244C-63.3635 145.218 -64.6053 146.529 -65.4963 148.072C-66.3873 149.615 -66.9025 151.346 -67 153.125C-67 156.398 -64.7051 157.725 -61.8713 156.118L0.0816956 120.347C1.57326 119.373 2.8147 118.062 3.70564 116.519C4.59659 114.976 5.11205 113.246 5.21036 111.467C5.23032 108.104 2.92542 106.777 0.101654 108.414Z" fill="#ECF8FB"/>
<path d="M46.5489 128.15L39.255 132.361C39.2958 132.03 39.3158 131.697 39.3149 131.363V129.278C39.3149 125.526 36.6807 123.999 33.4279 125.885C32.0272 126.742 30.829 127.893 29.9156 129.258C29.3768 124.528 25.675 122.772 21.175 125.376C16.3057 128.18 12.3545 135.015 12.3545 140.643V143.806C12.3221 145.064 12.5781 146.313 13.1028 147.457L7.0462 150.96C6.09385 151.579 5.30107 152.414 4.73236 153.397C4.16366 154.38 3.8351 155.483 3.77344 156.617C3.77344 158.703 5.24019 159.551 7.0462 158.503L46.5489 135.703C47.5014 135.083 48.2942 134.246 48.8628 133.261C49.4314 132.276 49.7599 131.171 49.8216 130.036C49.8216 127.951 48.3549 127.152 46.5489 128.15Z" fill="#ECF8FB"/>
</g>
<ellipse cx="187.5" cy="289" rx="132.5" ry="16" fill="#F3F3F3"/>
<g clip-path="url(#clip0_6903_7045)">
<path d="M263.791 244.76C262.063 258.095 260.338 271.663 262.757 284.884C262.975 286.073 263.226 287.302 262.926 288.479C262.625 289.656 261.596 290.765 260.322 290.771C259.048 290.774 257.98 289.201 258.791 288.267C259.119 289.923 258.321 291.736 256.844 292.685C255.905 291.871 255.389 290.636 255.487 289.428C255.945 290.341 255.248 291.588 254.192 291.748C249.716 289.619 248.347 284.285 247.496 279.599C243.948 260.076 240.872 240.468 238.79 220.748C238.244 215.556 237.845 209.982 240.571 205.435C247.202 194.377 267.067 196.829 272.682 207.395C275.552 212.8 272.568 216.622 269.986 221.492C266.112 228.801 264.832 236.728 263.791 244.76Z" fill="#CC190E"/>
<path d="M154.681 157.279C162.165 163.052 166.276 172.098 167.363 181.208C168.449 190.315 166.773 199.538 164.32 208.421C161.867 217.301 158.632 225.987 156.498 234.943C152.535 251.59 152.48 269.066 156.529 285.661C156.87 287.053 157.573 288.798 155.967 289.28C154.666 289.569 154.091 288.755 153.904 287.839C154.119 291.244 150.03 291.588 149.622 287.907C151.089 288.988 149.014 291.413 147.233 290.909C145.45 290.408 144.606 288.512 144.102 286.813C142.592 281.701 142.079 276.376 141.247 271.122C138.527 253.916 132.283 237.235 122.969 222.272C117.738 213.869 111.534 205.978 107.276 197.093C103.018 188.207 100.826 177.908 104.105 168.626C107.38 159.35 115.865 153.488 125.935 153.027C136.504 152.541 145.395 150.114 154.681 157.279Z" fill="#CC190E"/>
<path d="M330.963 161.406C322.742 160.89 314.337 162.721 307.024 166.62C306.171 167.075 305.314 167.572 304.679 168.294C303.77 169.324 303.405 170.697 303.147 172.024C302.051 177.669 302.41 183.427 303.5 189C304.043 191.781 304.774 194.521 305.594 197.231C306.238 199.361 306.806 203.662 308.393 205.257C313.91 210.815 324.277 184.935 325.796 180.846C326.377 179.288 331.463 161.437 330.963 161.406Z" fill="#F03B2F"/>
<path d="M244.589 180.538C231.914 169.523 227.671 155.734 217.065 144.396C212.945 139.993 207.95 136.389 202.722 133.215C188.018 124.284 170.888 118.504 153.389 118.443C135.891 118.381 118.077 124.379 105.739 136.199C99.3841 142.289 94.6043 149.724 90.8836 157.525C87.6633 164.272 85.1644 171.517 85.3517 178.907C85.5881 188.18 90.285 197.247 97.8737 203.066C105.459 208.885 131.446 240.649 135.879 232.359C144.597 216.057 154.234 196.316 164.361 193.391C181.264 188.508 197.623 199.625 206.673 214.994C215.26 229.579 229.142 232.418 250.453 232.261C258.158 232.206 269.79 229.33 276.494 225.701C283.564 221.876 287.181 213.104 284.712 205.776C282.533 199.305 276.408 194.657 269.836 191.968C263.263 189.28 256.104 188.186 249.188 186.419C244.586 185.242 240.073 183.764 235.693 181.992C234.548 181.528 233.439 179.826 234.643 179.518L244.589 180.538Z" fill="#F03B2F"/>
<path d="M232.652 246.075C230.924 259.41 229.199 272.978 231.618 286.199C231.836 287.388 232.088 288.617 231.787 289.794C231.486 290.971 230.457 292.08 229.183 292.086C227.909 292.092 226.841 290.516 227.652 289.582C227.98 291.238 227.182 293.051 225.705 294C224.763 293.186 224.25 291.951 224.348 290.743C224.806 291.656 224.109 292.903 223.053 293.063C218.577 290.934 217.208 285.6 216.358 280.914C212.809 261.392 207.599 222.859 198.994 204.83C194.801 196.048 203.544 197.981 206.273 193.437C212.907 182.376 235.931 198.147 241.546 208.713C244.416 214.118 241.432 217.94 238.851 222.81C234.973 230.116 233.693 238.047 232.652 246.075Z" fill="#F03B2F"/>
<path d="M139.197 159.651C146.141 166.002 149.438 175.346 149.717 184.511C149.997 193.676 147.513 202.737 144.287 211.396C141.06 220.054 137.07 228.457 134.156 237.214C128.738 253.495 127.145 270.913 129.711 287.775C129.926 289.189 130.472 290.986 128.83 291.339C127.507 291.524 127.007 290.666 126.902 289.742C126.816 293.152 122.712 293.171 122.632 289.471C123.998 290.666 121.717 292.916 119.986 292.273C118.254 291.631 117.579 289.677 117.229 287.944C116.173 282.727 116.136 277.378 115.771 272.075C114.58 254.709 109.834 237.583 101.873 221.928C97.4037 213.138 91.9209 204.777 88.4643 195.581C85.0045 186.385 83.7305 175.945 87.8165 166.952C91.8964 157.965 100.867 152.793 110.939 153.135C121.508 153.488 130.58 151.773 139.197 159.651Z" fill="#F03B2F"/>
<path d="M239.39 215.464C237.984 214.689 236.603 213.86 235.415 212.809C234.162 211.7 233.156 210.372 232.225 209.008C224.925 198.282 222.466 183.86 228.913 172.596C230.138 170.454 231.676 168.442 233.668 166.902C236.766 164.506 240.79 163.391 244.772 163.126C252.419 162.622 259.959 165.053 266.801 168.3C275.108 172.243 282.93 177.61 287.888 185.058C291.053 189.811 292.898 195.465 292.785 201.118C292.665 207.119 289.875 211.534 286.811 216.573C284.653 220.121 283.115 222.367 278.596 223.068C272.465 224.02 265.822 223.553 259.753 222.515C252.603 221.286 245.671 218.917 239.39 215.464Z" fill="#CC190E"/>
<path d="M316.817 190.471C316.356 200.187 311.567 209.715 303.954 216.069C301.873 217.808 299.573 219.325 297.044 220.315C290.606 222.831 283.38 221.697 276.807 219.82C266.87 216.984 257.295 212.431 249.918 205.37C246.517 202.113 243.631 198.377 240.834 194.604C238.038 190.831 235.278 186.935 233.792 182.489C232.297 178.009 232.165 173.149 232.797 168.435C233.599 162.469 235.84 156.308 240.647 152.501C245.872 148.363 252.641 144.061 259.25 144.626C270.603 145.6 294.112 147.395 310.416 168.918C315.027 174.998 317.182 182.809 316.817 190.471Z" fill="#F03B2F"/>
<path d="M267.303 121.475C258.94 127.516 251.72 134.979 245.258 142.961C241.074 148.129 237.086 153.752 235.781 160.189C234.476 166.626 236.506 174.058 242.173 177.376C248.432 181.042 257.046 178.461 262.296 173.296C265.743 169.904 268.052 165.63 269.847 161.236C271.613 156.913 271.539 153.73 271.735 149.244C271.947 144.436 271.815 139.686 271.048 134.945C270.848 133.71 267.312 121.466 267.303 121.475Z" fill="#F03B2F"/>
<path d="M97.9159 120.252C98.6895 114.869 102.951 110.488 107.641 107.357C119.758 99.2641 135.092 97.3499 149.217 93.1375C158.086 90.4921 167.4 86.166 171.08 78.0668C174.654 70.2073 171.633 60.6856 165.502 54.4484C159.372 48.2143 150.681 44.7854 141.956 42.6991C135.93 41.2581 129.597 40.3702 123.494 41.5439C119.255 42.3581 114.588 45.0527 114.625 49.1514C114.653 52.0181 117.044 54.3655 119.614 55.8648C123.445 58.1016 127.899 59.1432 132.197 60.4152C136.495 61.6873 140.86 63.3126 143.973 66.3943C147.086 69.4761 148.609 74.3675 146.481 78.1467C143.792 82.9245 137.137 83.7909 131.497 84.599C118.248 86.4978 105.446 91.2326 94.3211 98.3516C85.136 104.229 76.6355 112.556 75.2142 122.962C74.545 127.854 75.512 132.831 77.1697 137.498C79.5734 144.276 83.4998 150.643 89.0501 155.476C94.6005 160.309 101.839 163.526 109.382 163.842C113.612 164.02 117.975 163.258 121.582 161.138C125.192 159.018 127.958 155.442 128.424 151.448C128.879 147.592 126.939 143.662 123.773 141.281C120.126 138.537 115.869 138.982 111.519 138.672C103.15 138.076 96.8538 127.648 97.9159 120.252Z" fill="#F03B2F"/>
<path d="M265.481 129.495C257.208 133.944 250.506 140.989 246.688 149.248C250.42 147.601 254.371 146.406 258.417 145.705C260.996 145.26 263.854 145.063 266.031 146.433C266.068 145.444 266.777 144.372 266.817 143.084C266.866 141.511 266.847 139.938 266.755 138.365C266.709 137.545 265.34 129.571 265.481 129.495Z" fill="#E5CAC6"/>
<path d="M319.515 187.436C318.855 180.999 316.033 174.787 311.561 169.923C311.914 170.307 321.903 165.91 322.99 165.508C323.739 165.231 326.987 163.554 327.555 164.168C327.963 164.614 326.962 166.86 326.852 167.419C325.424 174.608 323.711 181.147 319.515 187.436Z" fill="#E5CAC6"/>
<path d="M307.705 188.09C307.472 188.653 307.168 189.2 306.794 189.719C304.092 193.474 298.702 194.454 294.754 191.907C292.12 190.207 290.794 187.365 291.008 184.548C289.553 188.041 290.772 192.137 294.174 194.328C298.121 196.875 303.512 195.895 306.214 192.14C307.11 190.893 307.598 189.495 307.705 188.09Z" fill="#E9F1F4"/>
<path d="M306.139 192.42C303.437 196.174 298.047 197.154 294.099 194.607C290.151 192.06 289.144 186.954 291.845 183.199C294.547 179.444 299.941 178.464 303.886 181.011C307.833 183.559 308.843 188.665 306.139 192.42Z" fill="white"/>
<path d="M293.94 194.831C289.869 192.208 288.825 186.92 291.613 183.048C294.4 179.177 299.978 178.163 304.049 180.787C308.12 183.411 309.163 188.699 306.376 192.57C303.589 196.445 298.011 197.458 293.94 194.831ZM303.727 181.236C299.914 178.778 294.692 179.727 292.08 183.353C289.47 186.978 290.446 191.928 294.259 194.389C298.072 196.847 303.294 195.898 305.906 192.272C308.516 188.643 307.54 183.694 303.727 181.236Z" fill="#E0BA99"/>
<path d="M303.918 191.381C302.15 193.839 298.622 194.478 296.037 192.813C293.456 191.147 292.796 187.805 294.564 185.346C296.332 182.888 299.859 182.249 302.444 183.915C305.026 185.58 305.686 188.923 303.918 191.381Z" fill="#6B8C96"/>
<path d="M296.484 192.392C297.964 191.418 299.395 190.346 300.54 189.027C301.688 187.709 302.541 186.121 302.728 184.425C302.75 184.44 301.949 184.578 301.89 184.597C301.485 184.726 301.083 185.165 300.77 185.436C300.061 186.05 299.419 186.732 298.854 187.467C298.289 188.201 297.801 188.991 297.402 189.817C297.197 190.244 297.012 190.683 296.853 191.132C296.782 191.341 296.65 192.281 296.484 192.392Z" fill="#30211F"/>
<path d="M295.176 186.102C295.096 186.265 295.026 186.437 295.017 186.619C295.007 186.797 295.066 186.987 295.21 187.104C295.425 187.276 295.759 187.236 295.999 187.092C296.238 186.947 296.404 186.723 296.585 186.514C297.067 185.964 297.681 185.519 298.369 185.224C299.529 184.726 298.056 184.047 297.359 184.29C296.426 184.615 295.591 185.245 295.176 186.102Z" fill="white"/>
<path d="M299.589 184.747C299.751 184.892 299.994 184.938 300.215 184.913C300.439 184.889 300.648 184.8 300.847 184.701C300.952 184.649 301.071 184.566 301.05 184.455C301.044 184.415 301.019 184.382 300.991 184.351C300.755 184.074 300.15 183.838 299.77 183.958C299.407 184.068 299.297 184.489 299.589 184.747Z" fill="white"/>
<path d="M272.374 162.595C272.14 163.157 271.836 163.704 271.462 164.223C268.76 167.978 263.37 168.958 259.422 166.411C256.788 164.712 255.462 161.87 255.676 159.052C254.221 162.546 255.44 166.641 258.842 168.832C262.789 171.379 268.18 170.399 270.882 166.644C271.778 165.397 272.266 163.999 272.374 162.595Z" fill="#E9F1F4"/>
<path d="M270.807 166.924C268.105 170.679 262.715 171.659 258.767 169.112C254.819 166.565 253.812 161.458 256.513 157.703C259.215 153.949 264.609 152.969 268.553 155.516C272.501 158.063 273.511 163.169 270.807 166.924Z" fill="white"/>
<path d="M258.608 169.336C254.537 166.712 253.493 161.424 256.281 157.553C259.068 153.681 264.646 152.667 268.717 155.291C272.788 157.915 273.831 163.203 271.044 167.074C268.256 170.949 262.679 171.963 258.608 169.336ZM268.395 155.737C264.582 153.279 259.36 154.228 256.748 157.854C254.138 161.479 255.114 166.429 258.927 168.89C262.74 171.348 267.962 170.399 270.574 166.773C273.184 163.148 272.207 158.198 268.395 155.737Z" fill="#E0BA99"/>
<path d="M268.586 165.885C266.818 168.343 263.29 168.982 260.705 167.317C258.124 165.652 257.464 162.309 259.232 159.851C261 157.393 264.527 156.754 267.112 158.419C269.694 160.084 270.354 163.427 268.586 165.885Z" fill="#6B8C96"/>
<path d="M261.152 166.896C262.632 165.919 264.063 164.85 265.208 163.532C266.356 162.214 267.209 160.625 267.4 158.929C267.421 158.945 266.62 159.083 266.561 159.101C266.156 159.23 265.754 159.67 265.441 159.94C264.732 160.555 264.09 161.237 263.525 161.971C262.96 162.705 262.472 163.495 262.073 164.321C261.868 164.749 261.683 165.188 261.524 165.636C261.453 165.845 261.321 166.786 261.152 166.896Z" fill="#30211F"/>
<path d="M259.844 160.607C259.764 160.77 259.694 160.942 259.685 161.123C259.675 161.301 259.734 161.492 259.878 161.608C260.093 161.78 260.427 161.741 260.667 161.596C260.906 161.452 261.072 161.227 261.253 161.018C261.735 160.468 262.352 160.023 263.04 159.728C264.2 159.23 262.727 158.551 262.03 158.794C261.094 159.117 260.259 159.75 259.844 160.607Z" fill="white"/>
<path d="M264.257 159.252C264.419 159.396 264.662 159.442 264.883 159.418C265.104 159.393 265.316 159.304 265.512 159.206C265.617 159.153 265.736 159.07 265.715 158.96C265.709 158.92 265.684 158.886 265.657 158.855C265.42 158.579 264.815 158.342 264.435 158.462C264.076 158.573 263.965 158.994 264.257 159.252Z" fill="white"/>
<path d="M277.81 182.833C278.206 183.22 278.51 183.743 278.448 184.28C278.399 184.689 278.147 185.048 277.85 185.346C276.919 186.271 275.556 186.674 274.23 186.88C272.904 187.089 271.541 187.138 270.261 187.528C269.638 186.102 269.159 184.621 268.833 183.11C268.695 182.471 268.588 181.81 268.692 181.165C268.8 180.52 269.15 179.687 269.748 179.361C270.411 179.002 272.6 178.784 273.622 180.317C273.963 180.83 274.304 181.294 274.329 181.887C275.52 181.555 276.959 182 277.81 182.833Z" fill="#593E39"/>
<path d="M259.29 190.143C259.413 190.039 259.585 190.06 259.698 190.162C260.926 191.265 262.584 192.06 264.309 192.023C266.197 191.983 267.787 190.813 268.877 189.424C268.957 189.32 269.037 189.215 269.114 189.111C269.138 189.049 269.166 188.985 269.19 188.923C269.703 187.713 270.342 186.554 271.097 185.464C271.302 185.169 271.787 185.461 271.585 185.756C271.471 185.921 271.358 186.087 271.25 186.256C271.333 186.345 271.336 186.471 271.278 186.582C270.777 187.522 270.262 188.475 269.635 189.344C269.307 190.152 269.037 190.982 268.831 191.824C268.715 192.309 268.629 192.816 268.678 193.314C268.727 193.793 268.889 194.26 269.083 194.703C269.485 195.618 270.044 196.466 270.731 197.21C271.508 198.049 272.432 198.746 273.473 199.275C273.611 199.345 273.642 199.533 273.562 199.652C273.473 199.785 273.301 199.809 273.163 199.739C271.229 198.758 269.639 197.164 268.718 195.274C268.484 194.798 268.279 194.297 268.171 193.781C268.061 193.259 268.076 192.73 268.168 192.205C268.26 191.667 268.398 191.135 268.564 190.607C268.196 190.976 267.787 191.311 267.336 191.606C266.516 192.137 265.583 192.475 264.592 192.549C263.683 192.62 262.759 192.454 261.918 192.14C260.932 191.771 260.042 191.212 259.275 190.524C259.155 190.429 259.179 190.238 259.29 190.143Z" fill="#593E39"/>
<path d="M111.708 139.624C110.984 138.156 110.766 136.494 110.87 134.871C110.95 133.645 111.208 132.447 111.616 131.292C123.392 122.719 138.508 118.387 153.394 118.439C162.073 118.47 170.659 119.908 178.905 122.44C179.663 124.087 181.57 125.282 183.058 126.259C186.377 128.447 190.184 130.032 192.98 132.868C196.901 136.844 198.138 142.589 198.221 148.043C198.257 150.483 198.089 152.971 197.165 155.254C196.262 157.482 194.663 159.43 192.725 160.96C187.955 164.733 181.032 165.867 175.224 163.845C170.546 162.217 166.825 158.809 163.531 155.27C160.237 151.73 157.176 147.92 153.198 145.081C149.219 142.242 144.046 140.448 139.208 141.637C135.218 142.617 131.939 145.478 127.93 146.387C124.117 147.25 120.049 146.215 116.682 144.335C114.628 143.192 112.715 141.671 111.708 139.624Z" fill="#E21B1B"/>
<path d="M220.26 248.475C221.316 246.155 222.642 243.847 222.762 241.328C222.964 237.054 219.692 233.321 219.099 229.084C218.838 227.222 219.115 225.296 219.891 223.566C220.527 222.146 221.592 220.791 223.127 220.284C225.96 219.347 228.923 221.756 229.905 224.435C230.888 227.115 230.621 230.061 231.182 232.848C231.591 234.867 232.846 236.16 233.948 237.619C233.374 240.548 232.954 243.516 232.567 246.499C231.185 257.139 229.813 267.927 230.541 278.567C229.592 278.128 228.748 277.424 228.195 276.579C226.906 274.597 226.808 272.139 226.774 269.807C226.74 267.475 226.706 265.026 225.512 262.992C223.913 260.27 220.481 258.722 219.326 255.803C218.396 253.446 219.204 250.794 220.26 248.475Z" fill="#E21B1B"/>
<path d="M88.0623 195.596C86.5796 191.654 85.502 187.485 85.0723 183.297C89.4161 180.925 94.0762 178.999 99.077 179.93C103.516 180.756 107.08 183.862 109.935 187.187C112.787 190.511 115.225 194.214 118.66 196.997C121.493 199.293 125.021 200.982 126.952 204.006C129.678 208.274 128.358 213.835 126.132 218.376C123.906 222.917 120.815 227.222 120.06 232.172C119.495 235.868 120.216 239.927 118.153 243.116C116.68 245.39 113.822 246.744 111.034 246.646C108.698 238.141 105.496 229.852 101.475 221.94C97.0018 213.153 91.519 204.792 88.0623 195.596Z" fill="#E21B1B"/>
<path d="M269.088 173.745C268.474 172.436 269.248 170.881 270.329 169.877C271.412 168.872 272.791 168.187 273.853 167.157C275.71 165.36 276.373 162.536 275.492 160.17C274.758 158.207 273.082 156.603 272.659 154.557C272.275 152.704 272.993 150.799 273.893 149.109C274.295 148.357 274.746 147.613 275.25 146.913C281.19 148.261 287.723 150.477 294.108 154.29C293.165 156.087 293.316 158.533 294.132 160.435C294.676 161.704 295.535 162.834 296.045 164.116C296.911 166.294 296.665 168.847 295.394 170.847C294.123 172.848 291.855 174.255 289.417 174.553C285.693 175.011 281.942 173.026 278.267 173.751C276.616 174.077 275.121 174.931 273.469 175.266C271.814 175.604 269.77 175.201 269.088 173.745Z" fill="#8D3030"/>
<path d="M148.265 140.608C152.157 141.551 155.755 144.012 157.312 147.524C158.466 150.129 158.447 153.076 159.384 155.758C161.085 160.625 165.907 164.733 165.272 169.837C164.765 173.908 160.698 176.922 156.48 177.816C152.259 178.71 147.878 177.957 143.62 177.294C139.362 176.63 134.908 176.071 130.788 177.321C125.962 178.787 121.842 182.658 116.783 182.557C111.988 182.462 108.016 178.575 106.591 174.236C105.167 169.898 105.768 165.206 106.597 160.72C107.346 156.677 108.267 152.661 109.363 148.688C110.217 145.588 111.423 142.205 114.373 140.642C117.732 138.859 121.879 140.156 125.508 141.336C129.314 142.574 132.246 142.789 135.985 141.496C139.902 140.147 144.13 139.609 148.265 140.608Z" fill="#8D3030"/>
<path d="M217.88 151.101C217.281 152.664 217.174 154.388 217.57 156.004C218 157.759 219.019 159.467 218.721 161.249C218.325 163.615 215.277 165.182 212.944 164.279C210.475 163.323 209.505 160.499 209.251 157.98C208.996 155.46 209.122 152.76 207.728 150.606C206.951 149.404 205.775 148.498 204.735 147.493C203.694 146.489 202.739 145.284 202.607 143.877C202.475 142.473 203.482 140.897 204.968 140.805C206.592 140.703 207.436 142.107 208.716 142.731C210.171 143.444 211.743 143.352 213.217 143.96C216.075 145.14 219.013 148.136 217.88 151.101Z" fill="#8D3030"/>
<path d="M143.946 66.3945C140.833 63.3127 136.471 61.6874 132.17 60.4153C127.872 59.1433 123.418 58.1017 119.586 55.8649C117.017 54.3656 114.626 52.0151 114.598 49.1515C114.558 45.0528 119.227 42.3582 123.467 41.544C129.57 40.3733 135.903 41.2582 141.929 42.6992C149.647 44.5458 157.334 47.4401 163.249 52.3961C163.127 53.029 162.835 53.6159 162.338 54.0706C161.073 55.2259 159.087 55.1275 157.413 55.6314C154.42 56.5317 152.431 59.7609 153.079 62.6675C153.404 64.13 154.288 65.4174 154.875 66.8062C155.458 68.1949 155.71 69.8756 154.822 71.12C154.313 71.8328 153.496 72.2998 152.652 72.6194C150.973 73.2523 149.18 73.3721 147.378 73.2154C147.093 70.7113 145.803 68.2318 143.946 66.3945Z" fill="#8D3030"/>
<path d="M260.531 180.215C257.09 176.095 253.05 172.494 248.608 169.483C244.138 166.454 239.26 164.029 234.155 162.275C231.226 161.267 228.221 160.49 225.172 159.94C224.678 159.851 224.466 160.607 224.963 160.696C230.283 161.651 235.472 163.32 240.35 165.652C245.166 167.956 249.691 170.89 253.722 174.396C255.969 176.353 258.063 178.483 259.975 180.768C260.301 181.159 260.853 180.599 260.531 180.215Z" fill="#593E39"/>
<path d="M258.087 182.456C253.556 179.389 248.635 176.925 243.487 175.081C238.268 173.213 232.822 171.994 227.309 171.441C224.196 171.127 221.062 171.035 217.933 171.161C217.43 171.182 217.427 171.966 217.933 171.944C223.441 171.723 228.967 172.187 234.36 173.318C239.674 174.433 244.862 176.181 249.75 178.55C252.503 179.884 255.159 181.414 257.694 183.131C258.112 183.417 258.505 182.738 258.087 182.456Z" fill="#593E39"/>
<path d="M257.665 185.697C252.907 184.419 248.017 183.638 243.099 183.355C238.19 183.073 233.26 183.288 228.397 183.991C225.631 184.391 222.89 184.953 220.188 185.669C219.7 185.798 219.909 186.554 220.397 186.425C225.121 185.168 229.972 184.397 234.853 184.13C239.709 183.862 244.6 184.071 249.41 184.784C252.124 185.187 254.81 185.746 257.459 186.456C257.945 186.585 258.153 185.826 257.665 185.697Z" fill="#593E39"/>
<path d="M285.93 195.135C287.591 195.403 289.154 196.03 290.679 196.718C292.147 197.378 293.611 198.054 295.069 198.736C297.921 200.073 300.752 201.462 303.496 203.007C308.921 206.064 313.949 209.788 317.894 214.652C320.049 217.31 321.854 220.247 323.263 223.363C323.472 223.82 324.147 223.424 323.939 222.966C321.378 217.31 317.501 212.292 312.733 208.323C307.837 204.245 302.173 201.237 296.442 198.518C294.812 197.744 293.169 196.991 291.527 196.245C289.792 195.455 288.03 194.684 286.136 194.377C285.645 194.3 285.433 195.056 285.93 195.135Z" fill="#593E39"/>
<path d="M282.397 198.792C285.283 199.523 287.831 201.115 290.118 202.983C292.54 204.961 294.802 207.171 297.004 209.392C299.254 211.663 301.375 214.062 303.235 216.668C305.001 219.141 306.554 221.768 307.865 224.512C309.332 227.581 310.483 230.798 311.309 234.098C311.432 234.587 312.187 234.381 312.064 233.889C310.566 227.895 307.978 222.18 304.482 217.085C302.664 214.437 300.598 211.979 298.37 209.668C296.107 207.324 293.749 205.029 291.263 202.921C288.715 200.761 285.881 198.866 282.606 198.036C282.118 197.913 281.909 198.669 282.397 198.792Z" fill="#593E39"/>
<path d="M280.579 202.353C284.533 205.435 287.821 209.3 290.351 213.623C293.077 218.281 294.882 223.424 295.932 228.709C296.555 231.84 296.908 235.02 297.056 238.209C297.08 238.713 297.863 238.716 297.838 238.209C297.574 232.488 296.644 226.773 294.756 221.356C293.049 216.459 290.56 211.844 287.278 207.822C285.461 205.591 283.401 203.567 281.132 201.797C280.739 201.493 280.183 202.043 280.579 202.353Z" fill="#593E39"/>
</g>
<defs>
<clipPath id="clip0_6903_7045">
<rect width="256" height="253" fill="white" transform="translate(75 41)"/>
</clipPath>
</defs>
</svg>
