<svg width="443" height="488" viewBox="0 0 443 488" fill="none" xmlns="http://www.w3.org/2000/svg">
<path d="M433.295 452.129H398.453V452.457H433.295V452.129Z" fill="#284059"/>
<path d="M308.444 455.703H299.302V456.032H308.444V455.703Z" fill="#284059"/>
<path d="M397.401 439.938H377.213V440.266H397.401V439.938Z" fill="#284059"/>
<path d="M60.6239 442.145H15.188V442.473H60.6239V442.145Z" fill="#284059"/>
<path d="M76.6562 442.145H69.9971V442.473H76.6562V442.145Z" fill="#284059"/>
<path d="M196.858 447.689H98.3066V448.018H196.858V447.689Z" fill="#284059"/>
<path d="M209.324 372.393H6.20418C4.61105 372.393 3.08317 371.603 1.95665 370.196C0.830136 368.789 0.197266 366.881 0.197266 364.891V8.27616C0.211137 6.29791 0.850124 4.40658 1.97514 3.01386C3.10016 1.62113 4.62012 0.839768 6.20418 0.839844H209.324C210.917 0.839844 212.445 1.63023 213.572 3.03713C214.698 4.44403 215.331 6.3522 215.331 8.34185V364.891C215.331 366.881 214.698 368.789 213.572 370.196C212.445 371.603 210.917 372.393 209.324 372.393V372.393ZM6.20418 1.10261C4.68166 1.10609 3.22229 1.86298 2.1457 3.20753C1.0691 4.55208 0.463046 6.37469 0.460266 8.27616V364.891C0.463046 366.793 1.0691 368.615 2.1457 369.96C3.22229 371.304 4.68166 372.061 6.20418 372.065H209.324C210.847 372.061 212.306 371.304 213.383 369.96C214.459 368.615 215.065 366.793 215.068 364.891V8.27616C215.065 6.37469 214.459 4.55208 213.383 3.20753C212.306 1.86298 210.847 1.10609 209.324 1.10261H6.20418Z" fill="#284059"/>
<path d="M436.882 372.393H233.741C232.149 372.39 230.622 371.598 229.496 370.192C228.37 368.786 227.737 366.88 227.734 364.891V8.27616C227.75 6.29899 228.39 4.40964 229.515 3.01765C230.639 1.62566 232.158 0.843192 233.741 0.839844H436.882C438.462 0.846682 439.977 1.6311 441.097 3.02308C442.218 4.41507 442.854 6.30245 442.868 8.27616V364.891C442.868 366.876 442.238 368.78 441.116 370.187C439.994 371.593 438.471 372.386 436.882 372.393V372.393ZM233.741 1.10261C232.218 1.10609 230.759 1.86298 229.682 3.20753C228.606 4.55208 228 6.37469 227.997 8.27616V364.891C228 366.793 228.606 368.615 229.682 369.96C230.759 371.304 232.218 372.061 233.741 372.065H436.882C438.404 372.061 439.864 371.304 440.94 369.96C442.017 368.615 442.623 366.793 442.626 364.891V8.27616C442.623 6.37469 442.017 4.55208 440.94 3.20753C439.864 1.86298 438.404 1.10609 436.882 1.10261H233.741Z" fill="#284059"/>
<path d="M173.261 51.7773C174.145 51.7773 175.018 51.7774 175.891 51.8562C161.492 52.6742 147.9 60.3935 137.943 73.4083C127.985 86.4231 122.428 103.731 122.428 121.733C122.428 139.734 127.985 157.042 137.943 170.057C147.9 183.072 161.492 190.791 175.891 191.609C175.018 191.609 174.145 191.701 173.261 191.701C158.404 191.701 144.155 184.33 133.65 171.21C123.144 158.089 117.242 140.294 117.242 121.739C117.242 103.184 123.144 85.3891 133.65 72.2687C144.155 59.1483 158.404 51.7773 173.261 51.7773V51.7773Z" fill="#424961"/>
<path d="M181.677 51.8555H177.469V116.483H181.677V51.8555Z" fill="#424961"/>
<path d="M181.677 126.994H177.469V191.622H181.677V126.994Z" fill="#424961"/>
<path d="M105.66 207.27H85.0932C81.3632 207.27 78.3394 211.046 78.3394 215.704V223.101C78.3394 227.76 81.3632 231.536 85.0932 231.536H105.66C109.39 231.536 112.414 227.76 112.414 223.101V215.704C112.414 211.046 109.39 207.27 105.66 207.27Z" fill="#284059"/>
<path d="M113.097 177.67H92.5307C88.8007 177.67 85.7769 181.446 85.7769 186.105V193.502C85.7769 198.16 88.8007 201.937 92.5307 201.937H113.097C116.827 201.937 119.851 198.16 119.851 193.502V186.105C119.851 181.446 116.827 177.67 113.097 177.67Z" fill="#173352"/>
<path d="M138.03 207.27H123.396C119.666 207.27 116.643 211.046 116.643 215.704V223.101C116.643 227.76 119.666 231.536 123.396 231.536H138.03C141.76 231.536 144.784 227.76 144.784 223.101V215.704C144.784 211.046 141.76 207.27 138.03 207.27Z" fill="#173352"/>
<path d="M121.756 235.438H107.123C103.392 235.438 100.369 239.214 100.369 243.872V251.269C100.369 255.928 103.392 259.704 107.123 259.704H121.756C125.486 259.704 128.51 255.928 128.51 251.269V243.872C128.51 239.214 125.486 235.438 121.756 235.438Z" fill="#0B1F35"/>
<path d="M60.1185 54.9316H43.8862C40.1561 54.9316 37.1323 58.708 37.1323 63.3665V77.4114C37.1323 82.0698 40.1561 85.8462 43.8862 85.8462H60.1185C63.8486 85.8462 66.8724 82.0698 66.8724 77.4114V63.3665C66.8724 58.708 63.8486 54.9316 60.1185 54.9316Z" fill="#284059"/>
<path d="M101.357 54.9316H79.0126C75.2826 54.9316 72.2588 58.708 72.2588 63.3665V77.4114C72.2588 82.0698 75.2826 85.8462 79.0126 85.8462H101.357C105.087 85.8462 108.111 82.0698 108.111 77.4114V63.3665C108.111 58.708 105.087 54.9316 101.357 54.9316Z" fill="#173352"/>
<path d="M90.0905 90.8262H67.746C64.016 90.8262 60.9922 94.6026 60.9922 99.261V113.306C60.9922 117.964 64.016 121.741 67.746 121.741H90.0905C93.8206 121.741 96.8443 117.964 96.8443 113.306V99.261C96.8443 94.6026 93.8206 90.8262 90.0905 90.8262Z" fill="#0B1F35"/>
<path d="M364.031 124.682H334.123C330.392 124.682 327.369 128.458 327.369 133.116V147.161C327.369 151.82 330.392 155.596 334.123 155.596H364.031C367.761 155.596 370.785 151.82 370.785 147.161V133.116C370.785 128.458 367.761 124.682 364.031 124.682Z" fill="#284059"/>
<path d="M405.259 124.682H382.914C379.184 124.682 376.161 128.458 376.161 133.116V147.161C376.161 151.82 379.184 155.596 382.914 155.596H405.259C408.989 155.596 412.013 151.82 412.013 147.161V133.116C412.013 128.458 408.989 124.682 405.259 124.682Z" fill="#173352"/>
<path d="M384.524 160.562H362.179C358.449 160.562 355.425 164.339 355.425 168.997V183.042C355.425 187.701 358.449 191.477 362.179 191.477H384.524C388.254 191.477 391.277 187.701 391.277 183.042V168.997C391.277 164.339 388.254 160.562 384.524 160.562Z" fill="#0B1F35"/>
<path d="M400.536 85.2676H378.191C374.461 85.2676 371.438 89.044 371.438 93.7024V107.747C371.438 112.406 374.461 116.182 378.191 116.182H400.536C404.266 116.182 407.29 112.406 407.29 107.747V93.7024C407.29 89.044 404.266 85.2676 400.536 85.2676Z" fill="#0B1F35"/>
<path d="M238.958 487.249C351.609 487.249 442.93 480.59 442.93 472.377C442.93 464.163 351.609 457.504 238.958 457.504C126.307 457.504 34.9858 464.163 34.9858 472.377C34.9858 480.59 126.307 487.249 238.958 487.249Z" fill="#F5F5F5" fill-opacity="0.17"/>
<path d="M70.4604 416.104H33.5352V426.312H40.2995C41.8865 435.547 45.5782 444.011 50.9296 450.685C56.281 457.359 63.0638 461.958 70.4604 463.927V472.375H84.8412V416.104H70.4604Z" fill="#263238"/>
<path opacity="0.7" d="M70.4604 416.104H33.5352V426.312H40.2995C41.8865 435.547 45.5782 444.011 50.9296 450.685C56.281 457.359 63.0638 461.958 70.4604 463.927V472.375H84.8412V416.104H70.4604Z" fill="white"/>
<path d="M79.5399 416.104H42.6567V426.312H49.4211C51.0026 435.541 54.6872 444.003 60.031 450.676C65.3749 457.35 72.1499 461.952 79.5399 463.927V472.375H87.7139V416.104H79.5399Z" fill="#263238"/>
<path opacity="0.6" d="M79.5399 416.104H42.6567V426.312H49.4211C51.0026 435.541 54.6872 444.003 60.031 450.676C65.3749 457.35 72.1499 461.952 79.5399 463.927V472.375H87.7139V416.104H79.5399Z" fill="white"/>
<path d="M400.61 416.104H363.727V426.312H370.491C372.074 435.541 375.759 444.001 381.103 450.675C386.446 457.348 393.221 461.951 400.61 463.927V472.375H415.002V416.104H400.61Z" fill="#263238"/>
<path opacity="0.7" d="M400.61 416.104H363.727V426.312H370.491C372.074 435.541 375.759 444.001 381.103 450.675C386.446 457.348 393.221 461.951 400.61 463.927V472.375H415.002V416.104H400.61Z" fill="white"/>
<path d="M409.731 416.104H372.848V426.312H379.612C381.194 435.541 384.879 444.003 390.222 450.676C395.566 457.35 402.341 461.952 409.731 463.927V472.375H417.905V416.104H409.731Z" fill="#263238"/>
<path opacity="0.6" d="M409.731 416.104H372.848V426.312H379.612C381.194 435.541 384.879 444.003 390.222 450.676C395.566 457.35 402.341 461.952 409.731 463.927V472.375H417.905V416.104H409.731Z" fill="white"/>
<path d="M417.905 400.916H17.2192V417.562H417.905V400.916Z" fill="#263238"/>
<path opacity="0.8" d="M417.905 400.916H17.2192V417.562H417.905V400.916Z" fill="white"/>
<path opacity="0.1" d="M417.904 400.916H343.707V417.562H417.904V400.916Z" fill="black"/>
<path d="M129.982 395.886V366.548C132.875 366.548 132.875 360.937 129.982 360.937C121.029 360.937 112.098 360.859 103.114 360.793V401.522H129.982C132.875 401.561 132.875 395.886 129.982 395.886Z" fill="#263238"/>
<path opacity="0.3" d="M129.982 395.886V366.548C132.875 366.548 132.875 360.937 129.982 360.937C121.029 360.937 112.098 360.859 103.114 360.793V401.522H129.982C132.875 401.561 132.875 395.886 129.982 395.886Z" fill="white"/>
<path d="M129.982 366.547H109.11V395.832H129.982V366.547Z" fill="#F1463B"/>
<path opacity="0.8" d="M129.982 366.547H109.11V395.832H129.982V366.547Z" fill="white"/>
<path d="M113.497 398.684H41.1511C36.1752 398.684 32.146 390.867 32.146 381.21C32.146 371.554 36.1752 363.736 41.1511 363.736H113.497V398.684Z" fill="#F1463B"/>
<path opacity="0.9" d="M113.497 398.684H41.1511C36.1752 398.684 32.146 390.867 32.146 381.21C32.146 371.554 36.1752 363.736 41.1511 363.736H113.497V398.684Z" fill="white"/>
<path d="M113.497 360.937C89.806 360.937 66.0834 360.398 42.4029 360.937C26.181 361.305 25.3079 400.128 41.2246 401.495C52.3127 402.441 63.7164 401.495 74.8886 401.495H113.55C116.443 401.495 116.443 395.885 113.55 395.885H46.2216C41.0248 395.885 37.3112 395.806 35.3019 388.146C33.5661 381.577 34.1131 368.018 41.2246 366.547C42.0334 366.468 42.8459 366.468 43.6548 366.547H113.571C116.464 366.547 116.464 360.937 113.571 360.937H113.497Z" fill="#263238"/>
<path d="M125.237 356.785V333.386C125.689 333.342 126.112 333.088 126.42 332.672C126.728 332.257 126.899 331.712 126.899 331.145C126.899 330.579 126.728 330.034 126.42 329.619C126.112 329.203 125.689 328.949 125.237 328.905C118.105 328.905 110.951 328.84 103.808 328.787V361.265H125.237C125.689 361.222 126.112 360.967 126.42 360.552C126.728 360.137 126.899 359.591 126.899 359.025C126.899 358.459 126.728 357.914 126.42 357.498C126.112 357.083 125.689 356.828 125.237 356.785V356.785Z" fill="#F1463B"/>
<path opacity="0.3" d="M125.237 356.785V333.386C125.689 333.342 126.112 333.088 126.42 332.672C126.728 332.257 126.899 331.712 126.899 331.145C126.899 330.579 126.728 330.034 126.42 329.619C126.112 329.203 125.689 328.949 125.237 328.905C118.105 328.905 110.951 328.84 103.808 328.787V361.265H125.237C125.689 361.222 126.112 360.967 126.42 360.552C126.728 360.137 126.899 359.591 126.899 359.025C126.899 358.459 126.728 357.914 126.42 357.498C126.112 357.083 125.689 356.828 125.237 356.785V356.785Z" fill="white"/>
<path d="M125.248 333.387H108.595V356.76H125.248V333.387Z" fill="#F1463B"/>
<path opacity="0.8" d="M125.248 333.387H108.595V356.76H125.248V333.387Z" fill="white"/>
<path d="M112.087 359.018H54.3639C50.3978 359.018 47.1787 352.778 47.1787 345.079C47.1787 337.379 50.3978 331.139 54.3639 331.139H112.087V359.018Z" fill="#F1463B"/>
<path opacity="0.9" d="M112.087 359.018H54.3639C50.3978 359.018 47.1787 352.778 47.1787 345.079C47.1787 337.379 50.3978 331.139 54.3639 331.139H112.087V359.018Z" fill="white"/>
<path d="M112.087 328.906C93.1513 328.906 74.2153 328.472 55.3635 328.906C42.4239 329.195 41.6875 360.175 54.4272 361.265C63.2745 362.014 72.3743 361.265 81.2427 361.265H112.087C112.539 361.222 112.962 360.967 113.27 360.552C113.578 360.137 113.749 359.591 113.749 359.025C113.749 358.459 113.578 357.914 113.27 357.499C112.962 357.083 112.539 356.828 112.087 356.785H58.3511C54.2063 356.785 51.2396 356.72 49.6406 350.61C48.2519 345.355 48.6938 334.542 54.3641 333.386C55.0117 333.32 55.6626 333.32 56.3103 333.386H112.066C112.518 333.342 112.94 333.088 113.249 332.672C113.557 332.257 113.728 331.712 113.728 331.146C113.728 330.58 113.557 330.034 113.249 329.619C112.94 329.204 112.518 328.949 112.066 328.906H112.087Z" fill="#F1463B"/>
<path d="M216.025 213.351C216.025 213.351 221.811 215.716 228.88 207.308C235.95 198.899 250.089 180.032 255.875 177.221C261.661 174.409 267.131 164.779 271.949 162.374C276.767 159.97 275.873 163.583 275.873 163.583C275.873 163.583 281.933 160.666 280.944 166.395C280.944 166.395 284.047 167.998 281.049 171.203C278.051 174.409 267.773 184.447 264.217 185.248C264.217 185.248 250.709 206.927 243.64 217.372C236.57 227.817 230.69 229.787 230.742 252.674C230.795 275.561 216.025 213.351 216.025 213.351Z" fill="#F1463B"/>
<path opacity="0.2" d="M221.275 213.064C219.575 213.754 217.757 213.854 216.015 213.353C216.015 213.353 230.796 275.564 230.743 252.677C230.743 235.15 234.152 229.882 238.938 223.68C230.449 231.642 223.39 217.86 221.275 213.064Z" fill="black"/>
<path opacity="0.4" d="M280.944 166.383C281.933 160.655 275.873 163.571 275.873 163.571C275.873 163.571 276.767 159.958 271.949 162.363C267.131 164.767 261.661 174.41 255.875 177.209C254.082 178.264 252.412 179.616 250.909 181.229C251.477 186.143 253.571 192.436 260.682 190.925L264.238 185.236C267.773 184.435 278.051 174.41 281.07 171.192C284.089 167.973 280.944 166.383 280.944 166.383Z" fill="white"/>
<path d="M281.059 167.696C281.059 167.696 283.163 166.159 284.13 167.473C283.11 167.582 282.162 168.174 281.479 169.128L281.059 167.696Z" fill="#F1463B"/>
<path d="M278.44 163.756C278.944 162.77 279.706 162.033 280.596 161.671C281.487 161.31 282.45 161.345 283.322 161.772C282.516 161.841 281.751 162.24 281.146 162.908C280.541 163.575 280.13 164.474 279.976 165.464L278.44 163.756Z" fill="#F1463B"/>
<path d="M273.79 162.323C273.79 162.323 275.063 158.381 277.504 159.353C276.862 159.59 276.297 160.075 275.891 160.739C275.484 161.402 275.257 162.21 275.242 163.045L273.79 162.323Z" fill="#F1463B"/>
<g opacity="0.6">
<path opacity="0.6" d="M281.061 167.696C281.061 167.696 283.165 166.159 284.132 167.473C283.112 167.582 282.164 168.174 281.481 169.128L281.061 167.696Z" fill="white"/>
<path opacity="0.6" d="M278.441 163.754C278.944 162.768 279.706 162.031 280.597 161.67C281.487 161.308 282.451 161.343 283.322 161.77C282.517 161.839 281.752 162.238 281.147 162.906C280.542 163.573 280.13 164.472 279.977 165.462L278.441 163.754Z" fill="white"/>
<path opacity="0.6" d="M273.791 162.323C273.791 162.323 275.064 158.381 277.505 159.353C276.863 159.59 276.298 160.075 275.891 160.739C275.485 161.402 275.258 162.21 275.243 163.045L273.791 162.323Z" fill="white"/>
</g>
<path opacity="0.2" d="M277.505 167.486C277.505 167.486 273.297 168.037 271.34 171.427C271.392 171.427 271.74 165.292 277.505 167.486Z" fill="black"/>
<path d="M161.753 349.531C161.753 349.531 163.341 380.432 140.986 382.075C118.631 383.717 101.357 391.929 98.9061 364.009C96.0867 331.939 84.7041 350.7 87.0711 371.814C89.4381 392.927 98.1171 399.812 119.683 400.797C141.249 401.782 164.498 396.855 166.413 378.948L161.753 349.531Z" fill="#F1463B"/>
<path opacity="0.3" d="M98.4858 360.162C95.6138 337.499 87.6817 347.3 86.8296 363.211C88.4934 361.712 90.3907 360.666 92.3986 360.141C94.4065 359.616 96.4803 359.623 98.4858 360.162Z" fill="white"/>
<path opacity="0.3" d="M98.9695 364.588C95.5926 364.929 90.4904 366.296 87.0083 371.157C87.0083 371.394 87.0083 371.617 87.0714 371.84C87.3503 374.457 87.7864 377.044 88.3759 379.579C90.0486 375.861 93.3729 371.538 99.9479 370.618C99.4898 368.645 99.1626 366.628 98.9695 364.588Z" fill="white"/>
<g opacity="0.3">
<path opacity="0.3" d="M107.71 382.589C105.959 381.686 104.397 380.292 103.145 378.516C100.167 381.051 96.0752 386.018 96.3592 394.006C98.2215 395.544 100.242 396.759 102.366 397.619C102.507 391.929 104.425 386.534 107.71 382.589V382.589Z" fill="white"/>
<path opacity="0.3" d="M123.585 400.916C122.849 397.053 121.934 390.247 122.996 384.125C120.661 384.361 118.451 384.493 116.39 384.453C114.752 389.546 114.385 395.138 115.338 400.495C116.737 400.627 118.178 400.732 119.693 400.798C120.955 400.863 122.281 400.903 123.585 400.916Z" fill="white"/>
<path opacity="0.3" d="M154.524 375.283C152.728 377.412 150.611 379.073 148.296 380.171C149.916 384.336 152.504 389 156.081 388.868C161.151 388.737 156.722 381.774 154.524 375.283Z" fill="white"/>
<path opacity="0.3" d="M137.408 396.987C140.732 396.855 139.649 388.394 139.165 382.232C136.756 382.443 134.42 382.719 132.148 383.008C132.653 388.132 134.021 397.118 137.408 396.987Z" fill="white"/>
</g>
<path opacity="0.1" d="M156.956 393.679C162.216 390.25 165.719 385.467 166.424 378.964L161.763 349.547C161.915 355.519 161.033 361.462 159.175 366.968C159.289 372.096 159.9 377.187 160.995 382.13C162.173 387.333 159.754 391.13 156.956 393.679Z" fill="black"/>
<path d="M178.911 311.772C178.911 311.772 207.315 299.947 220.286 317.474C233.258 335 212.165 382.785 221.675 384.69C231.185 386.595 259.179 378.396 263.366 386.004C264.481 388 265.311 390.222 265.817 392.573C265.998 393.489 266.009 394.445 265.849 395.367C265.69 396.29 265.364 397.154 264.896 397.896C264.428 398.637 263.831 399.235 263.15 399.645C262.47 400.054 261.723 400.264 260.967 400.259H204.065C204.065 400.259 200.635 400.259 202.918 394.557C202.876 394.557 153.043 376.859 178.911 311.772Z" fill="#F1463B"/>
<path opacity="0.2" d="M178.911 311.772C178.911 311.772 207.315 299.947 220.286 317.474C233.258 335 212.165 382.785 221.675 384.69C231.185 386.595 259.179 378.396 263.366 386.004C264.481 388 265.311 390.222 265.817 392.573C265.998 393.489 266.009 394.445 265.849 395.367C265.69 396.29 265.364 397.154 264.896 397.896C264.428 398.637 263.831 399.235 263.15 399.645C262.47 400.054 261.723 400.264 260.967 400.259H204.065C204.065 400.259 200.635 400.259 202.918 394.557C202.876 394.557 153.043 376.859 178.911 311.772Z" fill="black"/>
<path d="M192.176 178.207C192.176 178.207 193.933 164.845 195.858 163.532C197.783 162.218 197.962 174.266 199.393 176.013L192.176 178.207Z" fill="#F1463B"/>
<path opacity="0.2" d="M192.176 178.207C192.176 178.207 193.933 164.845 195.858 163.532C197.783 162.218 197.962 174.266 199.393 176.013L192.176 178.207Z" fill="black"/>
<path d="M216.309 179.247C216.15 178.765 216.089 178.241 216.13 177.723C216.278 176.199 217.466 175.542 218.529 175.2C218.918 175.082 218.75 174.32 218.361 174.438C217.713 174.539 217.102 174.87 216.6 175.391C216.098 175.913 215.727 176.604 215.531 177.381C215.422 178.146 215.502 178.935 215.762 179.641C215.941 180.101 216.478 179.641 216.309 179.247V179.247Z" fill="#F1463B"/>
<path d="M217.93 181.518C218.382 179.008 220.781 178.351 222.517 178.457C222.917 178.457 222.917 177.695 222.517 177.668C220.497 177.55 217.835 178.457 217.32 181.308C217.236 181.807 217.846 182.017 217.93 181.518V181.518Z" fill="#F1463B"/>
<path d="M219.024 183.345C219.707 181.913 221.464 182.452 222.432 182.938C222.811 183.122 222.969 182.36 222.6 182.176C221.327 181.545 219.329 181.19 218.477 182.938C218.433 183.028 218.421 183.137 218.441 183.239C218.462 183.341 218.514 183.429 218.587 183.483C218.66 183.537 218.746 183.553 218.828 183.527C218.91 183.501 218.98 183.436 219.024 183.345V183.345Z" fill="#F1463B"/>
<g opacity="0.5">
<path opacity="0.5" d="M216.31 179.247C216.151 178.765 216.09 178.241 216.131 177.723C216.279 176.199 217.467 175.542 218.53 175.2C218.919 175.082 218.751 174.32 218.362 174.438C217.714 174.539 217.103 174.87 216.601 175.391C216.099 175.913 215.728 176.604 215.532 177.381C215.423 178.146 215.503 178.935 215.763 179.641C215.942 180.101 216.479 179.641 216.31 179.247V179.247Z" fill="white"/>
<path opacity="0.5" d="M217.931 181.52C218.383 179.01 220.782 178.353 222.517 178.459C222.917 178.459 222.917 177.696 222.517 177.67C220.497 177.552 217.836 178.459 217.32 181.31C217.236 181.809 217.846 182.019 217.931 181.52V181.52Z" fill="white"/>
<path opacity="0.5" d="M219.024 183.347C219.708 181.915 221.465 182.454 222.433 182.94C222.811 183.124 222.969 182.362 222.601 182.178C221.328 181.547 219.329 181.192 218.477 182.94C218.434 183.03 218.421 183.139 218.442 183.241C218.463 183.343 218.515 183.431 218.588 183.485C218.66 183.539 218.747 183.555 218.829 183.529C218.911 183.503 218.981 183.438 219.024 183.347V183.347Z" fill="white"/>
</g>
<path d="M217.056 202.71C213.511 209.279 221.264 214.535 228.502 236.068C235.739 257.602 225.482 288.162 224.63 324.95C223.778 361.737 210.786 367.281 210.786 367.281L197.436 396.751C197.436 396.751 164.477 401.126 161.321 371.788C158.165 342.45 166.581 313.979 172.893 292.524C179.205 271.069 191.482 253.976 187.621 241.284C185.117 232.362 183.468 223.101 182.708 213.694C182.708 213.694 175.344 206.678 173.945 192.226C173.945 192.226 167.98 173.832 170.789 169.89C173.598 165.949 185.517 181.715 185.517 181.715C185.517 181.715 195.721 173.398 199.393 173.832C203.064 174.265 207.609 182.162 214.973 178.22C214.973 178.207 225.809 186.484 217.056 202.71Z" fill="#F1463B"/>
<path opacity="0.2" d="M224.63 324.952C225.483 288.165 235.771 257.578 228.502 236.071C221.232 214.563 213.532 209.295 217.056 202.713C225.809 186.487 214.952 178.223 214.952 178.223C214.521 178.446 214.1 178.63 213.69 178.788C212.375 179.904 211.217 181.271 211.312 182.598C211.501 185.593 212.838 188.142 208.482 195.355C202.57 205.143 210.975 220.607 217.351 230.934C223.726 241.261 226.219 239.145 226.819 256.869C227.544 277.457 215.857 302.617 212.091 318.948C208.935 332.73 204.285 359.598 206.494 376.533L210.702 367.336C210.702 367.336 223.778 361.74 224.63 324.952Z" fill="white"/>
<path opacity="0.6" d="M214.973 179.588C214.973 179.588 212.585 180.324 213.175 181.388C213.764 182.452 218.792 184.016 214.973 179.588Z" fill="#263238"/>
<path opacity="0.2" d="M179.384 189.599L183.855 184.344C183.855 184.344 174.776 169.892 172.02 171.862C169.264 173.833 177.932 175.975 179.384 189.599Z" fill="black"/>
<path opacity="0.2" d="M198.572 179.64C198.877 178.326 196.184 176.198 194.175 179.154C192.165 182.11 198.267 180.967 198.572 179.64Z" fill="white"/>
<path opacity="0.2" d="M201.445 177.51C200.877 177.904 199.341 175.749 200.33 174.541C201.318 173.332 202.023 177.103 201.445 177.51Z" fill="white"/>
<g opacity="0.6">
<path opacity="0.6" d="M209.934 187.403C207.009 186.97 204.285 189.427 202.643 192.186C202.401 192.606 202.948 192.987 203.19 192.593C204.705 190.031 207.241 187.784 209.934 188.192C210.334 188.192 210.334 187.456 209.934 187.403Z" fill="white"/>
<path opacity="0.6" d="M210.291 189.662C207.009 190.844 205.179 195.272 204.632 199.148C204.558 199.634 205.168 199.857 205.242 199.358C205.747 195.758 207.346 191.475 210.449 190.424C210.526 190.393 210.591 190.327 210.63 190.239C210.669 190.151 210.679 190.047 210.659 189.95C210.639 189.852 210.589 189.768 210.521 189.715C210.453 189.661 210.371 189.642 210.291 189.662V189.662Z" fill="white"/>
<path opacity="0.6" d="M212.08 191.201C211.334 192.305 210.771 193.583 210.424 194.961C210.077 196.339 209.954 197.79 210.06 199.228C210.06 199.727 210.702 199.727 210.691 199.228C210.586 197.889 210.693 196.537 211.007 195.249C211.321 193.962 211.836 192.765 212.522 191.726C212.806 191.371 212.364 190.807 212.08 191.174V191.201Z" fill="white"/>
</g>
<path opacity="0.2" d="M181.488 329.549L178.816 335.869L182.845 342.648L194.943 354.039C194.943 354.039 202.254 364.629 209.303 370.449L210.744 367.27C210.744 367.27 217.056 364.576 221.148 350.545C214.836 320.103 181.488 329.549 181.488 329.549Z" fill="black"/>
<path opacity="0.1" d="M228.744 281.699L209.893 270.177L202.876 260.533L201.824 267.102C201.824 267.102 201.676 298.162 217.604 301.262C221.286 301.998 224.053 300.934 226.398 300.474C227.135 293.957 227.977 287.69 228.744 281.699Z" fill="black"/>
<g opacity="0.3">
<path opacity="0.3" d="M183.918 224.06C192.25 223.771 205.074 211.645 195.859 213.694C191.547 214.676 187.152 214.959 182.782 214.535C182.908 216.085 183.256 219.62 183.918 224.06Z" fill="white"/>
<path opacity="0.3" d="M199.056 238.159C195.118 239.454 191.013 239.758 186.979 239.052C187.179 239.801 187.4 240.55 187.621 241.286C188.49 244.449 188.596 247.862 187.926 251.1C198.373 249.274 207.325 235.531 199.056 238.159Z" fill="white"/>
<path opacity="0.3" d="M187.906 310.471C178.375 311.404 172.536 306.7 169.706 303.508C168.591 307.449 167.476 311.654 166.424 315.95C185.981 322.729 201.234 309.184 187.906 310.471Z" fill="white"/>
<path opacity="0.3" d="M195.859 276.259C190.621 276.284 185.508 274.263 181.236 270.479C179.647 274.236 177.964 278.191 176.386 282.303C190.82 289.766 206.421 276.548 195.859 276.259Z" fill="white"/>
</g>
<path d="M203.285 182.688C203.78 183.871 203.664 185.171 203.001 185.539C202.338 185.907 201.507 185.316 201.013 184.107C200.518 182.898 200.645 181.611 201.307 181.243C201.97 180.875 202.801 181.466 203.285 182.688Z" fill="#263238"/>
<path d="M197.805 185.539C197.903 185.506 197.993 185.441 198.065 185.351C198.137 185.261 198.189 185.149 198.215 185.026C198.447 184.06 198.851 183.173 199.398 182.43C199.945 181.688 200.619 181.111 201.371 180.743C201.447 180.698 201.515 180.635 201.571 180.557C201.627 180.479 201.67 180.387 201.697 180.288C201.725 180.189 201.736 180.084 201.731 179.98C201.725 179.875 201.703 179.773 201.666 179.679C201.605 179.533 201.51 179.413 201.393 179.336C201.277 179.258 201.144 179.227 201.013 179.245V179.245C200.069 179.675 199.218 180.373 198.527 181.286C197.837 182.198 197.327 183.299 197.037 184.501C197.009 184.597 196.997 184.7 197.001 184.802C197.006 184.905 197.027 185.005 197.063 185.097C197.1 185.189 197.151 185.271 197.213 185.338C197.275 185.405 197.348 185.455 197.426 185.486V185.486C197.543 185.562 197.678 185.581 197.805 185.539Z" fill="#263238"/>
<path opacity="0.2" d="M230.48 266.589C227.735 261.964 224.926 242.94 224.926 242.94L223.664 239.445L220.771 247L223.138 266.234L229.67 274.236C229.975 271.634 230.26 269.085 230.48 266.589Z" fill="black"/>
<path d="M209.629 238.224C209.629 238.224 220.149 227.713 224.01 238.224C227.871 248.735 224.957 275.104 236.234 276.417C247.511 277.731 262.818 283.315 262.818 283.315C262.818 283.315 277.546 287.112 274.148 292.985C274.148 292.985 278.819 299.37 273.896 301.722C273.896 301.722 272.707 307.858 266.405 302.523C266.405 302.523 265.353 307.844 256.338 298.437C256.338 298.437 242.904 290.186 222.674 296.624C202.444 303.062 194.522 252.348 209.629 238.224Z" fill="#F1463B"/>
<path opacity="0.4" d="M274.148 292.932C277.588 287.059 262.818 283.262 262.818 283.262C256.127 280.892 249.343 278.954 242.493 277.455C240.294 278.099 237.833 279.413 236.928 282.132C235.434 286.678 240.894 290.974 241.704 294.272C250.888 295.047 256.337 298.385 256.337 298.385C265.342 307.792 266.405 302.471 266.405 302.471C272.717 307.805 273.895 301.669 273.895 301.669C278.819 299.317 274.148 292.932 274.148 292.932Z" fill="white"/>
<g opacity="0.2">
<path opacity="0.2" d="M267.184 296.033C267.184 296.033 271.518 297.347 272.843 300.395C272.801 300.395 272.559 294.785 267.184 296.033Z" fill="black"/>
<path opacity="0.2" d="M265.974 290.83C265.974 290.83 270.466 289.963 272.802 292.288C272.802 292.288 269.972 287.085 265.974 290.83Z" fill="black"/>
</g>
<path d="M169.968 332.793C169.968 332.793 197.32 320.969 210.291 338.495C223.263 356.022 209.534 384.099 219.044 386.004C228.554 387.909 250.236 378.396 254.423 386.004C255.538 388 256.368 390.222 256.874 392.573C257.055 393.489 257.066 394.445 256.906 395.367C256.747 396.29 256.421 397.155 255.953 397.896C255.485 398.637 254.888 399.235 254.207 399.645C253.527 400.054 252.78 400.264 252.024 400.259H195.08C195.08 400.259 191.65 400.259 193.933 394.557C193.933 394.557 144.1 397.881 169.968 332.793Z" fill="#F1463B"/>
<path opacity="0.3" d="M190.914 342.281C177.353 342.281 171.862 338.812 168.033 337.919C166.078 337.365 164.227 336.344 162.583 334.91C161.855 339.571 161.321 344.277 160.984 349.008C164.856 350.847 164.593 349.349 164.593 349.349C174.944 354.723 204.474 342.281 190.914 342.281Z" fill="white"/>
<g opacity="0.1">
<path opacity="0.1" d="M191.893 388.909C186.107 388.541 171.463 389.605 164.362 376.848C171.084 396.069 193.934 394.558 193.934 394.558C193.934 394.558 197.679 389.29 191.893 388.909Z" fill="black"/>
</g>
</svg>
