<svg width="782" height="487" viewBox="0 0 782 487" fill="none" xmlns="http://www.w3.org/2000/svg">
<g opacity="0.4">
<path d="M611.632 147.314L590.15 159.705C590.267 158.766 590.33 157.821 590.337 156.874V150.651C590.337 139.572 582.558 135.092 572.961 140.622C568.813 143.173 565.27 146.595 562.576 150.651C561.02 136.723 550.091 131.531 536.82 139.198C522.479 147.483 510.839 167.615 510.839 184.186V193.559C510.749 197.273 511.505 200.959 513.05 204.338L495.205 214.629C492.402 216.458 490.069 218.921 488.395 221.82C486.721 224.718 485.753 227.97 485.57 231.312C485.57 237.461 489.881 239.954 495.205 236.936L611.595 169.734C614.397 167.904 616.729 165.44 618.403 162.542C620.077 159.643 621.045 156.392 621.23 153.05C621.267 146.733 616.937 144.24 611.632 147.314Z" fill="#D9F1F8" fill-opacity="0.5"/>
<path d="M698.892 184.393L685.189 192.303C685.266 191.681 685.303 191.055 685.302 190.429V186.511C685.302 179.463 680.353 176.595 674.242 180.137C671.61 181.748 669.359 183.91 667.644 186.473C666.631 177.588 659.677 174.289 651.223 179.181C642.075 184.449 634.652 197.289 634.652 207.862V213.804C634.591 216.168 635.072 218.515 636.058 220.665L624.679 227.244C622.89 228.407 621.401 229.976 620.332 231.823C619.264 233.669 618.647 235.743 618.531 237.873C618.531 241.791 621.286 243.384 624.679 241.416L698.892 198.583C700.681 197.416 702.171 195.844 703.239 193.994C704.307 192.144 704.924 190.069 705.04 187.936C705.04 184.018 702.285 182.518 698.892 184.393Z" fill="#D9F1F8" fill-opacity="0.5"/>
</g>
<path d="M781.749 228.726H699.602V250.459H781.749V228.726Z" fill="#F5F5F5"/>
<path d="M747.019 273.299C747.005 273.168 747.005 273.035 747.019 272.904C747.019 272.622 747.019 272.249 747.019 271.775C747.019 270.747 747.019 269.325 747.019 267.496C747.019 263.748 746.929 258.351 746.873 251.554L747.132 251.803L664.986 251.972C665.166 251.78 664.557 252.39 665.392 251.554V273.299L664.975 272.893L723.525 273.085L740.799 273.197L745.473 273.254H746.692H747.132C747.005 273.269 746.876 273.269 746.748 273.254H745.619L741.036 273.31L723.852 273.423L665.02 273.615H664.613V262.517C664.613 260.699 664.613 258.87 664.613 257.03V251.487L665.042 251.058L747.189 251.227H747.437V251.487C747.437 258.351 747.336 263.793 747.302 267.575C747.302 269.381 747.302 270.793 747.234 271.797C747.234 272.238 747.234 272.588 747.234 272.87C747.234 273.152 747.019 273.356 747.019 273.299Z" fill="#E0E0E0"/>
<path d="M93.2014 400.052C93.1929 399.92 93.1929 399.788 93.2014 399.656C93.2014 399.363 93.2014 399.002 93.2014 398.527C93.2014 397.511 93.2014 396.078 93.1336 394.249C93.1336 390.5 93.0546 385.104 92.9982 378.307L93.2465 378.567L11.1001 378.725C11.292 378.544 10.6823 379.142 11.5178 378.307V389.337C11.5178 392.961 11.5178 396.529 11.5178 400.029L11.1113 399.623L69.6503 399.803L86.9354 399.916L91.6095 399.973H92.8288C92.9714 399.957 93.1152 399.957 93.2578 399.973C93.1301 399.984 93.0016 399.984 92.874 399.973H91.745H87.1612L69.9664 400.097L11.1452 400.277H10.7388V399.871C10.7388 396.371 10.7388 392.807 10.7388 389.179V378.296L11.1565 377.878L93.303 378.036H93.5627V378.296C93.4949 385.16 93.4498 390.602 93.4159 394.395C93.4159 396.202 93.4159 397.602 93.4159 398.618C93.4159 399.047 93.4159 399.408 93.4159 399.679C93.3689 399.816 93.2961 399.942 93.2014 400.052Z" fill="#E0E0E0"/>
<path d="M462.239 419.584H380.093V441.317H462.239V419.584Z" fill="#34495C"/>
<path d="M427.499 464.213C427.491 464.082 427.491 463.95 427.499 463.818C427.499 463.524 427.499 463.152 427.499 462.689C427.499 461.662 427.499 460.239 427.432 458.41C427.432 454.662 427.353 449.265 427.296 442.468L427.544 442.717L345.398 442.886L345.816 442.468V453.499C345.816 457.123 345.816 460.691 345.816 464.179L345.409 463.773L403.948 463.965L421.222 464.1L425.896 464.157H427.115H427.544H427.161H426.032L421.448 464.213L404.253 464.326L345.432 464.518H345.025V464.1C345.025 460.612 345.025 457.044 345.025 453.42V442.389L345.443 441.972L427.59 442.13H427.849V442.389C427.782 449.254 427.736 454.696 427.702 458.478C427.702 460.284 427.702 461.695 427.646 462.7C427.646 463.141 427.646 463.491 427.646 463.829C427.621 463.965 427.571 464.095 427.499 464.213Z" fill="#E0E0E0"/>
<path d="M118.129 98.8672H35.9829V120.601H118.129V98.8672Z" fill="#284059"/>
<path d="M83.4014 143.464C83.386 143.332 83.386 143.2 83.4014 143.068C83.4014 142.775 83.4014 142.414 83.4014 141.939C83.4014 140.923 83.4014 139.489 83.4014 137.66C83.4014 133.912 83.3224 128.516 83.2547 121.719L83.5143 121.979L1.23238 122.182L1.65011 121.764V132.794C1.65011 136.415 1.65011 139.979 1.65011 143.486L1.24367 143.08L59.7826 143.26L77.0564 143.373H81.7305H82.9611C83.1037 143.358 83.2476 143.358 83.3901 143.373C83.2624 143.384 83.134 143.384 83.0063 143.373H81.8773H77.2935L60.11 143.497L1.28882 143.678H0.871094V121.55L1.28882 121.132L83.4353 121.29H83.6498V121.55C83.6498 128.414 83.5482 133.856 83.5143 137.649C83.5143 139.456 83.5143 140.856 83.4466 141.872C83.4466 142.301 83.4466 142.662 83.4466 142.933C83.4572 143.111 83.442 143.29 83.4014 143.464Z" fill="#E0E0E0"/>
<path d="M297.518 43.8615C297.502 43.7302 297.502 43.5976 297.518 43.4663C297.518 43.1728 297.518 42.7965 297.518 42.3373C297.518 41.3099 297.518 39.8874 297.461 38.0584C297.461 34.3101 297.382 28.9134 297.314 22.1168L297.574 22.3652L215.428 22.5346L215.845 22.1168V27.6603C215.845 29.5005 215.845 31.3295 215.845 33.1472V43.8389L215.439 43.4212L273.978 43.6131L291.252 43.726H295.926H297.145H297.585H297.202H296.073L291.489 43.7825L274.305 43.8954L215.484 44.0873H215.066V27.6828C215.066 26.7683 215.066 25.8426 215.066 24.9168V22.1394L215.495 21.7217L297.642 21.8797H297.902V22.1394C297.902 29.0038 297.8 34.4456 297.766 38.239C297.766 40.0342 297.766 41.4454 297.698 42.4502C297.698 42.8905 297.698 43.2405 297.698 43.5792C297.646 43.6782 297.586 43.7726 297.518 43.8615Z" fill="#E0E0E0"/>
<path d="M308.65 22.1285C308.634 21.9897 308.634 21.8496 308.65 21.7108C308.65 21.3947 308.65 21.0221 308.65 20.5818C308.65 19.4528 308.65 18.0641 308.571 16.2238C308.571 12.4191 308.48 7.03371 308.413 0.417731L308.706 0.711275L259.357 0.835462L259.775 0.417731V11.5836C259.775 15.219 259.775 18.7528 259.775 22.1285L259.38 21.7221L294.684 21.914L304.969 22.0269H307.747C308.075 22.0228 308.403 22.0417 308.729 22.0834C308.432 22.1056 308.134 22.1056 307.837 22.0834H305.15L294.989 22.185L259.414 22.3769H259.007V21.9818C259.007 18.5947 259.007 15.0722 259.007 11.4368V0.417731L259.436 0L308.785 0.112899H309.09V0.417731C309.022 7.11274 308.966 12.5545 308.932 16.4045C308.932 18.2109 308.876 19.6447 308.853 20.6947C308.816 21.1765 308.748 21.6554 308.65 22.1285Z" fill="#E0E0E0"/>
<path d="M752.021 446.036C752.013 445.905 752.013 445.773 752.021 445.641C752.021 445.348 752.021 444.986 752.021 444.512C752.021 443.496 752.021 442.062 751.953 440.233C751.953 436.485 751.874 431.088 751.818 424.292L752.066 424.551L669.92 424.709L670.338 424.292V435.322C670.338 438.946 670.338 442.514 670.338 446.014L669.931 445.607L728.47 445.788L745.755 445.901H750.429H751.649C751.791 445.885 751.935 445.885 752.078 445.901C751.954 445.912 751.829 445.912 751.705 445.901H750.576H745.992L728.809 446.025L669.976 446.206H669.57V446.036C669.57 442.536 669.57 438.972 669.57 435.345V424.314L669.988 423.896L752.134 424.055H752.394V424.314C752.326 431.179 752.281 436.62 752.247 440.414C752.247 442.22 752.247 443.62 752.191 444.636C752.191 445.065 752.191 445.427 752.191 445.698C752.154 445.819 752.096 445.934 752.021 446.036Z" fill="#E0E0E0"/>
<path d="M763.177 424.247C763.164 424.108 763.164 423.968 763.177 423.829C763.177 423.528 763.177 423.152 763.177 422.7C763.177 421.639 763.177 420.183 763.098 418.342C763.098 414.538 763.007 409.152 762.939 402.536L763.244 402.841L713.884 402.954L714.302 402.536V413.714C714.302 417.349 714.302 420.871 714.302 424.247L713.907 423.852L749.211 424.033L759.496 424.146L762.273 424.202C762.604 424.185 762.936 424.185 763.267 424.202C762.966 424.223 762.664 424.223 762.364 424.202L759.677 424.258L749.516 424.36L713.941 424.552H713.545V424.157C713.545 420.77 713.545 417.259 713.545 413.623V402.446L713.963 402.028L763.323 402.141H763.628V402.446C763.56 409.141 763.504 414.583 763.47 418.444C763.47 420.25 763.47 421.673 763.391 422.734C763.349 423.242 763.277 423.747 763.177 424.247Z" fill="#E0E0E0"/>
<path d="M243.788 156.809L273.017 225.486H254.197L241.213 188.805L243.788 156.809Z" fill="#263238"/>
<path d="M153.998 94.6562L142.708 225.485H238.267L248.767 94.6562H153.998Z" fill="#455A64"/>
<path d="M163.334 105.033L153.444 214.614L225.17 215.551L234.868 104.4L163.334 105.033Z" fill="#1C3146"/>
<path d="M178.554 120.205L172.931 195.611H211.193L217.945 120.205H178.554Z" fill="#34495C"/>
<path d="M216.195 131.755C216.331 131.857 205.165 147.742 191.255 167.251C177.346 186.76 165.977 202.487 165.842 202.397C165.706 202.307 176.872 186.422 190.781 166.901C204.691 147.381 216.06 131.665 216.195 131.755Z" fill="#263238"/>
<path d="M224.775 110.564C224.667 110.755 224.539 110.933 224.391 111.095L223.262 112.529L218.904 117.756C215.224 122.182 210.211 128.346 204.871 135.301C199.531 142.256 194.845 148.691 191.515 153.365L187.586 158.92L186.457 160.421C186.338 160.606 186.197 160.777 186.039 160.929C186.141 160.743 186.258 160.566 186.389 160.399L187.383 158.841C188.252 157.486 189.539 155.544 191.165 153.196C194.416 148.443 199.068 141.973 204.385 134.996C209.703 128.019 214.817 121.911 218.577 117.542C220.451 115.363 221.964 113.624 223.093 112.427L224.346 111.073C224.467 110.886 224.611 110.715 224.775 110.564Z" fill="#263238"/>
<path d="M262.677 291.362H91.2377C88.3474 280.693 88.0652 270.701 91.2377 261.602H262.677C266.623 271.129 266.623 281.834 262.677 291.362Z" fill="#A6A6A6"/>
<path d="M142.043 270.916L140.18 280.253H139.503L141.095 272.35L135.935 279.045H135.585L132.943 272.271L131.351 280.298H130.674L132.548 270.961H133.112L135.89 278.176L141.433 270.961L142.043 270.916Z" fill="#F5F5F5"/>
<path d="M150.804 273.299L149.415 280.265H148.772L149.043 278.899C148.701 279.351 148.256 279.715 147.746 279.963C147.236 280.21 146.674 280.333 146.107 280.321C145.713 280.356 145.316 280.305 144.943 280.173C144.57 280.041 144.229 279.83 143.945 279.555C143.66 279.28 143.438 278.947 143.293 278.579C143.148 278.21 143.083 277.815 143.104 277.42C143.072 276.883 143.15 276.345 143.333 275.839C143.517 275.333 143.802 274.87 144.171 274.479C144.54 274.088 144.986 273.776 145.48 273.563C145.974 273.351 146.507 273.241 147.045 273.242C147.64 273.174 148.24 273.316 148.741 273.644C149.242 273.972 149.613 274.465 149.788 275.038L150.138 273.299H150.804ZM149.506 276.178C149.53 275.854 149.483 275.529 149.366 275.226C149.249 274.924 149.066 274.651 148.83 274.428C148.594 274.205 148.311 274.038 148.002 273.938C147.693 273.838 147.366 273.809 147.045 273.852C146.593 273.856 146.148 273.951 145.735 274.134C145.322 274.316 144.951 274.581 144.644 274.912C144.337 275.243 144.102 275.633 143.951 276.058C143.801 276.484 143.74 276.936 143.77 277.386C143.748 277.71 143.797 278.035 143.915 278.338C144.034 278.641 144.218 278.913 144.455 279.136C144.691 279.358 144.975 279.526 145.284 279.625C145.593 279.725 145.921 279.754 146.243 279.712C146.695 279.708 147.141 279.612 147.554 279.429C147.967 279.246 148.338 278.98 148.644 278.648C148.95 278.315 149.184 277.923 149.333 277.497C149.481 277.07 149.54 276.617 149.506 276.167V276.178Z" fill="#F5F5F5"/>
<path d="M153.435 278.232C153.397 278.395 153.378 278.561 153.379 278.729C153.379 279.383 153.729 279.733 154.44 279.733C154.85 279.733 155.248 279.594 155.569 279.338L155.772 279.835C155.339 280.157 154.81 280.324 154.271 280.309C154.065 280.335 153.856 280.314 153.659 280.25C153.462 280.185 153.281 280.078 153.13 279.935C152.979 279.793 152.862 279.619 152.786 279.426C152.71 279.233 152.677 279.026 152.69 278.819C152.674 278.642 152.674 278.465 152.69 278.288L153.582 273.863H152.295L152.397 273.287H153.695L154 271.763H154.779L154.474 273.287H156.732L156.63 273.863H154.372L153.435 278.232Z" fill="#F5F5F5"/>
<path d="M164.646 275.467C164.646 275.721 164.619 275.975 164.567 276.223L163.765 280.254H163.099L163.901 276.223C163.95 276.005 163.973 275.781 163.969 275.557C163.969 274.428 163.314 273.841 162.004 273.841C161.258 273.808 160.528 274.061 159.961 274.547C159.395 275.034 159.035 275.718 158.956 276.46L158.188 280.254H157.522L159.498 270.353H160.164L159.328 274.586C159.658 274.145 160.091 273.791 160.589 273.555C161.087 273.319 161.634 273.208 162.185 273.231C162.499 273.186 162.82 273.211 163.123 273.304C163.427 273.397 163.707 273.556 163.942 273.77C164.177 273.983 164.362 274.246 164.484 274.54C164.605 274.833 164.661 275.15 164.646 275.467Z" fill="#F5F5F5"/>
<path d="M167.084 276.911C167.084 277.058 167.084 277.205 167.084 277.352C167.084 278.864 167.965 279.7 169.658 279.7C170.098 279.717 170.536 279.644 170.946 279.485C171.356 279.325 171.728 279.084 172.041 278.774L172.345 279.237C171.984 279.592 171.555 279.87 171.083 280.054C170.612 280.238 170.108 280.325 169.602 280.31C169.194 280.363 168.779 280.326 168.387 280.202C167.995 280.077 167.635 279.868 167.332 279.589C167.029 279.31 166.792 278.968 166.636 278.588C166.48 278.207 166.409 277.796 166.429 277.385C166.393 276.86 166.463 276.332 166.637 275.834C166.81 275.337 167.084 274.88 167.439 274.491C167.795 274.102 168.227 273.79 168.707 273.573C169.188 273.357 169.707 273.24 170.234 273.231C170.628 273.195 171.024 273.246 171.396 273.379C171.768 273.512 172.106 273.725 172.388 274.002C172.669 274.279 172.887 274.614 173.026 274.984C173.165 275.354 173.222 275.75 173.192 276.144C173.184 276.401 173.158 276.658 173.113 276.911H167.084ZM167.163 276.392H172.526C172.526 276.279 172.526 276.166 172.526 276.053C172.546 275.744 172.498 275.434 172.385 275.145C172.273 274.856 172.099 274.595 171.876 274.38C171.652 274.165 171.384 274.001 171.091 273.9C170.798 273.799 170.486 273.763 170.178 273.795C169.455 273.81 168.761 274.078 168.216 274.553C167.672 275.027 167.311 275.678 167.197 276.392H167.163Z" fill="#F5F5F5"/>
<path d="M186.831 275.432C186.827 275.698 186.797 275.962 186.74 276.222L185.928 280.253H185.261L186.074 276.222C186.124 276 186.146 275.772 186.142 275.545C186.142 274.472 185.521 273.84 184.268 273.84C183.559 273.803 182.863 274.037 182.321 274.494C181.778 274.951 181.429 275.597 181.344 276.301L180.542 280.253H179.876L180.689 276.222C180.738 276 180.761 275.772 180.757 275.545C180.757 274.472 180.124 273.84 178.871 273.84C178.139 273.822 177.426 274.082 176.878 274.568C176.329 275.054 175.984 275.73 175.913 276.459L175.157 280.253H174.491L175.879 273.287H176.534L176.263 274.596C176.576 274.153 176.995 273.795 177.483 273.556C177.97 273.317 178.51 273.205 179.052 273.23C179.563 273.164 180.08 273.288 180.506 273.577C180.932 273.866 181.238 274.301 181.366 274.799C181.695 274.298 182.147 273.891 182.679 273.616C183.211 273.341 183.805 273.208 184.403 273.23C185.984 273.23 186.831 274.077 186.831 275.432Z" fill="#F5F5F5"/>
<path d="M196.28 273.299L194.892 280.265H194.293L194.564 278.899C194.222 279.351 193.778 279.715 193.268 279.963C192.757 280.21 192.196 280.333 191.629 280.321C191.235 280.356 190.837 280.305 190.464 280.173C190.091 280.041 189.751 279.83 189.466 279.555C189.181 279.28 188.959 278.947 188.814 278.579C188.669 278.21 188.605 277.815 188.626 277.42C188.593 276.883 188.671 276.345 188.855 275.839C189.038 275.333 189.323 274.87 189.693 274.479C190.062 274.088 190.507 273.776 191.001 273.563C191.496 273.351 192.028 273.241 192.566 273.242C193.161 273.174 193.761 273.316 194.262 273.644C194.764 273.972 195.134 274.465 195.31 275.038L195.66 273.299H196.28ZM194.982 276.178C195.007 275.854 194.959 275.529 194.842 275.226C194.725 274.924 194.542 274.651 194.306 274.428C194.07 274.205 193.787 274.038 193.479 273.938C193.17 273.838 192.843 273.809 192.521 273.852C192.07 273.856 191.624 273.951 191.211 274.134C190.798 274.316 190.427 274.581 190.12 274.912C189.814 275.243 189.578 275.633 189.428 276.058C189.278 276.484 189.216 276.936 189.247 277.386C189.224 277.71 189.273 278.035 189.392 278.338C189.51 278.641 189.694 278.913 189.931 279.136C190.168 279.358 190.451 279.526 190.76 279.625C191.07 279.725 191.397 279.754 191.719 279.712C192.171 279.708 192.617 279.612 193.03 279.429C193.443 279.246 193.814 278.98 194.12 278.648C194.426 278.315 194.661 277.923 194.809 277.497C194.957 277.07 195.016 276.617 194.982 276.167V276.178Z" fill="#F5F5F5"/>
<path d="M198.912 278.232C198.873 278.395 198.854 278.561 198.855 278.729C198.855 279.383 199.205 279.733 199.917 279.733C200.327 279.735 200.726 279.595 201.046 279.338L201.249 279.835C200.816 280.157 200.287 280.324 199.747 280.309C199.541 280.335 199.332 280.314 199.135 280.25C198.938 280.185 198.758 280.078 198.607 279.935C198.456 279.793 198.338 279.619 198.262 279.426C198.186 279.233 198.153 279.026 198.167 278.819C198.151 278.642 198.151 278.465 198.167 278.288L199.07 273.863H197.771L197.873 273.287H199.171L199.476 271.763H200.142L199.939 273.298H202.197L202.096 273.874H199.838L198.912 278.232Z" fill="#F5F5F5"/>
<path d="M204.387 273.299H205.053L203.665 280.265H202.999L204.387 273.299ZM204.613 271.109C204.613 271.032 204.628 270.955 204.658 270.884C204.687 270.813 204.73 270.748 204.785 270.694C204.839 270.639 204.904 270.596 204.975 270.566C205.047 270.537 205.123 270.522 205.2 270.522C205.267 270.52 205.333 270.532 205.395 270.556C205.458 270.58 205.514 270.616 205.563 270.662C205.611 270.709 205.65 270.764 205.676 270.825C205.703 270.886 205.718 270.952 205.719 271.018C205.721 271.097 205.707 271.175 205.677 271.248C205.647 271.32 205.603 271.386 205.547 271.441C205.491 271.496 205.424 271.539 205.351 271.567C205.278 271.596 205.2 271.609 205.121 271.605C205.054 271.607 204.987 271.595 204.925 271.57C204.862 271.545 204.806 271.508 204.758 271.46C204.711 271.413 204.674 271.356 204.649 271.294C204.624 271.231 204.611 271.165 204.613 271.097V271.109Z" fill="#F5F5F5"/>
<path d="M206.374 277.408C206.343 276.866 206.424 276.323 206.612 275.813C206.8 275.303 207.091 274.838 207.467 274.446C207.843 274.054 208.296 273.744 208.798 273.535C209.299 273.326 209.838 273.222 210.382 273.231C210.899 273.183 211.419 273.28 211.883 273.511C212.348 273.742 212.739 274.099 213.012 274.54L212.47 274.879C212.246 274.525 211.928 274.24 211.551 274.057C211.174 273.873 210.754 273.799 210.336 273.84C209.883 273.841 209.435 273.935 209.02 274.115C208.604 274.296 208.23 274.561 207.921 274.892C207.612 275.223 207.374 275.615 207.223 276.042C207.071 276.469 207.009 276.922 207.04 277.374C207.028 277.7 207.086 278.024 207.211 278.324C207.336 278.625 207.525 278.895 207.764 279.116C208.003 279.337 208.287 279.503 208.597 279.604C208.906 279.705 209.234 279.738 209.557 279.7C209.985 279.705 210.408 279.616 210.798 279.441C211.188 279.265 211.535 279.007 211.815 278.684L212.278 279.068C211.93 279.471 211.495 279.792 211.007 280.007C210.519 280.222 209.989 280.325 209.456 280.31C209.057 280.347 208.655 280.299 208.277 280.168C207.898 280.038 207.552 279.829 207.26 279.554C206.969 279.28 206.739 278.947 206.586 278.577C206.433 278.207 206.361 277.808 206.374 277.408Z" fill="#F5F5F5"/>
<path d="M221.39 273.299L220.001 280.265H219.357L219.628 278.899C219.286 279.351 218.842 279.715 218.332 279.963C217.821 280.21 217.26 280.333 216.693 280.321C216.298 280.358 215.9 280.308 215.526 280.177C215.152 280.045 214.811 279.835 214.526 279.559C214.241 279.284 214.018 278.95 213.874 278.581C213.73 278.212 213.667 277.816 213.69 277.42C213.657 276.883 213.735 276.345 213.919 275.839C214.102 275.333 214.387 274.87 214.757 274.479C215.126 274.088 215.571 273.776 216.065 273.563C216.559 273.351 217.092 273.241 217.63 273.242C218.224 273.178 218.822 273.322 219.323 273.65C219.823 273.977 220.194 274.467 220.373 275.038L220.723 273.299H221.39ZM220.091 276.178C220.116 275.854 220.068 275.529 219.951 275.226C219.834 274.924 219.651 274.651 219.415 274.428C219.179 274.205 218.897 274.038 218.588 273.938C218.279 273.839 217.952 273.809 217.63 273.852C217.179 273.856 216.733 273.952 216.32 274.134C215.907 274.316 215.536 274.581 215.23 274.912C214.923 275.243 214.687 275.633 214.537 276.058C214.387 276.484 214.325 276.936 214.356 277.386C214.333 277.71 214.382 278.035 214.501 278.338C214.619 278.641 214.803 278.913 215.04 279.136C215.277 279.358 215.56 279.526 215.869 279.625C216.179 279.725 216.506 279.754 216.828 279.712C217.277 279.704 217.72 279.604 218.129 279.419C218.538 279.234 218.905 278.967 219.207 278.635C219.51 278.303 219.741 277.913 219.887 277.489C220.033 277.064 220.091 276.614 220.057 276.167L220.091 276.178Z" fill="#F5F5F5"/>
<path d="M224.777 270.353H225.443L223.467 280.254H222.801L224.777 270.353Z" fill="#F5F5F5"/>
<path d="M98.4185 273.795L107.755 275.658V276.346L99.0281 274.597V276.855L98.4185 276.73V273.795Z" fill="#F5F5F5"/>
<path d="M120.411 261.59C120.626 261.658 118.526 268.364 115.737 276.64C112.948 284.916 110.521 291.498 110.307 291.43C110.092 291.362 112.192 284.656 114.981 276.38C117.769 268.105 120.208 261.523 120.411 261.59Z" fill="white"/>
<path d="M127.4 261.59C127.603 261.658 125.515 268.364 122.726 276.64C119.937 284.916 117.499 291.498 117.295 291.43C117.092 291.362 119.181 284.656 121.969 276.38C124.758 268.105 127.197 261.523 127.4 261.59Z" fill="white"/>
<path d="M241.915 261.59C242.118 261.658 240.029 268.364 237.241 276.64C234.452 284.916 232.013 291.498 231.81 291.43C231.607 291.362 233.695 284.656 236.484 276.38C239.273 268.105 241.711 261.523 241.915 261.59Z" fill="white"/>
<path d="M248.904 261.59C249.108 261.658 247.019 268.364 244.219 276.64C241.419 284.916 239.003 291.498 238.8 291.43C238.597 291.362 240.685 284.656 243.474 276.38C246.263 268.105 248.69 261.523 248.904 261.59Z" fill="white"/>
<path d="M292.167 318.121H75.5786C71.9319 308.524 71.5593 299.526 75.5786 291.341H292.167C294.617 295.378 295.912 300.009 295.912 304.731C295.912 309.453 294.617 314.084 292.167 318.121Z" fill="#F1463B"/>
<path d="M148.445 298.836H150.703V306.908H155.693V308.782H148.4L148.445 298.836Z" fill="#F5F5F5"/>
<path d="M163.719 304.425V308.783H161.642V307.835C161.384 308.204 161.033 308.496 160.624 308.683C160.215 308.869 159.763 308.943 159.316 308.896C157.521 308.896 156.46 307.903 156.46 306.638C156.46 305.374 157.408 304.38 159.745 304.38H161.552C161.552 303.432 160.976 302.879 159.791 302.879C158.98 302.86 158.186 303.11 157.533 303.59L156.731 302.043C157.713 301.413 158.861 301.091 160.028 301.118C162.365 301.027 163.719 302.111 163.719 304.425ZM161.461 306.367V305.588H159.937C158.899 305.588 158.571 305.972 158.571 306.48C158.571 306.988 159.045 307.406 159.824 307.406C160.187 307.45 160.554 307.372 160.867 307.184C161.18 306.996 161.421 306.708 161.552 306.367H161.461Z" fill="#F5F5F5"/>
<path d="M173.531 304.414V308.783H171.273V304.752C171.273 303.51 170.709 302.946 169.727 302.946C168.744 302.946 167.898 303.601 167.898 305.001V308.783H165.64V301.139H167.762V302.031C168.091 301.698 168.486 301.437 168.921 301.264C169.357 301.091 169.823 301.01 170.291 301.027C172.177 301.027 173.531 302.076 173.531 304.414Z" fill="#F5F5F5"/>
<path d="M183.511 301.139V307.507C183.511 310.341 181.976 311.65 179.221 311.65C177.891 311.709 176.578 311.341 175.473 310.6L176.353 309.008C177.136 309.58 178.082 309.885 179.052 309.878C180.61 309.878 181.31 309.166 181.31 307.789V307.462C181.001 307.784 180.626 308.035 180.211 308.199C179.796 308.363 179.35 308.435 178.905 308.41C177.926 308.41 176.987 308.021 176.294 307.329C175.602 306.636 175.213 305.697 175.213 304.718C175.213 303.739 175.602 302.8 176.294 302.108C176.987 301.415 177.926 301.026 178.905 301.026C179.385 301.002 179.865 301.092 180.304 301.288C180.744 301.484 181.131 301.781 181.434 302.155V301.173L183.511 301.139ZM181.321 304.718C181.348 304.315 181.253 303.914 181.049 303.566C180.845 303.218 180.541 302.939 180.176 302.767C179.812 302.594 179.403 302.535 179.005 302.597C178.606 302.66 178.235 302.841 177.941 303.117C177.647 303.393 177.442 303.751 177.354 304.145C177.266 304.539 177.299 304.95 177.448 305.325C177.597 305.7 177.856 306.021 178.19 306.247C178.524 306.473 178.919 306.594 179.322 306.592C179.58 306.613 179.838 306.579 180.082 306.494C180.325 306.409 180.548 306.274 180.736 306.097C180.924 305.921 181.073 305.707 181.174 305.469C181.275 305.232 181.325 304.976 181.321 304.718Z" fill="#F5F5F5"/>
<path d="M193.266 301.141V308.784H191.166V307.869C190.706 308.354 190.109 308.686 189.455 308.821C188.802 308.957 188.122 308.889 187.508 308.627C186.894 308.366 186.374 307.922 186.019 307.357C185.664 306.792 185.49 306.132 185.521 305.465V301.141H187.779V305.137C187.779 306.413 188.343 306.978 189.325 306.978C190.308 306.978 191.087 306.323 191.087 304.923V301.141H193.266Z" fill="#F5F5F5"/>
<path d="M202.095 304.425V308.783H200.018V307.835C199.759 308.203 199.407 308.495 198.999 308.681C198.59 308.868 198.139 308.942 197.692 308.896C195.897 308.896 194.835 307.903 194.835 306.638C194.835 305.374 195.784 304.38 198.11 304.38H199.871C199.871 303.432 199.306 302.879 198.11 302.879C197.318 302.874 196.547 303.123 195.908 303.59L195.118 302.043C196.1 301.413 197.248 301.091 198.414 301.118C200.74 301.027 202.095 302.111 202.095 304.425ZM199.837 306.367V305.588H198.358C197.319 305.588 196.992 305.972 196.992 306.48C196.992 306.988 197.455 307.406 198.245 307.406C198.592 307.431 198.937 307.343 199.23 307.156C199.523 306.969 199.748 306.692 199.871 306.367H199.837Z" fill="#F5F5F5"/>
<path d="M212.065 301.139V307.507C212.065 310.341 210.529 311.65 207.775 311.65C206.445 311.707 205.133 311.339 204.026 310.6L204.907 309.008C205.69 309.58 206.636 309.885 207.605 309.878C209.163 309.878 209.863 309.166 209.863 307.789V307.462C209.551 307.783 209.175 308.034 208.758 308.197C208.341 308.361 207.894 308.433 207.447 308.41C206.468 308.41 205.529 308.021 204.837 307.329C204.144 306.636 203.755 305.697 203.755 304.718C203.755 303.739 204.144 302.8 204.837 302.108C205.529 301.415 206.468 301.026 207.447 301.026C207.928 301.002 208.407 301.092 208.847 301.288C209.286 301.484 209.673 301.781 209.976 302.155V301.173L212.065 301.139ZM209.875 304.718C209.879 304.46 209.829 304.204 209.728 303.967C209.627 303.729 209.478 303.516 209.29 303.339C209.102 303.163 208.879 303.028 208.635 302.942C208.392 302.857 208.133 302.823 207.876 302.844C207.379 302.844 206.902 303.041 206.551 303.393C206.2 303.744 206.002 304.221 206.002 304.718C206.002 305.215 206.2 305.692 206.551 306.043C206.902 306.395 207.379 306.592 207.876 306.592C208.133 306.613 208.392 306.579 208.635 306.494C208.879 306.409 209.102 306.274 209.29 306.097C209.478 305.921 209.627 305.707 209.728 305.469C209.829 305.232 209.879 304.976 209.875 304.718Z" fill="#F5F5F5"/>
<path d="M221.57 305.588H215.744C215.853 306.087 216.146 306.527 216.564 306.82C216.983 307.113 217.496 307.237 218.002 307.169C218.356 307.183 218.709 307.124 219.039 306.995C219.369 306.867 219.67 306.673 219.921 306.424L221.107 307.711C220.701 308.133 220.207 308.461 219.662 308.674C219.116 308.886 218.53 308.977 217.946 308.941C215.304 308.941 213.588 307.282 213.588 305.012C213.581 304.481 213.683 303.955 213.887 303.465C214.091 302.975 214.393 302.532 214.775 302.163C215.157 301.794 215.61 301.507 216.107 301.319C216.603 301.131 217.133 301.047 217.663 301.072C218.193 301.043 218.722 301.125 219.217 301.314C219.712 301.502 220.162 301.793 220.538 302.167C220.914 302.54 221.207 302.989 221.398 303.483C221.59 303.977 221.675 304.506 221.649 305.035C221.615 305.159 221.581 305.408 221.57 305.588ZM215.744 304.29H219.515C219.445 303.84 219.217 303.43 218.871 303.134C218.525 302.837 218.085 302.674 217.63 302.674C217.174 302.674 216.734 302.837 216.388 303.134C216.042 303.43 215.814 303.84 215.744 304.29Z" fill="#F5F5F5"/>
<path d="M90.2324 304.392H100.179V306.65H92.0727V308.637H90.2324V304.392Z" fill="#F5F5F5"/>
<path d="M105.226 291.341L115.489 318.121H128.969L120.411 291.341H105.226Z" fill="white"/>
<path d="M238.212 291.341L248.475 318.121H261.955L253.397 291.341H238.212Z" fill="#EBEBEB"/>
<path d="M83.7188 317.488C83.7188 317.488 63.1709 333.136 82.8494 353.82C83.0187 353.995 83.2224 354.134 83.4478 354.227C83.6731 354.32 83.9153 354.366 84.1591 354.361L263.671 353.323C263.671 353.323 279.003 336.128 266.279 316.325L83.7188 317.488Z" fill="#EBEBEB"/>
<path d="M91.8139 354.712C91.7019 354.732 91.5872 354.732 91.4752 354.712C91.1594 354.67 90.849 354.595 90.5494 354.486C89.3952 354.085 88.3593 353.402 87.535 352.499C86.2396 351.112 85.5421 349.271 85.5931 347.374C85.6374 346.175 85.9604 345.002 86.5366 343.95C87.1127 342.898 87.9262 341.994 88.9124 341.311L88.9914 341.864C87.7535 341.495 86.6578 340.756 85.8508 339.748C85.0438 338.739 84.564 337.508 84.4754 336.219C84.445 334.707 84.9618 333.234 85.9305 332.073C86.8992 330.911 88.2548 330.138 89.7478 329.897L89.6462 330.461C88.6772 329.9 87.8516 329.121 87.2345 328.187C86.6174 327.252 86.2256 326.187 86.0899 325.076C85.8976 323.329 86.3915 321.576 87.4672 320.187C88.1471 319.287 89.0392 318.57 90.064 318.098C90.3333 317.976 90.6129 317.878 90.8994 317.805C91.0003 317.788 91.1034 317.788 91.2043 317.805C91.2043 317.805 90.8204 317.963 90.1543 318.324C89.2079 318.844 88.39 319.569 87.7608 320.447C86.8131 321.787 86.4096 323.438 86.6318 325.064C86.784 326.087 87.1684 327.062 87.7555 327.913C88.3426 328.764 89.1168 329.47 90.0188 329.976L90.8317 330.416L89.9172 330.54C88.5876 330.764 87.382 331.456 86.5185 332.491C85.655 333.527 85.1905 334.837 85.2092 336.185C85.2853 337.337 85.706 338.44 86.4167 339.35C87.1274 340.26 88.0952 340.935 89.1946 341.288L89.8382 341.469L89.2849 341.841C88.3721 342.468 87.6154 343.295 87.0732 344.26C86.531 345.225 86.2177 346.302 86.1576 347.407C86.0724 349.181 86.6797 350.917 87.8511 352.251C88.6168 353.139 89.5742 353.842 90.651 354.306C91.3736 354.588 91.8252 354.667 91.8139 354.712Z" fill="#E0E0E0"/>
<path d="M91.8593 348.547C91.8593 348.547 91.7125 348.547 91.5319 348.4C91.4227 348.261 91.3433 348.101 91.2987 347.93C91.254 347.759 91.245 347.581 91.2722 347.406C91.4774 346.867 91.8814 346.427 92.4012 346.176C93.0715 345.869 93.7979 345.703 94.535 345.69C95.39 345.645 96.2473 345.672 97.0979 345.769C97.5495 345.815 98.0124 345.882 98.4866 345.973C99.0123 346.047 99.5142 346.24 99.9543 346.537C100.134 346.67 100.285 346.839 100.396 347.033C100.506 347.228 100.575 347.443 100.598 347.666C100.608 347.886 100.562 348.104 100.466 348.301C100.369 348.499 100.224 348.668 100.045 348.795C99.446 349.167 98.7614 349.377 98.0575 349.405C96.9552 349.539 95.8406 349.539 94.7383 349.405C93.7045 349.377 92.6977 349.068 91.8254 348.513C91.8254 348.4 92.9544 348.863 94.7721 348.953C95.8447 349 96.9192 348.935 97.9785 348.761C98.5688 348.732 99.1428 348.558 99.6494 348.253C99.7499 348.178 99.8299 348.08 99.882 347.966C99.9342 347.852 99.9568 347.727 99.9478 347.602C99.9388 347.477 99.8985 347.356 99.8305 347.251C99.7626 347.146 99.6692 347.06 99.5591 347C99.1959 346.76 98.7828 346.605 98.3511 346.548C97.8995 346.458 97.4592 346.379 97.0188 346.323C96.1985 346.224 95.3726 346.179 94.5463 346.187C93.0447 346.187 91.8367 346.706 91.5319 347.463C91.4605 347.742 91.4884 348.037 91.6109 348.298C91.769 348.456 91.8706 348.513 91.8593 348.547Z" fill="#E0E0E0"/>
<path d="M91.3739 336.421C91.3739 336.421 91.2272 336.421 91.0465 336.274C90.9374 336.135 90.858 335.976 90.8133 335.805C90.7686 335.634 90.7596 335.455 90.7869 335.281C90.9945 334.746 91.3982 334.31 91.9159 334.062C92.5861 333.754 93.3126 333.589 94.0497 333.576C94.9009 333.531 95.7544 333.557 96.6012 333.655C97.0604 333.7 97.5233 333.768 97.9899 333.858C98.5198 333.93 99.0259 334.123 99.4689 334.423C99.649 334.556 99.7994 334.725 99.9102 334.919C100.021 335.114 100.09 335.329 100.112 335.552C100.122 335.771 100.077 335.99 99.9802 336.187C99.8835 336.384 99.7387 336.554 99.5592 336.681C98.9607 337.052 98.2761 337.262 97.5722 337.291C96.4698 337.425 95.3553 337.425 94.2529 337.291C93.2202 337.256 92.2152 336.948 91.3401 336.399C91.3401 336.286 92.4691 336.749 94.2868 336.839C95.3593 336.88 96.4332 336.815 97.4932 336.647C98.0835 336.618 98.6574 336.443 99.1641 336.139C99.2644 336.063 99.3442 335.963 99.3961 335.848C99.4481 335.734 99.4706 335.608 99.4617 335.482C99.4527 335.357 99.4125 335.235 99.3448 335.129C99.277 335.023 99.1839 334.935 99.0738 334.874C98.7074 334.643 98.2954 334.492 97.8657 334.434C97.4141 334.344 96.9738 334.265 96.5335 334.208C95.7131 334.11 94.8872 334.064 94.061 334.073C92.5594 334.073 91.3514 334.592 91.0465 335.349C90.9645 335.627 90.9928 335.926 91.1256 336.184C91.2836 336.331 91.3852 336.387 91.3739 336.421Z" fill="#E0E0E0"/>
<path d="M91.6216 324.68C91.6216 324.68 91.4862 324.68 91.3055 324.544C91.1939 324.407 91.113 324.247 91.0682 324.075C91.0234 323.904 91.0158 323.725 91.0459 323.551C91.2592 323.019 91.6612 322.585 92.1749 322.331C92.8455 322.025 93.5717 321.86 94.3087 321.846C95.1634 321.796 96.0207 321.819 96.8715 321.913C97.3231 321.97 97.786 322.038 98.2602 322.128C98.7891 322.204 99.2943 322.397 99.7392 322.692C99.9178 322.826 100.066 322.995 100.175 323.19C100.284 323.384 100.351 323.6 100.371 323.821C100.379 324.041 100.333 324.258 100.236 324.455C100.14 324.652 99.9963 324.822 99.8182 324.95C99.2239 325.32 98.5423 325.527 97.8425 325.549C96.7195 325.7 95.5828 325.719 94.4555 325.605C93.4221 325.565 92.4175 325.254 91.5426 324.702C92.5166 324.902 93.5001 325.053 94.4893 325.154C95.5617 325.189 96.6351 325.125 97.6957 324.962C98.2896 324.933 98.8672 324.758 99.3779 324.454C99.4778 324.377 99.5568 324.276 99.6079 324.161C99.6589 324.046 99.6804 323.92 99.6703 323.794C99.6602 323.668 99.6189 323.547 99.5501 323.442C99.4813 323.336 99.3871 323.249 99.2763 323.189C98.915 322.956 98.5062 322.805 98.0796 322.749C97.628 322.659 97.1764 322.58 96.736 322.523C95.9199 322.419 95.0974 322.374 94.2748 322.388C92.7619 322.388 91.5652 322.907 91.2604 323.663C91.184 323.942 91.2121 324.239 91.3394 324.499C91.5539 324.6 91.6442 324.657 91.6216 324.68Z" fill="#E0E0E0"/>
<path d="M253.002 316.821C253.002 316.821 253.115 316.821 253.329 316.821C253.648 316.872 253.962 316.951 254.266 317.058C255.42 317.455 256.457 318.134 257.281 319.034C258.575 320.422 259.273 322.263 259.223 324.16C259.179 325.359 258.857 326.531 258.28 327.584C257.704 328.636 256.89 329.54 255.904 330.223L255.824 329.669C257.06 330.043 258.153 330.783 258.959 331.79C259.766 332.798 260.247 334.027 260.34 335.314C260.368 336.828 259.849 338.3 258.878 339.462C257.908 340.623 256.551 341.395 255.057 341.637L255.158 341.072C256.13 341.628 256.959 342.404 257.578 343.337C258.198 344.27 258.591 345.335 258.726 346.446C258.921 348.197 258.427 349.954 257.349 351.346C256.666 352.241 255.775 352.955 254.752 353.424C254.48 353.548 254.196 353.646 253.905 353.717C253.713 353.717 253.612 353.785 253.612 353.717C253.612 353.649 253.995 353.559 254.662 353.198C255.609 352.684 256.424 351.957 257.044 351.075C257.992 349.739 258.395 348.092 258.173 346.469C258.021 345.446 257.636 344.472 257.049 343.62C256.462 342.769 255.688 342.064 254.786 341.558L253.973 341.106L254.887 340.982C256.217 340.758 257.423 340.066 258.286 339.031C259.15 337.995 259.614 336.685 259.595 335.337C259.519 334.186 259.098 333.085 258.387 332.177C257.676 331.269 256.708 330.596 255.61 330.245L254.955 330.065L255.52 329.692C256.434 329.065 257.192 328.235 257.734 327.268C258.276 326.301 258.589 325.222 258.647 324.115C258.727 322.34 258.116 320.604 256.942 319.271C256.179 318.388 255.226 317.689 254.154 317.228C253.454 316.945 253.002 316.866 253.002 316.821Z" fill="#E0E0E0"/>
<path d="M253.002 322.975C253.002 322.975 253.137 322.975 253.329 323.122C253.439 323.259 253.518 323.417 253.563 323.586C253.608 323.755 253.617 323.932 253.589 324.104C253.381 324.64 252.978 325.076 252.46 325.324C251.79 325.633 251.064 325.803 250.326 325.821C249.471 325.86 248.614 325.834 247.763 325.742C247.312 325.742 246.849 325.617 246.375 325.527C245.85 325.457 245.347 325.268 244.907 324.974C244.729 324.839 244.58 324.669 244.469 324.475C244.359 324.281 244.289 324.067 244.263 323.845C244.256 323.626 244.303 323.408 244.4 323.212C244.496 323.015 244.639 322.845 244.817 322.716C245.417 322.351 246.101 322.145 246.804 322.117C247.904 321.971 249.018 321.952 250.123 322.061C251.157 322.099 252.162 322.41 253.036 322.964C253.036 323.066 251.907 322.614 250.089 322.524C249.017 322.479 247.943 322.539 246.883 322.704C246.292 322.743 245.72 322.921 245.212 323.224C244.76 323.529 244.828 324.116 245.302 324.477C245.664 324.709 246.073 324.859 246.499 324.917C246.962 325.019 247.402 325.087 247.842 325.143C248.662 325.251 249.488 325.3 250.315 325.29C251.816 325.29 253.013 324.759 253.329 324.014C253.397 323.737 253.365 323.445 253.239 323.19C253.058 323.077 253.002 322.975 253.002 322.975Z" fill="#E0E0E0"/>
<path d="M253.453 335.111C253.453 335.111 253.599 335.111 253.78 335.258C253.889 335.394 253.969 335.552 254.014 335.722C254.059 335.891 254.067 336.067 254.04 336.24C253.832 336.775 253.428 337.211 252.911 337.459C252.241 337.77 251.515 337.94 250.777 337.956C249.922 337.996 249.065 337.969 248.214 337.877C247.762 337.877 247.299 337.753 246.825 337.663C246.3 337.593 245.798 337.404 245.358 337.109C245.179 336.975 245.03 336.805 244.92 336.611C244.809 336.417 244.739 336.202 244.714 335.98C244.707 335.761 244.754 335.544 244.85 335.347C244.947 335.15 245.09 334.98 245.267 334.851C245.869 334.488 246.552 334.282 247.254 334.253C248.355 334.107 249.469 334.088 250.574 334.197C251.607 334.234 252.613 334.546 253.486 335.1C253.486 335.201 252.357 334.75 250.54 334.66C249.468 334.615 248.394 334.675 247.333 334.84C246.743 334.879 246.17 335.057 245.662 335.36C245.211 335.664 245.279 336.251 245.753 336.613C246.117 336.849 246.53 337 246.961 337.053C247.412 337.155 247.853 337.222 248.293 337.279C249.113 337.387 249.939 337.436 250.766 337.426C252.267 337.426 253.475 336.895 253.78 336.15C253.855 335.874 253.823 335.579 253.69 335.326C253.543 335.201 253.441 335.145 253.453 335.111Z" fill="#E0E0E0"/>
<path d="M253.195 346.842C253.195 346.842 253.341 346.842 253.522 346.989C253.633 347.125 253.713 347.282 253.758 347.452C253.803 347.621 253.811 347.798 253.782 347.971C253.58 348.51 253.175 348.948 252.653 349.19C251.982 349.499 251.256 349.668 250.519 349.687C249.664 349.732 248.807 349.706 247.956 349.608C247.489 349.563 247.026 349.492 246.567 349.393C246.038 349.328 245.531 349.139 245.088 348.84C244.909 348.706 244.76 348.537 244.649 348.343C244.538 348.149 244.469 347.934 244.445 347.711C244.439 347.491 244.488 347.273 244.586 347.076C244.685 346.879 244.83 346.71 245.009 346.582C245.603 346.209 246.284 345.999 246.985 345.973C248.091 345.839 249.209 345.839 250.316 345.973C251.346 345.999 252.35 346.308 253.217 346.865C253.217 346.966 252.088 346.515 250.27 346.424C249.198 346.378 248.123 346.442 247.064 346.616C246.474 346.647 245.901 346.822 245.393 347.124C245.293 347.199 245.213 347.298 245.161 347.412C245.108 347.526 245.086 347.651 245.095 347.776C245.104 347.9 245.144 348.021 245.212 348.126C245.28 348.231 245.373 348.318 245.483 348.377C245.849 348.613 246.261 348.767 246.691 348.829C247.143 348.919 247.595 348.987 248.024 349.044C248.843 349.151 249.67 349.2 250.496 349.19C252.009 349.19 253.206 348.671 253.511 347.915C253.593 347.636 253.564 347.337 253.432 347.079C253.296 346.932 253.183 346.876 253.195 346.842Z" fill="#E0E0E0"/>
<path d="M224.179 333.824C224.179 334.005 201.836 334.152 174.277 334.152C146.718 334.152 124.363 334.005 124.363 333.824C124.363 333.644 146.706 333.497 174.277 333.497C201.847 333.497 224.179 333.644 224.179 333.824Z" fill="#E0E0E0"/>
<path d="M196.269 340.317C196.269 340.497 185.758 340.644 172.797 340.644C159.836 340.644 149.336 340.497 149.336 340.317C149.336 340.136 159.836 339.989 172.797 339.989C185.758 339.989 196.269 340.136 196.269 340.317Z" fill="#E0E0E0"/>
<path d="M272.488 228.194V259.806H211.228V228.194H272.488Z" fill="#EBEBEB"/>
<path d="M74.7883 244.305V245.152C75.0933 249.764 77.1482 254.086 80.533 257.234C83.9178 260.381 88.377 262.117 92.9992 262.087H275.345V259.829H232.059C227.867 259.829 223.846 258.164 220.882 255.2C217.918 252.236 216.253 248.215 216.253 244.023C216.253 239.831 217.918 235.811 220.882 232.847C223.846 229.882 227.867 228.217 232.059 228.217H275.345V224.83L92.9766 225.44C90.5318 225.444 88.1129 225.941 85.8638 226.899C83.6146 227.857 81.5811 229.258 79.8843 231.018C78.1874 232.778 76.8619 234.861 75.9864 237.144C75.111 239.427 74.7035 241.862 74.7883 244.305Z" fill="#F1463B"/>
<path d="M272.489 244.441C272.489 244.621 259.9 244.757 244.376 244.757C228.853 244.757 216.264 244.621 216.264 244.441C216.264 244.26 228.853 244.113 244.376 244.113C259.9 244.113 272.489 244.26 272.489 244.441Z" fill="#E0E0E0"/>
<path d="M271.597 251.566C271.597 251.746 259.686 251.893 244.997 251.893C230.309 251.893 218.398 251.746 218.398 251.566C218.398 251.385 230.309 251.238 244.997 251.238C259.686 251.238 271.597 251.385 271.597 251.566Z" fill="#E0E0E0"/>
<path d="M272.488 258.09C272.488 258.259 261.774 258.406 248.576 258.406C235.378 258.406 224.652 258.259 224.652 258.09C224.652 257.921 235.367 257.763 248.576 257.763C261.785 257.763 272.488 257.909 272.488 258.09Z" fill="#E0E0E0"/>
<path d="M272.488 238.028C272.488 238.209 260.16 238.355 244.952 238.355C229.744 238.355 217.416 238.209 217.416 238.028C217.416 237.847 229.744 237.712 244.952 237.712C260.16 237.712 272.488 237.859 272.488 238.028Z" fill="#E0E0E0"/>
<path d="M271.597 231.627C271.597 231.808 260.623 231.955 247.097 231.955C233.572 231.955 222.586 231.808 222.586 231.627C222.586 231.447 233.549 231.3 247.097 231.3C260.645 231.3 271.597 231.447 271.597 231.627Z" fill="#E0E0E0"/>
<g opacity="0.3">
<path opacity="0.3" d="M74.7878 244.305V245.152C75.0928 249.764 77.1477 254.086 80.5325 257.234C83.9174 260.381 88.3765 262.117 92.9987 262.087H275.344V259.829H232.058C227.866 259.829 223.846 258.164 220.882 255.2C217.918 252.236 216.252 248.215 216.252 244.023C216.252 239.831 217.918 235.811 220.882 232.847C223.846 229.882 227.866 228.217 232.058 228.217H275.344V224.83L92.9761 225.44C90.5313 225.444 88.1124 225.941 85.8633 226.899C83.6141 227.857 81.5806 229.258 79.8838 231.018C78.1869 232.778 76.8614 234.861 75.9859 237.144C75.1105 239.427 74.703 241.862 74.7878 244.305Z" fill="black"/>
</g>
<path d="M96.8722 225.982C95.4662 227.417 94.1716 228.957 92.9997 230.589C90.2386 234.581 88.7859 239.333 88.8425 244.187C88.8992 249.041 90.4623 253.758 93.3158 257.685C94.5289 259.288 95.8611 260.798 97.3012 262.201C96.8248 261.935 96.3846 261.609 95.9916 261.23C94.861 260.255 93.839 259.161 92.9433 257.967C89.91 254.012 88.2389 249.181 88.1798 244.197C88.1208 239.213 89.6771 234.344 92.6158 230.318C93.482 229.086 94.4774 227.951 95.5851 226.931C95.9768 226.567 96.4086 226.249 96.8722 225.982Z" fill="white"/>
<path d="M90.7072 225.305C89.3011 226.739 88.0065 228.279 86.8347 229.911C84.0735 233.904 82.6209 238.655 82.6775 243.509C82.7341 248.363 84.2972 253.08 87.1508 257.007C88.3639 258.611 89.6961 260.12 91.1362 261.523C90.6598 261.257 90.2196 260.931 89.8265 260.552C88.696 259.577 87.6739 258.484 86.7782 257.289C83.745 253.334 82.0738 248.503 82.0148 243.519C81.9558 238.535 83.5121 233.666 86.4508 229.64C87.317 228.408 88.3124 227.273 89.4201 226.253C89.8118 225.889 90.2436 225.571 90.7072 225.305Z" fill="white"/>
<path d="M214.615 225.982C213.209 227.417 211.915 228.957 210.743 230.589C207.982 234.581 206.529 239.333 206.586 244.187C206.642 249.041 208.205 253.758 211.059 257.685C212.272 259.288 213.604 260.798 215.044 262.201C214.568 261.935 214.128 261.609 213.735 261.23C212.604 260.255 211.582 259.161 210.686 257.967C207.653 254.012 205.982 249.181 205.923 244.197C205.864 239.213 207.42 234.344 210.359 230.318C211.225 229.086 212.221 227.951 213.328 226.931C213.72 226.567 214.152 226.249 214.615 225.982Z" fill="white"/>
<path d="M208.418 225.305C207.012 226.739 205.717 228.279 204.545 229.911C201.784 233.904 200.331 238.655 200.388 243.509C200.445 248.363 202.008 253.08 204.861 257.007C206.074 258.611 207.407 260.12 208.847 261.523C208.37 261.257 207.93 260.931 207.537 260.552C206.406 259.577 205.384 258.484 204.489 257.289C201.455 253.334 199.784 248.503 199.725 243.519C199.666 238.535 201.223 233.666 204.161 229.64C205.027 228.408 206.023 227.273 207.131 226.253C207.522 225.889 207.954 225.571 208.418 225.305Z" fill="white"/>
<path d="M117.623 248.754L117.454 235.895C117.499 234.77 117.342 233.645 116.991 232.576C116.808 232.044 116.485 231.573 116.055 231.211C115.626 230.849 115.106 230.611 114.552 230.521C112.938 229.809 110.431 231.153 109.302 233.005C108.331 234.956 107.895 237.13 108.038 239.304C108.017 242.698 108.182 246.09 108.534 249.465C108.608 251.078 109.016 252.658 109.731 254.106C110.049 254.862 110.599 255.497 111.3 255.922C112.002 256.347 112.82 256.538 113.637 256.469C114.455 256.4 115.229 256.074 115.85 255.538C116.47 255.002 116.905 254.283 117.092 253.485C117.562 251.955 117.742 250.35 117.623 248.754Z" fill="white"/>
<path d="M188.423 245.074C188.423 245.243 175.247 245.39 158.989 245.39C142.732 245.39 129.556 245.243 129.556 245.074C129.556 244.904 142.732 244.746 158.989 244.746C175.247 244.746 188.423 244.882 188.423 245.074Z" fill="white"/>
<path d="M586.576 378.274H548.596V455.216H586.576V378.274Z" fill="#EBEBEB"/>
<path d="M204.318 378.274H166.338V455.216H204.318V378.274Z" fill="#EBEBEB"/>
<g opacity="0.3">
<path opacity="0.3" d="M166.338 404.298L204.318 405.021V390.886H166.338V404.298Z" fill="black"/>
</g>
<g opacity="0.3">
<path opacity="0.3" d="M548.598 404.298L586.577 405.021V390.886H548.598V404.298Z" fill="black"/>
</g>
<path d="M646.108 354.204H88.0972V390.897H646.108V354.204Z" fill="#EBEBEB"/>
<path d="M646.12 390.885C646.12 391.055 521.647 391.179 368.136 391.179C214.625 391.179 90.1299 391.055 90.1299 390.885C90.1299 390.716 214.614 390.592 368.159 390.592C521.704 390.592 646.12 390.716 646.12 390.885Z" fill="#263238"/>
<path d="M646.12 354.204C646.12 354.362 521.647 354.497 368.136 354.497C214.625 354.497 90.1299 354.362 90.1299 354.204C90.1299 354.046 214.614 353.91 368.159 353.91C521.704 353.91 646.12 354.034 646.12 354.204Z" fill="#263238"/>
<path d="M411.65 192.62C411.65 192.62 409.166 167.872 420.265 153.014C431.363 138.156 442.156 136.079 474.118 133.437C506.08 130.795 532.702 142.887 540.729 159.54C548.757 176.193 547.323 198.863 539.341 218.248L534.689 228.68C534.689 228.68 541.463 238.649 542.321 275.105C543.179 311.56 519.899 342.281 519.899 342.281L482.1 353.571H251.783C251.783 353.571 235.311 313.265 237.32 293.632C240.109 266.434 260.239 211.508 321.928 211.508C337.531 211.508 361.884 218.847 371.661 219.93C411.718 224.322 415.173 221.455 415.173 221.455L411.65 192.62Z" fill="#F1463B"/>
<g opacity="0.3">
<path opacity="0.3" d="M447.62 248.076C447.62 248.076 460.456 249.205 475.574 265.09C490.691 280.975 494.609 319.915 494.609 319.915L492.498 319.012L447.62 248.076Z" fill="black"/>
</g>
<path d="M568.616 343.929C564.913 342.596 555.993 341.501 555.993 341.501C555.993 341.501 543.879 336.669 531.155 330.584L492.555 319.011C492.555 319.011 488.761 292.943 477.528 273.23C459.328 241.302 420.998 243.289 420.998 243.289L397.933 289.973C397.933 289.973 419.09 312.305 423.245 331.137C427.4 349.969 423.245 353.344 423.245 353.344L546.07 353.525H576.225C576.033 351.357 575.209 349.293 573.857 347.588C572.505 345.882 570.683 344.61 568.616 343.929Z" fill="#F1463B"/>
<g opacity="0.4">
<path opacity="0.4" d="M501.88 172.478L498.968 171.214C497.6 170.246 496.098 169.485 494.508 168.956L489.269 133.302C483.284 132.942 477.28 133.082 471.318 133.719C471.318 133.719 478.905 146.398 481.999 169.306C480.618 169.83 479.313 170.532 478.115 171.394C475.084 173.604 472.814 176.701 471.618 180.256C470.421 183.811 470.358 187.649 471.436 191.242C472.513 194.835 474.68 198.004 477.635 200.314C480.591 202.623 484.19 203.958 487.937 204.135C491.682 204.337 495.4 203.393 498.596 201.43C501.792 199.467 504.314 196.577 505.828 193.145C507.342 189.714 507.775 185.903 507.069 182.219C506.364 178.535 504.554 175.153 501.88 172.523V172.478Z" fill="white"/>
</g>
<path d="M473.944 173.423C476.156 164.746 470.915 155.92 462.239 153.708C453.562 151.497 444.736 156.737 442.524 165.414C440.312 174.09 445.553 182.917 454.23 185.129C462.906 187.34 471.733 182.099 473.944 173.423Z" fill="white"/>
<path d="M474.445 169.43C474.332 168.107 474.125 166.794 473.825 165.501C473.265 163.339 472.26 161.318 470.874 159.567C469.487 157.817 467.75 156.376 465.774 155.336C463.797 154.296 461.626 153.681 459.398 153.53C457.17 153.379 454.935 153.696 452.836 154.459C451.391 154.978 450.032 155.713 448.806 156.638C447.502 157.577 446.358 158.721 445.419 160.025C443.401 162.748 442.312 166.047 442.312 169.436C442.312 172.824 443.401 176.123 445.419 178.846C446.362 180.147 447.505 181.29 448.806 182.233C450.029 183.159 451.389 183.89 452.836 184.401C454.936 185.161 457.172 185.475 459.401 185.324C461.629 185.172 463.801 184.558 465.779 183.52C467.757 182.482 469.497 181.044 470.888 179.296C472.279 177.549 473.291 175.53 473.858 173.37C474.152 172.076 474.356 170.763 474.468 169.441C474.485 169.527 474.485 169.615 474.468 169.701C474.468 169.915 474.468 170.164 474.468 170.48C474.468 170.9 474.434 171.319 474.366 171.733C474.308 172.305 474.206 172.871 474.062 173.427C473.707 174.965 473.117 176.439 472.312 177.796C471.132 179.802 469.54 181.535 467.64 182.88C465.74 184.225 463.577 185.151 461.293 185.597C458.401 186.148 455.415 185.914 452.644 184.92C449.571 183.816 446.897 181.819 444.967 179.185C442.878 176.363 441.75 172.946 441.75 169.436C441.75 165.925 442.878 162.508 444.967 159.687C446.909 157.066 449.579 155.075 452.644 153.963C455.414 152.963 458.401 152.729 461.293 153.285C463.803 153.757 466.164 154.821 468.179 156.39C469.847 157.669 471.251 159.261 472.312 161.075C473.119 162.436 473.709 163.914 474.062 165.456C474.207 166.012 474.309 166.578 474.366 167.149C474.434 167.564 474.468 167.983 474.468 168.403C474.468 168.707 474.468 168.967 474.468 169.182C474.476 169.265 474.468 169.349 474.445 169.43Z" fill="#263238"/>
<path d="M444.932 165.106C446.818 159.461 450.927 155.78 454.123 156.841C457.318 157.903 458.39 163.344 456.505 168.978C454.619 174.612 450.51 178.315 447.315 177.243C444.12 176.17 443.081 170.739 444.932 165.106Z" fill="#F1463B"/>
<path d="M422.353 154.753C422.353 154.753 427.93 112.257 434.433 107.425C440.936 102.593 465.684 136.779 465.684 136.779L432.209 152.032L422.353 154.753Z" fill="#F1463B"/>
<path d="M492.576 136.361C492.576 136.361 504.769 117.992 507.332 115.43C509.895 112.867 515.766 103.36 521.637 106.838C527.508 110.315 530.974 147.347 530.974 147.347L505.221 142.232L492.576 136.361Z" fill="#F1463B"/>
<path d="M482.19 170.886C486.197 169.3 490.635 169.18 494.722 170.547C494.988 170.538 495.251 170.606 495.479 170.742C495.707 170.878 495.892 171.076 496.011 171.314C496.13 171.552 496.178 171.819 496.15 172.083C496.121 172.347 496.018 172.598 495.851 172.805L491.177 178.236C490.957 178.488 490.653 178.653 490.322 178.7C489.991 178.748 489.653 178.675 489.371 178.495L481.468 173.392C481.238 173.224 481.065 172.99 480.973 172.72C480.881 172.451 480.874 172.16 480.953 171.886C481.032 171.613 481.193 171.37 481.414 171.191C481.635 171.012 481.906 170.906 482.19 170.886Z" fill="#263238"/>
<path d="M272.94 432.997C269.496 409.547 249.174 392.409 228.672 380.543C225.42 378.658 222.056 376.795 219.639 373.927C217.223 371.06 215.902 366.905 217.381 363.461C219.369 358.945 225.014 357.557 229.891 356.687L253.487 352.747L247.119 319.701C233.571 321.756 219.865 323.845 207.175 329.027C194.485 334.209 182.732 342.902 176.557 355.141C170.381 367.379 170.912 383.445 179.944 393.708C186.718 401.373 197.15 404.998 204.138 412.472C208.037 416.746 210.662 422.026 211.715 427.714C212.769 433.403 212.209 439.273 210.099 444.66C206.927 452.416 200.435 459.337 200.717 467.68C201.101 479.117 214.085 486.139 225.555 486.444C232.365 486.631 239.134 485.326 245.386 482.62C251.638 479.915 257.222 475.874 261.747 470.781C266.272 465.688 269.628 459.667 271.579 453.14C273.53 446.612 274.029 439.737 273.041 432.997H272.94Z" fill="#F1463B"/>
<path d="M371.367 244.419C368.702 243.142 366.123 241.694 363.645 240.084C361.064 238.635 358.582 237.017 356.216 235.24C358.885 236.516 361.469 237.964 363.949 239.576C366.531 241.017 369.009 242.636 371.367 244.419Z" fill="#263238"/>
<path d="M452.734 168.64C452.734 169.261 450.792 169.769 448.387 169.769C445.982 169.769 444.029 169.272 444.029 168.64C444.029 168.008 445.982 167.511 448.387 167.511C450.792 167.511 452.734 168.019 452.734 168.64Z" fill="white"/>
<path d="M490.397 178.101C490.556 178.489 490.652 178.901 490.68 179.32C490.828 180.444 490.828 181.583 490.68 182.707C490.496 184.384 489.99 186.009 489.189 187.494C488.169 189.326 486.676 190.851 484.865 191.908C483.059 192.988 480.971 193.504 478.87 193.387C477.163 193.267 475.515 192.711 474.083 191.773C473.122 191.147 472.293 190.337 471.645 189.391C471.389 189.052 471.198 188.669 471.08 188.262C471.927 189.525 473.017 190.608 474.286 191.445C475.678 192.29 477.256 192.779 478.882 192.868C480.863 192.942 482.824 192.44 484.527 191.423C486.245 190.411 487.673 188.972 488.67 187.246C489.482 185.826 490.021 184.268 490.262 182.65C490.45 181.142 490.496 179.618 490.397 178.101Z" fill="#263238"/>
<path d="M508.586 184.807C508.457 185.172 508.278 185.518 508.056 185.835C507.522 186.745 506.914 187.61 506.238 188.42C505.244 189.673 503.924 190.626 502.422 191.175C500.515 191.754 498.458 191.567 496.687 190.655C494.92 189.803 493.443 188.448 492.442 186.76C491.643 185.399 491.064 183.921 490.726 182.38C490.495 181.355 490.347 180.313 490.285 179.264C490.233 178.889 490.233 178.509 490.285 178.135C490.398 178.135 490.466 179.783 491.121 182.312C491.495 183.79 492.093 185.203 492.893 186.501C493.863 188.082 495.265 189.351 496.935 190.159C498.572 191.005 500.47 191.194 502.241 190.689C503.669 190.191 504.94 189.322 505.922 188.172C507.661 186.185 508.485 184.739 508.586 184.807Z" fill="#263238"/>
<path d="M496.867 193.274C496.924 193.274 496.562 193.985 495.659 194.809C494.454 195.883 492.955 196.571 491.355 196.785C489.755 196.998 488.128 196.727 486.684 196.006C486.072 195.771 485.532 195.382 485.114 194.877C485.171 194.798 485.769 195.238 486.853 195.667C488.25 196.243 489.774 196.442 491.272 196.244C492.769 196.046 494.189 195.458 495.388 194.538C496.359 193.793 496.867 193.206 496.867 193.274Z" fill="#263238"/>
<g opacity="0.3">
<path opacity="0.3" d="M433.698 148.95C433.698 148.95 433.698 112.923 437.255 112.37C440.811 111.817 459.496 137.208 459.496 137.208C459.496 137.208 444.717 151.942 433.698 148.95Z" fill="black"/>
</g>
<path d="M461.146 136.915C456.46 135.786 450.375 136.644 445.712 137.863C447.602 138.28 449.308 139.293 450.578 140.753C443.002 143.305 435.077 146.071 429.68 151.964L435.246 153.218L456.336 150.022L461.146 136.915Z" fill="#F1463B"/>
<g opacity="0.3">
<path opacity="0.3" d="M496.586 137.818C496.586 137.818 517.495 108.463 520.713 110.078C523.93 111.692 524.416 143.214 524.416 143.214C524.416 143.214 503.823 146.59 496.586 137.818Z" fill="black"/>
</g>
<path d="M525.916 143.88C522.766 140.245 517.302 137.411 512.797 135.706C514.084 137.134 514.876 138.94 515.055 140.854C507.411 138.529 499.362 136.18 491.538 137.851L495.342 142.108L514.366 151.749L525.916 143.88Z" fill="#F1463B"/>
<path d="M531.989 170.741C534.034 162.024 528.625 153.3 519.907 151.255C511.19 149.21 502.466 154.62 500.421 163.337C498.376 172.054 503.786 180.779 512.503 182.823C521.22 184.868 529.945 179.459 531.989 170.741Z" fill="white"/>
<path d="M532.408 167.048C532.297 165.725 532.093 164.412 531.798 163.119C530.868 159.607 528.784 156.509 525.882 154.324C523.753 152.715 521.255 151.665 518.616 151.271C515.978 150.876 513.282 151.15 510.776 152.066C507.82 153.153 505.249 155.085 503.381 157.62C501.363 160.343 500.274 163.642 500.274 167.031C500.274 170.419 501.363 173.718 503.381 176.441C504.324 177.742 505.467 178.885 506.768 179.828C507.991 180.754 509.351 181.486 510.798 181.996C513.477 182.975 516.369 183.225 519.176 182.718C521.636 182.275 523.957 181.258 525.95 179.749C528.851 177.567 530.934 174.473 531.866 170.965C532.16 169.671 532.363 168.358 532.475 167.036C532.492 167.122 532.492 167.21 532.475 167.296C532.475 167.51 532.475 167.759 532.475 168.064C532.475 168.487 532.441 168.91 532.374 169.328C532.314 169.899 532.213 170.466 532.069 171.022C531.715 172.56 531.124 174.034 530.319 175.391C528.393 178.693 525.369 181.213 521.775 182.513C518.181 183.813 514.244 183.81 510.652 182.504C507.58 181.402 504.907 179.409 502.974 176.78C500.885 173.958 499.758 170.541 499.758 167.031C499.758 163.52 500.885 160.103 502.974 157.282C504.916 154.661 507.586 152.67 510.652 151.558C513.421 150.56 516.407 150.322 519.3 150.869C521.584 151.315 523.748 152.241 525.647 153.586C527.547 154.931 529.139 156.664 530.319 158.67C531.126 160.031 531.717 161.509 532.069 163.051C532.214 163.607 532.316 164.173 532.374 164.744C532.441 165.159 532.475 165.578 532.475 165.998C532.475 166.302 532.475 166.562 532.475 166.765C532.472 166.863 532.449 166.959 532.408 167.048Z" fill="#263238"/>
<g opacity="0.4">
<path opacity="0.4" d="M536.189 332.469C530.564 339.96 522.427 345.171 513.27 347.146C512.141 347.384 510.786 347.463 510.165 346.514C509.545 345.566 510.165 344.256 510.843 343.364C514.23 338.419 517.346 333.271 521.004 328.518L521.749 327.547L531.109 330.584L536.189 332.469Z" fill="white"/>
</g>
<path d="M502.659 164.056C504.116 158.298 507.943 154.301 511.217 155.125C514.491 155.949 515.959 161.29 514.503 167.048C513.046 172.805 509.219 176.813 505.945 175.978C502.671 175.143 501.214 169.825 502.659 164.056Z" fill="#F1463B"/>
<path d="M505.12 167.793C507.521 167.793 509.467 167.293 509.467 166.675C509.467 166.058 507.521 165.558 505.12 165.558C502.72 165.558 500.773 166.058 500.773 166.675C500.773 167.293 502.72 167.793 505.12 167.793Z" fill="white"/>
<path d="M594.684 278.538C591.624 278.075 580.063 279.498 580.063 279.498L552.459 284.68L528.75 285.244L522.213 324.184C522.213 324.184 546.34 320.131 553.114 317.793C559.888 315.456 584.331 293.621 585.369 293.621C586.408 293.621 595.802 290.98 597.371 290.98L599.121 290.212C599.621 289.982 600.015 289.571 600.224 289.062C600.434 288.553 600.443 287.984 600.25 287.468C599.2 284.409 596.908 278.877 594.684 278.538Z" fill="#F1463B"/>
<g opacity="0.3">
<path opacity="0.3" d="M552.459 284.679C552.459 284.679 547.536 312.238 539.566 320.999L531.561 322.512L540.345 284.961L552.459 284.679Z" fill="black"/>
</g>
<path d="M531.109 323.246C539.25 310.375 545.978 289.691 543.043 274.698L546.057 282.601C546.37 273.931 545.08 265.277 542.253 257.075L548.022 264.481C545.606 252.863 541.045 238.66 534.643 228.714" fill="#F1463B"/>
<path d="M534.643 228.657C534.8 228.84 534.94 229.036 535.061 229.244C535.309 229.639 535.716 230.215 536.19 231.006C537.529 233.269 538.746 235.601 539.837 237.994C543.602 246.454 546.441 255.297 548.304 264.368L548.541 265.497L547.83 264.593C545.99 262.223 544.048 259.75 542.05 257.198L542.546 256.928C544.606 262.883 545.855 269.087 546.261 275.375C546.428 277.765 546.465 280.162 546.374 282.556V283.979L545.854 282.646C544.827 279.959 543.822 277.329 542.84 274.743L543.393 274.585C544.015 278.094 544.212 281.665 543.98 285.22C543.801 288.471 543.367 291.702 542.682 294.885C541.574 300.175 539.971 305.35 537.895 310.341C536.551 313.64 534.99 316.846 533.221 319.937C532.622 321.066 532.092 321.823 531.73 322.387L531.324 323.008C531.285 323.079 531.236 323.144 531.177 323.2C531.177 323.2 531.177 323.121 531.279 322.974L531.64 322.331C531.956 321.755 532.476 320.953 533.04 319.836C534.744 316.723 536.253 313.506 537.556 310.205C539.576 305.219 541.129 300.056 542.196 294.783C542.856 291.621 543.271 288.413 543.438 285.187C543.658 281.679 543.453 278.157 542.829 274.698L543.37 274.54C544.353 277.08 545.369 279.7 546.396 282.387L545.832 282.488C545.922 280.117 545.888 277.743 545.73 275.375C545.3 269.151 544.055 263.009 542.027 257.108L541.474 255.505L542.512 256.848L548.259 264.266L547.796 264.481C545.967 255.436 543.205 246.605 539.554 238.13C538.188 235.047 536.958 232.676 536.055 231.096C535.626 230.294 535.253 229.707 535.016 229.289C534.879 229.087 534.754 228.876 534.643 228.657Z" fill="#263238"/>
<g opacity="0.4">
<path opacity="0.4" d="M329.276 352.723C333.593 345.935 339.796 340.552 347.125 337.233C353.167 335.477 359.635 335.904 365.393 338.441C375.362 342.675 376.412 349.009 377.304 353.401L329.276 352.723Z" fill="white"/>
</g>
<path d="M354.194 341.908C355.295 341.731 356.413 341.685 357.525 341.773C360.27 341.768 362.977 342.41 365.428 343.647C366.763 344.364 367.92 345.371 368.815 346.593C369.525 347.606 370.003 348.762 370.215 349.98C370.352 350.802 370.325 351.642 370.136 352.453C370.093 352.757 369.981 353.046 369.808 353.3C369.986 352.223 369.986 351.125 369.808 350.048C369.556 348.906 369.067 347.829 368.375 346.887C367.497 345.747 366.389 344.804 365.123 344.121C362.751 342.943 360.159 342.274 357.514 342.156C356.403 342.14 355.295 342.058 354.194 341.908Z" fill="#263238"/>
<path d="M193.458 364.352C193.393 364.568 193.298 364.773 193.176 364.962L192.261 366.622L188.874 372.572L188.547 373.125L188.434 372.493C187.857 369.149 188.359 365.709 189.868 362.67L190.342 362.986L187.756 365.877L183.116 371.036L182.552 371.657L182.619 370.822C182.948 366.908 183.973 363.085 185.645 359.532C186.128 358.511 186.671 357.519 187.271 356.562C187.462 356.206 187.697 355.876 187.971 355.58C187.829 355.974 187.647 356.352 187.429 356.709C187.068 357.398 186.537 358.403 185.973 359.724C184.433 363.262 183.49 367.031 183.184 370.878L182.699 370.675L187.316 365.493L189.856 362.67L191.324 361.033L190.331 362.998C188.863 365.928 188.342 369.242 188.84 372.481L188.411 372.402L192.024 366.554L193.052 364.962C193.154 364.739 193.292 364.533 193.458 364.352Z" fill="#263238"/>
<path d="M239.081 423.456C238.712 423.263 238.364 423.032 238.042 422.768L235.276 420.69C232.95 418.918 229.71 416.411 226.041 413.544L226.493 413.205C226.922 414.21 227.373 415.26 227.825 416.332L230.591 422.881L230.839 423.456L230.252 423.242C227.313 422.158 224.863 420.049 223.354 417.303C222.926 416.532 222.588 415.714 222.349 414.865C222.248 414.565 222.188 414.254 222.168 413.939C222.581 415.039 223.075 416.107 223.647 417.134C225.179 419.748 227.575 421.744 230.421 422.779L230.083 423.152L227.272 416.626L225.905 413.431L225.465 412.381L226.357 413.092C230.004 415.982 233.199 418.545 235.468 420.397L238.121 422.598C238.476 422.843 238.798 423.132 239.081 423.456Z" fill="#263238"/>
<path d="M276.71 224.288C263.162 229.933 239.882 254.997 236.134 266.919L244.714 258.045C239.597 264.591 235.987 272.185 234.143 280.286C232.298 288.387 232.265 296.795 234.045 304.91C234.711 298.622 235.592 294.332 238.561 289.206C235.479 298.294 237.026 312.26 240.989 321.01" fill="#F1463B"/>
<path d="M241.012 321.043C240.913 320.873 240.826 320.696 240.752 320.513C240.605 320.163 240.346 319.655 240.086 318.955C239.299 316.923 238.662 314.836 238.178 312.711C237.413 309.373 236.956 305.972 236.812 302.55C236.715 300.423 236.768 298.291 236.97 296.171C237.166 293.792 237.635 291.443 238.37 289.172L238.788 289.363C237.464 291.615 236.44 294.028 235.739 296.544C235.033 299.315 234.554 302.14 234.306 304.989L234.136 306.615L233.786 305.023C232.494 299.319 232.113 293.447 232.657 287.625C233.634 276.779 237.728 266.447 244.444 257.875L244.884 258.248L236.293 267.122L235.401 268.048L235.818 266.851C237.343 262.917 239.398 259.209 241.926 255.832C244.286 252.569 246.702 249.589 249.096 246.868C253.27 242.111 257.778 237.659 262.587 233.545C265.712 230.812 269.083 228.375 272.658 226.263C273.607 225.696 274.591 225.191 275.605 224.75L276.395 224.4C276.481 224.356 276.572 224.322 276.666 224.299L276.406 224.446L275.65 224.841C274.651 225.313 273.682 225.844 272.748 226.433C269.226 228.597 265.901 231.067 262.813 233.816C258.051 237.952 253.588 242.419 249.457 247.184C247.086 249.905 244.692 252.885 242.355 256.137C239.875 259.479 237.855 263.14 236.349 267.02L235.886 266.738L244.467 257.853L244.907 258.237C238.281 266.735 234.227 276.952 233.222 287.681C232.666 293.439 233.016 299.249 234.26 304.899H233.741C234.001 302.022 234.496 299.171 235.22 296.375C235.946 293.821 237.001 291.374 238.359 289.092L239.488 287.128L238.754 289.284C238.016 291.522 237.539 293.836 237.331 296.183C237.115 298.283 237.047 300.395 237.128 302.505C237.233 305.923 237.652 309.325 238.381 312.666C238.834 314.784 239.426 316.87 240.154 318.91C240.391 319.621 240.639 320.14 240.763 320.501C240.888 320.863 241.012 321.043 241.012 321.043Z" fill="#263238"/>
<path d="M276.711 333.135C276.711 333.135 276.598 333.068 276.417 332.909C276.236 332.751 275.954 332.503 275.615 332.164C274.927 331.51 273.945 330.516 272.77 329.184C269.521 325.515 266.727 321.466 264.45 317.126L264.935 317.024C264.665 320.323 264.874 323.642 265.556 326.881L265.748 327.818L265.071 327.14C260.349 322.387 257.623 316.01 257.45 309.313L258.003 309.392C256.775 313.251 256.503 317.35 257.213 321.337L257.597 323.471L256.761 321.473C255.238 317.838 254.323 313.978 254.051 310.047C253.993 308.964 253.993 307.879 254.051 306.796C254.051 306.423 254.051 306.141 254.051 305.949C254.04 305.851 254.04 305.753 254.051 305.655C254.084 306.031 254.084 306.409 254.051 306.784C254.051 307.529 254.108 308.625 254.232 310.013C254.597 313.904 255.568 317.713 257.111 321.303L256.659 321.439C255.886 317.377 256.135 313.187 257.382 309.246L257.89 307.62V309.325C258.08 315.868 260.743 322.097 265.342 326.756L264.856 327.016C264.183 323.723 263.989 320.35 264.28 317.002L264.359 316.121L264.766 316.911C267.003 321.236 269.718 325.296 272.861 329.014C273.99 330.369 274.949 331.385 275.593 332.085C276.236 332.785 276.711 333.135 276.711 333.135Z" fill="#263238"/>
<path d="M434.151 353.526C433.854 353.549 433.556 353.549 433.259 353.526L430.73 353.391L421.517 352.804L420.625 352.747L421.438 352.375C424.167 351.088 426.411 348.958 427.84 346.3L428.144 346.696L422.353 348.073L421.89 348.186L422.003 347.712C422.635 345.404 423.044 343.041 423.222 340.655C423.781 332.44 421.683 324.262 417.238 317.33C415.889 315.238 414.343 313.28 412.621 311.482L411.175 310.059C410.837 309.732 410.667 309.551 410.69 309.54C410.894 309.655 411.081 309.8 411.243 309.969C411.604 310.274 412.135 310.714 412.79 311.313C414.583 313.07 416.19 315.007 417.588 317.093C422.223 324.093 424.418 332.427 423.832 340.802C423.654 343.228 423.234 345.63 422.578 347.971L422.24 347.621L428.02 346.267L428.607 346.12L428.325 346.65C426.831 349.405 424.476 351.595 421.619 352.883L421.54 352.454L430.741 353.244L433.27 353.492C433.564 353.476 433.859 353.487 434.151 353.526Z" fill="#263238"/>
<path d="M509.885 217.673C509.84 217.817 509.776 217.954 509.693 218.079C509.546 218.339 509.343 218.723 509.049 219.208C508.202 220.601 507.274 221.943 506.272 223.228C502.772 227.712 498.478 231.516 493.604 234.45L492.938 234.856L493.198 234.122C493.952 232.029 494.29 229.808 494.191 227.586L494.733 227.721C492.519 231.458 489.387 234.567 485.634 236.753L485.047 237.103L485.216 236.437C485.905 233.66 486.571 231.006 487.192 228.534L487.643 228.771C485.052 231.566 481.901 233.786 478.397 235.285L477.81 235.534L478.16 235.003C479.351 233.19 480.278 231.217 480.914 229.144C481.14 228.421 481.276 227.845 481.377 227.461C481.415 227.262 481.468 227.066 481.535 226.874C481.544 227.079 481.525 227.284 481.479 227.484C481.411 227.879 481.309 228.455 481.118 229.2C480.549 231.327 479.662 233.356 478.487 235.218L478.25 234.935C481.673 233.402 484.747 231.185 487.282 228.421L487.982 227.653L487.734 228.658C487.135 231.142 486.48 233.795 485.803 236.561L485.385 236.245C489.037 234.099 492.092 231.071 494.27 227.439L494.767 226.615V227.574C494.858 229.88 494.497 232.181 493.706 234.348L493.311 234.01C498.149 231.129 502.441 227.418 505.99 223.047C507.31 221.432 508.248 220.078 508.88 219.141C509.189 218.634 509.524 218.144 509.885 217.673Z" fill="#263238"/>
<path d="M368.16 250.425C367.693 250.22 367.247 249.971 366.828 249.68C366.003 249.161 364.795 248.427 363.294 247.557C359.363 245.283 355.277 243.288 351.067 241.585C346.853 239.902 342.526 238.522 338.117 237.453C336.423 237.035 335.046 236.73 334.086 236.538C333.587 236.46 333.095 236.335 332.619 236.166C333.127 236.159 333.634 236.208 334.132 236.313C335.102 236.437 336.502 236.685 338.207 237.046C342.675 238.003 347.053 239.34 351.292 241.043C355.53 242.746 359.617 244.805 363.508 247.196C364.987 248.122 366.173 248.901 366.963 249.454C367.392 249.738 367.793 250.064 368.16 250.425Z" fill="#263238"/>
<path d="M431.814 150.835C431.814 150.835 431.882 150.699 432.062 150.485C432.314 150.156 432.585 149.843 432.875 149.548C433.927 148.446 435.093 147.458 436.353 146.601C440.55 143.803 445.251 141.847 450.194 140.843H450.318L450.16 141.317C448.999 139.967 447.532 138.914 445.881 138.246L445.238 137.987L445.881 137.716C449.38 136.275 453.187 135.747 456.946 136.18C458.027 136.306 459.095 136.521 460.141 136.824C460.531 136.916 460.91 137.053 461.27 137.23C461.27 137.32 459.678 136.779 456.934 136.541C453.244 136.222 449.531 136.807 446.118 138.246V137.716C447.865 138.406 449.416 139.515 450.634 140.945L450.939 141.306L450.465 141.419H450.341C445.469 142.422 440.818 144.296 436.612 146.951C434.906 148.108 433.301 149.407 431.814 150.835Z" fill="#263238"/>
<path d="M494 137.457C494 137.457 494.146 137.4 494.429 137.344C494.711 137.287 495.14 137.197 495.693 137.14C497.256 136.966 498.831 136.925 500.401 137.016C505.616 137.296 510.725 138.596 515.439 140.844L515.01 141.115V140.832C514.848 139.906 514.507 139.02 514.006 138.224C513.554 137.411 513.035 136.632 512.572 135.842L512.222 135.232L512.899 135.436C516.744 136.549 520.287 138.518 523.263 141.194C524.121 141.969 524.903 142.823 525.6 143.745C525.865 144.07 526.089 144.427 526.267 144.806C525.262 143.604 524.176 142.472 523.015 141.419C520.024 138.881 516.525 137.01 512.752 135.932L513.068 135.515C513.52 136.282 514.039 137.05 514.514 137.897C515.075 138.753 515.458 139.713 515.643 140.719V141.058V141.555L515.18 141.329C510.529 139.121 505.512 137.785 500.378 137.389C498.827 137.263 497.27 137.241 495.716 137.321C495.148 137.409 494.574 137.455 494 137.457Z" fill="#263238"/>
<g opacity="0.4">
<path opacity="0.4" d="M412.529 173.945C418.423 175.469 423.819 176.847 429.871 176.553C431.801 176.463 434.026 175.978 434.906 174.295C435.221 173.513 435.29 172.653 435.105 171.83C434.919 171.007 434.488 170.261 433.868 169.689C432.607 168.572 431.132 167.723 429.532 167.194L415.476 161.549C413.816 166.573 412.62 171.044 412.529 173.945Z" fill="white"/>
</g>
<g opacity="0.4">
<path opacity="0.4" d="M544.975 175.889C543.959 173.326 544.591 181.421 542.909 183.6C541.098 185.681 539.052 187.545 536.812 189.154C534.566 190.767 532.691 192.842 531.314 195.24C530.185 197.498 530.015 200.422 531.777 202.161C533.233 203.572 535.468 203.696 537.489 203.673C539.894 203.673 542.705 203.267 543.925 201.19C543.925 201.19 549.321 186.817 544.975 175.889Z" fill="white"/>
</g>
<g opacity="0.4">
<path opacity="0.4" d="M531.132 260.756C527.033 251.905 520.237 243.821 511.035 240.547C501.834 237.273 490.16 240.186 485.316 248.653C483.104 252.917 482.226 257.748 482.799 262.517C483.38 267.255 484.347 271.937 485.689 276.517C489.2 290.37 493.524 305.657 494.619 319.916L524.29 328.395C529.935 315.626 535.648 302.507 536.438 288.563C536.971 279 535.149 269.451 531.132 260.756Z" fill="white"/>
</g>
<g opacity="0.4">
<path opacity="0.4" d="M360.9 270.566C364.016 277.521 329.288 310.871 304.687 315.026C302.621 315.376 300.171 315.534 298.714 314.078C297.258 312.621 297.45 309.562 298.94 307.721C300.431 305.881 302.666 304.967 304.811 304.041C315.198 299.525 322.875 292.457 330.485 284.091C338.094 275.725 344.642 264.097 342.847 252.908C342.847 252.908 356.429 260.608 360.9 270.566Z" fill="white"/>
</g>
<g opacity="0.4">
<path opacity="0.4" d="M546.543 353.525L556.05 341.75C556.05 341.75 570.275 341.547 574.114 347.959C574.655 348.672 575.1 349.455 575.435 350.285C575.77 351.343 576.019 352.427 576.18 353.525H546.543Z" fill="white"/>
</g>
<path d="M570.083 354.428C569.824 353.623 569.624 352.801 569.484 351.967C569.159 350.007 568.107 348.241 566.538 347.022C564.782 346.073 562.758 345.743 560.791 346.085C559.961 346.242 559.118 346.329 558.273 346.345C559.054 345.992 559.884 345.763 560.735 345.667C561.657 345.495 562.598 345.438 563.535 345.498C564.71 345.552 565.853 345.906 566.854 346.525C567.847 347.178 568.631 348.103 569.112 349.19C569.497 350.046 569.767 350.949 569.913 351.877C570.102 352.713 570.159 353.574 570.083 354.428Z" fill="#263238"/>
<g opacity="0.4">
<path opacity="0.4" d="M498.301 320.718C488.521 334.237 474.357 343.948 458.221 348.198C456.133 348.74 453.073 348.559 452.847 346.414C452.874 345.868 453.014 345.335 453.259 344.847C453.504 344.359 453.848 343.927 454.27 343.58C465.842 331.059 477.979 318.55 489.585 306.029L492.509 319.024L498.301 320.718Z" fill="white"/>
</g>
<g opacity="0.4">
<path opacity="0.4" d="M480.248 277.814C480.248 277.814 458.108 299.265 444.616 305.023C443.104 305.667 441.342 306.265 439.863 305.531C438.17 304.673 437.707 302.325 438.35 300.53C439.151 298.795 440.341 297.269 441.828 296.07C452.237 286.18 461.518 274.054 469.353 262.03C469.353 262.008 472.413 264.097 480.248 277.814Z" fill="white"/>
</g>
<g opacity="0.4">
<path opacity="0.4" d="M249.84 480.279C253.611 478.54 255.169 473.381 255.609 469.249C256.192 463.749 255.17 458.197 252.665 453.266C250.161 448.335 246.282 444.234 241.497 441.46C236.712 438.686 231.226 437.357 225.702 437.635C220.178 437.912 214.853 439.783 210.37 443.022C210.37 443.022 207.367 450.044 206.091 452.302C204.815 454.56 194.485 467.995 205.515 478.405C216.546 488.814 229.563 486.545 233.413 485.958C239.205 485.147 244.784 483.218 249.84 480.279Z" fill="white"/>
</g>
<path d="M576.18 353.525C576.18 353.525 576.18 352.995 575.921 352.012C575.59 350.562 574.946 349.202 574.035 348.027C572.351 345.82 570.005 344.21 567.34 343.432C563.696 342.243 559.882 341.66 556.05 341.704H555.971L531.009 330.877L492.408 319.339L492.239 319.282V319.113C491.731 316.415 491.189 313.547 490.59 310.668C487.79 296.906 483.76 283.933 477.505 273.411C474.591 268.43 471.009 263.872 466.859 259.863C463.228 256.396 459.099 253.492 454.609 251.249C450.891 249.424 447.028 247.913 443.059 246.732C439.559 245.603 436.5 244.892 434.027 244.294L428.235 242.95L426.734 242.6L426.226 242.465C426.4 242.482 426.573 242.508 426.745 242.544L428.258 242.837C429.59 243.097 431.555 243.492 434.083 244.068C436.612 244.644 439.672 245.366 443.195 246.416C447.192 247.589 451.082 249.1 454.823 250.932C459.376 253.167 463.563 256.079 467.242 259.569C471.437 263.57 475.061 268.129 478.013 273.117C484.347 283.651 488.4 296.68 491.211 310.476C491.81 313.366 492.34 316.234 492.86 318.932L492.656 318.707L531.234 330.313L556.073 341.287H555.994C559.881 341.25 563.748 341.868 567.43 343.116C570.144 343.93 572.521 345.602 574.204 347.88C575.116 349.092 575.745 350.492 576.045 351.978C576.148 352.487 576.194 353.006 576.18 353.525Z" fill="#263238"/>
<g opacity="0.3">
<path opacity="0.3" d="M375.725 334.343C373.587 332.151 371.016 330.427 368.177 329.28C365.337 328.133 362.291 327.589 359.23 327.682C363.573 322.614 366.721 316.634 368.443 310.185C370.165 303.737 370.415 296.983 369.176 290.425C368.055 284.845 365.849 279.541 362.685 274.811C364.354 280.931 364.886 287.307 364.254 293.62C363.009 308.988 357.495 323.702 348.335 336.104C353.912 335.212 362.188 336.545 368.657 339.491C370.91 340.585 372.864 342.21 374.351 344.225C375.838 346.241 376.813 348.588 377.192 351.064L377.655 353.604L381.742 353.401C382.25 347.315 379.947 338.78 375.725 334.343Z" fill="black"/>
</g>
<g opacity="0.4">
<path opacity="0.4" d="M318.359 247.693C318.359 247.693 309.214 246.677 292.651 251.215C291.522 251.52 281.587 260.36 276.924 265.813C275.491 267.473 274.034 269.505 274.407 271.662C274.858 274.247 277.861 275.726 280.469 275.433C283.077 275.139 285.335 273.547 287.458 272.046C297.766 264.583 308.48 255.754 318.359 247.727" fill="white"/>
</g>
<path d="M250.393 353.357H251.025H252.877H260.023L286.634 353.278L377.305 353.21L377.022 353.537C376.83 352.188 376.566 350.85 376.232 349.529C375.856 348.216 375.305 346.959 374.595 345.792C373.164 343.401 371.086 341.463 368.6 340.204C363.398 337.749 357.733 336.429 351.981 336.331C350.677 336.315 349.375 336.406 348.086 336.602L347.375 336.715L347.804 336.128C354.086 327.608 358.684 317.967 361.352 307.722C362.605 302.869 363.41 297.91 363.757 292.91C364.146 288.122 363.899 283.305 363.023 278.582C362.19 274.102 360.462 269.836 357.942 266.039C355.533 262.482 352.495 259.395 348.978 256.928C342.624 252.478 335.316 249.578 327.64 248.461C321.33 247.616 314.939 247.563 308.616 248.303C303.027 248.912 298.263 249.827 294.402 250.628C290.541 251.43 287.537 252.141 285.505 252.604L283.247 253.135L282.457 253.293L283.236 253.078L285.494 252.491C287.515 251.994 290.495 251.261 294.357 250.414C298.218 249.567 302.993 248.63 308.593 247.975C314.947 247.2 321.372 247.227 327.719 248.054C335.452 249.136 342.826 252.013 349.249 256.454C350.987 257.693 352.626 259.067 354.149 260.564C355.707 262.132 357.113 263.844 358.349 265.678C360.921 269.525 362.688 273.853 363.542 278.402C364.429 283.168 364.687 288.031 364.31 292.864C363.22 308.606 357.658 323.71 348.278 336.399L347.996 335.936C349.319 335.741 350.655 335.651 351.992 335.665C357.854 335.756 363.628 337.1 368.927 339.605C371.507 340.915 373.663 342.926 375.148 345.408C375.879 346.621 376.452 347.923 376.853 349.281C377.19 350.628 377.454 351.992 377.643 353.368V353.707H377.305L286.634 353.571L260.023 353.458L252.877 353.402H251.025L250.393 353.357Z" fill="#263238"/>
<path d="M475.834 184.919C475.834 185.078 455.602 188.103 430.606 191.694C405.61 195.284 385.321 198.05 385.299 197.88C385.276 197.711 405.519 194.697 430.527 191.106C455.534 187.516 475.811 184.75 475.834 184.919Z" fill="#263238"/>
<path d="M478.001 187.268C477.765 187.374 477.519 187.457 477.267 187.516L475.145 188.126C473.293 188.645 470.629 189.356 467.242 190.203C460.592 191.908 451.356 194.087 441.094 196.198C430.831 198.309 421.517 199.912 414.731 201.041C411.344 201.572 408.59 201.979 406.682 202.17L404.491 202.453C404.237 202.492 403.981 202.51 403.724 202.509C403.964 202.421 404.214 202.36 404.469 202.329L406.648 201.945L414.664 200.579C421.438 199.45 430.752 197.711 441.015 195.611C451.277 193.511 460.501 191.388 467.185 189.785L475.088 187.889L477.233 187.392C477.483 187.319 477.741 187.277 478.001 187.268Z" fill="#263238"/>
<path d="M566.3 184.931C566.3 185.1 551.341 184.931 532.893 184.434C514.445 183.937 499.508 183.508 499.508 183.305C499.508 183.102 514.468 183.373 532.916 183.813C551.364 184.253 566.3 184.773 566.3 184.931Z" fill="#263238"/>
<path d="M554.909 196.243C554.909 196.412 543.247 194.38 528.942 191.727C514.638 189.074 503.032 186.782 503.066 186.624C503.099 186.466 514.728 188.487 529.033 191.14C543.337 193.793 554.943 196.085 554.909 196.243Z" fill="#263238"/>
<path d="M599.075 288.044C598.512 287.453 598.006 286.81 597.563 286.124C596.471 284.529 594.884 283.339 593.047 282.737C591.16 282.419 589.223 282.796 587.593 283.798C586.903 284.228 586.183 284.605 585.437 284.928C586.003 284.331 586.663 283.832 587.39 283.449C588.16 282.978 588.982 282.599 589.84 282.32C590.936 281.966 592.107 281.919 593.227 282.184C595.172 282.819 596.824 284.134 597.879 285.887C598.382 286.543 598.785 287.27 599.075 288.044Z" fill="#263238"/>
<g opacity="0.4">
<path opacity="0.4" d="M570.896 281.201C570.321 288.611 567.827 295.743 563.659 301.896C561.796 299.344 561.322 296.025 561.299 292.864C561.448 289.609 561.411 286.348 561.187 283.098L570.896 281.201Z" fill="white"/>
</g>
<path d="M492.001 170.965C492.001 171.146 489.923 170.965 487.417 171.214C484.911 171.462 482.901 172.038 482.901 171.88C484.284 171.107 485.833 170.677 487.417 170.627C488.951 170.388 490.519 170.504 492.001 170.965Z" fill="white"/>
<path d="M428.912 126.527C428.861 127.536 428.717 128.537 428.483 129.519C428.122 131.551 427.704 134.035 427.241 136.688C426.778 139.342 426.439 141.825 426.112 143.869C426.015 144.872 425.833 145.865 425.57 146.838C425.502 145.832 425.544 144.821 425.694 143.824C425.864 141.961 426.18 139.398 426.631 136.587C427.083 133.776 427.614 131.258 428.054 129.44C428.237 128.442 428.524 127.465 428.912 126.527Z" fill="white"/>
<path d="M510.077 116.096C508.09 119.086 505.942 121.965 503.642 124.721C501.484 127.601 499.17 130.36 496.709 132.986C498.712 129.998 500.871 127.119 503.179 124.36C505.329 121.484 507.632 118.725 510.077 116.096Z" fill="white"/>
<path d="M485.205 203.673C483.242 204.087 481.206 203.985 479.295 203.378C477.383 202.77 475.662 201.678 474.298 200.207C475.921 201.263 477.655 202.138 479.469 202.815C481.344 203.308 483.267 203.596 485.205 203.673Z" fill="white"/>
<path d="M396.758 230.261C396.69 230.419 394.274 229.426 391.225 228.443C388.177 227.461 385.637 226.84 385.671 226.671C387.633 226.787 389.566 227.198 391.406 227.89C393.301 228.402 395.105 229.202 396.758 230.261Z" fill="white"/>
<path d="M406.546 229.267C406.49 229.425 402.956 228.342 398.576 227.122C394.195 225.903 390.616 225 390.673 224.864C391.485 224.872 392.294 224.986 393.077 225.203C394.545 225.496 396.555 225.971 398.722 226.58C400.89 227.19 402.888 227.834 404.3 228.342C405.086 228.549 405.842 228.86 406.546 229.267Z" fill="white"/>
<path d="M250.743 250.064C254.534 246.418 258.59 243.06 262.879 240.016C261.054 241.911 259.087 243.666 256.997 245.266C255.039 247.023 252.948 248.628 250.743 250.064Z" fill="white"/>
<path d="M247.47 264.266C247.872 263.146 248.39 262.071 249.017 261.06C250.415 258.556 251.98 256.149 253.702 253.857C255.437 251.562 257.323 249.386 259.347 247.342C260.147 246.463 261.032 245.665 261.989 244.96C261.274 245.906 260.493 246.8 259.652 247.636C258.184 249.25 256.265 251.542 254.222 254.218C252.178 256.894 250.575 259.411 249.423 261.274C248.832 262.309 248.18 263.308 247.47 264.266Z" fill="white"/>
<path d="M270.625 319.215C268.17 315.998 266.668 312.157 266.29 308.128C266.459 308.128 267.012 310.713 268.22 313.773C269.428 316.833 270.783 319.124 270.625 319.215Z" fill="white"/>
<path d="M280.821 329.749C280.041 329.084 279.347 328.326 278.754 327.491C277.227 325.5 275.892 323.368 274.769 321.123C273.645 318.88 272.734 316.537 272.048 314.124C271.712 313.138 271.503 312.114 271.427 311.075C271.826 312.028 272.166 313.004 272.443 313.999C274.022 318.704 276.257 323.162 279.082 327.243C279.713 328.041 280.294 328.878 280.821 329.749Z" fill="white"/>
<path d="M201.553 333.045C202.294 332.491 203.107 332.039 203.969 331.702C208.012 329.842 212.32 328.624 216.738 328.089C217.646 327.924 218.573 327.883 219.493 327.965C218.61 328.219 217.707 328.397 216.794 328.495C215.135 328.789 212.843 329.263 210.37 329.963C208.255 330.565 206.171 331.274 204.127 332.086C203.297 332.476 202.436 332.797 201.553 333.045Z" fill="white"/>
<path d="M199.283 340.023C199.917 339.159 200.678 338.398 201.541 337.765C205.491 334.469 210.295 332.363 215.394 331.69C216.433 331.503 217.495 331.469 218.544 331.589C218.544 331.679 217.347 331.769 215.451 332.108C212.982 332.558 210.573 333.289 208.27 334.287C205.969 335.299 203.794 336.576 201.79 338.092C200.22 339.266 199.351 340.09 199.283 340.023Z" fill="white"/>
<path d="M423.685 302.268C422.054 300.022 420.59 297.66 419.305 295.201C417.841 292.838 416.547 290.374 415.432 287.828C418.516 292.443 421.274 297.268 423.685 302.268Z" fill="white"/>
<path d="M425.502 313.943C425.412 313.943 424.848 312.634 423.786 310.556C422.404 307.813 420.827 305.172 419.067 302.653C417.285 300.143 415.323 297.766 413.196 295.54C411.571 293.824 410.487 292.831 410.543 292.763C410.6 292.695 410.871 292.944 411.39 293.361C411.909 293.779 412.632 294.423 413.49 295.247C417.969 299.576 421.589 304.713 424.159 310.387C424.644 311.516 425.006 312.363 425.22 312.995C425.36 313.295 425.455 313.615 425.502 313.943Z" fill="white"/>
<path d="M478.092 207.815C476.38 207.951 474.659 207.716 473.045 207.127C471.367 206.719 469.799 205.948 468.45 204.869C468.529 204.722 470.55 205.738 473.215 206.528C475.879 207.319 478.114 207.59 478.092 207.815Z" fill="white"/>
</svg>
