<svg width="504" height="378" viewBox="0 0 504 378" fill="none" xmlns="http://www.w3.org/2000/svg">
<path d="M154.351 144.225C154.351 133.29 145.486 124.425 134.551 124.425H70.2006C59.2654 124.425 50.4006 133.29 50.4006 144.225C50.4006 155.16 59.2654 164.025 70.2006 164.025H154.351V144.225Z" fill="#F6F7F8"/>
<path d="M242.55 52.0876C242.55 34.6285 256.703 20.4751 274.162 20.4751H354.262C371.721 20.4751 385.875 34.6285 385.875 52.0876C385.875 69.5467 371.721 83.7001 354.262 83.7001H242.55V52.0876Z" fill="#F6F7F8"/>
<path d="M177.975 204.75C195.847 202.779 274.189 196.641 274.189 196.641C340.747 191.991 337.666 226.608 337.05 247.275C336.515 265.216 329.963 357.525 329.963 357.525H116.347C116.347 357.525 116.347 271.158 116.347 251.213C116.347 215.946 154.556 207.333 177.975 204.75Z" fill="#D6DDE2"/>
<path d="M193.725 203.175L257.513 197.663L252 260.662L193.725 203.175Z" fill="#F6F7F8"/>
<path d="M261.45 270.112L251.663 260.662M193.725 203.175L251.663 260.662M251.663 260.662L257.513 198.45" stroke="#18293D" stroke-width="1.575" stroke-linecap="round"/>
<path d="M211.694 114.452C198.393 110.289 184.331 117.927 180.252 131.109C176.089 144.409 183.727 158.472 196.909 162.55C210.209 166.714 224.272 159.076 228.35 145.894C232.429 132.712 224.994 118.616 211.694 114.452Z" fill="#17293E"/>
<path d="M198.285 103.949C200.971 94.9577 210.549 89.8325 219.658 92.6027C228.649 95.2882 233.774 104.866 231.004 113.975C228.318 122.966 218.74 128.092 209.631 125.321C200.725 122.518 195.6 112.94 198.285 103.949Z" fill="#17293E"/>
<path d="M233.117 136.247C219.816 132.083 205.754 139.721 201.675 152.903C197.512 166.203 205.15 180.266 218.332 184.344C231.632 188.508 245.695 180.87 249.773 167.688C253.936 154.388 246.383 140.207 233.117 136.247Z" fill="#FCBD9A"/>
<path d="M180.845 153.006C182.748 146.855 189.161 143.399 195.313 145.302C201.465 147.205 204.921 153.619 203.018 159.77C201.114 165.922 194.701 169.378 188.549 167.475C182.398 165.572 179.026 159.04 180.845 153.006Z" fill="#FCBD9A"/>
<path d="M228.918 118.385C228.918 118.385 200.85 129.585 198.312 130.629C195.774 131.674 194.722 134.141 195.817 136.357C197.149 138.743 204.6 142.83 201.359 150.349C202.218 152.396 202.892 153.953 202.892 153.953L237.592 139.99L228.918 118.385Z" fill="#FCBD9A"/>
<path d="M209.815 139.123C210.459 137.278 213.653 133.563 218.163 135.423" stroke="#18293D" stroke-width="1.575" stroke-linecap="round"/>
<path d="M227.063 133.465C228.303 130.459 232.001 129.17 233.911 131.365" stroke="#18293D" stroke-width="1.575" stroke-linecap="round"/>
<path d="M249.774 167.688C245.61 180.988 231.633 188.508 218.332 184.344C208.665 181.353 202.202 173.143 200.779 163.892C197.798 167.303 193.062 168.919 188.549 167.474C182.398 165.571 178.941 159.158 180.845 153.006C182.748 146.854 189.162 143.398 195.313 145.301C197.95 146.117 200.111 147.845 201.613 149.995C204.278 142.779 197.149 138.744 195.936 136.442C194.755 134.344 195.892 131.759 198.43 130.714C200.968 129.67 229.036 118.47 229.036 118.47L236.699 137.74C247.665 142.914 253.529 155.706 249.774 167.688Z" stroke="#17293E" stroke-width="1.575" stroke-miterlimit="10"/>
<path d="M187.727 152.392L195.737 155.447" stroke="#17293E" stroke-width="1.575" stroke-miterlimit="10" stroke-linecap="round"/>
<path d="M189.947 159.53L192.391 154.123" stroke="#17293E" stroke-width="1.575" stroke-miterlimit="10" stroke-linecap="round"/>
<path d="M231.51 147.978L236.369 143.945L227.327 137.092" stroke="#17293E" stroke-width="1.575" stroke-miterlimit="10" stroke-linecap="round"/>
<path d="M217.512 145.087C214.975 146.131 213.172 142.154 215.912 141.076C218.45 140.032 220.253 144.009 217.512 145.087Z" fill="#17293E"/>
<path d="M232.314 139.942C229.776 140.986 227.974 137.009 230.714 135.931C233.336 134.769 234.936 138.779 232.314 139.942Z" fill="#17293E"/>
<path d="M238.233 150.738C237.47 154.294 231.105 158.057 226.733 153.03" stroke="#18293D" stroke-width="1.575" stroke-linecap="round"/>
<path d="M152.247 258.3L108.675 315.671H166.771" stroke="#D6DDE2" stroke-width="86.625" stroke-linecap="round" stroke-linejoin="round"/>
<g filter="url(#filter0_b_136_9484)">
<path fill-rule="evenodd" clip-rule="evenodd" d="M177.683 356.59C170.421 356.59 161.706 352.233 161.706 338.435C161.706 328.268 168.968 318.827 179.135 318.827C189.302 318.827 196.912 318.827 203.444 320.432L218.741 325.393C233.159 329.893 247.495 334.586 261.801 339.524C264.346 340.403 265.967 342.749 266.044 345.289C267.418 346.589 268.195 348.491 267.985 350.518C267.627 353.979 264.532 356.494 261.071 356.136L254.36 355.443C253.327 356.183 252.061 356.619 250.693 356.619L212.893 356.619C212.689 356.619 212.487 356.609 212.288 356.59L177.683 356.59Z" fill="#FCBD9A"/>
<path d="M161.706 338.435L162.494 338.435V338.435L161.706 338.435ZM177.683 356.59L177.683 357.378H177.683V356.59ZM179.135 318.827V319.614V318.827ZM203.444 320.432L203.687 319.683L203.66 319.674L203.632 319.668L203.444 320.432ZM218.741 325.393L218.498 326.143L218.506 326.145L218.741 325.393ZM261.801 339.524L261.544 340.269L261.801 339.524ZM266.044 345.289L265.257 345.313L265.267 345.638L265.503 345.861L266.044 345.289ZM267.985 350.518L267.202 350.437V350.437L267.985 350.518ZM261.071 356.136L260.99 356.92L261.071 356.136ZM254.36 355.443L254.44 354.659L254.143 354.629L253.901 354.803L254.36 355.443ZM250.693 356.619V355.831V356.619ZM212.893 356.619V357.406H212.893L212.893 356.619ZM212.288 356.59L212.363 355.806L212.325 355.803H212.288L212.288 356.59ZM160.919 338.435C160.919 345.509 163.159 350.277 166.441 353.269C169.705 356.245 173.906 357.377 177.683 357.378L177.683 355.803C174.198 355.803 170.41 354.756 167.502 352.105C164.61 349.468 162.494 345.158 162.494 338.435L160.919 338.435ZM179.135 318.039C168.418 318.039 160.918 327.958 160.919 338.435L162.494 338.435C162.493 328.578 169.518 319.614 179.135 319.614V318.039ZM203.632 319.668C196.988 318.034 189.269 318.039 179.135 318.039V319.614C189.334 319.614 196.837 319.619 203.256 321.197L203.632 319.668ZM218.984 324.644L203.687 319.683L203.201 321.181L218.498 326.143L218.984 324.644ZM218.506 326.145C232.918 330.643 247.246 335.333 261.544 340.269L262.058 338.78C247.744 333.839 233.401 329.144 218.975 324.642L218.506 326.145ZM261.544 340.269C263.77 341.037 265.189 343.089 265.257 345.313L266.831 345.265C266.744 342.409 264.922 339.769 262.058 338.78L261.544 340.269ZM265.503 345.861C266.707 347 267.385 348.663 267.202 350.437L268.768 350.599C269.004 348.318 268.13 346.178 266.585 344.717L265.503 345.861ZM267.202 350.437C266.889 353.465 264.18 355.666 261.152 355.353L260.99 356.92C264.883 357.322 268.366 354.492 268.768 350.599L267.202 350.437ZM261.152 355.353L254.44 354.659L254.279 356.226L260.99 356.92L261.152 355.353ZM253.901 354.803C252.997 355.45 251.891 355.831 250.693 355.831V357.406C252.231 357.406 253.656 356.916 254.818 356.083L253.901 354.803ZM250.693 355.831L212.893 355.831L212.893 357.406L250.693 357.406V355.831ZM212.893 355.831C212.714 355.831 212.537 355.823 212.363 355.806L212.213 357.374C212.437 357.395 212.664 357.406 212.893 357.406V355.831ZM177.683 357.378L212.288 357.378L212.288 355.803L177.683 355.803V357.378Z" fill="#18293D"/>
</g>
<path d="M253.056 356.657C256.206 355.082 257.781 349.767 250.694 347.995C248.174 347.365 227.069 343.27 216.044 340.907" stroke="#18293D" stroke-width="1.575" stroke-linecap="round"/>
<path d="M266.175 354.375C269.325 352.013 269.325 345.122 262.238 343.35C255.15 341.578 220.5 330.75 220.5 330.75" stroke="#18293D" stroke-width="1.575" stroke-linecap="round"/>
<path d="M148.921 345.801C146.488 345.776 144.504 343.703 144.53 341.271C144.555 338.838 146.628 336.853 149.06 336.879C151.493 336.905 153.478 338.977 153.452 341.41C153.426 343.842 151.354 345.827 148.921 345.801Z" stroke="#17293E" stroke-width="1.575" stroke-miterlimit="10"/>
<path d="M161.774 336.182C159.094 345.99 159.222 352.425 149.644 352.721C140.207 353.145 121.957 352.402 121.957 352.402" stroke="#17293E" stroke-width="1.575" stroke-miterlimit="10" stroke-linecap="round"/>
<path d="M70.875 357.525H407.925" stroke="#18293D" stroke-width="1.575"/>
<path fill-rule="evenodd" clip-rule="evenodd" d="M329.962 321.3L269.018 277.401L332.324 214.2L350.437 246.487L368.549 194.513L404.774 201.6C404.774 201.6 400.837 276.613 396.899 295.312C392.962 314.011 388.793 320.587 375.637 328.387C362.48 336.188 347.287 333.9 329.962 321.3Z" fill="#D6DDE2"/>
<path d="M411.729 160.695C414.33 162.827 413.898 166.331 412.287 169.441C408.085 175.005 398.091 186.001 395.904 189.696L375.38 185.591C375.38 185.591 386.269 175.601 400.009 163.699C404.914 159.449 409.131 158.565 411.729 160.695Z" fill="#FCBD9A" stroke="#17293E" stroke-width="1.575"/>
<path fill-rule="evenodd" clip-rule="evenodd" d="M368.539 196.971C370.658 190.219 374.259 181.344 392.483 180.122C411.036 178.879 435.583 180.122 435.583 180.122C437.827 176.977 440.911 171.143 443.577 166.101C445.308 162.826 446.864 159.884 447.897 158.23C449.608 155.494 453.951 151.389 456.688 153.441C458.164 154.549 458.962 155.855 458.891 157.84C460.851 155.913 462.465 154.367 463.522 153.427C469.639 147.984 476.418 152.426 472.037 159.326C471.645 159.943 471.175 160.624 470.638 161.358C476.188 160.304 479.824 165.484 474.578 169.856C467.598 175.673 449.273 187.938 443.942 191.481C440.849 194.775 434.757 195.449 428.467 196.144C426.315 196.382 424.14 196.622 422.054 196.971C414.942 198.161 407.398 199.962 407.398 199.962L407.398 206.977C407.398 215.87 400.31 225.089 386.923 225.089C370.114 223.111 366.486 206.119 367.855 199.962C367.855 199.962 368.253 197.883 368.539 196.971Z" fill="#FCBD9A"/>
<path d="M392.483 180.122L392.431 179.336L392.483 180.122ZM368.539 196.971L367.788 196.735L367.788 196.735L368.539 196.971ZM435.583 180.122L435.543 180.909L435.974 180.93L436.224 180.58L435.583 180.122ZM443.577 166.101L442.881 165.733L442.881 165.733L443.577 166.101ZM447.897 158.23L447.23 157.813L447.23 157.813L447.897 158.23ZM456.688 153.441L456.215 154.071L456.215 154.071L456.688 153.441ZM458.891 157.84L458.104 157.812L458.033 159.789L459.443 158.402L458.891 157.84ZM463.522 153.427L462.998 152.839L462.998 152.839L463.522 153.427ZM472.037 159.326L471.372 158.904L472.037 159.326ZM470.638 161.358L470.002 160.893L468.825 162.504L470.785 162.132L470.638 161.358ZM474.578 169.856L474.074 169.251L474.578 169.856ZM443.942 191.481L443.506 190.825L443.43 190.875L443.367 190.942L443.942 191.481ZM428.467 196.144L428.554 196.927L428.467 196.144ZM422.054 196.971L421.925 196.195L422.054 196.971ZM407.398 199.962L407.215 199.196L406.611 199.34L406.611 199.962L407.398 199.962ZM407.398 206.977L406.611 206.977L406.611 206.977L407.398 206.977ZM386.923 225.089L386.831 225.871L386.877 225.877L386.923 225.877L386.923 225.089ZM367.855 199.962L368.623 200.133L368.626 200.121L368.628 200.11L367.855 199.962ZM392.431 179.336C383.194 179.956 377.546 182.524 373.934 185.897C370.333 189.261 368.854 193.338 367.788 196.735L369.29 197.207C370.343 193.853 371.724 190.116 375.009 187.048C378.283 183.99 383.548 181.51 392.536 180.908L392.431 179.336ZM435.583 180.122C435.623 179.336 435.623 179.336 435.623 179.336C435.623 179.336 435.622 179.336 435.622 179.336C435.621 179.336 435.62 179.336 435.618 179.335C435.615 179.335 435.611 179.335 435.605 179.335C435.593 179.334 435.575 179.333 435.551 179.332C435.504 179.33 435.433 179.326 435.341 179.322C435.156 179.313 434.882 179.3 434.527 179.284C433.818 179.253 432.785 179.209 431.487 179.16C428.892 179.063 425.239 178.946 421.005 178.869C412.542 178.713 401.74 178.713 392.431 179.336L392.536 180.908C401.779 180.289 412.527 180.288 420.976 180.443C425.198 180.521 428.841 180.637 431.428 180.734C432.722 180.783 433.751 180.826 434.457 180.858C434.81 180.874 435.082 180.886 435.265 180.895C435.357 180.9 435.427 180.903 435.474 180.905C435.497 180.906 435.514 180.907 435.526 180.908C435.532 180.908 435.536 180.908 435.539 180.908C435.541 180.909 435.542 180.909 435.542 180.909C435.543 180.909 435.543 180.909 435.543 180.909C435.543 180.909 435.543 180.909 435.583 180.122ZM442.881 165.733C440.203 170.799 437.148 176.573 434.942 179.665L436.224 180.58C438.507 177.38 441.62 171.488 444.273 166.469L442.881 165.733ZM447.23 157.813C446.177 159.497 444.605 162.472 442.881 165.733L444.273 166.469C446.012 163.18 447.551 160.271 448.565 158.647L447.23 157.813ZM457.16 152.811C455.353 151.456 453.154 152.245 451.466 153.388C449.721 154.57 448.134 156.365 447.23 157.813L448.565 158.647C449.371 157.359 450.811 155.734 452.349 154.692C453.944 153.612 455.286 153.375 456.215 154.071L457.16 152.811ZM459.678 157.868C459.718 156.758 459.514 155.796 459.067 154.945C458.622 154.1 457.962 153.413 457.16 152.811L456.215 154.071C456.89 154.577 457.367 155.097 457.673 155.678C457.976 156.254 458.136 156.937 458.104 157.812L459.678 157.868ZM462.998 152.839C461.926 153.793 460.299 155.351 458.339 157.279L459.443 158.402C461.402 156.475 463.005 154.941 464.045 154.015L462.998 152.839ZM472.702 159.748C473.863 157.918 474.333 156.176 474.199 154.659C474.064 153.129 473.316 151.879 472.157 151.096C469.843 149.531 466.219 149.973 462.998 152.839L464.045 154.015C466.941 151.439 469.765 151.38 471.275 152.401C472.028 152.91 472.535 153.724 472.63 154.797C472.726 155.884 472.4 157.284 471.372 158.904L472.702 159.748ZM471.274 161.823C471.817 161.08 472.298 160.384 472.702 159.748L471.372 158.904C470.992 159.503 470.532 160.169 470.002 160.893L471.274 161.823ZM475.082 170.461C477.892 168.119 478.534 165.336 477.345 163.191C476.194 161.112 473.512 160.011 470.491 160.584L470.785 162.132C473.314 161.651 475.225 162.613 475.968 163.954C476.673 165.228 476.51 167.221 474.074 169.251L475.082 170.461ZM444.378 192.137C449.692 188.605 468.061 176.312 475.082 170.461L474.074 169.251C467.135 175.034 448.855 187.27 443.506 190.825L444.378 192.137ZM428.554 196.927C431.685 196.581 434.836 196.234 437.593 195.552C440.343 194.871 442.816 193.831 444.516 192.02L443.367 190.942C441.975 192.425 439.855 193.369 437.214 194.023C434.579 194.675 431.539 195.012 428.381 195.361L428.554 196.927ZM422.184 197.748C424.245 197.403 426.398 197.165 428.554 196.927L428.381 195.361C426.233 195.599 424.036 195.841 421.925 196.195L422.184 197.748ZM407.398 199.962C407.581 200.728 407.581 200.728 407.581 200.728C407.581 200.728 407.581 200.728 407.581 200.728C407.582 200.728 407.582 200.728 407.582 200.728C407.583 200.727 407.584 200.727 407.586 200.727C407.59 200.726 407.595 200.725 407.602 200.723C407.616 200.72 407.638 200.714 407.666 200.708C407.722 200.694 407.806 200.675 407.916 200.649C408.135 200.598 408.456 200.523 408.864 200.43C409.679 200.243 410.841 199.981 412.225 199.683C414.994 199.085 418.645 198.34 422.184 197.748L421.925 196.195C418.351 196.792 414.674 197.543 411.893 198.143C410.502 198.443 409.333 198.706 408.512 198.894C408.102 198.988 407.778 199.064 407.557 199.116C407.446 199.141 407.361 199.161 407.303 199.175C407.275 199.182 407.253 199.187 407.238 199.191C407.231 199.192 407.225 199.194 407.221 199.195C407.219 199.195 407.218 199.195 407.217 199.196C407.216 199.196 407.216 199.196 407.216 199.196C407.216 199.196 407.216 199.196 407.215 199.196C407.215 199.196 407.215 199.196 407.398 199.962ZM408.186 206.977L408.186 199.962L406.611 199.962L406.611 206.977L408.186 206.977ZM386.923 225.877C400.739 225.877 408.185 216.311 408.186 206.977L406.611 206.977C406.61 215.429 399.882 224.302 386.923 224.302L386.923 225.877ZM367.086 199.791C366.355 203.081 366.966 209.061 369.879 214.466C372.817 219.919 378.131 224.848 386.831 225.871L387.015 224.307C378.906 223.353 374.002 218.797 371.266 213.719C368.504 208.595 367.986 203 368.623 200.133L367.086 199.791ZM367.788 196.735C367.632 197.232 367.454 198.014 367.319 198.644C367.251 198.965 367.191 199.257 367.149 199.469C367.128 199.574 367.111 199.66 367.099 199.72C367.094 199.75 367.089 199.773 367.086 199.789C367.084 199.797 367.083 199.803 367.082 199.807C367.082 199.809 367.082 199.811 367.082 199.812C367.081 199.813 367.081 199.813 367.081 199.813C367.081 199.813 367.081 199.814 367.081 199.814C367.081 199.814 367.081 199.814 367.081 199.814C367.081 199.814 367.081 199.814 367.855 199.962C368.628 200.11 368.628 200.11 368.628 200.11C368.628 200.11 368.628 200.11 368.628 200.11C368.628 200.11 368.628 200.11 368.628 200.11C368.628 200.11 368.628 200.109 368.628 200.109C368.628 200.108 368.629 200.107 368.629 200.105C368.63 200.101 368.631 200.095 368.632 200.088C368.635 200.073 368.64 200.051 368.645 200.022C368.656 199.964 368.673 199.881 368.694 199.777C368.735 199.57 368.793 199.286 368.86 198.973C368.996 198.336 369.16 197.623 369.29 197.207L367.788 196.735Z" fill="#18293D"/>
<path d="M458.844 158.226C458.844 164.383 449.95 182.17 449.95 182.17" stroke="#17293E" stroke-width="1.575" stroke-linecap="round"/>
<path d="M471.159 160.962L458.161 176.697" stroke="#17293E" stroke-width="1.575" stroke-linecap="round"/>
<path d="M177.456 318.857L133.454 307.201M109.731 322.007C118.393 305.47 133.454 307.201 133.454 307.201M133.454 307.201L148.704 281.057M349.65 246.487L337.838 281.057" stroke="#18293D" stroke-width="1.575" stroke-linecap="round"/>
<path d="M383.617 236.681C383.074 239.053 380.627 240.551 378.256 240.009C375.884 239.466 374.386 237.019 374.928 234.648C375.471 232.276 377.918 230.778 380.289 231.32C382.661 231.863 384.159 234.309 383.617 236.681Z" stroke="#17293E" stroke-width="1.575" stroke-miterlimit="10"/>
<path d="M376.425 221.288C385.087 226.8 392.281 228.024 390.532 237.446C388.94 246.757 384.332 264.431 384.332 264.431" stroke="#17293E" stroke-width="1.575" stroke-miterlimit="10" stroke-linecap="round"/>
<circle cx="429.188" cy="100.013" r="43.3125" fill="#2FC26E"/>
<path d="M409.5 100.013L424.462 114.975L450.45 86.6251" stroke="white" stroke-width="7.875" stroke-linejoin="round"/>
<defs>
<filter id="filter0_b_136_9484" x="154.364" y="311.485" width="120.997" height="52.4761" filterUnits="userSpaceOnUse" color-interpolation-filters="sRGB">
<feFlood flood-opacity="0" result="BackgroundImageFix"/>
<feGaussianBlur in="BackgroundImage" stdDeviation="3.27732"/>
<feComposite in2="SourceAlpha" operator="in" result="effect1_backgroundBlur_136_9484"/>
<feBlend mode="normal" in="SourceGraphic" in2="effect1_backgroundBlur_136_9484" result="shape"/>
</filter>
</defs>
</svg>
