<svg width="26" height="24" viewBox="0 0 26 24" fill="none" xmlns="http://www.w3.org/2000/svg">
<path d="M24.4769 19.502L14.5979 2.95996C14.4648 2.73704 14.2762 2.55247 14.0504 2.42431C13.8247 2.29614 13.5695 2.22876 13.3099 2.22876C13.0503 2.22876 12.7951 2.29614 12.5694 2.42431C12.3436 2.55247 12.155 2.73704 12.0219 2.95996L2.14289 19.5C2.00669 19.7277 1.93332 19.9874 1.93027 20.2527C1.92723 20.5181 1.99461 20.7794 2.12555 21.0102C2.25649 21.241 2.4463 21.4329 2.67562 21.5664C2.90494 21.6998 3.16556 21.7701 3.43089 21.77H23.1899C23.4552 21.7701 23.7158 21.6998 23.9452 21.5664C24.1745 21.4329 24.3643 21.241 24.4952 21.0102C24.6262 20.7794 24.6936 20.5181 24.6905 20.2527C24.6875 19.9874 24.6141 19.7277 24.4779 19.5L24.4769 19.502ZM14.5599 7.76996L14.3099 14.77H12.3099L12.0599 7.76996H14.5599ZM13.3039 19.77C13.1067 19.7718 12.9111 19.7343 12.7285 19.6595C12.546 19.5847 12.3803 19.4742 12.2411 19.3344C12.102 19.1947 11.9921 19.0285 11.918 18.8457C11.844 18.6629 11.8072 18.4672 11.8099 18.27C11.8099 17.42 12.4719 16.77 13.3039 16.77C14.1589 16.77 14.8099 17.42 14.8099 18.27C14.8099 19.119 14.1599 19.77 13.3039 19.77Z" fill="#EF3124"/>
</svg>
