<svg width="14" height="14" viewBox="0 0 14 14" fill="none" xmlns="http://www.w3.org/2000/svg">
<g clip-path="url(#clip0_1402_2801)">
<path d="M6.57296 0.837906C3.17479 0.837906 0.410889 3.6018 0.410889 6.99998C0.410889 10.3982 3.17479 13.1621 6.57296 13.1621C9.97114 13.1621 12.735 10.3982 12.735 6.99998C12.735 3.6018 9.97114 0.837906 6.57296 0.837906ZM6.57296 12.3404C3.62501 12.3368 1.23612 9.94794 1.2325 6.99998C1.2325 4.05533 3.62831 1.65952 6.57296 1.65952C9.51762 1.65952 11.9134 4.05533 11.9134 6.99998C11.9134 9.94463 9.51762 12.3404 6.57296 12.3404Z" fill="#0DBA26"/>
<path d="M6.56963 3.61739C6.17854 3.61739 5.854 3.92056 5.854 4.28453C5.854 4.65672 6.17854 4.9599 6.56963 4.9599C6.96811 4.9599 7.29182 4.65672 7.29182 4.28453C7.29182 3.92056 6.96729 3.61739 6.56963 3.61739ZM6.16211 6.20546H6.98372V10.0399H6.16211V6.20546Z" fill="#0DBA26"/>
</g>
<defs>
<clipPath id="clip0_1402_2801">
<rect width="13.1458" height="13.1458" fill="white" transform="translate(0 0.427116)"/>
</clipPath>
</defs>
</svg>
